<svg width="146" height="69" viewBox="0 0 146 69" fill="none" xmlns="http://www.w3.org/2000/svg">
<g clip-path="url(#clip0_50_3635)">
<path fill-rule="evenodd" clip-rule="evenodd" d="M28.8012 55.8947L14.4004 60.3582L28.8012 68.98V55.8947ZM57.6028 51.7364L46.675 45.1925L43.5169 60.1694L57.6028 51.7364ZM46.675 23.7882L57.6028 34.4902V17.2453L46.675 23.7882ZM28.8012 0V13.0863L43.5169 8.81124L28.8012 0ZM0 17.2453L10.9277 23.7882L14.4004 8.6228L0 17.2453ZM0 34.4902L10.9277 45.1925L0 51.7364V34.4902Z" fill="#357A76"/>
<path fill-rule="evenodd" clip-rule="evenodd" d="M0 51.7364L14.4004 60.3582L10.9277 45.1925L0 51.7364ZM28.8012 68.98L43.5169 60.1694L28.8012 55.8947V68.98ZM57.6028 51.7364V34.4902L46.675 45.1925L57.6028 51.7364ZM43.5169 8.81157L46.675 23.7882L57.6028 17.2453L43.5169 8.81157ZM14.4004 8.6228L28.8012 13.0863V0L14.4004 8.6228ZM10.9277 23.7882L0 34.4902V17.2453L10.9277 23.7882Z" fill="#618F8B"/>
<path fill-rule="evenodd" clip-rule="evenodd" d="M43.5169 8.80856L28.8012 13.0836L37.7384 18.4347L43.5169 8.8089V8.80856ZM46.675 23.7856V34.4875H57.6028L46.675 23.7856ZM19.8646 50.5406L14.4004 60.3556L28.8012 55.892L19.8646 50.5406ZM37.7384 50.5406L43.5169 60.1668L46.675 45.1898L37.7384 50.5406ZM10.9277 23.7856L19.8646 18.4347L14.4004 8.62012L10.9277 23.7856ZM10.9277 34.4875V45.1898L0 34.4875H10.9277Z" fill="#8FBCB5"/>
<path fill-rule="evenodd" clip-rule="evenodd" d="M43.5169 8.80856L28.8012 13.0836L37.7384 18.4347L43.5169 8.8089V8.80856ZM46.675 23.7856V34.4875H57.6028L46.675 23.7856ZM19.8646 50.5406L14.4004 60.3556L28.8012 55.892L19.8646 50.5406ZM37.7384 50.5406L43.5169 60.1668L46.675 45.1898L37.7384 50.5406ZM10.9277 23.7856L19.8646 18.4347L14.4004 8.62012L10.9277 23.7856ZM10.9277 34.4875V45.1898L0 34.4875H10.9277Z" fill="#8FBCB5"/>
<path fill-rule="evenodd" clip-rule="evenodd" d="M43.5169 8.8089L37.7384 18.4347L46.675 23.7856L43.5169 8.8089ZM57.6028 34.4875H46.675V45.1898L57.6028 34.4875ZM10.9277 45.1898L14.4004 60.3556L19.8646 50.5406L10.9277 45.1898ZM28.8012 55.892L43.5169 60.1668L37.7384 50.5406L28.8012 55.892ZM14.4004 8.62012L19.8646 18.4347L28.8012 13.0836L14.4004 8.62012ZM10.9277 34.4875H0L10.9277 23.7856V34.4875Z" fill="#D2E4DD"/>
<path fill-rule="evenodd" clip-rule="evenodd" d="M72.4043 29.461C73.2041 28.682 73.6038 27.5501 73.6038 26.0644C73.6038 24.5793 73.2041 23.4361 72.4043 22.6357C71.6048 21.8353 70.3775 21.4352 68.7227 21.4352H66.908V30.6293H68.9729C70.4611 30.6293 71.6048 30.2395 72.4043 29.461ZM74.7929 20.4725C76.1831 21.792 76.8786 23.6275 76.8786 25.9781C76.8786 28.3289 76.2009 30.1893 74.8448 31.5593C73.489 32.9297 71.4205 33.6143 68.6392 33.6143H63.6542V18.4932H68.8062C71.4065 18.4932 73.402 19.1528 74.7929 20.4725Z" fill="white"/>
<path fill-rule="evenodd" clip-rule="evenodd" d="M78.2201 33.6076H81.349V21.969H78.2201V33.6076ZM78.4809 20.4872C78.1264 20.1195 77.9489 19.669 77.9489 19.135C77.9489 18.6018 78.1264 18.1508 78.4809 17.7832C78.8354 17.4152 79.2699 17.2314 79.7844 17.2314C80.2989 17.2314 80.7337 17.4152 81.0882 17.7832C81.4427 18.1508 81.6203 18.6018 81.6203 19.135C81.6203 19.669 81.4427 20.1195 81.0882 20.4872C80.7337 20.8552 80.2989 21.0389 79.7844 21.0389C79.2699 21.0389 78.8354 20.8552 78.4809 20.4872Z" fill="white"/>
<path fill-rule="evenodd" clip-rule="evenodd" d="M91.7206 29.9852C91.7206 31.1318 91.314 32.0512 90.5004 32.7435C89.6869 33.4358 88.6544 33.7819 87.4028 33.7819C86.5683 33.7819 85.6993 33.6268 84.7952 33.3167C83.8912 33.0069 83.078 32.5487 82.355 31.9431L83.7315 29.9095C84.8997 30.8471 86.144 31.3156 87.4653 31.3156C87.8686 31.3156 88.1883 31.233 88.4248 31.067C88.661 30.9013 88.7793 30.6811 88.7793 30.407C88.7793 30.1333 88.6158 29.8807 88.2894 29.65C87.9623 29.4193 87.4896 29.2031 86.8707 29.001C86.252 28.7993 85.779 28.6261 85.4525 28.4819C85.1255 28.3379 84.7535 28.1286 84.3365 27.8545C83.4882 27.3064 83.0643 26.4954 83.0643 25.4206C83.0643 24.3464 83.4812 23.4704 84.3155 22.7924C85.1501 22.1146 86.2275 21.7754 87.5488 21.7754C88.8699 21.7754 90.1908 22.2372 91.5122 23.16L90.3439 25.3234C89.3703 24.6311 88.4003 24.2849 87.434 24.2849C86.4672 24.2849 85.9843 24.559 85.9843 25.1072C85.9843 25.41 86.1373 25.6477 86.4433 25.821C86.749 25.9938 87.2568 26.1962 87.9661 26.4266C88.675 26.6574 89.1791 26.8343 89.4784 26.9566C89.7771 27.0792 90.1354 27.2703 90.5524 27.5299C91.3312 28.0205 91.7206 28.8387 91.7206 29.9852Z" fill="white"/>
<path fill-rule="evenodd" clip-rule="evenodd" d="M98.4554 30.9047C99.4985 30.9047 100.437 30.3638 101.272 29.282L103.128 31.4456C101.682 33.003 100.117 33.7819 98.4347 33.7819C96.7519 33.7819 95.3302 33.2301 94.1689 32.1268C93.0078 31.0237 92.4274 29.5816 92.4274 27.8003C92.4274 26.0194 93.0146 24.57 94.1899 23.4522C95.3649 22.3348 96.7586 21.7754 98.3719 21.7754C99.1785 21.7754 99.9955 21.9486 100.823 22.2947C101.65 22.6409 102.377 23.153 103.003 23.8307L101.376 26.0372C101.014 25.5902 100.573 25.2444 100.051 24.9988C99.5297 24.7538 99.0117 24.6311 98.4972 24.6311C97.6767 24.6311 96.9709 24.9088 96.3799 25.4639C95.7889 26.0194 95.4937 26.791 95.4937 27.7788C95.4937 28.7667 95.7889 29.5346 96.3799 30.0824C96.9709 30.6309 97.663 30.9047 98.4554 30.9047Z" fill="white"/>
<path fill-rule="evenodd" clip-rule="evenodd" d="M106.482 27.7894C106.482 28.7415 106.743 29.5168 107.264 30.1148C107.786 30.7139 108.453 31.0128 109.267 31.0128C110.08 31.0128 110.748 30.7139 111.269 30.1148C111.791 29.5168 112.052 28.7415 112.052 27.7894C112.052 26.8376 111.791 26.0587 111.269 25.453C110.748 24.8473 110.08 24.5445 109.267 24.5445C108.453 24.5445 107.786 24.8473 107.264 25.453C106.743 26.0587 106.482 26.8376 106.482 27.7894ZM115.201 27.7894C115.201 29.4768 114.638 30.8977 113.512 32.0512C112.385 33.2053 110.97 33.7819 109.267 33.7819C107.563 33.7819 106.148 33.2053 105.022 32.0512C103.896 30.8977 103.332 29.4768 103.332 27.7894C103.332 26.1019 103.896 24.6781 105.022 23.517C106.148 22.3562 107.563 21.7754 109.267 21.7754C110.97 21.7754 112.385 22.3562 113.512 23.517C114.638 24.6781 115.201 26.1019 115.201 27.7894Z" fill="white"/>
<path fill-rule="evenodd" clip-rule="evenodd" d="M119.25 33.6151L114.808 21.9551H118.062L120.856 29.2886L123.651 21.9551H126.906L122.462 33.6151H119.25Z" fill="white"/>
<path fill-rule="evenodd" clip-rule="evenodd" d="M134.122 25.0206C133.691 24.6457 133.166 24.4582 132.547 24.4582C131.929 24.4582 131.361 24.6529 130.847 25.0421C130.332 25.4315 130.034 25.9581 129.951 26.6214H134.873C134.803 25.9291 134.553 25.3958 134.122 25.0206ZM137.126 31.9213C135.86 33.162 134.375 33.7819 132.672 33.7819C130.969 33.7819 129.561 33.2377 128.448 32.1484C127.336 31.0596 126.78 29.5994 126.78 27.7679C126.78 25.9363 127.346 24.4797 128.48 23.398C129.613 22.3166 130.951 21.7754 132.495 21.7754C134.039 21.7754 135.349 22.259 136.428 23.2251C137.505 24.1914 138.043 25.5181 138.043 27.2056V28.9363H129.867C129.964 29.5707 130.284 30.09 130.827 30.4937C131.368 30.8977 131.98 31.0993 132.662 31.0993C133.761 31.0993 134.664 30.7176 135.374 29.9529L137.126 31.9213Z" fill="white"/>
<path fill-rule="evenodd" clip-rule="evenodd" d="M145.161 24.8258C144.229 24.8258 143.533 25.1687 143.075 25.8534C142.616 26.5387 142.387 27.4432 142.387 28.5683V33.6087H139.257V21.97H142.387V23.5061C142.789 23.0303 143.294 22.6266 143.898 22.2947C144.504 21.9631 145.119 21.7899 145.745 21.7754L145.766 24.8258H145.161Z" fill="white"/>
<path fill-rule="evenodd" clip-rule="evenodd" d="M67.4459 47.7727C67.9808 48.4626 68.7009 48.8075 69.6066 48.8075C70.5119 48.8075 71.2286 48.4626 71.7568 47.7727C72.2846 47.0831 72.5489 46.1402 72.5489 44.945V36.708H75.7589V45.0518C75.7589 47.2143 75.1826 48.8752 74.0306 50.0347C72.8783 51.1944 71.4032 51.774 69.6066 51.774C67.8094 51.774 66.3311 51.1904 65.172 50.024C64.0126 48.8577 63.4335 47.2 63.4335 45.0518V36.708H66.6432V44.945C66.6432 46.1402 66.911 47.0831 67.4459 47.7727Z" fill="white"/>
<path fill-rule="evenodd" clip-rule="evenodd" d="M80.6766 45.2236V51.6254H77.5901V40.1443H80.6766V41.4246C81.6093 40.4434 82.6586 39.9521 83.8248 39.9521C84.9905 39.9521 85.9679 40.379 86.7572 41.2325C87.5459 42.0862 87.9402 43.2248 87.9402 44.6471V51.6254H84.8538V45.138C84.8538 43.3742 84.2293 42.4918 82.9813 42.4918C82.3638 42.4918 81.8254 42.7233 81.3661 43.1855C80.9064 43.648 80.6766 44.3274 80.6766 45.2236Z" fill="white"/>
<path fill-rule="evenodd" clip-rule="evenodd" d="M89.7054 51.624H92.7917V40.1427H89.7054V51.624ZM89.9626 38.6811C89.613 38.3185 89.4379 37.8738 89.4379 37.3473C89.4379 36.8212 89.613 36.3765 89.9626 36.0139C90.3127 35.6508 90.741 35.4697 91.2489 35.4697C91.7561 35.4697 92.1851 35.6508 92.5348 36.0139C92.8845 36.3765 93.0595 36.8212 93.0595 37.3473C93.0595 37.8738 92.8845 38.3185 92.5348 38.6811C92.1851 39.0438 91.7561 39.2254 91.2489 39.2254C90.741 39.2254 90.3127 39.0438 89.9626 38.6811Z" fill="white"/>
</g>
<defs>
<clipPath id="clip0_50_3635">
<rect width="146" height="69" fill="white"/>
</clipPath>
</defs>
</svg>
