<svg width="19" height="19" viewBox="0 0 19 19" fill="none" xmlns="http://www.w3.org/2000/svg">
<path fill-rule="evenodd" clip-rule="evenodd" d="M9.57741 16.7802C13.4084 16.7802 16.5141 13.6745 16.5141 9.84353C16.5141 6.01251 13.4084 2.90685 9.57741 2.90685C5.7464 2.90685 2.64074 6.01251 2.64074 9.84353C2.64074 13.6745 5.7464 16.7802 9.57741 16.7802ZM9.57741 18.9209C14.5907 18.9209 18.6548 14.8568 18.6548 9.84353C18.6548 4.83021 14.5907 0.766113 9.57741 0.766113C4.5641 0.766113 0.5 4.83021 0.5 9.84353C0.5 14.8568 4.5641 18.9209 9.57741 18.9209ZM9.5 7.77783C10.0523 7.77783 10.5 8.22555 10.5 8.77783V13.7778C10.5 14.3301 10.0523 14.7778 9.5 14.7778C8.94772 14.7778 8.5 14.3301 8.5 13.7778V8.77783C8.5 8.22555 8.94771 7.77783 9.5 7.77783ZM9.5 6.77783C10.0523 6.77783 10.5 6.33012 10.5 5.77783C10.5 5.22555 10.0523 4.77783 9.5 4.77783C8.94771 4.77783 8.5 5.22555 8.5 5.77783C8.5 6.33012 8.94771 6.77783 9.5 6.77783Z" fill="#50A5A2"/>
</svg>
