<svg width="22" height="22" viewBox="0 0 22 22" fill="none" xmlns="http://www.w3.org/2000/svg">
<path fill-rule="evenodd" clip-rule="evenodd" d="M16.403 9.94777C16.403 13.7788 13.2973 16.8844 9.46633 16.8844C5.63531 16.8844 2.52966 13.7788 2.52966 9.94777C2.52966 6.11676 5.63531 3.0111 9.46633 3.0111C13.2973 3.0111 16.403 6.11676 16.403 9.94777ZM15.3605 16.8515C13.7746 18.2068 11.716 19.0252 9.46633 19.0252C4.45301 19.0252 0.388916 14.9611 0.388916 9.94777C0.388916 4.93446 4.45301 0.870361 9.46633 0.870361C14.4796 0.870361 18.5437 4.93446 18.5437 9.94777C18.5437 11.9395 17.9023 13.7814 16.8146 15.2782L20.8134 19.277C21.2314 19.695 21.2314 20.3727 20.8134 20.7907C20.3954 21.2087 19.7177 21.2087 19.2997 20.7907L15.3605 16.8515Z" fill="#50A5A2"/>
</svg>
