<svg width="23" height="19" viewBox="0 0 23 19" fill="none" xmlns="http://www.w3.org/2000/svg">
<path d="M5.26724 0.767244C5.69754 0.336944 6.3952 0.336944 6.8255 0.767244L11.2329 5.17465C11.6632 5.60495 11.6632 6.30261 11.2329 6.7329C10.8026 7.1632 10.1049 7.1632 9.67465 6.7329L7.14822 4.20648V16.9723C7.14822 17.5808 6.6549 18.0741 6.04637 18.0741C5.43783 18.0741 4.94452 17.5808 4.94452 16.9723V4.20648L2.41809 6.7329C1.98779 7.1632 1.29013 7.1632 0.859834 6.7329C0.429534 6.30261 0.429534 5.60495 0.859834 5.17465L5.26724 0.767244ZM15.963 14.3122V1.54637C15.963 0.937835 16.4564 0.444519 17.0649 0.444519C17.6734 0.444519 18.1667 0.937835 18.1667 1.54637V14.3122L20.6932 11.7858C21.1235 11.3555 21.8211 11.3555 22.2514 11.7858C22.6817 12.2161 22.6817 12.9137 22.2514 13.344L17.844 17.7514C17.6374 17.9581 17.3571 18.0741 17.0649 18.0741C16.7727 18.0741 16.4924 17.9581 16.2858 17.7514L11.8784 13.344C11.4481 12.9137 11.4481 12.2161 11.8784 11.7858C12.3087 11.3555 13.0063 11.3555 13.4366 11.7858L15.963 14.3122Z" fill="#50A5A2"/>
</svg>
