<svg width="226" height="57" viewBox="0 0 226 57" fill="none" xmlns="http://www.w3.org/2000/svg">
<path fill-rule="evenodd" clip-rule="evenodd" d="M62.851 24.278C63.5326 23.6381 63.8734 22.7076 63.8734 21.486C63.8734 20.2651 63.5326 19.3254 62.851 18.6675C62.1691 18.0095 61.1227 17.6806 59.712 17.6806H58.1649V25.2383H59.9254C61.1939 25.2383 62.1691 24.9182 62.851 24.278ZM64.887 16.8891C66.0724 17.9739 66.6654 19.4826 66.6654 21.4152C66.6654 23.3474 66.0876 24.8768 64.9317 26.0034C63.7754 27.1295 62.0119 27.6924 59.6409 27.6924H55.3906V15.2617H59.7832C61.9999 15.2617 63.7014 15.8043 64.887 16.8891Z" fill="#1A1919"/>
<path fill-rule="evenodd" clip-rule="evenodd" d="M73.2309 24.0429V23.5809H71.5593C70.4923 23.5809 69.9588 23.9126 69.9588 24.5764C69.9588 24.9205 70.0861 25.1843 70.3413 25.368C70.5961 25.552 70.9608 25.6438 71.4348 25.6438C71.9088 25.6438 72.3269 25.4986 72.6887 25.2079C73.0502 24.9176 73.2309 24.5292 73.2309 24.0429ZM75.9162 27.6885H73.4088V26.5326C72.721 27.3982 71.8707 27.8312 70.857 27.8312C69.8433 27.8312 68.9923 27.5376 68.3049 26.9507C67.6171 26.3639 67.2734 25.5814 67.2734 24.6033C67.2734 23.6252 67.6291 22.8932 68.3405 22.4068C69.0518 21.9209 70.0237 21.6777 71.257 21.6777H73.2487V21.6244C73.2487 20.6049 72.709 20.0953 71.6304 20.0953C71.168 20.0953 70.6792 20.1871 70.1634 20.3708C69.6477 20.5548 69.2118 20.7827 68.8562 21.0556L67.6647 19.3306C68.9211 18.4175 70.3562 17.9609 71.9683 17.9609C73.1304 17.9609 74.0784 18.2516 74.8137 18.8327C75.5486 19.4134 75.9162 20.3323 75.9162 21.5888V27.6885Z" fill="#1A1919"/>
<path fill-rule="evenodd" clip-rule="evenodd" d="M82.4937 20.4684C81.6992 20.4684 81.1066 20.7504 80.7153 21.3133C80.3241 21.8766 80.1285 22.6206 80.1285 23.545V27.6885H77.4609V18.1214H80.1285V19.384C80.4722 18.9924 80.9022 18.6607 81.4176 18.3877C81.9337 18.1152 82.4581 17.9729 82.9916 17.9609L83.0094 20.4684H82.4937Z" fill="#1A1919"/>
<path fill-rule="evenodd" clip-rule="evenodd" d="M90.5834 22.7004C90.5834 21.9357 90.37 21.334 89.9432 20.8956C89.5164 20.4568 88.9887 20.2376 88.3605 20.2376C87.7319 20.2376 87.1896 20.4568 86.7331 20.8956C86.2765 21.334 86.0486 21.9328 86.0486 22.6914C86.0486 23.4503 86.2707 24.064 86.7153 24.5321C87.1603 25.0007 87.7025 25.2344 88.3427 25.2344C88.9829 25.2344 89.5164 25.0032 89.9432 24.5412C90.37 24.0788 90.5834 23.4651 90.5834 22.7004ZM90.9569 26.0702C90.1149 27.007 89.0689 27.4755 87.8182 27.4755C86.5672 27.4755 85.5122 27.0516 84.6524 26.2038C83.793 25.3564 83.3633 24.224 83.3633 22.8071C83.3633 21.3906 83.8046 20.2285 84.6883 19.3216C85.5713 18.4146 86.5821 17.9609 87.7203 17.9609C88.8584 17.9609 89.8009 18.4295 90.5478 19.3658V18.1032H93.2154V26.4437C93.2154 27.2973 93.0669 28.0562 92.7708 28.72C92.4743 29.3838 92.0772 29.9057 91.5793 30.2853C90.595 31.0674 89.4333 31.4587 88.0937 31.4587C87.3824 31.4587 86.6561 31.3433 85.915 31.1121C85.1739 30.8809 84.525 30.5517 83.9679 30.1249L84.9994 28.1154C85.8766 28.7791 86.8046 29.1112 87.7823 29.1112C88.7608 29.1112 89.5342 28.8681 90.1033 28.3825C90.6723 27.8961 90.9569 27.1256 90.9569 26.0702Z" fill="#1A1919"/>
<path fill-rule="evenodd" clip-rule="evenodd" d="M100.297 24.0429V23.5809H98.6257C97.5583 23.5809 97.0248 23.9126 97.0248 24.5764C97.0248 24.9205 97.1522 25.1843 97.4073 25.368C97.6621 25.552 98.0268 25.6438 98.5008 25.6438C98.9752 25.6438 99.3929 25.4986 99.7548 25.2079C100.116 24.9176 100.297 24.5292 100.297 24.0429ZM102.983 27.6885H100.475V26.5326C99.7871 27.3982 98.9367 27.8312 97.9231 27.8312C96.9094 27.8312 96.0583 27.5376 95.3709 26.9507C94.6832 26.3639 94.3398 25.5814 94.3398 24.6033C94.3398 23.6252 94.6955 22.8932 95.4069 22.4068C96.1178 21.9209 97.0901 21.6777 98.3234 21.6777H100.315V21.6244C100.315 20.6049 99.7754 20.0953 98.6965 20.0953C98.2344 20.0953 97.7452 20.1871 97.2295 20.3708C96.7138 20.5548 96.2779 20.7827 95.9222 21.0556L94.7311 19.3306C95.9875 18.4175 97.4222 17.9609 99.0347 17.9609C100.196 17.9609 101.145 18.2516 101.88 18.8327C102.615 19.4134 102.983 20.3323 102.983 21.5888V27.6885Z" fill="#1A1919"/>
<path fill-rule="evenodd" clip-rule="evenodd" d="M107.195 22.3535V27.6885H104.527V18.1214H107.195V19.1884C108.001 18.3703 108.908 17.9609 109.916 17.9609C110.923 17.9609 111.768 18.3166 112.45 19.0283C113.132 19.7397 113.472 20.688 113.472 21.8733V27.6885H110.805V22.2823C110.805 20.8125 110.265 20.0772 109.187 20.0772C108.653 20.0772 108.188 20.2703 107.791 20.6553C107.393 21.0408 107.195 21.6069 107.195 22.3535Z" fill="#1A1919"/>
<path fill-rule="evenodd" clip-rule="evenodd" d="M118.094 17.5738V18.2136H120.407V20.1342H118.094V27.6923H115.409V20.1342H114.289V18.2136H115.409V17.6271C115.409 16.5837 115.726 15.757 116.361 15.1461C116.995 14.5357 117.783 14.2305 118.726 14.2305C119.668 14.2305 120.525 14.5861 121.295 15.2975L120.335 17.0933C119.944 16.6429 119.511 16.4178 119.037 16.4178C118.764 16.4178 118.539 16.5155 118.361 16.7111C118.184 16.9067 118.094 17.1942 118.094 17.5738Z" fill="#1A1919"/>
<path fill-rule="evenodd" clip-rule="evenodd" d="M123.076 22.9048C123.076 23.6876 123.298 24.3249 123.743 24.8167C124.187 25.3088 124.756 25.5549 125.45 25.5549C126.143 25.5549 126.713 25.3088 127.157 24.8167C127.602 24.3249 127.824 23.6876 127.824 22.9048C127.824 22.1227 127.602 21.4821 127.157 20.9841C126.713 20.4862 126.143 20.2376 125.45 20.2376C124.756 20.2376 124.187 20.4862 123.743 20.9841C123.298 21.4821 123.076 22.1227 123.076 22.9048ZM130.509 22.9048C130.509 24.2922 130.029 25.4598 129.069 26.4085C128.109 27.3568 126.902 27.8312 125.45 27.8312C123.997 27.8312 122.791 27.3568 121.831 26.4085C120.871 25.4598 120.391 24.2922 120.391 22.9048C120.391 21.5176 120.871 20.3472 121.831 19.3927C122.791 18.4386 123.997 17.9609 125.45 17.9609C126.902 17.9609 128.109 18.4386 129.069 19.3927C130.029 20.3472 130.509 21.5176 130.509 22.9048Z" fill="#1A1919"/>
<path fill-rule="evenodd" clip-rule="evenodd" d="M133.744 22.9255C133.744 23.696 133.975 24.3275 134.437 24.8193C134.9 25.3114 135.439 25.5575 136.056 25.5575C136.672 25.5575 137.197 25.3114 137.63 24.8193C138.062 24.3275 138.279 23.6931 138.279 22.9164C138.279 22.1401 138.062 21.4937 137.63 20.978C137.197 20.4623 136.666 20.2046 136.038 20.2046C135.409 20.2046 134.87 20.4652 134.42 20.9867C133.969 21.5086 133.744 22.155 133.744 22.9255ZM135.425 27.8338C134.292 27.8338 133.282 27.3532 132.392 26.3929C131.503 25.4326 131.059 24.2415 131.059 22.8188C131.059 21.3958 131.492 20.2311 132.357 19.3242C133.222 18.4172 134.236 17.9635 135.398 17.9635C136.56 17.9635 137.508 18.3729 138.243 19.191V14.4961H140.911V27.6911H138.243V26.4285C137.496 27.3652 136.557 27.8338 135.425 27.8338Z" fill="#1A1919"/>
<path fill-rule="evenodd" clip-rule="evenodd" d="M61.9172 36.3807C62.2489 36.0072 62.4151 35.4621 62.4151 34.7446C62.4151 34.0274 62.1988 33.5175 61.7659 33.2152C61.3332 32.9129 60.6604 32.7619 59.7476 32.7619H58.1649V36.941H60.0321C60.9569 36.941 61.5851 36.7541 61.9172 36.3807ZM63.9536 31.4902C64.825 32.2313 65.2605 33.3694 65.2605 34.9046C65.2605 36.4402 64.813 37.5635 63.918 38.2748C63.0227 38.9858 61.6562 39.3418 59.8187 39.3418H58.1649V42.8096H55.3906V30.3789H59.7832C61.6918 30.3789 63.0822 30.7495 63.9536 31.4902Z" fill="#1A1919"/>
<path fill-rule="evenodd" clip-rule="evenodd" d="M71.3062 35.5895C70.5117 35.5895 69.9191 35.8711 69.5278 36.4341C69.1366 36.9973 68.941 37.7413 68.941 38.6661V42.8096H66.2734V33.2417H68.941V34.5047C69.2847 34.1135 69.7147 33.7818 70.2305 33.5088C70.7462 33.2363 71.2706 33.0936 71.8041 33.082L71.8219 35.5895H71.3062Z" fill="#1A1919"/>
<path fill-rule="evenodd" clip-rule="evenodd" d="M72.696 42.8098H75.3636V33.2419H72.696V42.8098ZM72.9185 32.0239C72.6162 31.7216 72.4648 31.351 72.4648 30.9122C72.4648 30.4738 72.6162 30.1033 72.9185 29.801C73.2208 29.4986 73.5914 29.3477 74.0298 29.3477C74.4686 29.3477 74.8391 29.4986 75.1415 29.801C75.4438 30.1033 75.5948 30.4738 75.5948 30.9122C75.5948 31.351 75.4438 31.7216 75.1415 32.0239C74.8391 32.3262 74.4686 32.4776 74.0298 32.4776C73.5914 32.4776 73.2208 32.3262 72.9185 32.0239Z" fill="#1A1919"/>
<path fill-rule="evenodd" clip-rule="evenodd" d="M80.1807 32.691V33.3308H82.4925V35.2514H80.1807V42.8098H77.4954V35.2514H76.375V33.3308H77.4954V32.744C77.4954 31.7009 77.8122 30.8741 78.4466 30.2633C79.0806 29.6529 79.8693 29.3477 80.8118 29.3477C81.7543 29.3477 82.6109 29.7033 83.3817 30.4147L82.4214 32.2108C82.0302 31.7601 81.5972 31.5347 81.1232 31.5347C80.8503 31.5347 80.6253 31.6327 80.4474 31.8283C80.2696 32.0239 80.1807 32.3117 80.1807 32.691Z" fill="#1A1919"/>
<path fill-rule="evenodd" clip-rule="evenodd" d="M84.9118 46.5799C83.9751 46.5799 83.0917 46.2002 82.262 45.4421L83.4713 43.4681C83.9217 43.9065 84.3841 44.1261 84.8584 44.1261C85.1074 44.1261 85.3208 44.0045 85.4986 43.7613C85.6765 43.5182 85.7654 43.2605 85.7654 42.9879C85.7654 42.7154 84.5322 39.4668 82.0664 33.2422H84.9118L87.2414 39.1997L89.5711 33.2422H92.4165L87.9706 44.5173C87.7096 45.1692 87.3035 45.6758 86.7522 46.0376C86.2009 46.3991 85.5876 46.5799 84.9118 46.5799Z" fill="#1A1919"/>
<path fill-rule="evenodd" clip-rule="evenodd" d="M99.8833 39.8311C99.8833 40.7732 99.5363 41.5289 98.8427 42.0983C98.1492 42.6674 97.2691 42.9515 96.2021 42.9515C95.4907 42.9515 94.7496 42.8245 93.9791 42.5694C93.2083 42.3146 92.5143 41.9379 91.8984 41.4399L93.0722 39.7687C94.0677 40.5395 95.1289 40.9242 96.2554 40.9242C96.5987 40.9242 96.8717 40.8564 97.0731 40.7199C97.2749 40.5838 97.3754 40.4031 97.3754 40.1777C97.3754 39.9527 97.236 39.7447 96.9577 39.5553C96.679 39.3654 96.2757 39.1876 95.7484 39.0217C95.2207 38.8555 94.8175 38.7133 94.5391 38.5946C94.2604 38.4763 93.9432 38.3046 93.5875 38.0789C92.8642 37.6285 92.5027 36.9618 92.5027 36.0784C92.5027 35.1954 92.8587 34.4753 93.5701 33.9179C94.2814 33.3604 95.1997 33.082 96.3262 33.082C97.4524 33.082 98.5785 33.4617 99.7051 34.2202L98.7092 35.9985C97.8795 35.4295 97.0524 35.1446 96.2286 35.1446C95.4043 35.1446 94.9928 35.3703 94.9928 35.8207C94.9928 36.0693 95.1227 36.2649 95.3837 36.4076C95.6442 36.5498 96.0772 36.7161 96.6819 36.9055C97.2865 37.0953 97.7162 37.2405 97.9713 37.341C98.2261 37.4419 98.5317 37.5987 98.8874 37.8125C99.5512 38.2153 99.8833 38.8882 99.8833 39.8311Z" fill="#1A1919"/>
<path fill-rule="evenodd" clip-rule="evenodd" d="M107.747 37.8212C107.747 37.0565 107.534 36.4551 107.107 36.0163C106.68 35.5779 106.153 35.358 105.525 35.358C104.896 35.358 104.354 35.5779 103.897 36.0163C103.441 36.4551 103.213 37.0536 103.213 37.8125C103.213 38.5714 103.435 39.1847 103.88 39.6529C104.324 40.1214 104.867 40.3555 105.507 40.3555C106.147 40.3555 106.68 40.124 107.107 39.662C107.534 39.1992 107.747 38.5859 107.747 37.8212ZM108.121 41.1913C107.279 42.1281 106.233 42.5962 104.982 42.5962C103.731 42.5962 102.676 42.1723 101.817 41.3245C100.957 40.4771 100.527 39.3448 100.527 37.9279C100.527 36.5114 100.969 35.3493 101.852 34.4423C102.735 33.5353 103.746 33.082 104.884 33.082C106.022 33.082 106.965 33.5506 107.712 34.4869V33.2239H110.379V41.5648C110.379 42.418 110.231 43.1766 109.935 43.8407C109.638 44.5049 109.241 45.0264 108.743 45.406C107.759 46.1882 106.597 46.5794 105.258 46.5794C104.546 46.5794 103.82 46.464 103.079 46.2328C102.338 46.002 101.689 45.6724 101.132 45.246L102.163 43.2361C103.041 43.9003 103.969 44.2323 104.947 44.2323C105.925 44.2323 106.698 43.9892 107.267 43.5032C107.836 43.0169 108.121 42.2467 108.121 41.1913Z" fill="#1A1919"/>
<path fill-rule="evenodd" clip-rule="evenodd" d="M114.146 38.0259C114.146 38.808 114.368 39.4456 114.813 39.9378C115.258 40.4295 115.827 40.6756 116.52 40.6756C117.214 40.6756 117.783 40.4295 118.227 39.9378C118.672 39.4456 118.894 38.808 118.894 38.0259C118.894 37.2434 118.672 36.6032 118.227 36.1052C117.783 35.6073 117.214 35.358 116.52 35.358C115.827 35.358 115.258 35.6073 114.813 36.1052C114.368 36.6032 114.146 37.2434 114.146 38.0259ZM121.579 38.0259C121.579 39.4126 121.1 40.5809 120.139 41.5289C119.179 42.4779 117.973 42.9515 116.52 42.9515C115.068 42.9515 113.862 42.4779 112.901 41.5289C111.941 40.5809 111.461 39.4126 111.461 38.0259C111.461 36.6387 111.941 35.4679 112.901 34.5134C113.862 33.5593 115.068 33.082 116.52 33.082C117.973 33.082 119.179 33.5593 120.139 34.5134C121.1 35.4679 121.579 36.6387 121.579 38.0259Z" fill="#1A1919"/>
<path fill-rule="evenodd" clip-rule="evenodd" d="M122.668 42.8126H125.335V29.6172H122.668V42.8126Z" fill="#1A1919"/>
<path fill-rule="evenodd" clip-rule="evenodd" d="M24.9054 46.1957L12.6089 49.871L24.9054 56.9692V46.1957ZM49.4982 42.7721L40.1673 37.3841L37.4707 49.7153L49.4982 42.7721ZM40.1673 19.7613L49.4982 28.5729V14.3743L40.1673 19.7613ZM24.9054 0.175781V10.9501L37.4707 7.43039L24.9054 0.175781ZM0.3125 14.3743L9.64379 19.7613L12.6089 7.27505L0.3125 14.3743ZM0.3125 28.5729L9.64379 37.3841L0.3125 42.7721V28.5729Z" fill="#357A76"/>
<path fill-rule="evenodd" clip-rule="evenodd" d="M0.3125 42.7721L12.6089 49.871L9.64379 37.3841L0.3125 42.7721ZM24.9054 56.9692L37.4707 49.7153L24.9054 46.1957V56.9692ZM49.4982 42.7721V28.5729L40.1673 37.3841L49.4982 42.7721ZM37.4707 7.43075L40.1673 19.7613L49.4982 14.3743L37.4707 7.43075ZM12.6089 7.27505L24.9054 10.9501V0.175781L12.6089 7.27505ZM9.64379 19.7613L0.3125 28.5729V14.3743L9.64379 19.7613Z" fill="#618F8B"/>
<path fill-rule="evenodd" clip-rule="evenodd" d="M37.4707 7.42877L24.9054 10.9485L32.5367 15.3544L37.4707 7.42913V7.42877ZM40.1673 19.7597V28.5713H49.4982L40.1673 19.7597ZM17.2748 41.7881L12.6089 49.8694L24.9054 46.194L17.2748 41.7881ZM32.5367 41.7881L37.4707 49.7137L40.1673 37.3825L32.5367 41.7881ZM9.64379 19.7597L17.2748 15.3544L12.6089 7.27344L9.64379 19.7597ZM9.64379 28.5713V37.3825L0.3125 28.5713H9.64379Z" fill="#8FBCB5"/>
<path fill-rule="evenodd" clip-rule="evenodd" d="M37.4707 7.42913L32.5367 15.3544L40.1673 19.7597L37.4707 7.42913ZM49.4982 28.5713H40.1673V37.3825L49.4982 28.5713ZM9.64379 37.3825L12.6089 49.8694L17.2748 41.7881L9.64379 37.3825ZM24.9054 46.194L37.4707 49.7137L32.5367 41.7881L24.9054 46.194ZM12.6089 7.27344L17.2748 15.3544L24.9054 10.9485L12.6089 7.27344ZM9.64379 28.5713H0.3125L9.64379 19.7597V28.5713Z" fill="#D2E4DD"/>
<path fill-rule="evenodd" clip-rule="evenodd" d="M163.164 24.4342C163.845 23.794 164.186 22.8638 164.186 21.6422C164.186 20.4213 163.845 19.4817 163.164 18.8237C162.482 18.1657 161.435 17.8365 160.025 17.8365H158.477V25.3945H160.238C161.506 25.3945 162.482 25.0744 163.164 24.4342ZM165.2 17.0453C166.385 18.1301 166.978 19.6388 166.978 21.5711C166.978 23.5037 166.4 25.0331 165.244 26.1596C164.088 27.2858 162.324 27.8487 159.953 27.8487H155.703V15.418H160.096C162.312 15.418 164.014 15.9605 165.2 17.0453Z" fill="#1A1919"/>
<path fill-rule="evenodd" clip-rule="evenodd" d="M168.114 27.8524H170.782V18.2852H168.114V27.8524ZM168.336 17.0669C168.034 16.7645 167.883 16.394 167.883 15.9556C167.883 15.5168 168.034 15.1462 168.336 14.8439C168.638 14.5416 169.009 14.3906 169.448 14.3906C169.886 14.3906 170.257 14.5416 170.559 14.8439C170.861 15.1462 171.013 15.5168 171.013 15.9556C171.013 16.394 170.861 16.7645 170.559 17.0669C170.257 17.3692 169.886 17.5202 169.448 17.5202C169.009 17.5202 168.638 17.3692 168.336 17.0669Z" fill="#1A1919"/>
<path fill-rule="evenodd" clip-rule="evenodd" d="M179.622 24.874C179.622 25.8166 179.275 26.5726 178.581 27.1413C177.887 27.7103 177.007 27.9949 175.94 27.9949C175.229 27.9949 174.488 27.8675 173.717 27.6127C172.947 27.3579 172.253 26.9812 171.637 26.4833L172.81 24.8116C173.806 25.5825 174.867 25.9679 175.994 25.9679C176.337 25.9679 176.61 25.8997 176.812 25.7632C177.013 25.6271 177.114 25.4464 177.114 25.2206C177.114 24.9956 176.974 24.7884 176.696 24.5986C176.417 24.4088 176.014 24.2309 175.487 24.0647C174.959 23.8989 174.556 23.7566 174.277 23.6383C173.999 23.5196 173.682 23.3476 173.326 23.1222C172.602 22.6718 172.241 22.0051 172.241 21.1217C172.241 20.2387 172.597 19.5183 173.308 18.9608C174.02 18.4037 174.938 18.125 176.065 18.125C177.191 18.125 178.317 18.5046 179.444 19.2631L178.447 21.0415C177.618 20.4724 176.791 20.1879 175.967 20.1879C175.143 20.1879 174.731 20.4133 174.731 20.864C174.731 21.113 174.861 21.3083 175.122 21.4505C175.383 21.5928 175.815 21.759 176.42 21.9485C177.025 22.1383 177.454 22.2838 177.71 22.3843C177.964 22.4852 178.27 22.642 178.626 22.8554C179.289 23.2586 179.622 23.9315 179.622 24.874Z" fill="#1A1919"/>
<path fill-rule="evenodd" clip-rule="evenodd" d="M185.366 25.6297C186.255 25.6297 187.055 25.1851 187.767 24.2963L189.35 26.0743C188.117 27.3547 186.783 27.9949 185.348 27.9949C183.914 27.9949 182.701 27.5416 181.712 26.6346C180.722 25.7277 180.227 24.5423 180.227 23.0779C180.227 21.6138 180.727 20.4223 181.729 19.5034C182.731 18.5848 183.92 18.125 185.295 18.125C185.983 18.125 186.679 18.2673 187.385 18.5518C188.09 18.8367 188.709 19.2573 189.243 19.8144L187.856 21.6284C187.548 21.2611 187.171 20.9765 186.727 20.7748C186.282 20.5733 185.84 20.4724 185.402 20.4724C184.702 20.4724 184.1 20.7011 183.597 21.1573C183.093 21.6138 182.841 22.2479 182.841 23.0601C182.841 23.8724 183.093 24.5035 183.597 24.9543C184.1 25.4047 184.69 25.6297 185.366 25.6297Z" fill="#1A1919"/>
<path fill-rule="evenodd" clip-rule="evenodd" d="M192.213 23.0688C192.213 23.8513 192.435 24.489 192.88 24.9808C193.324 25.4729 193.893 25.7186 194.587 25.7186C195.28 25.7186 195.85 25.4729 196.294 24.9808C196.739 24.489 196.961 23.8513 196.961 23.0688C196.961 22.2864 196.739 21.6461 196.294 21.1482C195.85 20.6503 195.28 20.4017 194.587 20.4017C193.893 20.4017 193.324 20.6503 192.88 21.1482C192.435 21.6461 192.213 22.2864 192.213 23.0688ZM199.646 23.0688C199.646 24.456 199.166 25.6239 198.206 26.5726C197.245 27.5209 196.039 27.9949 194.587 27.9949C193.134 27.9949 191.928 27.5209 190.968 26.5726C190.008 25.6239 189.527 24.456 189.527 23.0688C189.527 21.6817 190.008 20.5113 190.968 19.5568C191.928 18.6026 193.134 18.125 194.587 18.125C196.039 18.125 197.245 18.6026 198.206 19.5568C199.166 20.5113 199.646 21.6817 199.646 23.0688Z" fill="#1A1919"/>
<path fill-rule="evenodd" clip-rule="evenodd" d="M203.096 27.851L199.309 18.2656H202.083L204.466 24.2946L206.849 18.2656H209.623L205.835 27.851H203.096Z" fill="#1A1919"/>
<path fill-rule="evenodd" clip-rule="evenodd" d="M215.776 20.7925C215.408 20.4844 214.96 20.3302 214.433 20.3302C213.905 20.3302 213.422 20.4902 212.984 20.8107C212.545 21.1304 212.29 21.5634 212.219 22.1085H216.416C216.357 21.5394 216.143 21.101 215.776 20.7925ZM218.337 26.4659C217.258 27.4853 215.992 27.9949 214.54 27.9949C213.087 27.9949 211.887 27.5478 210.939 26.6524C209.99 25.7574 209.516 24.5568 209.516 23.051C209.516 21.5456 209.999 20.3479 210.965 19.4588C211.931 18.5696 213.073 18.125 214.389 18.125C215.705 18.125 216.822 18.5224 217.741 19.3165C218.659 20.111 219.119 21.2016 219.119 22.5887V24.0114H212.148C212.231 24.5333 212.504 24.9601 212.966 25.2918C213.428 25.6239 213.95 25.7897 214.531 25.7897C215.467 25.7897 216.238 25.4758 216.842 24.8476L218.337 26.4659Z" fill="#1A1919"/>
<path fill-rule="evenodd" clip-rule="evenodd" d="M225.185 20.6325C224.391 20.6325 223.798 20.9145 223.407 21.4774C223.015 22.0406 222.82 22.7847 222.82 23.709V27.8526H220.152V18.2854H222.82V19.548C223.164 19.1564 223.593 18.8247 224.109 18.5518C224.625 18.2792 225.15 18.137 225.683 18.125L225.701 20.6325H225.185Z" fill="#1A1919"/>
<path fill-rule="evenodd" clip-rule="evenodd" d="M158.995 39.471C159.458 40.0462 160.08 40.3333 160.862 40.3333C161.645 40.3333 162.264 40.0462 162.721 39.471C163.177 38.8961 163.405 38.1103 163.405 37.1145V30.25H166.18V37.2034C166.18 39.0057 165.682 40.3899 164.686 41.356C163.69 42.3225 162.415 42.8052 160.862 42.8052C159.309 42.8052 158.032 42.3192 157.03 41.3469C156.028 40.375 155.527 38.9937 155.527 37.2034V30.25H158.302V37.1145C158.302 38.1103 158.533 38.8961 158.995 39.471Z" fill="#1A1919"/>
<path fill-rule="evenodd" clip-rule="evenodd" d="M170.429 37.3453V42.6804H167.762V33.1128H170.429V34.1798C171.235 33.3618 172.143 32.9531 173.15 32.9531C174.158 32.9531 175.003 33.3084 175.684 34.0198C176.366 34.7311 176.707 35.6798 176.707 36.8651V42.6804H174.039V37.2742C174.039 35.8043 173.5 35.0694 172.421 35.0694C171.888 35.0694 171.422 35.2621 171.025 35.6468C170.628 36.0326 170.429 36.5984 170.429 37.3453Z" fill="#1A1919"/>
<path fill-rule="evenodd" clip-rule="evenodd" d="M178.235 42.677H180.903V33.1094H178.235V42.677ZM178.458 31.8915C178.155 31.5891 178.004 31.2186 178.004 30.7798C178.004 30.3414 178.155 29.9708 178.458 29.6685C178.76 29.3662 179.13 29.2148 179.569 29.2148C180.008 29.2148 180.378 29.3662 180.68 29.6685C180.983 29.9708 181.134 30.3414 181.134 30.7798C181.134 31.2186 180.983 31.5891 180.68 31.8915C180.378 32.1938 180.008 32.3451 179.569 32.3451C179.13 32.3451 178.76 32.1938 178.458 31.8915Z" fill="#1A1919"/>
<path d="M148.035 14.375V42.7728" stroke="#1A1919"/>
</svg>
