<?xml version="1.0" encoding="utf-8"?>
<!-- Generator: Adobe Illustrator 22.0.0, SVG Export Plug-In . SVG Version: 6.00 Build 0)  -->
<svg version="1.1" id="Logo" xmlns="http://www.w3.org/2000/svg" xmlns:xlink="http://www.w3.org/1999/xlink" x="0px" y="0px"
	 viewBox="0 0 512 512" enable-background="new 0 0 512 512" xml:space="preserve">
<g id="_x3C_Group_x3E_">
	<circle fill="#F00075" stroke="#EC008C" stroke-miterlimit="10" cx="256" cy="256" r="256"/>
</g>
<g>
	<path fill="#FFFFFF" d="M252.8,124.1c42.9,0,48,0.2,65,0.9c15.7,0.7,24.2,3.3,29.9,5.5c7.5,2.9,12.9,6.4,18.5,12
		c5.6,5.6,9.1,11,12,18.5c2.2,5.7,4.8,14.2,5.5,29.9c0.8,17,0.9,22,0.9,65s-0.2,48-0.9,65c-0.7,15.7-3.3,24.2-5.5,29.9
		c-2.9,7.5-6.4,12.9-12,18.5c-5.6,5.6-11,9.1-18.5,12c-5.7,2.2-14.2,4.8-29.9,5.5c-17,0.8-22,0.9-65,0.9s-48-0.2-65-0.9
		c-15.7-0.7-24.2-3.3-29.9-5.5c-7.5-2.9-12.9-6.4-18.5-12c-5.6-5.6-9.1-11-12-18.5c-2.2-5.7-4.8-14.2-5.5-29.9
		c-0.8-17-0.9-22-0.9-65s0.2-48,0.9-65c0.7-15.7,3.3-24.2,5.5-29.9c2.9-7.5,6.4-12.9,12-18.5c5.6-5.6,11-9.1,18.5-12
		c5.7-2.2,14.2-4.8,29.9-5.5C204.8,124.3,209.9,124.1,252.8,124.1 M252.8,95.2c-43.7,0-49.2,0.2-66.3,1c-17.1,0.8-28.8,3.5-39,7.5
		c-10.6,4.1-19.5,9.6-28.5,18.6c-8.9,8.9-14.4,17.9-18.6,28.5c-4,10.2-6.7,21.9-7.5,39c-0.8,17.2-1,22.6-1,66.3
		c0,43.7,0.2,49.2,1,66.3c0.8,17.1,3.5,28.8,7.5,39c4.1,10.6,9.6,19.5,18.6,28.5c8.9,8.9,17.9,14.4,28.5,18.6
		c10.2,4,21.9,6.7,39,7.5c17.2,0.8,22.6,1,66.3,1s49.2-0.2,66.3-1c17.1-0.8,28.8-3.5,39-7.5c10.6-4.1,19.5-9.6,28.5-18.6
		c8.9-8.9,14.4-17.9,18.6-28.5c4-10.2,6.7-21.9,7.5-39c0.8-17.2,1-22.6,1-66.3s-0.2-49.2-1-66.3c-0.8-17.1-3.5-28.8-7.5-39
		c-4.1-10.6-9.6-19.5-18.6-28.5c-8.9-8.9-17.9-14.4-28.5-18.6c-10.2-4-21.9-6.7-39-7.5C302,95.4,296.5,95.2,252.8,95.2L252.8,95.2z"
		/>
	<path fill="#FFFFFF" d="M252.8,173.4c-45.6,0-82.6,37-82.6,82.6s37,82.6,82.6,82.6s82.6-37,82.6-82.6S298.4,173.4,252.8,173.4z
		 M252.8,309.6c-29.6,0-53.6-24-53.6-53.6c0-29.6,24-53.6,53.6-53.6c29.6,0,53.6,24,53.6,53.6C306.4,285.6,282.4,309.6,252.8,309.6z
		"/>
	<circle fill="#FFFFFF" cx="338.7" cy="170.1" r="19.3"/>
</g>
</svg>
