<svg width="376" height="95" viewBox="0 0 376 95" fill="none" xmlns="http://www.w3.org/2000/svg">
<path fill-rule="evenodd" clip-rule="evenodd" d="M104.268 40.1808C105.405 39.114 105.973 37.5626 105.973 35.5258C105.973 33.4903 105.405 31.9237 104.268 30.8267C103.131 29.7296 101.388 29.1814 99.0356 29.1814H96.4554V41.7819H99.3914C101.506 41.7819 103.131 41.2482 104.268 40.1808ZM107.663 27.8617C109.64 29.6703 110.628 32.1857 110.628 35.4078C110.628 38.6294 109.665 41.1792 107.737 43.0574C105.81 44.9351 102.87 45.8736 98.9164 45.8736H91.8301V25.1484H99.1536C102.85 25.1484 105.687 26.0531 107.663 27.8617Z" fill="#1A1919"/>
<path fill-rule="evenodd" clip-rule="evenodd" d="M121.569 39.7964V39.0262H118.782C117.003 39.0262 116.114 39.5792 116.114 40.6859C116.114 41.2596 116.326 41.6995 116.751 42.0056C117.176 42.3124 117.784 42.4655 118.575 42.4655C119.365 42.4655 120.061 42.2235 120.665 41.7388C121.267 41.2547 121.569 40.6073 121.569 39.7964ZM126.046 45.8746H121.866V43.9474C120.719 45.3905 119.301 46.1124 117.611 46.1124C115.921 46.1124 114.502 45.6229 113.356 44.6445C112.21 43.666 111.637 42.3614 111.637 40.7307C111.637 39.1 112.23 37.8795 113.416 37.0687C114.602 36.2584 116.222 35.853 118.278 35.853H121.599V35.7641C121.599 34.0644 120.699 33.2148 118.901 33.2148C118.13 33.2148 117.314 33.3679 116.454 33.6741C115.595 33.9809 114.869 34.3609 114.276 34.8159L112.289 31.9399C114.384 30.4175 116.776 29.6562 119.464 29.6562C121.401 29.6562 122.982 30.1409 124.208 31.1097C125.434 32.0778 126.046 33.6099 126.046 35.7048V45.8746Z" fill="#1A1919"/>
<path fill-rule="evenodd" clip-rule="evenodd" d="M137.016 33.8369C135.692 33.8369 134.703 34.307 134.051 35.2455C133.399 36.1846 133.073 37.4251 133.073 38.9662V45.8746H128.625V29.9237H133.073V32.0288C133.645 31.3759 134.363 30.8229 135.222 30.3678C136.082 29.9134 136.957 29.6762 137.846 29.6562L137.876 33.8369H137.016Z" fill="#1A1919"/>
<path fill-rule="evenodd" clip-rule="evenodd" d="M150.507 37.5582C150.507 36.2833 150.15 35.28 149.439 34.5491C148.728 33.8175 147.848 33.452 146.8 33.452C145.752 33.452 144.848 33.8175 144.087 34.5491C143.326 35.28 142.945 36.2784 142.945 37.5431C142.945 38.8083 143.316 39.8315 144.057 40.6121C144.799 41.3933 145.703 41.783 146.77 41.783C147.837 41.783 148.728 41.3975 149.439 40.6272C150.15 39.8563 150.507 38.8331 150.507 37.5582ZM151.129 43.1765C149.725 44.7383 147.981 45.5194 145.896 45.5194C143.81 45.5194 142.051 44.8127 140.618 43.3992C139.185 41.9863 138.469 40.0984 138.469 37.7361C138.469 35.3744 139.205 33.4369 140.677 31.9248C142.15 30.4126 143.835 29.6562 145.732 29.6562C147.63 29.6562 149.201 30.4374 150.447 31.9986V29.8934H154.895V43.7991C154.895 45.2223 154.647 46.4876 154.153 47.5943C153.659 48.701 152.996 49.5712 152.166 50.2041C150.526 51.5081 148.589 52.1604 146.355 52.1604C145.169 52.1604 143.958 51.9679 142.723 51.5825C141.488 51.197 140.406 50.6482 139.477 49.9366L141.196 46.5862C142.658 47.6929 144.206 48.2466 145.836 48.2466C147.467 48.2466 148.757 47.8412 149.705 47.0316C150.654 46.2207 151.129 44.9361 151.129 43.1765Z" fill="#1A1919"/>
<path fill-rule="evenodd" clip-rule="evenodd" d="M166.696 39.7964V39.0262H163.909C162.13 39.0262 161.241 39.5792 161.241 40.6859C161.241 41.2596 161.453 41.6995 161.879 42.0056C162.303 42.3124 162.911 42.4655 163.702 42.4655C164.492 42.4655 165.188 42.2235 165.792 41.7388C166.394 41.2547 166.696 40.6073 166.696 39.7964ZM171.173 45.8746H166.993V43.9474C165.846 45.3905 164.428 46.1124 162.738 46.1124C161.048 46.1124 159.629 45.6229 158.483 44.6445C157.337 43.666 156.764 42.3614 156.764 40.7307C156.764 39.1 157.357 37.8795 158.543 37.0687C159.729 36.2584 161.349 35.853 163.405 35.853H166.726V35.7641C166.726 34.0644 165.826 33.2148 164.028 33.2148C163.257 33.2148 162.441 33.3679 161.581 33.6741C160.722 33.9809 159.995 34.3609 159.402 34.8159L157.416 31.9399C159.511 30.4175 161.903 29.6562 164.591 29.6562C166.528 29.6562 168.109 30.1409 169.335 31.1097C170.56 32.0778 171.173 33.6099 171.173 35.7048V45.8746Z" fill="#1A1919"/>
<path fill-rule="evenodd" clip-rule="evenodd" d="M178.199 36.9797V45.8746H173.752V29.9237H178.199V31.7027C179.543 30.3388 181.055 29.6562 182.736 29.6562C184.416 29.6562 185.824 30.2492 186.961 31.4358C188.097 32.6218 188.666 34.2029 188.666 36.1792V45.8746H184.218V36.8611C184.218 34.4105 183.319 33.1846 181.52 33.1846C180.631 33.1846 179.854 33.5065 179.192 34.1485C178.53 34.7911 178.199 35.735 178.199 36.9797Z" fill="#1A1919"/>
<path fill-rule="evenodd" clip-rule="evenodd" d="M196.374 29.0038V30.0706H200.229V33.2728H196.374V45.8739H191.897V33.2728H190.029V30.0706H191.897V29.0928C191.897 27.3531 192.426 25.9747 193.484 24.9563C194.541 23.9386 195.856 23.4297 197.427 23.4297C198.998 23.4297 200.427 24.0227 201.711 25.2087L200.11 28.2027C199.458 27.4518 198.737 27.0766 197.946 27.0766C197.491 27.0766 197.116 27.2394 196.819 27.5655C196.523 27.8917 196.374 28.3709 196.374 29.0038Z" fill="#1A1919"/>
<path fill-rule="evenodd" clip-rule="evenodd" d="M204.676 37.8989C204.676 39.2041 205.047 40.2666 205.788 41.0865C206.529 41.907 207.478 42.3173 208.634 42.3173C209.791 42.3173 210.739 41.907 211.481 41.0865C212.222 40.2666 212.592 39.2041 212.592 37.8989C212.592 36.5949 212.222 35.5269 211.481 34.6967C210.739 33.8665 209.791 33.452 208.634 33.452C207.478 33.452 206.529 33.8665 205.788 34.6967C205.047 35.5269 204.676 36.5949 204.676 37.8989ZM217.069 37.8989C217.069 40.2121 216.269 42.1587 214.668 43.7405C213.067 45.3216 211.055 46.1124 208.634 46.1124C206.213 46.1124 204.202 45.3216 202.6 43.7405C201 42.1587 200.199 40.2121 200.199 37.8989C200.199 35.5862 201 33.6348 202.6 32.0434C204.202 30.4526 206.213 29.6562 208.634 29.6562C211.055 29.6562 213.067 30.4526 214.668 32.0434C216.269 33.6348 217.069 35.5862 217.069 37.8989Z" fill="#1A1919"/>
<path fill-rule="evenodd" clip-rule="evenodd" d="M222.467 37.9289C222.467 39.2136 222.853 40.2664 223.624 41.0863C224.395 41.9068 225.294 42.3171 226.322 42.3171C227.349 42.3171 228.224 41.9068 228.945 41.0863C229.667 40.2664 230.028 39.2087 230.028 37.9138C230.028 36.6195 229.667 35.5418 228.945 34.682C228.224 33.8222 227.34 33.3925 226.292 33.3925C225.244 33.3925 224.345 33.827 223.594 34.6965C222.843 35.5667 222.467 36.6443 222.467 37.9289ZM225.269 46.1123C223.381 46.1123 221.696 45.3111 220.214 43.71C218.731 42.1089 217.99 40.123 217.99 37.7511C217.99 35.3785 218.712 33.4367 220.155 31.9246C221.597 30.4125 223.287 29.6561 225.225 29.6561C227.162 29.6561 228.743 30.3386 229.969 31.7025V23.875H234.416V45.8745H229.969V43.7693C228.723 45.3311 227.156 46.1123 225.269 46.1123Z" fill="#1A1919"/>
<path fill-rule="evenodd" clip-rule="evenodd" d="M102.712 60.3619C103.265 59.7393 103.542 58.8304 103.542 57.6342C103.542 56.4385 103.181 55.5883 102.46 55.0843C101.738 54.5802 100.616 54.3285 99.0949 54.3285H96.4554V61.2962H99.5686C101.11 61.2962 102.158 60.9846 102.712 60.3619ZM106.107 52.2083C107.56 53.4439 108.286 55.3415 108.286 57.901C108.286 60.4612 107.54 62.3339 106.047 63.5199C104.555 64.7053 102.277 65.2989 99.2135 65.2989H96.4554V71.0806H91.8301V50.3555H99.1536C102.336 50.3555 104.654 50.9733 106.107 52.2083Z" fill="#1A1919"/>
<path fill-rule="evenodd" clip-rule="evenodd" d="M118.367 59.0439C117.043 59.0439 116.055 59.5134 115.402 60.4519C114.75 61.3911 114.424 62.6315 114.424 64.1733V71.0817H109.977V55.1295H114.424V57.2353C114.997 56.583 115.713 56.0299 116.573 55.5749C117.433 55.1204 118.308 54.8826 119.197 54.8633L119.227 59.0439H118.367Z" fill="#1A1919"/>
<path fill-rule="evenodd" clip-rule="evenodd" d="M120.679 71.0815H125.126V55.1294H120.679V71.0815ZM121.049 53.0987C120.545 52.5946 120.293 51.9768 120.293 51.2453C120.293 50.5143 120.545 49.8965 121.049 49.3925C121.553 48.8884 122.171 48.6367 122.902 48.6367C123.634 48.6367 124.251 48.8884 124.756 49.3925C125.26 49.8965 125.511 50.5143 125.511 51.2453C125.511 51.9768 125.26 52.5946 124.756 53.0987C124.251 53.6027 123.634 53.8551 122.902 53.8551C122.171 53.8551 121.553 53.6027 121.049 53.0987Z" fill="#1A1919"/>
<path fill-rule="evenodd" clip-rule="evenodd" d="M133.161 54.2109V55.2776H137.016V58.4798H133.161V71.0815H128.684V58.4798H126.816V55.2776H128.684V54.2992C128.684 52.5602 129.213 51.1818 130.271 50.1634C131.328 49.1456 132.643 48.6367 134.214 48.6367C135.786 48.6367 137.213 49.2297 138.498 50.4157L136.897 53.4103C136.245 52.6588 135.523 52.283 134.733 52.283C134.278 52.283 133.903 52.4464 133.606 52.7725C133.31 53.0987 133.161 53.5785 133.161 54.2109Z" fill="#1A1919"/>
<path fill-rule="evenodd" clip-rule="evenodd" d="M141.049 77.3662C139.487 77.3662 138.014 76.7332 136.631 75.4692L138.647 72.1781C139.398 72.909 140.169 73.2751 140.96 73.2751C141.375 73.2751 141.731 73.0724 142.027 72.667C142.324 72.2616 142.472 71.832 142.472 71.3775C142.472 70.9231 140.416 65.5069 136.305 55.1289H141.049L144.933 65.0615L148.817 55.1289H153.561L146.148 73.9274C145.713 75.0142 145.037 75.8589 144.118 76.4622C143.199 77.0648 142.175 77.3662 141.049 77.3662Z" fill="#1A1919"/>
<path fill-rule="evenodd" clip-rule="evenodd" d="M166.012 66.1156C166.012 67.6865 165.434 68.9463 164.277 69.8957C163.121 70.8445 161.653 71.3183 159.874 71.3183C158.688 71.3183 157.453 71.1065 156.168 70.6811C154.883 70.2563 153.727 69.6282 152.699 68.798L154.656 66.0116C156.316 67.2968 158.085 67.9382 159.963 67.9382C160.536 67.9382 160.991 67.825 161.327 67.5975C161.663 67.3706 161.831 67.0693 161.831 66.6935C161.831 66.3183 161.599 65.9716 161.135 65.6558C160.67 65.3393 159.998 65.0428 159.118 64.7663C158.238 64.4891 157.567 64.2519 157.102 64.0541C156.637 63.8568 156.109 63.5706 155.516 63.1942C154.31 62.4433 153.707 61.3318 153.707 59.859C153.707 58.3868 154.3 57.1862 155.486 56.2568C156.672 55.3274 158.204 54.8633 160.082 54.8633C161.96 54.8633 163.837 55.4962 165.715 56.7609L164.055 59.7258C162.671 58.777 161.292 58.302 159.919 58.302C158.545 58.302 157.858 58.6784 157.858 59.4293C157.858 59.8438 158.075 60.17 158.511 60.4078C158.945 60.645 159.667 60.9221 160.675 61.238C161.683 61.5544 162.399 61.7965 162.824 61.9641C163.25 62.1323 163.759 62.3937 164.352 62.7501C165.458 63.4218 166.012 64.5436 166.012 66.1156Z" fill="#1A1919"/>
<path fill-rule="evenodd" clip-rule="evenodd" d="M179.118 62.7646C179.118 61.4897 178.761 60.487 178.05 59.7555C177.339 59.0245 176.459 58.6578 175.412 58.6578C174.364 58.6578 173.459 59.0245 172.698 59.7555C171.937 60.487 171.557 61.4848 171.557 62.7501C171.557 64.0154 171.927 65.038 172.669 65.8185C173.41 66.5997 174.315 66.99 175.381 66.99C176.449 66.99 177.339 66.604 178.05 65.8337C178.761 65.0622 179.118 64.0396 179.118 62.7646ZM179.741 68.3835C178.337 69.9453 176.592 70.7259 174.507 70.7259C172.421 70.7259 170.662 70.0191 169.229 68.6056C167.796 67.1927 167.08 65.3048 167.08 62.9425C167.08 60.5808 167.816 58.6433 169.289 57.1312C170.761 55.619 172.446 54.8633 174.344 54.8633C176.242 54.8633 177.813 55.6445 179.059 57.2056V55.0999H183.506V69.0062C183.506 70.4288 183.259 71.6934 182.765 72.8007C182.27 73.9081 181.608 74.7776 180.778 75.4105C179.137 76.7145 177.2 77.3668 174.966 77.3668C173.78 77.3668 172.57 77.1744 171.335 76.7889C170.099 76.4041 169.017 75.8547 168.088 75.1437L169.808 71.7927C171.27 72.9 172.817 73.4536 174.448 73.4536C176.078 73.4536 177.369 73.0482 178.317 72.238C179.265 71.4272 179.741 70.1432 179.741 68.3835Z" fill="#1A1919"/>
<path fill-rule="evenodd" clip-rule="evenodd" d="M189.792 63.1059C189.792 64.4099 190.162 65.473 190.903 66.2935C191.645 67.1134 192.593 67.5237 193.749 67.5237C194.906 67.5237 195.855 67.1134 196.596 66.2935C197.338 65.473 197.708 64.4099 197.708 63.1059C197.708 61.8013 197.338 60.7339 196.596 59.9037C195.855 59.0735 194.906 58.6578 193.749 58.6578C192.593 58.6578 191.645 59.0735 190.903 59.9037C190.162 60.7339 189.792 61.8013 189.792 63.1059ZM202.185 63.1059C202.185 65.418 201.385 67.3658 199.783 68.9463C198.183 70.5286 196.171 71.3183 193.749 71.3183C191.328 71.3183 189.317 70.5286 187.716 68.9463C186.115 67.3658 185.314 65.418 185.314 63.1059C185.314 60.7932 186.115 58.8412 187.716 57.2498C189.317 55.659 191.328 54.8633 193.749 54.8633C196.171 54.8633 198.183 55.659 199.783 57.2498C201.385 58.8412 202.185 60.7932 202.185 63.1059Z" fill="#1A1919"/>
<path fill-rule="evenodd" clip-rule="evenodd" d="M203.992 71.0821H208.44V49.082H203.992V71.0821Z" fill="#1A1919"/>
<path fill-rule="evenodd" clip-rule="evenodd" d="M41.0025 76.7267L20.5012 82.8545L41.0025 94.689V76.7267ZM82.005 71.0188L66.4473 62.0356L61.9515 82.5949L82.005 71.0188ZM66.4473 32.654L82.005 47.3451V23.6725L66.4473 32.654ZM41.0025 0V17.9635L61.9515 12.0953L41.0025 0ZM0 23.6725L15.557 32.654L20.5012 11.8363L0 23.6725ZM0 47.3451L15.557 62.0356L0 71.0188V47.3451Z" fill="#1A1919"/>
<path fill-rule="evenodd" clip-rule="evenodd" d="M0 71.0188L20.5012 82.8545L15.557 62.0356L0 71.0188ZM41.0025 94.689L61.9515 82.5949L41.0025 76.7267V94.689ZM82.005 71.0188V47.3451L66.4473 62.0356L82.005 71.0188ZM61.9515 12.0959L66.4473 32.654L82.005 23.6725L61.9515 12.0959ZM20.5012 11.8363L41.0025 17.9635V0L20.5012 11.8363ZM15.557 32.654L0 47.3451V23.6725L15.557 32.654Z" fill="#4D4E4C"/>
<path fill-rule="evenodd" clip-rule="evenodd" d="M61.9515 12.0949L41.0025 17.9631L53.7252 25.309L61.9515 12.0955V12.0949ZM66.4473 32.6536V47.3448H82.005L66.4473 32.6536ZM28.2797 69.3805L20.5012 82.8542L41.0025 76.7264L28.2797 69.3805ZM53.7252 69.3805L61.9515 82.5946L66.4473 62.0353L53.7252 69.3805ZM15.557 32.6536L28.2797 25.309L20.5012 11.8359L15.557 32.6536ZM15.557 47.3448V62.0353L0 47.3448H15.557Z" fill="#777776"/>
<path fill-rule="evenodd" clip-rule="evenodd" d="M61.9515 12.0955L53.7252 25.309L66.4473 32.6536L61.9515 12.0955ZM82.005 47.3448H66.4473V62.0353L82.005 47.3448ZM15.557 62.0353L20.5012 82.8542L28.2797 69.3805L15.557 62.0353ZM41.0025 76.7264L61.9515 82.5946L53.7252 69.3805L41.0025 76.7264ZM20.5012 11.8359L28.2797 25.309L41.0025 17.9631L20.5012 11.8359ZM15.557 47.3448H0L15.557 32.6536V47.3448Z" fill="#9E9F9E"/>
<path fill-rule="evenodd" clip-rule="evenodd" d="M271.513 40.4465C272.649 39.3791 273.217 37.8282 273.217 35.7915C273.217 33.7559 272.649 32.1893 271.513 31.0923C270.376 29.9952 268.632 29.4464 266.28 29.4464H263.7V42.0475H266.635C268.75 42.0475 270.376 41.5138 271.513 40.4465ZM274.907 28.1273C276.884 29.9359 277.873 32.4513 277.873 35.6729C277.873 38.895 276.909 41.4449 274.982 43.3231C273.054 45.2007 270.114 46.1392 266.16 46.1392H259.074V25.4141H266.398C270.094 25.4141 272.931 26.3187 274.907 28.1273Z" fill="#1A1919"/>
<path fill-rule="evenodd" clip-rule="evenodd" d="M279.77 46.1434H284.218V30.1925H279.77V46.1434ZM280.141 28.1612C279.636 27.6571 279.385 27.0393 279.385 26.3084C279.385 25.5768 279.636 24.959 280.141 24.455C280.645 23.9509 281.262 23.6992 281.993 23.6992C282.725 23.6992 283.343 23.9509 283.847 24.455C284.351 24.959 284.603 25.5768 284.603 26.3084C284.603 27.0393 284.351 27.6571 283.847 28.1612C283.343 28.6652 282.725 28.917 281.993 28.917C281.262 28.917 280.645 28.6652 280.141 28.1612Z" fill="#1A1919"/>
<path fill-rule="evenodd" clip-rule="evenodd" d="M298.953 41.1742C298.953 42.7457 298.375 44.0061 297.219 44.9543C296.062 45.9031 294.595 46.3775 292.815 46.3775C291.629 46.3775 290.394 46.1651 289.109 45.7403C287.824 45.3155 286.667 44.6874 285.641 43.8572L287.597 41.0702C289.257 42.3554 291.026 42.998 292.905 42.998C293.477 42.998 293.932 42.8842 294.269 42.6567C294.604 42.4298 294.773 42.1285 294.773 41.7521C294.773 41.3769 294.54 41.0314 294.076 40.715C293.611 40.3985 292.939 40.102 292.059 39.8249C291.18 39.5483 290.507 39.3111 290.043 39.1139C289.579 38.916 289.05 38.6292 288.457 38.2534C287.251 37.5025 286.648 36.391 286.648 34.9181C286.648 33.446 287.241 32.2448 288.427 31.3154C289.613 30.3866 291.145 29.9219 293.023 29.9219C294.9 29.9219 296.778 30.5548 298.656 31.8195L296.996 34.7844C295.612 33.8356 294.234 33.3612 292.859 33.3612C291.486 33.3612 290.799 33.737 290.799 34.4885C290.799 34.9036 291.016 35.2292 291.451 35.4664C291.886 35.7036 292.608 35.9807 293.616 36.2966C294.624 36.613 295.34 36.8557 295.766 37.0233C296.19 37.1915 296.699 37.4529 297.293 37.8087C298.4 38.481 298.953 39.6028 298.953 41.1742Z" fill="#1A1919"/>
<path fill-rule="evenodd" clip-rule="evenodd" d="M308.53 42.434C310.012 42.434 311.346 41.6928 312.532 40.2109L315.171 43.1753C313.115 45.3101 310.891 46.3775 308.5 46.3775C306.108 46.3775 304.087 45.6217 302.437 44.1096C300.786 42.5974 299.961 40.6212 299.961 38.1796C299.961 35.7387 300.796 33.7521 302.466 32.22C304.136 30.6885 306.118 29.9219 308.411 29.9219C309.557 29.9219 310.719 30.1591 311.895 30.6335C313.071 31.1085 314.104 31.8098 314.993 32.7386L312.681 35.7629C312.167 35.1505 311.539 34.6761 310.798 34.3397C310.056 34.0038 309.321 33.8356 308.59 33.8356C307.422 33.8356 306.42 34.2168 305.58 34.9774C304.739 35.7387 304.319 36.7958 304.319 38.15C304.319 39.5042 304.739 40.5564 305.58 41.308C306.42 42.0589 307.403 42.434 308.53 42.434Z" fill="#1A1919"/>
<path fill-rule="evenodd" clip-rule="evenodd" d="M319.946 38.1645C319.946 39.4691 320.316 40.5322 321.057 41.3521C321.799 42.1726 322.747 42.5823 323.904 42.5823C325.06 42.5823 326.009 42.1726 326.75 41.3521C327.492 40.5322 327.862 39.4691 327.862 38.1645C327.862 36.8599 327.492 35.7925 326.75 34.9623C326.009 34.1321 325.06 33.7176 323.904 33.7176C322.747 33.7176 321.799 34.1321 321.057 34.9623C320.316 35.7925 319.946 36.8599 319.946 38.1645ZM332.339 38.1645C332.339 40.4772 331.539 42.4244 329.938 44.0061C328.337 45.5872 326.325 46.3775 323.904 46.3775C321.482 46.3775 319.471 45.5872 317.87 44.0061C316.269 42.4244 315.469 40.4772 315.469 38.1645C315.469 35.8518 316.269 33.9004 317.87 32.309C319.471 30.7182 321.482 29.9219 323.904 29.9219C326.325 29.9219 328.337 30.7182 329.938 32.309C331.539 33.9004 332.339 35.8518 332.339 38.1645Z" fill="#1A1919"/>
<path fill-rule="evenodd" clip-rule="evenodd" d="M338.09 46.1413L331.775 30.1602H336.4L340.374 40.212L344.346 30.1602H348.972L342.656 46.1413H338.09Z" fill="#1A1919"/>
<path fill-rule="evenodd" clip-rule="evenodd" d="M359.232 34.3693C358.619 33.8556 357.873 33.5984 356.993 33.5984C356.114 33.5984 355.308 33.8653 354.577 34.3996C353.846 34.9327 353.42 35.6545 353.302 36.5634H360.3C360.2 35.6146 359.845 34.8837 359.232 34.3693ZM363.502 43.8282C361.702 45.5279 359.592 46.3775 357.171 46.3775C354.75 46.3775 352.748 45.632 351.168 44.1392C349.586 42.647 348.795 40.6454 348.795 38.1348C348.795 35.6249 349.6 33.6281 351.212 32.1456C352.822 30.6631 354.725 29.9219 356.92 29.9219C359.114 29.9219 360.976 30.5845 362.508 31.9084C364.04 33.233 364.806 35.0513 364.806 37.3639V39.7359H353.184C353.321 40.606 353.776 41.3176 354.548 41.8707C355.318 42.4244 356.188 42.7009 357.156 42.7009C358.717 42.7009 360.003 42.1775 361.011 41.1301L363.502 43.8282Z" fill="#1A1919"/>
<path fill-rule="evenodd" clip-rule="evenodd" d="M374.916 34.1025C373.591 34.1025 372.604 34.5726 371.951 35.5111C371.298 36.4502 370.972 37.6907 370.972 39.2319V46.1402H366.525V30.1893H370.972V32.2945C371.546 31.6416 372.262 31.0885 373.122 30.6335C373.982 30.179 374.856 29.9418 375.746 29.9219L375.776 34.1025H374.916Z" fill="#1A1919"/>
<path fill-rule="evenodd" clip-rule="evenodd" d="M264.561 65.5143C265.332 66.4734 266.37 66.952 267.674 66.952C268.979 66.952 270.012 66.4734 270.772 65.5143C271.533 64.5558 271.914 63.2458 271.914 61.5854V50.1406H276.539V61.7336C276.539 64.7386 275.709 67.0464 274.049 68.6572C272.388 70.2685 270.263 71.0733 267.674 71.0733C265.084 71.0733 262.955 70.2631 261.284 68.642C259.614 67.0216 258.779 64.7186 258.779 61.7336V50.1406H263.405V61.5854C263.405 63.2458 263.79 64.5558 264.561 65.5143Z" fill="#1A1919"/>
<path fill-rule="evenodd" clip-rule="evenodd" d="M283.625 61.9713V70.8662H279.178V54.9147H283.625V56.6937C284.969 55.3298 286.481 54.6484 288.162 54.6484C289.841 54.6484 291.249 55.2408 292.386 56.4268C293.523 57.6128 294.092 59.1945 294.092 61.1708V70.8662H289.644V61.8527C289.644 59.4021 288.744 58.1767 286.946 58.1767C286.056 58.1767 285.28 58.4981 284.618 59.1395C283.956 59.7827 283.625 60.726 283.625 61.9713Z" fill="#1A1919"/>
<path fill-rule="evenodd" clip-rule="evenodd" d="M296.641 70.8628H301.089V54.9113H296.641V70.8628ZM297.012 52.8805C296.508 52.3765 296.256 51.7587 296.256 51.0271C296.256 50.2962 296.508 49.6784 297.012 49.1743C297.516 48.6703 298.133 48.418 298.865 48.418C299.596 48.418 300.214 48.6703 300.718 49.1743C301.222 49.6784 301.474 50.2962 301.474 51.0271C301.474 51.7587 301.222 52.3765 300.718 52.8805C300.214 53.3846 299.596 53.6369 298.865 53.6369C298.133 53.6369 297.516 53.3846 297.012 52.8805Z" fill="#1A1919"/>
<path d="M246.289 23.6719V71.0182" stroke="#1B222C" stroke-width="2"/>
</svg>
