<?xml version="1.0" encoding="UTF-8"?>
<svg id="Layer_1" data-name="Layer 1" xmlns="http://www.w3.org/2000/svg" version="1.1" viewBox="0 0 1558.49 999.47">
  <defs>
    <style>
      .cls-1 {
        fill: #3b3b3c;
      }

      .cls-1, .cls-2 {
        stroke-width: 0px;
      }

      .cls-2 {
        fill: #01645a;
      }
    </style>
  </defs>
  <g>
    <path class="cls-2" d="M249.96,259.3h101.88l76.41,228.29,76.41-228.29h101.88v330.16h-66.03v-257.53l-74.99,224.04h-74.52l-74.99-224.04v257.53h-66.03v-330.16Z"/>
    <path class="cls-2" d="M629.66,471.07c0-70.28,53.77-122.16,119.8-122.16s115.08,51.88,115.08,122.16v25.47h-168.85c8.49,25.94,31.6,41.04,67.45,41.04,24.06,0,47.64-7.08,79.71-29.71v60.37c-23.58,16.51-52.83,25.94-83.96,25.94-75.46,0-129.23-52.83-129.23-123.1ZM694.75,494.19l29.24-48.11h79.24c-8.02-25.94-28.77-40.56-53.77-40.56-32.07,0-57.54,24.53-57.54,66.98,0,8.02.94,15.09,2.83,21.7Z"/>
    <path class="cls-2" d="M886.24,473.91c0-67.45,51.41-120.28,117.44-120.28h49.53v-103.76h65.56v339.59h-65.56v-62.73l-37.73,65.09c-6.13.94-12.26,1.42-17.92,1.42-66.5,0-111.31-50.94-111.31-119.33ZM1012.17,533.33c14.15,0,26.89-3.3,41.04-11.32v-108.01h-38.21c-37.73,0-62.73,24.06-62.73,59.9,0,33.49,22.17,59.43,59.9,59.43Z"/>
    <path class="cls-2" d="M1153.2,353.63h65.56v63.68l35.37-61.79c9.91-4.24,19.81-6.13,32.07-6.13,7.55,0,15.56.47,23.11,1.89v64.62c-14.62-4.71-25-6.13-40.09-6.13-20.75,0-35.37,2.83-50.47,11.32v168.38h-65.56v-235.83Z"/>
  </g>
  <g>
    <path class="cls-1" d="M260.41,671.61l-10.55-22.33h7.46l3.52,8.6c1,2.61,1.95,5.08,3.04,7.79h.19c1.09-2.71,2.14-5.18,3.14-7.79l3.52-8.6h7.31l-10.59,22.33v12.87h-7.03v-12.87Z"/>
    <path class="cls-1" d="M291.29,667.05c0-11.59,7.46-18.38,16.34-18.38,4.46,0,8.03,2.14,10.31,4.51l-3.66,4.46c-1.8-1.71-3.85-2.94-6.51-2.94-5.32,0-9.31,4.56-9.31,12.11s3.61,12.26,9.17,12.26c3.04,0,5.37-1.42,7.27-3.47l3.71,4.37c-2.9,3.37-6.65,5.18-11.21,5.18-8.88,0-16.1-6.37-16.1-18.1Z"/>
    <path class="cls-1" d="M322.35,671.19c0-8.83,6.13-13.96,12.78-13.96s12.78,5.13,12.78,13.96-6.13,13.97-12.78,13.97-12.78-5.13-12.78-13.97ZM340.78,671.19c0-4.99-2.04-8.27-5.65-8.27s-5.65,3.28-5.65,8.27,2.04,8.27,5.65,8.27,5.65-3.23,5.65-8.27Z"/>
    <path class="cls-1" d="M353.37,657.89h5.7l.52,3.56h.14c2.23-2.33,4.7-4.23,8.17-4.23,3.8,0,6.03,1.71,7.32,4.65,2.42-2.56,4.99-4.65,8.46-4.65,5.65,0,8.27,3.99,8.27,10.69v16.58h-6.98v-15.72c0-4.13-1.19-5.56-3.71-5.56-1.52,0-3.23,1-5.13,2.99v18.29h-6.94v-15.72c0-4.13-1.23-5.56-3.75-5.56-1.52,0-3.23,1-5.08,2.99v18.29h-6.98v-26.6Z"/>
    <path class="cls-1" d="M397.73,649.76c0-2.28,1.66-3.8,4.08-3.8s4.04,1.52,4.04,3.8-1.66,3.85-4.04,3.85-4.08-1.52-4.08-3.85ZM398.3,657.89h6.98v26.6h-6.98v-26.6Z"/>
    <path class="cls-1" d="M410.32,681.4l3.18-4.37c2.38,1.85,4.66,2.9,7.12,2.9,2.66,0,3.85-1.14,3.85-2.8,0-1.99-2.75-2.9-5.56-3.99-3.37-1.28-7.12-3.33-7.12-7.79,0-4.75,3.85-8.12,9.93-8.12,3.85,0,6.84,1.61,9.02,3.28l-3.13,4.23c-1.9-1.38-3.75-2.28-5.7-2.28-2.42,0-3.56,1.04-3.56,2.56,0,1.95,2.47,2.66,5.27,3.71,3.52,1.33,7.41,3.09,7.41,8.03,0,4.66-3.66,8.41-10.59,8.41-3.56,0-7.46-1.57-10.12-3.75Z"/>
    <path class="cls-1" d="M435.4,649.76c0-2.28,1.66-3.8,4.08-3.8s4.04,1.52,4.04,3.8-1.66,3.85-4.04,3.85-4.08-1.52-4.08-3.85ZM435.97,657.89h6.98v26.6h-6.98v-26.6Z"/>
    <path class="cls-1" d="M448.03,657.89h6.98l2.9,13.11c.52,2.61.85,5.13,1.33,7.79h.19c.52-2.66,1-5.23,1.66-7.79l3.23-13.11h6.18l3.32,13.11c.62,2.61,1.09,5.13,1.66,7.79h.24c.47-2.66.85-5.18,1.33-7.79l2.9-13.11h6.46l-6.56,26.6h-8.22l-2.8-11.59c-.57-2.52-1-4.94-1.52-7.74h-.24c-.52,2.8-.9,5.27-1.47,7.74l-2.71,11.59h-7.98l-6.89-26.6Z"/>
    <path class="cls-1" d="M491.35,657.89h5.7l.52,3.52h.14c2.33-2.28,5.04-4.18,8.65-4.18,5.75,0,8.22,3.99,8.22,10.69v16.58h-6.98v-15.72c0-4.13-1.14-5.56-3.75-5.56-2.19,0-3.56,1.04-5.51,2.99v18.29h-6.98v-26.6Z"/>
    <path class="cls-1" d="M541.04,649.29h8.26l11.31,35.2h-7.36l-2.47-9.02h-11.4l-2.47,9.02h-7.12l11.26-35.2ZM540.9,670h8.36l-1.04-3.85c-1.09-3.66-2.04-7.69-3.04-11.5h-.24c-.9,3.85-1.95,7.84-2.99,11.5l-1.04,3.85Z"/>
    <path class="cls-1" d="M562.98,671.19c0-8.65,5.42-13.96,11.16-13.96,2.99,0,4.85,1.14,6.75,2.9l-.24-4.18v-9.36h6.94v37.91h-5.65l-.52-2.75h-.19c-1.95,1.9-4.61,3.42-7.36,3.42-6.6,0-10.88-5.23-10.88-13.97ZM580.65,676.65v-11.69c-1.62-1.47-3.33-1.99-4.99-1.99-2.99,0-5.51,2.85-5.51,8.17s1.99,8.27,5.51,8.27c1.85,0,3.42-.76,4.99-2.75Z"/>
    <path class="cls-1" d="M592.72,671.19c0-8.65,5.42-13.96,11.16-13.96,2.99,0,4.85,1.14,6.75,2.9l-.24-4.18v-9.36h6.94v37.91h-5.65l-.52-2.75h-.19c-1.95,1.9-4.61,3.42-7.36,3.42-6.6,0-10.88-5.23-10.88-13.97ZM610.39,676.65v-11.69c-1.62-1.47-3.33-1.99-4.99-1.99-2.99,0-5.51,2.85-5.51,8.17s2,8.27,5.51,8.27c1.85,0,3.42-.76,4.99-2.75Z"/>
    <path class="cls-1" d="M623.12,694.65l1.28-5.37c.48.14,1.23.33,1.85.33,2.71,0,4.23-1.71,4.99-4.04l.48-1.57-10.35-26.13h7.03l4.23,12.35c.81,2.38,1.47,4.94,2.23,7.5h.24c.62-2.47,1.28-5.04,1.9-7.5l3.66-12.35h6.7l-9.45,27.41c-2.33,6.27-5.18,9.88-11.12,9.88-1.57,0-2.61-.19-3.66-.52Z"/>
    <path class="cls-1" d="M648.81,681.4l3.18-4.37c2.38,1.85,4.66,2.9,7.12,2.9,2.66,0,3.85-1.14,3.85-2.8,0-1.99-2.75-2.9-5.56-3.99-3.37-1.28-7.12-3.33-7.12-7.79,0-4.75,3.85-8.12,9.93-8.12,3.85,0,6.84,1.61,9.02,3.28l-3.13,4.23c-1.9-1.38-3.75-2.28-5.7-2.28-2.42,0-3.56,1.04-3.56,2.56,0,1.95,2.47,2.66,5.27,3.71,3.52,1.33,7.41,3.09,7.41,8.03,0,4.66-3.66,8.41-10.59,8.41-3.56,0-7.46-1.57-10.12-3.75Z"/>
    <path class="cls-1" d="M672.94,689.19c0-2.23,1.38-4.13,3.8-5.51v-.24c-1.38-.9-2.42-2.28-2.42-4.47,0-1.99,1.38-3.85,2.99-4.99v-.19c-1.85-1.33-3.56-3.85-3.56-6.98,0-6.22,5.08-9.59,10.73-9.59,1.47,0,2.9.28,3.99.66h9.6v5.13h-4.51c.67.9,1.19,2.38,1.19,4.04,0,5.98-4.56,9.02-10.26,9.02-1.04,0-2.28-.24-3.42-.62-.71.62-1.14,1.19-1.14,2.28,0,1.42,1.04,2.19,4.18,2.19h4.51c6.41,0,9.93,2,9.93,6.65,0,5.37-5.6,9.45-14.49,9.45-6.27,0-11.12-2.14-11.12-6.84ZM691.85,687.76c0-1.9-1.57-2.38-4.42-2.38h-3.23c-1.61,0-2.75-.14-3.7-.38-1.19.95-1.71,2-1.71,3.09,0,2.23,2.47,3.52,6.32,3.52s6.75-1.76,6.75-3.85ZM688.67,666.82c0-3.09-1.81-4.84-4.18-4.84s-4.18,1.76-4.18,4.84,1.85,4.94,4.18,4.94,4.18-1.76,4.18-4.94Z"/>
    <path class="cls-1" d="M714.6,649.29h9.64c10.73,0,17.39,5.6,17.39,17.48s-6.65,17.72-17.01,17.72h-10.02v-35.2ZM723.81,678.83c6.56,0,10.64-3.52,10.64-12.07s-4.08-11.83-10.64-11.83h-2.19v23.89h2.19Z"/>
    <path class="cls-1" d="M746.85,657.89h5.7l.52,4.7h.14c1.95-3.47,4.8-5.37,7.55-5.37,1.47,0,2.33.24,3.13.57l-1.19,6.03c-.95-.29-1.71-.43-2.8-.43-2.09,0-4.61,1.38-6.08,5.23v15.87h-6.98v-26.6Z"/>
    <path class="cls-1" d="M768.18,694.65l1.28-5.37c.48.14,1.23.33,1.85.33,2.71,0,4.23-1.71,4.99-4.04l.48-1.57-10.35-26.13h7.03l4.23,12.35c.81,2.38,1.47,4.94,2.23,7.5h.24c.62-2.47,1.28-5.04,1.9-7.5l3.66-12.35h6.7l-9.45,27.41c-2.33,6.27-5.18,9.88-11.12,9.88-1.57,0-2.61-.19-3.66-.52Z"/>
    <path class="cls-1" d="M794.49,671.19c0-8.65,5.42-13.96,11.16-13.96,2.99,0,4.85,1.14,6.75,2.9l-.24-4.18v-9.36h6.94v37.91h-5.65l-.52-2.75h-.19c-1.95,1.9-4.61,3.42-7.36,3.42-6.6,0-10.88-5.23-10.88-13.97ZM812.16,676.65v-11.69c-1.62-1.47-3.33-1.99-4.99-1.99-2.99,0-5.51,2.85-5.51,8.17s2,8.27,5.51,8.27c1.85,0,3.42-.76,4.99-2.75Z"/>
    <path class="cls-1" d="M825.37,694.65l1.28-5.37c.48.14,1.23.33,1.85.33,2.71,0,4.23-1.71,4.99-4.04l.48-1.57-10.35-26.13h7.03l4.23,12.35c.81,2.38,1.47,4.94,2.23,7.5h.24c.62-2.47,1.28-5.04,1.9-7.5l3.66-12.35h6.7l-9.45,27.41c-2.33,6.27-5.18,9.88-11.12,9.88-1.57,0-2.61-.19-3.66-.52Z"/>
    <path class="cls-1" d="M851.92,671.19c0-8.65,5.42-13.96,11.16-13.96,2.99,0,4.85,1.14,6.75,2.9l-.24-4.18v-9.36h6.94v37.91h-5.65l-.52-2.75h-.19c-1.95,1.9-4.61,3.42-7.36,3.42-6.6,0-10.88-5.23-10.88-13.97ZM869.59,676.65v-11.69c-1.62-1.47-3.33-1.99-4.99-1.99-2.99,0-5.51,2.85-5.51,8.17s1.99,8.27,5.51,8.27c1.85,0,3.42-.76,4.99-2.75Z"/>
    <path class="cls-1" d="M882.13,671.19c0-8.65,5.42-13.96,11.16-13.96,2.99,0,4.85,1.14,6.75,2.9l-.24-4.18v-9.36h6.94v37.91h-5.65l-.52-2.75h-.19c-1.95,1.9-4.61,3.42-7.36,3.42-6.6,0-10.88-5.23-10.88-13.97ZM899.8,676.65v-11.69c-1.62-1.47-3.33-1.99-4.99-1.99-2.99,0-5.51,2.85-5.51,8.17s2,8.27,5.51,8.27c1.85,0,3.42-.76,4.99-2.75Z"/>
    <path class="cls-1" d="M912.43,671.19c0-8.83,6.13-13.96,12.78-13.96s12.78,5.13,12.78,13.96-6.13,13.97-12.78,13.97-12.78-5.13-12.78-13.97ZM930.87,671.19c0-4.99-2.04-8.27-5.65-8.27s-5.65,3.28-5.65,8.27,2.04,8.27,5.65,8.27,5.65-3.23,5.65-8.27Z"/>
    <path class="cls-1" d="M943.45,677.03v-30.45h6.98v30.73c0,1.61.71,2.14,1.38,2.14.28,0,.48,0,.95-.09l.85,5.18c-.81.33-1.95.62-3.61.62-4.85,0-6.56-3.18-6.56-8.12Z"/>
    <path class="cls-1" d="M968.29,677.27c0-5.7,4.61-8.69,15.34-9.83-.14-2.61-1.28-4.61-4.56-4.61-2.47,0-4.84,1.09-7.31,2.52l-2.52-4.61c3.14-1.95,6.94-3.51,11.12-3.51,6.75,0,10.21,4.04,10.21,11.73v15.53h-5.7l-.47-2.85h-.19c-2.33,2-4.99,3.52-8.03,3.52-4.75,0-7.89-3.37-7.89-7.89ZM983.64,677.08v-5.37c-6.51.81-8.69,2.61-8.69,4.99,0,2.09,1.47,2.99,3.52,2.99s3.47-.95,5.18-2.61Z"/>
    <path class="cls-1" d="M995.41,671.19c0-8.83,6.37-13.96,13.59-13.96,3.28,0,5.79,1.28,7.74,2.94l-3.33,4.51c-1.33-1.14-2.56-1.76-4.04-1.76-4.08,0-6.84,3.28-6.84,8.27s2.8,8.27,6.6,8.27c1.9,0,3.71-.9,5.18-2.14l2.8,4.61c-2.56,2.23-5.79,3.23-8.74,3.23-7.36,0-12.97-5.13-12.97-13.97Z"/>
    <path class="cls-1" d="M1037.21,671.61l-10.55-22.33h7.46l3.52,8.6c1,2.61,1.95,5.08,3.04,7.79h.19c1.09-2.71,2.14-5.18,3.14-7.79l3.52-8.6h7.31l-10.59,22.33v12.87h-7.03v-12.87Z"/>
    <path class="cls-1" d="M1056.5,657.89h5.7l.52,3.56h.14c2.23-2.33,4.7-4.23,8.17-4.23,3.8,0,6.03,1.71,7.32,4.65,2.42-2.56,4.99-4.65,8.46-4.65,5.65,0,8.27,3.99,8.27,10.69v16.58h-6.98v-15.72c0-4.13-1.19-5.56-3.71-5.56-1.52,0-3.23,1-5.13,2.99v18.29h-6.94v-15.72c0-4.13-1.23-5.56-3.75-5.56-1.52,0-3.23,1-5.08,2.99v18.29h-6.98v-26.6Z"/>
    <path class="cls-1" d="M1100.25,671.19c0-8.83,6.37-13.96,13.59-13.96,3.28,0,5.79,1.28,7.74,2.94l-3.33,4.51c-1.33-1.14-2.56-1.76-4.04-1.76-4.08,0-6.84,3.28-6.84,8.27s2.8,8.27,6.6,8.27c1.9,0,3.71-.9,5.18-2.14l2.8,4.61c-2.56,2.23-5.79,3.23-8.74,3.23-7.36,0-12.97-5.13-12.97-13.97Z"/>
    <path class="cls-1" d="M1127.04,646.58h6.98v9.55l-.33,4.99c2.14-2,4.75-3.9,8.36-3.9,5.75,0,8.22,3.99,8.22,10.69v16.58h-6.98v-15.72c0-4.13-1.14-5.56-3.75-5.56-2.19,0-3.56,1.04-5.51,2.99v18.29h-6.98v-37.91Z"/>
    <path class="cls-1" d="M1154.59,657.89h6.98l2.9,13.11c.52,2.61.85,5.13,1.33,7.79h.19c.52-2.66,1-5.23,1.66-7.79l3.23-13.11h6.18l3.32,13.11c.62,2.61,1.09,5.13,1.66,7.79h.24c.47-2.66.85-5.18,1.33-7.79l2.9-13.11h6.46l-6.56,26.6h-8.22l-2.8-11.59c-.57-2.52-1-4.94-1.52-7.74h-.24c-.52,2.8-.9,5.27-1.47,7.74l-2.71,11.59h-7.98l-6.89-26.6Z"/>
    <path class="cls-1" d="M1197.34,649.76c0-2.28,1.66-3.8,4.08-3.8s4.04,1.52,4.04,3.8-1.66,3.85-4.04,3.85-4.08-1.52-4.08-3.85ZM1197.91,657.89h6.98v26.6h-6.98v-26.6Z"/>
    <path class="cls-1" d="M1211.01,677.03v-30.45h6.98v30.73c0,1.61.71,2.14,1.38,2.14.28,0,.48,0,.95-.09l.85,5.18c-.81.33-1.95.62-3.61.62-4.85,0-6.56-3.18-6.56-8.12Z"/>
    <path class="cls-1" d="M252.91,721.1c0-11.26,6.6-18.1,15.44-18.1,4.23,0,7.55,2.09,9.55,4.32l-2.38,2.85c-1.8-1.95-4.13-3.32-7.12-3.32-6.6,0-10.97,5.42-10.97,14.11s4.18,14.3,10.83,14.3c3.33,0,5.84-1.47,8.08-3.9l2.42,2.75c-2.75,3.18-6.17,4.99-10.69,4.99-8.65,0-15.15-6.7-15.15-18Z"/>
    <path class="cls-1" d="M283.02,725.61c0-8.6,5.65-13.59,11.97-13.59s11.97,4.99,11.97,13.59-5.65,13.49-11.97,13.49-11.97-4.94-11.97-13.49ZM302.5,725.61c0-5.94-3.04-9.98-7.51-9.98s-7.46,4.04-7.46,9.98,2.99,9.88,7.46,9.88,7.51-3.94,7.51-9.88Z"/>
    <path class="cls-1" d="M313.42,712.69h3.56l.38,3.75h.14c2.23-2.47,4.94-4.42,8.03-4.42,3.94,0,6.08,1.9,7.12,4.94,2.66-2.9,5.37-4.94,8.5-4.94,5.32,0,7.84,3.52,7.84,10.12v16.34h-4.32v-15.77c0-4.85-1.52-6.89-4.8-6.89-2,0-4.09,1.28-6.51,3.94v18.72h-4.32v-15.77c0-4.85-1.52-6.89-4.8-6.89-1.95,0-4.13,1.28-6.51,3.94v18.72h-4.32v-25.79Z"/>
    <path class="cls-1" d="M356.6,712.69h3.56l.38,3.75h.14c2.23-2.47,4.94-4.42,8.03-4.42,3.94,0,6.08,1.9,7.12,4.94,2.66-2.9,5.37-4.94,8.5-4.94,5.32,0,7.84,3.52,7.84,10.12v16.34h-4.32v-15.77c0-4.85-1.52-6.89-4.8-6.89-2,0-4.09,1.28-6.51,3.94v18.72h-4.32v-15.77c0-4.85-1.52-6.89-4.8-6.89-1.95,0-4.13,1.28-6.51,3.94v18.72h-4.32v-25.79Z"/>
    <path class="cls-1" d="M399.06,704.48c0-1.66,1.19-2.8,2.9-2.8s2.9,1.14,2.9,2.8c0,1.76-1.19,2.9-2.9,2.9s-2.9-1.14-2.9-2.9ZM399.78,712.69h4.32v25.79h-4.32v-25.79Z"/>
    <path class="cls-1" d="M410.08,735.54l2.14-2.85c2.23,1.8,4.56,3.04,7.65,3.04,3.42,0,5.08-1.81,5.08-4.04,0-2.66-3.04-3.8-5.89-4.89-3.61-1.33-7.55-3.09-7.55-7.46,0-4.09,3.33-7.32,8.93-7.32,3.18,0,5.98,1.33,7.98,2.9l-2.09,2.8c-1.76-1.33-3.56-2.28-5.84-2.28-3.28,0-4.8,1.71-4.8,3.71,0,2.47,2.66,3.37,5.56,4.46,3.75,1.42,7.89,2.94,7.89,7.84,0,4.18-3.33,7.65-9.41,7.65-3.66,0-7.17-1.52-9.64-3.56Z"/>
    <path class="cls-1" d="M432.45,735.54l2.14-2.85c2.23,1.8,4.56,3.04,7.65,3.04,3.42,0,5.08-1.81,5.08-4.04,0-2.66-3.04-3.8-5.89-4.89-3.61-1.33-7.55-3.09-7.55-7.46,0-4.09,3.33-7.32,8.93-7.32,3.18,0,5.98,1.33,7.98,2.9l-2.09,2.8c-1.76-1.33-3.56-2.28-5.84-2.28-3.28,0-4.8,1.71-4.8,3.71,0,2.47,2.66,3.37,5.56,4.46,3.75,1.42,7.88,2.94,7.88,7.84,0,4.18-3.32,7.65-9.4,7.65-3.66,0-7.17-1.52-9.64-3.56Z"/>
    <path class="cls-1" d="M456.77,704.48c0-1.66,1.19-2.8,2.9-2.8s2.9,1.14,2.9,2.8c0,1.76-1.19,2.9-2.9,2.9s-2.9-1.14-2.9-2.9ZM457.49,712.69h4.32v25.79h-4.32v-25.79Z"/>
    <path class="cls-1" d="M467.79,725.61c0-8.6,5.65-13.59,11.97-13.59s11.97,4.99,11.97,13.59-5.65,13.49-11.97,13.49-11.97-4.94-11.97-13.49ZM487.27,725.61c0-5.94-3.04-9.98-7.51-9.98s-7.46,4.04-7.46,9.98,2.99,9.88,7.46,9.88,7.51-3.94,7.51-9.88Z"/>
    <path class="cls-1" d="M497.48,712.69h3.56l.38,3.71h.14c2.47-2.42,5.13-4.37,8.65-4.37,5.42,0,7.89,3.52,7.89,10.12v16.34h-4.32v-15.77c0-4.85-1.47-6.89-4.89-6.89-2.66,0-4.46,1.33-7.08,3.94v18.72h-4.32v-25.79Z"/>
    <path class="cls-1" d="M538.38,716.21h-3.52v-3.28l3.52-.24v-4.13c0-5.23,2.38-8.5,7.51-8.5,1.57,0,3.13.33,4.32.86l-.95,3.28c-.95-.43-2-.67-2.9-.67-2.47,0-3.66,1.76-3.66,5.08v4.08h5.46v3.52h-5.46v22.28h-4.32v-22.28Z"/>
    <path class="cls-1" d="M551.01,725.61c0-8.6,5.65-13.59,11.97-13.59s11.97,4.99,11.97,13.59-5.65,13.49-11.97,13.49-11.97-4.94-11.97-13.49ZM570.49,725.61c0-5.94-3.04-9.98-7.51-9.98s-7.46,4.04-7.46,9.98,2.99,9.88,7.46,9.88,7.51-3.94,7.51-9.88Z"/>
    <path class="cls-1" d="M580.7,712.69h3.56l.38,4.7h.14c1.81-3.28,4.42-5.37,7.31-5.37,1.14,0,1.95.14,2.76.57l-.81,3.8c-.85-.33-1.47-.43-2.52-.43-2.14,0-4.8,1.52-6.51,5.94v16.58h-4.32v-25.79Z"/>
    <path class="cls-1" d="M617.7,707.37h-10.54v-3.75h25.51v3.75h-10.55v31.11h-4.42v-31.11Z"/>
    <path class="cls-1" d="M632.95,725.61c0-8.36,5.65-13.59,11.64-13.59,6.56,0,10.26,4.75,10.26,12.11,0,.95-.1,1.85-.19,2.47h-17.39c.29,5.51,3.66,9.02,8.55,9.02,2.52,0,4.56-.76,6.46-2.04l1.57,2.85c-2.28,1.47-5.04,2.66-8.55,2.66-6.84,0-12.35-4.99-12.35-13.49ZM651.05,723.48c0-5.18-2.38-7.98-6.41-7.98-3.66,0-6.89,2.94-7.41,7.98h13.82Z"/>
    <path class="cls-1" d="M660.88,712.69h3.56l.38,4.7h.14c1.81-3.28,4.42-5.37,7.31-5.37,1.14,0,1.95.14,2.76.57l-.81,3.8c-.85-.33-1.47-.43-2.52-.43-2.14,0-4.8,1.52-6.51,5.94v16.58h-4.32v-25.79Z"/>
    <path class="cls-1" d="M681.4,730.51v-14.3h-3.85v-3.28l4.04-.24.52-7.27h3.61v7.27h6.98v3.52h-6.98v14.39c0,3.18,1,4.99,3.99,4.99.9,0,2.09-.33,2.94-.67l.85,3.23c-1.47.48-3.18.95-4.75.95-5.51,0-7.36-3.47-7.36-8.6Z"/>
    <path class="cls-1" d="M697.74,704.48c0-1.66,1.19-2.8,2.9-2.8s2.9,1.14,2.9,2.8c0,1.76-1.19,2.9-2.9,2.9s-2.9-1.14-2.9-2.9ZM698.45,712.69h4.32v25.79h-4.32v-25.79Z"/>
    <path class="cls-1" d="M708.14,731.79c0-5.6,4.89-8.41,15.87-9.64,0-3.32-1.09-6.51-5.32-6.51-2.99,0-5.7,1.38-7.74,2.75l-1.71-2.99c2.38-1.52,6.03-3.37,10.17-3.37,6.27,0,8.93,4.23,8.93,10.59v15.87h-3.56l-.38-3.09h-.14c-2.47,2.04-5.37,3.71-8.55,3.71-4.32,0-7.55-2.66-7.55-7.32ZM724,732.22v-7.22c-8.69,1.04-11.64,3.18-11.64,6.51,0,2.94,2,4.13,4.56,4.13s4.56-1.19,7.08-3.42Z"/>
    <path class="cls-1" d="M734.07,712.69h3.56l.38,4.7h.14c1.81-3.28,4.42-5.37,7.31-5.37,1.14,0,1.95.14,2.76.57l-.81,3.8c-.85-.33-1.47-.43-2.52-.43-2.14,0-4.8,1.52-6.51,5.94v16.58h-4.32v-25.79Z"/>
    <path class="cls-1" d="M752.12,749.08l.85-3.47c.52.19,1.28.43,1.95.43,2.94,0,4.8-2.38,5.84-5.56l.57-1.95-10.35-25.84h4.51l5.27,14.35c.76,2.23,1.66,4.89,2.47,7.22h.24c.71-2.33,1.47-4.94,2.19-7.22l4.61-14.35h4.23l-9.74,27.93c-1.76,5.08-4.46,8.98-9.6,8.98-1.23,0-2.23-.19-3.04-.52Z"/>
    <path class="cls-1" d="M790.79,703.62h20.09v3.75h-15.68v10.92h13.21v3.75h-13.21v12.68h16.2v3.75h-20.62v-34.87Z"/>
    <path class="cls-1" d="M816.11,725.61c0-8.36,5.27-13.59,11.16-13.59,3.04,0,4.99,1.14,7.27,3.04l-.19-4.46v-9.93h4.27v37.81h-3.52l-.38-3.04h-.14c-2.04,2-4.75,3.66-7.84,3.66-6.46,0-10.64-4.89-10.64-13.49ZM834.35,731.93v-13.54c-2.23-1.95-4.18-2.71-6.32-2.71-4.18,0-7.46,3.99-7.46,9.88,0,6.22,2.57,9.93,7.13,9.93,2.38,0,4.46-1.19,6.65-3.56Z"/>
    <path class="cls-1" d="M845.79,729.03v-16.34h4.32v15.82c0,4.8,1.42,6.84,4.84,6.84,2.66,0,4.51-1.28,6.98-4.37v-18.29h4.32v25.79h-3.61l-.33-4.04h-.14c-2.42,2.8-4.99,4.66-8.55,4.66-5.42,0-7.84-3.52-7.84-10.07Z"/>
    <path class="cls-1" d="M872.2,725.61c0-8.6,5.84-13.59,12.45-13.59,3.37,0,5.7,1.43,7.55,3.04l-2.23,2.85c-1.52-1.33-3.09-2.28-5.13-2.28-4.7,0-8.12,4.04-8.12,9.98s3.23,9.88,7.98,9.88c2.38,0,4.47-1.09,6.08-2.56l1.9,2.9c-2.33,2.09-5.27,3.28-8.36,3.28-6.84,0-12.11-4.94-12.11-13.49Z"/>
    <path class="cls-1" d="M896.33,731.79c0-5.6,4.89-8.41,15.87-9.64,0-3.32-1.09-6.51-5.32-6.51-2.99,0-5.7,1.38-7.74,2.75l-1.71-2.99c2.38-1.52,6.03-3.37,10.17-3.37,6.27,0,8.93,4.23,8.93,10.59v15.87h-3.56l-.38-3.09h-.14c-2.47,2.04-5.37,3.71-8.55,3.71-4.32,0-7.55-2.66-7.55-7.32ZM912.2,732.22v-7.22c-8.69,1.04-11.64,3.18-11.64,6.51,0,2.94,2,4.13,4.56,4.13s4.56-1.19,7.08-3.42Z"/>
    <path class="cls-1" d="M924.69,730.51v-14.3h-3.85v-3.28l4.04-.24.52-7.27h3.61v7.27h6.98v3.52h-6.98v14.39c0,3.18,1,4.99,3.99,4.99.9,0,2.09-.33,2.94-.67l.85,3.23c-1.47.48-3.18.95-4.75.95-5.51,0-7.36-3.47-7.36-8.6Z"/>
    <path class="cls-1" d="M941.27,704.48c0-1.66,1.19-2.8,2.9-2.8s2.9,1.14,2.9,2.8c0,1.76-1.19,2.9-2.9,2.9s-2.9-1.14-2.9-2.9ZM941.98,712.69h4.32v25.79h-4.32v-25.79Z"/>
    <path class="cls-1" d="M952.05,725.61c0-8.6,5.65-13.59,11.97-13.59s11.97,4.99,11.97,13.59-5.65,13.49-11.97,13.49-11.97-4.94-11.97-13.49ZM971.53,725.61c0-5.94-3.04-9.98-7.51-9.98s-7.46,4.04-7.46,9.98,2.99,9.88,7.46,9.88,7.51-3.94,7.51-9.88Z"/>
    <path class="cls-1" d="M981.74,712.69h3.56l.38,3.71h.14c2.47-2.42,5.13-4.37,8.65-4.37,5.42,0,7.89,3.52,7.89,10.12v16.34h-4.32v-15.77c0-4.85-1.47-6.89-4.89-6.89-2.66,0-4.46,1.33-7.08,3.94v18.72h-4.32v-25.79Z"/>
    <path class="cls-1" d="M1020.07,731.79c0-5.6,4.89-8.41,15.87-9.64,0-3.32-1.09-6.51-5.32-6.51-2.99,0-5.7,1.38-7.74,2.75l-1.71-2.99c2.38-1.52,6.03-3.37,10.17-3.37,6.27,0,8.93,4.23,8.93,10.59v15.87h-3.56l-.38-3.09h-.14c-2.47,2.04-5.37,3.71-8.55,3.71-4.32,0-7.55-2.66-7.55-7.32ZM1035.93,732.22v-7.22c-8.69,1.04-11.64,3.18-11.64,6.51,0,2.94,2,4.13,4.56,4.13s4.56-1.19,7.08-3.42Z"/>
    <path class="cls-1" d="M1047.19,712.69h3.56l.38,3.71h.14c2.47-2.42,5.13-4.37,8.65-4.37,5.42,0,7.89,3.52,7.89,10.12v16.34h-4.32v-15.77c0-4.85-1.47-6.89-4.89-6.89-2.66,0-4.46,1.33-7.08,3.94v18.72h-4.32v-25.79Z"/>
    <path class="cls-1" d="M1073.55,725.61c0-8.36,5.27-13.59,11.16-13.59,3.04,0,4.99,1.14,7.27,3.04l-.19-4.46v-9.93h4.27v37.81h-3.52l-.38-3.04h-.14c-2.04,2-4.75,3.66-7.84,3.66-6.46,0-10.64-4.89-10.64-13.49ZM1091.79,731.93v-13.54c-2.23-1.95-4.18-2.71-6.32-2.71-4.18,0-7.46,3.99-7.46,9.88,0,6.22,2.57,9.93,7.13,9.93,2.38,0,4.46-1.19,6.65-3.56Z"/>
    <path class="cls-1" d="M1116.64,703.62h10.93c7.08,0,12.16,2.56,12.16,9.83,0,5.42-3.14,8.65-7.89,9.79l8.93,15.25h-4.99l-8.46-14.77h-6.27v14.77h-4.42v-34.87ZM1126.9,720.15c5.46,0,8.46-2.19,8.46-6.7s-2.99-6.22-8.46-6.22h-5.84v12.92h5.84Z"/>
    <path class="cls-1" d="M1143.9,725.61c0-8.36,5.65-13.59,11.64-13.59,6.56,0,10.26,4.75,10.26,12.11,0,.95-.1,1.85-.19,2.47h-17.39c.29,5.51,3.66,9.02,8.55,9.02,2.52,0,4.56-.76,6.46-2.04l1.57,2.85c-2.28,1.47-5.04,2.66-8.55,2.66-6.84,0-12.35-4.99-12.35-13.49ZM1162,723.48c0-5.18-2.38-7.98-6.41-7.98-3.66,0-6.89,2.94-7.41,7.98h13.82Z"/>
    <path class="cls-1" d="M1169.41,735.54l2.14-2.85c2.23,1.8,4.56,3.04,7.65,3.04,3.42,0,5.08-1.81,5.08-4.04,0-2.66-3.04-3.8-5.89-4.89-3.61-1.33-7.55-3.09-7.55-7.46,0-4.09,3.33-7.32,8.93-7.32,3.18,0,5.98,1.33,7.98,2.9l-2.09,2.8c-1.76-1.33-3.56-2.28-5.84-2.28-3.28,0-4.8,1.71-4.8,3.71,0,2.47,2.66,3.37,5.56,4.46,3.75,1.42,7.89,2.94,7.89,7.84,0,4.18-3.33,7.65-9.41,7.65-3.66,0-7.17-1.52-9.64-3.56Z"/>
    <path class="cls-1" d="M1192.73,725.61c0-8.36,5.65-13.59,11.64-13.59,6.56,0,10.26,4.75,10.26,12.11,0,.95-.1,1.85-.19,2.47h-17.39c.29,5.51,3.66,9.02,8.55,9.02,2.52,0,4.56-.76,6.46-2.04l1.57,2.85c-2.28,1.47-5.04,2.66-8.55,2.66-6.84,0-12.35-4.99-12.35-13.49ZM1210.83,723.48c0-5.18-2.38-7.98-6.41-7.98-3.66,0-6.89,2.94-7.41,7.98h13.82Z"/>
    <path class="cls-1" d="M1218.76,731.79c0-5.6,4.89-8.41,15.87-9.64,0-3.32-1.09-6.51-5.32-6.51-2.99,0-5.7,1.38-7.74,2.75l-1.71-2.99c2.38-1.52,6.03-3.37,10.17-3.37,6.27,0,8.93,4.23,8.93,10.59v15.87h-3.56l-.38-3.09h-.14c-2.47,2.04-5.37,3.71-8.55,3.71-4.32,0-7.55-2.66-7.55-7.32ZM1234.62,732.22v-7.22c-8.69,1.04-11.64,3.18-11.64,6.51,0,2.94,2,4.13,4.56,4.13s4.56-1.19,7.08-3.42Z"/>
    <path class="cls-1" d="M1245.64,712.69h3.56l.38,4.7h.14c1.81-3.28,4.42-5.37,7.31-5.37,1.14,0,1.95.14,2.76.57l-.81,3.8c-.85-.33-1.47-.43-2.52-.43-2.14,0-4.8,1.52-6.51,5.94v16.58h-4.32v-25.79Z"/>
    <path class="cls-1" d="M1261.98,725.61c0-8.6,5.84-13.59,12.45-13.59,3.37,0,5.7,1.43,7.55,3.04l-2.23,2.85c-1.52-1.33-3.09-2.28-5.13-2.28-4.7,0-8.12,4.04-8.12,9.98s3.23,9.88,7.98,9.88c2.38,0,4.47-1.09,6.08-2.56l1.9,2.9c-2.33,2.09-5.27,3.28-8.36,3.28-6.84,0-12.11-4.94-12.11-13.49Z"/>
    <path class="cls-1" d="M1288.01,700.68h4.32v10.35l-.14,5.32c2.38-2.38,5.03-4.32,8.55-4.32,5.42,0,7.89,3.52,7.89,10.12v16.34h-4.32v-15.77c0-4.85-1.47-6.89-4.89-6.89-2.66,0-4.46,1.33-7.08,3.94v18.72h-4.32v-37.81Z"/>
  </g>
</svg>