<svg width="208" height="95" viewBox="0 0 208 95" fill="none" xmlns="http://www.w3.org/2000/svg">
<path fill-rule="evenodd" clip-rule="evenodd" d="M41.1788 76.8691L20.6626 83.0059L41.1788 94.86V76.8691ZM82.2116 71.1518L66.6425 62.1545L62.1437 82.7463L82.2116 71.1518ZM66.6425 32.7259L82.2116 47.44V23.73L66.6425 32.7259ZM41.1788 0.0195312V18.0118L62.1437 12.1341L41.1788 0.0195312ZM0.146484 23.73L15.7151 32.7259L20.6626 11.875L0.146484 23.73ZM0.146484 47.44L15.7151 62.1545L0.146484 71.1518V47.44Z" fill="#1A1919"/>
<path fill-rule="evenodd" clip-rule="evenodd" d="M0.146484 71.1518L20.6626 83.0059L15.7151 62.1545L0.146484 71.1518ZM41.1788 94.86L62.1437 82.7463L41.1788 76.8691V94.86ZM82.2116 71.1518V47.44L66.6425 62.1545L82.2116 71.1518ZM62.1437 12.1345L66.6425 32.7259L82.2116 23.73L62.1437 12.1345ZM20.6626 11.875L41.1788 18.0118V0.0195312L20.6626 11.875ZM15.7151 32.7259L0.146484 47.44V23.73L15.7151 32.7259Z" fill="#4D4E4C"/>
<path fill-rule="evenodd" clip-rule="evenodd" d="M62.1437 12.1341L41.1788 18.0118L53.9113 25.3691L62.1437 12.1345V12.1341ZM66.6425 32.7259V47.44H82.2116L66.6425 32.7259ZM28.4472 69.5114L20.6626 83.0059L41.1788 76.8691L28.4472 69.5114ZM53.9113 69.5114L62.1437 82.7464L66.6425 62.1545L53.9113 69.5114ZM15.7151 32.7259L28.4472 25.3691L20.6626 11.875L15.7151 32.7259ZM15.7151 47.44V62.1545L0.146484 47.44H15.7151Z" fill="#777776"/>
<path fill-rule="evenodd" clip-rule="evenodd" d="M62.1437 12.1345L53.9113 25.3691L66.6425 32.7259L62.1437 12.1345ZM82.2116 47.44H66.6425V62.1545L82.2116 47.44ZM15.7151 62.1545L20.6626 83.0059L28.4472 69.5114L15.7151 62.1545ZM41.1788 76.8691L62.1437 82.7464L53.9113 69.5114L41.1788 76.8691ZM20.6626 11.875L28.4472 25.3691L41.1788 18.0118L20.6626 11.875ZM15.7151 47.44H0.146484L15.7151 32.7259V47.44Z" fill="#9E9F9E"/>
<path fill-rule="evenodd" clip-rule="evenodd" d="M103.302 40.5249C104.441 39.4539 105.011 37.8976 105.011 35.8549C105.011 33.813 104.441 32.2412 103.302 31.1408C102.162 30.0403 100.414 29.4903 98.0569 29.4903H95.4714V42.1312H98.4134C100.533 42.1312 102.162 41.5953 103.302 40.5249ZM106.705 28.1667C108.686 29.9808 109.677 32.5044 109.677 35.7362C109.677 38.9685 108.711 41.5262 106.779 43.4099C104.848 45.2939 101.9 46.2353 97.9379 46.2353H90.8359V25.4453H98.1759C101.88 25.4453 104.723 26.3521 106.705 28.1667Z" fill="#1A1919"/>
<path fill-rule="evenodd" clip-rule="evenodd" d="M111.58 46.2342H116.037V30.2324H111.58V46.2342ZM111.951 28.1951C111.446 27.6897 111.193 27.0701 111.193 26.336C111.193 25.6028 111.446 24.9828 111.951 24.4774C112.457 23.9715 113.075 23.7188 113.808 23.7188C114.542 23.7188 115.161 23.9715 115.666 24.4774C116.171 24.9828 116.424 25.6028 116.424 26.336C116.424 27.0701 116.171 27.6897 115.666 28.1951C115.161 28.701 114.542 28.9537 113.808 28.9537C113.075 28.9537 112.457 28.701 111.951 28.1951Z" fill="#1A1919"/>
<path fill-rule="evenodd" clip-rule="evenodd" d="M130.806 41.2526C130.806 42.8289 130.227 44.093 129.067 45.0448C127.908 45.9967 126.437 46.4726 124.654 46.4726C123.466 46.4726 122.227 46.2594 120.939 45.833C119.651 45.4071 118.493 44.7771 117.463 43.9444L119.424 41.1485C121.089 42.4376 122.861 43.0817 124.743 43.0817C125.318 43.0817 125.773 42.968 126.11 42.7398C126.447 42.5121 126.615 42.2094 126.615 41.8326C126.615 41.4562 126.383 41.1089 125.917 40.7917C125.452 40.4744 124.778 40.1771 123.896 39.8994C123.015 39.6221 122.341 39.3839 121.876 39.1858C121.41 38.9876 120.88 38.6998 120.286 38.323C119.077 37.5694 118.473 36.4544 118.473 34.9767C118.473 33.4998 119.067 32.2953 120.256 31.363C121.445 30.4312 122.98 29.9648 124.862 29.9648C126.744 29.9648 128.626 30.5998 130.509 31.8685L128.845 34.843C127.458 33.8912 126.076 33.4153 124.699 33.4153C123.322 33.4153 122.634 33.7921 122.634 34.5458C122.634 34.9621 122.851 35.2889 123.287 35.5271C123.723 35.7648 124.446 36.043 125.457 36.3598C126.467 36.6771 127.185 36.9203 127.611 37.0885C128.037 37.2571 128.547 37.5198 129.142 37.8767C130.251 38.5512 130.806 39.6762 130.806 41.2526Z" fill="#1A1919"/>
<path fill-rule="evenodd" clip-rule="evenodd" d="M140.405 42.5167C141.89 42.5167 143.228 41.773 144.417 40.2858L147.061 43.2603C145.001 45.4017 142.772 46.4726 140.375 46.4726C137.977 46.4726 135.952 45.7139 134.298 44.1971C132.643 42.6803 131.816 40.6976 131.816 38.2485C131.816 35.7998 132.653 33.8071 134.327 32.2703C136.001 30.7339 137.987 29.9648 140.286 29.9648C141.434 29.9648 142.599 30.203 143.778 30.6789C144.956 31.1548 145.992 31.8589 146.883 32.7908L144.565 35.8244C144.05 35.2098 143.421 34.7344 142.678 34.3967C141.935 34.0598 141.197 33.8912 140.464 33.8912C139.295 33.8912 138.29 34.273 137.448 35.0362C136.606 35.7998 136.185 36.8608 136.185 38.2189C136.185 39.5771 136.606 40.633 137.448 41.3862C138.29 42.1403 139.275 42.5167 140.405 42.5167Z" fill="#1A1919"/>
<path fill-rule="evenodd" clip-rule="evenodd" d="M151.845 38.2335C151.845 39.5426 152.216 40.6085 152.959 41.4308C153.702 42.2544 154.653 42.6653 155.812 42.6653C156.971 42.6653 157.922 42.2544 158.665 41.4308C159.408 40.6085 159.779 39.5426 159.779 38.2335C159.779 36.9248 159.408 35.8539 158.665 35.0212C157.922 34.1885 156.971 33.7721 155.812 33.7721C154.653 33.7721 153.702 34.1885 152.959 35.0212C152.216 35.8539 151.845 36.9248 151.845 38.2335ZM164.267 38.2335C164.267 40.5535 163.464 42.5071 161.859 44.093C160.255 45.6798 158.238 46.4726 155.812 46.4726C153.385 46.4726 151.369 45.6798 149.764 44.093C148.16 42.5071 147.357 40.5535 147.357 38.2335C147.357 35.9135 148.16 33.9558 149.764 32.3594C151.369 30.7635 153.385 29.9648 155.812 29.9648C158.238 29.9648 160.255 30.7635 161.859 32.3594C163.464 33.9558 164.267 35.9135 164.267 38.2335Z" fill="#1A1919"/>
<path fill-rule="evenodd" clip-rule="evenodd" d="M170.033 46.2345L163.703 30.2031H168.339L172.321 40.2859L176.303 30.2031H180.939L174.609 46.2345H170.033Z" fill="#1A1919"/>
<path fill-rule="evenodd" clip-rule="evenodd" d="M191.22 34.4267C190.606 33.9112 189.858 33.6535 188.977 33.6535C188.095 33.6535 187.288 33.9212 186.555 34.4562C185.822 34.9917 185.396 35.7158 185.277 36.6276H192.29C192.191 35.6758 191.834 34.9426 191.22 34.4267ZM195.5 43.9144C193.697 45.6203 191.582 46.4726 189.155 46.4726C186.728 46.4726 184.722 45.7244 183.137 44.2267C181.552 42.7298 180.76 40.7221 180.76 38.2039C180.76 35.6858 181.567 33.683 183.182 32.1958C184.797 30.7089 186.703 29.9648 188.903 29.9648C191.102 29.9648 192.969 30.6298 194.504 31.958C196.04 33.2867 196.807 35.1108 196.807 37.4308V39.8103H185.158C185.296 40.6826 185.752 41.3967 186.525 41.9517C187.298 42.5071 188.17 42.7844 189.14 42.7844C190.705 42.7844 191.993 42.2594 193.004 41.208L195.5 43.9144Z" fill="#1A1919"/>
<path fill-rule="evenodd" clip-rule="evenodd" d="M206.94 34.1589C205.612 34.1589 204.621 34.6303 203.968 35.5717C203.314 36.5139 202.987 37.7576 202.987 39.3044V46.2344H198.529V30.2326H202.987V32.3444C203.561 31.6903 204.28 31.1353 205.142 30.6789C206.003 30.223 206.88 29.9848 207.772 29.9648L207.801 34.1589H206.94Z" fill="#1A1919"/>
<path fill-rule="evenodd" clip-rule="evenodd" d="M96.2261 65.701C96.9882 66.6497 98.0141 67.1237 99.3039 67.1237C100.594 67.1237 101.615 66.6497 102.367 65.701C103.12 64.7528 103.496 63.4565 103.496 61.8133V50.4883H108.069V61.9601C108.069 64.9333 107.249 67.2169 105.607 68.811C103.965 70.4056 101.864 71.2024 99.3039 71.2024C96.7439 71.2024 94.638 70.4001 92.9867 68.7965C91.335 67.1928 90.5098 64.9137 90.5098 61.9601V50.4883H95.0826V61.8133C95.0826 63.4565 95.4636 64.7528 96.2261 65.701Z" fill="#1A1919"/>
<path fill-rule="evenodd" clip-rule="evenodd" d="M115.074 62.1969V70.9988H110.678V55.2133H115.074V56.9738C116.403 55.6247 117.898 54.9492 119.56 54.9492C121.221 54.9492 122.613 55.536 123.737 56.7097C124.861 57.8833 125.423 59.4488 125.423 61.4042V70.9988H121.026V62.0792C121.026 59.6542 120.136 58.441 118.358 58.441C117.478 58.441 116.712 58.7592 116.057 59.3947C115.402 60.0306 115.074 60.9647 115.074 62.1969Z" fill="#1A1919"/>
<path fill-rule="evenodd" clip-rule="evenodd" d="M127.944 70.9995H132.341V55.2141H127.944V70.9995ZM128.31 53.2045C127.812 52.7059 127.562 52.0945 127.562 51.3704C127.562 50.6472 127.812 50.0359 128.31 49.5372C128.809 49.0382 129.419 48.7891 130.143 48.7891C130.865 48.7891 131.476 49.0382 131.975 49.5372C132.473 50.0359 132.722 50.6472 132.722 51.3704C132.722 52.0945 132.473 52.7059 131.975 53.2045C131.476 53.7032 130.865 53.9527 130.143 53.9527C129.419 53.9527 128.809 53.7032 128.31 53.2045Z" fill="#1A1919"/>
</svg>
