<svg width="124" height="57" viewBox="0 0 124 57" fill="none" xmlns="http://www.w3.org/2000/svg">
<path fill-rule="evenodd" clip-rule="evenodd" d="M24.4613 46.1739L12.2305 49.8611L24.4613 56.9835V46.1739ZM48.9229 42.7388L39.6418 37.3329L36.9596 49.7052L48.9229 42.7388ZM39.6418 19.6511L48.9229 28.4919V14.2461L39.6418 19.6511ZM24.4613 0V10.8104L36.9596 7.27885L24.4613 0ZM0 14.2461L9.28105 19.6511L12.2305 7.12318L0 14.2461ZM0 28.4919L9.28105 37.3329L0 42.7388V28.4919Z" fill="#357A76"/>
<path fill-rule="evenodd" clip-rule="evenodd" d="M0 42.7388L12.2305 49.8611L9.28105 37.3329L0 42.7388ZM24.4613 56.9835L36.9596 49.7052L24.4613 46.1739V56.9835ZM48.9229 42.7388V28.4919L39.6418 37.3329L48.9229 42.7388ZM36.9596 7.27912L39.6418 19.6511L48.9229 14.2461L36.9596 7.27912ZM12.2305 7.12318L24.4613 10.8104V0L12.2305 7.12318ZM9.28105 19.6511L0 28.4919V14.2461L9.28105 19.6511Z" fill="#618F8B"/>
<path fill-rule="evenodd" clip-rule="evenodd" d="M36.9596 7.27676L24.4613 10.8083L32.0518 15.2288L36.9596 7.27704V7.27676ZM39.6418 19.6491V28.4898H48.9229L39.6418 19.6491ZM16.8713 41.7511L12.2305 49.8591L24.4613 46.1718L16.8713 41.7511ZM32.0518 41.7511L36.9596 49.7031L39.6418 37.3308L32.0518 41.7511ZM9.28105 19.6491L16.8713 15.2288L12.2305 7.12109L9.28105 19.6491ZM9.28105 28.4898V37.3308L0 28.4898H9.28105Z" fill="#8FBCB5"/>
<path fill-rule="evenodd" clip-rule="evenodd" d="M36.9596 7.27704L32.0518 15.2288L39.6418 19.6491L36.9596 7.27704ZM48.9229 28.4898H39.6418V37.3308L48.9229 28.4898ZM9.28105 37.3308L12.2305 49.8591L16.8713 41.7511L9.28105 37.3308ZM24.4613 46.1718L36.9596 49.7031L32.0518 41.7511L24.4613 46.1718ZM12.2305 7.12109L16.8713 15.2288L24.4613 10.8083L12.2305 7.12109ZM9.28105 28.4898H0L9.28105 19.6491V28.4898Z" fill="#D2E4DD"/>
<path fill-rule="evenodd" clip-rule="evenodd" d="M61.4941 24.3377C62.1734 23.6942 62.5129 22.7591 62.5129 21.5318C62.5129 20.305 62.1734 19.3606 61.4941 18.6994C60.8151 18.0382 59.7727 17.7077 58.3673 17.7077H56.826V25.3028H58.5798C59.8437 25.3028 60.8151 24.9808 61.4941 24.3377ZM63.5228 16.9124C64.7035 18.0024 65.2942 19.5187 65.2942 21.4605C65.2942 23.4025 64.7186 24.9393 63.5669 26.0711C62.4154 27.2031 60.6586 27.7687 58.2964 27.7687H54.0625V15.2773H58.4382C60.6467 15.2773 62.3415 15.8222 63.5228 16.9124Z" fill="#1A1919"/>
<path fill-rule="evenodd" clip-rule="evenodd" d="M66.4335 27.7625H69.0909V18.148H66.4335V27.7625ZM66.655 16.9239C66.3539 16.6202 66.2031 16.248 66.2031 15.8069C66.2031 15.3664 66.3539 14.9939 66.655 14.6902C66.9561 14.3862 67.3251 14.2344 67.7621 14.2344C68.199 14.2344 68.5683 14.3862 68.8694 14.6902C69.1705 14.9939 69.3213 15.3664 69.3213 15.8069C69.3213 16.248 69.1705 16.6202 68.8694 16.9239C68.5683 17.2279 68.199 17.3797 67.7621 17.3797C67.3251 17.3797 66.9561 17.2279 66.655 16.9239Z" fill="#1A1919"/>
<path fill-rule="evenodd" clip-rule="evenodd" d="M77.8997 24.7703C77.8997 25.7175 77.5543 26.477 76.8633 27.0489C76.1724 27.6208 75.2955 27.9067 74.2325 27.9067C73.5237 27.9067 72.7857 27.7786 72.0178 27.5224C71.25 27.2665 70.5594 26.888 69.9453 26.3877L71.1144 24.7078C72.1066 25.4823 73.1634 25.8693 74.2856 25.8693C74.6281 25.8693 74.8996 25.8011 75.1005 25.664C75.3011 25.5271 75.4016 25.3452 75.4016 25.1188C75.4016 24.8927 75.2627 24.684 74.9855 24.4934C74.7077 24.3028 74.3062 24.1242 73.7806 23.9573C73.2551 23.7907 72.8534 23.6476 72.5761 23.5285C72.2983 23.4095 71.9824 23.2366 71.6282 23.0102C70.9078 22.5574 70.5477 21.8874 70.5477 20.9996C70.5477 20.1122 70.9018 19.3885 71.6104 18.8284C72.3192 18.2685 73.2343 17.9883 74.3565 17.9883C75.4785 17.9883 76.6004 18.3698 77.7227 19.1321L76.7304 20.9193C75.9035 20.3474 75.0797 20.0614 74.259 20.0614C73.4379 20.0614 73.0277 20.2878 73.0277 20.7407C73.0277 20.9908 73.1577 21.1872 73.4176 21.3303C73.6772 21.4731 74.1085 21.6403 74.7109 21.8306C75.313 22.0213 75.7411 22.1674 75.9953 22.2684C76.249 22.3697 76.5533 22.5276 76.9075 22.742C77.5689 23.1473 77.8997 23.8232 77.8997 24.7703Z" fill="#1A1919"/>
<path fill-rule="evenodd" clip-rule="evenodd" d="M83.6197 25.5299C84.5056 25.5299 85.3029 25.0831 86.0115 24.1894L87.5883 25.9767C86.3597 27.2633 85.0311 27.9067 83.6021 27.9067C82.1729 27.9067 80.9654 27.4509 79.9791 26.5395C78.993 25.6282 78.5 24.4369 78.5 22.9654C78.5 21.4942 78.9987 20.2969 79.9969 19.3735C80.9949 18.4504 82.1786 17.9883 83.5488 17.9883C84.2338 17.9883 84.9277 18.1314 85.6305 18.4173C86.3331 18.7033 86.9504 19.1263 87.4819 19.6862L86.1 21.5089C85.793 21.1397 85.418 20.854 84.9751 20.6511C84.5321 20.4487 84.0922 20.3474 83.6552 20.3474C82.9583 20.3474 82.3589 20.5768 81.8569 21.0353C81.355 21.4942 81.1043 22.1316 81.1043 22.9476C81.1043 23.7637 81.355 24.3981 81.8569 24.8506C82.3589 25.3037 82.9467 25.5299 83.6197 25.5299Z" fill="#1A1919"/>
<path fill-rule="evenodd" clip-rule="evenodd" d="M90.4369 22.9564C90.4369 23.7429 90.6581 24.3834 91.101 24.8774C91.544 25.3723 92.1109 25.6192 92.8019 25.6192C93.4928 25.6192 94.0597 25.3723 94.5027 24.8774C94.9456 24.3834 95.1671 23.7429 95.1671 22.9564C95.1671 22.1701 94.9456 21.5267 94.5027 21.0263C94.0597 20.526 93.4928 20.2758 92.8019 20.2758C92.1109 20.2758 91.544 20.526 91.101 21.0263C90.6581 21.5267 90.4369 22.1701 90.4369 22.9564ZM97.842 22.9564C97.842 24.3503 97.3639 25.5241 96.4071 26.477C95.4505 27.4304 94.2484 27.9067 92.8019 27.9067C91.355 27.9067 90.1535 27.4304 89.1966 26.477C88.2401 25.5241 87.7617 24.3503 87.7617 22.9564C87.7617 21.5624 88.2401 20.3862 89.1966 19.427C90.1535 18.4681 91.355 17.9883 92.8019 17.9883C94.2484 17.9883 95.4505 18.4681 96.4071 19.427C97.3639 20.3862 97.842 21.5624 97.842 22.9564Z" fill="#1A1919"/>
<path fill-rule="evenodd" clip-rule="evenodd" d="M101.281 27.7689L97.5078 18.1367H100.272L102.645 24.1948L105.019 18.1367H107.783L104.009 27.7689H101.281Z" fill="#1A1919"/>
<path fill-rule="evenodd" clip-rule="evenodd" d="M113.912 20.6691C113.546 20.3594 113.1 20.2045 112.574 20.2045C112.049 20.2045 111.567 20.3654 111.13 20.6869C110.693 21.0086 110.44 21.4436 110.369 21.9915H114.55C114.49 21.4196 114.278 20.9791 113.912 20.6691ZM116.463 26.3697C115.388 27.3946 114.127 27.9067 112.68 27.9067C111.234 27.9067 110.038 27.4572 109.093 26.5573C108.148 25.6579 107.676 24.4516 107.676 22.9386C107.676 21.4256 108.157 20.2223 109.12 19.3287C110.082 18.4354 111.219 17.9883 112.53 17.9883C113.841 17.9883 114.954 18.3878 115.87 19.1859C116.785 19.9841 117.242 21.0801 117.242 22.4741V23.9038H110.298C110.38 24.4279 110.652 24.8569 111.113 25.1904C111.573 25.5241 112.093 25.6907 112.672 25.6907C113.605 25.6907 114.372 25.3753 114.975 24.7436L116.463 26.3697Z" fill="#1A1919"/>
<path fill-rule="evenodd" clip-rule="evenodd" d="M123.287 20.5082C122.496 20.5082 121.905 20.7915 121.516 21.3571C121.126 21.9232 120.931 22.6704 120.931 23.5998V27.7636H118.273V18.1491H120.931V19.418C121.273 19.025 121.702 18.6915 122.215 18.4173C122.729 18.1434 123.252 18.0003 123.783 17.9883L123.801 20.5082H123.287Z" fill="#1A1919"/>
<path fill-rule="evenodd" clip-rule="evenodd" d="M57.2828 39.4646C57.7371 40.0345 58.3487 40.3194 59.1179 40.3194C59.8868 40.3194 60.4955 40.0345 60.9441 39.4646C61.3924 38.8949 61.6169 38.116 61.6169 37.1287V30.3242H64.3432V37.2169C64.3432 39.0033 63.8537 40.3754 62.8753 41.3332C61.8966 42.2912 60.6438 42.77 59.1179 42.77C57.5915 42.77 56.336 42.2879 55.3516 41.3244C54.3669 40.3609 53.875 38.9915 53.875 37.2169V30.3242H56.6011V37.1287C56.6011 38.116 56.8285 38.8949 57.2828 39.4646Z" fill="#1A1919"/>
<path fill-rule="evenodd" clip-rule="evenodd" d="M68.5198 37.3586V42.647H65.8984V33.1626H68.5198V34.2203C69.312 33.4097 70.2032 33.0039 71.1936 33.0039C72.1837 33.0039 73.0138 33.3565 73.6842 34.0616C74.354 34.7668 74.6889 35.7074 74.6889 36.8823V42.647H72.0676V37.2879C72.0676 35.8308 71.5372 35.1019 70.4772 35.1019C69.9528 35.1019 69.4955 35.2931 69.1054 35.6749C68.715 36.057 68.5198 36.6182 68.5198 37.3586Z" fill="#1A1919"/>
<path fill-rule="evenodd" clip-rule="evenodd" d="M76.1881 42.6456H78.8094V33.1611H76.1881V42.6456ZM76.4066 31.9537C76.1096 31.6541 75.9609 31.2868 75.9609 30.8518C75.9609 30.4172 76.1096 30.0499 76.4066 29.7503C76.7039 29.4504 77.0677 29.3008 77.499 29.3008C77.9298 29.3008 78.2942 29.4504 78.5912 29.7503C78.8882 30.0499 79.0368 30.4172 79.0368 30.8518C79.0368 31.2868 78.8882 31.6541 78.5912 31.9537C78.2942 32.2533 77.9298 32.4033 77.499 32.4033C77.0677 32.4033 76.7039 32.2533 76.4066 31.9537Z" fill="#1A1919"/>
</svg>
