<?xml version="1.0" encoding="windows-1252"?>
<!-- Generator: Adobe Illustrator 22.0.1, SVG Export Plug-In . SVG Version: 6.00 Build 0)  -->
<!DOCTYPE svg PUBLIC "-//W3C//DTD SVG 1.1//EN" "http://www.w3.org/Graphics/SVG/1.1/DTD/svg11.dtd">
<svg version="1.1" id="Artwork" xmlns="http://www.w3.org/2000/svg" xmlns:xlink="http://www.w3.org/1999/xlink" x="0px" y="0px" viewBox="0 0 515.906 198.497" style="enable-background:new 0 0 515.906 198.497;" xml:space="preserve">
<g style="display:none;">
	<path style="display:inline;fill:#E6007E;" d="M45.056,96.064c0-8.918-6.492-16.331-15.607-16.331   c-9.115,0-15.477,7.278-15.477,16.331c0,8.92,6.493,16.327,15.608,16.327C38.694,112.392,45.056,105.113,45.056,96.064    M5.514,96.064c0-12.923,9.966-23.74,24.066-23.74c14.098,0,23.937,10.688,23.937,23.74c0,12.918-9.969,23.737-24.068,23.737   C15.35,119.802,5.514,109.111,5.514,96.064"/>
	<path style="display:inline;fill:#E6007E;" d="M118.181,101.77c0-9.837,7.607-18.103,17.968-18.103   c6.557,0,10.625,2.432,13.838,5.969l-4.918,5.313c-2.427-2.556-4.984-4.326-8.984-4.326c-5.772,0-9.97,4.981-9.97,11.147   c0,6.165,4.262,11.146,10.361,11.146c3.739,0,6.493-1.768,8.986-4.328l4.786,4.723c-3.409,3.804-7.41,6.491-14.164,6.491   C125.789,119.802,118.181,111.736,118.181,101.77"/>
	<path style="display:inline;fill:#E6007E;" d="M180.771,99.275c-0.522-5.115-3.539-9.114-8.787-9.114   c-4.852,0-8.261,3.738-8.984,9.114H180.771z M155.13,101.701c0-9.9,7.019-18.034,16.919-18.034   c11.018,0,16.591,8.657,16.591,18.627c0,0.524-0.064,1.837-0.131,2.229h-25.443c0.852,5.64,4.852,8.787,9.967,8.787   c3.869,0,6.624-1.444,9.379-4.131l4.655,4.131c-3.277,3.934-7.804,6.492-14.167,6.492   C162.871,119.803,155.13,112.525,155.13,101.701"/>
	<path style="display:inline;fill:#E6007E;" d="M210.233,91.209h-4.394v-6.621h4.394v-2.493c0-3.868,0.984-6.757,2.821-8.59   c1.833-1.836,4.392-2.756,7.804-2.756c2.753,0,4.656,0.395,6.427,0.92v6.689c-1.574-0.524-2.951-0.853-4.656-0.853   c-3.018,0-4.593,1.638-4.593,5.247v1.899h9.183v6.557h-9.051v27.809h-7.934V91.209z"/>
	<path style="display:inline;fill:#E6007E;" d="M259.304,101.77c0-6.098-4.395-11.146-10.624-11.146   c-6.36,0-10.426,4.98-10.426,11.146c0,6.033,4.393,11.146,10.557,11.146C255.237,112.916,259.304,107.869,259.304,101.77    M230.317,101.77c0-9.902,7.871-18.103,18.494-18.103c10.626,0,18.43,8.067,18.43,18.103c0,9.837-7.869,18.033-18.561,18.033   C238.122,119.803,230.317,111.736,230.317,101.77"/>
	<path style="display:inline;fill:#E6007E;" d="M273.809,84.391h7.936v7.806c2.163-5.184,6.164-8.723,12.262-8.461v8.394h-0.461   c-6.95,0-11.801,4.523-11.801,13.706v13.183h-7.936V84.391z"/>
	<path style="display:inline;fill:#E6007E;" d="M10.248,191.021l4.85-5.771c4.394,3.807,8.788,5.967,14.494,5.967   c4.984,0,8.131-2.294,8.131-5.9c0-3.276-1.835-5.052-10.363-7.082c-9.769-2.296-15.278-5.18-15.278-13.773   c0-7.87,6.559-13.311,15.673-13.311c6.69,0,12.001,2.031,16.658,5.771l-4.329,6.097c-4.131-3.081-8.262-4.72-12.46-4.72   c-4.721,0-7.474,2.426-7.474,5.573c0,3.542,2.097,5.118,10.883,7.213c9.709,2.362,14.756,5.837,14.756,13.576   c0,8.591-6.754,13.706-16.393,13.706C22.378,198.367,15.755,195.938,10.248,191.021"/>
	<path style="display:inline;fill:#E6007E;" d="M56.02,188.141v-18.232h-4.394v-6.824l4.394,0.001v-9.509h7.934v9.509h9.315v6.823   h-9.315v16.981c0,3.083,1.576,4.327,4.264,4.327c1.769,0,3.345-0.392,4.918-1.177v6.489c-1.966,1.115-4.199,1.771-7.148,1.771   C60.152,198.301,56.02,195.741,56.02,188.141"/>
	<path style="display:inline;fill:#E6007E;" d="M80.387,185.12v-22.035h7.934v19.674c0,5.381,2.687,8.458,7.411,8.458   c4.591,0,7.804-3.208,7.804-8.588v-19.544h7.937v34.626h-7.937v-5.377c-2.23,3.278-5.442,6.098-10.822,6.098   C84.911,198.432,80.387,193.186,80.387,185.12"/>
	<path style="display:inline;fill:#E6007E;" d="M146.109,180.332c0-6.687-4.723-11.078-10.034-11.078   c-5.442,0-9.968,4.195-9.968,11.209c0,6.689,4.591,11.083,9.968,11.083C141.386,191.546,146.109,187.09,146.109,180.332    M118.105,180.332c0-11.472,7.805-17.967,16.066-17.967c5.705,0,9.312,2.884,11.804,6.099V149.84h7.935v47.873h-7.935v-5.773   c-2.556,3.607-6.166,6.491-11.804,6.491C126.04,198.432,118.105,191.94,118.105,180.332"/>
	<path style="display:inline;fill:#E6007E;" d="M186.204,177.972c-0.526-5.114-3.542-9.112-8.791-9.112   c-4.85,0-8.258,3.737-8.983,9.112H186.204z M160.562,180.398c0-9.901,7.016-18.034,16.92-18.034   c11.017,0,16.589,8.655,16.589,18.626c0,0.523-0.064,1.836-0.128,2.228h-25.447c0.854,5.643,4.854,8.789,9.969,8.789   c3.868,0,6.622-1.445,9.378-4.133l4.656,4.133c-3.281,3.931-7.805,6.49-14.166,6.49C168.3,198.497,160.562,191.217,160.562,180.398   "/>
	<path style="display:inline;fill:#E6007E;" d="M201.096,163.085h7.935v5.379c2.232-3.278,5.444-6.1,10.822-6.1   c7.804,0,12.33,5.248,12.33,13.313l-0.001,22.033h-7.936V178.04c0-5.382-2.688-8.46-7.41-8.46c-4.591,0-7.806,3.212-7.806,8.59   v19.541h-7.935V163.085z"/>
	<path style="display:inline;fill:#E6007E;" d="M243.396,188.141v-18.232H239v-6.823h4.395v-9.509h7.936v9.509h9.309v6.823h-9.309   v16.981c0,3.083,1.573,4.327,4.263,4.327c1.771,0,3.342-0.392,4.918-1.177v6.489c-1.969,1.115-4.198,1.771-7.15,1.771   C247.528,198.301,243.396,195.741,243.396,188.141"/>
	<path style="display:inline;fill:#E6007E;" d="M266.554,193.186l3.539-5.379c3.739,2.823,7.808,4.264,11.349,4.264   c3.408,0,5.377-1.44,5.377-3.871c0-2.554-3.346-3.474-7.149-4.588c-0.197-0.066-0.392-0.132-0.591-0.197   c-5.115-1.51-10.819-3.607-10.819-10.36c0-6.558,5.444-10.559,12.328-10.559c4.33,0,9.051,1.51,12.723,3.935l-3.146,5.64   c-3.346-2.03-6.888-3.279-9.77-3.279c-3.085,0-4.857,1.444-4.857,3.609c0,2.357,3.347,3.408,7.147,4.654   c0.198,0.066,0.461,0.132,0.657,0.197c5.052,1.573,10.754,3.869,10.754,10.232c0,7.276-5.636,10.883-12.852,10.883   C276.327,198.367,270.882,196.597,266.554,193.186"/>
	<path style="display:inline;fill:#E6007E;" d="M103.711,84.646v0.007H91.756v-1.9c0-3.61,1.574-5.247,4.591-5.247   c1.705,0,5.004,0.328,6.579,0.853v-6.689l-1.89-0.475c-1.767-0.377-3.641-0.563-6.389-0.377c-2.039,0.137-5.823,0.998-7.714,3.03   c-1.578,1.693-3.15,4.903-2.982,8.169l0.001,0.078l0.073,2.566h-2.901v-0.008h-9.178v-1.9c0-3.61,1.573-5.247,4.59-5.247   c1.703,0,3.081,0.328,4.655,0.853v-6.689c-1.771-0.525-3.672-0.92-6.428-0.92c-3.408,0-5.967,0.92-7.802,2.754   c-1.836,1.835-2.821,4.724-2.821,8.592v2.493h-4.394v6.621h4.394v27.809h7.936V91.209h7.482h1.565h2.829v27.809h7.934V91.209   h11.825v27.809h8.001V84.646H103.711z"/>
</g>
<g>
	<g>
		<polygon style="fill:#002554;" points="515.906,115.88 433.973,197.755 316.28,197.755 316.28,83.762 400.042,0 400.042,115.88       "/>
		<g>
			<rect x="400.037" style="fill:#F1B434;" width="115.869" height="115.875"/>
			<g>
				<path style="fill:#002554;" d="M473.256,73.666c-1.198-0.437-2.344-0.709-3.764-0.709c-1.906,0-2.997,0.98-2.997,3.162v1.144      h6.708v6.759h-6.593v22.126h-8.286V84.021h-3.437v-6.813h3.437v-1.855c0-3.214,0.816-5.558,2.343-7.082      c1.526-1.526,3.762-2.29,6.703-2.29c2.616,0,4.361,0.328,5.886,0.822V73.666z"/>
				<path style="fill:#002554;" d="M492.167,106.691c-5.779,0-11.609-2.021-16.186-6.106l4.956-5.94      c3.437,2.833,7.031,4.633,11.392,4.633c3.433,0,5.505-1.363,5.505-3.705c0-2.128-1.308-3.215-7.686-4.848      c-7.683-1.967-12.639-4.09-12.639-11.774c0-6.921,5.557-11.501,13.349-11.501c5.556,0,10.302,1.744,14.166,4.855l-4.354,6.319      c-3.385-2.339-6.707-3.759-9.923-3.759c-3.213,0-4.898,1.473-4.898,3.43c0,2.506,1.63,3.324,8.222,5.013      c7.741,2.019,12.104,4.801,12.104,11.554C506.174,102.439,500.393,106.691,492.167,106.691"/>
				<path style="fill:#002554;" d="M430.103,99.059c-6.761,0-11.558-5.45-11.558-11.989c0-6.65,4.688-11.988,11.446-11.988      c6.758,0,11.55,5.45,11.55,11.988C441.542,93.72,436.852,99.059,430.103,99.059 M430.103,67.345      c-11.771,0-20.337,8.881-20.337,19.725c0,10.953,8.447,19.732,20.225,19.732c11.769,0,20.327-8.888,20.327-19.732      C450.319,76.119,441.87,67.345,430.103,67.345"/>
			</g>
		</g>
	</g>
	<g>
		<path style="fill:#002554;" d="M40.278,98.045c0-9.082-6.614-16.636-15.898-16.636c-9.284,0-15.766,7.413-15.766,16.636    c0,9.085,6.614,16.631,15.899,16.631C33.798,114.676,40.278,107.262,40.278,98.045 M0,98.045C0,84.88,10.151,73.862,24.514,73.862    c14.361,0,24.383,10.889,24.383,24.183c0,13.158-10.154,24.178-24.517,24.178C10.019,122.223,0,111.335,0,98.045"/>
		<path style="fill:#002554;" d="M114.764,103.854c0-10.018,7.748-18.438,18.302-18.438c6.681,0,10.823,2.478,14.097,6.079    l-5.011,5.414c-2.472-2.604-5.077-4.408-9.151-4.408c-5.879,0-10.156,5.074-10.156,11.353s4.342,11.355,10.556,11.355    c3.809,0,6.614-1.802,9.152-4.41l4.876,4.813c-3.472,3.873-7.549,6.609-14.428,6.609    C122.513,122.223,114.764,114.009,114.764,103.854"/>
		<path style="fill:#002554;" d="M178.519,101.314c-0.532-5.209-3.605-9.284-8.95-9.284c-4.942,0-8.415,3.809-9.153,9.284H178.519z     M152.4,103.787c0-10.085,7.149-18.371,17.234-18.371c11.222,0,16.899,8.819,16.899,18.973c0,0.533-0.064,1.872-0.132,2.272    h-25.917c0.868,5.743,4.943,8.951,10.152,8.951c3.941,0,6.747-1.472,9.553-4.209l4.741,4.209    c-3.338,4.006-7.949,6.609-14.43,6.609C160.285,122.223,152.4,114.813,152.4,103.787"/>
		<path style="fill:#002554;" d="M208.528,93.099h-4.474v-6.745h4.474v-2.54c0-3.939,1.004-6.883,2.874-8.749    c1.868-1.869,4.475-2.807,7.949-2.807c2.805,0,4.744,0.403,6.547,0.938v6.813c-1.603-0.534-3.006-0.868-4.742-0.868    c-3.074,0-4.678,1.668-4.678,5.346v1.935h9.353v6.679h-9.221v28.326h-8.081V93.099z"/>
		<path style="fill:#002554;" d="M258.512,103.854c0-6.211-4.475-11.352-10.82-11.352c-6.479,0-10.622,5.073-10.622,11.352    c0,6.149,4.478,11.355,10.754,11.355C254.371,115.21,258.512,110.068,258.512,103.854 M228.987,103.854    c0-10.086,8.018-18.438,18.837-18.438c10.825,0,18.772,8.217,18.772,18.438c0,10.022-8.014,18.368-18.905,18.368    C236.937,122.223,228.987,114.009,228.987,103.854"/>
		<path style="fill:#002554;" d="M273.288,86.154h8.087v7.952c2.2-5.282,6.274-8.886,12.488-8.619v8.548h-0.472    c-7.077,0-12.017,4.609-12.017,13.962v13.428h-8.087V86.154z"/>
		<path style="fill:#002554;" d="M3.537,190.75l4.979-5.927c4.514,3.906,9.026,6.126,14.886,6.126c5.118,0,8.351-2.355,8.351-6.06    c0-3.364-1.884-5.185-10.643-7.273c-10.033-2.357-15.69-5.317-15.69-14.142c0-8.085,6.736-13.672,16.096-13.672    c6.871,0,12.325,2.084,17.108,5.924l-4.447,6.264c-4.243-3.164-8.485-4.847-12.795-4.847c-4.849,0-7.676,2.489-7.676,5.724    c0,3.638,2.153,5.256,11.177,7.408c9.972,2.425,15.155,5.993,15.155,13.942c0,8.822-6.936,14.076-16.836,14.076    C15.994,198.294,9.193,195.797,3.537,190.75"/>
		<path style="fill:#002554;" d="M50.545,187.792v-18.727h-4.513v-7.007h4.513v-9.766h8.149v9.766h9.565v7.007h-9.565v17.439    c0,3.167,1.617,4.444,4.377,4.444c1.817,0,3.436-0.401,5.052-1.208v6.666c-2.019,1.144-4.313,1.818-7.342,1.818    C54.788,198.226,50.545,195.598,50.545,187.792"/>
		<path style="fill:#002554;" d="M75.569,184.686v-22.628h8.148v20.204c0,5.527,2.76,8.687,7.612,8.687    c4.713,0,8.015-3.294,8.015-8.82v-20.07h8.15v35.56h-8.15v-5.522c-2.29,3.367-5.59,6.264-11.113,6.264    C80.216,198.359,75.569,192.972,75.569,184.686"/>
		<path style="fill:#002554;" d="M143.065,179.773c0-6.867-4.85-11.376-10.305-11.376c-5.588,0-10.236,4.306-10.236,11.507    c0,6.872,4.714,11.386,10.236,11.386C138.216,191.289,143.065,186.713,143.065,179.773 M114.306,179.773    c0-11.782,8.016-18.451,16.5-18.451c5.859,0,9.564,2.958,12.124,6.262v-19.127h8.148v49.164h-8.148v-5.925    c-2.626,3.702-6.334,6.664-12.124,6.664C122.456,198.359,114.306,191.695,114.306,179.773"/>
		<path style="fill:#002554;" d="M184.243,177.346c-0.54-5.249-3.637-9.357-9.027-9.357c-4.981,0-8.48,3.84-9.227,9.357H184.243z     M157.908,179.84c0-10.171,7.206-18.521,17.378-18.521c11.314,0,17.036,8.887,17.036,19.126c0,0.539-0.065,1.891-0.13,2.288    h-26.135c0.877,5.797,4.986,9.026,10.239,9.026c3.972,0,6.8-1.481,9.63-4.242l4.783,4.242c-3.37,4.037-8.017,6.665-14.548,6.665    C165.856,198.425,157.908,190.949,157.908,179.84"/>
		<path style="fill:#002554;" d="M199.537,162.059h8.148v5.524c2.294-3.367,5.592-6.264,11.116-6.264    c8.015,0,12.663,5.389,12.663,13.67l-0.001,22.629h-8.15v-20.199c0-5.528-2.76-8.689-7.61-8.689c-4.714,0-8.018,3.297-8.018,8.82    v20.068h-8.148V162.059z"/>
		<path style="fill:#002554;" d="M242.979,187.792v-18.727h-4.513v-7.007h4.513v-9.766h8.15v9.766h9.563v7.007h-9.563v17.439    c0,3.167,1.616,4.444,4.378,4.444c1.818,0,3.433-0.401,5.052-1.208v6.666c-2.024,1.144-4.313,1.818-7.344,1.818    C247.223,198.226,242.979,195.598,242.979,187.792"/>
		<path style="fill:#002554;" d="M266.762,192.972l3.637-5.522c3.839,2.898,8.018,4.38,11.656,4.38c3.499,0,5.52-1.481,5.52-3.977    c0-2.622-3.435-3.566-7.342-4.713c-0.204-0.069-0.404-0.134-0.608-0.201c-5.254-1.552-11.113-3.708-11.113-10.64    c0-6.735,5.595-10.845,12.665-10.845c4.444,0,9.295,1.55,13.067,4.041l-3.233,5.791c-3.436-2.086-7.073-3.369-10.032-3.369    c-3.168,0-4.99,1.486-4.99,3.707c0,2.424,3.439,3.502,7.34,4.781c0.203,0.068,0.475,0.135,0.678,0.202    c5.186,1.616,11.041,3.977,11.041,10.511c0,7.471-5.787,11.176-13.197,11.176C276.8,198.294,271.208,196.476,266.762,192.972"/>
		<path style="fill:#002554;" d="M100.024,86.414v0.007H87.848v-1.936c0-3.678,1.603-5.346,4.675-5.346    c1.736,0,5.098,0.334,6.702,0.868v-6.813l-1.925-0.484c-1.799-0.384-3.709-0.573-6.508-0.384    c-2.078,0.139-5.931,1.016-7.857,3.085c-1.607,1.726-3.209,4.996-3.037,8.322v0.079l0.075,2.616h-2.955v-0.009h-9.348v-1.936    c0-3.678,1.602-5.346,4.676-5.346c1.734,0,3.136,0.334,4.741,0.868v-6.813c-1.804-0.535-3.742-0.938-6.548-0.938    c-3.471,0-6.078,0.938-7.947,2.805c-1.871,1.869-2.873,4.813-2.873,8.751v2.54h-4.477v6.745h4.477v28.326H67.8V93.099h7.622h1.595    h2.881v28.326h8.082V93.099h12.045v28.326h8.15V86.414H100.024z"/>
	</g>
</g>
</svg>