<svg width="67" height="31" viewBox="0 0 67 31" fill="none" xmlns="http://www.w3.org/2000/svg">
<path fill-rule="evenodd" clip-rule="evenodd" d="M0 7.65625L4.54833 10.2822L0 14.5771V7.65625Z" fill="#FFFFFE"/>
<path fill-rule="evenodd" clip-rule="evenodd" d="M0.277344 14.8167L4.67061 10.668V14.8167H0.277344Z" fill="#FFFFFE"/>
<path fill-rule="evenodd" clip-rule="evenodd" d="M0.277344 15.1836H4.67061V19.332L0.277344 15.1836Z" fill="#FFFFFE"/>
<path fill-rule="evenodd" clip-rule="evenodd" d="M0 15.4219L4.54833 19.7168L0 22.3432V15.4219Z" fill="#FFFFFE"/>
<path fill-rule="evenodd" clip-rule="evenodd" d="M0.183594 7.34304L6.17738 3.88281L4.73193 9.96898L0.183594 7.34304Z" fill="#FFFFFE"/>
<path fill-rule="evenodd" clip-rule="evenodd" d="M6.90625 3.46037L12.9 0V5.25159L6.90625 3.46037Z" fill="#FFFFFE"/>
<path fill-rule="evenodd" clip-rule="evenodd" d="M13.2656 0L19.3955 3.53885L13.2656 5.25593V0Z" fill="#FFFFFE"/>
<path fill-rule="evenodd" clip-rule="evenodd" d="M20.125 3.96094L25.9827 7.3424L21.4383 9.96602L20.125 3.96094Z" fill="#FFFFFE"/>
<path fill-rule="evenodd" clip-rule="evenodd" d="M21.6133 10.2822L26.1616 7.65625V14.5771L21.6133 10.2822Z" fill="#FFFFFE"/>
<path fill-rule="evenodd" clip-rule="evenodd" d="M21.6133 19.7168L26.1616 15.4219V22.3432L21.6133 19.7168Z" fill="#FFFFFE"/>
<path fill-rule="evenodd" clip-rule="evenodd" d="M6.52093 4L8.71771 7.80454L5.125 9.87868L6.52093 4Z" fill="#FFFFFE"/>
<path fill-rule="evenodd" clip-rule="evenodd" d="M6.83594 3.82031L12.6254 5.55057L9.03257 7.62485L6.83594 3.82031Z" fill="#FFFFFE"/>
<path fill-rule="evenodd" clip-rule="evenodd" d="M13.2656 24.7422L19.3955 26.4591L13.2656 29.9981V24.7422Z" fill="#FFFFFE"/>
<path fill-rule="evenodd" clip-rule="evenodd" d="M21.4383 20.0312L25.9827 22.6552L20.125 26.0366L21.4383 20.0312Z" fill="#FFFFFE"/>
<path fill-rule="evenodd" clip-rule="evenodd" d="M17.4531 22.1934L21.0492 20.1172L19.7783 25.9284L17.4531 22.1934Z" fill="#FFFFFE"/>
<path fill-rule="evenodd" clip-rule="evenodd" d="M13.5508 24.4512L17.14 22.3789L19.4604 26.1066L13.5508 24.4512Z" fill="#FFFFFE"/>
<path fill-rule="evenodd" clip-rule="evenodd" d="M6.90625 26.5414L12.8999 24.75V30.0014L6.90625 26.5414Z" fill="#FFFFFE"/>
<path fill-rule="evenodd" clip-rule="evenodd" d="M0.183594 22.6575L4.73193 20.0312L6.17738 26.1177L0.183594 22.6575Z" fill="#FFFFFE"/>
<path fill-rule="evenodd" clip-rule="evenodd" d="M5.125 20.1211L8.71771 22.1954L6.52093 26.0001L5.125 20.1211Z" fill="#FFFFFE"/>
<path fill-rule="evenodd" clip-rule="evenodd" d="M9.03271 22.3828L12.6256 24.4574L6.83594 26.1876L9.03271 22.3828Z" fill="#FFFFFE"/>
<path fill-rule="evenodd" clip-rule="evenodd" d="M21.4922 14.8167V10.668L25.8853 14.8167H21.4922Z" fill="#FFFFFE"/>
<path fill-rule="evenodd" clip-rule="evenodd" d="M21.4922 15.1836H25.8853L21.4922 19.332V15.1836Z" fill="#FFFFFE"/>
<path fill-rule="evenodd" clip-rule="evenodd" d="M13.5508 5.5576L19.4604 3.90234L17.14 7.62985L13.5508 5.5576Z" fill="#FFFFFE"/>
<path fill-rule="evenodd" clip-rule="evenodd" d="M17.4531 7.80911L19.7783 4.07422L21.0492 9.88528L17.4531 7.80911Z" fill="#FFFFFE"/>
<path fill-rule="evenodd" clip-rule="evenodd" d="M32.6305 12.6751C33.0008 12.3273 33.186 11.8218 33.186 11.1584C33.186 10.4952 33.0008 9.98469 32.6305 9.62734C32.2602 9.26985 31.6919 9.09104 30.9256 9.09104H30.0851V13.1966H31.0415C31.7305 13.1966 32.2602 13.0228 32.6305 12.6751ZM33.7366 8.6613C34.3805 9.2506 34.7027 10.0701 34.7027 11.1197C34.7027 12.1696 34.3888 13.0003 33.7608 13.612C33.1328 14.224 32.1749 14.5297 30.8868 14.5297H28.5781V7.77734H30.9643C32.1684 7.77734 33.0926 8.07199 33.7366 8.6613Z" fill="#FFFFFE"/>
<path fill-rule="evenodd" clip-rule="evenodd" d="M35.3248 14.5314H36.7738V9.3343H35.3248V14.5314ZM35.4455 8.6726C35.2813 8.50841 35.1992 8.30729 35.1992 8.06897C35.1992 7.83078 35.2813 7.62938 35.4455 7.46518C35.6097 7.30085 35.811 7.21875 36.0493 7.21875C36.2875 7.21875 36.4887 7.30085 36.6531 7.46518C36.8173 7.62938 36.8994 7.83078 36.8994 8.06897C36.8994 8.30729 36.8173 8.50841 36.6531 8.6726C36.4887 8.83679 36.2875 8.91904 36.0493 8.91904C35.811 8.91904 35.6097 8.83679 35.4455 8.6726Z" fill="#FFFFFE"/>
<path fill-rule="evenodd" clip-rule="evenodd" d="M41.5718 12.9121C41.5718 13.424 41.3835 13.8347 41.0068 14.1438C40.63 14.4529 40.1519 14.6074 39.5722 14.6074C39.1859 14.6074 38.7834 14.5382 38.3648 14.3998C37.9459 14.2614 37.5693 14.0568 37.2344 13.7863L37.872 12.8783C38.413 13.2969 38.9894 13.5061 39.6011 13.5061C39.7879 13.5061 39.936 13.4692 40.0455 13.3951C40.155 13.3211 40.2098 13.2229 40.2098 13.1004C40.2098 12.9782 40.1341 12.8654 39.9828 12.7624C39.8314 12.6594 39.6123 12.5628 39.3259 12.4726C39.0392 12.3824 38.8203 12.3052 38.6691 12.2407C38.5177 12.1764 38.3454 12.083 38.1522 11.9605C37.7592 11.7159 37.5629 11.3537 37.5629 10.8738C37.5629 10.3941 37.7562 10.0029 38.1425 9.70016C38.529 9.39755 39.0279 9.24609 39.6399 9.24609C40.2515 9.24609 40.8634 9.45228 41.4752 9.86435L40.9342 10.8304C40.4835 10.5211 40.0342 10.3666 39.5868 10.3666C39.1391 10.3666 38.9154 10.4891 38.9154 10.7337C38.9154 10.8689 38.9861 10.9752 39.128 11.0525C39.2694 11.1298 39.5046 11.22 39.8331 11.323C40.1615 11.4261 40.3949 11.505 40.5334 11.5597C40.6719 11.6144 40.8377 11.6997 41.031 11.8157C41.3915 12.0348 41.5718 12.4001 41.5718 12.9121Z" fill="#FFFFFE"/>
<path fill-rule="evenodd" clip-rule="evenodd" d="M44.6942 13.3227C45.1772 13.3227 45.6119 13.0812 45.9983 12.5982L46.8581 13.5642C46.1883 14.2596 45.4638 14.6074 44.6845 14.6074C43.9052 14.6074 43.2466 14.3611 42.709 13.8684C42.1712 13.3758 41.9023 12.7319 41.9023 11.9365C41.9023 11.1411 42.1744 10.4939 42.7187 9.99481C43.2629 9.49571 43.9084 9.24609 44.6556 9.24609C45.029 9.24609 45.4073 9.32341 45.7907 9.47791C46.1737 9.63254 46.5103 9.86117 46.8001 10.1638L46.0466 11.1491C45.879 10.9496 45.6747 10.7951 45.4332 10.6855C45.1917 10.576 44.9518 10.5211 44.7135 10.5211C44.3334 10.5211 44.0066 10.6452 43.7331 10.8931C43.4591 11.1411 43.3225 11.4857 43.3225 11.9268C43.3225 12.3679 43.4591 12.7108 43.7331 12.9555C44.0066 13.2003 44.327 13.3227 44.6942 13.3227Z" fill="#FFFFFE"/>
<path fill-rule="evenodd" clip-rule="evenodd" d="M48.4118 11.9317C48.4118 12.3566 48.5325 12.7028 48.774 12.9701C49.0155 13.2374 49.3247 13.3711 49.7014 13.3711C50.0782 13.3711 50.3871 13.2374 50.6287 12.9701C50.8702 12.7028 50.9909 12.3566 50.9909 11.9317C50.9909 11.5066 50.8702 11.1588 50.6287 10.8883C50.3871 10.6178 50.0782 10.4826 49.7014 10.4826C49.3247 10.4826 49.0155 10.6178 48.774 10.8883C48.5325 11.1588 48.4118 11.5066 48.4118 11.9317ZM52.4497 11.9317C52.4497 12.685 52.1889 13.3195 51.6672 13.8347C51.1456 14.35 50.4901 14.6074 49.7014 14.6074C48.9124 14.6074 48.2571 14.35 47.7356 13.8347C47.2139 13.3195 46.9531 12.685 46.9531 11.9317C46.9531 11.1782 47.2139 10.5421 47.7356 10.0238C48.2571 9.50541 48.9124 9.24609 49.7014 9.24609C50.4901 9.24609 51.1456 9.50541 51.6672 10.0238C52.1889 10.5421 52.4497 11.1782 52.4497 11.9317Z" fill="#FFFFFE"/>
<path fill-rule="evenodd" clip-rule="evenodd" d="M54.3272 14.5309L52.2695 9.32422H53.7764L55.071 12.599L56.3654 9.32422H57.8724L55.8148 14.5309H54.3272Z" fill="#FFFFFE"/>
<path fill-rule="evenodd" clip-rule="evenodd" d="M61.2128 10.6952C61.0131 10.5276 60.77 10.444 60.4835 10.444C60.1969 10.444 59.9343 10.5308 59.6962 10.7049C59.4578 10.8786 59.3195 11.1138 59.2807 11.41H61.5606C61.5283 11.1009 61.4123 10.8627 61.2128 10.6952ZM62.6039 13.7766C62.0178 14.3307 61.3304 14.6074 60.5414 14.6074C59.7524 14.6074 59.1004 14.3645 58.5853 13.8781C58.0699 13.3919 57.8125 12.7399 57.8125 11.922C57.8125 11.1042 58.0747 10.4537 58.5997 9.97063C59.1245 9.48761 59.7446 9.24609 60.4593 9.24609C61.1743 9.24609 61.7811 9.46198 62.2802 9.89331C62.7793 10.3248 63.0289 10.9173 63.0289 11.6708V12.4435H59.2422C59.2871 12.727 59.4353 12.9588 59.6865 13.1391C59.9378 13.3195 60.2211 13.4096 60.5366 13.4096C61.0453 13.4096 61.464 13.239 61.7924 12.8976L62.6039 13.7766Z" fill="#FFFFFE"/>
<path fill-rule="evenodd" clip-rule="evenodd" d="M66.3236 10.6081C65.8922 10.6081 65.5702 10.7612 65.3576 11.067C65.1452 11.3729 65.0389 11.777 65.0389 12.2793V14.5301H63.5898V9.33297H65.0389V10.0188C65.2256 9.80629 65.4591 9.62617 65.7393 9.47791C66.0194 9.32978 66.3042 9.25261 66.5941 9.24609L66.6038 10.6081H66.3236Z" fill="#FFFFFE"/>
<path fill-rule="evenodd" clip-rule="evenodd" d="M30.3347 20.8551C30.5826 21.1632 30.9159 21.3172 31.3353 21.3172C31.7545 21.3172 32.0864 21.1632 32.3311 20.8551C32.5756 20.547 32.698 20.126 32.698 19.5925V15.9141H34.1847V19.64C34.1847 20.6057 33.9178 21.3475 33.384 21.8651C32.8504 22.3831 32.1674 22.6418 31.3353 22.6418C30.5029 22.6418 29.8185 22.3813 29.2816 21.8604C28.7447 21.3395 28.4766 20.5994 28.4766 19.64V15.9141H29.963V19.5925C29.963 20.126 30.0869 20.547 30.3347 20.8551Z" fill="#FFFFFE"/>
<path fill-rule="evenodd" clip-rule="evenodd" d="M36.4606 19.717V22.5758H35.0312V17.449H36.4606V18.0208C36.8927 17.5825 37.3786 17.3633 37.9187 17.3633C38.4586 17.3633 38.9112 17.5538 39.2765 17.9351C39.6418 18.3162 39.8246 18.8245 39.8246 19.4597V22.5758H38.395V19.6789C38.395 18.8913 38.1059 18.4973 37.5279 18.4973C37.2422 18.4973 36.9927 18.6007 36.7799 18.807C36.5669 19.0135 36.4606 19.3168 36.4606 19.717Z" fill="#FFFFFE"/>
<path fill-rule="evenodd" clip-rule="evenodd" d="M40.6396 22.573H42.0689V17.4463H40.6396V22.573ZM40.7586 16.7935C40.5966 16.6315 40.5156 16.4331 40.5156 16.198C40.5156 15.963 40.5966 15.7644 40.7586 15.6023C40.9206 15.4405 41.1191 15.3594 41.3541 15.3594C41.5891 15.3594 41.7878 15.4405 41.9498 15.6023C42.1118 15.7644 42.1927 15.963 42.1927 16.198C42.1927 16.4331 42.1118 16.6315 41.9498 16.7935C41.7878 16.9556 41.5891 17.0365 41.3541 17.0365C41.1191 17.0365 40.9206 16.9556 40.7586 16.7935Z" fill="#FFFFFE"/>
</svg>
