<svg width="120" height="31" viewBox="0 0 120 31" fill="none" xmlns="http://www.w3.org/2000/svg">
<path fill-rule="evenodd" clip-rule="evenodd" d="M33.1325 12.4015C33.495 12.0611 33.6763 11.5661 33.6763 10.9163C33.6763 10.2669 33.495 9.76708 33.1325 9.41708C32.7697 9.06707 32.2131 8.89217 31.4629 8.89217H30.6398V12.9123H31.5764C32.2512 12.9123 32.7697 12.742 33.1325 12.4015ZM34.2155 8.47112C34.846 9.04815 35.1614 9.85067 35.1614 10.8787C35.1614 11.9065 34.8541 12.72 34.239 13.3192C33.6244 13.9183 32.6863 14.2177 31.4249 14.2177H29.1641V7.60547H31.5006C32.6797 7.60547 33.585 7.89408 34.2155 8.47112Z" fill="#FFFFFE"/>
<path fill-rule="evenodd" clip-rule="evenodd" d="M38.6494 12.2781V12.0324H37.76C37.1925 12.0324 36.9087 12.2088 36.9087 12.5619C36.9087 12.7449 36.9764 12.8853 37.1122 12.983C37.2477 13.0809 37.4417 13.1297 37.694 13.1297C37.9459 13.1297 38.1683 13.0525 38.3608 12.8978C38.5531 12.7434 38.6494 12.5368 38.6494 12.2781ZM40.0776 14.2174H38.7438V13.6025C38.3782 14.0629 37.9257 14.2932 37.3865 14.2932C36.8473 14.2932 36.3946 14.137 36.0291 13.8249C35.6631 13.5127 35.4805 13.0965 35.4805 12.5762C35.4805 12.0559 35.6695 11.6666 36.0479 11.4079C36.4262 11.1494 36.9434 11.02 37.5992 11.02H38.6589V10.9916C38.6589 10.4494 38.3716 10.1783 37.7981 10.1783C37.5519 10.1783 37.2919 10.2272 37.0176 10.3248C36.7432 10.4227 36.5116 10.544 36.3222 10.6891L35.6886 9.77155C36.3569 9.28583 37.1201 9.04297 37.9776 9.04297C38.5958 9.04297 39.1002 9.1976 39.4911 9.50668C39.8823 9.81557 40.0776 10.3044 40.0776 10.9727V14.2174Z" fill="#FFFFFE"/>
<path fill-rule="evenodd" clip-rule="evenodd" d="M43.5794 10.3768C43.157 10.3768 42.8416 10.5268 42.6334 10.8262C42.4255 11.1258 42.3215 11.5216 42.3215 12.0133V14.2174H40.9023V9.1283H42.3215V9.79993C42.5041 9.59162 42.7327 9.41517 43.007 9.27C43.2815 9.12502 43.5607 9.04934 43.8443 9.04297L43.8537 10.3768H43.5794Z" fill="#FFFFFE"/>
<path fill-rule="evenodd" clip-rule="evenodd" d="M47.8834 11.564C47.8834 11.1573 47.7699 10.8372 47.5428 10.604C47.316 10.3706 47.0353 10.254 46.7009 10.254C46.3667 10.254 46.0781 10.3706 45.8355 10.604C45.5926 10.8372 45.4712 11.1557 45.4712 11.5592C45.4712 11.9629 45.5893 12.2893 45.826 12.5384C46.0623 12.7876 46.3511 12.9119 46.6915 12.9119C47.032 12.9119 47.316 12.789 47.5428 12.5432C47.7699 12.2973 47.8834 11.9708 47.8834 11.564ZM48.082 13.3565C47.6341 13.8548 47.0778 14.104 46.4125 14.104C45.747 14.104 45.1856 13.8786 44.7285 13.4276C44.2714 12.9768 44.043 12.3745 44.043 11.6208C44.043 10.8673 44.2775 10.2492 44.7476 9.76672C45.2173 9.28428 45.755 9.04297 46.3604 9.04297C46.9658 9.04297 47.4671 9.2922 47.8644 9.79028V9.11865H49.2834V13.5552C49.2834 14.0092 49.2044 14.4129 49.0469 14.766C48.8892 15.1191 48.678 15.3967 48.4131 15.5987C47.8895 16.0147 47.2716 16.2228 46.559 16.2228C46.1806 16.2228 45.7943 16.1614 45.4003 16.0384C45.0061 15.9155 44.6609 15.7404 44.3646 15.5133L44.9131 14.4444C45.3797 14.7975 45.8733 14.9741 46.3934 14.9741C46.9139 14.9741 47.3253 14.8448 47.628 14.5865C47.9307 14.3278 48.082 13.9179 48.082 13.3565Z" fill="#FFFFFE"/>
<path fill-rule="evenodd" clip-rule="evenodd" d="M53.0479 12.2781V12.0324H52.1587C51.5909 12.0324 51.3071 12.2088 51.3071 12.5619C51.3071 12.7449 51.3749 12.8853 51.5106 12.983C51.6461 13.0809 51.8401 13.1297 52.0924 13.1297C52.3444 13.1297 52.5668 13.0525 52.7592 12.8978C52.9515 12.7434 53.0479 12.5368 53.0479 12.2781ZM54.4761 14.2174H53.1423V13.6025C52.7766 14.0629 52.3241 14.2932 51.7849 14.2932C51.2457 14.2932 50.793 14.137 50.4276 13.8249C50.0615 13.5127 49.8789 13.0965 49.8789 12.5762C49.8789 12.0559 50.0679 11.6666 50.4463 11.4079C50.8247 11.1494 51.3419 11.02 51.9978 11.02H53.0573V10.9916C53.0573 10.4494 52.7703 10.1783 52.1965 10.1783C51.9504 10.1783 51.6903 10.2272 51.416 10.3248C51.1417 10.4227 50.91 10.544 50.7206 10.6891L50.087 9.77155C50.7554 9.28583 51.5185 9.04297 52.3762 9.04297C52.9942 9.04297 53.4986 9.1976 53.8896 9.50668C54.2807 9.81557 54.4761 10.3044 54.4761 10.9727V14.2174Z" fill="#FFFFFE"/>
<path fill-rule="evenodd" clip-rule="evenodd" d="M56.716 11.3795V14.2174H55.2969V9.1283H56.716V9.69587C57.1446 9.26073 57.627 9.04297 58.1633 9.04297C58.699 9.04297 59.1485 9.23216 59.5112 9.61074C59.8738 9.98912 60.0552 10.4936 60.0552 11.1241V14.2174H58.6361V11.3416C58.6361 10.5598 58.3492 10.1687 57.7753 10.1687C57.4915 10.1687 57.244 10.2714 57.0328 10.4762C56.8214 10.6812 56.716 10.9824 56.716 11.3795Z" fill="#FFFFFE"/>
<path fill-rule="evenodd" clip-rule="evenodd" d="M62.5165 8.83309V9.17344H63.7463V10.1951H62.5165V14.2154H61.0879V10.1951H60.4922V9.17344H61.0879V8.86147C61.0879 8.30644 61.2567 7.86667 61.5941 7.54176C61.9316 7.21705 62.3509 7.05469 62.8523 7.05469C63.3536 7.05469 63.8092 7.24388 64.2191 7.62226L63.7084 8.57749C63.5003 8.33791 63.27 8.21822 63.0179 8.21822C62.8727 8.21822 62.7528 8.27015 62.6582 8.3742C62.5638 8.47826 62.5165 8.63116 62.5165 8.83309Z" fill="#FFFFFE"/>
<path fill-rule="evenodd" clip-rule="evenodd" d="M65.1667 11.6727C65.1667 12.0891 65.285 12.4281 65.5213 12.6897C65.7578 12.9515 66.0605 13.0824 66.4296 13.0824C66.7985 13.0824 67.1011 12.9515 67.3377 12.6897C67.574 12.4281 67.6924 12.0891 67.6924 11.6727C67.6924 11.2567 67.574 10.916 67.3377 10.6511C67.1011 10.3862 66.7985 10.254 66.4296 10.254C66.0605 10.254 65.7578 10.3862 65.5213 10.6511C65.285 10.916 65.1667 11.2567 65.1667 11.6727ZM69.1208 11.6727C69.1208 12.4108 68.8654 13.0318 68.3546 13.5365C67.8437 14.0409 67.202 14.2932 66.4296 14.2932C65.657 14.2932 65.0153 14.0409 64.5045 13.5365C63.9937 13.0318 63.7383 12.4108 63.7383 11.6727C63.7383 10.9349 63.9937 10.3123 64.5045 9.80456C65.0153 9.29703 65.657 9.04297 66.4296 9.04297C67.202 9.04297 67.8437 9.29703 68.3546 9.80456C68.8654 10.3123 69.1208 10.9349 69.1208 11.6727Z" fill="#FFFFFE"/>
<path fill-rule="evenodd" clip-rule="evenodd" d="M70.8425 11.6831C70.8425 12.0929 70.9654 12.4288 71.2112 12.6904C71.4573 12.9522 71.7442 13.0831 72.072 13.0831C72.3998 13.0831 72.6792 12.9522 72.9093 12.6904C73.1394 12.4288 73.2545 12.0914 73.2545 11.6782C73.2545 11.2653 73.1394 10.9215 72.9093 10.6471C72.6792 10.3728 72.3969 10.2357 72.0626 10.2357C71.7284 10.2357 71.4413 10.3744 71.2017 10.6518C70.9622 10.9294 70.8425 11.2732 70.8425 11.6831ZM71.7363 14.2939C71.134 14.2939 70.5965 14.0383 70.1233 13.5275C69.6504 13.0167 69.4141 12.3831 69.4141 11.6263C69.4141 10.8693 69.6442 10.2498 70.1046 9.7674C70.5647 9.28496 71.1039 9.04364 71.7222 9.04364C72.3402 9.04364 72.8446 9.26141 73.2355 9.69655V7.19922H74.6545V14.218H73.2355V13.5464C72.8384 14.0447 72.3384 14.2939 71.7363 14.2939Z" fill="#FFFFFE"/>
<path fill-rule="evenodd" clip-rule="evenodd" d="M32.6357 18.8409C32.8124 18.6423 32.9006 18.3523 32.9006 17.9707C32.9006 17.5892 32.7855 17.318 32.5554 17.1571C32.3251 16.9963 31.9672 16.916 31.4817 16.916H30.6398V19.139H31.633C32.1249 19.139 32.4593 19.0396 32.6357 18.8409ZM33.7189 16.2396C34.1825 16.6338 34.4143 17.2392 34.4143 18.0558C34.4143 18.8726 34.1761 19.4701 33.7 19.8485C33.2238 20.2267 32.4969 20.4161 31.5197 20.4161H30.6398V22.2607H29.1641V15.6484H31.5006C32.516 15.6484 33.2554 15.8455 33.7189 16.2396Z" fill="#FFFFFE"/>
<path fill-rule="evenodd" clip-rule="evenodd" d="M37.6302 18.4197C37.2074 18.4197 36.8923 18.5695 36.684 18.869C36.4759 19.1686 36.3719 19.5643 36.3719 20.0562V22.2603H34.9531V17.1709H36.3719V17.8427C36.5549 17.6346 36.7835 17.4581 37.0578 17.313C37.3321 17.168 37.6111 17.0921 37.8949 17.0859L37.9045 18.4197H37.6302Z" fill="#FFFFFE"/>
<path fill-rule="evenodd" clip-rule="evenodd" d="M38.3652 22.2586H39.7843V17.1691H38.3652V22.2586ZM38.4833 16.5212C38.3225 16.3604 38.2422 16.1633 38.2422 15.9299C38.2422 15.6967 38.3225 15.4996 38.4833 15.339C38.6441 15.178 38.8414 15.0977 39.0746 15.0977C39.308 15.0977 39.5049 15.178 39.6658 15.339C39.8266 15.4996 39.9071 15.6967 39.9071 15.9299C39.9071 16.1633 39.8266 16.3604 39.6658 16.5212C39.5049 16.682 39.308 16.7625 39.0746 16.7625C38.8414 16.7625 38.6441 16.682 38.4833 16.5212Z" fill="#FFFFFE"/>
<path fill-rule="evenodd" clip-rule="evenodd" d="M42.3486 16.8761V17.2164H43.5783V18.238H42.3486V22.2586H40.9202V18.238H40.3242V17.2164H40.9202V16.9042C40.9202 16.3494 41.0889 15.9096 41.4264 15.5847C41.7636 15.2602 42.1831 15.0977 42.6843 15.0977C43.1856 15.0977 43.6412 15.2868 44.0511 15.6652L43.5405 16.6206C43.3324 16.3809 43.1021 16.261 42.8499 16.261C42.7047 16.261 42.5851 16.3131 42.4903 16.4172C42.3959 16.5212 42.3486 16.6743 42.3486 16.8761Z" fill="#FFFFFE"/>
<path fill-rule="evenodd" clip-rule="evenodd" d="M44.8653 24.2627C44.367 24.2627 43.8971 24.0607 43.4558 23.6574L44.0991 22.6074C44.3386 22.8406 44.5846 22.9574 44.8369 22.9574C44.9693 22.9574 45.0829 22.8928 45.1773 22.7634C45.2721 22.6341 45.3194 22.497 45.3194 22.352C45.3194 22.207 44.6634 20.479 43.3516 17.168H44.8653L46.1045 20.3369L47.3437 17.168H48.8572L46.4923 23.1655C46.3535 23.5123 46.1375 23.7818 45.8445 23.9742C45.551 24.1665 45.2248 24.2627 44.8653 24.2627Z" fill="#FFFFFE"/>
<path fill-rule="evenodd" clip-rule="evenodd" d="M52.8294 20.6759C52.8294 21.1771 52.6448 21.579 52.2759 21.8819C51.907 22.1847 51.4388 22.3358 50.8712 22.3358C50.4929 22.3358 50.0987 22.2682 49.6888 22.1325C49.2786 21.997 48.9096 21.7966 48.582 21.5317L49.2062 20.6427C49.7361 21.0528 50.3002 21.2574 50.8996 21.2574C51.0823 21.2574 51.2274 21.2213 51.3348 21.1487C51.4419 21.0763 51.4956 20.9802 51.4956 20.8603C51.4956 20.7406 51.4213 20.63 51.2734 20.5292C51.1249 20.4283 50.9106 20.3337 50.6299 20.2454C50.3492 20.157 50.1348 20.0813 49.9867 20.0182C49.8384 19.9553 49.6699 19.864 49.4805 19.7439C49.0957 19.5043 48.9035 19.1497 48.9035 18.6798C48.9035 18.2101 49.0928 17.8271 49.4712 17.5305C49.8496 17.234 50.3382 17.0859 50.9373 17.0859C51.5365 17.0859 52.1354 17.2879 52.7348 17.6914L52.2051 18.6373C51.7635 18.3346 51.3236 18.1831 50.8853 18.1831C50.4469 18.1831 50.2278 18.3031 50.2278 18.5427C50.2278 18.675 50.2973 18.779 50.4361 18.8549C50.5745 18.9306 50.805 19.019 51.1267 19.1197C51.4483 19.2207 51.6767 19.2979 51.8124 19.3514C51.9481 19.4051 52.1103 19.4885 52.2996 19.6022C52.6527 19.8165 52.8294 20.1744 52.8294 20.6759Z" fill="#FFFFFE"/>
<path fill-rule="evenodd" clip-rule="evenodd" d="M57.0123 19.6068C57.0123 19.2001 56.8988 18.8802 56.6719 18.6468C56.4449 18.4136 56.1642 18.2966 55.8298 18.2966C55.4957 18.2966 55.207 18.4136 54.9644 18.6468C54.7215 18.8802 54.6001 19.1985 54.6001 19.6022C54.6001 20.0059 54.7182 20.3321 54.9549 20.5812C55.1914 20.8304 55.48 20.9549 55.8204 20.9549C56.1609 20.9549 56.4449 20.8317 56.6719 20.586C56.8988 20.3398 57.0123 20.0136 57.0123 19.6068ZM57.2111 21.3995C56.763 21.8978 56.2067 22.1468 55.5414 22.1468C54.8759 22.1468 54.3147 21.9213 53.8576 21.4704C53.4003 21.0196 53.1719 20.4173 53.1719 19.6636C53.1719 18.9101 53.4066 18.2919 53.8765 17.8095C54.3462 17.3271 54.8839 17.0859 55.4895 17.0859C56.0947 17.0859 56.596 17.3352 56.9935 17.8332V17.1614H58.4123V21.5982C58.4123 22.052 58.3333 22.4555 58.176 22.8088C58.0181 23.1621 57.8071 23.4395 57.542 23.6414C57.0186 24.0575 56.4005 24.2656 55.6879 24.2656C55.3095 24.2656 54.9233 24.2042 54.5292 24.0812C54.135 23.9584 53.7898 23.7831 53.4935 23.5563L54.0422 22.4872C54.5088 22.8405 55.0022 23.0171 55.5225 23.0171C56.0428 23.0171 56.4544 22.8877 56.7569 22.6293C57.0596 22.3706 57.2111 21.9609 57.2111 21.3995Z" fill="#FFFFFE"/>
<path fill-rule="evenodd" clip-rule="evenodd" d="M60.4167 19.7157C60.4167 20.1317 60.5348 20.4709 60.7713 20.7327C61.0078 20.9943 61.3105 21.1252 61.6794 21.1252C62.0484 21.1252 62.3511 20.9943 62.5876 20.7327C62.8242 20.4709 62.9424 20.1317 62.9424 19.7157C62.9424 19.2995 62.8242 18.9589 62.5876 18.6941C62.3511 18.4292 62.0484 18.2966 61.6794 18.2966C61.3105 18.2966 61.0078 18.4292 60.7713 18.6941C60.5348 18.9589 60.4167 19.2995 60.4167 19.7157ZM64.3706 19.7157C64.3706 20.4534 64.1154 21.0748 63.6046 21.579C63.0937 22.0839 62.452 22.3358 61.6794 22.3358C60.9068 22.3358 60.2653 22.0839 59.7545 21.579C59.2437 21.0748 58.9883 20.4534 58.9883 19.7157C58.9883 18.9779 59.2437 18.3551 59.7545 17.8473C60.2653 17.3398 60.9068 17.0859 61.6794 17.0859C62.452 17.0859 63.0937 17.3398 63.6046 17.8473C64.1154 18.3551 64.3706 18.9779 64.3706 19.7157Z" fill="#FFFFFE"/>
<path fill-rule="evenodd" clip-rule="evenodd" d="M64.9453 22.2573H66.3641V15.2383H64.9453V22.2573Z" fill="#FFFFFE"/>
<path fill-rule="evenodd" clip-rule="evenodd" d="M86.4879 12.4874C86.8505 12.1469 87.0318 11.6521 87.0318 11.0023C87.0318 10.3528 86.8505 9.85302 86.4879 9.50301C86.1252 9.15301 85.5688 8.97791 84.8182 8.97791H83.9952V12.9982H84.9317C85.6064 12.9982 86.1252 12.828 86.4879 12.4874ZM87.571 8.55705C88.2017 9.13409 88.5169 9.93661 88.5169 10.9644C88.5169 11.9924 88.2096 12.806 87.5947 13.4052C86.9796 14.0042 86.0416 14.3037 84.7804 14.3037H82.5195V7.69141H84.856C86.0354 7.69141 86.9402 7.98002 87.571 8.55705Z" fill="#FFFFFE"/>
<path fill-rule="evenodd" clip-rule="evenodd" d="M89.123 14.3013H90.5421V9.21227H89.123V14.3013ZM89.2411 8.56419C89.0803 8.40338 89 8.20628 89 7.97307C89 7.73967 89.0803 7.54256 89.2411 7.38175C89.4019 7.22093 89.5992 7.14062 89.8324 7.14062C90.0658 7.14062 90.2628 7.22093 90.4236 7.38175C90.5844 7.54256 90.6649 7.73967 90.6649 7.97307C90.6649 8.20628 90.5844 8.40338 90.4236 8.56419C90.2628 8.72501 90.0658 8.80532 89.8324 8.80532C89.5992 8.80532 89.4019 8.72501 89.2411 8.56419Z" fill="#FFFFFE"/>
<path fill-rule="evenodd" clip-rule="evenodd" d="M95.2434 12.7189C95.2434 13.2203 95.0589 13.6224 94.69 13.9249C94.321 14.2276 93.8529 14.379 93.2853 14.379C92.9069 14.379 92.5127 14.3112 92.1029 14.1757C91.6928 14.0402 91.3239 13.8398 90.9961 13.5749L91.6204 12.6857C92.1502 13.0958 92.7145 13.3008 93.3137 13.3008C93.4963 13.3008 93.6415 13.2645 93.7488 13.1919C93.856 13.1195 93.9096 13.0234 93.9096 12.9033C93.9096 12.7836 93.8353 12.6734 93.6874 12.5724C93.539 12.4714 93.3247 12.3768 93.0442 12.2884C92.7635 12.2002 92.5488 12.1245 92.4009 12.0616C92.2525 11.9984 92.0839 11.9069 91.8948 11.787C91.5098 11.5475 91.3175 11.1928 91.3175 10.7229C91.3175 10.2532 91.5069 9.87004 91.8853 9.57351C92.2637 9.27717 92.7523 9.12891 93.3513 9.12891C93.9506 9.12891 94.5494 9.33084 95.1488 9.73432L94.6191 10.6803C94.1776 10.3776 93.7376 10.2262 93.2994 10.2262C92.861 10.2262 92.6421 10.3461 92.6421 10.5859C92.6421 10.7183 92.7114 10.8222 92.8502 10.8978C92.9888 10.9735 93.2191 11.0619 93.5407 11.1627C93.8623 11.2637 94.0909 11.3411 94.2266 11.3946C94.3622 11.4482 94.5245 11.5316 94.7137 11.6452C95.0668 11.8596 95.2434 12.2176 95.2434 12.7189Z" fill="#FFFFFE"/>
<path fill-rule="evenodd" clip-rule="evenodd" d="M98.3002 13.1208C98.7734 13.1208 99.1991 12.8844 99.5775 12.4116L100.419 13.3573C99.7634 14.0384 99.0539 14.379 98.291 14.379C97.5276 14.379 96.883 14.1379 96.3564 13.6554C95.8299 13.173 95.5664 12.5425 95.5664 11.7635C95.5664 10.9847 95.8328 10.3509 96.3658 9.86212C96.8987 9.3735 97.5309 9.12891 98.2624 9.12891C98.6282 9.12891 98.9989 9.20458 99.374 9.35594C99.7491 9.50748 100.079 9.73123 100.363 10.0276L99.6248 10.9924C99.4607 10.7971 99.2605 10.6457 99.024 10.5384C98.7875 10.4312 98.5525 10.3776 98.3193 10.3776C97.9469 10.3776 97.6271 10.4992 97.3591 10.7419C97.0909 10.9847 96.957 11.322 96.957 11.754C96.957 12.1861 97.0909 12.5218 97.3591 12.7616C97.6271 13.0012 97.9408 13.1208 98.3002 13.1208Z" fill="#FFFFFE"/>
<path fill-rule="evenodd" clip-rule="evenodd" d="M101.94 11.7587C101.94 12.1749 102.058 12.5141 102.295 12.7757C102.531 13.0375 102.834 13.1681 103.203 13.1681C103.572 13.1681 103.875 13.0375 104.111 12.7757C104.348 12.5141 104.466 12.1749 104.466 11.7587C104.466 11.3424 104.348 11.0019 104.111 10.737C103.875 10.4722 103.572 10.3399 103.203 10.3399C102.834 10.3399 102.531 10.4722 102.295 10.737C102.058 11.0019 101.94 11.3424 101.94 11.7587ZM105.894 11.7587C105.894 12.4965 105.639 13.1178 105.128 13.6224C104.617 14.1268 103.976 14.379 103.203 14.379C102.43 14.379 101.789 14.1268 101.278 13.6224C100.767 13.1178 100.512 12.4965 100.512 11.7587C100.512 11.0208 100.767 10.3982 101.278 9.8905C101.789 9.38296 102.43 9.12891 103.203 9.12891C103.976 9.12891 104.617 9.38296 105.128 9.8905C105.639 10.3982 105.894 11.0208 105.894 11.7587Z" fill="#FFFFFE"/>
<path fill-rule="evenodd" clip-rule="evenodd" d="M107.73 14.3018L105.715 9.20312H107.191L108.458 12.4101L109.726 9.20312H111.201L109.187 14.3018H107.73Z" fill="#FFFFFE"/>
<path fill-rule="evenodd" clip-rule="evenodd" d="M114.474 10.5478C114.279 10.3839 114.041 10.3019 113.76 10.3019C113.479 10.3019 113.223 10.387 112.989 10.5575C112.756 10.7276 112.62 10.9579 112.583 11.2479H114.815C114.783 10.9451 114.67 10.7119 114.474 10.5478ZM115.837 13.5656C115.263 14.1079 114.589 14.379 113.817 14.379C113.044 14.379 112.406 14.1411 111.901 13.6649C111.397 13.1888 111.145 12.5502 111.145 11.7492C111.145 10.9484 111.401 10.3114 111.916 9.83837C112.43 9.3654 113.037 9.12891 113.737 9.12891C114.437 9.12891 115.031 9.3403 115.52 9.7627C116.008 10.1853 116.253 10.7654 116.253 11.5033V12.26H112.545C112.589 12.5376 112.734 12.7647 112.98 12.9411C113.226 13.1178 113.503 13.206 113.812 13.206C114.31 13.206 114.72 13.039 115.042 12.7048L115.837 13.5656Z" fill="#FFFFFE"/>
<path fill-rule="evenodd" clip-rule="evenodd" d="M119.478 10.4627C119.055 10.4627 118.74 10.6127 118.532 10.9121C118.324 11.2118 118.22 11.6075 118.22 12.0992V14.3033H116.801V9.21424H118.22V9.88587C118.403 9.67756 118.631 9.50111 118.905 9.35594C119.18 9.21095 119.459 9.13528 119.743 9.12891L119.752 10.4627H119.478Z" fill="#FFFFFE"/>
<path fill-rule="evenodd" clip-rule="evenodd" d="M84.2702 20.483C84.5163 20.789 84.8474 20.9417 85.2635 20.9417C85.6797 20.9417 86.0092 20.789 86.2521 20.483C86.4948 20.1772 86.6164 19.7593 86.6164 19.2295V15.5781H88.0919V19.2768C88.0919 20.2355 87.827 20.9718 87.2973 21.4857C86.7675 21.9998 86.0895 22.2566 85.2635 22.2566C84.4374 22.2566 83.7578 21.9981 83.2248 21.4809C82.692 20.9639 82.4258 20.2291 82.4258 19.2768V15.5781H83.9013V19.2295C83.9013 19.7593 84.0243 20.1772 84.2702 20.483Z" fill="#FFFFFE"/>
<path fill-rule="evenodd" clip-rule="evenodd" d="M90.3523 19.3519V22.1898H88.9336V17.1006H90.3523V17.6681C90.7813 17.233 91.2637 17.0156 91.7996 17.0156C92.3358 17.0156 92.785 17.2046 93.1477 17.583C93.5103 17.9614 93.6916 18.466 93.6916 19.0965V22.1898H92.2726V19.3141C92.2726 18.5322 91.9856 18.1413 91.4118 18.1413C91.1282 18.1413 90.8805 18.2438 90.6693 18.4485C90.4579 18.6537 90.3523 18.9546 90.3523 19.3519Z" fill="#FFFFFE"/>
<path fill-rule="evenodd" clip-rule="evenodd" d="M94.506 22.1882H95.9249V17.099H94.506V22.1882ZM94.6241 16.4511C94.4633 16.2903 94.3828 16.0932 94.3828 15.8598C94.3828 15.6266 94.4633 15.4295 94.6241 15.2687C94.7849 15.1078 94.9821 15.0273 95.2155 15.0273C95.4487 15.0273 95.6458 15.1078 95.8066 15.2687C95.9674 15.4295 96.0477 15.6266 96.0477 15.8598C96.0477 16.0932 95.9674 16.2903 95.8066 16.4511C95.6458 16.6119 95.4487 16.6924 95.2155 16.6924C94.9821 16.6924 94.7849 16.6119 94.6241 16.4511Z" fill="#FFFFFE"/>
<path d="M78.4414 7.13281V22.2384" stroke="#FFFFFE"/>
<path fill-rule="evenodd" clip-rule="evenodd" d="M0 7.65625L4.54813 10.2822L0 14.577V7.65625Z" fill="#FFFFFE"/>
<path fill-rule="evenodd" clip-rule="evenodd" d="M0.277344 14.8206L4.67026 10.6719V14.8206H0.277344Z" fill="#FFFFFE"/>
<path fill-rule="evenodd" clip-rule="evenodd" d="M0.277344 15.1836H4.67026V19.3321L0.277344 15.1836Z" fill="#FFFFFE"/>
<path fill-rule="evenodd" clip-rule="evenodd" d="M0 15.4219L4.54813 19.7167L0 22.3428V15.4219Z" fill="#FFFFFE"/>
<path fill-rule="evenodd" clip-rule="evenodd" d="M0.183594 7.34309L6.1773 3.88281L4.73191 9.9688L0.183594 7.34309Z" fill="#FFFFFE"/>
<path fill-rule="evenodd" clip-rule="evenodd" d="M6.90625 3.46028L12.9 0V5.25142L6.90625 3.46028Z" fill="#FFFFFE"/>
<path fill-rule="evenodd" clip-rule="evenodd" d="M13.2617 0L19.3913 3.53885L13.2617 5.25586V0Z" fill="#FFFFFE"/>
<path fill-rule="evenodd" clip-rule="evenodd" d="M20.125 3.96094L25.9826 7.34264L21.4383 9.96603L20.125 3.96094Z" fill="#FFFFFE"/>
<path fill-rule="evenodd" clip-rule="evenodd" d="M21.6133 10.2822L26.1614 7.65625V14.577L21.6133 10.2822Z" fill="#FFFFFE"/>
<path fill-rule="evenodd" clip-rule="evenodd" d="M21.6133 19.7167L26.1614 15.4219V22.3428L21.6133 19.7167Z" fill="#FFFFFE"/>
<path fill-rule="evenodd" clip-rule="evenodd" d="M6.52096 4L8.71752 7.80449L5.125 9.87865L6.52096 4Z" fill="#FFFFFE"/>
<path fill-rule="evenodd" clip-rule="evenodd" d="M6.83594 3.82031L12.6252 5.55045L9.03249 7.6248L6.83594 3.82031Z" fill="#FFFFFE"/>
<path fill-rule="evenodd" clip-rule="evenodd" d="M13.2617 24.7461L19.3913 26.4629L13.2617 30.0018V24.7461Z" fill="#FFFFFE"/>
<path fill-rule="evenodd" clip-rule="evenodd" d="M21.4383 20.0352L25.9826 22.6591L20.125 26.0406L21.4383 20.0352Z" fill="#FFFFFE"/>
<path fill-rule="evenodd" clip-rule="evenodd" d="M17.4492 22.1894L21.0452 20.1133L19.7743 25.9246L17.4492 22.1894Z" fill="#FFFFFE"/>
<path fill-rule="evenodd" clip-rule="evenodd" d="M13.5469 24.4472L17.1359 22.375L19.4566 26.1027L13.5469 24.4472Z" fill="#FFFFFE"/>
<path fill-rule="evenodd" clip-rule="evenodd" d="M6.90625 26.5411L12.8998 24.75V30.0012L6.90625 26.5411Z" fill="#FFFFFE"/>
<path fill-rule="evenodd" clip-rule="evenodd" d="M0.183594 22.6573L4.73191 20.0312L6.1773 26.1174L0.183594 22.6573Z" fill="#FFFFFE"/>
<path fill-rule="evenodd" clip-rule="evenodd" d="M5.125 20.1211L8.71752 22.1954L6.52096 26.0001L5.125 20.1211Z" fill="#FFFFFE"/>
<path fill-rule="evenodd" clip-rule="evenodd" d="M9.03249 22.375L12.6252 24.4494L6.83594 26.1797L9.03249 22.375Z" fill="#FFFFFE"/>
<path fill-rule="evenodd" clip-rule="evenodd" d="M21.4961 14.8206V10.6719L25.889 14.8206H21.4961Z" fill="#FFFFFE"/>
<path fill-rule="evenodd" clip-rule="evenodd" d="M21.4961 15.1836H25.889L21.4961 19.3321V15.1836Z" fill="#FFFFFE"/>
<path fill-rule="evenodd" clip-rule="evenodd" d="M13.5469 5.55367L19.4566 3.89844L17.1359 7.6259L13.5469 5.55367Z" fill="#FFFFFE"/>
<path fill-rule="evenodd" clip-rule="evenodd" d="M17.4492 7.80902L19.7743 4.07422L21.0452 9.8851L17.4492 7.80902Z" fill="#FFFFFE"/>
</svg>
