<svg width="60" height="61" viewBox="0 0 60 61" fill="none" xmlns="http://www.w3.org/2000/svg">
<path d="M15 15.3333C15 12.9401 16.8188 11 19.0625 11H43.4375C45.6812 11 47.5 12.9401 47.5 15.3333V47.3518C47.5 48.1635 47.0748 48.907 46.3982 49.2784C45.7217 49.6497 44.9073 49.5867 44.2881 49.1149L31.25 39.1811L18.2119 49.1149C17.5927 49.5867 16.7783 49.6497 16.1018 49.2784C15.4252 48.907 15 48.1635 15 47.3518V15.3333ZM43.4375 15.3333L19.0625 15.3333V43.1416L30.0694 34.7554C30.7756 34.2173 31.7244 34.2173 32.4306 34.7554L43.4375 43.1416V15.3333Z" fill="#202838"/>
</svg>
