<svg width="21" height="21" viewBox="0 0 21 21" fill="none" xmlns="http://www.w3.org/2000/svg">
<path d="M9.27717 13.111C9.00602 13.0137 8.70304 13.1032 8.52746 13.3313L8.351 13.5293V13.5302C7.81475 14.0733 7.07019 14.3608 6.30757 14.3186C5.54495 14.2764 4.83653 13.9089 4.36312 13.3098C4.18236 13.0886 3.88024 13.0085 3.61341 13.111C2.54952 13.5207 1.63452 14.2437 0.989876 15.1837C0.344305 16.1236 -0.00085778 17.2374 1.60086e-06 18.3779V19.4358C1.60086e-06 19.8008 0.296113 20.0969 0.661064 20.0969H12.2297C12.5946 20.0969 12.8907 19.8008 12.8907 19.4358V18.3779C12.8916 17.2374 12.5464 16.1237 11.9008 15.1837C11.2561 14.2437 10.3412 13.5207 9.2773 13.111L9.27717 13.111Z" fill="white"/>
<path d="M2.77734 9.14467C2.77734 10.1208 3.16468 11.0573 3.85501 11.7468C4.54533 12.4372 5.48098 12.8254 6.45717 12.8254C7.43327 12.8254 8.36892 12.4372 9.05933 11.7468C9.74965 11.0574 10.137 10.1209 10.137 9.14467C10.137 8.16943 9.74965 7.23292 9.05933 6.54251C8.369 5.85304 7.43336 5.46484 6.45717 5.46484C5.48107 5.46484 4.54542 5.85304 3.85501 6.54251C3.16468 7.23283 2.77734 8.16934 2.77734 9.14467Z" fill="white"/>
<path d="M15.645 0C13.8185 0 12.1099 0.901204 11.0786 2.40847C10.0474 3.91565 9.82621 5.83431 10.489 7.53677C10.662 7.97576 10.8918 8.39064 11.1716 8.77025L10.5105 10.3127C10.421 10.5193 10.4417 10.7569 10.5665 10.9445C10.6913 11.1313 10.903 11.2424 11.1277 11.238H11.2379L13.8821 10.7749V10.7758C15.4022 11.2398 17.0488 11.0246 18.3994 10.1862C19.749 9.34694 20.671 7.96545 20.9275 6.39631C21.1849 4.828 20.751 3.22431 19.7388 1.9987C18.7266 0.773092 17.234 0.0447773 15.6451 2.34313e-05L15.645 0Z" fill="white"/>
</svg>
