<svg width="12" height="15" viewBox="0 0 12 15" fill="none" xmlns="http://www.w3.org/2000/svg">
<path d="M1.25978 13.4577C1.25978 14.0815 1.74497 14.5709 2.34324 14.5709H9.63759C10.2359 14.5709 10.7211 14.0821 10.7211 13.4577L11.1412 4.28516H0.855469L1.25978 13.4577ZM7.9229 6.12277C7.9229 5.80266 8.10106 5.54973 8.40809 5.54973C8.71512 5.54973 8.89328 5.80266 8.89328 6.12277V12.4632C8.89328 12.7833 8.71512 13.0362 8.40809 13.0362C8.10106 13.0362 7.9229 12.7833 7.9229 12.4632V6.12277ZM5.49695 6.12277C5.49695 5.80266 5.67511 5.54973 5.98214 5.54973C6.28917 5.54973 6.46733 5.80266 6.46733 6.12277V12.4632C6.46733 12.7833 6.28917 13.0362 5.98214 13.0362C5.67511 13.0362 5.49695 12.7833 5.49695 12.4632V6.12277ZM3.07099 6.12277C3.07099 5.80266 3.24916 5.54973 3.55618 5.54973C3.86321 5.54973 4.04137 5.80266 4.04137 6.12277V12.4632C4.04137 12.7833 3.86321 13.0362 3.55618 13.0362C3.24916 13.0362 3.07099 12.7833 3.07099 12.4632V6.12277Z" fill="white"/>
<path d="M11.5006 1.78882H8.48788V0.46235C8.48788 0.193908 8.33835 0 8.02174 0H3.99427C3.67832 0 3.49498 0.193908 3.49498 0.46235V1.78882H0.516202C0.20025 1.78882 0 1.99728 0 2.28086V2.84744C0 3.13043 0.199584 3.42857 0.516202 3.42857H11.5176C11.8336 3.42857 12 3.11529 12 2.84744V2.28086C11.9831 1.99729 11.8167 1.78882 11.5007 1.78882H11.5006ZM7.48929 1.78882H4.49353V0.89441H7.48929V1.78882Z" fill="white"/>
</svg>
