<svg width="33" height="48" viewBox="0 0 33 48" fill="none" xmlns="http://www.w3.org/2000/svg">
<path d="M1.06676 40.8123H19.2314V46.9333C19.2314 47.3438 19.4668 47.7167 19.8355 47.8958C19.9834 47.9646 20.1418 48 20.298 48C20.5355 48 20.7709 47.9208 20.9647 47.7667L23.4709 45.7605L25.9709 47.7646C26.2917 48.0208 26.7313 48.0708 27.1 47.8938C27.4708 47.7167 27.7062 47.3438 27.7062 46.9333V40.8123H31.925C32.5146 40.8123 32.9916 40.3353 32.9916 39.7457V7.16259C32.9916 7.09176 32.9854 7.02301 32.9708 6.95634V6.95426C32.952 6.86468 32.9187 6.77926 32.8791 6.69593C32.8687 6.6751 32.8583 6.65426 32.8458 6.63343C32.8 6.55218 32.7458 6.4751 32.6791 6.40843L26.5832 0.312499C26.5165 0.245833 26.4394 0.191668 26.3582 0.145834C26.3374 0.133334 26.3165 0.122917 26.2957 0.112501C26.2145 0.072918 26.1311 0.0395846 26.0415 0.0208328C26.0374 0.0187497 26.0311 0.0187495 26.027 0.0187495C25.9624 0.00833312 25.8957 0 25.829 0H1.06665C0.477061 0 0 0.477077 0 1.06665V39.7452C0 40.3347 0.477077 40.8118 1.06665 40.8118L1.06676 40.8123ZM25.5726 44.7123L24.1393 43.5623C23.7497 43.2498 23.1956 43.2498 22.806 43.5623L21.3664 44.7144V39.7687C21.3664 39.7624 21.3685 39.7541 21.3685 39.7478C21.3685 39.7395 21.3643 39.7333 21.3643 39.727V38.0145C22.0227 38.252 22.731 38.3875 23.4706 38.3875C24.208 38.3875 24.9143 38.252 25.5726 38.0166V44.7123ZM26.8955 3.64183L29.3497 6.09599H26.8955V3.64183ZM2.13315 2.13353H24.7622V7.16264C24.7622 7.75224 25.2393 8.2293 25.8289 8.2293H30.858V38.6791L27.7059 38.6812V36.7208C28.9413 35.5791 29.7205 33.95 29.7205 32.1375C29.7205 31.8166 29.6955 31.4958 29.6475 31.1833C29.558 30.5999 29.0101 30.2021 28.433 30.2895C27.8496 30.3791 27.4497 30.9229 27.5393 31.5062C27.5705 31.7124 27.5872 31.9249 27.5872 32.1374C27.5872 34.4082 25.7393 36.2541 23.4705 36.2541C21.1997 36.2541 19.3539 34.4083 19.3539 32.1374C19.3539 29.8666 21.2017 28.0208 23.4705 28.0208C24.7497 28.0208 25.9351 28.602 26.7226 29.6124C27.0851 30.077 27.7538 30.1603 28.2205 29.7999C28.6851 29.4374 28.7684 28.7687 28.408 28.302C27.2142 26.7666 25.4163 25.8875 23.4726 25.8875C20.0269 25.8875 17.2226 28.6916 17.2226 32.1375C17.2226 33.9479 17.9996 35.575 19.233 36.7166V38.6791L2.13341 38.6812L2.13315 2.13353Z" fill="url(#paint0_linear)"/>
<path d="M23.469 29.0859C23.1232 29.0859 22.7836 29.1443 22.4586 29.2589C21.9023 29.4547 21.6107 30.063 21.8065 30.6193C22.0002 31.1734 22.6086 31.4671 23.1669 31.2714C23.2648 31.238 23.3648 31.2193 23.469 31.2193C23.9732 31.2193 24.3857 31.6297 24.3857 32.136C24.3857 32.6422 23.9753 33.0526 23.469 33.0526C23.0627 33.0526 22.7003 32.7797 22.5878 32.3881C22.4253 31.8214 21.8336 31.4964 21.269 31.6568C20.7024 31.8193 20.3753 32.411 20.5378 32.9777C20.9107 34.2776 22.1169 35.186 23.469 35.186C25.1502 35.186 26.519 33.8172 26.519 32.136C26.519 30.4548 25.1503 29.086 23.469 29.086L23.469 29.0859Z" fill="url(#paint1_linear)"/>
<path d="M7.61744 11.3794H17.428C18.0176 11.3794 18.4946 10.9023 18.4946 10.3127C18.4946 9.72317 18.0176 9.24609 17.428 9.24609H7.61744C7.02784 9.24609 6.55078 9.72317 6.55078 10.3127C6.55078 10.9023 7.02786 11.3794 7.61744 11.3794Z" fill="url(#paint2_linear)"/>
<path d="M20.094 11.3794H25.371C25.9606 11.3794 26.4377 10.9023 26.4377 10.3127C26.4377 9.72317 25.9606 9.24609 25.371 9.24609H20.094C19.5044 9.24609 19.0273 9.72317 19.0273 10.3127C19.0273 10.9023 19.5044 11.3794 20.094 11.3794Z" fill="url(#paint3_linear)"/>
<path d="M7.61744 17.9497H11.8945C12.484 17.9497 12.9611 17.4726 12.9611 16.8831C12.9611 16.2935 12.484 15.8164 11.8945 15.8164H7.61744C7.02784 15.8164 6.55078 16.2935 6.55078 16.8831C6.55078 17.4727 7.02786 17.9497 7.61744 17.9497Z" fill="url(#paint4_linear)"/>
<path d="M25.373 15.8164H14.6292C14.0396 15.8164 13.5625 16.2935 13.5625 16.8831C13.5625 17.4727 14.0396 17.9497 14.6292 17.9497H25.373C25.9626 17.9497 26.4397 17.4726 26.4397 16.8831C26.4397 16.2955 25.9626 15.8164 25.373 15.8164Z" fill="url(#paint5_linear)"/>
<path d="M7.61744 24.52H18.628C19.2176 24.52 19.6946 24.043 19.6946 23.4534C19.6946 22.8638 19.2176 22.3867 18.628 22.3867H7.61744C7.02784 22.3867 6.55078 22.8638 6.55078 23.4534C6.55078 24.0409 7.02786 24.52 7.61744 24.52Z" fill="url(#paint6_linear)"/>
<path d="M25.3741 22.3867H21.2971C20.7075 22.3867 20.2305 22.8638 20.2305 23.4534C20.2305 24.043 20.7075 24.52 21.2971 24.52H25.3741C25.9637 24.52 26.4408 24.043 26.4408 23.4534C26.4408 22.8638 25.9637 22.3867 25.3741 22.3867Z" fill="url(#paint7_linear)"/>
<path d="M14.7171 28.957H7.61743C7.02784 28.957 6.55078 29.4341 6.55078 30.0237C6.55078 30.6133 7.02786 31.0903 7.61743 31.0903H14.7171C15.3067 31.0903 15.7837 30.6133 15.7837 30.0237C15.7837 29.4341 15.3046 28.957 14.7171 28.957Z" fill="url(#paint8_linear)"/>
<defs>
<linearGradient id="paint0_linear" x1="1.56426" y1="16" x2="32.7394" y2="24.7313" gradientUnits="userSpaceOnUse">
<stop stop-color="#4EA27D"/>
<stop offset="1" stop-color="#308282"/>
</linearGradient>
<linearGradient id="paint1_linear" x1="20.7817" y1="31.1193" x2="26.0643" y2="33.2446" gradientUnits="userSpaceOnUse">
<stop stop-color="#4EA27D"/>
<stop offset="1" stop-color="#308282"/>
</linearGradient>
<linearGradient id="paint2_linear" x1="7.11709" y1="9.9572" x2="9.07875" y2="14.4325" gradientUnits="userSpaceOnUse">
<stop stop-color="#4EA27D"/>
<stop offset="1" stop-color="#308282"/>
</linearGradient>
<linearGradient id="paint3_linear" x1="19.3787" y1="9.9572" x2="21.893" y2="13.516" gradientUnits="userSpaceOnUse">
<stop stop-color="#4EA27D"/>
<stop offset="1" stop-color="#308282"/>
</linearGradient>
<linearGradient id="paint4_linear" x1="6.85472" y1="16.5275" x2="9.46854" y2="19.7279" gradientUnits="userSpaceOnUse">
<stop stop-color="#4EA27D"/>
<stop offset="1" stop-color="#308282"/>
</linearGradient>
<linearGradient id="paint5_linear" x1="14.1731" y1="16.5275" x2="16.0344" y2="21.1059" gradientUnits="userSpaceOnUse">
<stop stop-color="#4EA27D"/>
<stop offset="1" stop-color="#308282"/>
</linearGradient>
<linearGradient id="paint6_linear" x1="7.17398" y1="23.0978" x2="9.00806" y2="27.7024" gradientUnits="userSpaceOnUse">
<stop stop-color="#4EA27D"/>
<stop offset="1" stop-color="#308282"/>
</linearGradient>
<linearGradient id="paint7_linear" x1="20.5249" y1="23.0978" x2="23.1541" y2="26.2166" gradientUnits="userSpaceOnUse">
<stop stop-color="#4EA27D"/>
<stop offset="1" stop-color="#308282"/>
</linearGradient>
<linearGradient id="paint8_linear" x1="6.98855" y1="29.6681" x2="9.27772" y2="33.7053" gradientUnits="userSpaceOnUse">
<stop stop-color="#4EA27D"/>
<stop offset="1" stop-color="#308282"/>
</linearGradient>
</defs>
</svg>
