<svg width="33" height="48" viewBox="0 0 33 48" fill="none" xmlns="http://www.w3.org/2000/svg">
<path d="M1.06676 40.8123H19.2314V46.9333C19.2314 47.3438 19.4668 47.7167 19.8355 47.8958C19.9834 47.9646 20.1418 48 20.298 48C20.5355 48 20.7709 47.9208 20.9647 47.7667L23.4709 45.7605L25.9709 47.7646C26.2917 48.0208 26.7313 48.0708 27.1 47.8938C27.4708 47.7167 27.7062 47.3438 27.7062 46.9333V40.8123H31.925C32.5146 40.8123 32.9916 40.3353 32.9916 39.7457V7.16259C32.9916 7.09176 32.9854 7.02301 32.9708 6.95634V6.95426C32.952 6.86468 32.9187 6.77926 32.8791 6.69593C32.8687 6.6751 32.8583 6.65426 32.8458 6.63343C32.8 6.55218 32.7458 6.4751 32.6791 6.40843L26.5832 0.312499C26.5165 0.245833 26.4394 0.191668 26.3582 0.145834C26.3374 0.133334 26.3165 0.122917 26.2957 0.112501C26.2145 0.072918 26.1311 0.0395846 26.0415 0.0208328C26.0374 0.0187497 26.0311 0.0187495 26.027 0.0187495C25.9624 0.00833312 25.8957 0 25.829 0H1.06665C0.477061 0 0 0.477077 0 1.06665V39.7452C0 40.3347 0.477077 40.8118 1.06665 40.8118L1.06676 40.8123ZM25.5726 44.7123L24.1393 43.5623C23.7497 43.2498 23.1956 43.2498 22.806 43.5623L21.3664 44.7144V39.7687C21.3664 39.7624 21.3685 39.7541 21.3685 39.7478C21.3685 39.7395 21.3643 39.7333 21.3643 39.727V38.0145C22.0227 38.252 22.731 38.3875 23.4706 38.3875C24.208 38.3875 24.9143 38.252 25.5726 38.0166V44.7123ZM26.8955 3.64183L29.3497 6.09599H26.8955V3.64183ZM2.13315 2.13353H24.7622V7.16264C24.7622 7.75224 25.2393 8.2293 25.8289 8.2293H30.858V38.6791L27.7059 38.6812V36.7208C28.9413 35.5791 29.7205 33.95 29.7205 32.1375C29.7205 31.8166 29.6955 31.4958 29.6475 31.1833C29.558 30.5999 29.0101 30.2021 28.433 30.2895C27.8496 30.3791 27.4497 30.9229 27.5393 31.5062C27.5705 31.7124 27.5872 31.9249 27.5872 32.1374C27.5872 34.4082 25.7393 36.2541 23.4705 36.2541C21.1997 36.2541 19.3539 34.4083 19.3539 32.1374C19.3539 29.8666 21.2017 28.0208 23.4705 28.0208C24.7497 28.0208 25.9351 28.602 26.7226 29.6124C27.0851 30.077 27.7538 30.1603 28.2205 29.7999C28.6851 29.4374 28.7684 28.7687 28.408 28.302C27.2142 26.7666 25.4163 25.8875 23.4726 25.8875C20.0269 25.8875 17.2226 28.6916 17.2226 32.1375C17.2226 33.9479 17.9996 35.575 19.233 36.7166V38.6791L2.13341 38.6812L2.13315 2.13353Z" fill="black"/>
<path d="M23.4709 29.0879C23.1251 29.0879 22.7855 29.1462 22.4605 29.2608C21.9043 29.4566 21.6127 30.065 21.8085 30.6212C22.0022 31.1754 22.6105 31.4691 23.1689 31.2733C23.2668 31.24 23.3668 31.2212 23.4709 31.2212C23.9751 31.2212 24.3876 31.6316 24.3876 32.1379C24.3876 32.6442 23.9772 33.0546 23.4709 33.0546C23.0647 33.0546 22.7022 32.7817 22.5897 32.39C22.4272 31.8234 21.8355 31.4984 21.271 31.6588C20.7043 31.8213 20.3772 32.413 20.5397 32.9796C20.9126 34.2796 22.1189 35.1879 23.4709 35.1879C25.1522 35.1879 26.5209 33.8192 26.5209 32.1379C26.5209 30.4567 25.1522 29.0879 23.4709 29.0879L23.4709 29.0879Z" fill="black"/>
<path d="M7.61841 11.3774H17.429C18.0186 11.3774 18.4956 10.9004 18.4956 10.3108C18.4956 9.72122 18.0185 9.24414 17.429 9.24414H7.61841C7.02882 9.24414 6.55176 9.72122 6.55176 10.3108C6.55176 10.9004 7.02884 11.3774 7.61841 11.3774Z" fill="black"/>
<path d="M20.096 11.3774H25.373C25.9626 11.3774 26.4396 10.9004 26.4396 10.3108C26.4396 9.72122 25.9625 9.24414 25.373 9.24414H20.096C19.5064 9.24414 19.0293 9.72122 19.0293 10.3108C19.0293 10.9004 19.5064 11.3774 20.096 11.3774Z" fill="black"/>
<path d="M7.61841 17.9478H11.8954C12.485 17.9478 12.9621 17.4707 12.9621 16.8811C12.9621 16.2915 12.485 15.8145 11.8954 15.8145H7.61841C7.02882 15.8145 6.55176 16.2915 6.55176 16.8811C6.55176 17.4707 7.02884 17.9478 7.61841 17.9478Z" fill="black"/>
<path d="M25.3735 15.8145H14.6296C14.04 15.8145 13.563 16.2915 13.563 16.8811C13.563 17.4707 14.0401 17.9478 14.6296 17.9478H25.3735C25.9631 17.9478 26.4402 17.4707 26.4402 16.8811C26.4402 16.2936 25.9631 15.8145 25.3735 15.8145Z" fill="black"/>
<path d="M7.61841 24.522H18.629C19.2185 24.522 19.6956 24.0449 19.6956 23.4553C19.6956 22.8657 19.2185 22.3887 18.629 22.3887H7.61841C7.02882 22.3887 6.55176 22.8657 6.55176 23.4553C6.55176 24.0428 7.02884 24.522 7.61841 24.522Z" fill="black"/>
<path d="M25.3727 22.3887H21.2957C20.7061 22.3887 20.229 22.8657 20.229 23.4553C20.229 24.0449 20.7061 24.522 21.2957 24.522H25.3727C25.9623 24.522 26.4393 24.0449 26.4393 23.4553C26.4393 22.8657 25.9623 22.3887 25.3727 22.3887Z" fill="black"/>
<path d="M14.719 28.959H7.61939C7.02979 28.959 6.55273 29.4361 6.55273 30.0256C6.55273 30.6152 7.02981 31.0923 7.61939 31.0923H14.719C15.3086 31.0923 15.7857 30.6152 15.7857 30.0256C15.7857 29.4361 15.3065 28.959 14.719 28.959Z" fill="black"/>
</svg>
