<svg width="124" height="163" viewBox="0 0 124 163" fill="none" xmlns="http://www.w3.org/2000/svg">
<path d="M62.2514 0.402344C55.0652 0.402344 49.064 4.77927 46.3149 10.9689H32.2524C30.3784 10.9689 28.7523 12.6576 28.7523 14.4704V18.0339H4.00404C2.06789 18.0339 0.503906 19.8466 0.503906 21.5354V159.21C0.503906 161.022 2.19194 162.711 4.00404 162.711H120.438C122.312 162.711 124 161.022 124 159.21V21.5354C124 19.7227 122.312 18.0339 120.438 18.0339H95.7512V14.4704C95.7512 12.6577 94.0632 10.9689 92.2511 10.9689H78.1886C75.4395 4.77927 69.4377 0.402344 62.2514 0.402344ZM62.2514 7.40542C67.2534 7.40542 71.3116 10.7829 72.5036 15.3458C72.8757 16.8484 74.3156 18.0339 75.9417 18.0339H88.6881V28.6005H35.7522V18.0339H48.5675C50.1315 18.0339 51.6266 16.8484 52.0055 15.3458C53.1286 10.7829 57.2557 7.40542 62.2577 7.40542H62.2514ZM7.56574 25.0984H28.7528V32.1634C28.7528 33.9761 30.3788 35.6649 32.2529 35.6649H92.2512C94.0632 35.6649 95.7514 33.9762 95.7514 32.1634V25.0984H116.938V155.646H7.56715L7.56574 25.0984Z" fill="url(#paint0_linear)"/>
<path d="M31.2461 58.9807V69.3628C31.2461 70.6277 32.361 71.6522 33.7375 71.6522H45.0669C46.4434 71.6522 47.5582 70.6277 47.5582 69.3628V58.9807C47.5582 57.7159 46.4434 56.6914 45.0669 56.6914H33.7437C33.0773 56.6914 32.442 56.9318 31.9748 57.361C31.5077 57.7903 31.2461 58.3741 31.2461 58.9808L31.2461 58.9807ZM36.2288 61.2701H42.5756V67.0965H36.2288V61.2701Z" fill="url(#paint1_linear)"/>
<path d="M91.0192 61.8828H55.4054C54.0289 61.8828 52.9141 62.9073 52.9141 64.1722C52.9141 65.437 54.0289 66.4615 55.4054 66.4615H91.0192C92.3957 66.4615 93.5106 65.437 93.5106 64.1722C93.5106 62.9073 92.3957 61.8828 91.0192 61.8828Z" fill="url(#paint2_linear)"/>
<path d="M47.5598 81.18C47.5598 79.9151 46.4449 78.8906 45.0684 78.8906H33.7452C32.3688 78.8906 31.2539 79.9151 31.2539 81.18V91.5851C31.2539 92.8499 32.3688 93.8744 33.7452 93.8744H45.0684C46.4449 93.8744 47.5598 92.8499 47.5598 91.5851V81.18ZM42.5771 89.2957H36.2304V83.4693H42.5771V89.2957Z" fill="url(#paint3_linear)"/>
<path d="M91.0192 84.0977H55.4054C54.0289 84.0977 52.9141 85.1221 52.9141 86.387C52.9141 87.6519 54.0289 88.6763 55.4054 88.6763H91.0192C92.3957 88.6763 93.5106 87.6519 93.5106 86.387C93.5106 85.1221 92.3957 84.0977 91.0192 84.0977Z" fill="url(#paint4_linear)"/>
<path d="M47.5598 103.407C47.5598 102.142 46.4449 101.117 45.0684 101.117H33.7452C32.3688 101.117 31.2539 102.142 31.2539 103.407V113.812V113.806C31.2539 115.071 32.3688 116.095 33.7452 116.095H45.0684C46.4449 116.095 47.5598 115.071 47.5598 113.806V103.407ZM42.5771 111.522L36.2304 111.517V105.69H42.5771V111.522Z" fill="url(#paint5_linear)"/>
<path d="M91.0192 106.316H55.4054C54.0289 106.316 52.9141 107.341 52.9141 108.606C52.9141 109.871 54.0289 110.895 55.4054 110.895H91.0192C92.3957 110.895 93.5106 109.871 93.5106 108.606C93.5106 107.341 92.3957 106.316 91.0192 106.316Z" fill="url(#paint6_linear)"/>
<path d="M45.0685 123.32H33.7452C32.3688 123.32 31.2539 124.345 31.2539 125.61V136.015C31.2539 137.28 32.3688 138.304 33.7452 138.304H45.0685C46.4449 138.304 47.5598 137.28 47.5598 136.015V125.61C47.5598 124.345 46.4449 123.32 45.0685 123.32ZM42.5771 133.725H36.2304V127.899H42.5771V133.725Z" fill="url(#paint7_linear)"/>
<path d="M91.0192 128.527H55.4054C54.0289 128.527 52.9141 129.552 52.9141 130.817C52.9141 132.082 54.0289 133.106 55.4054 133.106H91.0192C92.3957 133.106 93.5106 132.082 93.5106 130.817C93.5106 129.552 92.3957 128.527 91.0192 128.527Z" fill="url(#paint8_linear)"/>
<defs>
<linearGradient id="paint0_linear" x1="-2.6465" y1="47.9356" x2="140.041" y2="77.6747" gradientUnits="userSpaceOnUse">
<stop stop-color="#4EA27D"/>
<stop offset="1" stop-color="#308282"/>
</linearGradient>
<linearGradient id="paint1_linear" x1="30.83" y1="61.0728" x2="48.8852" y2="66.4653" gradientUnits="userSpaceOnUse">
<stop stop-color="#4EA27D"/>
<stop offset="1" stop-color="#308282"/>
</linearGradient>
<linearGradient id="paint2_linear" x1="51.8784" y1="63.2237" x2="58.9729" y2="80.4542" gradientUnits="userSpaceOnUse">
<stop stop-color="#4EA27D"/>
<stop offset="1" stop-color="#308282"/>
</linearGradient>
<linearGradient id="paint3_linear" x1="30.8379" y1="83.2787" x2="48.8919" y2="88.6605" gradientUnits="userSpaceOnUse">
<stop stop-color="#4EA27D"/>
<stop offset="1" stop-color="#308282"/>
</linearGradient>
<linearGradient id="paint4_linear" x1="51.8784" y1="85.4386" x2="58.9729" y2="102.669" gradientUnits="userSpaceOnUse">
<stop stop-color="#4EA27D"/>
<stop offset="1" stop-color="#308282"/>
</linearGradient>
<linearGradient id="paint5_linear" x1="30.8379" y1="105.504" x2="48.8908" y2="110.887" gradientUnits="userSpaceOnUse">
<stop stop-color="#4EA27D"/>
<stop offset="1" stop-color="#308282"/>
</linearGradient>
<linearGradient id="paint6_linear" x1="51.8784" y1="107.657" x2="58.9729" y2="124.888" gradientUnits="userSpaceOnUse">
<stop stop-color="#4EA27D"/>
<stop offset="1" stop-color="#308282"/>
</linearGradient>
<linearGradient id="paint7_linear" x1="30.8379" y1="127.708" x2="48.8919" y2="133.09" gradientUnits="userSpaceOnUse">
<stop stop-color="#4EA27D"/>
<stop offset="1" stop-color="#308282"/>
</linearGradient>
<linearGradient id="paint8_linear" x1="51.8784" y1="129.868" x2="58.9729" y2="147.099" gradientUnits="userSpaceOnUse">
<stop stop-color="#4EA27D"/>
<stop offset="1" stop-color="#308282"/>
</linearGradient>
</defs>
</svg>
