<svg width="70" height="92" viewBox="0 0 70 92" fill="none" xmlns="http://www.w3.org/2000/svg">
<path d="M34.9997 0C30.9265 0 27.5249 2.48093 25.9666 5.98934H17.9957C16.9335 5.98934 16.0118 6.94654 16.0118 7.97409V9.99394H1.98395C0.886498 9.99394 0 11.0214 0 11.9787V90.0153C0 91.0427 0.956813 92 1.98395 92H67.981C69.0432 92 70 91.0428 70 90.0153V11.9787C70 10.9512 69.0432 9.99394 67.981 9.99394H53.9881V7.97409C53.9881 6.94661 53.0313 5.98934 52.0042 5.98934H44.0333C42.4751 2.48093 39.0731 0 34.9997 0ZM34.9997 3.96949C37.835 3.96949 40.1353 5.88392 40.8109 8.47027C41.0218 9.32198 41.838 9.99394 42.7597 9.99394H49.9846V15.9833H19.9795V9.99394H27.2434C28.1299 9.99394 28.9774 9.32194 29.1922 8.47027C29.8287 5.88392 32.1681 3.96949 35.0034 3.96949H34.9997ZM4.00279 13.9982H16.0121V18.0028C16.0121 19.0303 16.9337 19.9876 17.996 19.9876H52.0043C53.0314 19.9876 53.9882 19.0304 53.9882 18.0028V13.9982H65.9975V87.9951H4.00359L4.00279 13.9982ZM14.9843 24.9841C12.7895 24.9841 10.9813 26.7931 10.9813 28.9887C10.9813 31.1844 12.7895 32.9933 14.9843 32.9933C17.2143 32.9933 18.9873 31.1844 18.9873 28.9887C18.9873 26.7931 17.2143 24.9841 14.9843 24.9841ZM27.9853 27.004C26.8879 27.004 26.0014 27.8909 26.0014 28.9887C26.0014 30.0866 26.8879 30.9735 27.9853 30.9735H56.9988C58.0962 30.9735 58.9827 30.0866 58.9827 28.9887C58.9827 27.8909 58.0962 27.004 56.9988 27.004H27.9853ZM14.9843 41.0024C12.7895 41.0024 10.9813 42.7761 10.9813 45.007C10.9813 47.2027 12.7895 48.9765 14.9843 48.9765C17.2143 48.9765 18.9873 47.2028 18.9873 45.007C18.9873 42.7761 17.2143 41.0024 14.9843 41.0024ZM27.9853 42.9872C26.8879 42.9872 26.0014 43.8741 26.0014 45.007C26.0014 46.1049 26.8879 46.9918 27.9853 46.9918H56.9988C58.0962 46.9918 58.9827 46.1049 58.9827 45.007C58.9827 43.874 58.0962 42.9872 56.9988 42.9872H27.9853ZM14.9843 56.9856C12.7895 56.9856 10.9813 58.7945 10.9813 60.9902C10.9813 63.1859 12.7895 64.9948 14.9843 64.9948C17.2143 64.9948 18.9873 63.1859 18.9873 60.9902C18.9873 58.7945 17.2143 56.9856 14.9843 56.9856ZM27.9853 59.0055C26.8879 59.0055 26.0014 59.8923 26.0014 60.9902C26.0014 62.0881 26.8879 63.0101 27.9853 63.0101H56.9988C58.0962 63.0101 58.9827 62.088 58.9827 60.9902C58.9827 59.8923 58.0962 59.0055 56.9988 59.0055H27.9853ZM14.9843 73.0039C12.7895 73.0039 10.9813 74.7776 10.9813 77.0085C10.9813 79.2042 12.7895 81.0131 14.9843 81.0131C17.2143 81.0131 18.9873 79.2042 18.9873 77.0085C18.9873 74.7776 17.2143 73.0039 14.9843 73.0039ZM27.9853 74.9886C26.8879 74.9886 26.0014 75.8755 26.0014 77.0085C26.0014 78.1064 26.8879 78.9932 27.9853 78.9932H56.9988C58.0962 78.9932 58.9827 78.1064 58.9827 77.0085C58.9827 75.8755 58.0962 74.9886 56.9988 74.9886H27.9853Z" fill="url(#paint0_linear)"/>
<defs>
<linearGradient id="paint0_linear" x1="3.31897" y1="30.6667" x2="68.3977" y2="50.8437" gradientUnits="userSpaceOnUse">
<stop stop-color="#4EA27D"/>
<stop offset="1" stop-color="#308282"/>
</linearGradient>
</defs>
</svg>
