<svg width="25" height="25" viewBox="0 0 25 25" fill="none" xmlns="http://www.w3.org/2000/svg">
<path fill-rule="evenodd" clip-rule="evenodd" d="M0.349078 20.4172L8.26623 12.5L0.349078 4.58285C-0.116359 4.11741 -0.116359 3.35535 0.349078 2.88896L2.88896 0.349078C3.3544 -0.116359 4.11646 -0.116359 4.58285 0.349078L12.5 8.26623L20.4172 0.349078C20.8826 -0.116359 21.6876 -0.116359 22.153 0.349078L24.6509 2.88896C25.1164 3.3544 25.1164 4.11646 24.6509 4.58285L16.7338 12.5L24.6509 20.4172C25.1164 20.8826 25.1164 21.6876 24.6509 22.153L22.153 24.6509C21.6876 25.1164 20.8826 25.1164 20.4172 24.6509L12.5 16.7338L4.58285 24.6509C4.11741 25.1164 3.35535 25.1164 2.88896 24.6509L0.349078 22.153C-0.116359 21.6876 -0.116359 20.8826 0.349078 20.4172Z" fill="black"/>
</svg>
