<svg width="14" height="14" viewBox="0 0 14 14" fill="none" xmlns="http://www.w3.org/2000/svg">
<path fill-rule="evenodd" clip-rule="evenodd" d="M0.195484 11.4336L4.62909 7L0.195484 2.5664C-0.0651612 2.30575 -0.0651612 1.87899 0.195484 1.61782L1.61782 0.195484C1.87846 -0.0651612 2.30522 -0.0651612 2.5664 0.195484L7 4.62909L11.4336 0.195484C11.6942 -0.0651612 12.145 -0.0651612 12.4057 0.195484L13.8045 1.61782C14.0652 1.87846 14.0652 2.30522 13.8045 2.5664L9.37091 7L13.8045 11.4336C14.0652 11.6942 14.0652 12.145 13.8045 12.4057L12.4057 13.8045C12.145 14.0652 11.6942 14.0652 11.4336 13.8045L7 9.37091L2.5664 13.8045C2.30575 14.0652 1.87899 14.0652 1.61782 13.8045L0.195484 12.4057C-0.0651612 12.145 -0.0651612 11.6942 0.195484 11.4336Z" fill="#707070"/>
</svg>
