<svg width="22" height="25" viewBox="0 0 22 25" fill="none" xmlns="http://www.w3.org/2000/svg">
<path d="M8.01947 17.0227V14.1127C8.01947 12.6389 6.90677 11.4215 5.47766 11.2522C5.9258 10.8487 6.21044 10.2665 6.21044 9.61721C6.21044 8.40337 5.22361 7.4165 4.00973 7.4165C2.79586 7.4165 1.80902 8.40334 1.80902 9.61721C1.80902 10.2665 2.09367 10.8487 2.54181 11.2522C1.1127 11.4215 0 12.6389 0 14.1127V17.0239C0 17.1862 0.131737 17.3179 0.294054 17.3179H1.30209V23.4248C1.30209 23.5871 1.43383 23.7189 1.59614 23.7189H3.71688L3.7157 19.6409C3.7157 19.4668 3.84744 19.3268 4.00976 19.3268C4.17207 19.3268 4.30381 19.468 4.30381 19.6409V23.7177H6.42455C6.58686 23.7177 6.7186 23.5859 6.7186 23.4236L6.71742 17.3167H7.72546C7.88778 17.3167 8.01951 17.185 8.01951 17.0227L8.01947 17.0227Z" fill="white"/>
<path d="M3.03516 6.64128H4.06671C4.22903 6.64128 4.36076 6.50955 4.36076 6.34723V3.34198H12.2933V3.86188C12.2933 3.97009 12.3533 4.07007 12.4497 4.12065C12.545 4.17123 12.6614 4.16535 12.752 4.10536L14.7222 2.77622C14.8033 2.72211 14.8516 2.63037 14.8516 2.53274C14.8516 2.43511 14.8033 2.34337 14.7222 2.28926L12.752 0.960123C12.6626 0.900136 12.5462 0.893078 12.4497 0.944833C12.3533 0.99541 12.2933 1.09539 12.2933 1.2036V1.7235L3.03526 1.72468C2.87295 1.72468 2.74121 1.85642 2.74121 2.01873V6.34843C2.74121 6.50957 2.87295 6.64131 3.03526 6.64131L3.03516 6.64128Z" fill="white"/>
<path d="M18.9648 19.2693H17.9333C17.771 19.2693 17.6392 19.401 17.6392 19.5634V22.5686L9.70673 22.5674V22.0475C9.70673 21.9393 9.64674 21.8393 9.55029 21.7888C9.45501 21.7382 9.33857 21.7441 9.248 21.8041L7.27782 23.1332C7.19666 23.1873 7.14844 23.2791 7.14844 23.3767C7.14844 23.4743 7.19666 23.5661 7.27782 23.6202L9.248 24.9493C9.2974 24.9822 9.35504 24.9999 9.41267 24.9999C9.45972 24.9999 9.50677 24.9881 9.55029 24.9658C9.64674 24.9152 9.70673 24.8152 9.70673 24.707V24.1871H18.9647C19.127 24.1871 19.2588 24.0554 19.2588 23.893V19.5633C19.2588 19.3998 19.127 19.2693 18.9647 19.2693L18.9648 19.2693Z" fill="white"/>
<path d="M19.4581 6.02853C19.9063 5.6251 20.1909 5.04287 20.1909 4.39358C20.1909 3.17974 19.2041 2.19287 17.9902 2.19287C16.7763 2.19287 15.7895 3.17971 15.7895 4.39358C15.7895 5.04284 16.0741 5.62507 16.5223 6.02853C15.0932 6.19791 13.9805 7.41531 13.9805 8.8891V11.8003C13.9805 11.9626 14.1122 12.0943 14.2745 12.0943H15.2826V18.2024C15.2826 18.3647 15.4143 18.4964 15.5766 18.4964H17.6973L17.6962 14.0538C17.6962 13.8797 17.8279 13.7398 17.9902 13.7398C18.1525 13.7398 18.2843 13.8809 18.2843 14.0538V18.494H20.405C20.5673 18.494 20.6991 18.3623 20.6991 18.2L20.6979 12.0931H21.7059C21.8682 12.0931 22 11.9614 22 11.7991V8.8879C22 7.4141 20.8873 6.1967 19.4582 6.0285L19.4581 6.02853Z" fill="white"/>
</svg>
