<svg width="22" height="29" viewBox="0 0 22 29" fill="none" xmlns="http://www.w3.org/2000/svg">
<path d="M0.581095 16.0516H6.25363L6.25363 0.594503C6.25363 0.261581 6.50832 1.90735e-06 6.83248 1.90735e-06L15.1679 1.90735e-06C15.4921 1.90735e-06 15.7467 0.261581 15.7467 0.594503L15.7467 16.0516H21.4193C21.6508 16.0516 21.8592 16.1942 21.9518 16.4083C22.0444 16.6223 21.9981 16.8601 21.8592 17.0503L11.4399 28.8216C11.2084 29.0595 10.7916 29.0595 10.5601 28.8216L0.1408 17.0503C0.00187632 16.8601 -0.0444316 16.6223 0.0481842 16.4083C0.1408 16.1942 0.349186 16.0516 0.580725 16.0516H0.581095Z" fill="#707070"/>
</svg>
