<svg width="15" height="15" viewBox="0 0 15 15" fill="none" xmlns="http://www.w3.org/2000/svg">
<path d="M6.43472 15C6.29599 15 6.15725 14.9668 6.03612 14.9167C5.65512 14.7669 5.39526 14.3997 5.39526 14V6.60026L0.301535 1.69988C0.00715881 1.41668 -0.0794632 0.983075 0.0761792 0.616539C0.250099 0.250002 0.631097 0 1.04662 0H13.971C14.3865 0 14.7682 0.250002 14.9238 0.616539C15.0795 0.983075 14.9928 1.41668 14.6985 1.69988L9.62224 6.60026V11.9336C9.62224 12.2006 9.51802 12.4506 9.31026 12.6335L7.16238 14.6999C6.97153 14.8997 6.69476 15 6.43489 15H6.43472ZM1.54941 1.19971L6.33129 5.80008C6.52214 5.98369 6.64327 6.23369 6.64327 6.49996V13.517L8.37504 11.8503V6.51696C8.37504 6.25002 8.47925 6.00002 8.68701 5.81708L13.4689 1.21671H1.54953L1.54941 1.19971Z" fill="url(#paint0_linear)"/>
<defs>
<linearGradient id="paint0_linear" x1="-0.382653" y1="4.39286" x2="16.439" y2="9.00074" gradientUnits="userSpaceOnUse">
<stop stop-color="#4EA27D"/>
<stop offset="1" stop-color="#308282"/>
</linearGradient>
</defs>
</svg>
