<svg xmlns="http://www.w3.org/2000/svg" width="37" height="65" viewBox="0 0 37 65">
    <g fill="#8E3B74" fill-rule="evenodd" transform="matrix(-1 0 0 1 37 -.577)">
        <circle cx="26.594" cy="33.042" r="2.313" transform="rotate(90 26.594 33.042)"/>
        <circle cx="10.406" cy="33.042" r="2.313" transform="rotate(90 10.406 33.042)"/>
        <circle cx="34.688" cy="33.042" r="2.313" transform="rotate(90 34.687 33.042)"/>
        <circle cx="18.5" cy="33.042" r="2.313" transform="rotate(90 18.5 33.042)"/>
        <circle cx="2.313" cy="33.042" r="2.313" transform="rotate(90 2.312 33.042)"/>
        <circle cx="26.594" cy="12.23" r="2.313" transform="rotate(90 26.594 12.23)"/>
        <circle cx="10.406" cy="12.23" r="2.313" transform="rotate(90 10.406 12.23)"/>
        <circle cx="18.5" cy="12.23" r="2.313" transform="rotate(90 18.5 12.23)"/>
        <circle cx="2.313" cy="12.23" r="2.313" transform="rotate(90 2.313 12.23)"/>
        <circle cx="26.594" cy="52.698" r="2.313" transform="rotate(90 26.594 52.698)"/>
        <circle cx="18.5" cy="52.698" r="2.313" transform="rotate(90 18.5 52.698)"/>
        <circle cx="10.406" cy="2.98" r="2.313" transform="rotate(90 10.406 2.98)"/>
        <circle cx="18.5" cy="2.98" r="2.313" transform="rotate(90 18.5 2.98)"/>
        <circle cx="26.594" cy="43.448" r="2.313" transform="rotate(90 26.594 43.448)"/>
        <circle cx="10.406" cy="43.448" r="2.313" transform="rotate(90 10.406 43.448)"/>
        <circle cx="34.688" cy="43.448" r="2.313" transform="rotate(90 34.687 43.448)"/>
        <circle cx="18.5" cy="43.448" r="2.313" transform="rotate(90 18.5 43.448)"/>
        <circle cx="2.313" cy="43.448" r="2.313" transform="rotate(90 2.312 43.448)"/>
        <circle cx="26.594" cy="22.636" r="2.313" transform="rotate(90 26.594 22.636)"/>
        <circle cx="18.5" cy="22.636" r="2.313" transform="rotate(90 18.5 22.636)"/>
        <circle cx="26.594" cy="63.105" r="2.313" transform="rotate(90 26.594 63.105)"/>
        <circle cx="10.406" cy="63.105" r="2.313" transform="rotate(90 10.406 63.105)"/>
        <circle cx="34.688" cy="63.105" r="2.313" transform="rotate(90 34.688 63.105)"/>
        <circle cx="18.5" cy="63.105" r="2.313" transform="rotate(90 18.5 63.105)"/>
        <circle cx="2.313" cy="63.105" r="2.313" transform="rotate(90 2.312 63.105)"/>
    </g>
</svg>
