<svg width="125" height="125" viewBox="0 0 125 125" fill="none" xmlns="http://www.w3.org/2000/svg">
<path fill-rule="evenodd" clip-rule="evenodd" d="M71.0022 82.3565H68.4843V54.999C68.4843 53.558 67.4024 52.1172 65.6025 52.1172H54.0849C52.285 52.1172 51.2031 53.1991 51.2031 54.999V61.1168C51.2031 62.5578 52.285 63.9987 54.0849 63.9987H56.2439V82.3566H54.0849C52.285 82.3566 51.2031 83.7976 51.2031 85.5975V91.3563C51.2031 93.1562 52.285 94.2381 54.0849 94.2381H71.0072C72.8071 94.2381 74.248 93.1562 74.248 91.3563V85.5975C74.248 83.7976 72.8071 82.3566 71.0072 82.3566L71.0022 82.3565Z" fill="#6E6E6E"/>
<path fill-rule="evenodd" clip-rule="evenodd" d="M62.3574 0.640625C96.9148 0.640625 124.637 28.3621 124.637 62.9207C124.637 97.1192 96.9161 124.841 62.3574 124.841C28.1589 124.841 0.4375 97.1192 0.4375 62.9207C0.4375 28.3633 28.1589 0.640625 62.3574 0.640625ZM62.3574 115.123C91.1569 115.123 114.919 91.7239 114.919 62.9257C114.919 33.7672 91.5196 10.3642 62.3574 10.3642C33.5579 10.3642 10.1599 34.1225 10.1599 62.9257C10.1599 91.7252 33.5592 115.123 62.3574 115.123Z" fill="#6E6E6E"/>
<path fill-rule="evenodd" clip-rule="evenodd" d="M61.9966 31.2383C65.9555 31.2383 69.1964 34.4792 69.1964 38.797C69.1964 42.7558 65.9555 45.9967 61.9966 45.9967C58.0378 45.9967 54.7969 42.7558 54.7969 38.797C54.7969 34.479 58.0378 31.2383 61.9966 31.2383Z" fill="#6E6E6E"/>
</svg>
