<svg width="20" height="20" viewBox="0 0 20 20" fill="none" xmlns="http://www.w3.org/2000/svg">
<path fill-rule="evenodd" clip-rule="evenodd" d="M10.0266 0C15.5384 0 20 4.4618 20 10.0266C20 15.5384 15.5382 20 10.0266 20C4.4626 20 0 15.5382 0 10.0266C0 4.4626 4.4618 0 10.0266 0ZM11.7063 13.8586H11.1813V8.4516C11.1813 8.13676 10.9188 7.87426 10.6039 7.87426H8.29454C7.9797 7.87426 7.7172 8.13676 7.7172 8.4516V9.65864C7.7172 9.97348 7.9797 10.236 8.29454 10.236H8.7672V13.8578H8.29454C7.9797 13.8578 7.7172 14.1203 7.7172 14.4351V15.5898C7.7172 15.9046 7.9797 16.1671 8.29454 16.1671H11.7063C12.0212 16.1671 12.2837 15.957 12.2837 15.5898V14.4351C12.2837 14.1203 12.0212 13.8578 11.7063 13.8578L11.7063 13.8586ZM9.86878 3.832C10.6563 3.832 11.286 4.46168 11.286 5.24918C11.286 6.03668 10.6563 6.66636 9.86878 6.66636C9.08128 6.66636 8.4516 6.03668 8.4516 5.24918C8.4516 4.46168 9.08128 3.832 9.86878 3.832Z" fill="#005EA5"/>
</svg>
