<svg width="118" height="118" viewBox="0 0 118 118" fill="none" xmlns="http://www.w3.org/2000/svg">
<path fill-rule="evenodd" clip-rule="evenodd" d="M67.2836 77.8272H64.9027V51.9593C64.9027 50.5968 63.8798 49.2344 62.1778 49.2344H51.2874C49.5855 49.2344 48.5625 50.2574 48.5625 51.9593V57.744C48.5625 59.1065 49.5855 60.4689 51.2874 60.4689H53.3288V77.8273H51.2874C49.5855 77.8273 48.5625 79.1899 48.5625 80.8918V86.337C48.5625 88.0389 49.5855 89.0619 51.2874 89.0619H67.2883C68.9902 89.0619 70.3527 88.0389 70.3527 86.337V80.8918C70.3527 79.1899 68.9902 77.8273 67.2883 77.8273L67.2836 77.8272Z" fill="url(#paint0_linear)"/>
<path fill-rule="evenodd" clip-rule="evenodd" d="M59.111 0.5625C91.7868 0.5625 118 26.7746 118 59.4515C118 91.788 91.788 118 59.111 118C26.7746 118 0.5625 91.788 0.5625 59.4515C0.5625 26.7757 26.7746 0.5625 59.111 0.5625ZM59.111 108.812C86.3424 108.812 108.811 86.6865 108.811 59.4562C108.811 31.8854 86.6853 9.75668 59.111 9.75668C31.8796 9.75668 9.75551 32.2213 9.75551 59.4562C9.75551 86.6876 31.8807 108.812 59.111 108.812Z" fill="url(#paint1_linear)"/>
<path fill-rule="evenodd" clip-rule="evenodd" d="M58.7726 29.4961C62.5159 29.4961 65.5803 32.5605 65.5803 36.6432C65.5803 40.3865 62.5159 43.451 58.7726 43.451C55.0293 43.451 51.9648 40.3865 51.9648 36.6432C51.9648 32.5604 55.0293 29.4961 58.7726 29.4961Z" fill="url(#paint2_linear)"/>
<defs>
<linearGradient id="paint0_linear" x1="48.0066" y1="60.8981" x2="73.6996" y2="64.7487" gradientUnits="userSpaceOnUse">
<stop stop-color="#4EA27D"/>
<stop offset="1" stop-color="#308282"/>
</linearGradient>
<linearGradient id="paint1_linear" x1="-2.43335" y1="34.9549" x2="129.266" y2="71.0308" gradientUnits="userSpaceOnUse">
<stop stop-color="#4EA27D"/>
<stop offset="1" stop-color="#308282"/>
</linearGradient>
<linearGradient id="paint2_linear" x1="51.6175" y1="33.5829" x2="66.9379" y2="37.6774" gradientUnits="userSpaceOnUse">
<stop stop-color="#4EA27D"/>
<stop offset="1" stop-color="#308282"/>
</linearGradient>
</defs>
</svg>
