<svg width="80" height="81" viewBox="0 0 80 81" fill="none" xmlns="http://www.w3.org/2000/svg">
<path d="M39.4227 71.0495V74.4066V71.0495ZM16.85 60.8104L19.8527 62.3118C20.4627 61.0918 20.2739 59.624 19.375 58.5981L16.85 60.8104ZM11.7304 71.0495L8.7277 69.5481C8.20736 70.5888 8.26297 71.8247 8.87466 72.8144C9.48636 73.8042 10.5669 74.4066 11.7304 74.4066L11.7304 71.0495ZM66.0656 41.0495C66.0656 55.7639 54.1372 67.6924 39.4227 67.6924V74.4066C57.8454 74.4066 72.7799 59.4721 72.7799 41.0495H66.0656ZM39.4227 14.4066C54.1372 14.4066 66.0656 26.3351 66.0656 41.0495H72.7799C72.7799 22.6269 57.8454 7.69236 39.4227 7.69236V14.4066ZM12.7799 41.0495C12.7799 26.3351 24.7083 14.4066 39.4227 14.4066V7.69236C21.0001 7.69236 6.06559 22.6269 6.06559 41.0495H12.7799ZM19.375 58.5981C15.2665 53.9087 12.7799 47.7736 12.7799 41.0495H6.06559C6.06559 49.4628 9.1847 57.1559 14.3249 63.0228L19.375 58.5981ZM14.7331 72.5509L19.8527 62.3118L13.8472 59.3091L8.7277 69.5481L14.7331 72.5509ZM39.4227 67.6924L11.7304 67.6924L11.7304 74.4066L39.4227 74.4066V67.6924Z" fill="#597EF7"/>
<path d="M37.1534 54.7308C37.1534 56.3877 38.4966 57.7308 40.1534 57.7308C41.8103 57.7308 43.1534 56.3877 43.1534 54.7308H37.1534ZM43.1534 32.1154C43.1534 30.4586 41.8103 29.1154 40.1534 29.1154C38.4966 29.1154 37.1534 30.4586 37.1534 32.1154H43.1534ZM43 23.4179C43 21.7611 41.6569 20.4179 40 20.4179C38.3431 20.4179 37 21.7611 37 23.4179H43ZM37 25.0333C37 26.6901 38.3431 28.0333 40 28.0333C41.6569 28.0333 43 26.6901 43 25.0333H37ZM30.9231 29.1169C29.2662 29.1169 27.9231 30.46 27.9231 32.1169C27.9231 33.7737 29.2662 35.1169 30.9231 35.1169V29.1169ZM40.1539 35.1169C41.8107 35.1169 43.1539 33.7737 43.1539 32.1169C43.1539 30.46 41.8107 29.1169 40.1539 29.1169V35.1169ZM30.7697 51.7326C29.1128 51.7326 27.7697 53.0758 27.7697 54.7326C27.7697 56.3895 29.1128 57.7326 30.7697 57.7326V51.7326ZM49.2312 57.7326C50.888 57.7326 52.2312 56.3895 52.2312 54.7326C52.2312 53.0758 50.888 51.7326 49.2312 51.7326V57.7326ZM43.1534 54.7308V32.1154H37.1534V54.7308H43.1534ZM37 23.4179V25.0333H43V23.4179H37ZM30.9231 35.1169H40.1539V29.1169H30.9231V35.1169ZM30.7697 57.7326H49.2312V51.7326H30.7697V57.7326Z" fill="#597EF7"/>
</svg>
