<svg width="61" height="59" viewBox="0 0 61 59" fill="none" xmlns="http://www.w3.org/2000/svg">
<path d="M59.419 56.3155H57.8644H53.6292H47.3667H39.7534H31.3865H22.9421H15.0968H8.43945H3.65674C2.90268 56.3155 2.14598 56.2948 1.38934 56.3155H1.29121L2.58241 57.6067V52.4108V51.6671L1.29121 52.9583H2.84587H7.08105H13.3435H20.9568H29.3238H37.7681H45.6134H52.2708H57.0535C57.8075 52.9583 58.5643 52.9789 59.3209 52.9583H59.419C58.9852 52.5244 58.5616 52.1009 58.1278 51.6671V56.863V57.6067C58.1278 58.2833 58.7218 58.9289 59.419 58.8979C60.1163 58.8669 60.7102 58.3298 60.7102 57.6067V52.4108V51.6671C60.7102 50.9698 60.1163 50.3759 59.419 50.3759H57.8644H53.6292H47.3667H39.7534H31.3865H22.9421H15.0968H8.43945H3.65674C2.90268 50.3759 2.14598 50.3629 1.38934 50.3759H1.29121C0.593938 50.3759 0 50.9698 0 51.6671V56.863V57.6067C0 58.304 0.593965 58.8979 1.29121 58.8979H2.84587H7.08105H13.3435H20.9568H29.3238H37.7681H45.6134H52.2708H57.0535C57.8075 58.8979 58.5643 58.9108 59.3209 58.8979H59.419C60.0956 58.8979 60.7412 58.3039 60.7102 57.6067C60.6844 56.9043 60.1473 56.3155 59.419 56.3155Z" fill="black"/>
<path d="M56.8362 18.6786V21.9067C57.27 21.4728 57.6935 21.0493 58.1274 20.6155H56.6425H52.6009H46.6303H39.3429H31.3581H23.2959H15.7758H9.42298H4.85203C4.12891 20.6155 3.40586 20.5948 2.6828 20.6155H2.58467C3.01852 21.0493 3.44206 21.4729 3.87588 21.9067V18.6786C3.66412 19.0531 3.44977 19.4224 3.23543 19.7942C4.15992 19.2468 5.08963 18.6889 6.01155 18.1415C8.23247 16.8193 10.4611 15.4945 12.6795 14.1697C15.3601 12.5737 18.0381 10.9804 20.7159 9.38697C23.0401 8.00539 25.3643 6.61859 27.6886 5.23443C28.8119 4.56301 29.9818 3.93549 31.0767 3.2201C31.0897 3.20719 31.1077 3.19945 31.1232 3.19428H29.8191C30.7358 3.74176 31.6526 4.29958 32.5694 4.84705C34.7696 6.16926 36.9802 7.49405 39.1805 8.81884C41.8352 10.4148 44.4952 12.0082 47.1475 13.6016C49.4536 14.9831 51.7572 16.3699 54.0633 17.7541C55.1789 18.4255 56.2842 19.1279 57.4205 19.7684C57.4334 19.7736 57.4514 19.7891 57.4669 19.7942C58.048 20.1429 58.9131 19.9415 59.2359 19.3294C59.5639 18.7045 59.3909 17.9349 58.7711 17.5604C57.8543 17.0129 56.9376 16.4551 56.0208 15.9076C53.8205 14.5854 51.6099 13.2606 49.4097 11.9359C46.755 10.3399 44.095 8.74654 41.4427 7.15314C39.1366 5.77156 36.833 4.38476 34.5269 3.0006C33.4112 2.32918 32.3059 1.62675 31.1697 0.986272C31.1568 0.981106 31.1387 0.965612 31.1232 0.960447C30.7307 0.728028 30.2142 0.728028 29.819 0.960447C28.7086 1.62671 27.593 2.28266 26.4825 2.94892C23.8949 4.4932 21.3047 6.03497 18.7092 7.57151C15.7704 9.32239 12.8342 11.063 9.89799 12.8139C7.72097 14.1128 5.54659 15.4015 3.36441 16.7005C2.90473 16.9716 2.44765 17.2376 1.99056 17.5217C1.96474 17.5346 1.94408 17.5475 1.91825 17.5604C1.38885 17.9013 1.2778 18.4074 1.2778 18.9756V21.3463V21.9144C1.2778 22.6117 1.87177 23.2056 2.56901 23.2056H4.05392H8.09546H14.066H21.3534H29.3383H37.4005H44.9206H51.2734H55.8443C56.5675 23.2056 57.2905 23.2185 58.0136 23.2056H58.1117C58.809 23.2056 59.4029 22.6116 59.4029 21.9144V18.6864C59.4029 18.0098 58.8089 17.3641 58.1117 17.3951C57.43 17.4184 56.836 17.9555 56.836 18.6786L56.8362 18.6786Z" fill="black"/>
<path d="M12.2735 50.3756H6.07051H5.18734C5.62119 50.8095 6.04473 51.233 6.47855 51.6668C6.49146 50.8276 6.50437 49.9882 6.51728 49.149C6.54827 47.1346 6.58185 45.1203 6.61542 43.106C6.65416 40.6656 6.69289 38.2304 6.73163 35.7929C6.76262 33.6882 6.80394 31.5783 6.83493 29.4711C6.85559 28.451 6.9124 27.4257 6.88657 26.4031V26.3566L5.59537 27.6478H11.0701H11.8655L10.5743 26.3566C10.5872 27.1959 10.6001 28.0353 10.613 28.8745C10.644 30.8889 10.6776 32.9032 10.7112 34.9174C10.7499 37.3578 10.7886 39.7931 10.8274 42.2306C10.8584 44.3353 10.8997 46.4452 10.9307 48.5524C10.9513 49.5725 10.9358 50.5978 10.9823 51.6204V51.6668C10.9952 52.3434 11.5711 52.9891 12.2735 52.9581C12.9656 52.9271 13.5777 52.3899 13.5647 51.6668C13.5518 50.8276 13.5389 49.9882 13.526 49.149C13.495 47.1346 13.4614 45.1203 13.4279 43.106C13.3891 40.6656 13.3504 38.2304 13.3117 35.7929C13.2807 33.6882 13.2393 31.5783 13.2084 29.4711C13.1877 28.451 13.2032 27.4257 13.1567 26.4031V26.3566C13.1438 25.6594 12.5757 25.0654 11.8655 25.0654H6.39075H5.59537C4.89294 25.0654 4.31705 25.6594 4.30416 26.3566C4.29125 27.1959 4.27834 28.0353 4.26542 28.8745C4.23443 30.8889 4.20086 32.9032 4.16729 34.9174C4.12855 37.3578 4.08981 39.7931 4.05108 42.2306C4.02009 44.3353 3.97878 46.4452 3.94778 48.5524C3.92712 49.5725 3.88322 50.5978 3.89613 51.6204V51.6668C3.88322 52.3641 4.49785 52.9581 5.18734 52.9581H11.3904H12.2735C12.9501 52.9581 13.5958 52.3641 13.5648 51.6668C13.5338 50.9644 12.9966 50.3756 12.2735 50.3756L12.2735 50.3756Z" fill="black"/>
<path d="M26.5956 50.3756H20.3926H19.5094L20.8006 51.6668C20.8135 50.8276 20.8265 49.9882 20.8394 49.149C20.8704 47.1346 20.9039 45.1203 20.9375 43.106C20.9762 40.6656 21.015 38.2304 21.0537 35.7929C21.0847 33.6882 21.126 31.5783 21.157 29.4711C21.1777 28.451 21.2345 27.4257 21.2087 26.4031V26.3566C20.7748 26.7905 20.3513 27.214 19.9175 27.6478H25.3922H26.1876C25.7537 27.214 25.3302 26.7905 24.8964 26.3566C24.9093 27.1959 24.9222 28.0353 24.9351 28.8745C24.9661 30.8889 24.9997 32.9032 25.0332 34.9174C25.072 37.3578 25.1107 39.7931 25.1495 42.2306C25.1804 44.3353 25.2218 46.4452 25.2528 48.5524C25.2734 49.5725 25.2579 50.5978 25.3044 51.6204V51.6668C25.3173 52.3434 25.8932 52.9891 26.5956 52.9581C27.2877 52.9271 27.8998 52.3899 27.8868 51.6668C27.8739 50.8276 27.861 49.9882 27.8481 49.149C27.8171 47.1346 27.7835 45.1203 27.7499 43.106C27.7112 40.6656 27.6725 38.2304 27.6337 35.7929C27.6027 33.6882 27.5614 31.5783 27.5304 29.4711C27.5098 28.451 27.5253 27.4257 27.4788 26.4031V26.3566C27.4659 25.6594 26.8977 25.0654 26.1876 25.0654H20.7128H19.9175C19.215 25.0654 18.6391 25.6594 18.6262 26.3566C18.6133 27.1959 18.6004 28.0353 18.5875 28.8745C18.5565 30.8889 18.5229 32.9032 18.4894 34.9174C18.4506 37.3578 18.4119 39.7931 18.3732 42.2306C18.3422 44.3353 18.3009 46.4452 18.2699 48.5524C18.2492 49.5725 18.2053 50.5978 18.2182 51.6204V51.6668C18.2053 52.3641 18.8199 52.9581 19.5094 52.9581H25.7125H26.5956C27.2722 52.9581 27.9178 52.3641 27.8868 51.6668C27.8533 50.9644 27.3187 50.3756 26.5956 50.3756V50.3756Z" fill="black"/>
<path d="M55.2348 50.3756H49.0318H48.1486C48.5825 50.8095 49.006 51.233 49.4398 51.6668C49.4527 50.8276 49.4656 49.9882 49.4786 49.149C49.5096 47.1346 49.5431 45.1203 49.5767 43.106C49.6154 40.6656 49.6542 38.2304 49.6929 35.7929C49.7239 33.6882 49.7652 31.5783 49.7962 29.4711C49.8169 28.451 49.8737 27.4257 49.8479 26.4031V26.3566L48.5566 27.6478H54.0314H54.8268L53.5356 26.3566C53.5485 27.1959 53.5614 28.0353 53.5743 28.8745C53.6053 30.8889 53.6389 32.9032 53.6724 34.9174C53.7112 37.3578 53.7499 39.7931 53.7887 42.2306C53.8196 44.3353 53.861 46.4452 53.8919 48.5524C53.9126 49.5725 53.8971 50.5978 53.9436 51.6204V51.6668C53.9565 52.3434 54.5324 52.9891 55.2348 52.9581C55.9269 52.9271 56.539 52.3899 56.526 51.6668C56.5131 50.8276 56.5002 49.9882 56.4873 49.149C56.4563 47.1346 56.4227 45.1203 56.3891 43.106C56.3504 40.6656 56.3117 38.2304 56.2729 35.7929C56.2419 33.6882 56.2006 31.5783 56.1696 29.4711C56.149 28.451 56.1645 27.4257 56.118 26.4031V26.3566C56.1051 25.6594 55.5369 25.0654 54.8268 25.0654H49.352H48.5566C47.8542 25.0654 47.2783 25.6594 47.2654 26.3566C47.2525 27.1959 47.2396 28.0353 47.2267 28.8745C47.1957 30.8889 47.1621 32.9032 47.1286 34.9174C47.0898 37.3578 47.0511 39.7931 47.0124 42.2306C46.9814 44.3353 46.94 46.4452 46.9091 48.5524C46.8884 49.5725 46.8445 50.5978 46.8574 51.6204V51.6668C46.8445 52.3641 47.4591 52.9581 48.1486 52.9581H54.3516H55.2348C55.9114 52.9581 56.557 52.3641 56.526 51.6668C56.5002 50.9644 55.9631 50.3756 55.2348 50.3756V50.3756Z" fill="black"/>
<path d="M40.9127 50.3751H34.7097H33.8265L35.1177 51.6663C35.1306 50.8348 35.1435 49.993 35.1564 49.1614C35.1874 47.1522 35.221 45.1457 35.2546 43.1391C35.2933 40.7116 35.3321 38.2789 35.3708 35.8517C35.4018 33.747 35.4431 31.65 35.4741 29.5453C35.4947 28.5252 35.5516 27.4923 35.5257 26.4671V26.4206C35.0919 26.8545 34.6683 27.278 34.2345 27.7118H39.7093H40.5047C40.0708 27.278 39.6473 26.8544 39.2135 26.4206C39.2264 27.2521 39.2393 28.094 39.2522 28.9256C39.2832 30.9348 39.3167 32.9413 39.3503 34.9479C39.3891 37.3754 39.4278 39.8081 39.4665 42.2353C39.4975 44.34 39.5388 46.4369 39.5698 48.5416C39.5905 49.5694 39.575 50.5947 39.6215 51.6199V51.6663C39.6344 52.3429 40.2103 52.9886 40.9127 52.9576C41.6048 52.9266 42.2169 52.3894 42.2039 51.6663C42.191 50.8348 42.1781 49.993 42.1652 49.1614C42.1342 47.1522 42.1006 45.1457 42.067 43.1391C42.0283 40.7116 41.9895 38.2789 41.9508 35.8517C41.9198 33.747 41.8785 31.65 41.8475 29.5453C41.8269 28.5175 41.8423 27.4923 41.7959 26.4671V26.4206C41.7829 25.7233 41.2148 25.1294 40.5047 25.1294H35.0299H34.2345C33.5321 25.1294 32.9562 25.7234 32.9433 26.4206C32.9304 27.2521 32.9175 28.094 32.9046 28.9256C32.8736 30.9348 32.84 32.9413 32.8065 34.9479C32.7677 37.3754 32.729 39.8081 32.6902 42.2353C32.6593 44.34 32.6179 46.4369 32.5869 48.5416C32.5663 49.5694 32.5224 50.5947 32.5353 51.6199V51.6663C32.5224 52.3636 33.137 52.9576 33.8265 52.9576H40.0295H40.9127C41.5893 52.9576 42.2349 52.3636 42.2039 51.6663C42.1729 50.9639 41.6358 50.3751 40.9127 50.3751Z" fill="black"/>
<path d="M33.3283 13.2604C33.3283 13.3637 33.3231 13.467 33.3154 13.5781C33.2896 13.888 33.3541 13.4025 33.3154 13.6297C33.2767 13.8312 33.2327 14.0223 33.1734 14.2185C33.1527 14.2702 33.1346 14.327 33.1165 14.3786C33.0856 14.469 33.1217 14.4819 33.1165 14.3838C33.1114 14.2857 33.163 14.2934 33.1165 14.3838C33.0907 14.4355 33.0701 14.4871 33.0442 14.5388C32.9538 14.7144 32.8428 14.8796 32.7395 15.0423C32.6233 15.2283 32.8996 14.8667 32.7137 15.0811C32.6491 15.1534 32.5846 15.2283 32.52 15.3006C32.4425 15.3781 32.192 15.7009 32.0861 15.6931C32.1171 15.6931 32.3056 15.5459 32.143 15.6415C32.1042 15.6621 32.0706 15.688 32.0397 15.7138C31.957 15.7654 31.8718 15.8171 31.7866 15.8687C31.7143 15.9075 31.6394 15.9462 31.5593 15.9849C31.5593 15.9849 31.4173 16.0624 31.4044 16.0572C31.425 16.0624 31.6678 15.9591 31.4767 16.0263C31.283 16.0831 31.0945 16.1502 30.8956 16.1941C30.844 16.207 30.5083 16.2664 30.72 16.2251C30.9137 16.1864 30.5961 16.2303 30.5393 16.2303C30.3533 16.2354 30.0873 16.1657 29.9143 16.2096C29.9143 16.2096 30.1855 16.2561 30.0383 16.2303C29.9814 16.2174 29.9221 16.2096 29.8627 16.1993C29.7645 16.1786 29.6612 16.1528 29.5657 16.127C29.4675 16.1011 29.372 16.0702 29.2816 16.0366C28.9769 15.9384 29.4366 16.1192 29.2351 16.0237C29.0414 15.9333 28.8607 15.8377 28.6799 15.7138C28.6489 15.688 28.6076 15.6673 28.5766 15.6415C28.494 15.5898 28.4862 15.6286 28.5714 15.6415C28.6954 15.6621 28.6179 15.6802 28.5404 15.6105C28.5095 15.5847 28.4759 15.5588 28.4423 15.5278C28.2874 15.3858 28.1453 15.2386 28.0033 15.0759C27.9904 15.063 27.9207 14.9984 27.9258 14.9778C27.9258 14.9649 28.073 15.1973 28.0033 15.0682C27.9568 14.9855 27.8948 14.9081 27.8432 14.8228C27.7915 14.7402 27.745 14.655 27.696 14.5646C27.6753 14.5259 27.6572 14.4871 27.6392 14.4484C27.6263 14.4226 27.6133 14.3967 27.6004 14.3709C27.5539 14.2676 27.5539 14.2676 27.6004 14.3709C27.5953 14.469 27.6314 14.4613 27.6004 14.3657C27.5798 14.3141 27.5617 14.2573 27.5436 14.2056C27.5178 14.123 27.492 14.0378 27.4713 13.9526C27.4455 13.8544 27.4248 13.7511 27.4067 13.6556C27.4016 13.6091 27.3938 13.5652 27.3861 13.5265C27.4636 13.8363 27.4067 13.6607 27.399 13.5574C27.3861 13.3638 27.3861 13.1701 27.3938 12.9764C27.3938 12.9299 27.4197 12.8421 27.4067 12.8008C27.4067 12.8008 27.3603 13.0719 27.3861 12.9247C27.4067 12.8085 27.4248 12.6975 27.4584 12.5839C27.4713 12.527 27.5746 12.0545 27.6262 12.0467C27.6262 12.0467 27.5023 12.2998 27.5953 12.119C27.6159 12.0803 27.634 12.0415 27.6521 12.0028C27.7037 11.8995 27.7554 11.8014 27.8122 11.7058C27.8638 11.6232 27.9206 11.538 27.9723 11.4605C28.1014 11.2591 27.8173 11.6361 27.9723 11.4553C28.1066 11.2952 28.2512 11.1377 28.4061 10.9957C28.4526 10.9569 28.574 10.802 28.6334 10.8097C28.6541 10.8097 28.4061 10.9517 28.543 10.8872C28.5818 10.8665 28.6153 10.8355 28.6463 10.8149C28.8219 10.6987 29.0079 10.5954 29.1938 10.505C29.4572 10.3759 29.0182 10.5566 29.2403 10.4843C29.3384 10.4533 29.4262 10.4198 29.5243 10.3939C29.607 10.3681 29.6922 10.3475 29.7774 10.3294C29.8239 10.3165 30.1958 10.2519 29.9969 10.2829C29.8032 10.3139 30.1131 10.2777 30.1777 10.2777C30.281 10.2726 30.3895 10.2726 30.4953 10.2777C30.5857 10.2777 30.6761 10.2906 30.7588 10.2984C30.9395 10.3036 30.5005 10.2519 30.6813 10.2855C30.7381 10.2984 30.7975 10.3061 30.8569 10.3165C31.0841 10.3629 31.2959 10.4585 31.5232 10.5024C31.6704 10.5334 31.394 10.4559 31.4147 10.4508C31.4405 10.4456 31.5748 10.5282 31.6084 10.5411C31.7117 10.5928 31.8098 10.6444 31.9054 10.7013C31.988 10.7529 32.0732 10.8097 32.1507 10.8614C32.3573 10.9905 32.0939 10.8097 32.0939 10.8097C32.1197 10.8097 32.2023 10.9001 32.223 10.9182C32.3909 11.0654 32.551 11.2229 32.693 11.3882C32.7137 11.4088 32.8015 11.4966 32.8015 11.5173C32.8015 11.4915 32.6465 11.2901 32.7498 11.4605C32.8066 11.5586 32.8738 11.6464 32.9306 11.7446C32.9874 11.8427 33.0391 11.946 33.0907 12.0415C33.1114 12.0803 33.1217 12.119 33.1424 12.1578C33.2147 12.2998 33.0391 11.8608 33.1217 12.1268C33.1863 12.3334 33.2508 12.5348 33.2973 12.7466C33.3102 12.8034 33.318 12.8628 33.3283 12.9222C33.3593 13.0978 33.3076 12.6639 33.3154 12.8447C33.3154 12.997 33.3283 13.1313 33.3283 13.2605C33.3335 13.937 33.9171 14.5827 34.6195 14.5517C35.3116 14.5207 35.9184 13.9835 35.9107 13.2605C35.8849 10.8975 34.4077 8.84446 32.1971 8.02582C30.1131 7.25106 27.5539 7.92252 26.1413 9.64758C24.6435 11.4682 24.3465 14.0507 25.5731 16.1037C26.7998 18.1438 29.1679 19.138 31.4869 18.6991C34.0513 18.2135 35.8771 15.8273 35.9029 13.263C35.9081 12.5864 35.3012 11.9408 34.6117 11.9718C33.9144 12.0002 33.3334 12.5373 33.3282 13.2604L33.3283 13.2604Z" fill="black"/>
</svg>
