<svg width="94" height="97" viewBox="0 0 94 97" fill="none" xmlns="http://www.w3.org/2000/svg">
<path d="M91.7419 92.6017H89.3549H82.8523H73.2371H61.5479H48.7015H35.7364H23.6909H13.4694H6.12616C4.96841 92.6017 3.80659 92.5672 2.64487 92.6017H2.4942L4.47668 94.7531V86.0956V84.8563L2.4942 87.0078H4.88117H11.3837H20.9989H32.6882H45.5345H58.4997H70.5452H80.7667H88.1099C89.2677 87.0078 90.4295 87.0422 91.5912 87.0078H91.7419C91.0758 86.2849 90.4255 85.5792 89.7594 84.8563V93.5139V94.7531C89.7594 95.8805 90.6713 96.9562 91.7419 96.9046C92.8124 96.8529 93.7244 95.9579 93.7244 94.7531V86.0956V84.8563C93.7244 83.6945 92.8124 82.7049 91.7419 82.7049H89.3549H82.8523H73.2371H61.5479H48.7015H35.7364H23.6909H13.4694H6.12616C4.96841 82.7049 3.80659 82.6834 2.64487 82.7049H2.4942C1.42363 82.7049 0.511719 83.6946 0.511719 84.8563V93.5139V94.7531C0.511719 95.9149 1.42367 96.9046 2.4942 96.9046H4.88117H11.3837H20.9989H32.6882H45.5345H58.4997H70.5452H80.7667H88.1099C89.2677 96.9046 90.4295 96.9261 91.5912 96.9046H91.7419C92.7807 96.9046 93.772 95.9149 93.7244 94.7531C93.6847 93.5827 92.86 92.6017 91.7419 92.6017Z" fill="url(#paint0_linear)"/>
<path d="M87.787 29.8911V35.2698C88.4531 34.5469 89.1034 33.8412 89.7695 33.1183H87.4896H81.2843H72.1173H60.9284H48.6688H36.2903H24.7442H14.9902H7.97213C6.86188 33.1183 5.75173 33.0839 4.64157 33.1183H4.4909C5.15702 33.8412 5.80731 34.5469 6.47338 35.2698V29.8911C6.14825 30.515 5.81915 31.1304 5.49006 31.75C6.90949 30.8377 8.33695 29.9083 9.75243 28.9961C13.1624 26.793 16.5842 24.5856 19.9901 22.3782C24.1058 19.7189 28.2176 17.0641 32.329 14.4091C35.8975 12.1071 39.466 9.79633 43.0347 7.49C44.7594 6.37126 46.5556 5.32567 48.2368 4.13368C48.2566 4.11216 48.2843 4.09925 48.3081 4.09065H46.3058C47.7133 5.00288 49.1209 5.93234 50.5285 6.84453C53.9067 9.04764 57.3008 11.255 60.679 13.4625C64.755 16.1217 68.839 18.7766 72.9112 21.4315C76.452 23.7336 79.9888 26.0443 83.5296 28.3506C85.2425 29.4694 86.9395 30.6398 88.6841 31.7069C88.7039 31.7156 88.7317 31.7414 88.7555 31.75C89.6476 32.3309 90.9759 31.9953 91.4715 30.9754C91.9751 29.9341 91.7094 28.6518 90.7578 28.0279C89.3503 27.1157 87.9427 26.1862 86.535 25.274C83.1569 23.0709 79.7628 20.8635 76.3846 18.6561C72.3086 15.9968 68.2246 13.342 64.1523 10.687C60.6116 8.38498 57.0747 6.07425 53.534 3.76793C51.8211 2.64919 50.124 1.47879 48.3795 0.411602C48.3597 0.402995 48.3319 0.377178 48.3081 0.368572C47.7054 -0.0186906 46.9124 -0.0186906 46.3057 0.368572C44.6008 1.47872 42.8879 2.57168 41.1829 3.68183C37.2099 6.25495 33.2331 8.82388 29.248 11.3841C24.7359 14.3015 20.2277 17.2016 15.7196 20.1191C12.377 22.2834 9.03854 24.4307 5.68808 26.595C4.98231 27.0469 4.28052 27.4901 3.57872 27.9634C3.53907 27.9849 3.50735 28.0064 3.4677 28.0279C2.65487 28.5959 2.48438 29.4392 2.48438 30.3859V34.336V35.2826C2.48438 36.4444 3.39633 37.4341 4.46686 37.4341H6.74674H12.952H22.1191H33.3079H45.5676H57.946H69.4921H79.2461H86.2642C87.3744 37.4341 88.4846 37.4556 89.5947 37.4341H89.7454C90.816 37.4341 91.7279 36.4444 91.7279 35.2826V29.904C91.7279 28.7766 90.8159 27.7009 89.7454 27.7525C88.6987 27.7913 87.7867 28.6863 87.7867 29.8911L87.787 29.8911Z" fill="url(#paint1_linear)"/>
<path d="M19.3582 82.7116H9.83425H8.47825C9.14438 83.4345 9.79466 84.1402 10.4607 84.8631C10.4806 83.4647 10.5004 82.0661 10.5202 80.6677C10.5678 77.3114 10.6193 73.9551 10.6709 70.5988C10.7304 66.5326 10.7898 62.4749 10.8493 58.4134C10.8969 54.9065 10.9603 51.391 11.0079 47.8798C11.0396 46.1801 11.1269 44.4718 11.0872 42.768V42.6905L9.10472 44.8419H17.5105H18.7317L16.7492 42.6905C16.769 44.0889 16.7889 45.4875 16.8087 46.8859C16.8563 50.2422 16.9078 53.5985 16.9594 56.9548C17.0188 61.021 17.0783 65.0787 17.1378 69.1402C17.1854 72.6471 17.2488 76.1626 17.2964 79.6738C17.3281 81.3735 17.3043 83.0817 17.3757 84.7856V84.8631C17.3955 85.9904 18.2797 87.0662 19.3582 87.0145C20.4208 86.9629 21.3605 86.0679 21.3407 84.8631C21.3208 83.4647 21.301 82.0661 21.2812 80.6677C21.2336 77.3114 21.1821 73.9551 21.1305 70.5988C21.071 66.5326 21.0116 62.4749 20.9521 58.4134C20.9045 54.9065 20.8411 51.391 20.7935 47.8798C20.7618 46.1801 20.7855 44.4718 20.7142 42.768V42.6905C20.6944 41.5287 19.822 40.5391 18.7317 40.5391H10.3259H9.10473C8.02624 40.5391 7.14204 41.5287 7.12225 42.6905C7.10242 44.0889 7.08259 45.4875 7.06277 46.8859C7.01519 50.2422 6.96365 53.5985 6.9121 56.9548C6.85262 61.021 6.79314 65.0787 6.73367 69.1402C6.68609 72.6471 6.62266 76.1626 6.57507 79.6738C6.54335 81.3735 6.47595 83.0817 6.49577 84.7856V84.8631C6.47595 86.0249 7.41963 87.0145 8.47825 87.0145H18.0022H19.3582C20.397 87.0145 21.3883 86.0248 21.3407 84.8631C21.2931 83.6927 20.4684 82.7116 19.3582 82.7116L19.3582 82.7116Z" fill="url(#paint2_linear)"/>
<path d="M41.3504 82.7116H31.8264H30.4704L32.4529 84.8631C32.4727 83.4647 32.4926 82.0661 32.5124 80.6677C32.56 77.3114 32.6115 73.9551 32.6631 70.5988C32.7225 66.5326 32.782 62.4749 32.8415 58.4134C32.8891 54.9065 32.9525 51.391 33.0001 47.8798C33.0318 46.1801 33.119 44.4718 33.0794 42.768V42.6905C32.4133 43.4134 31.763 44.1191 31.0969 44.8419H39.5027H40.7239C40.0578 44.1191 39.4075 43.4133 38.7414 42.6905C38.7612 44.0889 38.7811 45.4875 38.8009 46.8859C38.8485 50.2422 38.9 53.5985 38.9516 56.9548C39.011 61.021 39.0705 65.0787 39.13 69.1402C39.1776 72.6471 39.241 76.1626 39.2886 79.6738C39.3203 81.3735 39.2965 83.0817 39.3679 84.7856V84.8631C39.3877 85.9904 40.2719 87.0662 41.3504 87.0145C42.413 86.9629 43.3527 86.0679 43.3328 84.8631C43.313 83.4647 43.2932 82.0661 43.2734 80.6677C43.2258 77.3114 43.1742 73.9551 43.1227 70.5988C43.0632 66.5326 43.0037 62.4749 42.9443 58.4134C42.8967 54.9065 42.8332 51.391 42.7857 47.8798C42.7539 46.1801 42.7777 44.4718 42.7064 42.768V42.6905C42.6865 41.5287 41.8142 40.5391 40.7239 40.5391H32.3181H31.0969C30.0184 40.5391 29.1342 41.5287 29.1144 42.6905C29.0946 44.0889 29.0748 45.4875 29.055 46.8859C29.0074 50.2422 28.9558 53.5985 28.9043 56.9548C28.8448 61.021 28.7853 65.0787 28.7259 69.1402C28.6783 72.6471 28.6148 76.1626 28.5673 79.6738C28.5355 81.3735 28.4681 83.0817 28.488 84.7856V84.8631C28.4681 86.0249 29.4118 87.0145 30.4704 87.0145H39.9944H41.3504C42.3892 87.0145 43.3805 86.0248 43.3329 84.8631C43.2813 83.6927 42.4606 82.7116 41.3504 82.7116V82.7116Z" fill="url(#paint3_linear)"/>
<path d="M85.3191 82.7116H75.7952H74.4392C75.1053 83.4345 75.7556 84.1402 76.4217 84.8631C76.4415 83.4647 76.4613 82.0661 76.4812 80.6677C76.5287 77.3114 76.5803 73.9551 76.6318 70.5988C76.6913 66.5326 76.7508 62.4749 76.8102 58.4134C76.8578 54.9065 76.9213 51.391 76.9688 47.8798C77.0006 46.1801 77.0878 44.4718 77.0481 42.768V42.6905L75.0657 44.8419H83.4714H84.6926L82.7102 42.6905C82.73 44.0889 82.7498 45.4875 82.7696 46.8859C82.8172 50.2422 82.8688 53.5985 82.9203 56.9548C82.9798 61.021 83.0393 65.0787 83.0987 69.1402C83.1463 72.6471 83.2097 76.1626 83.2573 79.6738C83.2891 81.3735 83.2653 83.0817 83.3366 84.7856V84.8631C83.3565 85.9904 84.2407 87.0662 85.3191 87.0145C86.3818 86.9629 87.3215 86.0679 87.3016 84.8631C87.2818 83.4647 87.2619 82.0661 87.2421 80.6677C87.1945 77.3114 87.143 73.9551 87.0914 70.5988C87.032 66.5326 86.9725 62.4749 86.913 58.4134C86.8654 54.9065 86.802 51.391 86.7544 47.8798C86.7227 46.1801 86.7465 44.4718 86.6751 42.768V42.6905C86.6553 41.5287 85.783 40.5391 84.6926 40.5391H76.2869H75.0657C73.9872 40.5391 73.103 41.5287 73.0832 42.6905C73.0634 44.0889 73.0435 45.4875 73.0237 46.8859C72.9761 50.2422 72.9246 53.5985 72.873 56.9548C72.8136 61.021 72.7541 65.0787 72.6946 69.1402C72.647 72.6471 72.5836 76.1626 72.536 79.6738C72.5043 81.3735 72.4369 83.0817 72.4567 84.7856V84.8631C72.4369 86.0249 73.3806 87.0145 74.4392 87.0145H83.9631H85.3191C86.3579 87.0145 87.3492 86.0248 87.3016 84.8631C87.262 83.6927 86.4372 82.7116 85.3191 82.7116V82.7116Z" fill="url(#paint4_linear)"/>
<path d="M63.3308 82.7058H53.8069H52.4509L54.4334 84.8572C54.4532 83.4717 54.473 82.069 54.4929 80.6833C54.5404 77.3356 54.592 73.9923 54.6435 70.6488C54.703 66.604 54.7625 62.5507 54.822 58.5064C54.8695 54.9995 54.933 51.5055 54.9806 47.9986C55.0123 46.2989 55.0995 44.5777 55.0599 42.8695V42.7921C54.3937 43.515 53.7435 44.2207 53.0774 44.9435H61.4831H62.7043C62.0382 44.2206 61.3879 43.5149 60.7219 42.7921C60.7417 44.1776 60.7615 45.5803 60.7813 46.966C60.8289 50.3137 60.8805 53.657 60.932 57.0005C60.9915 61.0453 61.051 65.0987 61.1104 69.1429C61.158 72.6498 61.2215 76.1438 61.269 79.6507C61.3008 81.3633 61.277 83.0716 61.3483 84.7798V84.8572C61.3682 85.9846 62.2524 87.0603 63.3308 87.0087C64.3935 86.9571 65.3332 86.062 65.3133 84.8572C65.2935 83.4717 65.2737 82.069 65.2538 80.6833C65.2062 77.3356 65.1547 73.9923 65.1031 70.6488C65.0437 66.604 64.9842 62.5507 64.9247 58.5064C64.8771 54.9995 64.8137 51.5055 64.7661 47.9986C64.7344 46.286 64.7582 44.5777 64.6868 42.8695V42.7921C64.667 41.6303 63.7947 40.6406 62.7043 40.6406H54.2986H53.0774C51.9989 40.6406 51.1147 41.6303 51.0949 42.7921C51.0751 44.1776 51.0553 45.5803 51.0354 46.966C50.9878 50.3137 50.9363 53.657 50.8848 57.0005C50.8253 61.0453 50.7658 65.0987 50.7063 69.1429C50.6587 72.6498 50.5953 76.1438 50.5477 79.6507C50.516 81.3633 50.4486 83.0716 50.4684 84.7798V84.8572C50.4486 86.019 51.3923 87.0087 52.4509 87.0087H61.9748H63.3308C64.3696 87.0087 65.3609 86.019 65.3133 84.8572C65.2657 83.6868 64.441 82.7058 63.3308 82.7058Z" fill="url(#paint5_linear)"/>
<path d="M51.6804 20.8634C51.6804 21.0356 51.6725 21.2077 51.6606 21.3927C51.6209 21.9091 51.72 21.1001 51.6606 21.4788C51.6011 21.8144 51.5337 22.1328 51.4425 22.4598C51.4108 22.5459 51.383 22.6406 51.3553 22.7266C51.3077 22.8772 51.3632 22.8987 51.3553 22.7352C51.3473 22.5717 51.4266 22.5846 51.3553 22.7352C51.3156 22.8213 51.2839 22.9073 51.2442 22.9934C51.1055 23.286 50.935 23.5614 50.7764 23.8325C50.5979 24.1423 51.0222 23.5399 50.7367 23.897C50.6376 24.0175 50.5385 24.1423 50.4393 24.2628C50.3204 24.3919 49.9358 24.9297 49.7732 24.9168C49.8208 24.9168 50.1102 24.6716 49.8604 24.8308C49.801 24.8652 49.7494 24.9082 49.7018 24.9512C49.575 25.0373 49.4441 25.1234 49.3133 25.2094C49.2023 25.274 49.0873 25.3385 48.9644 25.4031C48.9644 25.4031 48.7463 25.5322 48.7265 25.5235C48.7582 25.5322 49.1309 25.36 48.8375 25.4719C48.5401 25.5666 48.2507 25.6785 47.9453 25.7516C47.866 25.7731 47.3506 25.8721 47.6757 25.8032C47.9731 25.7387 47.4854 25.8118 47.3982 25.8118C47.1127 25.8205 46.7043 25.7043 46.4386 25.7774C46.4386 25.7774 46.855 25.8549 46.629 25.8118C46.5417 25.7903 46.4505 25.7774 46.3594 25.7602C46.2087 25.7258 46.0501 25.6828 45.9034 25.6397C45.7527 25.5967 45.606 25.5451 45.4672 25.4891C44.9993 25.3256 45.7051 25.6268 45.3959 25.4676C45.0985 25.317 44.8209 25.1578 44.5434 24.9513C44.4958 24.9082 44.4324 24.8738 44.3848 24.8308C44.2579 24.7447 44.246 24.8093 44.3768 24.8308C44.5672 24.8652 44.4482 24.8953 44.3293 24.7791C44.2817 24.7361 44.2301 24.6931 44.1786 24.6414C43.9407 24.4048 43.7226 24.1595 43.5045 23.8884C43.4847 23.8669 43.3777 23.7593 43.3856 23.7249C43.3856 23.7034 43.6116 24.0907 43.5045 23.8755C43.4332 23.7378 43.338 23.6087 43.2587 23.4667C43.1794 23.3291 43.108 23.187 43.0327 23.0365C43.001 22.9719 42.9732 22.9074 42.9455 22.8428C42.9256 22.7998 42.9058 22.7568 42.886 22.7137C42.8146 22.5416 42.8146 22.5416 42.886 22.7137C42.8781 22.8773 42.9336 22.8643 42.886 22.7051C42.8543 22.6191 42.8265 22.5244 42.7988 22.4383C42.7591 22.3007 42.7195 22.1586 42.6877 22.0167C42.6481 21.8531 42.6164 21.681 42.5886 21.5218C42.5807 21.4444 42.5688 21.3712 42.5569 21.3067C42.6758 21.823 42.5886 21.5304 42.5767 21.3583C42.5569 21.0356 42.5569 20.7129 42.5688 20.3901C42.5688 20.3127 42.6084 20.1664 42.5886 20.0975C42.5886 20.0975 42.5172 20.5493 42.5569 20.3041C42.5886 20.1104 42.6164 19.9254 42.6679 19.7361C42.6877 19.6414 42.8463 18.854 42.9256 18.8411C42.9256 18.8411 42.7353 19.2628 42.8781 18.9616C42.9098 18.897 42.9375 18.8325 42.9653 18.7679C43.0446 18.5958 43.1239 18.4323 43.2111 18.2731C43.2904 18.1354 43.3776 17.9934 43.457 17.8643C43.6552 17.5287 43.219 18.1569 43.457 17.8557C43.6631 17.5889 43.8852 17.3264 44.1231 17.0898C44.1944 17.0252 44.3808 16.7671 44.472 16.78C44.5037 16.78 44.1231 17.0166 44.3332 16.9091C44.3927 16.8746 44.4442 16.823 44.4918 16.7886C44.7614 16.5949 45.0469 16.4228 45.3324 16.2722C45.7368 16.0571 45.0628 16.3583 45.4038 16.2378C45.5544 16.1862 45.6892 16.1302 45.8399 16.0872C45.9668 16.0442 46.0977 16.0097 46.2285 15.9796C46.2999 15.9581 46.8708 15.8505 46.5655 15.9022C46.2681 15.9538 46.7439 15.8936 46.8431 15.8936C47.0017 15.885 47.1682 15.885 47.3308 15.8936C47.4695 15.8936 47.6083 15.9151 47.7352 15.928C48.0128 15.9366 47.3387 15.8505 47.6162 15.9065C47.7035 15.928 47.7947 15.9409 47.8859 15.9581C48.2348 16.0356 48.5599 16.1948 48.9088 16.2679C49.1348 16.3195 48.7106 16.1905 48.7423 16.1819C48.782 16.1732 48.9881 16.3109 49.0397 16.3325C49.1983 16.4185 49.349 16.5046 49.4957 16.5992C49.6225 16.6853 49.7534 16.78 49.8723 16.866C50.1895 17.0812 49.7851 16.78 49.7851 16.78C49.8248 16.78 49.9516 16.9306 49.9834 16.9607C50.2411 17.206 50.4869 17.4684 50.705 17.7438C50.7367 17.7783 50.8715 17.9246 50.8715 17.959C50.8715 17.9159 50.6336 17.5803 50.7922 17.8643C50.8794 18.0278 50.9825 18.1741 51.0698 18.3376C51.157 18.5012 51.2363 18.6733 51.3156 18.8325C51.3473 18.897 51.3632 18.9616 51.3949 19.0261C51.5059 19.2628 51.2363 18.5313 51.3632 18.9745C51.4623 19.3187 51.5614 19.6543 51.6328 20.0072C51.6526 20.1018 51.6645 20.2008 51.6804 20.2998C51.728 20.5924 51.6487 19.8695 51.6606 20.1707C51.6606 20.4246 51.6804 20.6483 51.6804 20.8635C51.6883 21.9908 52.5844 23.0666 53.6629 23.0149C54.7255 22.9633 55.6572 22.0683 55.6453 20.8635C55.6057 16.9263 53.3377 13.5054 49.9436 12.1414C46.7439 10.8504 42.8146 11.9692 40.6456 14.8436C38.346 17.8772 37.89 22.1802 39.7733 25.6009C41.6567 29.0002 45.2926 30.6568 48.8532 29.9254C52.7905 29.1164 55.5937 25.1405 55.6334 20.8677C55.6413 19.7403 54.7095 18.6645 53.6509 18.7162C52.5803 18.7635 51.6882 19.6586 51.6803 20.8634L51.6804 20.8634Z" fill="url(#paint6_linear)"/>
<defs>
<linearGradient id="paint0_linear" x1="4.93136" y1="87.4349" x2="16.6068" y2="118.624" gradientUnits="userSpaceOnUse">
<stop stop-color="#4EA27D"/>
<stop offset="1" stop-color="#308282"/>
</linearGradient>
<linearGradient id="paint1_linear" x1="6.71575" y1="12.5333" x2="53.422" y2="57.9889" gradientUnits="userSpaceOnUse">
<stop stop-color="#4EA27D"/>
<stop offset="1" stop-color="#308282"/>
</linearGradient>
<linearGradient id="paint2_linear" x1="7.19629" y1="56.0315" x2="22.0773" y2="57.9689" gradientUnits="userSpaceOnUse">
<stop stop-color="#4EA27D"/>
<stop offset="1" stop-color="#308282"/>
</linearGradient>
<linearGradient id="paint3_linear" x1="29.1885" y1="56.0315" x2="44.0695" y2="57.9689" gradientUnits="userSpaceOnUse">
<stop stop-color="#4EA27D"/>
<stop offset="1" stop-color="#308282"/>
</linearGradient>
<linearGradient id="paint4_linear" x1="73.1572" y1="56.0315" x2="88.0382" y2="57.9689" gradientUnits="userSpaceOnUse">
<stop stop-color="#4EA27D"/>
<stop offset="1" stop-color="#308282"/>
</linearGradient>
<linearGradient id="paint5_linear" x1="51.1689" y1="56.0972" x2="66.0488" y2="58.039" gradientUnits="userSpaceOnUse">
<stop stop-color="#4EA27D"/>
<stop offset="1" stop-color="#308282"/>
</linearGradient>
<linearGradient id="paint6_linear" x1="39.4097" y1="17.7715" x2="54.6303" y2="23.4897" gradientUnits="userSpaceOnUse">
<stop stop-color="#4EA27D"/>
<stop offset="1" stop-color="#308282"/>
</linearGradient>
</defs>
</svg>
