<svg width="23" height="24" viewBox="0 0 23 24" fill="none" xmlns="http://www.w3.org/2000/svg">
<path d="M22.902 11.4359C22.9509 11.387 22.9998 11.3132 22.9998 11.2155V4.39198C22.9998 4.22038 22.8522 4.07275 22.6806 4.07275L16.8895 4.07371C16.7179 4.07371 16.5703 4.22134 16.5703 4.39294V11.8289C16.5703 12.3198 16.9634 12.7128 17.4542 12.7128H17.6996V12.1472H17.4542C17.2826 12.1472 17.1349 11.9996 17.1349 11.828C17.1349 11.6564 17.2826 11.5088 17.4542 11.5088H18.0188V13.0301C18.0188 13.1279 18.1415 13.2017 18.2393 13.1528L18.6563 12.8824C18.7052 12.8575 18.754 12.8575 18.8039 12.8824L19.2209 13.1528C19.3187 13.2017 19.4414 13.1528 19.4414 13.0301V11.5088H22.2147C22.1898 11.6065 22.1658 11.7053 22.1658 11.828C22.1658 11.9507 22.1907 12.0485 22.2147 12.1472H19.7606V12.6869H22.7055C22.8282 12.6869 22.926 12.6131 22.9509 12.5153C22.9998 12.4175 22.9509 12.2948 22.8771 12.221C22.8771 12.221 22.7055 12.0494 22.7055 11.828C22.7055 11.7053 22.7544 11.6075 22.8033 11.5337C22.8531 11.4599 22.902 11.4359 22.902 11.4359L22.902 11.4359ZM21.5523 6.82208C21.5523 6.99367 21.4047 7.1413 21.2331 7.1413H18.3371C18.1655 7.1413 18.0178 6.99368 18.0178 6.82208V5.79158C18.0178 5.61999 18.1655 5.47236 18.3371 5.47236H21.2331C21.4047 5.47236 21.5523 5.61998 21.5523 5.79158V6.82208Z" fill="white"/>
<path d="M12.8147 4.24575C12.8147 6.59052 10.9148 8.4915 8.56997 8.4915C6.2252 8.4915 4.32422 6.59057 4.32422 4.24575C4.32422 1.90098 6.22515 0 8.56997 0C10.9147 0 12.8147 1.90093 12.8147 4.24575Z" fill="white"/>
<path d="M19.4415 14.724C18.7302 14.8218 16.9386 14.8956 16.0308 14.4536C15.5151 14.2082 14.9514 12.8835 14.706 12.2939C14.5833 11.9996 14.4855 11.7542 14.3868 11.5826C13.9698 10.7975 13.1109 9.83984 11.3681 9.83984L5.9942 9.8408C4.59559 9.8408 3.54016 10.5281 2.80394 11.9018L2.63235 12.221C1.92011 13.5458 1.20881 14.9205 0.938493 15.9509C0.668155 17.0303 0.0546429 20.0978 0.0306914 20.2205C-0.140901 21.1043 0.423732 21.9633 1.3066 22.1348C1.40438 22.1598 1.52708 22.1598 1.62582 22.1598C2.38697 22.1598 3.07332 21.6201 3.22095 20.8589C3.22095 20.834 3.83447 17.7663 4.07987 16.7847C4.17765 16.3917 4.44798 15.8031 4.74227 15.2145L4.52178 22.2574C4.49686 22.846 4.96371 23.3128 5.55229 23.3128H11.5397C12.1283 23.3128 12.5951 22.822 12.5702 22.2574L12.3497 14.9929C12.8654 15.9496 13.5767 16.9312 14.6322 17.422C16.6443 18.3548 19.5152 18.0106 19.8595 17.9617C20.7434 17.839 21.3808 17.029 21.2581 16.1212C21.1354 15.2393 20.3254 14.6257 19.4416 14.7235L19.4415 14.724Z" fill="white"/>
</svg>
