<svg width="15" height="25" viewBox="0 0 15 25" fill="none" xmlns="http://www.w3.org/2000/svg">
<path d="M7.9553 23.6803C9.65114 20.5655 14.8 10.8231 14.8 7.4C14.8 3.29886 11.5011 0 7.4 0C3.29886 0 0 3.29886 0 7.4C0 10.8231 5.14886 20.5655 6.84469 23.6803C7.0916 24.1115 7.70827 24.1115 7.95518 23.6803H7.9553ZM3.85416 7.4C3.85416 5.45725 5.42716 3.85416 7.4 3.85416C9.37283 3.85416 10.9458 5.45725 10.9458 7.4C10.9458 9.34274 9.34274 10.9458 7.4 10.9458C5.45725 10.9458 3.85416 9.34274 3.85416 7.4Z" fill="white"/>
</svg>
