<svg width="124" height="125" viewBox="0 0 124 125" fill="none" xmlns="http://www.w3.org/2000/svg">
<path d="M121.121 111.862L84.0933 74.5736C89.7883 67.0446 92.993 57.3645 92.993 46.965C92.993 21.1514 72.3427 0.359375 46.705 0.359375C21.0673 0.359375 0.410156 21.1583 0.410156 46.9719C0.410156 72.7856 21.0605 93.5776 46.6982 93.5776C57.0267 93.5776 66.2802 90.3509 74.1185 84.6168L111.153 121.905C112.575 123.337 114.358 124.057 116.14 124.057C117.923 124.057 119.699 123.337 121.128 121.905C123.972 119.035 123.972 114.733 121.121 111.862L121.121 111.862ZM46.705 79.239C28.8988 79.239 14.6579 64.9004 14.6579 46.9719C14.6579 29.0435 28.8988 14.7049 46.705 14.7049C64.5112 14.7049 78.7521 29.0435 78.7521 46.9719C78.7521 64.8935 64.5046 79.239 46.705 79.239Z" fill="#6E6E6E"/>
</svg>
