<svg width="123" height="124" viewBox="0 0 123 124" fill="none" xmlns="http://www.w3.org/2000/svg">
<path d="M120.711 111.503L83.6831 74.2142C89.3781 66.6852 92.5828 57.0051 92.5828 46.6057C92.5828 20.792 71.9325 0 46.2948 0C20.6571 0 0 20.7989 0 46.6126C0 72.4262 20.6503 93.2182 46.288 93.2182C56.6166 93.2182 65.8701 89.9915 73.7084 84.2574L110.743 121.546C112.165 122.978 113.948 123.697 115.73 123.697C117.513 123.697 119.289 122.978 120.718 121.546C123.562 118.676 123.562 114.373 120.711 111.503L120.711 111.503ZM46.2948 78.8796C28.4886 78.8796 14.2477 64.541 14.2477 46.6126C14.2477 28.6841 28.4886 14.3455 46.2948 14.3455C64.1011 14.3455 78.342 28.6841 78.342 46.6126C78.342 64.5341 64.0944 78.8796 46.2948 78.8796Z" fill="url(#paint0_linear)"/>
<defs>
<linearGradient id="paint0_linear" x1="-3.13393" y1="36.2256" x2="134.767" y2="73.7414" gradientUnits="userSpaceOnUse">
<stop stop-color="#4EA27D"/>
<stop offset="1" stop-color="#308282"/>
</linearGradient>
</defs>
</svg>
