<svg width="26" height="21" viewBox="0 0 26 21" fill="none" xmlns="http://www.w3.org/2000/svg">
<path d="M24.4346 12.9652H20.5188V10.2352H13.5647L13.5634 8.03354H17.4473C18.3247 8.03354 19.0136 7.31984 19.0136 6.48255V1.551C19.0136 0.68219 18.2929 0 17.4473 0H8.58159C7.7042 0 7.01527 0.713707 7.01527 1.551L7.01649 6.48255C7.01649 7.35135 7.73725 8.03354 8.58282 8.03354H12.4667V10.2365H5.45017V12.9665H1.56632C0.688931 12.9665 0 13.6802 0 14.5175V19.449C0 20.3178 0.720759 21 1.56632 21H10.432C11.3094 21 11.9983 20.2863 11.9983 19.449V14.5175C11.9983 13.6486 11.2776 12.9665 10.432 12.9665L6.51496 12.9652V11.3209H19.3895V12.9652H15.568C14.6906 12.9652 14.0017 13.679 14.0017 14.5162V19.4478C14.0017 20.3166 14.7224 20.9988 15.568 20.9988H24.4337C25.3111 20.9988 26 20.2851 26 19.4478V14.5162C26.0012 13.679 25.2802 12.9652 24.4346 12.9652Z" fill="white"/>
</svg>
