<?xml version="1.0" encoding="UTF-8" standalone="no"?>
<!DOCTYPE svg PUBLIC "-//W3C//DTD SVG 1.1//EN" "http://www.w3.org/Graphics/SVG/1.1/DTD/svg11.dtd">
<svg width="100%" height="100%" viewBox="0 0 1060 500" version="1.1" xmlns="http://www.w3.org/2000/svg" xmlns:xlink="http://www.w3.org/1999/xlink" xml:space="preserve" xmlns:serif="http://www.serif.com/" style="fill-rule:evenodd;clip-rule:evenodd;stroke-linejoin:round;stroke-miterlimit:2;">
    <g transform="matrix(1,0,0,1,-249.86,-249.87)">
        <path d="M249.96,259.3L351.84,259.3L428.25,487.59L504.66,259.3L606.54,259.3L606.54,589.46L540.51,589.46L540.51,331.93L465.52,555.97L391,555.97L316.01,331.93L316.01,589.46L249.98,589.46L249.98,259.3L249.96,259.3Z" style="fill:rgb(1,100,90);fill-rule:nonzero;"/>
    </g>
    <g transform="matrix(1,0,0,1,-249.86,-249.87)">
        <path d="M629.66,471.07C629.66,400.79 683.43,348.91 749.46,348.91C815.49,348.91 864.54,400.79 864.54,471.07L864.54,496.54L695.69,496.54C704.18,522.48 727.29,537.58 763.14,537.58C787.2,537.58 810.78,530.5 842.85,507.87L842.85,568.24C819.27,584.75 790.02,594.18 758.89,594.18C683.43,594.18 629.66,541.35 629.66,471.08L629.66,471.07ZM694.75,494.19L723.99,446.08L803.23,446.08C795.21,420.14 774.46,405.52 749.46,405.52C717.39,405.52 691.92,430.05 691.92,472.5C691.92,480.52 692.86,487.59 694.75,494.2L694.75,494.19Z" style="fill:rgb(1,100,90);fill-rule:nonzero;"/>
    </g>
    <g transform="matrix(1,0,0,1,-249.86,-249.87)">
        <path d="M886.24,473.91C886.24,406.46 937.65,353.63 1003.68,353.63L1053.21,353.63L1053.21,249.87L1118.77,249.87L1118.77,589.46L1053.21,589.46L1053.21,526.73L1015.48,591.82C1009.35,592.76 1003.22,593.24 997.56,593.24C931.06,593.24 886.25,542.3 886.25,473.91L886.24,473.91ZM1012.17,533.33C1026.32,533.33 1039.06,530.03 1053.21,522.01L1053.21,414L1015,414C977.27,414 952.27,438.06 952.27,473.9C952.27,507.39 974.44,533.33 1012.17,533.33Z" style="fill:rgb(1,100,90);fill-rule:nonzero;"/>
    </g>
    <g transform="matrix(1,0,0,1,-249.86,-249.87)">
        <path d="M1153.2,353.63L1218.76,353.63L1218.76,417.31L1254.13,355.52C1264.04,351.28 1273.94,349.39 1286.2,349.39C1293.75,349.39 1301.76,349.86 1309.31,351.28L1309.31,415.9C1294.69,411.19 1284.31,409.77 1269.22,409.77C1248.47,409.77 1233.85,412.6 1218.75,421.09L1218.75,589.47L1153.19,589.47L1153.19,353.64L1153.2,353.63Z" style="fill:rgb(1,100,90);fill-rule:nonzero;"/>
    </g>
    <g transform="matrix(1,0,0,1,-249.86,-249.87)">
        <path d="M260.41,671.61L249.86,649.28L257.32,649.28L260.84,657.88C261.84,660.49 262.79,662.96 263.88,665.67L264.07,665.67C265.16,662.96 266.21,660.49 267.21,657.88L270.73,649.28L278.04,649.28L267.45,671.61L267.45,684.48L260.42,684.48L260.42,671.61L260.41,671.61Z" style="fill:rgb(59,59,60);fill-rule:nonzero;"/>
    </g>
    <g transform="matrix(1,0,0,1,-249.86,-249.87)">
        <path d="M291.29,667.05C291.29,655.46 298.75,648.67 307.63,648.67C312.09,648.67 315.66,650.81 317.94,653.18L314.28,657.64C312.48,655.93 310.43,654.7 307.77,654.7C302.45,654.7 298.46,659.26 298.46,666.81C298.46,674.36 302.07,679.07 307.63,679.07C310.67,679.07 313,677.65 314.9,675.6L318.61,679.97C315.71,683.34 311.96,685.15 307.4,685.15C298.52,685.15 291.3,678.78 291.3,667.05L291.29,667.05Z" style="fill:rgb(59,59,60);fill-rule:nonzero;"/>
    </g>
    <g transform="matrix(1,0,0,1,-249.86,-249.87)">
        <path d="M322.35,671.19C322.35,662.36 328.48,657.23 335.13,657.23C341.78,657.23 347.91,662.36 347.91,671.19C347.91,680.02 341.78,685.16 335.13,685.16C328.48,685.16 322.35,680.03 322.35,671.19ZM340.78,671.19C340.78,666.2 338.74,662.92 335.13,662.92C331.52,662.92 329.48,666.2 329.48,671.19C329.48,676.18 331.52,679.46 335.13,679.46C338.74,679.46 340.78,676.23 340.78,671.19Z" style="fill:rgb(59,59,60);fill-rule:nonzero;"/>
    </g>
    <g transform="matrix(1,0,0,1,-249.86,-249.87)">
        <path d="M353.37,657.89L359.07,657.89L359.59,661.45L359.73,661.45C361.96,659.12 364.43,657.22 367.9,657.22C371.7,657.22 373.93,658.93 375.22,661.87C377.64,659.31 380.21,657.22 383.68,657.22C389.33,657.22 391.95,661.21 391.95,667.91L391.95,684.49L384.97,684.49L384.97,668.77C384.97,664.64 383.78,663.21 381.26,663.21C379.74,663.21 378.03,664.21 376.13,666.2L376.13,684.49L369.19,684.49L369.19,668.77C369.19,664.64 367.96,663.21 365.44,663.21C363.92,663.21 362.21,664.21 360.36,666.2L360.36,684.49L353.38,684.49L353.38,657.89L353.37,657.89Z" style="fill:rgb(59,59,60);fill-rule:nonzero;"/>
    </g>
    <g transform="matrix(1,0,0,1,-249.86,-249.87)">
        <path d="M397.73,649.76C397.73,647.48 399.39,645.96 401.81,645.96C404.23,645.96 405.85,647.48 405.85,649.76C405.85,652.04 404.19,653.61 401.81,653.61C399.43,653.61 397.73,652.09 397.73,649.76ZM398.3,657.89L405.28,657.89L405.28,684.49L398.3,684.49L398.3,657.89Z" style="fill:rgb(59,59,60);fill-rule:nonzero;"/>
    </g>
    <g transform="matrix(1,0,0,1,-249.86,-249.87)">
        <path d="M410.32,681.4L413.5,677.03C415.88,678.88 418.16,679.93 420.62,679.93C423.28,679.93 424.47,678.79 424.47,677.13C424.47,675.14 421.72,674.23 418.91,673.14C415.54,671.86 411.79,669.81 411.79,665.35C411.79,660.6 415.64,657.23 421.72,657.23C425.57,657.23 428.56,658.84 430.74,660.51L427.61,664.74C425.71,663.36 423.86,662.46 421.91,662.46C419.49,662.46 418.35,663.5 418.35,665.02C418.35,666.97 420.82,667.68 423.62,668.73C427.14,670.06 431.03,671.82 431.03,676.76C431.03,681.42 427.37,685.17 420.44,685.17C416.88,685.17 412.98,683.6 410.32,681.42L410.32,681.4Z" style="fill:rgb(59,59,60);fill-rule:nonzero;"/>
    </g>
    <g transform="matrix(1,0,0,1,-249.86,-249.87)">
        <path d="M435.4,649.76C435.4,647.48 437.06,645.96 439.48,645.96C441.9,645.96 443.52,647.48 443.52,649.76C443.52,652.04 441.86,653.61 439.48,653.61C437.1,653.61 435.4,652.09 435.4,649.76ZM435.97,657.89L442.95,657.89L442.95,684.49L435.97,684.49L435.97,657.89Z" style="fill:rgb(59,59,60);fill-rule:nonzero;"/>
    </g>
    <g transform="matrix(1,0,0,1,-249.86,-249.87)">
        <path d="M448.02,657.89L455.01,657.89L457.91,671C458.43,673.61 458.76,676.13 459.24,678.79L459.43,678.79C459.95,676.13 460.43,673.56 461.09,671L464.32,657.89L470.5,657.89L473.82,671C474.44,673.61 474.91,676.13 475.48,678.79L475.72,678.79C476.19,676.13 476.57,673.61 477.05,671L479.95,657.89L486.41,657.89L479.85,684.49L471.63,684.49L468.83,672.9C468.26,670.38 467.83,667.96 467.31,665.16L467.07,665.16C466.55,667.96 466.17,670.43 465.6,672.9L462.89,684.49L454.91,684.49L448.02,657.89Z" style="fill:rgb(59,59,60);fill-rule:nonzero;"/>
    </g>
    <g transform="matrix(1,0,0,1,-249.86,-249.87)">
        <path d="M491.35,657.89L497.05,657.89L497.57,661.41L497.71,661.41C500.04,659.13 502.75,657.23 506.36,657.23C512.11,657.23 514.58,661.22 514.58,667.92L514.58,684.5L507.6,684.5L507.6,668.78C507.6,664.65 506.46,663.22 503.85,663.22C501.66,663.22 500.29,664.26 498.34,666.21L498.34,684.5L491.36,684.5L491.36,657.9L491.35,657.89Z" style="fill:rgb(59,59,60);fill-rule:nonzero;"/>
    </g>
    <g transform="matrix(1,0,0,1,-249.86,-249.87)">
        <path d="M541.04,649.29L549.3,649.29L560.61,684.49L553.25,684.49L550.78,675.47L539.38,675.47L536.91,684.49L529.79,684.49L541.05,649.29L541.04,649.29ZM540.9,670L549.26,670L548.22,666.15C547.13,662.49 546.18,658.46 545.18,654.65L544.94,654.65C544.04,658.5 542.99,662.49 541.95,666.15L540.91,670L540.9,670Z" style="fill:rgb(59,59,60);fill-rule:nonzero;"/>
    </g>
    <g transform="matrix(1,0,0,1,-249.86,-249.87)">
        <path d="M562.98,671.19C562.98,662.54 568.4,657.23 574.14,657.23C577.13,657.23 578.99,658.37 580.89,660.13L580.65,655.95L580.65,646.59L587.59,646.59L587.59,684.5L581.94,684.5L581.42,681.75L581.23,681.75C579.28,683.65 576.62,685.17 573.87,685.17C567.27,685.17 562.99,679.94 562.99,671.2L562.98,671.19ZM580.65,676.66L580.65,664.96C579.03,663.49 577.32,662.97 575.66,662.97C572.67,662.97 570.15,665.82 570.15,671.14C570.15,676.46 572.14,679.41 575.66,679.41C577.51,679.41 579.08,678.65 580.65,676.66Z" style="fill:rgb(59,59,60);fill-rule:nonzero;"/>
    </g>
    <g transform="matrix(1,0,0,1,-249.86,-249.87)">
        <path d="M592.72,671.19C592.72,662.54 598.14,657.23 603.88,657.23C606.87,657.23 608.73,658.37 610.63,660.13L610.39,655.95L610.39,646.59L617.33,646.59L617.33,684.5L611.68,684.5L611.16,681.75L610.97,681.75C609.02,683.65 606.36,685.17 603.61,685.17C597.01,685.17 592.73,679.94 592.73,671.2L592.72,671.19ZM610.39,676.66L610.39,664.96C608.77,663.49 607.06,662.97 605.4,662.97C602.41,662.97 599.89,665.82 599.89,671.14C599.89,676.46 601.89,679.41 605.4,679.41C607.25,679.41 608.82,678.65 610.39,676.66Z" style="fill:rgb(59,59,60);fill-rule:nonzero;"/>
    </g>
    <g transform="matrix(1,0,0,1,-249.86,-249.87)">
        <path d="M623.12,694.65L624.4,689.28C624.88,689.42 625.63,689.61 626.25,689.61C628.96,689.61 630.48,687.9 631.24,685.57L631.72,684L621.37,657.87L628.4,657.87L632.63,670.22C633.44,672.6 634.1,675.16 634.86,677.72L635.1,677.72C635.72,675.25 636.38,672.68 637,670.22L640.66,657.87L647.36,657.87L637.91,685.28C635.58,691.55 632.73,695.16 626.79,695.16C625.22,695.16 624.18,694.97 623.13,694.64L623.12,694.65Z" style="fill:rgb(59,59,60);fill-rule:nonzero;"/>
    </g>
    <g transform="matrix(1,0,0,1,-249.86,-249.87)">
        <path d="M648.81,681.4L651.99,677.03C654.37,678.88 656.65,679.93 659.11,679.93C661.77,679.93 662.96,678.79 662.96,677.13C662.96,675.14 660.21,674.23 657.4,673.14C654.03,671.86 650.28,669.81 650.28,665.35C650.28,660.6 654.13,657.23 660.21,657.23C664.06,657.23 667.05,658.84 669.23,660.51L666.1,664.74C664.2,663.36 662.35,662.46 660.4,662.46C657.98,662.46 656.84,663.5 656.84,665.02C656.84,666.97 659.31,667.68 662.11,668.73C665.63,670.06 669.52,671.82 669.52,676.76C669.52,681.42 665.86,685.17 658.93,685.17C655.37,685.17 651.47,683.6 648.81,681.42L648.81,681.4Z" style="fill:rgb(59,59,60);fill-rule:nonzero;"/>
    </g>
    <g transform="matrix(1,0,0,1,-249.86,-249.87)">
        <path d="M672.94,689.19C672.94,686.96 674.32,685.06 676.74,683.68L676.74,683.44C675.36,682.54 674.32,681.16 674.32,678.97C674.32,676.98 675.7,675.12 677.31,673.98L677.31,673.79C675.46,672.46 673.75,669.94 673.75,666.81C673.75,660.59 678.83,657.22 684.48,657.22C685.95,657.22 687.38,657.5 688.47,657.88L698.07,657.88L698.07,663.01L693.56,663.01C694.23,663.91 694.75,665.39 694.75,667.05C694.75,673.03 690.19,676.07 684.49,676.07C683.45,676.07 682.21,675.83 681.07,675.45C680.36,676.07 679.93,676.64 679.93,677.73C679.93,679.15 680.97,679.92 684.11,679.92L688.62,679.92C695.03,679.92 698.55,681.92 698.55,686.57C698.55,691.94 692.95,696.02 684.06,696.02C677.79,696.02 672.94,693.88 672.94,689.18L672.94,689.19ZM691.85,687.76C691.85,685.86 690.28,685.38 687.43,685.38L684.2,685.38C682.59,685.38 681.45,685.24 680.5,685C679.31,685.95 678.79,687 678.79,688.09C678.79,690.32 681.26,691.61 685.11,691.61C688.96,691.61 691.86,689.85 691.86,687.76L691.85,687.76ZM688.67,666.82C688.67,663.73 686.86,661.98 684.49,661.98C682.12,661.98 680.31,663.74 680.31,666.82C680.31,669.9 682.16,671.76 684.49,671.76C686.82,671.76 688.67,670 688.67,666.82Z" style="fill:rgb(59,59,60);fill-rule:nonzero;"/>
    </g>
    <g transform="matrix(1,0,0,1,-249.86,-249.87)">
        <path d="M714.6,649.29L724.24,649.29C734.97,649.29 741.63,654.89 741.63,666.77C741.63,678.65 734.98,684.49 724.62,684.49L714.6,684.49L714.6,649.29ZM723.81,678.83C730.37,678.83 734.45,675.31 734.45,666.76C734.45,658.21 730.37,654.93 723.81,654.93L721.62,654.93L721.62,678.82L723.81,678.82L723.81,678.83Z" style="fill:rgb(59,59,60);fill-rule:nonzero;"/>
    </g>
    <g transform="matrix(1,0,0,1,-249.86,-249.87)">
        <path d="M746.84,657.89L752.55,657.89L753.07,662.59L753.21,662.59C755.16,659.12 758.01,657.22 760.76,657.22C762.23,657.22 763.09,657.46 763.89,657.79L762.7,663.82C761.75,663.53 760.99,663.39 759.9,663.39C757.81,663.39 755.29,664.77 753.82,668.62L753.82,684.49L746.84,684.49L746.84,657.89Z" style="fill:rgb(59,59,60);fill-rule:nonzero;"/>
    </g>
    <g transform="matrix(1,0,0,1,-249.86,-249.87)">
        <path d="M768.18,694.65L769.46,689.28C769.94,689.42 770.69,689.61 771.31,689.61C774.02,689.61 775.54,687.9 776.3,685.57L776.78,684L766.43,657.87L773.46,657.87L777.69,670.22C778.5,672.6 779.16,675.16 779.92,677.72L780.16,677.72C780.78,675.25 781.44,672.68 782.06,670.22L785.72,657.87L792.42,657.87L782.97,685.28C780.64,691.55 777.79,695.16 771.85,695.16C770.28,695.16 769.24,694.97 768.19,694.64L768.18,694.65Z" style="fill:rgb(59,59,60);fill-rule:nonzero;"/>
    </g>
    <g transform="matrix(1,0,0,1,-249.86,-249.87)">
        <path d="M794.49,671.19C794.49,662.54 799.91,657.23 805.65,657.23C808.64,657.23 810.5,658.37 812.4,660.13L812.16,655.95L812.16,646.59L819.1,646.59L819.1,684.5L813.45,684.5L812.93,681.75L812.74,681.75C810.79,683.65 808.13,685.17 805.38,685.17C798.78,685.17 794.5,679.94 794.5,671.2L794.49,671.19ZM812.16,676.66L812.16,664.96C810.54,663.49 808.83,662.97 807.17,662.97C804.18,662.97 801.66,665.82 801.66,671.14C801.66,676.46 803.66,679.41 807.17,679.41C809.02,679.41 810.59,678.65 812.16,676.66Z" style="fill:rgb(59,59,60);fill-rule:nonzero;"/>
    </g>
    <g transform="matrix(1,0,0,1,-249.86,-249.87)">
        <path d="M825.37,694.65L826.65,689.28C827.13,689.42 827.88,689.61 828.5,689.61C831.21,689.61 832.73,687.9 833.49,685.57L833.97,684L823.62,657.87L830.65,657.87L834.88,670.22C835.69,672.6 836.35,675.16 837.11,677.72L837.35,677.72C837.97,675.25 838.63,672.68 839.25,670.22L842.91,657.87L849.61,657.87L840.16,685.28C837.83,691.55 834.98,695.16 829.04,695.16C827.47,695.16 826.43,694.97 825.38,694.64L825.37,694.65Z" style="fill:rgb(59,59,60);fill-rule:nonzero;"/>
    </g>
    <g transform="matrix(1,0,0,1,-249.86,-249.87)">
        <path d="M851.92,671.19C851.92,662.54 857.34,657.23 863.08,657.23C866.07,657.23 867.93,658.37 869.83,660.13L869.59,655.95L869.59,646.59L876.53,646.59L876.53,684.5L870.88,684.5L870.36,681.75L870.17,681.75C868.22,683.65 865.56,685.17 862.81,685.17C856.21,685.17 851.93,679.94 851.93,671.2L851.92,671.19ZM869.59,676.66L869.59,664.96C867.97,663.49 866.26,662.97 864.6,662.97C861.61,662.97 859.09,665.82 859.09,671.14C859.09,676.46 861.08,679.41 864.6,679.41C866.45,679.41 868.02,678.65 869.59,676.66Z" style="fill:rgb(59,59,60);fill-rule:nonzero;"/>
    </g>
    <g transform="matrix(1,0,0,1,-249.86,-249.87)">
        <path d="M882.13,671.19C882.13,662.54 887.55,657.23 893.29,657.23C896.28,657.23 898.14,658.37 900.04,660.13L899.8,655.95L899.8,646.59L906.74,646.59L906.74,684.5L901.09,684.5L900.57,681.75L900.38,681.75C898.43,683.65 895.77,685.17 893.02,685.17C886.42,685.17 882.14,679.94 882.14,671.2L882.13,671.19ZM899.8,676.66L899.8,664.96C898.18,663.49 896.47,662.97 894.81,662.97C891.82,662.97 889.3,665.82 889.3,671.14C889.3,676.46 891.3,679.41 894.81,679.41C896.66,679.41 898.23,678.65 899.8,676.66Z" style="fill:rgb(59,59,60);fill-rule:nonzero;"/>
    </g>
    <g transform="matrix(1,0,0,1,-249.86,-249.87)">
        <path d="M912.43,671.19C912.43,662.36 918.56,657.23 925.21,657.23C931.86,657.23 937.99,662.36 937.99,671.19C937.99,680.02 931.86,685.16 925.21,685.16C918.56,685.16 912.43,680.03 912.43,671.19ZM930.87,671.19C930.87,666.2 928.83,662.92 925.22,662.92C921.61,662.92 919.57,666.2 919.57,671.19C919.57,676.18 921.61,679.46 925.22,679.46C928.83,679.46 930.87,676.23 930.87,671.19Z" style="fill:rgb(59,59,60);fill-rule:nonzero;"/>
    </g>
    <g transform="matrix(1,0,0,1,-249.86,-249.87)">
        <path d="M943.45,677.03L943.45,646.58L950.43,646.58L950.43,677.31C950.43,678.92 951.14,679.45 951.81,679.45C952.09,679.45 952.29,679.45 952.76,679.36L953.61,684.54C952.8,684.87 951.66,685.16 950,685.16C945.15,685.16 943.44,681.98 943.44,677.04L943.45,677.03Z" style="fill:rgb(59,59,60);fill-rule:nonzero;"/>
    </g>
    <g transform="matrix(1,0,0,1,-249.86,-249.87)">
        <path d="M968.29,677.27C968.29,671.57 972.9,668.58 983.63,667.44C983.49,664.83 982.35,662.83 979.07,662.83C976.6,662.83 974.23,663.92 971.76,665.35L969.24,660.74C972.38,658.79 976.18,657.23 980.36,657.23C987.11,657.23 990.57,661.27 990.57,668.96L990.57,684.49L984.87,684.49L984.4,681.64L984.21,681.64C981.88,683.64 979.22,685.16 976.18,685.16C971.43,685.16 968.29,681.79 968.29,677.27ZM983.64,677.08L983.64,671.71C977.13,672.52 974.95,674.32 974.95,676.7C974.95,678.79 976.42,679.69 978.47,679.69C980.52,679.69 981.94,678.74 983.65,677.08L983.64,677.08Z" style="fill:rgb(59,59,60);fill-rule:nonzero;"/>
    </g>
    <g transform="matrix(1,0,0,1,-249.86,-249.87)">
        <path d="M995.41,671.19C995.41,662.36 1001.78,657.23 1009,657.23C1012.28,657.23 1014.79,658.51 1016.74,660.17L1013.41,664.68C1012.08,663.54 1010.85,662.92 1009.37,662.92C1005.29,662.92 1002.53,666.2 1002.53,671.19C1002.53,676.18 1005.33,679.46 1009.13,679.46C1011.03,679.46 1012.84,678.56 1014.31,677.32L1017.11,681.93C1014.55,684.16 1011.32,685.16 1008.37,685.16C1001.01,685.16 995.4,680.03 995.4,671.19L995.41,671.19Z" style="fill:rgb(59,59,60);fill-rule:nonzero;"/>
    </g>
    <g transform="matrix(1,0,0,1,-249.86,-249.87)">
        <path d="M1037.21,671.61L1026.66,649.28L1034.12,649.28L1037.64,657.88C1038.64,660.49 1039.59,662.96 1040.68,665.67L1040.87,665.67C1041.96,662.96 1043.01,660.49 1044.01,657.88L1047.53,649.28L1054.84,649.28L1044.25,671.61L1044.25,684.48L1037.22,684.48L1037.22,671.61L1037.21,671.61Z" style="fill:rgb(59,59,60);fill-rule:nonzero;"/>
    </g>
    <g transform="matrix(1,0,0,1,-249.86,-249.87)">
        <path d="M1056.5,657.89L1062.2,657.89L1062.72,661.45L1062.86,661.45C1065.09,659.12 1067.56,657.22 1071.03,657.22C1074.83,657.22 1077.06,658.93 1078.35,661.87C1080.77,659.31 1083.34,657.22 1086.81,657.22C1092.46,657.22 1095.08,661.21 1095.08,667.91L1095.08,684.49L1088.1,684.49L1088.1,668.77C1088.1,664.64 1086.91,663.21 1084.39,663.21C1082.87,663.21 1081.16,664.21 1079.26,666.2L1079.26,684.49L1072.32,684.49L1072.32,668.77C1072.32,664.64 1071.09,663.21 1068.57,663.21C1067.05,663.21 1065.34,664.21 1063.49,666.2L1063.49,684.49L1056.51,684.49L1056.51,657.89L1056.5,657.89Z" style="fill:rgb(59,59,60);fill-rule:nonzero;"/>
    </g>
    <g transform="matrix(1,0,0,1,-249.86,-249.87)">
        <path d="M1100.25,671.19C1100.25,662.36 1106.62,657.23 1113.84,657.23C1117.12,657.23 1119.63,658.51 1121.58,660.17L1118.25,664.68C1116.92,663.54 1115.69,662.92 1114.21,662.92C1110.13,662.92 1107.37,666.2 1107.37,671.19C1107.37,676.18 1110.17,679.46 1113.97,679.46C1115.87,679.46 1117.68,678.56 1119.15,677.32L1121.95,681.93C1119.39,684.16 1116.16,685.16 1113.21,685.16C1105.85,685.16 1100.24,680.03 1100.24,671.19L1100.25,671.19Z" style="fill:rgb(59,59,60);fill-rule:nonzero;"/>
    </g>
    <g transform="matrix(1,0,0,1,-249.86,-249.87)">
        <path d="M1127.04,646.58L1134.02,646.58L1134.02,656.13L1133.69,661.12C1135.83,659.12 1138.44,657.22 1142.05,657.22C1147.8,657.22 1150.27,661.21 1150.27,667.91L1150.27,684.49L1143.29,684.49L1143.29,668.77C1143.29,664.64 1142.15,663.21 1139.54,663.21C1137.35,663.21 1135.98,664.25 1134.03,666.2L1134.03,684.49L1127.05,684.49L1127.05,646.58L1127.04,646.58Z" style="fill:rgb(59,59,60);fill-rule:nonzero;"/>
    </g>
    <g transform="matrix(1,0,0,1,-249.86,-249.87)">
        <path d="M1154.58,657.89L1161.57,657.89L1164.47,671C1164.99,673.61 1165.32,676.13 1165.8,678.79L1165.99,678.79C1166.51,676.13 1166.99,673.56 1167.65,671L1170.88,657.89L1177.06,657.89L1180.38,671C1181,673.61 1181.47,676.13 1182.04,678.79L1182.28,678.79C1182.75,676.13 1183.13,673.61 1183.61,671L1186.51,657.89L1192.97,657.89L1186.41,684.49L1178.19,684.49L1175.39,672.9C1174.82,670.38 1174.39,667.96 1173.87,665.16L1173.63,665.16C1173.11,667.96 1172.73,670.43 1172.16,672.9L1169.45,684.49L1161.47,684.49L1154.58,657.89Z" style="fill:rgb(59,59,60);fill-rule:nonzero;"/>
    </g>
    <g transform="matrix(1,0,0,1,-249.86,-249.87)">
        <path d="M1197.34,649.76C1197.34,647.48 1199,645.96 1201.42,645.96C1203.84,645.96 1205.46,647.48 1205.46,649.76C1205.46,652.04 1203.8,653.61 1201.42,653.61C1199.04,653.61 1197.34,652.09 1197.34,649.76ZM1197.91,657.89L1204.89,657.89L1204.89,684.49L1197.91,684.49L1197.91,657.89Z" style="fill:rgb(59,59,60);fill-rule:nonzero;"/>
    </g>
    <g transform="matrix(1,0,0,1,-249.86,-249.87)">
        <path d="M1211.01,677.03L1211.01,646.58L1217.99,646.58L1217.99,677.31C1217.99,678.92 1218.7,679.45 1219.37,679.45C1219.65,679.45 1219.85,679.45 1220.32,679.36L1221.17,684.54C1220.36,684.87 1219.22,685.16 1217.56,685.16C1212.71,685.16 1211,681.98 1211,677.04L1211.01,677.03Z" style="fill:rgb(59,59,60);fill-rule:nonzero;"/>
    </g>
    <g transform="matrix(1,0,0,1,-249.86,-249.87)">
        <path d="M252.91,721.1C252.91,709.84 259.51,703 268.35,703C272.58,703 275.9,705.09 277.9,707.32L275.52,710.17C273.72,708.22 271.39,706.85 268.4,706.85C261.8,706.85 257.43,712.27 257.43,720.96C257.43,729.65 261.61,735.26 268.26,735.26C271.59,735.26 274.1,733.79 276.34,731.36L278.76,734.11C276.01,737.29 272.59,739.1 268.07,739.1C259.42,739.1 252.92,732.4 252.92,721.1L252.91,721.1Z" style="fill:rgb(59,59,60);fill-rule:nonzero;"/>
    </g>
    <g transform="matrix(1,0,0,1,-249.86,-249.87)">
        <path d="M283.02,725.61C283.02,717.01 288.67,712.02 294.99,712.02C301.31,712.02 306.96,717.01 306.96,725.61C306.96,734.21 301.31,739.1 294.99,739.1C288.67,739.1 283.02,734.16 283.02,725.61ZM302.5,725.61C302.5,719.67 299.46,715.63 294.99,715.63C290.52,715.63 287.53,719.67 287.53,725.61C287.53,731.55 290.52,735.49 294.99,735.49C299.46,735.49 302.5,731.55 302.5,725.61Z" style="fill:rgb(59,59,60);fill-rule:nonzero;"/>
    </g>
    <g transform="matrix(1,0,0,1,-249.86,-249.87)">
        <path d="M313.41,712.69L316.98,712.69L317.36,716.44L317.5,716.44C319.73,713.97 322.44,712.02 325.53,712.02C329.47,712.02 331.61,713.92 332.65,716.96C335.31,714.06 338.02,712.02 341.15,712.02C346.47,712.02 348.99,715.54 348.99,722.14L348.99,738.48L344.67,738.48L344.67,722.71C344.67,717.86 343.15,715.82 339.87,715.82C337.87,715.82 335.78,717.1 333.36,719.76L333.36,738.48L329.04,738.48L329.04,722.71C329.04,717.86 327.52,715.82 324.24,715.82C322.29,715.82 320.11,717.1 317.73,719.76L317.73,738.48L313.41,738.48L313.41,712.69Z" style="fill:rgb(59,59,60);fill-rule:nonzero;"/>
    </g>
    <g transform="matrix(1,0,0,1,-249.86,-249.87)">
        <path d="M356.59,712.69L360.16,712.69L360.54,716.44L360.68,716.44C362.91,713.97 365.62,712.02 368.71,712.02C372.65,712.02 374.79,713.92 375.83,716.96C378.49,714.06 381.2,712.02 384.33,712.02C389.65,712.02 392.17,715.54 392.17,722.14L392.17,738.48L387.85,738.48L387.85,722.71C387.85,717.86 386.33,715.82 383.05,715.82C381.05,715.82 378.96,717.1 376.54,719.76L376.54,738.48L372.22,738.48L372.22,722.71C372.22,717.86 370.7,715.82 367.42,715.82C365.47,715.82 363.29,717.1 360.91,719.76L360.91,738.48L356.59,738.48L356.59,712.69Z" style="fill:rgb(59,59,60);fill-rule:nonzero;"/>
    </g>
    <g transform="matrix(1,0,0,1,-249.86,-249.87)">
        <path d="M399.06,704.48C399.06,702.82 400.25,701.68 401.96,701.68C403.67,701.68 404.86,702.82 404.86,704.48C404.86,706.24 403.67,707.38 401.96,707.38C400.25,707.38 399.06,706.24 399.06,704.48ZM399.78,712.69L404.1,712.69L404.1,738.48L399.78,738.48L399.78,712.69Z" style="fill:rgb(59,59,60);fill-rule:nonzero;"/>
    </g>
    <g transform="matrix(1,0,0,1,-249.86,-249.87)">
        <path d="M410.08,735.54L412.22,732.69C414.45,734.49 416.78,735.73 419.87,735.73C423.29,735.73 424.95,733.92 424.95,731.69C424.95,729.03 421.91,727.89 419.06,726.8C415.45,725.47 411.51,723.71 411.51,719.34C411.51,715.25 414.84,712.02 420.44,712.02C423.62,712.02 426.42,713.35 428.42,714.92L426.33,717.72C424.57,716.39 422.77,715.44 420.49,715.44C417.21,715.44 415.69,717.15 415.69,719.15C415.69,721.62 418.35,722.52 421.25,723.61C425,725.03 429.14,726.55 429.14,731.45C429.14,735.63 425.81,739.1 419.73,739.1C416.07,739.1 412.56,737.58 410.09,735.54L410.08,735.54Z" style="fill:rgb(59,59,60);fill-rule:nonzero;"/>
    </g>
    <g transform="matrix(1,0,0,1,-249.86,-249.87)">
        <path d="M432.45,735.54L434.59,732.69C436.82,734.49 439.15,735.73 442.24,735.73C445.66,735.73 447.32,733.92 447.32,731.69C447.32,729.03 444.28,727.89 441.43,726.8C437.82,725.47 433.88,723.71 433.88,719.34C433.88,715.25 437.21,712.02 442.81,712.02C445.99,712.02 448.79,713.35 450.79,714.92L448.7,717.72C446.94,716.39 445.14,715.44 442.86,715.44C439.58,715.44 438.06,717.15 438.06,719.15C438.06,721.62 440.72,722.52 443.62,723.61C447.37,725.03 451.5,726.55 451.5,731.45C451.5,735.63 448.18,739.1 442.1,739.1C438.44,739.1 434.93,737.58 432.46,735.54L432.45,735.54Z" style="fill:rgb(59,59,60);fill-rule:nonzero;"/>
    </g>
    <g transform="matrix(1,0,0,1,-249.86,-249.87)">
        <path d="M456.77,704.48C456.77,702.82 457.96,701.68 459.67,701.68C461.38,701.68 462.57,702.82 462.57,704.48C462.57,706.24 461.38,707.38 459.67,707.38C457.96,707.38 456.77,706.24 456.77,704.48ZM457.49,712.69L461.81,712.69L461.81,738.48L457.49,738.48L457.49,712.69Z" style="fill:rgb(59,59,60);fill-rule:nonzero;"/>
    </g>
    <g transform="matrix(1,0,0,1,-249.86,-249.87)">
        <path d="M467.79,725.61C467.79,717.01 473.44,712.02 479.76,712.02C486.08,712.02 491.73,717.01 491.73,725.61C491.73,734.21 486.08,739.1 479.76,739.1C473.44,739.1 467.79,734.16 467.79,725.61ZM487.27,725.61C487.27,719.67 484.23,715.63 479.76,715.63C475.29,715.63 472.3,719.67 472.3,725.61C472.3,731.55 475.29,735.49 479.76,735.49C484.23,735.49 487.27,731.55 487.27,725.61Z" style="fill:rgb(59,59,60);fill-rule:nonzero;"/>
    </g>
    <g transform="matrix(1,0,0,1,-249.86,-249.87)">
        <path d="M497.48,712.69L501.04,712.69L501.42,716.4L501.56,716.4C504.03,713.98 506.69,712.03 510.21,712.03C515.63,712.03 518.1,715.55 518.1,722.15L518.1,738.49L513.78,738.49L513.78,722.72C513.78,717.87 512.31,715.83 508.89,715.83C506.23,715.83 504.43,717.16 501.81,719.77L501.81,738.49L497.49,738.49L497.49,712.7L497.48,712.69Z" style="fill:rgb(59,59,60);fill-rule:nonzero;"/>
    </g>
    <g transform="matrix(1,0,0,1,-249.86,-249.87)">
        <path d="M538.38,716.21L534.86,716.21L534.86,712.93L538.38,712.69L538.38,708.56C538.38,703.33 540.76,700.06 545.89,700.06C547.46,700.06 549.02,700.39 550.21,700.92L549.26,704.2C548.31,703.77 547.26,703.53 546.36,703.53C543.89,703.53 542.7,705.29 542.7,708.61L542.7,712.69L548.16,712.69L548.16,716.21L542.7,716.21L542.7,738.49L538.38,738.49L538.38,716.21Z" style="fill:rgb(59,59,60);fill-rule:nonzero;"/>
    </g>
    <g transform="matrix(1,0,0,1,-249.86,-249.87)">
        <path d="M551.01,725.61C551.01,717.01 556.66,712.02 562.98,712.02C569.3,712.02 574.95,717.01 574.95,725.61C574.95,734.21 569.3,739.1 562.98,739.1C556.66,739.1 551.01,734.16 551.01,725.61ZM570.49,725.61C570.49,719.67 567.45,715.63 562.98,715.63C558.51,715.63 555.52,719.67 555.52,725.61C555.52,731.55 558.51,735.49 562.98,735.49C567.45,735.49 570.49,731.55 570.49,725.61Z" style="fill:rgb(59,59,60);fill-rule:nonzero;"/>
    </g>
    <g transform="matrix(1,0,0,1,-249.86,-249.87)">
        <path d="M580.69,712.69L584.26,712.69L584.64,717.39L584.78,717.39C586.59,714.11 589.2,712.02 592.09,712.02C593.23,712.02 594.04,712.16 594.85,712.59L594.04,716.39C593.19,716.06 592.57,715.96 591.52,715.96C589.38,715.96 586.72,717.48 585.01,721.9L585.01,738.48L580.69,738.48L580.69,712.69Z" style="fill:rgb(59,59,60);fill-rule:nonzero;"/>
    </g>
    <g transform="matrix(1,0,0,1,-249.86,-249.87)">
        <path d="M617.7,707.37L607.16,707.37L607.16,703.62L632.67,703.62L632.67,707.37L622.12,707.37L622.12,738.48L617.7,738.48L617.7,707.37Z" style="fill:rgb(59,59,60);fill-rule:nonzero;"/>
    </g>
    <g transform="matrix(1,0,0,1,-249.86,-249.87)">
        <path d="M632.95,725.61C632.95,717.25 638.6,712.02 644.59,712.02C651.15,712.02 654.85,716.77 654.85,724.13C654.85,725.08 654.75,725.98 654.66,726.6L637.27,726.6C637.56,732.11 640.93,735.62 645.82,735.62C648.34,735.62 650.38,734.86 652.28,733.58L653.85,736.43C651.57,737.9 648.81,739.09 645.3,739.09C638.46,739.09 632.95,734.1 632.95,725.6L632.95,725.61ZM651.05,723.48C651.05,718.3 648.67,715.5 644.64,715.5C640.98,715.5 637.75,718.44 637.23,723.48L651.05,723.48Z" style="fill:rgb(59,59,60);fill-rule:nonzero;"/>
    </g>
    <g transform="matrix(1,0,0,1,-249.86,-249.87)">
        <path d="M660.87,712.69L664.44,712.69L664.82,717.39L664.96,717.39C666.77,714.11 669.38,712.02 672.27,712.02C673.41,712.02 674.22,712.16 675.03,712.59L674.22,716.39C673.37,716.06 672.75,715.96 671.7,715.96C669.56,715.96 666.9,717.48 665.19,721.9L665.19,738.48L660.87,738.48L660.87,712.69Z" style="fill:rgb(59,59,60);fill-rule:nonzero;"/>
    </g>
    <g transform="matrix(1,0,0,1,-249.86,-249.87)">
        <path d="M681.4,730.51L681.4,716.21L677.55,716.21L677.55,712.93L681.59,712.69L682.11,705.42L685.72,705.42L685.72,712.69L692.7,712.69L692.7,716.21L685.72,716.21L685.72,730.6C685.72,733.78 686.72,735.59 689.71,735.59C690.61,735.59 691.8,735.26 692.65,734.92L693.5,738.15C692.03,738.63 690.32,739.1 688.75,739.1C683.24,739.1 681.39,735.63 681.39,730.5L681.4,730.51Z" style="fill:rgb(59,59,60);fill-rule:nonzero;"/>
    </g>
    <g transform="matrix(1,0,0,1,-249.86,-249.87)">
        <path d="M697.74,704.48C697.74,702.82 698.93,701.68 700.64,701.68C702.35,701.68 703.54,702.82 703.54,704.48C703.54,706.24 702.35,707.38 700.64,707.38C698.93,707.38 697.74,706.24 697.74,704.48ZM698.45,712.69L702.77,712.69L702.77,738.48L698.45,738.48L698.45,712.69Z" style="fill:rgb(59,59,60);fill-rule:nonzero;"/>
    </g>
    <g transform="matrix(1,0,0,1,-249.86,-249.87)">
        <path d="M708.14,731.79C708.14,726.19 713.03,723.38 724.01,722.15C724.01,718.83 722.92,715.64 718.69,715.64C715.7,715.64 712.99,717.02 710.95,718.39L709.24,715.4C711.62,713.88 715.27,712.03 719.41,712.03C725.68,712.03 728.34,716.26 728.34,722.62L728.34,738.49L724.78,738.49L724.4,735.4L724.26,735.4C721.79,737.44 718.89,739.11 715.71,739.11C711.39,739.11 708.16,736.45 708.16,731.79L708.14,731.79ZM724,732.22L724,725C715.31,726.04 712.36,728.18 712.36,731.51C712.36,734.45 714.36,735.64 716.92,735.64C719.48,735.64 721.48,734.45 724,732.22Z" style="fill:rgb(59,59,60);fill-rule:nonzero;"/>
    </g>
    <g transform="matrix(1,0,0,1,-249.86,-249.87)">
        <path d="M734.06,712.69L737.63,712.69L738.01,717.39L738.15,717.39C739.96,714.11 742.57,712.02 745.46,712.02C746.6,712.02 747.41,712.16 748.22,712.59L747.41,716.39C746.56,716.06 745.94,715.96 744.89,715.96C742.75,715.96 740.09,717.48 738.38,721.9L738.38,738.48L734.06,738.48L734.06,712.69Z" style="fill:rgb(59,59,60);fill-rule:nonzero;"/>
    </g>
    <g transform="matrix(1,0,0,1,-249.86,-249.87)">
        <path d="M752.12,749.08L752.97,745.61C753.49,745.8 754.25,746.04 754.92,746.04C757.86,746.04 759.72,743.66 760.76,740.48L761.33,738.53L750.98,712.69L755.49,712.69L760.76,727.04C761.52,729.27 762.42,731.93 763.23,734.26L763.47,734.26C764.18,731.93 764.94,729.32 765.66,727.04L770.27,712.69L774.5,712.69L764.76,740.62C763,745.7 760.3,749.6 755.16,749.6C753.93,749.6 752.93,749.41 752.12,749.08Z" style="fill:rgb(59,59,60);fill-rule:nonzero;"/>
    </g>
    <g transform="matrix(1,0,0,1,-249.86,-249.87)">
        <path d="M790.79,703.62L810.88,703.62L810.88,707.37L795.2,707.37L795.2,718.29L808.41,718.29L808.41,722.04L795.2,722.04L795.2,734.72L811.4,734.72L811.4,738.47L790.78,738.47L790.78,703.6L790.79,703.62Z" style="fill:rgb(59,59,60);fill-rule:nonzero;"/>
    </g>
    <g transform="matrix(1,0,0,1,-249.86,-249.87)">
        <path d="M816.11,725.61C816.11,717.25 821.38,712.02 827.27,712.02C830.31,712.02 832.26,713.16 834.54,715.06L834.35,710.6L834.35,700.67L838.62,700.67L838.62,738.48L835.1,738.48L834.72,735.44L834.58,735.44C832.54,737.44 829.83,739.1 826.74,739.1C820.28,739.1 816.1,734.21 816.1,725.61L816.11,725.61ZM834.35,731.93L834.35,718.39C832.12,716.44 830.17,715.68 828.03,715.68C823.85,715.68 820.57,719.67 820.57,725.56C820.57,731.78 823.14,735.49 827.7,735.49C830.08,735.49 832.16,734.3 834.35,731.93Z" style="fill:rgb(59,59,60);fill-rule:nonzero;"/>
    </g>
    <g transform="matrix(1,0,0,1,-249.86,-249.87)">
        <path d="M845.79,729.03L845.79,712.69L850.11,712.69L850.11,728.51C850.11,733.31 851.53,735.35 854.95,735.35C857.61,735.35 859.46,734.07 861.93,730.98L861.93,712.69L866.25,712.69L866.25,738.48L862.64,738.48L862.31,734.44L862.17,734.44C859.75,737.24 857.18,739.1 853.62,739.1C848.2,739.1 845.78,735.58 845.78,729.03L845.79,729.03Z" style="fill:rgb(59,59,60);fill-rule:nonzero;"/>
    </g>
    <g transform="matrix(1,0,0,1,-249.86,-249.87)">
        <path d="M872.2,725.61C872.2,717.01 878.04,712.02 884.65,712.02C888.02,712.02 890.35,713.45 892.2,715.06L889.97,717.91C888.45,716.58 886.88,715.63 884.84,715.63C880.14,715.63 876.72,719.67 876.72,725.61C876.72,731.55 879.95,735.49 884.7,735.49C887.08,735.49 889.17,734.4 890.78,732.93L892.68,735.83C890.35,737.92 887.41,739.11 884.32,739.11C877.48,739.11 872.21,734.17 872.21,725.62L872.2,725.61Z" style="fill:rgb(59,59,60);fill-rule:nonzero;"/>
    </g>
    <g transform="matrix(1,0,0,1,-249.86,-249.87)">
        <path d="M896.33,731.79C896.33,726.19 901.22,723.38 912.2,722.15C912.2,718.83 911.11,715.64 906.88,715.64C903.89,715.64 901.18,717.02 899.14,718.39L897.43,715.4C899.81,713.88 903.46,712.03 907.6,712.03C913.87,712.03 916.53,716.26 916.53,722.62L916.53,738.49L912.97,738.49L912.59,735.4L912.45,735.4C909.98,737.44 907.08,739.11 903.9,739.11C899.58,739.11 896.35,736.45 896.35,731.79L896.33,731.79ZM912.2,732.22L912.2,725C903.51,726.04 900.56,728.18 900.56,731.51C900.56,734.45 902.56,735.64 905.12,735.64C907.68,735.64 909.68,734.45 912.2,732.22Z" style="fill:rgb(59,59,60);fill-rule:nonzero;"/>
    </g>
    <g transform="matrix(1,0,0,1,-249.86,-249.87)">
        <path d="M924.69,730.51L924.69,716.21L920.84,716.21L920.84,712.93L924.88,712.69L925.4,705.42L929.01,705.42L929.01,712.69L935.99,712.69L935.99,716.21L929.01,716.21L929.01,730.6C929.01,733.78 930.01,735.59 933,735.59C933.9,735.59 935.09,735.26 935.94,734.92L936.79,738.15C935.32,738.63 933.61,739.1 932.04,739.1C926.53,739.1 924.68,735.63 924.68,730.5L924.69,730.51Z" style="fill:rgb(59,59,60);fill-rule:nonzero;"/>
    </g>
    <g transform="matrix(1,0,0,1,-249.86,-249.87)">
        <path d="M941.27,704.48C941.27,702.82 942.46,701.68 944.17,701.68C945.88,701.68 947.07,702.82 947.07,704.48C947.07,706.24 945.88,707.38 944.17,707.38C942.46,707.38 941.27,706.24 941.27,704.48ZM941.98,712.69L946.3,712.69L946.3,738.48L941.98,738.48L941.98,712.69Z" style="fill:rgb(59,59,60);fill-rule:nonzero;"/>
    </g>
    <g transform="matrix(1,0,0,1,-249.86,-249.87)">
        <path d="M952.05,725.61C952.05,717.01 957.7,712.02 964.02,712.02C970.34,712.02 975.99,717.01 975.99,725.61C975.99,734.21 970.34,739.1 964.02,739.1C957.7,739.1 952.05,734.16 952.05,725.61ZM971.53,725.61C971.53,719.67 968.49,715.63 964.02,715.63C959.55,715.63 956.56,719.67 956.56,725.61C956.56,731.55 959.55,735.49 964.02,735.49C968.49,735.49 971.53,731.55 971.53,725.61Z" style="fill:rgb(59,59,60);fill-rule:nonzero;"/>
    </g>
    <g transform="matrix(1,0,0,1,-249.86,-249.87)">
        <path d="M981.74,712.69L985.3,712.69L985.68,716.4L985.82,716.4C988.29,713.98 990.95,712.03 994.47,712.03C999.89,712.03 1002.36,715.55 1002.36,722.15L1002.36,738.49L998.04,738.49L998.04,722.72C998.04,717.87 996.57,715.83 993.15,715.83C990.49,715.83 988.69,717.16 986.07,719.77L986.07,738.49L981.75,738.49L981.75,712.7L981.74,712.69Z" style="fill:rgb(59,59,60);fill-rule:nonzero;"/>
    </g>
    <g transform="matrix(1,0,0,1,-249.86,-249.87)">
        <path d="M1020.07,731.79C1020.07,726.19 1024.96,723.38 1035.94,722.15C1035.94,718.83 1034.85,715.64 1030.62,715.64C1027.63,715.64 1024.92,717.02 1022.88,718.39L1021.17,715.4C1023.55,713.88 1027.2,712.03 1031.34,712.03C1037.61,712.03 1040.27,716.26 1040.27,722.62L1040.27,738.49L1036.71,738.49L1036.33,735.4L1036.19,735.4C1033.72,737.44 1030.82,739.11 1027.64,739.11C1023.32,739.11 1020.09,736.45 1020.09,731.79L1020.07,731.79ZM1035.93,732.22L1035.93,725C1027.24,726.04 1024.29,728.18 1024.29,731.51C1024.29,734.45 1026.29,735.64 1028.85,735.64C1031.41,735.64 1033.41,734.45 1035.93,732.22Z" style="fill:rgb(59,59,60);fill-rule:nonzero;"/>
    </g>
    <g transform="matrix(1,0,0,1,-249.86,-249.87)">
        <path d="M1047.19,712.69L1050.75,712.69L1051.13,716.4L1051.27,716.4C1053.74,713.98 1056.4,712.03 1059.92,712.03C1065.34,712.03 1067.81,715.55 1067.81,722.15L1067.81,738.49L1063.49,738.49L1063.49,722.72C1063.49,717.87 1062.02,715.83 1058.6,715.83C1055.94,715.83 1054.14,717.16 1051.52,719.77L1051.52,738.49L1047.2,738.49L1047.2,712.7L1047.19,712.69Z" style="fill:rgb(59,59,60);fill-rule:nonzero;"/>
    </g>
    <g transform="matrix(1,0,0,1,-249.86,-249.87)">
        <path d="M1073.55,725.61C1073.55,717.25 1078.82,712.02 1084.71,712.02C1087.75,712.02 1089.7,713.16 1091.98,715.06L1091.79,710.6L1091.79,700.67L1096.06,700.67L1096.06,738.48L1092.54,738.48L1092.16,735.44L1092.02,735.44C1089.98,737.44 1087.27,739.1 1084.18,739.1C1077.72,739.1 1073.54,734.21 1073.54,725.61L1073.55,725.61ZM1091.79,731.93L1091.79,718.39C1089.56,716.44 1087.61,715.68 1085.47,715.68C1081.29,715.68 1078.01,719.67 1078.01,725.56C1078.01,731.78 1080.58,735.49 1085.14,735.49C1087.52,735.49 1089.6,734.3 1091.79,731.93Z" style="fill:rgb(59,59,60);fill-rule:nonzero;"/>
    </g>
    <g transform="matrix(1,0,0,1,-249.86,-249.87)">
        <path d="M1116.63,703.62L1127.57,703.62C1134.65,703.62 1139.73,706.18 1139.73,713.45C1139.73,718.87 1136.59,722.1 1131.84,723.24L1140.77,738.49L1135.78,738.49L1127.32,723.72L1121.05,723.72L1121.05,738.49L1116.63,738.49L1116.63,703.62ZM1126.9,720.15C1132.36,720.15 1135.36,717.96 1135.36,713.45C1135.36,708.94 1132.37,707.23 1126.9,707.23L1121.06,707.23L1121.06,720.15L1126.9,720.15Z" style="fill:rgb(59,59,60);fill-rule:nonzero;"/>
    </g>
    <g transform="matrix(1,0,0,1,-249.86,-249.87)">
        <path d="M1143.9,725.61C1143.9,717.25 1149.55,712.02 1155.54,712.02C1162.1,712.02 1165.8,716.77 1165.8,724.13C1165.8,725.08 1165.7,725.98 1165.61,726.6L1148.22,726.6C1148.51,732.11 1151.88,735.62 1156.77,735.62C1159.29,735.62 1161.33,734.86 1163.23,733.58L1164.8,736.43C1162.52,737.9 1159.76,739.09 1156.25,739.09C1149.41,739.09 1143.9,734.1 1143.9,725.6L1143.9,725.61ZM1162,723.48C1162,718.3 1159.62,715.5 1155.59,715.5C1151.93,715.5 1148.7,718.44 1148.18,723.48L1162,723.48Z" style="fill:rgb(59,59,60);fill-rule:nonzero;"/>
    </g>
    <g transform="matrix(1,0,0,1,-249.86,-249.87)">
        <path d="M1169.41,735.54L1171.55,732.69C1173.78,734.49 1176.11,735.73 1179.2,735.73C1182.62,735.73 1184.28,733.92 1184.28,731.69C1184.28,729.03 1181.24,727.89 1178.39,726.8C1174.78,725.47 1170.84,723.71 1170.84,719.34C1170.84,715.25 1174.17,712.02 1179.77,712.02C1182.95,712.02 1185.75,713.35 1187.75,714.92L1185.66,717.72C1183.9,716.39 1182.1,715.44 1179.82,715.44C1176.54,715.44 1175.02,717.15 1175.02,719.15C1175.02,721.62 1177.68,722.52 1180.58,723.61C1184.33,725.03 1188.47,726.55 1188.47,731.45C1188.47,735.63 1185.14,739.1 1179.06,739.1C1175.4,739.1 1171.89,737.58 1169.42,735.54L1169.41,735.54Z" style="fill:rgb(59,59,60);fill-rule:nonzero;"/>
    </g>
    <g transform="matrix(1,0,0,1,-249.86,-249.87)">
        <path d="M1192.73,725.61C1192.73,717.25 1198.38,712.02 1204.37,712.02C1210.93,712.02 1214.63,716.77 1214.63,724.13C1214.63,725.08 1214.53,725.98 1214.44,726.6L1197.05,726.6C1197.34,732.11 1200.71,735.62 1205.6,735.62C1208.12,735.62 1210.16,734.86 1212.06,733.58L1213.63,736.43C1211.35,737.9 1208.59,739.09 1205.08,739.09C1198.24,739.09 1192.73,734.1 1192.73,725.6L1192.73,725.61ZM1210.83,723.48C1210.83,718.3 1208.45,715.5 1204.42,715.5C1200.76,715.5 1197.53,718.44 1197.01,723.48L1210.83,723.48Z" style="fill:rgb(59,59,60);fill-rule:nonzero;"/>
    </g>
    <g transform="matrix(1,0,0,1,-249.86,-249.87)">
        <path d="M1218.76,731.79C1218.76,726.19 1223.65,723.38 1234.63,722.15C1234.63,718.83 1233.54,715.64 1229.31,715.64C1226.32,715.64 1223.61,717.02 1221.57,718.39L1219.86,715.4C1222.24,713.88 1225.89,712.03 1230.03,712.03C1236.3,712.03 1238.96,716.26 1238.96,722.62L1238.96,738.49L1235.4,738.49L1235.02,735.4L1234.88,735.4C1232.41,737.44 1229.51,739.11 1226.33,739.11C1222.01,739.11 1218.78,736.45 1218.78,731.79L1218.76,731.79ZM1234.62,732.22L1234.62,725C1225.93,726.04 1222.98,728.18 1222.98,731.51C1222.98,734.45 1224.98,735.64 1227.54,735.64C1230.1,735.64 1232.1,734.45 1234.62,732.22Z" style="fill:rgb(59,59,60);fill-rule:nonzero;"/>
    </g>
    <g transform="matrix(1,0,0,1,-249.86,-249.87)">
        <path d="M1245.63,712.69L1249.2,712.69L1249.58,717.39L1249.72,717.39C1251.53,714.11 1254.14,712.02 1257.03,712.02C1258.17,712.02 1258.98,712.16 1259.79,712.59L1258.98,716.39C1258.13,716.06 1257.51,715.96 1256.46,715.96C1254.32,715.96 1251.66,717.48 1249.95,721.9L1249.95,738.48L1245.63,738.48L1245.63,712.69Z" style="fill:rgb(59,59,60);fill-rule:nonzero;"/>
    </g>
    <g transform="matrix(1,0,0,1,-249.86,-249.87)">
        <path d="M1261.98,725.61C1261.98,717.01 1267.82,712.02 1274.43,712.02C1277.8,712.02 1280.13,713.45 1281.98,715.06L1279.75,717.91C1278.23,716.58 1276.66,715.63 1274.62,715.63C1269.92,715.63 1266.5,719.67 1266.5,725.61C1266.5,731.55 1269.73,735.49 1274.48,735.49C1276.86,735.49 1278.95,734.4 1280.56,732.93L1282.46,735.83C1280.13,737.92 1277.19,739.11 1274.1,739.11C1267.26,739.11 1261.99,734.17 1261.99,725.62L1261.98,725.61Z" style="fill:rgb(59,59,60);fill-rule:nonzero;"/>
    </g>
    <g transform="matrix(1,0,0,1,-249.86,-249.87)">
        <path d="M1288.01,700.68L1292.33,700.68L1292.33,711.03L1292.19,716.35C1294.57,713.97 1297.22,712.03 1300.74,712.03C1306.16,712.03 1308.63,715.55 1308.63,722.15L1308.63,738.49L1304.31,738.49L1304.31,722.72C1304.31,717.87 1302.84,715.83 1299.42,715.83C1296.76,715.83 1294.96,717.16 1292.34,719.77L1292.34,738.49L1288.02,738.49L1288.02,700.68L1288.01,700.68Z" style="fill:rgb(59,59,60);fill-rule:nonzero;"/>
    </g>
</svg>
