<svg width="20" height="3" viewBox="0 0 20 3" fill="none" xmlns="http://www.w3.org/2000/svg">
<path d="M10 0C9.40246 0 9.60452 0.081218 10.0234 2.43745e-09L1.08108 4.76837e-06C0.48354 4.76837e-06 0 0.483543 0 1.08108C0 1.67862 0.48354 2.16217 1.08108 2.16217H8.91892C9.5 2.16217 9.40246 2.16217 10 2.16217C10.5975 2.16217 12 2 11.0811 2.16217H18.9189C19.5165 2.16217 20 1.67862 20 1.08108C20 0.483543 19.5165 4.76837e-06 18.9189 4.76837e-06H11.0811C11.0811 4.76837e-06 10.5975 0 10 0Z" fill="#676D70"/>
</svg>
