<svg width="23" height="23" viewBox="0 0 23 23" fill="none" xmlns="http://www.w3.org/2000/svg">
<path d="M22.0835 21.4552H21.0444V3.91395C21.0444 3.67235 20.8509 3.47887 20.6093 3.47887H16.5019V0.435088C16.5019 0.19348 16.3085 0 16.0668 0H6.30636C6.06475 0 5.87127 0.193475 5.87127 0.435088V3.50327H1.76393C1.52232 3.50327 1.32884 3.69674 1.32884 3.93836V21.4796L0.289736 21.4786C0.144395 21.4786 0 21.5994 0 21.7684V22.7103C0 22.8556 0.120804 23 0.289736 23H22.0825C22.2279 23 22.3723 22.8792 22.3723 22.7103V21.7684C22.3732 21.5758 22.2524 21.455 22.0835 21.455L22.0835 21.4552ZM11.4764 21.4552V16.9854H13.8679C14.0133 16.9854 14.1577 17.1062 14.1577 17.2752V21.4552L11.4764 21.4552ZM12.2258 15.1253V13.4586C12.2258 13.3132 12.3466 13.1688 12.5155 13.1688H14.2794C14.4248 13.1688 14.5692 13.2897 14.5692 13.4586V15.1253C14.5692 15.2706 14.4484 15.415 14.2794 15.415H12.5155C12.3466 15.415 12.2258 15.2942 12.2258 15.1253ZM16.6228 5.84706C16.6228 5.70172 16.7436 5.55732 16.9125 5.55732H18.6765C18.8218 5.55732 18.9662 5.67813 18.9662 5.84706V7.51377C18.9662 7.65911 18.8454 7.80351 18.6765 7.80351H16.9125C16.7672 7.80351 16.6228 7.6827 16.6228 7.51377V5.84706ZM16.6228 9.66471C16.6228 9.51937 16.7436 9.37497 16.9125 9.37497H18.6765C18.8218 9.37497 18.9662 9.49578 18.9662 9.66471V11.3314C18.9662 11.4768 18.8454 11.6212 18.6765 11.6212H16.9125C16.7672 11.6212 16.6228 11.5003 16.6228 11.3314V9.66471ZM16.6228 13.4577C16.6228 13.3124 16.7436 13.168 16.9125 13.168H18.6765C18.8218 13.168 18.9662 13.2888 18.9662 13.4577V15.1244C18.9662 15.2698 18.8454 15.4142 18.6765 15.4142H16.9125C16.7672 15.4142 16.6228 15.2934 16.6228 15.1244V13.4577ZM14.5446 9.66471V11.3314C14.5446 11.4768 14.4238 11.6212 14.2548 11.6212H12.4909C12.3456 11.6212 12.2012 11.5003 12.2012 11.3314V9.66471C12.2012 9.51937 12.322 9.37497 12.4909 9.37497H14.2548C14.4238 9.37497 14.5446 9.49578 14.5446 9.66471ZM11.1867 1.83709C12.7571 1.83709 14.0379 3.11781 14.0379 4.68831C14.0379 6.25881 12.7572 7.53953 11.1867 7.53953C9.61619 7.53953 8.33548 6.25881 8.33548 4.68831C8.33548 3.11691 9.61619 1.83709 11.1867 1.83709ZM7.82883 9.66471C7.82883 9.51937 7.94963 9.37497 8.11856 9.37497H9.88249C10.0278 9.37497 10.1722 9.49578 10.1722 9.66471V11.3314C10.1722 11.4768 10.0514 11.6212 9.88249 11.6212H8.11856C7.97322 11.6212 7.82883 11.5003 7.82883 11.3314V9.66471ZM7.82883 13.4577C7.82883 13.3124 7.94963 13.168 8.11856 13.168H9.88249C10.0278 13.168 10.1722 13.2888 10.1722 13.4577V15.1244C10.1722 15.2698 10.0514 15.4142 9.88249 15.4142H8.11856C7.97322 15.4142 7.82883 15.2934 7.82883 15.1244V13.4577ZM3.40716 5.84706C3.40716 5.70172 3.52796 5.55732 3.69689 5.55732H5.46083C5.60617 5.55732 5.75056 5.67813 5.75056 5.84706V7.51377C5.75056 7.65911 5.62976 7.80351 5.46083 7.80351L3.69689 7.80445C3.55155 7.80445 3.40716 7.68365 3.40716 7.51471V5.84706ZM3.40716 9.66471C3.40716 9.51937 3.52796 9.37497 3.69689 9.37497H5.46083C5.60617 9.37497 5.75056 9.49578 5.75056 9.66471V11.3314C5.75056 11.4768 5.62976 11.6212 5.46083 11.6212L3.69689 11.6221C3.55155 11.6221 3.40716 11.5013 3.40716 11.3324V9.66471ZM3.40716 13.4577C3.40716 13.3124 3.52796 13.168 3.69689 13.168H5.46083C5.60617 13.168 5.75056 13.2888 5.75056 13.4577V15.1244C5.75056 15.2698 5.62976 15.4142 5.46083 15.4142L3.69689 15.4151C3.55155 15.4151 3.40716 15.2943 3.40716 15.1254V13.4577ZM8.21467 17.2754C8.21467 17.13 8.33548 16.9856 8.50441 16.9856H10.8959V21.4554H8.21458L8.21467 17.2754Z" fill="white"/>
</svg>
