<svg width="103" height="83" viewBox="0 0 103 83" fill="none" xmlns="http://www.w3.org/2000/svg">
<path d="M79.8126 38.5352C76.7077 38.5352 74.0114 40.2919 72.6633 42.8656C71.3151 40.2919 68.6187 38.5352 65.5139 38.5352C61.0608 38.5352 57.4453 42.1507 57.4453 46.6037C57.4453 51.0568 61.0608 54.6723 65.5139 54.6723C68.6188 54.6723 71.3152 52.9156 72.6633 50.3418C74.0115 52.9156 76.7078 54.6723 79.8126 54.6723C84.2657 54.6723 87.8812 51.0568 87.8812 46.6037C87.8812 42.1507 84.2657 38.5352 79.8126 38.5352ZM65.5137 50.5866C63.3076 50.5866 61.5304 48.8095 61.5304 46.6033C61.5304 44.3972 63.3076 42.6201 65.5137 42.6201C67.7198 42.6201 69.4969 44.4177 69.4969 46.6237C69.4969 48.8299 67.7198 50.5866 65.5137 50.5866ZM79.8126 50.5866C77.6065 50.5866 75.8294 48.8095 75.8294 46.6033C75.8294 44.3972 77.6065 42.6201 79.8126 42.6201C82.0188 42.6201 83.7959 44.4177 83.7959 46.6237C83.7959 48.8299 82.0188 50.5866 79.8126 50.5866Z" fill="url(#paint0_linear)"/>
<path d="M30.1439 67.2161L28.857 67.6042C27.5496 68.0127 26.1606 67.8902 24.935 67.2569C23.4438 66.5011 21.7893 66.1539 20.1347 66.256C20.5433 65.2551 20.7884 64.1725 20.8701 63.0899V63.0286C20.9314 62.3137 20.9518 61.5987 20.9518 60.8634H24.6491C25.7726 60.8634 26.6918 59.9442 26.6918 58.8207C26.6918 57.6973 25.7726 56.778 24.6491 56.778H20.625C20.5228 56.104 20.3798 55.4503 20.2164 54.7762C19.9509 53.6527 19.8079 52.6722 19.8079 51.8551C19.8079 51.3649 19.8896 50.895 20.0734 50.4456C20.2573 49.9962 20.5024 49.6081 20.8088 49.2812C21.1356 48.934 21.5237 48.6889 21.9936 48.4846C22.443 48.3007 22.974 48.1986 23.546 48.1986C24.935 48.1986 26.5897 48.4846 27.0799 50.7929C27.3046 51.8959 28.3872 52.6109 29.4903 52.3657C30.5933 52.141 31.3083 51.0584 31.0631 49.9553C30.2869 46.2376 27.5497 44.1133 23.5256 44.1133C22.4022 44.1133 21.3604 44.3175 20.4003 44.7261C19.4198 45.1346 18.6027 45.6862 17.8673 46.4419C17.1728 47.1569 16.6417 47.9739 16.2536 48.934C15.8859 49.8532 15.7021 50.8541 15.7021 51.8551C15.7021 52.9785 15.8859 54.2859 16.2332 55.7361C16.3149 56.0834 16.3966 56.4307 16.4578 56.7779H13.0466C11.9231 56.7779 11.0039 57.6971 11.0039 58.8206C11.0039 59.944 11.9231 60.8632 13.0466 60.8632H16.8869C16.8869 61.4761 16.8664 62.0889 16.8256 62.7017V62.7629C16.7234 64.009 16.2741 65.2142 15.5386 66.2355L14.5582 67.5632C14.0679 68.2169 14.0271 69.0952 14.4356 69.8101C14.8441 70.5046 15.6407 70.9132 16.4375 70.811L20.053 70.3617C21.0948 70.2391 22.1366 70.4229 23.0762 70.8928C24.4039 71.5668 25.8542 71.9141 27.3249 71.9141C28.2442 71.9141 29.1634 71.7711 30.0622 71.5056L31.3491 71.1174C32.4318 70.7906 33.0241 69.6468 32.6973 68.5641C32.3705 67.4814 31.2266 66.8687 30.144 67.2159L30.1439 67.2161Z" fill="url(#paint1_linear)"/>
<path d="M91.921 0H16.75C11.1122 0 6.53661 4.57563 6.53661 10.2134V42.3244C2.49207 46.6141 0 52.3744 0 58.7276C0 71.9033 10.7242 82.6275 23.8999 82.6275C34.9912 82.6275 44.3475 75.0288 47.0228 64.7538H91.9215C97.5592 64.7538 102.135 60.1782 102.135 54.5404V10.2138C102.135 4.57604 97.5592 0.000417914 91.9215 0.000417914L91.921 0ZM10.6224 18.3841H98.0498V27.372H10.6224V18.3841ZM16.7505 4.08512H91.9215C95.2919 4.08512 98.0495 6.84273 98.0495 10.2132V14.2985H10.6221V10.2132C10.6221 6.82234 13.3798 4.08512 16.7502 4.08512H16.7505ZM23.8998 78.5209C12.9717 78.5209 4.08606 69.6352 4.08606 58.7071C4.08606 47.7791 12.9718 38.8933 23.8998 38.8933C34.828 38.8933 43.7136 47.7791 43.7136 58.7071C43.7136 69.6352 34.8279 78.5209 23.8998 78.5209ZM91.9213 60.6681H47.7171C47.7784 60.0349 47.7988 59.3812 47.7988 58.7275C47.7988 45.5518 37.0746 34.8276 23.8989 34.8276C18.9965 34.8276 14.4208 36.3188 10.6218 38.8721V31.4572H98.0492V54.5393C98.0492 57.9098 95.2915 60.6674 91.9211 60.6674L91.9213 60.6681Z" fill="url(#paint2_linear)"/>
<defs>
<linearGradient id="paint0_linear" x1="58.8884" y1="43.9142" x2="78.3874" y2="58.9" gradientUnits="userSpaceOnUse">
<stop stop-color="#4EA27D"/>
<stop offset="1" stop-color="#308282"/>
</linearGradient>
<linearGradient id="paint1_linear" x1="12.0367" y1="53.3802" x2="32.1816" y2="59.812" gradientUnits="userSpaceOnUse">
<stop stop-color="#4EA27D"/>
<stop offset="1" stop-color="#308282"/>
</linearGradient>
<linearGradient id="paint2_linear" x1="4.8426" y1="27.5425" x2="87.8626" y2="69.3582" gradientUnits="userSpaceOnUse">
<stop stop-color="#4EA27D"/>
<stop offset="1" stop-color="#308282"/>
</linearGradient>
</defs>
</svg>
