<svg width="20" height="20" viewBox="0 0 20 20" fill="none" xmlns="http://www.w3.org/2000/svg">
<path d="M10 0C9.40246 0 8.91892 0.483541 8.91892 1.08108V8.91892H1.08108C0.483541 8.91892 0 9.40246 0 10C0 10.5975 0.483541 11.0811 1.08108 11.0811H8.91892V18.9189C8.91892 19.5165 9.40246 20 10 20C10.5975 20 11.0811 19.5165 11.0811 18.9189V11.0811H18.9189C19.5165 11.0811 20 10.5975 20 10C20 9.40246 19.5165 8.91892 18.9189 8.91892H11.0811V1.08108C11.0811 0.483541 10.5975 0 10 0Z" fill="#676D70"/>
</svg>
