<svg width="19" height="19" viewBox="0 0 19 19" fill="none" xmlns="http://www.w3.org/2000/svg">
<path d="M9.91067 0.5C9.15648 0.5 8.54322 1.10928 8.54322 1.86486V7.63514H2.75417C1.99998 7.63514 1.38672 8.24442 1.38672 9C1.38672 9.75558 1.99998 10.3649 2.75417 10.3649H8.54322V16.1351C8.54322 16.8907 9.15648 17.5 9.91067 17.5C10.6649 17.5 11.2781 16.8907 11.2781 16.1351V10.3649H17.0672C17.8214 10.3649 18.4346 9.75558 18.4346 9C18.4346 8.24442 17.8214 7.63514 17.0672 7.63514H11.2781V1.86486C11.2781 1.10928 10.6649 0.5 9.91067 0.5Z" fill="#008784" />
</svg>
