<svg width="21" height="22" viewBox="0 0 21 22" fill="none" xmlns="http://www.w3.org/2000/svg">
<path d="M20.4796 0H0.520455C0.233788 0 0 0.239879 0 0.533991V13.2435C0 13.5376 0.233799 13.7775 0.520455 13.7775H9.21154L3.64319 20.9591L4.24192 21.466L9.68015 14.471V22H10.4608V14.471L15.8991 21.466L16.4978 20.9591L10.9295 13.7764H20.4795C20.7662 13.7764 21 13.5366 21 13.2424V0.533991C21 0.239869 20.7662 0 20.4795 0H20.4796ZM6.21892 11.1866C4.03342 11.1866 2.26372 9.37079 2.26372 7.12851C2.26372 4.88618 4.03348 3.07045 6.21892 3.07045C7.10328 3.07045 7.9104 3.36457 8.56097 3.84431L6.24536 7.26212L10.1753 7.02224V7.12862C10.1743 9.37095 8.40556 11.1867 6.21907 11.1867L6.21892 11.1866ZM8.11879 6.06053L10.1223 3.12358C10.9295 3.73788 11.4753 4.72555 11.5017 5.84667L8.11879 6.06053ZM18.6315 9.26448H13.0631V8.73048H18.6315V9.26448ZM18.6315 7.76887H13.0631V7.23488H18.6315V7.76887ZM18.6315 6.24721H13.0631V5.71322H18.6315V6.24721ZM18.6315 4.75161H13.0631V4.21762H18.6315V4.75161Z" fill="white"/>
</svg>
