<svg width="15" height="17" viewBox="0 0 15 17" fill="none" xmlns="http://www.w3.org/2000/svg">
<path d="M7.49463 1.93367L7.49463 0.483331C7.49463 0.107107 7.08444 -0.125046 6.76338 0.0714447L2.53823 2.7211C2.23529 2.91831 2.23529 3.34767 2.53823 3.54487L6.76338 6.19453C7.08443 6.39173 7.49463 6.15886 7.49463 5.78264L7.49463 4.3323C7.60188 4.3323 7.72654 4.3323 7.8512 4.35049C10.3827 4.51132 12.4329 6.58822 12.5939 9.1301C12.7903 12.2986 10.1161 14.8943 6.95978 14.5719C4.60661 14.3216 2.71644 12.46 2.43172 10.1147C2.30706 9.1301 2.46724 8.18113 2.84192 7.35818C2.96658 7.08965 2.86002 6.76727 2.61 6.62391L1.5403 5.97916C1.25476 5.80014 0.862677 5.92532 0.719907 6.2295C0.220569 7.28542 -0.046858 8.46723 0.00676982 9.72036C0.131429 13.6056 3.23407 16.7923 7.08447 16.9889C11.3988 17.2217 14.9999 13.7665 14.9999 9.4701C15.018 5.31704 11.6487 1.93377 7.49452 1.93377L7.49463 1.93367Z" fill="url(#paint0_linear)"/>
<defs>
<linearGradient id="paint0_linear" x1="15.3827" y1="12.0214" x2="-1.70311" y2="7.89182" gradientUnits="userSpaceOnUse">
<stop stop-color="#4EA27D"/>
<stop offset="1" stop-color="#308282"/>
</linearGradient>
</defs>
</svg>
