<svg width="86" height="85" viewBox="0 0 86 85" fill="none" xmlns="http://www.w3.org/2000/svg">
<path d="M74.8508 67.6114L54.9581 47.6379C58.0174 43.6051 59.7396 38.42 59.7396 32.8496C59.7396 19.0227 48.6451 7.88568 34.8715 7.88568C21.0979 7.88568 10 19.0264 10 32.8533C10 46.6801 21.0942 57.817 34.8679 57.817C40.4168 57.817 45.3881 56.0887 49.5992 53.0174L69.4958 72.9909C70.2595 73.7579 71.2175 74.1431 72.1749 74.1431C73.1329 74.1431 74.0871 73.7579 74.8545 72.9909C76.3824 71.4531 76.3825 69.1487 74.8508 67.6114ZM34.8715 50.1368C25.3052 50.1368 17.6545 42.4565 17.6545 32.8533C17.6545 23.2501 25.3052 15.5697 34.8715 15.5697C44.4378 15.5697 52.0886 23.2501 52.0886 32.8533C52.0886 42.4528 44.4342 50.1368 34.8715 50.1368Z" fill="#597EF7"/>
</svg>
