<svg width="14" height="15" viewBox="0 0 14 15" fill="none" xmlns="http://www.w3.org/2000/svg">
<path d="M13.7562 13.4972L9.53654 9.2604C10.1855 8.40495 10.5508 7.30509 10.5508 6.12349C10.5508 3.19053 8.19744 0.828125 5.27576 0.828125C2.35409 0.828125 0 3.19131 0 6.12427C0 9.05724 2.35331 11.4196 5.27499 11.4196C6.45203 11.4196 7.50656 11.053 8.39981 10.4015L12.6203 14.6383C12.7823 14.801 12.9855 14.8827 13.1886 14.8827C13.3918 14.8827 13.5942 14.801 13.757 14.6383C14.0811 14.3121 14.0811 13.8233 13.7562 13.4972L13.7562 13.4972ZM5.27576 9.79048C3.24656 9.79048 1.62367 8.16132 1.62367 6.12427C1.62367 4.08723 3.24656 2.45807 5.27576 2.45807C7.30497 2.45807 8.92786 4.08723 8.92786 6.12427C8.92786 8.16053 7.30421 9.79048 5.27576 9.79048Z" fill="white"/>
</svg>
