<svg width="19" height="26" viewBox="0 0 19 26" fill="none" xmlns="http://www.w3.org/2000/svg">
<path d="M16.232 3.02735H5.72283C4.83348 3.02735 4.10938 3.75145 4.10938 4.6408V11.7655C4.10938 12.6548 4.83348 13.3789 5.72283 13.3789H7.25039L7.37868 13.5159C8.0995 14.2813 8.86274 15.1587 9.2824 15.6469L11.3242 13.3789H16.2309C17.1202 13.3789 17.8443 12.6548 17.8443 11.7655V4.6408C17.8443 3.75145 17.1213 3.02734 16.232 3.02734L16.232 3.02735Z" fill="white"/>
<path d="M12.5797 0H2.07048C1.18113 0 0.457031 0.724104 0.457031 1.61345V8.73815C0.457031 9.6275 1.18113 10.3516 2.07048 10.3516H3.23599L3.23708 4.63943C3.23708 3.26952 4.35148 2.15511 5.7214 2.15511H14.1932V1.61367C14.1932 0.724326 13.4691 0.000222701 12.5798 0.000222701L12.5797 0Z" fill="white"/>
<path d="M1.62109 17.3973C1.62109 17.9191 1.82006 18.4171 2.18101 18.7987C2.5724 19.2119 3.09864 19.4391 3.6629 19.4391C4.22715 19.4391 4.75339 19.2119 5.14478 18.7987C5.50575 18.4171 5.7047 17.9191 5.7047 17.3973C5.7047 16.2709 4.78924 15.3555 3.6629 15.3555C2.53761 15.3555 1.62109 16.2709 1.62109 17.3973Z" fill="white"/>
<path d="M15.8206 18.7987C16.1815 18.4171 16.3805 17.9191 16.3805 17.3973C16.3805 16.2709 15.465 15.3555 14.3387 15.3555C13.2123 15.3555 12.2969 16.2709 12.2969 17.3973C12.2969 17.9191 12.4958 18.4171 12.8568 18.7987C13.2482 19.2119 13.7744 19.4391 14.3387 19.4391C14.9029 19.4402 15.4292 19.2119 15.8206 18.7987Z" fill="white"/>
<path d="M0 25.0507H7.32565V23.4286C7.32565 21.9325 6.10904 20.7148 4.61193 20.7148H2.71472C1.21761 20.7148 0.00100229 21.9325 0.00100229 23.4286L0 25.0507Z" fill="white"/>
<path d="M15.2878 20.7148H13.3906C11.8935 20.7148 10.6769 21.9325 10.6769 23.4286L10.6758 25.0507H18.0014V23.4286C18.0014 21.9325 16.7837 20.7148 15.2877 20.7148H15.2878Z" fill="white"/>
</svg>
