<svg width="22" height="25" viewBox="0 0 22 25" fill="none" xmlns="http://www.w3.org/2000/svg">
<path d="M6.84296 0H20.6174C21.3812 0 22 0.639514 22 1.42899V15.0724C22 15.8619 21.3812 16.5014 20.6174 16.5014H8.17859V14.4677H20.0275V2.03381H7.8298C7.70201 1.27016 7.35891 0.562053 6.84296 0ZM4.07578 5.11718C5.02125 5.11718 5.87349 4.5293 6.23475 3.62662C6.596 2.72393 6.39617 1.68522 5.72839 0.994938C5.05964 0.303767 4.05463 0.0972389 3.18135 0.470611C2.30892 0.844999 1.73915 1.72582 1.73915 2.70197C1.73915 4.03563 2.78539 5.11718 4.07578 5.11718ZM3.16862e-05 7.8808V12.5462C3.16862e-05 13.434 0.608246 14.1987 1.45183 14.3714V23.7776C1.43069 24.0943 1.5383 24.4052 1.74872 24.6365C1.95818 24.8689 2.25124 25 2.5587 25C2.86521 25 3.15826 24.8689 3.36869 24.6365C3.57815 24.4052 3.68577 24.0943 3.66557 23.7776V17.0865C3.65981 16.875 3.80201 16.6913 4.00187 16.6486C4.12005 16.6277 4.24111 16.6625 4.33336 16.7419C4.42464 16.8214 4.47749 16.9395 4.47652 17.0637V23.7667C4.45635 24.0834 4.56396 24.3953 4.77341 24.6266C4.98383 24.858 5.27689 24.9901 5.5834 24.9901C5.89086 24.9901 6.18391 24.858 6.39434 24.6266C6.6038 24.3952 6.71142 24.0834 6.69027 23.7667V8.80839L8.77141 10.5879C9.15094 10.9116 9.69668 10.9176 10.0829 10.6038L13.1546 8.10235C13.5956 7.76968 13.7254 7.14902 13.4573 6.65846C13.3016 6.3943 13.0441 6.21159 12.7501 6.15597C12.4552 6.10135 12.1525 6.1798 11.9171 6.37047L9.46313 8.36349L7.00342 6.26618C6.81702 6.10432 6.58258 6.01395 6.33853 6.01197H1.8006C1.32211 6.01197 0.862833 6.20958 0.524623 6.56011C0.187371 6.91066 -0.00188689 7.38626 3.16862e-05 7.8808Z" fill="white"/>
</svg>
