<svg width="18" height="23" viewBox="0 0 18 23" fill="none" xmlns="http://www.w3.org/2000/svg">
<path d="M6.8824 11.9901C10.7161 11.9901 13.026 14.6849 13.7572 19.8072C13.7984 20.0897 13.6603 20.3675 13.4108 20.5065C11.2472 21.7085 9.06789 22.3137 6.88252 22.3137C4.69603 22.3137 2.51786 21.7085 0.354257 20.5065C0.104714 20.3676 -0.0333016 20.0897 0.00690036 19.8072C0.738165 14.6846 3.04777 11.9901 6.8824 11.9901ZM6.8824 10.6135C4.60177 10.6135 2.75269 8.76429 2.75269 6.48375C2.75269 4.20312 4.60186 2.35474 6.8824 2.35474C9.16304 2.35474 11.0114 4.203 11.0114 6.48375C11.0114 8.76438 9.16315 10.6135 6.8824 10.6135Z" fill="white"/>
<path d="M13.0736 2.67961C12.8596 2.46563 12.8596 2.11844 13.0736 1.90444C13.2876 1.69045 13.6347 1.69045 13.8487 1.90444C16.0957 4.1514 16.0957 7.79493 13.8487 10.0426C13.6348 10.2566 13.2876 10.2566 13.0736 10.0426C12.8596 9.82866 12.8596 9.48147 13.0736 9.26747C14.8925 7.44783 14.8925 4.49839 13.0736 2.67961ZM14.8175 0.935663C14.6035 0.72168 14.6035 0.374489 14.8175 0.160487C15.0315 -0.0534957 15.3787 -0.0534957 15.5927 0.160487C18.8026 3.37098 18.8026 8.57595 15.5927 11.7859C15.3787 12.0006 15.0315 12.0006 14.8175 11.7859C14.6035 11.5719 14.6035 11.2254 14.8175 11.0115C17.6002 8.22878 17.6002 3.71815 14.8175 0.935663Z" fill="white"/>
</svg>
