<svg xmlns="http://www.w3.org/2000/svg" width="83" height="66" viewBox="0 0 83 66">
    <g fill="#8E3B74" fill-rule="evenodd">
        <circle cx="3.122" cy="42.365" r="3.122"/>
        <circle cx="3.122" cy="62.878" r="3.122"/>
        <circle cx="3.122" cy="32.554" r="3.122"/>
        <circle cx="3.122" cy="52.176" r="3.122"/>
        <circle cx="53.959" cy="22.743" r="3.122"/>
        <circle cx="53.959" cy="42.365" r="3.122"/>
        <circle cx="53.959" cy="62.878" r="3.122"/>
        <circle cx="53.959" cy="32.554" r="3.122"/>
        <circle cx="53.959" cy="52.176" r="3.122"/>
        <circle cx="53.959" cy="12.932" r="3.122"/>
        <circle cx="28.095" cy="22.743" r="3.122"/>
        <circle cx="28.095" cy="42.365" r="3.122"/>
        <circle cx="28.095" cy="62.878" r="3.122"/>
        <circle cx="28.095" cy="32.554" r="3.122"/>
        <circle cx="28.095" cy="52.176" r="3.122"/>
        <circle cx="28.095" cy="12.932" r="3.122"/>
        <circle cx="78.932" cy="42.365" r="3.122"/>
        <circle cx="78.932" cy="62.878" r="3.122"/>
        <circle cx="78.932" cy="32.554" r="3.122"/>
        <circle cx="78.932" cy="52.176" r="3.122"/>
        <circle cx="15.608" cy="22.743" r="3.122"/>
        <circle cx="15.608" cy="62.878" r="3.122"/>
        <circle cx="15.608" cy="32.554" r="3.122"/>
        <circle cx="66.446" cy="22.743" r="3.122"/>
        <circle cx="66.446" cy="62.878" r="3.122"/>
        <circle cx="66.446" cy="32.554" r="3.122"/>
        <circle cx="40.581" cy="22.743" r="3.122"/>
        <circle cx="40.581" cy="62.878" r="3.122"/>
        <circle cx="40.581" cy="3.122" r="3.122"/>
        <circle cx="40.581" cy="32.554" r="3.122"/>
        <circle cx="40.581" cy="12.932" r="3.122"/>
        <circle cx="3.122" cy="42.365" r="3.122"/>
        <circle cx="3.122" cy="62.878" r="3.122"/>
        <circle cx="3.122" cy="32.554" r="3.122"/>
        <circle cx="3.122" cy="52.176" r="3.122"/>
        <circle cx="53.959" cy="22.743" r="3.122"/>
        <circle cx="53.959" cy="42.365" r="3.122"/>
        <circle cx="53.959" cy="62.878" r="3.122"/>
        <circle cx="53.959" cy="32.554" r="3.122"/>
        <circle cx="53.959" cy="12.932" r="3.122"/>
        <circle cx="28.095" cy="22.743" r="3.122"/>
        <circle cx="28.095" cy="42.365" r="3.122"/>
        <circle cx="28.095" cy="62.878" r="3.122"/>
        <circle cx="28.095" cy="32.554" r="3.122"/>
        <circle cx="28.095" cy="12.932" r="3.122"/>
        <circle cx="78.932" cy="42.365" r="3.122"/>
        <circle cx="78.932" cy="62.878" r="3.122"/>
        <circle cx="78.932" cy="32.554" r="3.122"/>
        <circle cx="78.932" cy="52.176" r="3.122"/>
        <circle cx="15.608" cy="22.743" r="3.122"/>
        <circle cx="15.608" cy="32.554" r="3.122"/>
        <circle cx="66.446" cy="22.743" r="3.122"/>
        <circle cx="66.446" cy="32.554" r="3.122"/>
        <circle cx="40.581" cy="22.743" r="3.122"/>
        <circle cx="40.581" cy="62.878" r="3.122"/>
        <circle cx="40.581" cy="3.122" r="3.122"/>
        <circle cx="40.581" cy="32.554" r="3.122"/>
        <circle cx="40.581" cy="12.932" r="3.122"/>
    </g>
</svg>
