<svg width="8" height="12" viewBox="0 0 8 12" fill="none" xmlns="http://www.w3.org/2000/svg">
<path d="M2.97719 2.99627L5.95437 -8.94171e-08L6.97719 1.02937C7.53984 1.59562 8 2.0653 8 2.07374C8 2.08217 7.12577 2.96904 6.05682 4.04437L4.11364 6L6.05682 7.95563C7.12528 9.0314 8 9.91822 8 9.92626C8 9.9347 7.53982 10.4049 6.97719 10.9706L5.95437 12L2.97719 9.00373C1.33961 7.35566 2.14384e-07 6.00422 2.14568e-07 6.00002C2.14751e-07 5.99582 1.33949 4.64391 2.97719 2.99632L2.97719 2.99627Z" fill="url(#paint0_linear)"/>
<defs>
<linearGradient id="paint0_linear" x1="5.33333" y1="0.568965" x2="-0.108226" y2="9.47172" gradientUnits="userSpaceOnUse">
<stop stop-color="#4EA27D"/>
<stop offset="1" stop-color="#308282"/>
</linearGradient>
</defs>
</svg>
