<svg width="8" height="12" viewBox="0 0 8 12" fill="none" xmlns="http://www.w3.org/2000/svg">
<path d="M5.02281 2.99627L2.04563 -8.94171e-08L1.02281 1.02937C0.460165 1.59562 9.02771e-08 2.0653 9.06459e-08 2.07374C9.10146e-08 2.08217 0.874234 2.96904 1.94318 4.04437L3.88636 6L1.94318 7.95563C0.874723 9.0314 4.33539e-07 9.91822 4.33891e-07 9.92626C4.3426e-07 9.9347 0.460177 10.4049 1.02281 10.9706L2.04563 12L5.02281 9.00373C6.66039 7.35566 8 6.00422 8 6.00002C8 5.99582 6.66051 4.64391 5.02281 2.99632L5.02281 2.99627Z" fill="url(#paint0_linear)"/>
<defs>
<linearGradient id="paint0_linear" x1="2.66667" y1="0.568965" x2="8.10823" y2="9.47172" gradientUnits="userSpaceOnUse">
<stop stop-color="#4EA27D"/>
<stop offset="1" stop-color="#308282"/>
</linearGradient>
</defs>
</svg>
