<svg width="10" height="16" viewBox="0 0 10 16" fill="none" xmlns="http://www.w3.org/2000/svg">
<path d="M6.27852 3.99502L2.55703 -7.40957e-08L1.27852 1.37249C0.575206 2.1275 1.81574e-07 2.75373 1.82316e-07 2.76498C1.83058e-07 2.77623 1.09279 3.95872 2.42897 5.39249L4.85795 8L2.42897 10.6075C1.0934 12.0419 8.71978e-07 13.2243 8.72684e-07 13.235C8.73426e-07 13.2463 0.575222 13.8731 1.27852 14.6275L2.55703 16L6.27852 12.005C8.32549 9.80755 10 8.00563 10 8.00003C10 7.99443 8.32564 6.19188 6.27852 3.99509L6.27852 3.99502Z" fill="white"/>
</svg>
