<?xml version="1.0" encoding="utf-8"?>
<!-- Generator: Adobe Illustrator 27.0.0, SVG Export Plug-In . SVG Version: 6.00 Build 0)  -->
<svg version="1.1" id="Layer_1" xmlns="http://www.w3.org/2000/svg" xmlns:xlink="http://www.w3.org/1999/xlink" x="0px" y="0px"
	 viewBox="0 0 269.29 113.39" style="enable-background:new 0 0 269.29 113.39;" xml:space="preserve">
<style type="text/css">
	.st0{fill:#C08357;}
	.st1{fill:#001F4E;}
	.st2{fill:#FCB53B;}
	.st3{fill:url(#SVGID_1_);stroke:#172852;stroke-width:0.5038;stroke-miterlimit:10;}
	.st4{fill:#FFFFFF;}
</style>
<g>
	<rect x="91.58" y="3.21" class="st0" width="174.55" height="32.91"/>
	<g>
		<path class="st1" d="M113.92,22.82c-0.35,0.87-0.83,1.64-1.46,2.31c-0.63,0.67-1.38,1.2-2.26,1.59s-1.85,0.59-2.92,0.59
			c-1.07,0-2.04-0.19-2.91-0.58c-0.87-0.39-1.62-0.91-2.25-1.57c-0.63-0.66-1.11-1.43-1.45-2.3c-0.34-0.87-0.51-1.8-0.51-2.77
			c0-0.97,0.17-1.9,0.52-2.77c0.35-0.87,0.83-1.64,1.46-2.31c0.63-0.67,1.38-1.2,2.26-1.59c0.88-0.39,1.85-0.59,2.92-0.59
			c1.07,0,2.04,0.19,2.91,0.58c0.87,0.39,1.62,0.91,2.25,1.57c0.63,0.66,1.11,1.43,1.45,2.3c0.34,0.87,0.51,1.8,0.51,2.77
			C114.44,21.03,114.26,21.95,113.92,22.82z M112.39,17.83c-0.27-0.71-0.66-1.32-1.15-1.84c-0.49-0.52-1.08-0.93-1.75-1.24
			c-0.67-0.31-1.41-0.46-2.21-0.46s-1.54,0.15-2.21,0.45c-0.67,0.3-1.25,0.71-1.73,1.23c-0.48,0.52-0.86,1.13-1.13,1.83
			s-0.41,1.45-0.41,2.25s0.14,1.55,0.41,2.26c0.27,0.71,0.66,1.32,1.15,1.84c0.49,0.52,1.08,0.93,1.75,1.24
			c0.67,0.31,1.41,0.46,2.21,0.46s1.54-0.15,2.21-0.45c0.67-0.3,1.25-0.71,1.73-1.23c0.48-0.52,0.86-1.13,1.13-1.83
			s0.41-1.45,0.41-2.25S112.66,18.54,112.39,17.83z"/>
		<path class="st1" d="M125.68,16.73h1.66l-4.5,10.42h-1.36L117,16.73h1.7l3.48,8.58L125.68,16.73z"/>
		<path class="st1" d="M131,23.96c0.21,0.43,0.49,0.8,0.82,1.1c0.33,0.3,0.71,0.53,1.12,0.68c0.41,0.15,0.85,0.23,1.3,0.23
			c0.72,0,1.34-0.13,1.85-0.4c0.51-0.27,0.98-0.62,1.41-1.06l0.96,0.86c-0.52,0.59-1.11,1.06-1.78,1.41s-1.49,0.53-2.48,0.53
			c-0.71,0-1.37-0.13-2-0.39c-0.63-0.26-1.17-0.63-1.64-1.1c-0.47-0.47-0.84-1.04-1.12-1.71c-0.28-0.67-0.42-1.4-0.42-2.2
			c0-0.75,0.12-1.45,0.37-2.11s0.59-1.23,1.03-1.72c0.44-0.49,0.96-0.87,1.57-1.15c0.61-0.28,1.27-0.42,1.99-0.42
			c0.76,0,1.44,0.14,2.04,0.43c0.6,0.29,1.11,0.68,1.52,1.17c0.41,0.49,0.73,1.07,0.94,1.74c0.21,0.67,0.32,1.38,0.32,2.14
			c0,0.07,0,0.14,0,0.22s-0.01,0.17-0.02,0.26h-8.18C130.65,23.03,130.78,23.53,131,23.96z M137.22,21.33
			c-0.04-0.47-0.14-0.91-0.29-1.34c-0.15-0.43-0.37-0.8-0.64-1.12c-0.27-0.32-0.6-0.58-0.99-0.77c-0.39-0.19-0.84-0.29-1.36-0.29
			c-0.45,0-0.87,0.09-1.25,0.27c-0.38,0.18-0.72,0.43-1.01,0.74c-0.29,0.31-0.53,0.68-0.72,1.11c-0.19,0.43-0.3,0.89-0.36,1.4
			H137.22z"/>
		<path class="st1" d="M143.54,27.07H142V16.73h1.54v2.7c0.19-0.43,0.42-0.82,0.7-1.18c0.28-0.36,0.6-0.67,0.96-0.93
			c0.36-0.26,0.75-0.46,1.18-0.59c0.43-0.13,0.89-0.19,1.38-0.18v1.66h-0.12c-0.56,0-1.09,0.1-1.59,0.3c-0.5,0.2-0.94,0.5-1.31,0.9
			c-0.37,0.4-0.67,0.9-0.88,1.49s-0.32,1.28-0.32,2.05V27.07z"/>
		<path class="st1" d="M152.17,18.16c-0.5,0.14-0.99,0.32-1.47,0.55l-0.46-1.26c0.57-0.27,1.15-0.48,1.74-0.63s1.26-0.23,2.02-0.23
			c1.41,0,2.5,0.35,3.26,1.05c0.76,0.7,1.14,1.74,1.14,3.11v6.32h-1.48v-1.56c-0.36,0.47-0.84,0.88-1.45,1.24
			c-0.61,0.36-1.37,0.54-2.29,0.54c-0.48,0-0.95-0.07-1.41-0.2s-0.87-0.34-1.24-0.61c-0.37-0.27-0.66-0.61-0.88-1.01
			c-0.22-0.4-0.33-0.87-0.33-1.42c0-0.55,0.11-1.03,0.32-1.45c0.21-0.42,0.52-0.77,0.91-1.05c0.39-0.28,0.86-0.49,1.4-0.64
			c0.54-0.15,1.14-0.22,1.79-0.22c0.67,0,1.25,0.04,1.74,0.12c0.49,0.08,0.97,0.19,1.44,0.32v-0.36c0-0.93-0.27-1.64-0.81-2.11
			c-0.54-0.47-1.3-0.71-2.27-0.71C153.22,17.95,152.67,18.02,152.17,18.16z M151.67,22.41c-0.52,0.39-0.78,0.91-0.78,1.58
			c0,0.33,0.07,0.63,0.21,0.88c0.14,0.25,0.33,0.47,0.57,0.65c0.24,0.18,0.51,0.32,0.83,0.41c0.31,0.09,0.64,0.14,0.99,0.14
			c0.48,0,0.93-0.07,1.35-0.21c0.42-0.14,0.78-0.33,1.1-0.58c0.31-0.25,0.56-0.54,0.74-0.88c0.18-0.34,0.27-0.72,0.27-1.13v-1
			c-0.39-0.11-0.83-0.21-1.33-0.3c-0.5-0.09-1.07-0.14-1.71-0.14C152.94,21.83,152.19,22.03,151.67,22.41z"/>
		<path class="st1" d="M162.32,27.07v-14.6h1.54v14.6H162.32z"/>
		<path class="st1" d="M168.08,27.07v-14.6h1.54v14.6H168.08z"/>
		<path class="st1" d="M173.62,18.83v-2.1h1.84v2.1H173.62z M173.62,27.07v-2.1h1.84v2.1H173.62z"/>
		<path class="st1" d="M197.27,24.91c-0.25,0.48-0.6,0.88-1.06,1.2c-0.46,0.32-1.01,0.56-1.66,0.72c-0.65,0.16-1.36,0.24-2.15,0.24
			h-6.65v-14h6.49c1.44,0,2.57,0.33,3.38,0.98s1.23,1.53,1.23,2.64v0.04c0,0.4-0.05,0.75-0.15,1.06s-0.23,0.58-0.4,0.83
			c-0.17,0.25-0.36,0.46-0.58,0.65s-0.45,0.35-0.71,0.48c0.81,0.31,1.45,0.72,1.91,1.25c0.46,0.53,0.7,1.26,0.7,2.19v0.04
			C197.64,23.87,197.51,24.43,197.27,24.91z M193.82,17.21c0-0.47-0.17-0.82-0.52-1.07c-0.35-0.25-0.85-0.37-1.5-0.37h-3.04v2.96
			h2.84c0.68,0,1.22-0.12,1.62-0.35c0.4-0.23,0.6-0.61,0.6-1.13V17.21z M194.6,22.81c0-0.47-0.18-0.84-0.54-1.11
			c-0.36-0.27-0.94-0.41-1.74-0.41h-3.56v3.08h3.66c0.68,0,1.21-0.12,1.6-0.37s0.58-0.63,0.58-1.15V22.81z"/>
		<path class="st1" d="M206.68,19.33c-1.01,0-1.81,0.31-2.39,0.92s-0.87,1.57-0.87,2.86v3.96h-3.04V16.35h3.04v2.16
			c0.31-0.73,0.73-1.32,1.26-1.76c0.53-0.44,1.25-0.64,2.16-0.6v3.18H206.68z"/>
		<path class="st1" d="M219.88,23.9c-0.29,0.67-0.7,1.26-1.22,1.77c-0.52,0.51-1.13,0.91-1.84,1.2c-0.71,0.29-1.48,0.44-2.32,0.44
			c-0.83,0-1.59-0.14-2.3-0.43c-0.71-0.29-1.32-0.68-1.83-1.18c-0.51-0.5-0.92-1.09-1.21-1.76c-0.29-0.67-0.44-1.4-0.44-2.17v-0.04
			c0-0.77,0.15-1.5,0.44-2.17c0.29-0.67,0.7-1.26,1.22-1.77c0.52-0.51,1.13-0.91,1.84-1.2c0.71-0.29,1.48-0.44,2.32-0.44
			c0.83,0,1.59,0.14,2.3,0.43c0.71,0.29,1.32,0.68,1.83,1.18s0.92,1.09,1.21,1.76s0.44,1.4,0.44,2.17v0.04
			C220.32,22.51,220.17,23.23,219.88,23.9z M217.32,21.73c0-0.4-0.07-0.78-0.2-1.13c-0.13-0.35-0.33-0.67-0.58-0.94
			c-0.25-0.27-0.55-0.49-0.9-0.65s-0.73-0.24-1.14-0.24c-0.44,0-0.83,0.08-1.17,0.23s-0.63,0.36-0.87,0.63s-0.42,0.58-0.55,0.93
			c-0.13,0.35-0.19,0.73-0.19,1.13v0.04c0,0.4,0.07,0.78,0.2,1.13c0.13,0.35,0.33,0.67,0.58,0.94c0.25,0.27,0.55,0.49,0.89,0.65
			c0.34,0.16,0.72,0.24,1.15,0.24c0.44,0,0.83-0.08,1.17-0.23s0.63-0.36,0.87-0.63c0.24-0.27,0.42-0.58,0.55-0.93
			c0.13-0.35,0.19-0.73,0.19-1.13V21.73z"/>
		<path class="st1" d="M229.8,27.07v-5.97c0-0.72-0.16-1.26-0.48-1.63c-0.32-0.37-0.77-0.55-1.36-0.55s-1.05,0.18-1.39,0.55
			c-0.34,0.37-0.51,0.91-0.51,1.63v5.97h-3.04V16.35h3.04v1.53c0.17-0.23,0.36-0.45,0.57-0.65s0.44-0.39,0.69-0.55
			c0.25-0.16,0.53-0.29,0.84-0.38s0.65-0.14,1.04-0.14c1.16,0,2.06,0.35,2.69,1.06c0.63,0.71,0.95,1.68,0.95,2.92v6.94H229.8z"/>
		<path class="st1" d="M235.62,27.07v-2.14l5.54-6.12h-5.36v-2.46h9.14v2.14l-5.56,6.12h5.56v2.46H235.62z"/>
		<path class="st1" d="M257.73,22.39c-0.01,0.11-0.02,0.23-0.03,0.38h-7.46c0.15,0.69,0.45,1.22,0.91,1.57
			c0.46,0.35,1.03,0.53,1.71,0.53c0.51,0,0.96-0.09,1.36-0.26s0.81-0.45,1.24-0.84l1.74,1.54c-0.51,0.63-1.12,1.12-1.84,1.47
			c-0.72,0.35-1.57,0.53-2.54,0.53c-0.8,0-1.54-0.13-2.23-0.4c-0.69-0.27-1.28-0.65-1.78-1.14s-0.89-1.08-1.17-1.75
			s-0.42-1.42-0.42-2.25v-0.04c0-0.76,0.13-1.48,0.39-2.16c0.26-0.68,0.62-1.27,1.09-1.78s1.02-0.91,1.67-1.2
			c0.65-0.29,1.36-0.44,2.15-0.44c0.89,0,1.67,0.16,2.32,0.48s1.2,0.75,1.63,1.29c0.43,0.54,0.75,1.16,0.96,1.86
			c0.21,0.7,0.31,1.43,0.31,2.19v0.04C257.74,22.16,257.73,22.29,257.73,22.39z M254.06,19.22c-0.39-0.42-0.9-0.63-1.54-0.63
			s-1.16,0.21-1.55,0.62c-0.39,0.41-0.65,0.97-0.77,1.66h4.58C254.68,20.19,254.44,19.64,254.06,19.22z"/>
	</g>
	<g>
		<path class="st1" d="M8.61,107.13H7.33V96.94H3.51v-1.19h8.92v1.19H8.61V107.13z"/>
		<path class="st1" d="M13.86,104.6c0.17,0.35,0.4,0.65,0.67,0.89c0.27,0.24,0.57,0.43,0.91,0.55c0.34,0.12,0.69,0.19,1.06,0.19
			c0.58,0,1.09-0.11,1.5-0.33s0.8-0.5,1.15-0.86l0.78,0.7c-0.42,0.48-0.91,0.86-1.45,1.15c-0.54,0.29-1.21,0.43-2.02,0.43
			c-0.57,0-1.12-0.11-1.62-0.32c-0.51-0.21-0.95-0.51-1.34-0.89s-0.69-0.85-0.91-1.39s-0.34-1.14-0.34-1.79
			c0-0.61,0.1-1.18,0.3-1.71c0.2-0.54,0.48-1,0.84-1.4s0.78-0.71,1.28-0.93c0.49-0.23,1.03-0.34,1.62-0.34
			c0.62,0,1.17,0.12,1.66,0.35c0.49,0.23,0.9,0.55,1.23,0.95c0.34,0.4,0.59,0.87,0.76,1.41c0.17,0.54,0.26,1.12,0.26,1.74
			c0,0.05,0,0.11,0,0.18c0,0.07-0.01,0.14-0.02,0.21h-6.65C13.58,103.85,13.69,104.25,13.86,104.6z M18.92,102.47
			c-0.03-0.38-0.11-0.74-0.23-1.09s-0.3-0.65-0.52-0.91c-0.22-0.26-0.49-0.47-0.81-0.62c-0.32-0.16-0.69-0.24-1.11-0.24
			c-0.37,0-0.71,0.07-1.02,0.22c-0.31,0.15-0.59,0.35-0.82,0.6c-0.24,0.25-0.43,0.55-0.58,0.9c-0.15,0.35-0.25,0.73-0.29,1.14H18.92
			z"/>
		<path class="st1" d="M24.27,99.89c-0.41,0.11-0.8,0.26-1.19,0.45l-0.37-1.02c0.46-0.22,0.94-0.39,1.41-0.51
			c0.48-0.12,1.02-0.19,1.64-0.19c1.15,0,2.03,0.29,2.65,0.85s0.93,1.41,0.93,2.53v5.13h-1.2v-1.27c-0.29,0.38-0.68,0.71-1.18,1.01
			c-0.49,0.29-1.11,0.44-1.86,0.44c-0.39,0-0.77-0.05-1.15-0.16c-0.37-0.11-0.71-0.27-1.01-0.5s-0.54-0.5-0.71-0.82
			c-0.18-0.33-0.27-0.71-0.27-1.15s0.09-0.84,0.26-1.18c0.17-0.34,0.42-0.63,0.74-0.85c0.32-0.23,0.7-0.4,1.14-0.52
			c0.44-0.12,0.92-0.18,1.46-0.18c0.54,0,1.01,0.03,1.41,0.1c0.4,0.07,0.79,0.15,1.17,0.26v-0.29c0-0.76-0.22-1.33-0.66-1.71
			c-0.44-0.38-1.05-0.58-1.84-0.58C25.13,99.72,24.68,99.78,24.27,99.89z M23.87,103.35c-0.42,0.31-0.63,0.74-0.63,1.28
			c0,0.27,0.06,0.51,0.17,0.71c0.11,0.21,0.27,0.38,0.46,0.53c0.19,0.15,0.42,0.26,0.67,0.33c0.25,0.08,0.52,0.11,0.8,0.11
			c0.39,0,0.75-0.06,1.09-0.17c0.34-0.11,0.64-0.27,0.89-0.47c0.25-0.2,0.45-0.44,0.6-0.71s0.22-0.58,0.22-0.92v-0.81
			c-0.31-0.09-0.67-0.17-1.08-0.24c-0.41-0.08-0.87-0.11-1.38-0.11C24.9,102.87,24.29,103.03,23.87,103.35z"/>
		<path class="st1" d="M37.97,106.87c-0.54,0.31-1.2,0.46-1.99,0.46c-0.62,0-1.19-0.12-1.71-0.35c-0.53-0.23-0.98-0.55-1.37-0.94
			s-0.69-0.86-0.9-1.39c-0.22-0.53-0.32-1.09-0.32-1.69s0.11-1.16,0.32-1.7c0.22-0.54,0.52-1,0.9-1.41c0.38-0.4,0.84-0.72,1.37-0.95
			c0.53-0.23,1.1-0.35,1.71-0.35c0.4,0,0.76,0.04,1.09,0.11c0.33,0.08,0.62,0.18,0.89,0.32s0.52,0.29,0.75,0.48
			c0.23,0.18,0.44,0.38,0.63,0.58l-0.83,0.88c-0.34-0.35-0.7-0.64-1.1-0.89s-0.88-0.37-1.45-0.37c-0.42,0-0.82,0.08-1.19,0.25
			c-0.37,0.17-0.69,0.4-0.96,0.7c-0.27,0.3-0.48,0.64-0.63,1.04s-0.23,0.82-0.23,1.27s0.08,0.88,0.24,1.28
			c0.16,0.4,0.37,0.75,0.65,1.05s0.6,0.53,0.97,0.7c0.37,0.17,0.78,0.25,1.23,0.25c0.54,0,1.02-0.12,1.44-0.36s0.79-0.54,1.13-0.89
			l0.8,0.75C38.99,106.16,38.51,106.56,37.97,106.87z"/>
		<path class="st1" d="M42.92,107.13h-1.25V95.27h1.25v4.92c0.28-0.45,0.65-0.84,1.11-1.16s1.04-0.48,1.77-0.48
			c0.51,0,0.96,0.08,1.36,0.24c0.4,0.16,0.73,0.39,1.01,0.69s0.49,0.65,0.63,1.06c0.15,0.41,0.22,0.87,0.22,1.36v5.22h-1.25v-4.91
			c0-0.78-0.2-1.4-0.6-1.85c-0.4-0.46-0.97-0.68-1.72-0.68c-0.36,0-0.69,0.06-1,0.19c-0.31,0.12-0.58,0.3-0.8,0.54
			c-0.23,0.23-0.4,0.51-0.53,0.84c-0.12,0.33-0.19,0.68-0.19,1.07V107.13z"/>
		<path class="st1" d="M51.9,96.89v-1.38h1.43v1.38H51.9z M51.98,107.13v-8.4h1.25v8.4H51.98z"/>
		<path class="st1" d="M57.59,107.13h-1.25v-8.4h1.25v1.46c0.28-0.45,0.65-0.84,1.11-1.16s1.04-0.48,1.77-0.48
			c0.51,0,0.96,0.08,1.36,0.24c0.4,0.16,0.73,0.39,1.01,0.69s0.49,0.65,0.63,1.06c0.15,0.41,0.22,0.87,0.22,1.36v5.22h-1.25v-4.91
			c0-0.78-0.2-1.4-0.6-1.85c-0.4-0.46-0.97-0.68-1.72-0.68c-0.36,0-0.69,0.06-1,0.19c-0.31,0.12-0.58,0.3-0.8,0.54
			c-0.23,0.23-0.4,0.51-0.53,0.84c-0.12,0.33-0.19,0.68-0.19,1.07V107.13z"/>
		<path class="st1" d="M74.24,107.46c-0.2,0.51-0.49,0.93-0.86,1.28c-0.37,0.34-0.82,0.6-1.35,0.77c-0.53,0.17-1.11,0.26-1.76,0.26
			c-0.71,0-1.38-0.1-2.02-0.29c-0.64-0.2-1.24-0.49-1.8-0.88l0.57-0.97c0.49,0.35,1,0.61,1.53,0.8c0.53,0.18,1.1,0.28,1.71,0.28
			c0.93,0,1.67-0.25,2.23-0.76c0.55-0.5,0.83-1.25,0.83-2.23v-0.99c-0.37,0.49-0.82,0.91-1.35,1.25s-1.18,0.52-1.95,0.52
			c-0.51,0-1-0.09-1.47-0.27c-0.47-0.18-0.89-0.44-1.26-0.78c-0.37-0.34-0.66-0.76-0.89-1.24c-0.22-0.49-0.33-1.04-0.33-1.66
			c0-0.62,0.11-1.17,0.33-1.67c0.22-0.49,0.52-0.91,0.89-1.25c0.37-0.34,0.79-0.6,1.27-0.79c0.48-0.18,0.96-0.28,1.46-0.28
			c0.39,0,0.75,0.05,1.08,0.14c0.33,0.09,0.63,0.21,0.89,0.37c0.27,0.15,0.51,0.33,0.72,0.54c0.22,0.21,0.41,0.42,0.58,0.65v-1.51
			h1.25v6.94C74.54,106.35,74.44,106.95,74.24,107.46z M73.08,101.34c-0.17-0.35-0.4-0.65-0.69-0.9s-0.62-0.44-0.98-0.58
			c-0.37-0.13-0.75-0.2-1.15-0.2c-0.4,0-0.78,0.07-1.13,0.2c-0.35,0.13-0.66,0.32-0.93,0.57c-0.27,0.25-0.47,0.55-0.63,0.9
			c-0.15,0.35-0.23,0.75-0.23,1.18c0,0.43,0.08,0.83,0.24,1.18c0.16,0.35,0.37,0.66,0.63,0.91c0.26,0.25,0.57,0.45,0.93,0.58
			c0.35,0.13,0.72,0.2,1.11,0.2c0.4,0,0.79-0.07,1.15-0.2c0.37-0.14,0.7-0.33,0.98-0.58s0.52-0.55,0.69-0.9
			c0.17-0.35,0.26-0.74,0.26-1.18S73.25,101.69,73.08,101.34z"/>
		<path class="st1" d="M91.03,96.93h-6.94v3.88h6.21v1.17h-6.21v3.98h7.02v1.17h-8.3V95.76h8.22V96.93z"/>
		<path class="st1" d="M100.98,107.13h-1.45l-2.6-3.43l-2.62,3.43h-1.4l3.3-4.27l-3.17-4.13h1.43l2.49,3.25l2.49-3.25h1.4
			l-3.18,4.09L100.98,107.13z"/>
		<path class="st1" d="M108.41,106.87c-0.54,0.31-1.2,0.46-1.99,0.46c-0.62,0-1.19-0.12-1.71-0.35c-0.53-0.23-0.98-0.55-1.37-0.94
			s-0.69-0.86-0.9-1.39c-0.22-0.53-0.32-1.09-0.32-1.69s0.11-1.16,0.32-1.7c0.22-0.54,0.52-1,0.9-1.41c0.38-0.4,0.84-0.72,1.37-0.95
			c0.53-0.23,1.1-0.35,1.71-0.35c0.4,0,0.76,0.04,1.09,0.11c0.33,0.08,0.62,0.18,0.89,0.32s0.52,0.29,0.75,0.48
			c0.23,0.18,0.44,0.38,0.63,0.58l-0.83,0.88c-0.34-0.35-0.7-0.64-1.1-0.89s-0.88-0.37-1.45-0.37c-0.42,0-0.82,0.08-1.19,0.25
			c-0.37,0.17-0.69,0.4-0.96,0.7c-0.27,0.3-0.48,0.64-0.63,1.04s-0.23,0.82-0.23,1.27s0.08,0.88,0.24,1.28
			c0.16,0.4,0.37,0.75,0.65,1.05s0.6,0.53,0.97,0.7c0.37,0.17,0.78,0.25,1.23,0.25c0.54,0,1.02-0.12,1.44-0.36s0.79-0.54,1.13-0.89
			l0.8,0.75C109.43,106.16,108.95,106.56,108.41,106.87z"/>
		<path class="st1" d="M112.95,104.6c0.17,0.35,0.4,0.65,0.67,0.89c0.27,0.24,0.57,0.43,0.91,0.55c0.34,0.12,0.69,0.19,1.06,0.19
			c0.58,0,1.09-0.11,1.5-0.33s0.8-0.5,1.15-0.86l0.78,0.7c-0.42,0.48-0.91,0.86-1.45,1.15c-0.54,0.29-1.21,0.43-2.02,0.43
			c-0.57,0-1.12-0.11-1.62-0.32c-0.51-0.21-0.95-0.51-1.34-0.89s-0.69-0.85-0.91-1.39s-0.34-1.14-0.34-1.79
			c0-0.61,0.1-1.18,0.3-1.71c0.2-0.54,0.48-1,0.84-1.4s0.78-0.71,1.28-0.93c0.49-0.23,1.03-0.34,1.62-0.34
			c0.62,0,1.17,0.12,1.66,0.35c0.49,0.23,0.9,0.55,1.23,0.95c0.34,0.4,0.59,0.87,0.76,1.41c0.17,0.54,0.26,1.12,0.26,1.74
			c0,0.05,0,0.11,0,0.18c0,0.07-0.01,0.14-0.02,0.21h-6.65C112.67,103.85,112.78,104.25,112.95,104.6z M118.01,102.47
			c-0.03-0.38-0.11-0.74-0.23-1.09s-0.3-0.65-0.52-0.91c-0.22-0.26-0.49-0.47-0.81-0.62c-0.32-0.16-0.69-0.24-1.11-0.24
			c-0.37,0-0.71,0.07-1.02,0.22c-0.31,0.15-0.59,0.35-0.82,0.6c-0.24,0.25-0.43,0.55-0.58,0.9c-0.15,0.35-0.25,0.73-0.29,1.14
			H118.01z"/>
		<path class="st1" d="M121.79,107.13V95.27h1.25v11.86H121.79z"/>
		<path class="st1" d="M126.26,107.13V95.27h1.25v11.86H126.26z"/>
		<path class="st1" d="M131.71,104.6c0.17,0.35,0.4,0.65,0.67,0.89c0.27,0.24,0.57,0.43,0.91,0.55c0.34,0.12,0.69,0.19,1.06,0.19
			c0.58,0,1.09-0.11,1.5-0.33s0.8-0.5,1.15-0.86l0.78,0.7c-0.42,0.48-0.91,0.86-1.45,1.15c-0.54,0.29-1.21,0.43-2.02,0.43
			c-0.57,0-1.12-0.11-1.62-0.32c-0.51-0.21-0.95-0.51-1.34-0.89s-0.69-0.85-0.91-1.39s-0.34-1.14-0.34-1.79
			c0-0.61,0.1-1.18,0.3-1.71c0.2-0.54,0.48-1,0.84-1.4s0.78-0.71,1.28-0.93c0.49-0.23,1.03-0.34,1.62-0.34
			c0.62,0,1.17,0.12,1.66,0.35c0.49,0.23,0.9,0.55,1.23,0.95c0.34,0.4,0.59,0.87,0.76,1.41c0.17,0.54,0.26,1.12,0.26,1.74
			c0,0.05,0,0.11,0,0.18c0,0.07-0.01,0.14-0.02,0.21h-6.65C131.42,103.85,131.53,104.25,131.71,104.6z M136.76,102.47
			c-0.03-0.38-0.11-0.74-0.23-1.09s-0.3-0.65-0.52-0.91c-0.22-0.26-0.49-0.47-0.81-0.62c-0.32-0.16-0.69-0.24-1.11-0.24
			c-0.37,0-0.71,0.07-1.02,0.22c-0.31,0.15-0.59,0.35-0.82,0.6c-0.24,0.25-0.43,0.55-0.58,0.9c-0.15,0.35-0.25,0.73-0.29,1.14
			H136.76z"/>
		<path class="st1" d="M141.68,107.13h-1.25v-8.4h1.25v1.46c0.28-0.45,0.65-0.84,1.11-1.16s1.04-0.48,1.77-0.48
			c0.51,0,0.96,0.08,1.36,0.24c0.4,0.16,0.73,0.39,1.01,0.69s0.49,0.65,0.63,1.06c0.15,0.41,0.22,0.87,0.22,1.36v5.22h-1.25v-4.91
			c0-0.78-0.2-1.4-0.6-1.85c-0.4-0.46-0.97-0.68-1.72-0.68c-0.36,0-0.69,0.06-1,0.19c-0.31,0.12-0.58,0.3-0.8,0.54
			c-0.23,0.23-0.4,0.51-0.53,0.84c-0.12,0.33-0.19,0.68-0.19,1.07V107.13z"/>
		<path class="st1" d="M156.41,106.87c-0.54,0.31-1.2,0.46-1.99,0.46c-0.62,0-1.19-0.12-1.71-0.35c-0.53-0.23-0.98-0.55-1.37-0.94
			s-0.69-0.86-0.9-1.39c-0.22-0.53-0.32-1.09-0.32-1.69s0.11-1.16,0.32-1.7c0.22-0.54,0.52-1,0.9-1.41c0.38-0.4,0.84-0.72,1.37-0.95
			c0.53-0.23,1.1-0.35,1.71-0.35c0.4,0,0.76,0.04,1.09,0.11c0.33,0.08,0.62,0.18,0.89,0.32s0.52,0.29,0.75,0.48
			c0.23,0.18,0.44,0.38,0.63,0.58l-0.83,0.88c-0.34-0.35-0.7-0.64-1.1-0.89s-0.88-0.37-1.45-0.37c-0.42,0-0.82,0.08-1.19,0.25
			c-0.37,0.17-0.69,0.4-0.96,0.7c-0.27,0.3-0.48,0.64-0.63,1.04s-0.23,0.82-0.23,1.27s0.08,0.88,0.24,1.28
			c0.16,0.4,0.37,0.75,0.65,1.05s0.6,0.53,0.97,0.7c0.37,0.17,0.78,0.25,1.23,0.25c0.54,0,1.02-0.12,1.44-0.36s0.79-0.54,1.13-0.89
			l0.8,0.75C157.43,106.16,156.95,106.56,156.41,106.87z"/>
		<path class="st1" d="M160.95,104.6c0.17,0.35,0.4,0.65,0.67,0.89c0.27,0.24,0.57,0.43,0.91,0.55c0.34,0.12,0.69,0.19,1.06,0.19
			c0.58,0,1.09-0.11,1.5-0.33s0.8-0.5,1.15-0.86l0.78,0.7c-0.42,0.48-0.91,0.86-1.45,1.15c-0.54,0.29-1.21,0.43-2.02,0.43
			c-0.57,0-1.12-0.11-1.62-0.32c-0.51-0.21-0.95-0.51-1.34-0.89s-0.69-0.85-0.91-1.39s-0.34-1.14-0.34-1.79
			c0-0.61,0.1-1.18,0.3-1.71c0.2-0.54,0.48-1,0.84-1.4s0.78-0.71,1.28-0.93c0.49-0.23,1.03-0.34,1.62-0.34
			c0.62,0,1.17,0.12,1.66,0.35c0.49,0.23,0.9,0.55,1.23,0.95c0.34,0.4,0.59,0.87,0.76,1.41c0.17,0.54,0.26,1.12,0.26,1.74
			c0,0.05,0,0.11,0,0.18c0,0.07-0.01,0.14-0.02,0.21h-6.65C160.67,103.85,160.78,104.25,160.95,104.6z M166.01,102.47
			c-0.03-0.38-0.11-0.74-0.23-1.09s-0.3-0.65-0.52-0.91c-0.22-0.26-0.49-0.47-0.81-0.62c-0.32-0.16-0.69-0.24-1.11-0.24
			c-0.37,0-0.71,0.07-1.02,0.22c-0.31,0.15-0.59,0.35-0.82,0.6c-0.24,0.25-0.43,0.55-0.58,0.9c-0.15,0.35-0.25,0.73-0.29,1.14
			H166.01z"/>
		<path class="st1" d="M183.14,96.94h-6.89V101h6.16v1.17h-6.16v4.96h-1.28V95.76h8.17V96.94z"/>
		<path class="st1" d="M186.86,107.13h-1.25v-8.4h1.25v2.19c0.15-0.35,0.34-0.67,0.57-0.96c0.23-0.29,0.49-0.54,0.78-0.76
			c0.29-0.21,0.61-0.37,0.96-0.48s0.72-0.16,1.12-0.15v1.35h-0.1c-0.46,0-0.89,0.08-1.29,0.24c-0.41,0.16-0.76,0.41-1.06,0.73
			c-0.3,0.32-0.54,0.73-0.71,1.21c-0.17,0.48-0.26,1.04-0.26,1.67V107.13z"/>
		<path class="st1" d="M193.66,99.89c-0.41,0.11-0.8,0.26-1.19,0.45l-0.37-1.02c0.46-0.22,0.94-0.39,1.41-0.51
			c0.48-0.12,1.02-0.19,1.64-0.19c1.15,0,2.03,0.29,2.65,0.85s0.93,1.41,0.93,2.53v5.13h-1.2v-1.27c-0.29,0.38-0.68,0.71-1.18,1.01
			c-0.49,0.29-1.11,0.44-1.86,0.44c-0.39,0-0.77-0.05-1.15-0.16c-0.37-0.11-0.71-0.27-1.01-0.5s-0.54-0.5-0.71-0.82
			c-0.18-0.33-0.27-0.71-0.27-1.15s0.09-0.84,0.26-1.18c0.17-0.34,0.42-0.63,0.74-0.85c0.32-0.23,0.7-0.4,1.14-0.52
			c0.44-0.12,0.92-0.18,1.46-0.18c0.54,0,1.01,0.03,1.41,0.1c0.4,0.07,0.79,0.15,1.17,0.26v-0.29c0-0.76-0.22-1.33-0.66-1.71
			c-0.44-0.38-1.05-0.58-1.84-0.58C194.52,99.72,194.06,99.78,193.66,99.89z M193.26,103.35c-0.42,0.31-0.63,0.74-0.63,1.28
			c0,0.27,0.06,0.51,0.17,0.71c0.11,0.21,0.27,0.38,0.46,0.53c0.19,0.15,0.42,0.26,0.67,0.33c0.25,0.08,0.52,0.11,0.8,0.11
			c0.39,0,0.75-0.06,1.09-0.17c0.34-0.11,0.64-0.27,0.89-0.47c0.25-0.2,0.45-0.44,0.6-0.71s0.22-0.58,0.22-0.92v-0.81
			c-0.31-0.09-0.67-0.17-1.08-0.24c-0.41-0.08-0.87-0.11-1.38-0.11C194.28,102.87,193.68,103.03,193.26,103.35z"/>
		<path class="st1" d="M208.75,99.58c0.19-0.21,0.4-0.38,0.64-0.54c0.24-0.15,0.51-0.27,0.8-0.36c0.3-0.09,0.63-0.13,1-0.13
			c0.97,0,1.74,0.3,2.29,0.9c0.55,0.6,0.83,1.43,0.83,2.48v5.2h-1.25v-4.91c0-0.81-0.19-1.44-0.58-1.88
			c-0.38-0.44-0.92-0.66-1.6-0.66c-0.31,0-0.61,0.06-0.89,0.17c-0.28,0.11-0.53,0.28-0.74,0.5c-0.21,0.22-0.38,0.5-0.5,0.82
			c-0.12,0.32-0.19,0.69-0.19,1.1v4.84h-1.23v-4.94c0-0.79-0.19-1.41-0.58-1.84c-0.38-0.44-0.91-0.66-1.58-0.66
			c-0.34,0-0.64,0.06-0.93,0.19c-0.28,0.13-0.53,0.31-0.74,0.55s-0.38,0.52-0.5,0.84s-0.18,0.67-0.18,1.06v4.79h-1.25v-8.4h1.25
			v1.41c0.14-0.21,0.29-0.41,0.46-0.6c0.17-0.2,0.36-0.37,0.58-0.51c0.22-0.15,0.46-0.26,0.73-0.35s0.58-0.13,0.94-0.13
			c0.68,0,1.25,0.16,1.69,0.48c0.44,0.32,0.78,0.72,1.01,1.19C208.39,100,208.56,99.78,208.75,99.58z"/>
		<path class="st1" d="M218.32,104.6c0.17,0.35,0.4,0.65,0.67,0.89c0.27,0.24,0.57,0.43,0.91,0.55c0.34,0.12,0.69,0.19,1.06,0.19
			c0.58,0,1.09-0.11,1.5-0.33s0.8-0.5,1.15-0.86l0.78,0.7c-0.42,0.48-0.91,0.86-1.45,1.15c-0.54,0.29-1.21,0.43-2.02,0.43
			c-0.57,0-1.12-0.11-1.62-0.32c-0.51-0.21-0.95-0.51-1.34-0.89s-0.69-0.85-0.91-1.39s-0.34-1.14-0.34-1.79
			c0-0.61,0.1-1.18,0.3-1.71c0.2-0.54,0.48-1,0.84-1.4s0.78-0.71,1.28-0.93c0.49-0.23,1.03-0.34,1.62-0.34
			c0.62,0,1.17,0.12,1.66,0.35c0.49,0.23,0.9,0.55,1.23,0.95c0.34,0.4,0.59,0.87,0.76,1.41c0.17,0.54,0.26,1.12,0.26,1.74
			c0,0.05,0,0.11,0,0.18c0,0.07-0.01,0.14-0.02,0.21h-6.65C218.03,103.85,218.14,104.25,218.32,104.6z M223.37,102.47
			c-0.03-0.38-0.11-0.74-0.23-1.09s-0.3-0.65-0.52-0.91c-0.22-0.26-0.49-0.47-0.81-0.62c-0.32-0.16-0.69-0.24-1.11-0.24
			c-0.37,0-0.71,0.07-1.02,0.22c-0.31,0.15-0.59,0.35-0.82,0.6c-0.24,0.25-0.43,0.55-0.58,0.9c-0.15,0.35-0.25,0.73-0.29,1.14
			H223.37z"/>
		<path class="st1" d="M235.04,105.47l2.21-6.74h1.3l-2.96,8.47h-1.09l-2.26-6.63l-2.28,6.63h-1.1l-2.94-8.47h1.33l2.21,6.74
			l2.26-6.78h1.04L235.04,105.47z"/>
		<path class="st1" d="M248.32,104.62c-0.22,0.54-0.53,1-0.92,1.41c-0.39,0.4-0.86,0.72-1.4,0.95c-0.54,0.23-1.13,0.35-1.75,0.35
			s-1.21-0.12-1.74-0.35c-0.53-0.23-0.99-0.55-1.38-0.94c-0.39-0.4-0.69-0.86-0.91-1.39c-0.22-0.53-0.32-1.09-0.32-1.69
			s0.11-1.16,0.32-1.7c0.22-0.54,0.52-1,0.91-1.41c0.39-0.4,0.85-0.72,1.39-0.95c0.54-0.23,1.12-0.35,1.76-0.35
			c0.63,0,1.21,0.12,1.75,0.35c0.54,0.23,1,0.55,1.39,0.94s0.69,0.86,0.91,1.39c0.22,0.53,0.33,1.09,0.33,1.69
			S248.54,104.08,248.32,104.62z M247.14,101.67c-0.16-0.4-0.38-0.75-0.66-1.05c-0.28-0.3-0.61-0.53-0.99-0.71
			c-0.38-0.17-0.79-0.26-1.24-0.26c-0.46,0-0.87,0.08-1.25,0.25c-0.38,0.17-0.7,0.4-0.97,0.7c-0.27,0.3-0.47,0.64-0.63,1.04
			s-0.23,0.82-0.23,1.27s0.08,0.88,0.24,1.28c0.16,0.4,0.37,0.75,0.65,1.04c0.28,0.29,0.6,0.52,0.98,0.7
			c0.38,0.17,0.79,0.26,1.23,0.26c0.46,0,0.87-0.08,1.25-0.25c0.38-0.17,0.7-0.4,0.97-0.69s0.48-0.63,0.63-1.03s0.23-0.82,0.23-1.27
			S247.29,102.07,247.14,101.67z"/>
		<path class="st1" d="M252.36,107.13h-1.25v-8.4h1.25v2.19c0.15-0.35,0.34-0.67,0.57-0.96c0.23-0.29,0.49-0.54,0.78-0.76
			c0.29-0.21,0.61-0.37,0.96-0.48s0.72-0.16,1.12-0.15v1.35h-0.1c-0.46,0-0.89,0.08-1.29,0.24c-0.41,0.16-0.76,0.41-1.06,0.73
			c-0.3,0.32-0.54,0.73-0.71,1.21c-0.17,0.48-0.26,1.04-0.26,1.67V107.13z"/>
		<path class="st1" d="M265.34,107.13h-1.5l-3.01-3.92l-1.71,1.72v2.19h-1.25V95.27h1.25v8.19l4.53-4.73h1.56l-3.53,3.61
			L265.34,107.13z"/>
	</g>
	<g>
		<rect x="91.58" y="39.97" class="st2" width="174.55" height="21.68"/>
		<g>
			<path class="st1" d="M106.33,48.87c0.06,0.16,0.18,0.3,0.34,0.43c0.17,0.13,0.39,0.25,0.68,0.35s0.67,0.21,1.12,0.3
				c0.92,0.2,1.6,0.49,2.04,0.85c0.44,0.36,0.65,0.86,0.65,1.5c0,0.35-0.07,0.68-0.21,0.97c-0.14,0.29-0.33,0.54-0.58,0.74
				c-0.25,0.2-0.54,0.36-0.89,0.47c-0.35,0.11-0.72,0.17-1.13,0.17c-0.66,0-1.26-0.11-1.81-0.32c-0.55-0.21-1.07-0.54-1.56-0.99
				l0.58-0.68c0.43,0.39,0.87,0.69,1.31,0.88s0.95,0.29,1.52,0.29c0.56,0,1-0.13,1.34-0.39c0.33-0.26,0.5-0.6,0.5-1.03
				c0-0.2-0.03-0.37-0.09-0.53c-0.06-0.15-0.17-0.29-0.33-0.42c-0.16-0.13-0.38-0.24-0.66-0.34c-0.28-0.1-0.64-0.2-1.07-0.3
				c-0.47-0.1-0.88-0.22-1.24-0.35c-0.35-0.13-0.64-0.3-0.87-0.48s-0.4-0.41-0.51-0.66c-0.11-0.25-0.17-0.55-0.17-0.9
				c0-0.33,0.07-0.63,0.2-0.91c0.13-0.28,0.32-0.51,0.57-0.72c0.24-0.2,0.53-0.36,0.86-0.47c0.33-0.11,0.69-0.17,1.09-0.17
				c0.61,0,1.13,0.08,1.59,0.25c0.45,0.17,0.89,0.42,1.32,0.75l-0.54,0.72c-0.39-0.31-0.77-0.54-1.16-0.68
				c-0.39-0.14-0.8-0.21-1.22-0.21c-0.27,0-0.51,0.04-0.73,0.11c-0.22,0.07-0.4,0.17-0.55,0.28c-0.15,0.12-0.27,0.26-0.35,0.43
				c-0.08,0.17-0.12,0.34-0.12,0.53C106.24,48.53,106.27,48.71,106.33,48.87z"/>
			<path class="st1" d="M114.08,52.81c0,0.38,0.09,0.64,0.28,0.79c0.19,0.15,0.44,0.22,0.74,0.22c0.16,0,0.3-0.02,0.44-0.05
				c0.14-0.03,0.29-0.09,0.44-0.17v0.78c-0.16,0.09-0.32,0.15-0.5,0.19c-0.18,0.04-0.38,0.06-0.6,0.06c-0.24,0-0.47-0.03-0.68-0.09
				c-0.21-0.06-0.39-0.16-0.55-0.3s-0.27-0.32-0.36-0.54c-0.09-0.22-0.13-0.48-0.13-0.79v-3.68h-0.85v-0.8h0.85V46.6h0.91v1.84h1.93
				v0.8h-1.93V52.81z"/>
			<path class="st1" d="M121.95,48.44h0.9v6.1h-0.9v-1.06c-0.21,0.33-0.47,0.61-0.8,0.84c-0.33,0.23-0.76,0.35-1.29,0.35
				c-0.37,0-0.7-0.06-0.99-0.18c-0.29-0.12-0.53-0.28-0.73-0.5c-0.2-0.22-0.35-0.47-0.46-0.77c-0.11-0.3-0.16-0.63-0.16-0.99v-3.79
				h0.91V52c0,0.57,0.15,1.02,0.44,1.35c0.29,0.33,0.71,0.5,1.25,0.5c0.26,0,0.5-0.04,0.73-0.14c0.22-0.09,0.42-0.22,0.58-0.39
				s0.29-0.37,0.38-0.61c0.09-0.24,0.14-0.5,0.14-0.78V48.44z"/>
			<path class="st1" d="M129.79,54.54v-1.23c-0.13,0.18-0.27,0.35-0.42,0.52s-0.32,0.31-0.51,0.44c-0.19,0.13-0.4,0.22-0.63,0.29
				c-0.23,0.07-0.49,0.11-0.77,0.11c-0.37,0-0.73-0.07-1.07-0.21c-0.35-0.14-0.66-0.35-0.93-0.62s-0.5-0.6-0.66-1
				c-0.17-0.39-0.25-0.84-0.25-1.35s0.08-0.95,0.25-1.35c0.17-0.39,0.38-0.73,0.66-1s0.59-0.48,0.93-0.63
				c0.35-0.15,0.7-0.22,1.07-0.22c0.28,0,0.54,0.04,0.78,0.11s0.45,0.17,0.64,0.28c0.19,0.12,0.36,0.26,0.51,0.41
				c0.15,0.16,0.29,0.32,0.41,0.5v-3.68h0.91v8.61H129.79z M129.64,50.52c-0.12-0.29-0.29-0.54-0.5-0.74
				c-0.21-0.2-0.44-0.36-0.71-0.48c-0.26-0.11-0.54-0.17-0.82-0.17c-0.3,0-0.58,0.05-0.84,0.16c-0.26,0.11-0.49,0.26-0.68,0.46
				c-0.19,0.2-0.35,0.45-0.46,0.74c-0.11,0.29-0.17,0.62-0.17,0.99c0,0.36,0.06,0.69,0.17,0.97c0.11,0.29,0.27,0.54,0.47,0.75
				s0.42,0.37,0.68,0.48c0.26,0.11,0.54,0.16,0.83,0.16c0.28,0,0.56-0.06,0.82-0.17c0.26-0.11,0.5-0.27,0.71-0.48
				c0.21-0.2,0.37-0.45,0.5-0.75s0.18-0.62,0.18-0.97S129.76,50.81,129.64,50.52z"/>
			<path class="st1" d="M133.52,52.71c0.13,0.26,0.29,0.47,0.48,0.65c0.2,0.18,0.42,0.31,0.66,0.4s0.5,0.14,0.77,0.14
				c0.42,0,0.79-0.08,1.09-0.24c0.3-0.16,0.58-0.37,0.83-0.63l0.57,0.51c-0.31,0.35-0.66,0.62-1.05,0.83
				c-0.39,0.21-0.88,0.31-1.46,0.31c-0.42,0-0.81-0.08-1.18-0.23s-0.69-0.37-0.97-0.65s-0.5-0.62-0.66-1.01
				c-0.16-0.39-0.25-0.83-0.25-1.3c0-0.44,0.07-0.86,0.22-1.24c0.15-0.39,0.35-0.73,0.61-1.02c0.26-0.29,0.57-0.51,0.93-0.68
				c0.36-0.17,0.75-0.25,1.17-0.25c0.45,0,0.85,0.08,1.2,0.25c0.35,0.17,0.65,0.4,0.9,0.69c0.24,0.29,0.43,0.63,0.55,1.03
				c0.13,0.39,0.19,0.81,0.19,1.26c0,0.04,0,0.08,0,0.13c0,0.05,0,0.1-0.01,0.15h-4.83C133.31,52.16,133.39,52.45,133.52,52.71z
				 M137.19,51.16c-0.02-0.28-0.08-0.54-0.17-0.79c-0.09-0.25-0.22-0.47-0.38-0.66c-0.16-0.19-0.36-0.34-0.59-0.45
				c-0.23-0.11-0.5-0.17-0.8-0.17c-0.27,0-0.51,0.05-0.74,0.16c-0.23,0.11-0.43,0.25-0.6,0.44c-0.17,0.19-0.31,0.4-0.42,0.66
				c-0.11,0.25-0.18,0.53-0.21,0.83H137.19z"/>
			<path class="st1" d="M140.62,54.54h-0.91v-6.1h0.91v1.06c0.2-0.33,0.47-0.61,0.8-0.84c0.33-0.23,0.76-0.35,1.29-0.35
				c0.37,0,0.7,0.06,0.98,0.18c0.29,0.12,0.53,0.29,0.73,0.5c0.2,0.22,0.35,0.47,0.46,0.77s0.16,0.63,0.16,0.99v3.79h-0.91v-3.56
				c0-0.57-0.15-1.02-0.44-1.35c-0.29-0.33-0.71-0.5-1.25-0.5c-0.26,0-0.5,0.05-0.73,0.14c-0.22,0.09-0.42,0.22-0.58,0.39
				c-0.17,0.17-0.29,0.37-0.38,0.61c-0.09,0.24-0.14,0.5-0.14,0.78V54.54z"/>
			<path class="st1" d="M148.21,52.81c0,0.38,0.09,0.64,0.28,0.79s0.44,0.22,0.74,0.22c0.16,0,0.3-0.02,0.44-0.05
				c0.14-0.03,0.29-0.09,0.44-0.17v0.78c-0.16,0.09-0.33,0.15-0.5,0.19c-0.18,0.04-0.38,0.06-0.6,0.06c-0.24,0-0.47-0.03-0.68-0.09
				c-0.21-0.06-0.4-0.16-0.55-0.3s-0.27-0.32-0.36-0.54c-0.09-0.22-0.13-0.48-0.13-0.79v-3.68h-0.85v-0.8h0.85V46.6h0.91v1.84h1.94
				v0.8h-1.94V52.81z"/>
			<path class="st1" d="M156.08,52.71c0.13,0.26,0.29,0.47,0.48,0.65c0.2,0.18,0.42,0.31,0.66,0.4c0.24,0.09,0.5,0.14,0.77,0.14
				c0.42,0,0.79-0.08,1.09-0.24c0.3-0.16,0.58-0.37,0.83-0.63l0.57,0.51c-0.31,0.35-0.66,0.62-1.05,0.83
				c-0.39,0.21-0.88,0.31-1.46,0.31c-0.42,0-0.81-0.08-1.18-0.23c-0.37-0.15-0.69-0.37-0.97-0.65s-0.5-0.62-0.66-1.01
				c-0.16-0.39-0.25-0.83-0.25-1.3c0-0.44,0.07-0.86,0.22-1.24c0.15-0.39,0.35-0.73,0.61-1.02c0.26-0.29,0.57-0.51,0.93-0.68
				c0.36-0.17,0.75-0.25,1.17-0.25c0.45,0,0.85,0.08,1.2,0.25c0.35,0.17,0.65,0.4,0.9,0.69c0.24,0.29,0.43,0.63,0.55,1.03
				c0.12,0.39,0.19,0.81,0.19,1.26c0,0.04,0,0.08,0,0.13c0,0.05,0,0.1-0.01,0.15h-4.83C155.87,52.16,155.95,52.45,156.08,52.71z
				 M159.75,51.16c-0.02-0.28-0.08-0.54-0.17-0.79c-0.09-0.25-0.21-0.47-0.38-0.66c-0.16-0.19-0.36-0.34-0.59-0.45
				c-0.23-0.11-0.5-0.17-0.8-0.17c-0.27,0-0.51,0.05-0.74,0.16c-0.23,0.11-0.43,0.25-0.6,0.44c-0.17,0.19-0.31,0.4-0.42,0.66
				c-0.11,0.25-0.18,0.53-0.21,0.83H159.75z"/>
			<path class="st1" d="M167.22,54.54h-1.05l-1.89-2.49l-1.9,2.49h-1.01l2.4-3.1l-2.3-3h1.04l1.81,2.36l1.8-2.36h1.02l-2.31,2.97
				L167.22,54.54z"/>
			<path class="st1" d="M174.6,52.83c-0.17,0.39-0.38,0.73-0.66,1s-0.58,0.48-0.93,0.63c-0.35,0.15-0.71,0.22-1.08,0.22
				c-0.28,0-0.54-0.04-0.78-0.11c-0.24-0.07-0.45-0.17-0.64-0.28c-0.19-0.12-0.36-0.26-0.51-0.41c-0.15-0.16-0.29-0.32-0.41-0.5
				v3.06h-0.91v-7.99h0.91v1.23c0.13-0.18,0.27-0.35,0.42-0.52s0.33-0.31,0.51-0.43s0.4-0.22,0.63-0.29
				c0.23-0.07,0.49-0.11,0.77-0.11c0.36,0,0.72,0.07,1.07,0.21c0.35,0.14,0.66,0.35,0.94,0.62s0.5,0.6,0.66,1
				c0.17,0.39,0.25,0.84,0.25,1.35S174.77,52.44,174.6,52.83z M173.75,50.52c-0.11-0.29-0.27-0.54-0.47-0.75
				c-0.2-0.21-0.42-0.37-0.68-0.48c-0.26-0.11-0.53-0.16-0.83-0.16c-0.28,0-0.56,0.06-0.82,0.17c-0.26,0.11-0.5,0.27-0.71,0.48
				c-0.21,0.2-0.37,0.45-0.5,0.74c-0.12,0.29-0.18,0.61-0.18,0.96s0.06,0.68,0.18,0.97s0.29,0.54,0.5,0.75
				c0.21,0.2,0.44,0.36,0.71,0.48c0.26,0.11,0.54,0.17,0.82,0.17c0.29,0,0.57-0.05,0.83-0.16c0.26-0.11,0.49-0.26,0.68-0.46
				c0.19-0.2,0.35-0.45,0.46-0.74c0.11-0.29,0.17-0.62,0.17-0.99C173.92,51.14,173.86,50.81,173.75,50.52z"/>
			<path class="st1" d="M177.32,52.71c0.13,0.26,0.29,0.47,0.48,0.65c0.2,0.18,0.42,0.31,0.66,0.4c0.24,0.09,0.5,0.14,0.77,0.14
				c0.42,0,0.79-0.08,1.09-0.24c0.3-0.16,0.58-0.37,0.83-0.63l0.57,0.51c-0.31,0.35-0.66,0.62-1.05,0.83
				c-0.39,0.21-0.88,0.31-1.46,0.31c-0.42,0-0.81-0.08-1.18-0.23c-0.37-0.15-0.69-0.37-0.97-0.65s-0.5-0.62-0.66-1.01
				c-0.16-0.39-0.25-0.83-0.25-1.3c0-0.44,0.07-0.86,0.22-1.24c0.15-0.39,0.35-0.73,0.61-1.02c0.26-0.29,0.57-0.51,0.93-0.68
				c0.36-0.17,0.75-0.25,1.17-0.25c0.45,0,0.85,0.08,1.2,0.25c0.35,0.17,0.65,0.4,0.9,0.69c0.24,0.29,0.43,0.63,0.55,1.03
				c0.12,0.39,0.19,0.81,0.19,1.26c0,0.04,0,0.08,0,0.13c0,0.05,0,0.1-0.01,0.15h-4.83C177.11,52.16,177.19,52.45,177.32,52.71z
				 M180.99,51.16c-0.02-0.28-0.08-0.54-0.17-0.79c-0.09-0.25-0.21-0.47-0.38-0.66c-0.16-0.19-0.36-0.34-0.59-0.45
				c-0.23-0.11-0.5-0.17-0.8-0.17c-0.27,0-0.51,0.05-0.74,0.16c-0.23,0.11-0.43,0.25-0.6,0.44c-0.17,0.19-0.31,0.4-0.42,0.66
				c-0.11,0.25-0.18,0.53-0.21,0.83H180.99z"/>
			<path class="st1" d="M184.42,54.54h-0.91v-6.1h0.91v1.59c0.11-0.25,0.25-0.48,0.41-0.7s0.35-0.4,0.57-0.55
				c0.21-0.15,0.44-0.27,0.7-0.35s0.52-0.11,0.81-0.11v0.98h-0.07c-0.33,0-0.64,0.06-0.94,0.18c-0.29,0.12-0.55,0.29-0.77,0.53
				c-0.22,0.24-0.39,0.53-0.52,0.88c-0.13,0.35-0.19,0.75-0.19,1.21V54.54z"/>
			<path class="st1" d="M188.32,47.11v-1h1.04v1H188.32z M188.37,54.54v-6.1h0.91v6.1H188.37z"/>
			<path class="st1" d="M192.18,52.71c0.13,0.26,0.29,0.47,0.48,0.65c0.2,0.18,0.42,0.31,0.66,0.4c0.24,0.09,0.5,0.14,0.77,0.14
				c0.42,0,0.79-0.08,1.09-0.24c0.3-0.16,0.58-0.37,0.83-0.63l0.57,0.51c-0.31,0.35-0.66,0.62-1.05,0.83
				c-0.39,0.21-0.88,0.31-1.46,0.31c-0.42,0-0.81-0.08-1.18-0.23c-0.37-0.15-0.69-0.37-0.97-0.65s-0.5-0.62-0.66-1.01
				c-0.16-0.39-0.25-0.83-0.25-1.3c0-0.44,0.07-0.86,0.22-1.24c0.15-0.39,0.35-0.73,0.61-1.02c0.26-0.29,0.57-0.51,0.93-0.68
				c0.36-0.17,0.75-0.25,1.17-0.25c0.45,0,0.85,0.08,1.2,0.25c0.35,0.17,0.65,0.4,0.9,0.69c0.24,0.29,0.43,0.63,0.55,1.03
				c0.12,0.39,0.19,0.81,0.19,1.26c0,0.04,0,0.08,0,0.13c0,0.05,0,0.1-0.01,0.15h-4.83C191.98,52.16,192.06,52.45,192.18,52.71z
				 M195.85,51.16c-0.02-0.28-0.08-0.54-0.17-0.79c-0.09-0.25-0.21-0.47-0.38-0.66c-0.16-0.19-0.36-0.34-0.59-0.45
				c-0.23-0.11-0.5-0.17-0.8-0.17c-0.27,0-0.51,0.05-0.74,0.16c-0.23,0.11-0.43,0.25-0.6,0.44c-0.17,0.19-0.31,0.4-0.42,0.66
				c-0.11,0.25-0.18,0.53-0.21,0.83H195.85z"/>
			<path class="st1" d="M199.29,54.54h-0.91v-6.1h0.91v1.06c0.21-0.33,0.47-0.61,0.8-0.84s0.76-0.35,1.29-0.35
				c0.37,0,0.7,0.06,0.99,0.18c0.29,0.12,0.53,0.29,0.73,0.5c0.2,0.22,0.35,0.47,0.46,0.77c0.11,0.3,0.16,0.63,0.16,0.99v3.79h-0.91
				v-3.56c0-0.57-0.15-1.02-0.44-1.35c-0.29-0.33-0.71-0.5-1.25-0.5c-0.26,0-0.5,0.05-0.73,0.14c-0.22,0.09-0.42,0.22-0.58,0.39
				c-0.17,0.17-0.29,0.37-0.38,0.61c-0.09,0.24-0.14,0.5-0.14,0.78V54.54z"/>
			<path class="st1" d="M209.84,54.35c-0.39,0.22-0.87,0.33-1.45,0.33c-0.45,0-0.86-0.08-1.24-0.25c-0.38-0.17-0.71-0.4-0.99-0.68
				c-0.28-0.29-0.5-0.62-0.66-1.01c-0.16-0.39-0.24-0.79-0.24-1.23s0.08-0.84,0.24-1.23c0.16-0.39,0.38-0.73,0.66-1.02
				c0.28-0.29,0.61-0.52,0.99-0.69c0.38-0.17,0.8-0.25,1.24-0.25c0.29,0,0.55,0.03,0.79,0.08c0.24,0.06,0.45,0.13,0.65,0.23
				c0.2,0.1,0.38,0.21,0.54,0.35c0.17,0.13,0.32,0.28,0.46,0.42l-0.6,0.64c-0.24-0.25-0.51-0.47-0.8-0.65
				c-0.29-0.18-0.64-0.27-1.06-0.27c-0.31,0-0.59,0.06-0.86,0.18s-0.5,0.29-0.7,0.51s-0.35,0.47-0.46,0.75
				c-0.11,0.29-0.17,0.59-0.17,0.92s0.06,0.64,0.17,0.93c0.11,0.29,0.27,0.54,0.47,0.76c0.2,0.22,0.44,0.38,0.71,0.51
				s0.57,0.18,0.89,0.18c0.39,0,0.74-0.09,1.04-0.26c0.3-0.17,0.58-0.39,0.82-0.65l0.58,0.54
				C210.58,53.84,210.23,54.13,209.84,54.35z"/>
			<path class="st1" d="M213,52.71c0.13,0.26,0.29,0.47,0.48,0.65c0.2,0.18,0.42,0.31,0.66,0.4s0.5,0.14,0.77,0.14
				c0.42,0,0.79-0.08,1.09-0.24c0.3-0.16,0.58-0.37,0.83-0.63l0.57,0.51c-0.31,0.35-0.66,0.62-1.05,0.83
				c-0.39,0.21-0.88,0.31-1.46,0.31c-0.42,0-0.81-0.08-1.18-0.23s-0.69-0.37-0.97-0.65s-0.5-0.62-0.66-1.01
				c-0.16-0.39-0.25-0.83-0.25-1.3c0-0.44,0.07-0.86,0.22-1.24c0.15-0.39,0.35-0.73,0.61-1.02c0.26-0.29,0.57-0.51,0.93-0.68
				c0.36-0.17,0.75-0.25,1.17-0.25c0.45,0,0.85,0.08,1.2,0.25c0.35,0.17,0.65,0.4,0.9,0.69c0.24,0.29,0.43,0.63,0.55,1.03
				c0.13,0.39,0.19,0.81,0.19,1.26c0,0.04,0,0.08,0,0.13c0,0.05,0,0.1-0.01,0.15h-4.83C212.79,52.16,212.87,52.45,213,52.71z
				 M216.67,51.16c-0.02-0.28-0.08-0.54-0.17-0.79c-0.09-0.25-0.22-0.47-0.38-0.66c-0.16-0.19-0.36-0.34-0.59-0.45
				c-0.23-0.11-0.5-0.17-0.8-0.17c-0.27,0-0.51,0.05-0.74,0.16c-0.23,0.11-0.43,0.25-0.6,0.44c-0.17,0.19-0.31,0.4-0.42,0.66
				c-0.11,0.25-0.18,0.53-0.21,0.83H216.67z"/>
			<path class="st1" d="M219.15,49.68v-1.24h1.09v1.24H219.15z M219.15,54.54V53.3h1.09v1.24H219.15z"/>
			<path class="st1" d="M231.71,54.3c-0.59,0.26-1.26,0.38-2.01,0.38c-0.64,0-1.23-0.11-1.76-0.32c-0.53-0.21-0.99-0.51-1.37-0.89
				s-0.68-0.83-0.89-1.35c-0.21-0.52-0.32-1.09-0.32-1.7v-0.02c0-0.59,0.11-1.14,0.32-1.66c0.22-0.52,0.52-0.97,0.9-1.36
				c0.39-0.39,0.84-0.7,1.37-0.92s1.11-0.34,1.73-0.34c0.37,0,0.71,0.03,1.01,0.08s0.58,0.12,0.84,0.22
				c0.26,0.09,0.5,0.21,0.73,0.35c0.23,0.14,0.45,0.3,0.66,0.48l-1.14,1.38c-0.16-0.13-0.31-0.25-0.47-0.35
				c-0.16-0.1-0.32-0.19-0.49-0.26s-0.35-0.13-0.55-0.17c-0.2-0.04-0.41-0.06-0.65-0.06c-0.33,0-0.64,0.07-0.93,0.21
				c-0.29,0.14-0.54,0.32-0.75,0.56c-0.22,0.23-0.39,0.5-0.51,0.82s-0.18,0.64-0.18,1v0.02c0,0.38,0.06,0.73,0.18,1.05
				s0.29,0.6,0.52,0.83s0.49,0.42,0.79,0.55c0.3,0.13,0.64,0.2,1.01,0.2c0.68,0,1.25-0.17,1.71-0.5v-1.19h-1.83v-1.57h3.59v3.59
				C232.8,53.74,232.29,54.04,231.71,54.3z"/>
			<path class="st1" d="M241.06,52.67c-0.17,0.4-0.41,0.75-0.72,1.04c-0.31,0.3-0.67,0.54-1.09,0.71c-0.42,0.17-0.87,0.26-1.37,0.26
				c-0.49,0-0.94-0.08-1.36-0.25c-0.42-0.17-0.78-0.4-1.08-0.7c-0.3-0.3-0.54-0.64-0.71-1.04c-0.17-0.4-0.26-0.82-0.26-1.28v-0.02
				c0-0.46,0.09-0.88,0.26-1.28c0.17-0.4,0.41-0.75,0.72-1.04c0.31-0.3,0.67-0.54,1.08-0.71s0.87-0.26,1.37-0.26
				c0.49,0,0.94,0.08,1.36,0.25c0.42,0.17,0.78,0.4,1.08,0.7c0.3,0.29,0.54,0.64,0.71,1.04c0.17,0.4,0.26,0.82,0.26,1.28v0.02
				C241.32,51.85,241.23,52.27,241.06,52.67z M239.55,51.39c0-0.24-0.04-0.46-0.12-0.67c-0.08-0.21-0.19-0.39-0.34-0.55
				c-0.15-0.16-0.33-0.29-0.53-0.38c-0.21-0.09-0.43-0.14-0.67-0.14c-0.26,0-0.49,0.05-0.69,0.14s-0.37,0.21-0.51,0.37
				c-0.14,0.16-0.25,0.34-0.32,0.55c-0.08,0.21-0.11,0.43-0.11,0.67v0.02c0,0.24,0.04,0.46,0.12,0.67c0.08,0.21,0.19,0.39,0.34,0.55
				s0.33,0.29,0.53,0.38c0.2,0.09,0.43,0.14,0.68,0.14c0.26,0,0.49-0.04,0.69-0.14c0.2-0.09,0.37-0.21,0.51-0.37
				c0.14-0.16,0.25-0.34,0.33-0.55c0.07-0.21,0.11-0.43,0.11-0.67V51.39z"/>
			<path class="st1" d="M242.7,54.54v-8.61h1.79v8.61H242.7z"/>
			<path class="st1" d="M250.75,54.54v-0.9c-0.22,0.3-0.49,0.54-0.8,0.73c-0.31,0.19-0.7,0.29-1.17,0.29
				c-0.37,0-0.73-0.07-1.07-0.21c-0.35-0.14-0.65-0.35-0.92-0.63s-0.48-0.62-0.64-1.03c-0.16-0.4-0.24-0.87-0.24-1.4v-0.02
				c0-0.53,0.08-0.99,0.24-1.4c0.16-0.41,0.37-0.75,0.64-1.03s0.57-0.49,0.92-0.63c0.35-0.14,0.71-0.21,1.08-0.21
				c0.48,0,0.88,0.09,1.19,0.28c0.31,0.19,0.57,0.41,0.78,0.66v-3.11h1.79v8.61H250.75z M250.77,51.37c0-0.26-0.04-0.5-0.12-0.72
				c-0.08-0.22-0.19-0.4-0.33-0.56s-0.3-0.27-0.48-0.36c-0.19-0.08-0.38-0.12-0.6-0.12c-0.21,0-0.41,0.04-0.6,0.12
				s-0.35,0.2-0.49,0.36s-0.25,0.34-0.34,0.55c-0.08,0.21-0.12,0.46-0.12,0.72v0.02c0,0.26,0.04,0.5,0.12,0.72
				c0.08,0.22,0.2,0.4,0.34,0.56c0.14,0.15,0.3,0.27,0.49,0.36s0.38,0.12,0.6,0.12c0.21,0,0.41-0.04,0.6-0.12
				c0.18-0.08,0.35-0.2,0.48-0.36c0.14-0.15,0.25-0.34,0.33-0.56c0.08-0.22,0.12-0.46,0.12-0.72V51.37z"/>
		</g>
	</g>
	<g>
		<rect x="91.49" y="64.96" class="st0" width="174.55" height="22.68"/>
		<g>
			<path class="st1" d="M105.62,74.17c0.06,0.16,0.17,0.3,0.33,0.43c0.16,0.13,0.38,0.25,0.65,0.35s0.64,0.21,1.07,0.3
				c0.88,0.21,1.53,0.49,1.95,0.85c0.42,0.36,0.63,0.86,0.63,1.5c0,0.36-0.07,0.68-0.2,0.97c-0.13,0.29-0.32,0.54-0.55,0.74
				s-0.52,0.36-0.85,0.47s-0.69,0.17-1.08,0.17c-0.63,0-1.21-0.11-1.73-0.32s-1.02-0.54-1.49-0.99l0.55-0.68
				c0.41,0.39,0.83,0.69,1.25,0.88c0.42,0.19,0.91,0.29,1.46,0.29c0.53,0,0.96-0.13,1.28-0.39c0.32-0.26,0.48-0.6,0.48-1.03
				c0-0.2-0.03-0.37-0.09-0.53c-0.06-0.15-0.17-0.29-0.32-0.42c-0.15-0.13-0.36-0.24-0.63-0.34s-0.61-0.2-1.02-0.3
				c-0.45-0.1-0.85-0.22-1.18-0.35c-0.33-0.13-0.61-0.3-0.83-0.48c-0.22-0.19-0.38-0.41-0.49-0.66c-0.11-0.25-0.16-0.55-0.16-0.9
				c0-0.33,0.06-0.63,0.19-0.91c0.13-0.28,0.31-0.51,0.54-0.72c0.23-0.2,0.51-0.36,0.82-0.47c0.32-0.11,0.66-0.17,1.04-0.17
				c0.58,0,1.08,0.08,1.52,0.25s0.85,0.42,1.26,0.75l-0.52,0.72c-0.37-0.31-0.74-0.54-1.11-0.68s-0.76-0.21-1.17-0.21
				c-0.26,0-0.49,0.04-0.69,0.11c-0.21,0.07-0.38,0.17-0.53,0.28c-0.15,0.12-0.26,0.26-0.34,0.43c-0.08,0.17-0.12,0.34-0.12,0.53
				C105.53,73.83,105.56,74.01,105.62,74.17z"/>
			<path class="st1" d="M113.03,78.11c0,0.38,0.09,0.64,0.27,0.79c0.18,0.15,0.42,0.22,0.71,0.22c0.15,0,0.29-0.02,0.42-0.05
				c0.13-0.03,0.27-0.09,0.42-0.17v0.78c-0.15,0.09-0.31,0.15-0.48,0.19c-0.17,0.04-0.36,0.06-0.57,0.06
				c-0.23,0-0.45-0.03-0.65-0.09c-0.2-0.06-0.38-0.16-0.52-0.3s-0.26-0.32-0.34-0.54s-0.12-0.48-0.12-0.79v-3.68h-0.81v-0.8h0.81
				V71.9h0.87v1.84h1.85v0.8h-1.85V78.11z"/>
			<path class="st1" d="M120.56,73.74h0.86v6.1h-0.86v-1.06c-0.2,0.33-0.45,0.61-0.77,0.84c-0.32,0.23-0.73,0.35-1.23,0.35
				c-0.35,0-0.67-0.06-0.94-0.18c-0.27-0.12-0.51-0.28-0.7-0.5s-0.34-0.47-0.44-0.77c-0.1-0.3-0.15-0.63-0.15-0.99v-3.79h0.87v3.56
				c0,0.57,0.14,1.01,0.42,1.34c0.28,0.33,0.68,0.5,1.2,0.5c0.25,0,0.48-0.04,0.69-0.14c0.21-0.09,0.4-0.22,0.55-0.39
				c0.15-0.17,0.28-0.37,0.37-0.61c0.09-0.24,0.14-0.5,0.14-0.78V73.74z"/>
			<path class="st1" d="M128.04,79.84v-1.23c-0.12,0.18-0.25,0.35-0.4,0.52s-0.31,0.31-0.49,0.44c-0.18,0.13-0.38,0.22-0.6,0.29
				c-0.22,0.07-0.47,0.11-0.74,0.11c-0.35,0-0.7-0.07-1.03-0.21s-0.63-0.35-0.89-0.62c-0.26-0.27-0.47-0.6-0.63-1
				c-0.16-0.39-0.24-0.84-0.24-1.35c0-0.5,0.08-0.95,0.24-1.34c0.16-0.39,0.37-0.73,0.63-1c0.26-0.27,0.56-0.48,0.89-0.63
				c0.33-0.15,0.67-0.22,1.03-0.22c0.27,0,0.52,0.04,0.75,0.11c0.23,0.07,0.43,0.17,0.61,0.28c0.18,0.12,0.34,0.25,0.49,0.41
				c0.15,0.16,0.28,0.32,0.39,0.5v-3.68h0.87v8.61H128.04z M127.9,75.82c-0.12-0.29-0.27-0.54-0.47-0.74s-0.42-0.36-0.68-0.48
				s-0.51-0.17-0.78-0.17c-0.29,0-0.55,0.05-0.8,0.16s-0.46,0.26-0.65,0.46s-0.33,0.45-0.44,0.74c-0.11,0.29-0.16,0.62-0.16,0.99
				c0,0.36,0.05,0.69,0.16,0.97c0.11,0.29,0.26,0.54,0.45,0.75c0.19,0.21,0.41,0.37,0.65,0.48c0.25,0.11,0.51,0.16,0.79,0.16
				c0.27,0,0.53-0.06,0.78-0.17c0.25-0.11,0.48-0.27,0.68-0.48c0.2-0.2,0.36-0.45,0.47-0.75c0.12-0.29,0.17-0.62,0.17-0.97
				C128.08,76.43,128.02,76.11,127.9,75.82z"/>
			<path class="st1" d="M131.61,78.01c0.12,0.26,0.27,0.47,0.46,0.65c0.19,0.18,0.4,0.31,0.63,0.4c0.23,0.09,0.48,0.14,0.73,0.14
				c0.41,0,0.75-0.08,1.04-0.24c0.29-0.16,0.55-0.37,0.79-0.63l0.54,0.51c-0.29,0.35-0.63,0.62-1,0.83
				c-0.38,0.21-0.84,0.31-1.4,0.31c-0.4,0-0.77-0.08-1.13-0.23s-0.66-0.37-0.93-0.65s-0.48-0.62-0.63-1.01
				c-0.16-0.39-0.23-0.83-0.23-1.3c0-0.44,0.07-0.86,0.21-1.24c0.14-0.39,0.33-0.73,0.58-1.02c0.25-0.29,0.54-0.51,0.89-0.68
				c0.34-0.17,0.72-0.25,1.12-0.25c0.43,0,0.81,0.08,1.15,0.25c0.34,0.17,0.62,0.4,0.86,0.69c0.23,0.29,0.41,0.63,0.53,1.03
				s0.18,0.81,0.18,1.26c0,0.04,0,0.08,0,0.13c0,0.05,0,0.1-0.01,0.15h-4.61C131.41,77.46,131.49,77.75,131.61,78.01z M135.12,76.45
				c-0.02-0.28-0.08-0.54-0.16-0.79c-0.09-0.25-0.21-0.47-0.36-0.66c-0.15-0.19-0.34-0.34-0.56-0.46c-0.22-0.11-0.48-0.17-0.77-0.17
				c-0.25,0-0.49,0.05-0.71,0.16c-0.22,0.11-0.41,0.25-0.57,0.44c-0.16,0.19-0.3,0.4-0.4,0.66c-0.11,0.25-0.17,0.53-0.2,0.83H135.12
				z"/>
			<path class="st1" d="M138.4,79.84h-0.87v-6.1h0.87v1.06c0.2-0.33,0.45-0.61,0.77-0.84c0.32-0.23,0.73-0.35,1.23-0.35
				c0.35,0,0.67,0.06,0.94,0.18s0.51,0.29,0.7,0.5c0.19,0.22,0.34,0.47,0.44,0.77c0.1,0.3,0.15,0.63,0.15,0.99v3.79h-0.87v-3.56
				c0-0.57-0.14-1.02-0.42-1.35s-0.68-0.5-1.2-0.5c-0.25,0-0.48,0.04-0.69,0.14c-0.21,0.09-0.4,0.22-0.56,0.39
				c-0.16,0.17-0.28,0.37-0.37,0.61c-0.09,0.24-0.13,0.5-0.13,0.78V79.84z"/>
			<path class="st1" d="M145.65,78.11c0,0.38,0.09,0.64,0.27,0.79c0.18,0.15,0.42,0.22,0.71,0.22c0.15,0,0.29-0.02,0.42-0.05
				c0.13-0.03,0.27-0.09,0.42-0.17v0.78c-0.15,0.09-0.31,0.15-0.48,0.19c-0.17,0.04-0.36,0.06-0.57,0.06
				c-0.23,0-0.45-0.03-0.65-0.09c-0.2-0.06-0.38-0.16-0.52-0.3s-0.26-0.32-0.34-0.54s-0.12-0.48-0.12-0.79v-3.68h-0.81v-0.8h0.81
				V71.9h0.87v1.84h1.85v0.8h-1.85V78.11z"/>
			<path class="st1" d="M157.9,78.02c-0.15,0.39-0.37,0.73-0.64,1.02s-0.59,0.52-0.97,0.69s-0.78,0.25-1.22,0.25
				c-0.44,0-0.84-0.08-1.21-0.25s-0.69-0.4-0.96-0.68c-0.27-0.29-0.48-0.62-0.63-1.01s-0.23-0.79-0.23-1.23s0.08-0.84,0.23-1.23
				c0.15-0.39,0.36-0.73,0.63-1.02c0.27-0.29,0.59-0.52,0.96-0.69c0.37-0.17,0.78-0.25,1.22-0.25c0.44,0,0.84,0.08,1.21,0.25
				c0.37,0.17,0.69,0.4,0.96,0.68c0.27,0.29,0.48,0.62,0.63,1.01c0.15,0.38,0.23,0.79,0.23,1.23S158.06,77.63,157.9,78.02z
				 M157.08,75.87c-0.11-0.29-0.26-0.54-0.46-0.76s-0.42-0.39-0.69-0.51c-0.26-0.12-0.55-0.19-0.86-0.19
				c-0.32,0-0.61,0.06-0.87,0.18c-0.26,0.12-0.49,0.29-0.67,0.51c-0.18,0.22-0.33,0.47-0.43,0.75c-0.11,0.29-0.16,0.59-0.16,0.92
				c0,0.33,0.05,0.64,0.16,0.93c0.11,0.29,0.26,0.54,0.45,0.75c0.19,0.21,0.42,0.38,0.68,0.51c0.26,0.13,0.55,0.19,0.86,0.19
				c0.32,0,0.61-0.06,0.87-0.18c0.26-0.12,0.49-0.29,0.68-0.5s0.33-0.46,0.44-0.75c0.1-0.29,0.16-0.59,0.16-0.92
				C157.24,76.47,157.19,76.16,157.08,75.87z"/>
			<path class="st1" d="M163.84,73.74h0.86v6.1h-0.86v-1.06c-0.2,0.33-0.45,0.61-0.77,0.84c-0.32,0.23-0.73,0.35-1.23,0.35
				c-0.35,0-0.67-0.06-0.94-0.18c-0.27-0.12-0.51-0.28-0.7-0.5s-0.34-0.47-0.44-0.77c-0.1-0.3-0.15-0.63-0.15-0.99v-3.79h0.87v3.56
				c0,0.57,0.14,1.01,0.42,1.34c0.28,0.33,0.68,0.5,1.2,0.5c0.25,0,0.48-0.04,0.69-0.14c0.21-0.09,0.4-0.22,0.55-0.39
				c0.15-0.17,0.28-0.37,0.37-0.61c0.09-0.24,0.14-0.5,0.14-0.78V73.74z"/>
			<path class="st1" d="M167.82,78.11c0,0.38,0.09,0.64,0.27,0.79c0.18,0.15,0.42,0.22,0.71,0.22c0.15,0,0.29-0.02,0.42-0.05
				c0.13-0.03,0.27-0.09,0.42-0.17v0.78c-0.15,0.09-0.31,0.15-0.48,0.19c-0.17,0.04-0.36,0.06-0.57,0.06
				c-0.23,0-0.45-0.03-0.65-0.09c-0.2-0.06-0.38-0.16-0.52-0.3s-0.26-0.32-0.34-0.54s-0.12-0.48-0.12-0.79v-3.68h-0.81v-0.8h0.81
				V71.9h0.87v1.84h1.85v0.8h-1.85V78.11z"/>
			<path class="st1" d="M175.05,79.65c-0.37,0.22-0.83,0.33-1.38,0.33c-0.43,0-0.83-0.08-1.19-0.25c-0.37-0.17-0.68-0.4-0.95-0.68
				c-0.27-0.29-0.48-0.62-0.63-1.01s-0.23-0.79-0.23-1.23s0.08-0.84,0.23-1.23c0.15-0.39,0.36-0.73,0.63-1.02
				c0.27-0.29,0.58-0.52,0.95-0.69c0.36-0.17,0.76-0.25,1.19-0.25c0.28,0,0.53,0.03,0.76,0.08c0.23,0.06,0.43,0.13,0.62,0.23
				s0.36,0.21,0.52,0.35c0.16,0.13,0.3,0.28,0.44,0.42l-0.58,0.64c-0.23-0.25-0.49-0.47-0.76-0.65c-0.27-0.18-0.61-0.27-1.01-0.27
				c-0.29,0-0.57,0.06-0.82,0.18c-0.26,0.12-0.48,0.29-0.67,0.51s-0.33,0.47-0.44,0.75c-0.11,0.29-0.16,0.59-0.16,0.92
				c0,0.33,0.05,0.64,0.16,0.93c0.11,0.29,0.26,0.54,0.45,0.76c0.19,0.22,0.42,0.38,0.68,0.51c0.26,0.12,0.54,0.18,0.85,0.18
				c0.38,0,0.71-0.09,1-0.26c0.29-0.17,0.55-0.39,0.78-0.65l0.55,0.54C175.75,79.14,175.42,79.42,175.05,79.65z"/>
			<path class="st1" d="M182.79,78.02c-0.15,0.39-0.37,0.73-0.64,1.02s-0.59,0.52-0.97,0.69s-0.78,0.25-1.22,0.25
				c-0.44,0-0.84-0.08-1.21-0.25s-0.69-0.4-0.96-0.68c-0.27-0.29-0.48-0.62-0.63-1.01s-0.23-0.79-0.23-1.23s0.08-0.84,0.23-1.23
				c0.15-0.39,0.36-0.73,0.63-1.02c0.27-0.29,0.59-0.52,0.96-0.69c0.37-0.17,0.78-0.25,1.22-0.25c0.44,0,0.84,0.08,1.21,0.25
				c0.37,0.17,0.69,0.4,0.96,0.68c0.27,0.29,0.48,0.62,0.63,1.01c0.15,0.38,0.23,0.79,0.23,1.23S182.95,77.63,182.79,78.02z
				 M181.97,75.87c-0.11-0.29-0.26-0.54-0.46-0.76s-0.42-0.39-0.69-0.51c-0.26-0.12-0.55-0.19-0.86-0.19
				c-0.32,0-0.61,0.06-0.87,0.18c-0.26,0.12-0.49,0.29-0.67,0.51c-0.18,0.22-0.33,0.47-0.43,0.75c-0.11,0.29-0.16,0.59-0.16,0.92
				c0,0.33,0.05,0.64,0.16,0.93c0.11,0.29,0.26,0.54,0.45,0.75c0.19,0.21,0.42,0.38,0.68,0.51c0.26,0.13,0.55,0.19,0.86,0.19
				c0.32,0,0.61-0.06,0.87-0.18c0.26-0.12,0.49-0.29,0.68-0.5s0.33-0.46,0.44-0.75c0.1-0.29,0.16-0.59,0.16-0.92
				C182.13,76.47,182.08,76.16,181.97,75.87z"/>
			<path class="st1" d="M189.57,74.35c0.13-0.15,0.28-0.28,0.45-0.39c0.17-0.11,0.35-0.2,0.56-0.26c0.21-0.06,0.44-0.09,0.69-0.09
				c0.68,0,1.21,0.22,1.59,0.65c0.38,0.44,0.58,1.04,0.58,1.8v3.78h-0.87v-3.56c0-0.59-0.13-1.04-0.4-1.36
				c-0.27-0.32-0.64-0.48-1.11-0.48c-0.22,0-0.42,0.04-0.62,0.12c-0.2,0.08-0.37,0.2-0.51,0.37s-0.26,0.36-0.35,0.6
				c-0.09,0.24-0.13,0.5-0.13,0.8v3.52h-0.86v-3.59c0-0.57-0.13-1.02-0.4-1.34c-0.27-0.32-0.63-0.48-1.1-0.48
				c-0.23,0-0.45,0.05-0.64,0.14c-0.2,0.09-0.37,0.23-0.51,0.4c-0.15,0.17-0.26,0.38-0.34,0.61c-0.08,0.23-0.12,0.49-0.12,0.77v3.48
				h-0.87v-6.1h0.87v1.03c0.1-0.15,0.21-0.29,0.32-0.44c0.12-0.14,0.25-0.27,0.4-0.37c0.15-0.11,0.32-0.19,0.51-0.25
				c0.19-0.06,0.41-0.09,0.65-0.09c0.47,0,0.86,0.12,1.17,0.35c0.31,0.23,0.54,0.52,0.7,0.87C189.32,74.66,189.44,74.5,189.57,74.35
				z"/>
			<path class="st1" d="M196.08,78.01c0.12,0.26,0.27,0.47,0.46,0.65c0.19,0.18,0.4,0.31,0.63,0.4c0.23,0.09,0.48,0.14,0.73,0.14
				c0.41,0,0.75-0.08,1.04-0.24c0.29-0.16,0.55-0.37,0.79-0.63l0.54,0.51c-0.29,0.35-0.63,0.62-1,0.83
				c-0.38,0.21-0.84,0.31-1.4,0.31c-0.4,0-0.77-0.08-1.13-0.23s-0.66-0.37-0.93-0.65s-0.48-0.62-0.63-1.01
				c-0.16-0.39-0.23-0.83-0.23-1.3c0-0.44,0.07-0.86,0.21-1.24c0.14-0.39,0.33-0.73,0.58-1.02c0.25-0.29,0.54-0.51,0.89-0.68
				c0.34-0.17,0.72-0.25,1.12-0.25c0.43,0,0.81,0.08,1.15,0.25c0.34,0.17,0.62,0.4,0.86,0.69c0.23,0.29,0.41,0.63,0.53,1.03
				s0.18,0.81,0.18,1.26c0,0.04,0,0.08,0,0.13c0,0.05,0,0.1-0.01,0.15h-4.61C195.88,77.46,195.96,77.75,196.08,78.01z M199.58,76.45
				c-0.02-0.28-0.08-0.54-0.16-0.79c-0.09-0.25-0.21-0.47-0.36-0.66c-0.15-0.19-0.34-0.34-0.56-0.46c-0.22-0.11-0.48-0.17-0.77-0.17
				c-0.25,0-0.49,0.05-0.71,0.16c-0.22,0.11-0.41,0.25-0.57,0.44c-0.16,0.19-0.3,0.4-0.4,0.66c-0.11,0.25-0.17,0.53-0.2,0.83H199.58
				z"/>
			<path class="st1" d="M205.84,78.9c-0.11,0.22-0.26,0.42-0.44,0.57s-0.4,0.28-0.65,0.36c-0.25,0.08-0.52,0.12-0.82,0.12
				c-0.42,0-0.85-0.08-1.27-0.24s-0.81-0.38-1.14-0.66l0.44-0.65c0.32,0.25,0.64,0.44,0.99,0.58c0.34,0.13,0.69,0.2,1.03,0.2
				c0.35,0,0.64-0.09,0.87-0.26c0.23-0.17,0.34-0.41,0.34-0.71V78.2c0-0.15-0.04-0.28-0.12-0.39c-0.08-0.11-0.19-0.21-0.32-0.29
				c-0.14-0.08-0.29-0.16-0.47-0.22c-0.18-0.06-0.36-0.12-0.55-0.18c-0.23-0.07-0.45-0.15-0.68-0.23c-0.23-0.08-0.44-0.19-0.62-0.31
				c-0.18-0.13-0.33-0.28-0.45-0.47c-0.12-0.19-0.17-0.42-0.17-0.71v-0.02c0-0.26,0.05-0.5,0.15-0.71c0.1-0.22,0.24-0.4,0.41-0.55
				s0.39-0.27,0.63-0.35c0.24-0.08,0.51-0.12,0.79-0.12c0.36,0,0.73,0.06,1.09,0.18s0.7,0.29,1,0.49l-0.39,0.68
				c-0.27-0.18-0.55-0.33-0.85-0.43c-0.3-0.11-0.59-0.16-0.87-0.16c-0.35,0-0.62,0.08-0.82,0.25c-0.2,0.17-0.3,0.38-0.3,0.63v0.02
				c0,0.14,0.04,0.27,0.12,0.37c0.08,0.11,0.19,0.2,0.33,0.28c0.14,0.08,0.3,0.15,0.48,0.21c0.18,0.06,0.37,0.13,0.56,0.19
				c0.23,0.07,0.45,0.15,0.67,0.24s0.42,0.2,0.6,0.33s0.33,0.29,0.43,0.48c0.11,0.19,0.16,0.42,0.16,0.7v0.02
				C206,78.42,205.95,78.68,205.84,78.9z"/>
			<path class="st1" d="M207.57,74.98v-1.24h1.04v1.24H207.57z M207.57,79.84V78.6h1.04v1.24H207.57z"/>
			<path class="st1" d="M220.34,78.57c-0.14,0.28-0.34,0.52-0.6,0.71c-0.26,0.19-0.57,0.33-0.93,0.42
				c-0.36,0.09-0.77,0.14-1.21,0.14h-3.75v-8.26h3.66c0.81,0,1.45,0.19,1.91,0.58c0.46,0.38,0.69,0.9,0.69,1.56v0.02
				c0,0.24-0.03,0.44-0.08,0.62c-0.06,0.18-0.13,0.34-0.22,0.49c-0.09,0.15-0.2,0.27-0.33,0.38c-0.12,0.11-0.26,0.21-0.4,0.28
				c0.46,0.18,0.82,0.43,1.08,0.74c0.26,0.31,0.39,0.74,0.39,1.29v0.02C220.55,77.95,220.48,78.28,220.34,78.57z M218.39,74.02
				c0-0.28-0.1-0.49-0.29-0.63s-0.48-0.22-0.85-0.22h-1.71v1.75h1.6c0.38,0,0.69-0.07,0.91-0.21s0.34-0.36,0.34-0.67V74.02z
				 M218.83,77.33c0-0.28-0.1-0.49-0.3-0.66c-0.2-0.16-0.53-0.24-0.98-0.24h-2.01v1.82h2.06c0.38,0,0.68-0.07,0.9-0.22
				c0.22-0.15,0.33-0.37,0.33-0.68V77.33z"/>
			<path class="st1" d="M225.36,75.27c-0.57,0-1.02,0.18-1.35,0.54c-0.33,0.36-0.49,0.92-0.49,1.69v2.34h-1.71v-6.33h1.71v1.27
				c0.17-0.43,0.41-0.78,0.71-1.04s0.71-0.38,1.22-0.35v1.88H225.36z"/>
			<path class="st1" d="M232.53,77.97c-0.17,0.4-0.39,0.75-0.69,1.04s-0.64,0.54-1.04,0.71s-0.83,0.26-1.31,0.26
				c-0.47,0-0.9-0.08-1.3-0.25c-0.4-0.17-0.74-0.4-1.03-0.7c-0.29-0.29-0.52-0.64-0.68-1.04s-0.25-0.82-0.25-1.28v-0.02
				c0-0.46,0.08-0.88,0.25-1.28c0.17-0.4,0.39-0.75,0.69-1.04c0.29-0.3,0.64-0.54,1.04-0.71s0.83-0.26,1.31-0.26
				c0.47,0,0.9,0.08,1.3,0.25s0.74,0.4,1.03,0.7c0.29,0.29,0.52,0.64,0.68,1.04c0.17,0.4,0.25,0.82,0.25,1.28v0.02
				C232.77,77.15,232.69,77.57,232.53,77.97z M231.08,76.69c0-0.24-0.04-0.46-0.11-0.67c-0.08-0.21-0.18-0.39-0.33-0.55
				c-0.14-0.16-0.31-0.29-0.51-0.38c-0.2-0.09-0.41-0.14-0.64-0.14c-0.25,0-0.47,0.05-0.66,0.14c-0.19,0.09-0.36,0.21-0.49,0.37
				c-0.14,0.16-0.24,0.34-0.31,0.55c-0.07,0.21-0.11,0.43-0.11,0.67v0.02c0,0.24,0.04,0.46,0.11,0.67c0.08,0.21,0.18,0.39,0.33,0.55
				c0.14,0.16,0.31,0.29,0.5,0.38c0.19,0.09,0.41,0.14,0.65,0.14c0.25,0,0.47-0.04,0.66-0.14c0.19-0.09,0.36-0.21,0.49-0.37
				c0.13-0.16,0.24-0.34,0.31-0.55c0.07-0.21,0.11-0.43,0.11-0.67V76.69z"/>
			<path class="st1" d="M237.84,79.84v-3.52c0-0.42-0.09-0.74-0.27-0.96c-0.18-0.21-0.44-0.32-0.77-0.32s-0.59,0.11-0.78,0.32
				c-0.19,0.22-0.29,0.54-0.29,0.96v3.52h-1.71v-6.33h1.71v0.9c0.1-0.13,0.2-0.26,0.32-0.39c0.12-0.12,0.25-0.23,0.39-0.33
				c0.14-0.09,0.3-0.17,0.47-0.23c0.17-0.06,0.37-0.08,0.59-0.08c0.65,0,1.16,0.21,1.52,0.63c0.36,0.42,0.54,0.99,0.54,1.72v4.09
				H237.84z"/>
			<path class="st1" d="M240.84,79.84v-1.26l3.12-3.61h-3.02v-1.45h5.15v1.26l-3.13,3.61h3.13v1.45H240.84z"/>
			<path class="st1" d="M253.02,77.08c0,0.06-0.01,0.14-0.02,0.22h-4.21c0.08,0.41,0.25,0.72,0.51,0.93
				c0.26,0.21,0.58,0.31,0.96,0.31c0.29,0,0.54-0.05,0.77-0.15c0.23-0.1,0.46-0.27,0.7-0.5l0.98,0.91
				c-0.29,0.37-0.63,0.66-1.04,0.87c-0.41,0.21-0.88,0.31-1.43,0.31c-0.45,0-0.87-0.08-1.26-0.24s-0.72-0.38-1-0.67
				s-0.5-0.63-0.66-1.03c-0.16-0.4-0.24-0.84-0.24-1.33v-0.02c0-0.45,0.07-0.87,0.22-1.27c0.15-0.4,0.35-0.75,0.62-1.05
				c0.26-0.3,0.58-0.54,0.94-0.71c0.36-0.17,0.77-0.26,1.21-0.26c0.5,0,0.94,0.09,1.31,0.28c0.37,0.19,0.67,0.44,0.92,0.76
				c0.25,0.32,0.42,0.68,0.54,1.1c0.12,0.41,0.17,0.84,0.17,1.29v0.02C253.03,76.94,253.03,77.02,253.02,77.08z M250.95,75.21
				c-0.22-0.25-0.51-0.37-0.87-0.37c-0.36,0-0.65,0.12-0.88,0.37c-0.22,0.24-0.37,0.57-0.43,0.98h2.58
				C251.31,75.78,251.17,75.46,250.95,75.21z"/>
		</g>
	</g>
	<g>
		<g>
			<rect x="3.19" y="3.21" class="st1" width="84.42" height="84.42"/>
			<linearGradient id="SVGID_1_" gradientUnits="userSpaceOnUse" x1="92.2154" y1="6.431" x2="35.0318" y2="105.4759">
				<stop  offset="0" style="stop-color:#172852"/>
				<stop  offset="0.0271" style="stop-color:#182D56"/>
				<stop  offset="0.069" style="stop-color:#1C3A63"/>
				<stop  offset="0.1203" style="stop-color:#23507A"/>
				<stop  offset="0.1787" style="stop-color:#2C709F"/>
				<stop  offset="0.2365" style="stop-color:#2E9ED9"/>
				<stop  offset="0.3735" style="stop-color:#265984"/>
				<stop  offset="0.4709" style="stop-color:#1B365E"/>
				<stop  offset="0.5175" style="stop-color:#172852"/>
				<stop  offset="0.5493" style="stop-color:#182C55"/>
				<stop  offset="0.5943" style="stop-color:#1B3860"/>
				<stop  offset="0.6471" style="stop-color:#224A73"/>
				<stop  offset="0.7059" style="stop-color:#2A6592"/>
				<stop  offset="0.769" style="stop-color:#2F8DC1"/>
				<stop  offset="0.7882" style="stop-color:#2E9ED9"/>
				<stop  offset="0.798" style="stop-color:#2F92C8"/>
				<stop  offset="0.8495" style="stop-color:#2B6895"/>
				<stop  offset="0.8971" style="stop-color:#224C75"/>
				<stop  offset="0.9396" style="stop-color:#1B3861"/>
				<stop  offset="0.9754" style="stop-color:#182C55"/>
				<stop  offset="1" style="stop-color:#172852"/>
			</linearGradient>
			<polygon class="st3" points="87.36,87.35 3.64,87.35 87.36,3.63 			"/>
		</g>
		<g>
			<g>
				<path class="st4" d="M24.72,24.46V47H18.5V24.46H9.9v-5.74h23.43v5.74H24.72z"/>
				<path class="st4" d="M35.79,47V18.73h21.28v5.53H41.93V30h13.33v5.53H41.93v5.94h15.35V47H35.79z"/>
				<path class="st4" d="M65.6,24.34v6.1h13.49v5.61H65.6V47h-6.22V18.73h21.53v5.61H65.6z"/>
			</g>
			<g>
				<path class="st4" d="M16.97,54.93c-0.79,0.56-1.58,1.39-2.35,2.47l-1.6-1.16c0.44-0.64,0.89-1.22,1.35-1.74
					c0.46-0.51,0.96-0.94,1.51-1.29c0.54-0.35,1.15-0.61,1.82-0.79c0.67-0.18,1.43-0.27,2.28-0.27c0.88,0,1.69,0.14,2.42,0.41
					c0.73,0.28,1.36,0.66,1.89,1.15c0.53,0.49,0.95,1.07,1.24,1.74c0.29,0.67,0.44,1.41,0.44,2.2c0,0.72-0.1,1.37-0.29,1.96
					c-0.19,0.59-0.49,1.18-0.9,1.76c-0.41,0.58-0.91,1.18-1.52,1.8c-0.61,0.62-1.34,1.3-2.18,2.03l-5.17,4.59h10.26v1.99H12.65V70.1
					l7.02-6.2c0.74-0.66,1.36-1.26,1.88-1.8c0.52-0.54,0.94-1.04,1.26-1.51c0.32-0.47,0.55-0.93,0.69-1.38
					c0.14-0.45,0.21-0.92,0.21-1.4c0-0.57-0.11-1.08-0.32-1.54c-0.21-0.45-0.49-0.84-0.84-1.16c-0.35-0.32-0.77-0.57-1.24-0.75
					c-0.48-0.18-0.98-0.26-1.49-0.26C18.71,54.09,17.76,54.37,16.97,54.93z"/>
				<path class="st4" d="M44.78,65.95c-0.39,1.22-0.94,2.28-1.65,3.19c-0.71,0.91-1.57,1.64-2.59,2.17c-1.01,0.53-2.14,0.8-3.37,0.8
					c-1.25,0-2.38-0.26-3.39-0.79c-1-0.53-1.86-1.24-2.57-2.16c-0.71-0.91-1.25-1.97-1.63-3.18c-0.38-1.21-0.57-2.49-0.57-3.86
					c0-1.36,0.19-2.65,0.58-3.87c0.39-1.22,0.94-2.28,1.65-3.19c0.71-0.91,1.57-1.64,2.59-2.17c1.01-0.53,2.15-0.8,3.4-0.8
					c1.23,0,2.35,0.26,3.36,0.79c1,0.53,1.86,1.24,2.57,2.16c0.71,0.91,1.25,1.97,1.63,3.18c0.38,1.21,0.57,2.49,0.57,3.86
					C45.36,63.45,45.17,64.74,44.78,65.95z M42.68,59.08c-0.28-0.97-0.67-1.82-1.19-2.56c-0.52-0.74-1.14-1.33-1.87-1.77
					c-0.73-0.44-1.54-0.66-2.45-0.66c-0.9,0-1.72,0.22-2.45,0.65c-0.73,0.43-1.35,1.01-1.85,1.74c-0.51,0.73-0.9,1.58-1.18,2.54
					c-0.28,0.97-0.41,1.99-0.41,3.06c0,1.07,0.14,2.09,0.41,3.07c0.28,0.98,0.67,1.83,1.19,2.57c0.52,0.74,1.14,1.32,1.88,1.76
					c0.74,0.43,1.56,0.65,2.46,0.65c0.9,0,1.72-0.22,2.45-0.65c0.73-0.43,1.35-1.01,1.85-1.74c0.51-0.73,0.89-1.58,1.16-2.54
					c0.27-0.97,0.4-1.99,0.4-3.06C43.1,61.07,42.96,60.05,42.68,59.08z"/>
				<path class="st4" d="M51.86,54.93c-0.79,0.56-1.58,1.39-2.35,2.47l-1.6-1.16c0.44-0.64,0.89-1.22,1.35-1.74
					c0.46-0.51,0.96-0.94,1.51-1.29c0.54-0.35,1.15-0.61,1.82-0.79c0.67-0.18,1.43-0.27,2.28-0.27c0.88,0,1.69,0.14,2.42,0.41
					c0.73,0.28,1.36,0.66,1.89,1.15c0.53,0.49,0.95,1.07,1.24,1.74c0.3,0.67,0.44,1.41,0.44,2.2c0,0.72-0.1,1.37-0.29,1.96
					c-0.19,0.59-0.49,1.18-0.9,1.76c-0.41,0.58-0.91,1.18-1.52,1.8c-0.61,0.62-1.34,1.3-2.18,2.03l-5.17,4.59h10.26v1.99H47.55V70.1
					l7.02-6.2c0.74-0.66,1.36-1.26,1.88-1.8c0.52-0.54,0.94-1.04,1.26-1.51c0.32-0.47,0.55-0.93,0.69-1.38
					c0.14-0.45,0.21-0.92,0.21-1.4c0-0.57-0.11-1.08-0.32-1.54c-0.21-0.45-0.49-0.84-0.84-1.16s-0.77-0.57-1.24-0.75
					c-0.48-0.18-0.98-0.26-1.49-0.26C53.6,54.09,52.65,54.37,51.86,54.93z"/>
				<path class="st4" d="M65.52,54.37v-1.94h12.34v1.6l-6.06,6.75c0.85,0.07,1.66,0.23,2.43,0.47c0.77,0.24,1.45,0.58,2.03,1.02
					c0.58,0.44,1.04,1,1.38,1.66c0.35,0.66,0.52,1.44,0.52,2.32c0,0.87-0.17,1.66-0.5,2.38c-0.34,0.72-0.79,1.34-1.37,1.85
					c-0.58,0.52-1.26,0.92-2.04,1.2c-0.78,0.29-1.63,0.43-2.53,0.43c-1.62,0-3.03-0.32-4.23-0.95c-1.2-0.64-2.19-1.47-2.99-2.5
					l1.58-1.41c0.76,0.92,1.59,1.63,2.5,2.13c0.91,0.5,1.97,0.75,3.17,0.75c0.59,0,1.14-0.09,1.66-0.26
					c0.52-0.17,0.96-0.43,1.34-0.76c0.38-0.33,0.68-0.73,0.9-1.2s0.33-0.99,0.33-1.56c0-1.22-0.5-2.15-1.51-2.79
					c-1.01-0.65-2.31-0.97-3.91-0.97h-1.24l-0.44-1.3l6.11-6.91H65.52z"/>
			</g>
		</g>
	</g>
</g>
</svg>
