<?xml version="1.0" encoding="utf-8"?>
<!-- Generator: Adobe Illustrator 27.0.0, SVG Export Plug-In . SVG Version: 6.00 Build 0)  -->
<svg version="1.1" id="Layer_1" xmlns="http://www.w3.org/2000/svg" xmlns:xlink="http://www.w3.org/1999/xlink" x="0px" y="0px"
	 viewBox="0 0 269.29 113.39" style="enable-background:new 0 0 269.29 113.39;" xml:space="preserve">
<style type="text/css">
	.st0{fill:#C08357;}
	.st1{fill:none;}
	.st2{fill:#001F4E;}
	.st3{font-family:'Gotham-Book';}
	.st4{font-size:20px;}
	.st5{font-family:'Gotham-Bold';}
	.st6{font-size:16.25px;}
	.st7{fill:#869FB4;}
	.st8{font-size:11.8px;}
	.st9{fill:url(#SVGID_1_);stroke:#172852;stroke-width:0.5038;stroke-miterlimit:10;}
	.st10{fill:#FFFFFF;}
</style>
<g>
	<rect x="91.83" y="3.71" class="st0" width="174.55" height="32.91"/>
	<rect x="91.56" y="10.57" class="st1" width="174.81" height="31.99"/>
	<text transform="matrix(1 0 0 1 98.4978 27.5749)"><tspan x="0" y="0" class="st2 st3 st4">Overall: </tspan><tspan x="86.38" y="0" class="st2 st5 st4">Bronze</tspan></text>
	<rect x="2.96" y="93.82" class="st1" width="266.79" height="19.98"/>
	<text transform="matrix(1 0 0 1 2.9646 107.6315)"><tspan x="0" y="0" class="st2 st3 st6">Teaching Excellence Frame</tspan><tspan x="226.46" y="0" class="st2 st3 st6">-</tspan></text>
	<g>
		<rect x="91.83" y="40.47" class="st7" width="174.55" height="21.68"/>
		<rect x="91.82" y="45.01" class="st1" width="174.55" height="14.59"/>
		<text transform="matrix(1 0 0 1 101.6487 55.0422)"><tspan x="0" y="0" class="st2 st3 st8">Student experience: </tspan><tspan x="120.97" y="0" class="st2 st5 st8">Silver</tspan></text>
	</g>
	<g>
		<rect x="91.74" y="65.46" class="st0" width="174.55" height="22.68"/>
		<rect x="91.48" y="70.31" class="st1" width="174.81" height="15.61"/>
		<text transform="matrix(0.9558 0 0 1 103.7812 80.3408)"><tspan x="0" y="0" class="st2 st3 st8">Student outcomes: </tspan><tspan x="114.64" y="0" class="st2 st5 st8">Bronze</tspan></text>
	</g>
	<g>
		<g>
			<rect x="3.44" y="3.71" class="st2" width="84.42" height="84.42"/>
			<linearGradient id="SVGID_1_" gradientUnits="userSpaceOnUse" x1="92.4654" y1="6.931" x2="35.2818" y2="105.9759">
				<stop  offset="0" style="stop-color:#172852"/>
				<stop  offset="0.0271" style="stop-color:#182D56"/>
				<stop  offset="0.069" style="stop-color:#1C3A63"/>
				<stop  offset="0.1203" style="stop-color:#23507A"/>
				<stop  offset="0.1787" style="stop-color:#2C709F"/>
				<stop  offset="0.2365" style="stop-color:#2E9ED9"/>
				<stop  offset="0.3735" style="stop-color:#265984"/>
				<stop  offset="0.4709" style="stop-color:#1B365E"/>
				<stop  offset="0.5175" style="stop-color:#172852"/>
				<stop  offset="0.5493" style="stop-color:#182C55"/>
				<stop  offset="0.5943" style="stop-color:#1B3860"/>
				<stop  offset="0.6471" style="stop-color:#224A73"/>
				<stop  offset="0.7059" style="stop-color:#2A6592"/>
				<stop  offset="0.769" style="stop-color:#2F8DC1"/>
				<stop  offset="0.7882" style="stop-color:#2E9ED9"/>
				<stop  offset="0.798" style="stop-color:#2F92C8"/>
				<stop  offset="0.8495" style="stop-color:#2B6895"/>
				<stop  offset="0.8971" style="stop-color:#224C75"/>
				<stop  offset="0.9396" style="stop-color:#1B3861"/>
				<stop  offset="0.9754" style="stop-color:#182C55"/>
				<stop  offset="1" style="stop-color:#172852"/>
			</linearGradient>
			<polygon class="st9" points="87.61,87.85 3.89,87.85 87.61,4.13 			"/>
		</g>
		<g>
			<g>
				<path class="st10" d="M24.97,24.96V47.5h-6.22V24.96h-8.6v-5.74h23.43v5.74H24.97z"/>
				<path class="st10" d="M36.04,47.5V19.23h21.28v5.53H42.18v5.74h13.33v5.53H42.18v5.94h15.35v5.53H36.04z"/>
				<path class="st10" d="M65.85,24.84v6.1h13.49v5.61H65.85V47.5h-6.22V19.23h21.53v5.61H65.85z"/>
			</g>
			<g>
				<path class="st10" d="M17.22,55.43c-0.79,0.56-1.58,1.39-2.35,2.47l-1.6-1.16c0.44-0.64,0.89-1.22,1.35-1.74
					c0.46-0.51,0.96-0.94,1.51-1.29c0.54-0.35,1.15-0.61,1.82-0.79c0.67-0.18,1.43-0.27,2.28-0.27c0.88,0,1.69,0.14,2.42,0.41
					c0.73,0.28,1.36,0.66,1.89,1.15c0.53,0.49,0.95,1.07,1.24,1.74c0.29,0.67,0.44,1.41,0.44,2.2c0,0.72-0.1,1.37-0.29,1.96
					c-0.19,0.59-0.49,1.18-0.9,1.76c-0.41,0.58-0.91,1.18-1.52,1.8c-0.61,0.62-1.34,1.3-2.18,2.03l-5.17,4.59h10.26v1.99H12.9V70.6
					l7.02-6.2c0.74-0.66,1.36-1.26,1.88-1.8c0.52-0.54,0.94-1.04,1.26-1.51c0.32-0.47,0.55-0.93,0.69-1.38
					c0.14-0.45,0.21-0.92,0.21-1.4c0-0.57-0.11-1.08-0.32-1.54c-0.21-0.45-0.49-0.84-0.84-1.16c-0.35-0.32-0.77-0.57-1.24-0.75
					c-0.48-0.18-0.98-0.26-1.49-0.26C18.96,54.59,18.01,54.87,17.22,55.43z"/>
				<path class="st10" d="M45.03,66.45c-0.39,1.22-0.94,2.28-1.65,3.19c-0.71,0.91-1.57,1.64-2.59,2.17
					c-1.01,0.53-2.14,0.8-3.37,0.8c-1.25,0-2.38-0.26-3.39-0.79c-1-0.53-1.86-1.24-2.57-2.16c-0.71-0.91-1.25-1.97-1.63-3.18
					c-0.38-1.21-0.57-2.49-0.57-3.86c0-1.36,0.19-2.65,0.58-3.87c0.39-1.22,0.94-2.28,1.65-3.19c0.71-0.91,1.57-1.64,2.59-2.17
					c1.01-0.53,2.15-0.8,3.4-0.8c1.23,0,2.35,0.26,3.36,0.79c1,0.53,1.86,1.24,2.57,2.16c0.71,0.91,1.25,1.97,1.63,3.18
					c0.38,1.21,0.57,2.49,0.57,3.86C45.61,63.95,45.42,65.24,45.03,66.45z M42.93,59.58c-0.28-0.97-0.67-1.82-1.19-2.56
					c-0.52-0.74-1.14-1.33-1.87-1.77c-0.73-0.44-1.54-0.66-2.45-0.66c-0.9,0-1.72,0.22-2.45,0.65c-0.73,0.43-1.35,1.01-1.85,1.74
					c-0.51,0.73-0.9,1.58-1.18,2.54c-0.28,0.97-0.41,1.99-0.41,3.06c0,1.07,0.14,2.09,0.41,3.07c0.28,0.98,0.67,1.83,1.19,2.57
					c0.52,0.74,1.14,1.32,1.88,1.76c0.74,0.43,1.56,0.65,2.46,0.65c0.9,0,1.72-0.22,2.45-0.65c0.73-0.43,1.35-1.01,1.85-1.74
					c0.51-0.73,0.89-1.58,1.16-2.54c0.27-0.97,0.4-1.99,0.4-3.06C43.35,61.57,43.21,60.55,42.93,59.58z"/>
				<path class="st10" d="M52.11,55.43c-0.79,0.56-1.58,1.39-2.35,2.47l-1.6-1.16c0.44-0.64,0.89-1.22,1.35-1.74
					c0.46-0.51,0.96-0.94,1.51-1.29c0.54-0.35,1.15-0.61,1.82-0.79c0.67-0.18,1.43-0.27,2.28-0.27c0.88,0,1.69,0.14,2.42,0.41
					c0.73,0.28,1.36,0.66,1.89,1.15c0.53,0.49,0.95,1.07,1.24,1.74c0.3,0.67,0.44,1.41,0.44,2.2c0,0.72-0.1,1.37-0.29,1.96
					c-0.19,0.59-0.49,1.18-0.9,1.76c-0.41,0.58-0.91,1.18-1.52,1.8c-0.61,0.62-1.34,1.3-2.18,2.03l-5.17,4.59h10.26v1.99H47.8V70.6
					l7.02-6.2c0.74-0.66,1.36-1.26,1.88-1.8c0.52-0.54,0.94-1.04,1.26-1.51c0.32-0.47,0.55-0.93,0.69-1.38
					c0.14-0.45,0.21-0.92,0.21-1.4c0-0.57-0.11-1.08-0.32-1.54c-0.21-0.45-0.49-0.84-0.84-1.16s-0.77-0.57-1.24-0.75
					c-0.48-0.18-0.98-0.26-1.49-0.26C53.85,54.59,52.9,54.87,52.11,55.43z"/>
				<path class="st10" d="M65.77,54.87v-1.94h12.34v1.6l-6.06,6.75c0.85,0.07,1.66,0.23,2.43,0.47c0.77,0.24,1.45,0.58,2.03,1.02
					c0.58,0.44,1.04,1,1.38,1.66c0.35,0.66,0.52,1.44,0.52,2.32c0,0.87-0.17,1.66-0.5,2.38c-0.34,0.72-0.79,1.34-1.37,1.85
					c-0.58,0.52-1.26,0.92-2.04,1.2c-0.78,0.29-1.63,0.43-2.53,0.43c-1.62,0-3.03-0.32-4.23-0.95c-1.2-0.64-2.19-1.47-2.99-2.5
					l1.58-1.41c0.76,0.92,1.59,1.63,2.5,2.13c0.91,0.5,1.97,0.75,3.17,0.75c0.59,0,1.14-0.09,1.66-0.26
					c0.52-0.17,0.96-0.43,1.34-0.76c0.38-0.33,0.68-0.73,0.9-1.2s0.33-0.99,0.33-1.56c0-1.22-0.5-2.15-1.51-2.79
					c-1.01-0.65-2.31-0.97-3.91-0.97h-1.24l-0.44-1.3l6.11-6.91H65.77z"/>
			</g>
		</g>
	</g>
</g>
</svg>
