<?xml version="1.0" encoding="utf-8"?>
<!-- Generator: Adobe Illustrator 27.0.0, SVG Export Plug-In . SVG Version: 6.00 Build 0)  -->
<svg version="1.1" id="Layer_1" xmlns="http://www.w3.org/2000/svg" xmlns:xlink="http://www.w3.org/1999/xlink" x="0px" y="0px"
	 viewBox="0 0 269.29 113.39" style="enable-background:new 0 0 269.29 113.39;" xml:space="preserve">
<style type="text/css">
	.st0{fill:#C08357;}
	.st1{fill:#001F4E;}
	.st2{fill:#9D85BE;}
	.st3{fill:url(#SVGID_1_);stroke:#172852;stroke-width:0.5038;stroke-miterlimit:10;}
	.st4{fill:#FFFFFF;}
</style>
<g>
	<rect x="91.58" y="3.46" class="st0" width="174.55" height="32.91"/>
	<g>
		<path class="st1" d="M113.92,23.07c-0.35,0.87-0.83,1.64-1.46,2.31c-0.63,0.67-1.38,1.2-2.26,1.59s-1.85,0.59-2.92,0.59
			c-1.07,0-2.04-0.19-2.91-0.58c-0.87-0.39-1.62-0.91-2.25-1.57c-0.63-0.66-1.11-1.43-1.45-2.3c-0.34-0.87-0.51-1.8-0.51-2.77
			c0-0.97,0.17-1.9,0.52-2.77c0.35-0.87,0.83-1.64,1.46-2.31c0.63-0.67,1.38-1.2,2.26-1.59c0.88-0.39,1.85-0.59,2.92-0.59
			c1.07,0,2.04,0.19,2.91,0.58c0.87,0.39,1.62,0.91,2.25,1.57c0.63,0.66,1.11,1.43,1.45,2.3c0.34,0.87,0.51,1.8,0.51,2.77
			C114.44,21.28,114.26,22.2,113.92,23.07z M112.39,18.08c-0.27-0.71-0.66-1.32-1.15-1.84c-0.49-0.52-1.08-0.93-1.75-1.24
			c-0.67-0.31-1.41-0.46-2.21-0.46s-1.54,0.15-2.21,0.45c-0.67,0.3-1.25,0.71-1.73,1.23c-0.48,0.52-0.86,1.13-1.13,1.83
			s-0.41,1.45-0.41,2.25s0.14,1.55,0.41,2.26c0.27,0.71,0.66,1.32,1.15,1.84c0.49,0.52,1.08,0.93,1.75,1.24
			c0.67,0.31,1.41,0.46,2.21,0.46s1.54-0.15,2.21-0.45c0.67-0.3,1.25-0.71,1.73-1.23c0.48-0.52,0.86-1.13,1.13-1.83
			s0.41-1.45,0.41-2.25S112.66,18.79,112.39,18.08z"/>
		<path class="st1" d="M125.68,16.98h1.66l-4.5,10.42h-1.36L117,16.98h1.7l3.48,8.58L125.68,16.98z"/>
		<path class="st1" d="M131,24.21c0.21,0.43,0.49,0.8,0.82,1.1c0.33,0.3,0.71,0.53,1.12,0.68c0.41,0.15,0.85,0.23,1.3,0.23
			c0.72,0,1.34-0.13,1.85-0.4c0.51-0.27,0.98-0.62,1.41-1.06l0.96,0.86c-0.52,0.59-1.11,1.06-1.78,1.41s-1.49,0.53-2.48,0.53
			c-0.71,0-1.37-0.13-2-0.39c-0.63-0.26-1.17-0.63-1.64-1.1c-0.47-0.47-0.84-1.04-1.12-1.71c-0.28-0.67-0.42-1.4-0.42-2.2
			c0-0.75,0.12-1.45,0.37-2.11s0.59-1.23,1.03-1.72c0.44-0.49,0.96-0.87,1.57-1.15c0.61-0.28,1.27-0.42,1.99-0.42
			c0.76,0,1.44,0.14,2.04,0.43c0.6,0.29,1.11,0.68,1.52,1.17c0.41,0.49,0.73,1.07,0.94,1.74c0.21,0.67,0.32,1.38,0.32,2.14
			c0,0.07,0,0.14,0,0.22s-0.01,0.17-0.02,0.26h-8.18C130.65,23.28,130.78,23.78,131,24.21z M137.22,21.58
			c-0.04-0.47-0.14-0.91-0.29-1.34c-0.15-0.43-0.37-0.8-0.64-1.12c-0.27-0.32-0.6-0.58-0.99-0.77c-0.39-0.19-0.84-0.29-1.36-0.29
			c-0.45,0-0.87,0.09-1.25,0.27c-0.38,0.18-0.72,0.43-1.01,0.74c-0.29,0.31-0.53,0.68-0.72,1.11c-0.19,0.43-0.3,0.89-0.36,1.4
			H137.22z"/>
		<path class="st1" d="M143.54,27.32H142V16.98h1.54v2.7c0.19-0.43,0.42-0.82,0.7-1.18c0.28-0.36,0.6-0.67,0.96-0.93
			c0.36-0.26,0.75-0.46,1.18-0.59c0.43-0.13,0.89-0.19,1.38-0.18v1.66h-0.12c-0.56,0-1.09,0.1-1.59,0.3c-0.5,0.2-0.94,0.5-1.31,0.9
			c-0.37,0.4-0.67,0.9-0.88,1.49s-0.32,1.28-0.32,2.05V27.32z"/>
		<path class="st1" d="M152.17,18.41c-0.5,0.14-0.99,0.32-1.47,0.55l-0.46-1.26c0.57-0.27,1.15-0.48,1.74-0.63s1.26-0.23,2.02-0.23
			c1.41,0,2.5,0.35,3.26,1.05c0.76,0.7,1.14,1.74,1.14,3.11v6.32h-1.48v-1.56c-0.36,0.47-0.84,0.88-1.45,1.24
			c-0.61,0.36-1.37,0.54-2.29,0.54c-0.48,0-0.95-0.07-1.41-0.2s-0.87-0.34-1.24-0.61c-0.37-0.27-0.66-0.61-0.88-1.01
			c-0.22-0.4-0.33-0.87-0.33-1.42c0-0.55,0.11-1.03,0.32-1.45c0.21-0.42,0.52-0.77,0.91-1.05c0.39-0.28,0.86-0.49,1.4-0.64
			c0.54-0.15,1.14-0.22,1.79-0.22c0.67,0,1.25,0.04,1.74,0.12c0.49,0.08,0.97,0.19,1.44,0.32v-0.36c0-0.93-0.27-1.64-0.81-2.11
			c-0.54-0.47-1.3-0.71-2.27-0.71C153.22,18.2,152.67,18.27,152.17,18.41z M151.67,22.66c-0.52,0.39-0.78,0.91-0.78,1.58
			c0,0.33,0.07,0.63,0.21,0.88c0.14,0.25,0.33,0.47,0.57,0.65c0.24,0.18,0.51,0.32,0.83,0.41c0.31,0.09,0.64,0.14,0.99,0.14
			c0.48,0,0.93-0.07,1.35-0.21c0.42-0.14,0.78-0.33,1.1-0.58c0.31-0.25,0.56-0.54,0.74-0.88c0.18-0.34,0.27-0.72,0.27-1.13v-1
			c-0.39-0.11-0.83-0.21-1.33-0.3c-0.5-0.09-1.07-0.14-1.71-0.14C152.94,22.08,152.19,22.28,151.67,22.66z"/>
		<path class="st1" d="M162.32,27.32v-14.6h1.54v14.6H162.32z"/>
		<path class="st1" d="M168.08,27.32v-14.6h1.54v14.6H168.08z"/>
		<path class="st1" d="M173.62,19.08v-2.1h1.84v2.1H173.62z M173.62,27.32v-2.1h1.84v2.1H173.62z"/>
		<path class="st1" d="M197.27,25.16c-0.25,0.48-0.6,0.88-1.06,1.2c-0.46,0.32-1.01,0.56-1.66,0.72c-0.65,0.16-1.36,0.24-2.15,0.24
			h-6.65v-14h6.49c1.44,0,2.57,0.33,3.38,0.98s1.23,1.53,1.23,2.64v0.04c0,0.4-0.05,0.75-0.15,1.06s-0.23,0.58-0.4,0.83
			c-0.17,0.25-0.36,0.46-0.58,0.65s-0.45,0.35-0.71,0.48c0.81,0.31,1.45,0.72,1.91,1.25c0.46,0.53,0.7,1.26,0.7,2.19v0.04
			C197.64,24.12,197.51,24.68,197.27,25.16z M193.82,17.46c0-0.47-0.17-0.82-0.52-1.07c-0.35-0.25-0.85-0.37-1.5-0.37h-3.04v2.96
			h2.84c0.68,0,1.22-0.12,1.62-0.35c0.4-0.23,0.6-0.61,0.6-1.13V17.46z M194.6,23.06c0-0.47-0.18-0.84-0.54-1.11
			c-0.36-0.27-0.94-0.41-1.74-0.41h-3.56v3.08h3.66c0.68,0,1.21-0.12,1.6-0.37s0.58-0.63,0.58-1.15V23.06z"/>
		<path class="st1" d="M206.68,19.58c-1.01,0-1.81,0.31-2.39,0.92s-0.87,1.57-0.87,2.86v3.96h-3.04V16.6h3.04v2.16
			c0.31-0.73,0.73-1.32,1.26-1.76c0.53-0.44,1.25-0.64,2.16-0.6v3.18H206.68z"/>
		<path class="st1" d="M219.88,24.15c-0.29,0.67-0.7,1.26-1.22,1.77c-0.52,0.51-1.13,0.91-1.84,1.2c-0.71,0.29-1.48,0.44-2.32,0.44
			c-0.83,0-1.59-0.14-2.3-0.43c-0.71-0.29-1.32-0.68-1.83-1.18c-0.51-0.5-0.92-1.09-1.21-1.76c-0.29-0.67-0.44-1.4-0.44-2.17v-0.04
			c0-0.77,0.15-1.5,0.44-2.17c0.29-0.67,0.7-1.26,1.22-1.77c0.52-0.51,1.13-0.91,1.84-1.2c0.71-0.29,1.48-0.44,2.32-0.44
			c0.83,0,1.59,0.14,2.3,0.43c0.71,0.29,1.32,0.68,1.83,1.18s0.92,1.09,1.21,1.76s0.44,1.4,0.44,2.17v0.04
			C220.32,22.76,220.17,23.48,219.88,24.15z M217.32,21.98c0-0.4-0.07-0.78-0.2-1.13c-0.13-0.35-0.33-0.67-0.58-0.94
			c-0.25-0.27-0.55-0.49-0.9-0.65s-0.73-0.24-1.14-0.24c-0.44,0-0.83,0.08-1.17,0.23s-0.63,0.36-0.87,0.63s-0.42,0.58-0.55,0.93
			c-0.13,0.35-0.19,0.73-0.19,1.13v0.04c0,0.4,0.07,0.78,0.2,1.13c0.13,0.35,0.33,0.67,0.58,0.94c0.25,0.27,0.55,0.49,0.89,0.65
			c0.34,0.16,0.72,0.24,1.15,0.24c0.44,0,0.83-0.08,1.17-0.23s0.63-0.36,0.87-0.63c0.24-0.27,0.42-0.58,0.55-0.93
			c0.13-0.35,0.19-0.73,0.19-1.13V21.98z"/>
		<path class="st1" d="M229.8,27.32v-5.97c0-0.72-0.16-1.26-0.48-1.63c-0.32-0.37-0.77-0.55-1.36-0.55s-1.05,0.18-1.39,0.55
			c-0.34,0.37-0.51,0.91-0.51,1.63v5.97h-3.04V16.6h3.04v1.53c0.17-0.23,0.36-0.45,0.57-0.65s0.44-0.39,0.69-0.55
			c0.25-0.16,0.53-0.29,0.84-0.38s0.65-0.14,1.04-0.14c1.16,0,2.06,0.35,2.69,1.06c0.63,0.71,0.95,1.68,0.95,2.92v6.94H229.8z"/>
		<path class="st1" d="M235.62,27.32v-2.14l5.54-6.12h-5.36V16.6h9.14v2.14l-5.56,6.12h5.56v2.46H235.62z"/>
		<path class="st1" d="M257.73,22.64c-0.01,0.11-0.02,0.23-0.03,0.38h-7.46c0.15,0.69,0.45,1.22,0.91,1.57
			c0.46,0.35,1.03,0.53,1.71,0.53c0.51,0,0.96-0.09,1.36-0.26s0.81-0.45,1.24-0.84l1.74,1.54c-0.51,0.63-1.12,1.12-1.84,1.47
			c-0.72,0.35-1.57,0.53-2.54,0.53c-0.8,0-1.54-0.13-2.23-0.4c-0.69-0.27-1.28-0.65-1.78-1.14s-0.89-1.08-1.17-1.75
			s-0.42-1.42-0.42-2.25v-0.04c0-0.76,0.13-1.48,0.39-2.16c0.26-0.68,0.62-1.27,1.09-1.78s1.02-0.91,1.67-1.2
			c0.65-0.29,1.36-0.44,2.15-0.44c0.89,0,1.67,0.16,2.32,0.48s1.2,0.75,1.63,1.29c0.43,0.54,0.75,1.16,0.96,1.86
			c0.21,0.7,0.31,1.43,0.31,2.19v0.04C257.74,22.41,257.73,22.54,257.73,22.64z M254.06,19.47c-0.39-0.42-0.9-0.63-1.54-0.63
			s-1.16,0.21-1.55,0.62c-0.39,0.41-0.65,0.97-0.77,1.66h4.58C254.68,20.44,254.44,19.89,254.06,19.47z"/>
	</g>
	<g>
		<path class="st1" d="M8.61,107.38H7.33V97.19H3.51v-1.19h8.92v1.19H8.61V107.38z"/>
		<path class="st1" d="M13.86,104.85c0.17,0.35,0.4,0.65,0.67,0.89c0.27,0.24,0.57,0.43,0.91,0.55c0.34,0.12,0.69,0.19,1.06,0.19
			c0.58,0,1.09-0.11,1.5-0.33s0.8-0.5,1.15-0.86l0.78,0.7c-0.42,0.48-0.91,0.86-1.45,1.15c-0.54,0.29-1.21,0.43-2.02,0.43
			c-0.57,0-1.12-0.11-1.62-0.32c-0.51-0.21-0.95-0.51-1.34-0.89s-0.69-0.85-0.91-1.39s-0.34-1.14-0.34-1.79
			c0-0.61,0.1-1.18,0.3-1.71c0.2-0.54,0.48-1,0.84-1.4s0.78-0.71,1.28-0.93c0.49-0.23,1.03-0.34,1.62-0.34
			c0.62,0,1.17,0.12,1.66,0.35c0.49,0.23,0.9,0.55,1.23,0.95c0.34,0.4,0.59,0.87,0.76,1.41c0.17,0.54,0.26,1.12,0.26,1.74
			c0,0.05,0,0.11,0,0.18c0,0.07-0.01,0.14-0.02,0.21h-6.65C13.58,104.1,13.69,104.5,13.86,104.85z M18.92,102.72
			c-0.03-0.38-0.11-0.74-0.23-1.09s-0.3-0.65-0.52-0.91c-0.22-0.26-0.49-0.47-0.81-0.62c-0.32-0.16-0.69-0.24-1.11-0.24
			c-0.37,0-0.71,0.07-1.02,0.22c-0.31,0.15-0.59,0.35-0.82,0.6c-0.24,0.25-0.43,0.55-0.58,0.9c-0.15,0.35-0.25,0.73-0.29,1.14H18.92
			z"/>
		<path class="st1" d="M24.27,100.14c-0.41,0.11-0.8,0.26-1.19,0.45l-0.37-1.02c0.46-0.22,0.94-0.39,1.41-0.51
			c0.48-0.12,1.02-0.19,1.64-0.19c1.15,0,2.03,0.29,2.65,0.85s0.93,1.41,0.93,2.53v5.13h-1.2v-1.27c-0.29,0.38-0.68,0.71-1.18,1.01
			c-0.49,0.29-1.11,0.44-1.86,0.44c-0.39,0-0.77-0.05-1.15-0.16c-0.37-0.11-0.71-0.27-1.01-0.5s-0.54-0.5-0.71-0.82
			c-0.18-0.33-0.27-0.71-0.27-1.15s0.09-0.84,0.26-1.18c0.17-0.34,0.42-0.63,0.74-0.85c0.32-0.23,0.7-0.4,1.14-0.52
			c0.44-0.12,0.92-0.18,1.46-0.18c0.54,0,1.01,0.03,1.41,0.1c0.4,0.07,0.79,0.15,1.17,0.26v-0.29c0-0.76-0.22-1.33-0.66-1.71
			c-0.44-0.38-1.05-0.58-1.84-0.58C25.13,99.97,24.68,100.03,24.27,100.14z M23.87,103.6c-0.42,0.31-0.63,0.74-0.63,1.28
			c0,0.27,0.06,0.51,0.17,0.71c0.11,0.21,0.27,0.38,0.46,0.53c0.19,0.15,0.42,0.26,0.67,0.33c0.25,0.08,0.52,0.11,0.8,0.11
			c0.39,0,0.75-0.06,1.09-0.17c0.34-0.11,0.64-0.27,0.89-0.47c0.25-0.2,0.45-0.44,0.6-0.71s0.22-0.58,0.22-0.92v-0.81
			c-0.31-0.09-0.67-0.17-1.08-0.24c-0.41-0.08-0.87-0.11-1.38-0.11C24.9,103.12,24.29,103.28,23.87,103.6z"/>
		<path class="st1" d="M37.97,107.12c-0.54,0.31-1.2,0.46-1.99,0.46c-0.62,0-1.19-0.12-1.71-0.35c-0.53-0.23-0.98-0.55-1.37-0.94
			s-0.69-0.86-0.9-1.39c-0.22-0.53-0.32-1.09-0.32-1.69s0.11-1.16,0.32-1.7c0.22-0.54,0.52-1,0.9-1.41c0.38-0.4,0.84-0.72,1.37-0.95
			c0.53-0.23,1.1-0.35,1.71-0.35c0.4,0,0.76,0.04,1.09,0.11c0.33,0.08,0.62,0.18,0.89,0.32s0.52,0.29,0.75,0.48
			c0.23,0.18,0.44,0.38,0.63,0.58l-0.83,0.88c-0.34-0.35-0.7-0.64-1.1-0.89s-0.88-0.37-1.45-0.37c-0.42,0-0.82,0.08-1.19,0.25
			c-0.37,0.17-0.69,0.4-0.96,0.7c-0.27,0.3-0.48,0.64-0.63,1.04s-0.23,0.82-0.23,1.27s0.08,0.88,0.24,1.28
			c0.16,0.4,0.37,0.75,0.65,1.05s0.6,0.53,0.97,0.7c0.37,0.17,0.78,0.25,1.23,0.25c0.54,0,1.02-0.12,1.44-0.36s0.79-0.54,1.13-0.89
			l0.8,0.75C38.99,106.41,38.51,106.81,37.97,107.12z"/>
		<path class="st1" d="M42.92,107.38h-1.25V95.52h1.25v4.92c0.28-0.45,0.65-0.84,1.11-1.16s1.04-0.48,1.77-0.48
			c0.51,0,0.96,0.08,1.36,0.24c0.4,0.16,0.73,0.39,1.01,0.69s0.49,0.65,0.63,1.06c0.15,0.41,0.22,0.87,0.22,1.36v5.22h-1.25v-4.91
			c0-0.78-0.2-1.4-0.6-1.85c-0.4-0.46-0.97-0.68-1.72-0.68c-0.36,0-0.69,0.06-1,0.19c-0.31,0.12-0.58,0.3-0.8,0.54
			c-0.23,0.23-0.4,0.51-0.53,0.84c-0.12,0.33-0.19,0.68-0.19,1.07V107.38z"/>
		<path class="st1" d="M51.9,97.14v-1.38h1.43v1.38H51.9z M51.98,107.38v-8.4h1.25v8.4H51.98z"/>
		<path class="st1" d="M57.59,107.38h-1.25v-8.4h1.25v1.46c0.28-0.45,0.65-0.84,1.11-1.16s1.04-0.48,1.77-0.48
			c0.51,0,0.96,0.08,1.36,0.24c0.4,0.16,0.73,0.39,1.01,0.69s0.49,0.65,0.63,1.06c0.15,0.41,0.22,0.87,0.22,1.36v5.22h-1.25v-4.91
			c0-0.78-0.2-1.4-0.6-1.85c-0.4-0.46-0.97-0.68-1.72-0.68c-0.36,0-0.69,0.06-1,0.19c-0.31,0.12-0.58,0.3-0.8,0.54
			c-0.23,0.23-0.4,0.51-0.53,0.84c-0.12,0.33-0.19,0.68-0.19,1.07V107.38z"/>
		<path class="st1" d="M74.24,107.71c-0.2,0.51-0.49,0.93-0.86,1.28c-0.37,0.34-0.82,0.6-1.35,0.77c-0.53,0.17-1.11,0.26-1.76,0.26
			c-0.71,0-1.38-0.1-2.02-0.29c-0.64-0.2-1.24-0.49-1.8-0.88l0.57-0.97c0.49,0.35,1,0.61,1.53,0.8c0.53,0.18,1.1,0.28,1.71,0.28
			c0.93,0,1.67-0.25,2.23-0.76c0.55-0.5,0.83-1.25,0.83-2.23v-0.99c-0.37,0.49-0.82,0.91-1.35,1.25s-1.18,0.52-1.95,0.52
			c-0.51,0-1-0.09-1.47-0.27c-0.47-0.18-0.89-0.44-1.26-0.78c-0.37-0.34-0.66-0.76-0.89-1.24c-0.22-0.49-0.33-1.04-0.33-1.66
			c0-0.62,0.11-1.17,0.33-1.67c0.22-0.49,0.52-0.91,0.89-1.25c0.37-0.34,0.79-0.6,1.27-0.79c0.48-0.18,0.96-0.28,1.46-0.28
			c0.39,0,0.75,0.05,1.08,0.14c0.33,0.09,0.63,0.21,0.89,0.37c0.27,0.15,0.51,0.33,0.72,0.54c0.22,0.21,0.41,0.42,0.58,0.65v-1.51
			h1.25v6.94C74.54,106.6,74.44,107.2,74.24,107.71z M73.08,101.59c-0.17-0.35-0.4-0.65-0.69-0.9s-0.62-0.44-0.98-0.58
			c-0.37-0.13-0.75-0.2-1.15-0.2c-0.4,0-0.78,0.07-1.13,0.2c-0.35,0.13-0.66,0.32-0.93,0.57c-0.27,0.25-0.47,0.55-0.63,0.9
			c-0.15,0.35-0.23,0.75-0.23,1.18c0,0.43,0.08,0.83,0.24,1.18c0.16,0.35,0.37,0.66,0.63,0.91c0.26,0.25,0.57,0.45,0.93,0.58
			c0.35,0.13,0.72,0.2,1.11,0.2c0.4,0,0.79-0.07,1.15-0.2c0.37-0.14,0.7-0.33,0.98-0.58s0.52-0.55,0.69-0.9
			c0.17-0.35,0.26-0.74,0.26-1.18S73.25,101.94,73.08,101.59z"/>
		<path class="st1" d="M91.03,97.18h-6.94v3.88h6.21v1.17h-6.21v3.98h7.02v1.17h-8.3V96.01h8.22V97.18z"/>
		<path class="st1" d="M100.98,107.38h-1.45l-2.6-3.43l-2.62,3.43h-1.4l3.3-4.27l-3.17-4.13h1.43l2.49,3.25l2.49-3.25h1.4
			l-3.18,4.09L100.98,107.38z"/>
		<path class="st1" d="M108.41,107.12c-0.54,0.31-1.2,0.46-1.99,0.46c-0.62,0-1.19-0.12-1.71-0.35c-0.53-0.23-0.98-0.55-1.37-0.94
			s-0.69-0.86-0.9-1.39c-0.22-0.53-0.32-1.09-0.32-1.69s0.11-1.16,0.32-1.7c0.22-0.54,0.52-1,0.9-1.41c0.38-0.4,0.84-0.72,1.37-0.95
			c0.53-0.23,1.1-0.35,1.71-0.35c0.4,0,0.76,0.04,1.09,0.11c0.33,0.08,0.62,0.18,0.89,0.32s0.52,0.29,0.75,0.48
			c0.23,0.18,0.44,0.38,0.63,0.58l-0.83,0.88c-0.34-0.35-0.7-0.64-1.1-0.89s-0.88-0.37-1.45-0.37c-0.42,0-0.82,0.08-1.19,0.25
			c-0.37,0.17-0.69,0.4-0.96,0.7c-0.27,0.3-0.48,0.64-0.63,1.04s-0.23,0.82-0.23,1.27s0.08,0.88,0.24,1.28
			c0.16,0.4,0.37,0.75,0.65,1.05s0.6,0.53,0.97,0.7c0.37,0.17,0.78,0.25,1.23,0.25c0.54,0,1.02-0.12,1.44-0.36s0.79-0.54,1.13-0.89
			l0.8,0.75C109.43,106.41,108.95,106.81,108.41,107.12z"/>
		<path class="st1" d="M112.95,104.85c0.17,0.35,0.4,0.65,0.67,0.89c0.27,0.24,0.57,0.43,0.91,0.55c0.34,0.12,0.69,0.19,1.06,0.19
			c0.58,0,1.09-0.11,1.5-0.33s0.8-0.5,1.15-0.86l0.78,0.7c-0.42,0.48-0.91,0.86-1.45,1.15c-0.54,0.29-1.21,0.43-2.02,0.43
			c-0.57,0-1.12-0.11-1.62-0.32c-0.51-0.21-0.95-0.51-1.34-0.89s-0.69-0.85-0.91-1.39s-0.34-1.14-0.34-1.79
			c0-0.61,0.1-1.18,0.3-1.71c0.2-0.54,0.48-1,0.84-1.4s0.78-0.71,1.28-0.93c0.49-0.23,1.03-0.34,1.62-0.34
			c0.62,0,1.17,0.12,1.66,0.35c0.49,0.23,0.9,0.55,1.23,0.95c0.34,0.4,0.59,0.87,0.76,1.41c0.17,0.54,0.26,1.12,0.26,1.74
			c0,0.05,0,0.11,0,0.18c0,0.07-0.01,0.14-0.02,0.21h-6.65C112.67,104.1,112.78,104.5,112.95,104.85z M118.01,102.72
			c-0.03-0.38-0.11-0.74-0.23-1.09s-0.3-0.65-0.52-0.91c-0.22-0.26-0.49-0.47-0.81-0.62c-0.32-0.16-0.69-0.24-1.11-0.24
			c-0.37,0-0.71,0.07-1.02,0.22c-0.31,0.15-0.59,0.35-0.82,0.6c-0.24,0.25-0.43,0.55-0.58,0.9c-0.15,0.35-0.25,0.73-0.29,1.14
			H118.01z"/>
		<path class="st1" d="M121.79,107.38V95.52h1.25v11.86H121.79z"/>
		<path class="st1" d="M126.26,107.38V95.52h1.25v11.86H126.26z"/>
		<path class="st1" d="M131.71,104.85c0.17,0.35,0.4,0.65,0.67,0.89c0.27,0.24,0.57,0.43,0.91,0.55c0.34,0.12,0.69,0.19,1.06,0.19
			c0.58,0,1.09-0.11,1.5-0.33s0.8-0.5,1.15-0.86l0.78,0.7c-0.42,0.48-0.91,0.86-1.45,1.15c-0.54,0.29-1.21,0.43-2.02,0.43
			c-0.57,0-1.12-0.11-1.62-0.32c-0.51-0.21-0.95-0.51-1.34-0.89s-0.69-0.85-0.91-1.39s-0.34-1.14-0.34-1.79
			c0-0.61,0.1-1.18,0.3-1.71c0.2-0.54,0.48-1,0.84-1.4s0.78-0.71,1.28-0.93c0.49-0.23,1.03-0.34,1.62-0.34
			c0.62,0,1.17,0.12,1.66,0.35c0.49,0.23,0.9,0.55,1.23,0.95c0.34,0.4,0.59,0.87,0.76,1.41c0.17,0.54,0.26,1.12,0.26,1.74
			c0,0.05,0,0.11,0,0.18c0,0.07-0.01,0.14-0.02,0.21h-6.65C131.42,104.1,131.53,104.5,131.71,104.85z M136.76,102.72
			c-0.03-0.38-0.11-0.74-0.23-1.09s-0.3-0.65-0.52-0.91c-0.22-0.26-0.49-0.47-0.81-0.62c-0.32-0.16-0.69-0.24-1.11-0.24
			c-0.37,0-0.71,0.07-1.02,0.22c-0.31,0.15-0.59,0.35-0.82,0.6c-0.24,0.25-0.43,0.55-0.58,0.9c-0.15,0.35-0.25,0.73-0.29,1.14
			H136.76z"/>
		<path class="st1" d="M141.68,107.38h-1.25v-8.4h1.25v1.46c0.28-0.45,0.65-0.84,1.11-1.16s1.04-0.48,1.77-0.48
			c0.51,0,0.96,0.08,1.36,0.24c0.4,0.16,0.73,0.39,1.01,0.69s0.49,0.65,0.63,1.06c0.15,0.41,0.22,0.87,0.22,1.36v5.22h-1.25v-4.91
			c0-0.78-0.2-1.4-0.6-1.85c-0.4-0.46-0.97-0.68-1.72-0.68c-0.36,0-0.69,0.06-1,0.19c-0.31,0.12-0.58,0.3-0.8,0.54
			c-0.23,0.23-0.4,0.51-0.53,0.84c-0.12,0.33-0.19,0.68-0.19,1.07V107.38z"/>
		<path class="st1" d="M156.41,107.12c-0.54,0.31-1.2,0.46-1.99,0.46c-0.62,0-1.19-0.12-1.71-0.35c-0.53-0.23-0.98-0.55-1.37-0.94
			s-0.69-0.86-0.9-1.39c-0.22-0.53-0.32-1.09-0.32-1.69s0.11-1.16,0.32-1.7c0.22-0.54,0.52-1,0.9-1.41c0.38-0.4,0.84-0.72,1.37-0.95
			c0.53-0.23,1.1-0.35,1.71-0.35c0.4,0,0.76,0.04,1.09,0.11c0.33,0.08,0.62,0.18,0.89,0.32s0.52,0.29,0.75,0.48
			c0.23,0.18,0.44,0.38,0.63,0.58l-0.83,0.88c-0.34-0.35-0.7-0.64-1.1-0.89s-0.88-0.37-1.45-0.37c-0.42,0-0.82,0.08-1.19,0.25
			c-0.37,0.17-0.69,0.4-0.96,0.7c-0.27,0.3-0.48,0.64-0.63,1.04s-0.23,0.82-0.23,1.27s0.08,0.88,0.24,1.28
			c0.16,0.4,0.37,0.75,0.65,1.05s0.6,0.53,0.97,0.7c0.37,0.17,0.78,0.25,1.23,0.25c0.54,0,1.02-0.12,1.44-0.36s0.79-0.54,1.13-0.89
			l0.8,0.75C157.43,106.41,156.95,106.81,156.41,107.12z"/>
		<path class="st1" d="M160.95,104.85c0.17,0.35,0.4,0.65,0.67,0.89c0.27,0.24,0.57,0.43,0.91,0.55c0.34,0.12,0.69,0.19,1.06,0.19
			c0.58,0,1.09-0.11,1.5-0.33s0.8-0.5,1.15-0.86l0.78,0.7c-0.42,0.48-0.91,0.86-1.45,1.15c-0.54,0.29-1.21,0.43-2.02,0.43
			c-0.57,0-1.12-0.11-1.62-0.32c-0.51-0.21-0.95-0.51-1.34-0.89s-0.69-0.85-0.91-1.39s-0.34-1.14-0.34-1.79
			c0-0.61,0.1-1.18,0.3-1.71c0.2-0.54,0.48-1,0.84-1.4s0.78-0.71,1.28-0.93c0.49-0.23,1.03-0.34,1.62-0.34
			c0.62,0,1.17,0.12,1.66,0.35c0.49,0.23,0.9,0.55,1.23,0.95c0.34,0.4,0.59,0.87,0.76,1.41c0.17,0.54,0.26,1.12,0.26,1.74
			c0,0.05,0,0.11,0,0.18c0,0.07-0.01,0.14-0.02,0.21h-6.65C160.67,104.1,160.78,104.5,160.95,104.85z M166.01,102.72
			c-0.03-0.38-0.11-0.74-0.23-1.09s-0.3-0.65-0.52-0.91c-0.22-0.26-0.49-0.47-0.81-0.62c-0.32-0.16-0.69-0.24-1.11-0.24
			c-0.37,0-0.71,0.07-1.02,0.22c-0.31,0.15-0.59,0.35-0.82,0.6c-0.24,0.25-0.43,0.55-0.58,0.9c-0.15,0.35-0.25,0.73-0.29,1.14
			H166.01z"/>
		<path class="st1" d="M183.14,97.19h-6.89v4.06h6.16v1.17h-6.16v4.96h-1.28V96.01h8.17V97.19z"/>
		<path class="st1" d="M186.86,107.38h-1.25v-8.4h1.25v2.19c0.15-0.35,0.34-0.67,0.57-0.96c0.23-0.29,0.49-0.54,0.78-0.76
			c0.29-0.21,0.61-0.37,0.96-0.48s0.72-0.16,1.12-0.15v1.35h-0.1c-0.46,0-0.89,0.08-1.29,0.24c-0.41,0.16-0.76,0.41-1.06,0.73
			c-0.3,0.32-0.54,0.73-0.71,1.21c-0.17,0.48-0.26,1.04-0.26,1.67V107.38z"/>
		<path class="st1" d="M193.66,100.14c-0.41,0.11-0.8,0.26-1.19,0.45l-0.37-1.02c0.46-0.22,0.94-0.39,1.41-0.51
			c0.48-0.12,1.02-0.19,1.64-0.19c1.15,0,2.03,0.29,2.65,0.85s0.93,1.41,0.93,2.53v5.13h-1.2v-1.27c-0.29,0.38-0.68,0.71-1.18,1.01
			c-0.49,0.29-1.11,0.44-1.86,0.44c-0.39,0-0.77-0.05-1.15-0.16c-0.37-0.11-0.71-0.27-1.01-0.5s-0.54-0.5-0.71-0.82
			c-0.18-0.33-0.27-0.71-0.27-1.15s0.09-0.84,0.26-1.18c0.17-0.34,0.42-0.63,0.74-0.85c0.32-0.23,0.7-0.4,1.14-0.52
			c0.44-0.12,0.92-0.18,1.46-0.18c0.54,0,1.01,0.03,1.41,0.1c0.4,0.07,0.79,0.15,1.17,0.26v-0.29c0-0.76-0.22-1.33-0.66-1.71
			c-0.44-0.38-1.05-0.58-1.84-0.58C194.52,99.97,194.06,100.03,193.66,100.14z M193.26,103.6c-0.42,0.31-0.63,0.74-0.63,1.28
			c0,0.27,0.06,0.51,0.17,0.71c0.11,0.21,0.27,0.38,0.46,0.53c0.19,0.15,0.42,0.26,0.67,0.33c0.25,0.08,0.52,0.11,0.8,0.11
			c0.39,0,0.75-0.06,1.09-0.17c0.34-0.11,0.64-0.27,0.89-0.47c0.25-0.2,0.45-0.44,0.6-0.71s0.22-0.58,0.22-0.92v-0.81
			c-0.31-0.09-0.67-0.17-1.08-0.24c-0.41-0.08-0.87-0.11-1.38-0.11C194.28,103.12,193.68,103.28,193.26,103.6z"/>
		<path class="st1" d="M208.75,99.83c0.19-0.21,0.4-0.38,0.64-0.54c0.24-0.15,0.51-0.27,0.8-0.36c0.3-0.09,0.63-0.13,1-0.13
			c0.97,0,1.74,0.3,2.29,0.9c0.55,0.6,0.83,1.43,0.83,2.48v5.2h-1.25v-4.91c0-0.81-0.19-1.44-0.58-1.88
			c-0.38-0.44-0.92-0.66-1.6-0.66c-0.31,0-0.61,0.06-0.89,0.17c-0.28,0.11-0.53,0.28-0.74,0.5c-0.21,0.22-0.38,0.5-0.5,0.82
			c-0.12,0.32-0.19,0.69-0.19,1.1v4.84h-1.23v-4.94c0-0.79-0.19-1.41-0.58-1.84c-0.38-0.44-0.91-0.66-1.58-0.66
			c-0.34,0-0.64,0.06-0.93,0.19c-0.28,0.13-0.53,0.31-0.74,0.55s-0.38,0.52-0.5,0.84s-0.18,0.67-0.18,1.06v4.79h-1.25v-8.4h1.25
			v1.41c0.14-0.21,0.29-0.41,0.46-0.6c0.17-0.2,0.36-0.37,0.58-0.51c0.22-0.15,0.46-0.26,0.73-0.35s0.58-0.13,0.94-0.13
			c0.68,0,1.25,0.16,1.69,0.48c0.44,0.32,0.78,0.72,1.01,1.19C208.39,100.25,208.56,100.03,208.75,99.83z"/>
		<path class="st1" d="M218.32,104.85c0.17,0.35,0.4,0.65,0.67,0.89c0.27,0.24,0.57,0.43,0.91,0.55c0.34,0.12,0.69,0.19,1.06,0.19
			c0.58,0,1.09-0.11,1.5-0.33s0.8-0.5,1.15-0.86l0.78,0.7c-0.42,0.48-0.91,0.86-1.45,1.15c-0.54,0.29-1.21,0.43-2.02,0.43
			c-0.57,0-1.12-0.11-1.62-0.32c-0.51-0.21-0.95-0.51-1.34-0.89s-0.69-0.85-0.91-1.39s-0.34-1.14-0.34-1.79
			c0-0.61,0.1-1.18,0.3-1.71c0.2-0.54,0.48-1,0.84-1.4s0.78-0.71,1.28-0.93c0.49-0.23,1.03-0.34,1.62-0.34
			c0.62,0,1.17,0.12,1.66,0.35c0.49,0.23,0.9,0.55,1.23,0.95c0.34,0.4,0.59,0.87,0.76,1.41c0.17,0.54,0.26,1.12,0.26,1.74
			c0,0.05,0,0.11,0,0.18c0,0.07-0.01,0.14-0.02,0.21h-6.65C218.03,104.1,218.14,104.5,218.32,104.85z M223.37,102.72
			c-0.03-0.38-0.11-0.74-0.23-1.09s-0.3-0.65-0.52-0.91c-0.22-0.26-0.49-0.47-0.81-0.62c-0.32-0.16-0.69-0.24-1.11-0.24
			c-0.37,0-0.71,0.07-1.02,0.22c-0.31,0.15-0.59,0.35-0.82,0.6c-0.24,0.25-0.43,0.55-0.58,0.9c-0.15,0.35-0.25,0.73-0.29,1.14
			H223.37z"/>
		<path class="st1" d="M235.04,105.72l2.21-6.74h1.3l-2.96,8.47h-1.09l-2.26-6.63l-2.28,6.63h-1.1l-2.94-8.47h1.33l2.21,6.74
			l2.26-6.78h1.04L235.04,105.72z"/>
		<path class="st1" d="M248.32,104.87c-0.22,0.54-0.53,1-0.92,1.41c-0.39,0.4-0.86,0.72-1.4,0.95c-0.54,0.23-1.13,0.35-1.75,0.35
			s-1.21-0.12-1.74-0.35c-0.53-0.23-0.99-0.55-1.38-0.94c-0.39-0.4-0.69-0.86-0.91-1.39c-0.22-0.53-0.32-1.09-0.32-1.69
			s0.11-1.16,0.32-1.7c0.22-0.54,0.52-1,0.91-1.41c0.39-0.4,0.85-0.72,1.39-0.95c0.54-0.23,1.12-0.35,1.76-0.35
			c0.63,0,1.21,0.12,1.75,0.35c0.54,0.23,1,0.55,1.39,0.94s0.69,0.86,0.91,1.39c0.22,0.53,0.33,1.09,0.33,1.69
			S248.54,104.33,248.32,104.87z M247.14,101.92c-0.16-0.4-0.38-0.75-0.66-1.05c-0.28-0.3-0.61-0.53-0.99-0.71
			c-0.38-0.17-0.79-0.26-1.24-0.26c-0.46,0-0.87,0.08-1.25,0.25c-0.38,0.17-0.7,0.4-0.97,0.7c-0.27,0.3-0.47,0.64-0.63,1.04
			s-0.23,0.82-0.23,1.27s0.08,0.88,0.24,1.28c0.16,0.4,0.37,0.75,0.65,1.04c0.28,0.29,0.6,0.52,0.98,0.7
			c0.38,0.17,0.79,0.26,1.23,0.26c0.46,0,0.87-0.08,1.25-0.25c0.38-0.17,0.7-0.4,0.97-0.69s0.48-0.63,0.63-1.03s0.23-0.82,0.23-1.27
			S247.29,102.32,247.14,101.92z"/>
		<path class="st1" d="M252.36,107.38h-1.25v-8.4h1.25v2.19c0.15-0.35,0.34-0.67,0.57-0.96c0.23-0.29,0.49-0.54,0.78-0.76
			c0.29-0.21,0.61-0.37,0.96-0.48s0.72-0.16,1.12-0.15v1.35h-0.1c-0.46,0-0.89,0.08-1.29,0.24c-0.41,0.16-0.76,0.41-1.06,0.73
			c-0.3,0.32-0.54,0.73-0.71,1.21c-0.17,0.48-0.26,1.04-0.26,1.67V107.38z"/>
		<path class="st1" d="M265.34,107.38h-1.5l-3.01-3.92l-1.71,1.72v2.19h-1.25V95.52h1.25v8.19l4.53-4.73h1.56l-3.53,3.61
			L265.34,107.38z"/>
	</g>
	<g>
		<rect x="91.58" y="40.22" class="st2" width="174.55" height="21.68"/>
		<g>
			<path class="st1" d="M135.8,45.64c0.05,0.12,0.13,0.23,0.26,0.33s0.3,0.19,0.52,0.27c0.22,0.08,0.51,0.16,0.85,0.23
				c0.7,0.16,1.22,0.37,1.55,0.65s0.5,0.66,0.5,1.15c0,0.27-0.05,0.52-0.16,0.74c-0.11,0.22-0.25,0.41-0.44,0.57
				s-0.41,0.28-0.68,0.36c-0.26,0.08-0.55,0.13-0.86,0.13c-0.5,0-0.96-0.08-1.38-0.24c-0.42-0.16-0.82-0.41-1.19-0.76l0.44-0.52
				c0.33,0.3,0.66,0.52,1,0.67c0.34,0.15,0.72,0.22,1.16,0.22c0.43,0,0.77-0.1,1.02-0.3s0.38-0.46,0.38-0.78
				c0-0.15-0.02-0.28-0.07-0.4c-0.05-0.12-0.13-0.22-0.25-0.32s-0.29-0.18-0.5-0.26c-0.21-0.08-0.49-0.15-0.82-0.23
				c-0.36-0.08-0.67-0.17-0.94-0.27c-0.27-0.1-0.49-0.23-0.66-0.37c-0.17-0.14-0.3-0.31-0.39-0.5c-0.08-0.19-0.13-0.42-0.13-0.69
				c0-0.25,0.05-0.48,0.15-0.69c0.1-0.21,0.25-0.39,0.43-0.54c0.19-0.15,0.41-0.27,0.66-0.36c0.25-0.09,0.53-0.13,0.83-0.13
				c0.46,0,0.87,0.06,1.21,0.19c0.35,0.13,0.68,0.32,1,0.57l-0.41,0.55c-0.29-0.24-0.59-0.41-0.89-0.52s-0.61-0.16-0.93-0.16
				c-0.2,0-0.39,0.03-0.55,0.08s-0.31,0.13-0.42,0.22c-0.12,0.09-0.21,0.2-0.27,0.32c-0.06,0.13-0.09,0.26-0.09,0.41
				C135.73,45.38,135.75,45.52,135.8,45.64z"/>
			<path class="st1" d="M141.71,48.64c0,0.29,0.07,0.49,0.22,0.6c0.14,0.11,0.33,0.17,0.57,0.17c0.12,0,0.23-0.01,0.34-0.04
				c0.11-0.02,0.22-0.07,0.34-0.13v0.59c-0.12,0.07-0.25,0.12-0.38,0.15c-0.13,0.03-0.29,0.05-0.45,0.05
				c-0.19,0-0.36-0.02-0.52-0.07c-0.16-0.05-0.3-0.12-0.42-0.23c-0.12-0.1-0.21-0.24-0.27-0.41c-0.07-0.17-0.1-0.37-0.1-0.6v-2.81
				h-0.65v-0.61h0.65v-1.4h0.69v1.4h1.48v0.61h-1.48V48.64z"/>
			<path class="st1" d="M147.72,45.31h0.68v4.65h-0.68v-0.81c-0.16,0.25-0.36,0.47-0.61,0.64s-0.58,0.27-0.98,0.27
				c-0.28,0-0.53-0.04-0.75-0.14c-0.22-0.09-0.41-0.22-0.56-0.38c-0.15-0.17-0.27-0.36-0.35-0.59s-0.12-0.48-0.12-0.76v-2.89h0.69
				v2.72c0,0.43,0.11,0.77,0.33,1.03s0.54,0.38,0.95,0.38c0.2,0,0.38-0.03,0.55-0.1c0.17-0.07,0.32-0.17,0.44-0.3
				c0.12-0.13,0.22-0.28,0.29-0.46s0.11-0.38,0.11-0.59V45.31z"/>
			<path class="st1" d="M153.69,49.96v-0.94c-0.1,0.14-0.2,0.27-0.32,0.4s-0.25,0.24-0.39,0.33c-0.14,0.1-0.3,0.17-0.48,0.23
				c-0.18,0.05-0.37,0.08-0.59,0.08c-0.28,0-0.55-0.05-0.82-0.16c-0.26-0.11-0.5-0.27-0.71-0.47s-0.38-0.46-0.5-0.76
				c-0.13-0.3-0.19-0.64-0.19-1.03c0-0.38,0.06-0.73,0.19-1.03c0.13-0.3,0.29-0.55,0.5-0.76s0.45-0.37,0.71-0.48
				c0.26-0.11,0.54-0.17,0.82-0.17c0.22,0,0.41,0.03,0.59,0.08c0.18,0.05,0.34,0.13,0.49,0.22c0.14,0.09,0.27,0.2,0.39,0.31
				c0.12,0.12,0.22,0.25,0.31,0.38v-2.81h0.69v6.57H153.69z M153.58,46.9c-0.09-0.22-0.22-0.41-0.38-0.56
				c-0.16-0.16-0.34-0.28-0.54-0.36c-0.2-0.09-0.41-0.13-0.63-0.13c-0.23,0-0.44,0.04-0.64,0.12s-0.37,0.2-0.52,0.35
				c-0.15,0.15-0.26,0.34-0.35,0.56c-0.09,0.22-0.13,0.48-0.13,0.76c0,0.27,0.04,0.52,0.13,0.74c0.09,0.22,0.21,0.41,0.36,0.57
				c0.15,0.16,0.32,0.28,0.52,0.36s0.41,0.13,0.63,0.13c0.22,0,0.42-0.04,0.63-0.13c0.2-0.09,0.38-0.21,0.54-0.36
				c0.16-0.16,0.28-0.34,0.38-0.57c0.09-0.22,0.14-0.47,0.14-0.74S153.67,47.12,153.58,46.9z"/>
			<path class="st1" d="M156.54,48.56c0.1,0.19,0.22,0.36,0.37,0.5c0.15,0.13,0.32,0.24,0.5,0.31c0.19,0.07,0.38,0.1,0.58,0.1
				c0.32,0,0.6-0.06,0.83-0.18c0.23-0.12,0.44-0.28,0.63-0.48l0.43,0.39c-0.23,0.26-0.5,0.48-0.8,0.63
				c-0.3,0.16-0.67,0.24-1.12,0.24c-0.32,0-0.62-0.06-0.9-0.18c-0.28-0.12-0.53-0.28-0.74-0.5c-0.21-0.21-0.38-0.47-0.5-0.77
				c-0.12-0.3-0.19-0.63-0.19-0.99c0-0.34,0.06-0.65,0.17-0.95c0.11-0.3,0.27-0.55,0.46-0.77s0.43-0.39,0.71-0.52
				c0.27-0.13,0.57-0.19,0.9-0.19c0.34,0,0.65,0.06,0.92,0.19c0.27,0.13,0.5,0.3,0.68,0.53c0.19,0.22,0.33,0.48,0.42,0.78
				c0.1,0.3,0.14,0.62,0.14,0.96c0,0.03,0,0.06,0,0.1s0,0.08-0.01,0.12h-3.68C156.38,48.15,156.44,48.37,156.54,48.56z
				 M159.33,47.38c-0.02-0.21-0.06-0.41-0.13-0.6c-0.07-0.19-0.16-0.36-0.29-0.5c-0.12-0.14-0.27-0.26-0.45-0.35
				c-0.18-0.09-0.38-0.13-0.61-0.13c-0.2,0-0.39,0.04-0.56,0.12s-0.33,0.19-0.46,0.33c-0.13,0.14-0.24,0.31-0.32,0.5
				c-0.08,0.19-0.14,0.4-0.16,0.63H159.33z"/>
			<path class="st1" d="M161.95,49.96h-0.69v-4.65h0.69v0.81c0.16-0.25,0.36-0.47,0.61-0.64c0.25-0.18,0.58-0.27,0.98-0.27
				c0.28,0,0.53,0.04,0.75,0.13c0.22,0.09,0.41,0.22,0.56,0.38c0.15,0.17,0.27,0.36,0.35,0.59s0.12,0.48,0.12,0.76v2.89h-0.69v-2.72
				c0-0.43-0.11-0.77-0.33-1.03c-0.22-0.25-0.54-0.38-0.95-0.38c-0.2,0-0.38,0.03-0.55,0.1c-0.17,0.07-0.32,0.17-0.45,0.3
				c-0.13,0.13-0.22,0.28-0.29,0.46c-0.07,0.18-0.1,0.38-0.1,0.59V49.96z"/>
			<path class="st1" d="M167.74,48.64c0,0.29,0.07,0.49,0.22,0.6c0.14,0.11,0.33,0.17,0.57,0.17c0.12,0,0.23-0.01,0.34-0.04
				c0.1-0.02,0.22-0.07,0.34-0.13v0.59c-0.12,0.07-0.25,0.12-0.38,0.15c-0.14,0.03-0.29,0.05-0.46,0.05c-0.19,0-0.36-0.02-0.52-0.07
				c-0.16-0.05-0.3-0.12-0.42-0.23c-0.12-0.1-0.21-0.24-0.27-0.41s-0.1-0.37-0.1-0.6v-2.81h-0.65v-0.61h0.65v-1.4h0.69v1.4h1.48
				v0.61h-1.48V48.64z"/>
			<path class="st1" d="M173.74,48.56c0.1,0.19,0.22,0.36,0.37,0.5c0.15,0.13,0.32,0.24,0.5,0.31c0.19,0.07,0.38,0.1,0.58,0.1
				c0.32,0,0.6-0.06,0.83-0.18c0.23-0.12,0.44-0.28,0.63-0.48l0.43,0.39c-0.23,0.26-0.5,0.48-0.8,0.63
				c-0.3,0.16-0.67,0.24-1.12,0.24c-0.32,0-0.62-0.06-0.9-0.18c-0.28-0.12-0.53-0.28-0.74-0.5c-0.21-0.21-0.38-0.47-0.5-0.77
				c-0.12-0.3-0.19-0.63-0.19-0.99c0-0.34,0.06-0.65,0.17-0.95s0.27-0.55,0.46-0.77c0.2-0.22,0.43-0.39,0.71-0.52
				c0.27-0.13,0.57-0.19,0.9-0.19c0.34,0,0.65,0.06,0.92,0.19c0.27,0.13,0.5,0.3,0.68,0.53c0.19,0.22,0.33,0.48,0.42,0.78
				c0.1,0.3,0.14,0.62,0.14,0.96c0,0.03,0,0.06,0,0.1s0,0.08-0.01,0.12h-3.68C173.59,48.15,173.65,48.37,173.74,48.56z
				 M176.54,47.38c-0.02-0.21-0.06-0.41-0.13-0.6s-0.16-0.36-0.29-0.5s-0.27-0.26-0.45-0.35c-0.18-0.09-0.38-0.13-0.61-0.13
				c-0.2,0-0.39,0.04-0.56,0.12s-0.33,0.19-0.46,0.33s-0.24,0.31-0.32,0.5c-0.08,0.19-0.14,0.4-0.16,0.63H176.54z"/>
			<path class="st1" d="M182.24,49.96h-0.8l-1.44-1.9l-1.45,1.9h-0.77l1.83-2.37l-1.76-2.29h0.79l1.38,1.8l1.38-1.8h0.77l-1.76,2.27
				L182.24,49.96z"/>
			<path class="st1" d="M187.87,48.66c-0.13,0.3-0.29,0.55-0.5,0.76s-0.44,0.37-0.71,0.48c-0.27,0.11-0.54,0.17-0.82,0.17
				c-0.22,0-0.41-0.03-0.59-0.08c-0.18-0.05-0.34-0.13-0.49-0.22c-0.14-0.09-0.27-0.19-0.39-0.31c-0.12-0.12-0.22-0.25-0.31-0.38
				v2.33h-0.69v-6.09h0.69v0.94c0.1-0.14,0.2-0.27,0.32-0.4c0.12-0.13,0.25-0.24,0.39-0.33c0.14-0.09,0.3-0.17,0.48-0.23
				c0.18-0.06,0.37-0.09,0.59-0.09c0.28,0,0.55,0.05,0.81,0.16c0.27,0.11,0.51,0.27,0.72,0.47s0.38,0.46,0.5,0.76
				s0.19,0.64,0.19,1.03C188.06,48.02,188,48.36,187.87,48.66z M187.22,46.9c-0.09-0.22-0.21-0.41-0.36-0.57
				c-0.15-0.16-0.32-0.28-0.52-0.36c-0.2-0.08-0.41-0.13-0.63-0.13c-0.22,0-0.42,0.04-0.62,0.13c-0.2,0.09-0.38,0.21-0.54,0.36
				c-0.16,0.16-0.29,0.34-0.38,0.56c-0.09,0.22-0.14,0.47-0.14,0.73s0.05,0.52,0.14,0.74c0.09,0.22,0.22,0.41,0.38,0.57
				c0.16,0.16,0.34,0.28,0.54,0.36c0.2,0.09,0.41,0.13,0.62,0.13c0.22,0,0.43-0.04,0.63-0.12s0.38-0.2,0.52-0.35
				c0.15-0.15,0.26-0.34,0.35-0.56c0.09-0.22,0.13-0.48,0.13-0.76C187.35,47.37,187.31,47.12,187.22,46.9z"/>
			<path class="st1" d="M189.94,48.56c0.1,0.19,0.22,0.36,0.37,0.5c0.15,0.13,0.32,0.24,0.5,0.31c0.19,0.07,0.38,0.1,0.58,0.1
				c0.32,0,0.6-0.06,0.83-0.18c0.23-0.12,0.44-0.28,0.63-0.48l0.43,0.39c-0.23,0.26-0.5,0.48-0.8,0.63
				c-0.3,0.16-0.67,0.24-1.12,0.24c-0.32,0-0.62-0.06-0.9-0.18c-0.28-0.12-0.53-0.28-0.74-0.5c-0.21-0.21-0.38-0.47-0.5-0.77
				c-0.12-0.3-0.19-0.63-0.19-0.99c0-0.34,0.06-0.65,0.17-0.95s0.27-0.55,0.46-0.77c0.2-0.22,0.43-0.39,0.71-0.52
				c0.27-0.13,0.57-0.19,0.9-0.19c0.34,0,0.65,0.06,0.92,0.19c0.27,0.13,0.5,0.3,0.68,0.53c0.19,0.22,0.33,0.48,0.42,0.78
				c0.1,0.3,0.14,0.62,0.14,0.96c0,0.03,0,0.06,0,0.1s0,0.08-0.01,0.12h-3.68C189.79,48.15,189.85,48.37,189.94,48.56z
				 M192.74,47.38c-0.02-0.21-0.06-0.41-0.13-0.6s-0.16-0.36-0.29-0.5s-0.27-0.26-0.45-0.35c-0.18-0.09-0.38-0.13-0.61-0.13
				c-0.2,0-0.39,0.04-0.56,0.12s-0.33,0.19-0.46,0.33s-0.24,0.31-0.32,0.5c-0.08,0.19-0.14,0.4-0.16,0.63H192.74z"/>
			<path class="st1" d="M195.36,49.96h-0.69v-4.65h0.69v1.21c0.08-0.19,0.19-0.37,0.32-0.53c0.13-0.16,0.27-0.3,0.43-0.42
				c0.16-0.12,0.34-0.21,0.53-0.27c0.19-0.06,0.4-0.09,0.62-0.08v0.75h-0.05c-0.25,0-0.49,0.04-0.71,0.13
				c-0.23,0.09-0.42,0.23-0.59,0.41c-0.17,0.18-0.3,0.4-0.4,0.67c-0.1,0.27-0.14,0.57-0.14,0.92V49.96z"/>
			<path class="st1" d="M198.33,44.29v-0.77h0.79v0.77H198.33z M198.38,49.96v-4.65h0.69v4.65H198.38z"/>
			<path class="st1" d="M201.28,48.56c0.1,0.19,0.22,0.36,0.37,0.5c0.15,0.13,0.32,0.24,0.5,0.31c0.19,0.07,0.38,0.1,0.58,0.1
				c0.32,0,0.6-0.06,0.83-0.18c0.23-0.12,0.44-0.28,0.63-0.48l0.43,0.39c-0.23,0.26-0.5,0.48-0.8,0.63
				c-0.3,0.16-0.67,0.24-1.12,0.24c-0.32,0-0.62-0.06-0.9-0.18c-0.28-0.12-0.53-0.28-0.74-0.5c-0.21-0.21-0.38-0.47-0.5-0.77
				c-0.12-0.3-0.19-0.63-0.19-0.99c0-0.34,0.06-0.65,0.17-0.95s0.27-0.55,0.46-0.77c0.2-0.22,0.43-0.39,0.71-0.52
				c0.27-0.13,0.57-0.19,0.9-0.19c0.34,0,0.65,0.06,0.92,0.19c0.27,0.13,0.5,0.3,0.68,0.53c0.19,0.22,0.33,0.48,0.42,0.78
				c0.1,0.3,0.14,0.62,0.14,0.96c0,0.03,0,0.06,0,0.1s0,0.08-0.01,0.12h-3.68C201.13,48.15,201.19,48.37,201.28,48.56z
				 M204.08,47.38c-0.02-0.21-0.06-0.41-0.13-0.6s-0.16-0.36-0.29-0.5s-0.27-0.26-0.45-0.35c-0.18-0.09-0.38-0.13-0.61-0.13
				c-0.2,0-0.39,0.04-0.56,0.12s-0.33,0.19-0.46,0.33s-0.24,0.31-0.32,0.5c-0.08,0.19-0.14,0.4-0.16,0.63H204.08z"/>
			<path class="st1" d="M206.7,49.96h-0.69v-4.65h0.69v0.81c0.16-0.25,0.36-0.47,0.61-0.64c0.25-0.18,0.58-0.27,0.98-0.27
				c0.28,0,0.53,0.04,0.75,0.13c0.22,0.09,0.4,0.22,0.56,0.38s0.27,0.36,0.35,0.59c0.08,0.23,0.12,0.48,0.12,0.76v2.89h-0.69v-2.72
				c0-0.43-0.11-0.77-0.33-1.03c-0.22-0.25-0.54-0.38-0.95-0.38c-0.2,0-0.38,0.03-0.55,0.1c-0.17,0.07-0.32,0.17-0.45,0.3
				c-0.13,0.13-0.22,0.28-0.29,0.46c-0.07,0.18-0.1,0.38-0.1,0.59V49.96z"/>
			<path class="st1" d="M214.75,49.82c-0.3,0.17-0.67,0.26-1.1,0.26c-0.34,0-0.66-0.06-0.95-0.19s-0.54-0.3-0.76-0.52
				s-0.38-0.48-0.5-0.77s-0.18-0.61-0.18-0.94s0.06-0.64,0.18-0.94s0.29-0.56,0.5-0.78c0.21-0.22,0.46-0.4,0.76-0.53
				c0.29-0.13,0.61-0.19,0.95-0.19c0.22,0,0.42,0.02,0.6,0.06s0.34,0.1,0.5,0.18c0.15,0.08,0.29,0.16,0.41,0.27s0.24,0.21,0.35,0.32
				l-0.46,0.49c-0.19-0.19-0.39-0.36-0.61-0.5c-0.22-0.14-0.49-0.21-0.81-0.21c-0.23,0-0.45,0.05-0.66,0.14
				c-0.2,0.09-0.38,0.22-0.53,0.39c-0.15,0.16-0.27,0.36-0.35,0.57c-0.08,0.22-0.13,0.45-0.13,0.7s0.04,0.49,0.13,0.71
				c0.09,0.22,0.21,0.41,0.36,0.58c0.15,0.16,0.33,0.29,0.54,0.39s0.43,0.14,0.68,0.14c0.3,0,0.57-0.07,0.8-0.2
				c0.23-0.13,0.44-0.3,0.63-0.49l0.44,0.41C215.31,49.43,215.05,49.65,214.75,49.82z"/>
			<path class="st1" d="M217.16,48.56c0.1,0.19,0.22,0.36,0.37,0.5c0.15,0.13,0.32,0.24,0.5,0.31c0.19,0.07,0.38,0.1,0.58,0.1
				c0.32,0,0.6-0.06,0.83-0.18c0.23-0.12,0.44-0.28,0.63-0.48l0.43,0.39c-0.23,0.26-0.5,0.48-0.8,0.63
				c-0.3,0.16-0.67,0.24-1.12,0.24c-0.32,0-0.62-0.06-0.9-0.18c-0.28-0.12-0.53-0.28-0.74-0.5c-0.21-0.21-0.38-0.47-0.5-0.77
				c-0.12-0.3-0.19-0.63-0.19-0.99c0-0.34,0.06-0.65,0.17-0.95c0.11-0.3,0.27-0.55,0.46-0.77s0.43-0.39,0.71-0.52
				c0.27-0.13,0.57-0.19,0.9-0.19c0.34,0,0.65,0.06,0.92,0.19c0.27,0.13,0.5,0.3,0.68,0.53c0.19,0.22,0.33,0.48,0.42,0.78
				c0.1,0.3,0.14,0.62,0.14,0.96c0,0.03,0,0.06,0,0.1s0,0.08-0.01,0.12h-3.68C217,48.15,217.06,48.37,217.16,48.56z M219.96,47.38
				c-0.02-0.21-0.06-0.41-0.13-0.6c-0.07-0.19-0.16-0.36-0.29-0.5c-0.12-0.14-0.27-0.26-0.45-0.35c-0.18-0.09-0.38-0.13-0.61-0.13
				c-0.2,0-0.39,0.04-0.56,0.12s-0.33,0.19-0.46,0.33c-0.13,0.14-0.24,0.31-0.32,0.5c-0.08,0.19-0.14,0.4-0.16,0.63H219.96z"/>
			<path class="st1" d="M221.85,46.26v-0.94h0.83v0.94H221.85z M221.85,49.96v-0.94h0.83v0.94H221.85z"/>
			<path class="st1" d="M131.26,58.96l-1.35-2.02h-1.09v2.02h-1.39v-6.3h2.88c0.75,0,1.33,0.18,1.75,0.55
				c0.42,0.37,0.62,0.88,0.62,1.53v0.02c0,0.51-0.12,0.93-0.37,1.25c-0.25,0.32-0.58,0.56-0.98,0.71l1.54,2.25H131.26z
				 M131.29,54.81c0-0.3-0.1-0.52-0.29-0.68c-0.19-0.15-0.46-0.22-0.8-0.22h-1.38v1.81h1.4c0.34,0,0.6-0.08,0.79-0.24
				c0.18-0.16,0.27-0.38,0.27-0.65V54.81z"/>
			<path class="st1" d="M138.3,56.86c0,0.05-0.01,0.1-0.01,0.17h-3.36c0.07,0.31,0.2,0.55,0.41,0.71c0.21,0.16,0.46,0.24,0.77,0.24
				c0.23,0,0.43-0.04,0.61-0.12c0.18-0.08,0.37-0.2,0.56-0.38l0.78,0.69c-0.23,0.28-0.5,0.5-0.83,0.66
				c-0.32,0.16-0.71,0.24-1.14,0.24c-0.36,0-0.69-0.06-1-0.18c-0.31-0.12-0.58-0.29-0.8-0.51c-0.22-0.22-0.4-0.48-0.53-0.79
				c-0.13-0.3-0.19-0.64-0.19-1.01v-0.02c0-0.34,0.06-0.67,0.18-0.97c0.12-0.31,0.28-0.57,0.49-0.8s0.46-0.41,0.75-0.54
				c0.29-0.13,0.61-0.2,0.97-0.2c0.4,0,0.75,0.07,1.04,0.22c0.29,0.14,0.54,0.34,0.73,0.58c0.2,0.24,0.34,0.52,0.43,0.84
				c0.09,0.31,0.14,0.64,0.14,0.99v0.02C138.3,56.75,138.3,56.81,138.3,56.86z M136.65,55.43c-0.17-0.19-0.41-0.28-0.69-0.28
				s-0.52,0.09-0.7,0.28s-0.29,0.44-0.35,0.75h2.06C136.93,55.87,136.82,55.62,136.65,55.43z"/>
			<path class="st1" d="M142.8,60.4v-2.13c-0.17,0.23-0.37,0.41-0.61,0.56c-0.24,0.15-0.54,0.22-0.9,0.22
				c-0.28,0-0.55-0.05-0.82-0.16c-0.26-0.11-0.5-0.27-0.7-0.48c-0.2-0.21-0.37-0.47-0.49-0.78s-0.18-0.66-0.18-1.07v-0.02
				c0-0.4,0.06-0.76,0.18-1.07s0.28-0.57,0.49-0.78s0.43-0.37,0.7-0.48c0.26-0.11,0.54-0.16,0.83-0.16c0.37,0,0.67,0.07,0.91,0.21
				c0.24,0.14,0.44,0.31,0.6,0.5v-0.62h1.37v6.26H142.8z M142.82,56.54c0-0.2-0.03-0.38-0.09-0.55c-0.06-0.17-0.15-0.31-0.25-0.43
				c-0.1-0.12-0.23-0.21-0.37-0.27c-0.14-0.06-0.29-0.1-0.45-0.1s-0.31,0.03-0.46,0.1c-0.14,0.06-0.26,0.15-0.37,0.27
				s-0.19,0.26-0.26,0.42c-0.06,0.16-0.09,0.35-0.09,0.55v0.02c0,0.2,0.03,0.38,0.09,0.55c0.06,0.17,0.15,0.31,0.26,0.43
				c0.11,0.12,0.23,0.21,0.37,0.27c0.14,0.06,0.29,0.1,0.46,0.1s0.31-0.03,0.45-0.1c0.14-0.06,0.26-0.15,0.37-0.27
				c0.11-0.12,0.19-0.26,0.25-0.43c0.06-0.17,0.09-0.35,0.09-0.55V56.54z"/>
			<path class="st1" d="M148.41,58.96v-0.69c-0.08,0.1-0.16,0.2-0.26,0.29s-0.2,0.18-0.31,0.25c-0.11,0.07-0.24,0.13-0.38,0.17
				c-0.14,0.04-0.29,0.06-0.47,0.06c-0.52,0-0.93-0.16-1.21-0.48c-0.29-0.32-0.43-0.76-0.43-1.31v-3.12h1.37v2.68
				c0,0.32,0.07,0.57,0.22,0.73c0.14,0.16,0.35,0.25,0.61,0.25c0.26,0,0.47-0.08,0.63-0.25c0.15-0.16,0.23-0.41,0.23-0.73v-2.68
				h1.37v4.82H148.41z"/>
			<path class="st1" d="M151.03,53.61v-1.21h1.44v1.21H151.03z M151.06,58.96v-4.82h1.37v4.82H151.06z"/>
			<path class="st1" d="M156.55,55.48c-0.46,0-0.81,0.14-1.08,0.41c-0.26,0.28-0.39,0.71-0.39,1.29v1.78h-1.37v-4.82h1.37v0.97
				c0.14-0.33,0.33-0.59,0.57-0.79c0.24-0.2,0.56-0.29,0.97-0.27v1.43H156.55z"/>
			<path class="st1" d="M161.98,56.86c0,0.05-0.01,0.1-0.01,0.17h-3.36c0.07,0.31,0.2,0.55,0.41,0.71c0.21,0.16,0.46,0.24,0.77,0.24
				c0.23,0,0.43-0.04,0.61-0.12c0.18-0.08,0.37-0.2,0.56-0.38l0.78,0.69c-0.23,0.28-0.5,0.5-0.83,0.66
				c-0.32,0.16-0.71,0.24-1.14,0.24c-0.36,0-0.69-0.06-1-0.18c-0.31-0.12-0.58-0.29-0.8-0.51c-0.22-0.22-0.4-0.48-0.53-0.79
				c-0.13-0.3-0.19-0.64-0.19-1.01v-0.02c0-0.34,0.06-0.67,0.18-0.97c0.12-0.31,0.28-0.57,0.49-0.8s0.46-0.41,0.75-0.54
				c0.29-0.13,0.61-0.2,0.97-0.2c0.4,0,0.75,0.07,1.04,0.22c0.29,0.14,0.54,0.34,0.73,0.58c0.2,0.24,0.34,0.52,0.43,0.84
				c0.09,0.31,0.14,0.64,0.14,0.99v0.02C161.98,56.75,161.98,56.81,161.98,56.86z M160.33,55.43c-0.17-0.19-0.41-0.28-0.69-0.28
				s-0.52,0.09-0.7,0.28s-0.29,0.44-0.35,0.75h2.06C160.61,55.87,160.5,55.62,160.33,55.43z"/>
			<path class="st1" d="M166.4,58.19c-0.09,0.2-0.22,0.36-0.39,0.48s-0.36,0.22-0.59,0.28c-0.22,0.06-0.47,0.09-0.72,0.09
				c-0.34,0-0.69-0.06-1.05-0.18c-0.36-0.12-0.7-0.3-1.02-0.55l0.58-0.9c0.26,0.19,0.53,0.34,0.79,0.43
				c0.26,0.1,0.51,0.14,0.73,0.14c0.2,0,0.34-0.03,0.44-0.1c0.09-0.07,0.14-0.15,0.14-0.26v-0.02c0-0.07-0.03-0.14-0.08-0.19
				c-0.05-0.05-0.13-0.1-0.22-0.14c-0.09-0.04-0.2-0.08-0.32-0.11c-0.12-0.04-0.25-0.07-0.38-0.12c-0.17-0.05-0.34-0.11-0.51-0.18
				c-0.17-0.07-0.33-0.16-0.46-0.27c-0.14-0.11-0.25-0.25-0.34-0.41s-0.13-0.36-0.13-0.59V55.6c0-0.25,0.05-0.46,0.14-0.65
				c0.09-0.19,0.22-0.35,0.38-0.48c0.16-0.13,0.34-0.23,0.56-0.3s0.44-0.1,0.69-0.1c0.31,0,0.62,0.05,0.93,0.15
				c0.31,0.1,0.6,0.24,0.87,0.41l-0.52,0.94c-0.24-0.14-0.47-0.25-0.7-0.33c-0.23-0.08-0.43-0.12-0.6-0.12
				c-0.17,0-0.29,0.03-0.38,0.09s-0.13,0.14-0.13,0.24v0.02c0,0.07,0.03,0.12,0.08,0.18c0.05,0.05,0.13,0.1,0.22,0.14
				c0.09,0.04,0.19,0.09,0.31,0.13c0.12,0.04,0.24,0.08,0.37,0.13c0.17,0.05,0.34,0.12,0.51,0.19c0.17,0.08,0.33,0.17,0.47,0.27
				c0.14,0.11,0.25,0.24,0.34,0.4c0.09,0.16,0.13,0.34,0.13,0.57v0.02C166.54,57.77,166.49,58,166.4,58.19z"/>
			<path class="st1" d="M170.24,53.61v-1.21h1.44v1.21H170.24z M170.28,58.96v-4.82h1.37v4.82H170.28z"/>
			<path class="st1" d="M178.93,58.96v-2.68c0-0.32-0.07-0.57-0.21-0.73c-0.14-0.16-0.34-0.25-0.59-0.25
				c-0.26,0-0.46,0.08-0.61,0.25c-0.15,0.16-0.22,0.41-0.22,0.73v2.68h-1.37v-2.68c0-0.32-0.07-0.57-0.21-0.73
				c-0.14-0.16-0.34-0.25-0.59-0.25c-0.26,0-0.46,0.08-0.61,0.25c-0.15,0.16-0.22,0.41-0.22,0.73v2.68h-1.37v-4.82h1.37v0.69
				c0.08-0.1,0.16-0.2,0.26-0.29c0.09-0.09,0.2-0.18,0.31-0.25c0.11-0.07,0.24-0.13,0.38-0.17c0.14-0.04,0.3-0.06,0.47-0.06
				c0.32,0,0.59,0.07,0.82,0.2c0.23,0.13,0.41,0.32,0.54,0.57c0.21-0.25,0.44-0.45,0.7-0.58s0.55-0.19,0.88-0.19
				c0.51,0,0.91,0.15,1.2,0.45c0.29,0.3,0.43,0.74,0.43,1.32v3.14H178.93z"/>
			<path class="st1" d="M186.37,57.63c-0.12,0.31-0.29,0.57-0.49,0.78c-0.2,0.21-0.43,0.37-0.7,0.48c-0.26,0.11-0.54,0.16-0.83,0.16
				c-0.37,0-0.67-0.07-0.9-0.21c-0.24-0.14-0.44-0.31-0.6-0.5v2.06h-1.37v-6.26h1.37v0.69c0.17-0.23,0.37-0.41,0.61-0.56
				c0.24-0.15,0.54-0.22,0.9-0.22c0.28,0,0.55,0.05,0.82,0.16c0.26,0.11,0.5,0.27,0.7,0.48s0.37,0.47,0.49,0.78
				c0.12,0.31,0.18,0.66,0.18,1.07v0.02C186.55,56.96,186.49,57.32,186.37,57.63z M185.18,56.54c0-0.2-0.03-0.38-0.09-0.55
				c-0.06-0.17-0.15-0.31-0.26-0.43c-0.11-0.12-0.23-0.21-0.37-0.27c-0.14-0.06-0.29-0.1-0.46-0.1c-0.16,0-0.31,0.03-0.45,0.1
				c-0.14,0.06-0.26,0.15-0.37,0.27c-0.1,0.12-0.19,0.26-0.25,0.43c-0.06,0.17-0.09,0.35-0.09,0.55v0.02c0,0.2,0.03,0.38,0.09,0.55
				c0.06,0.17,0.15,0.31,0.25,0.43c0.11,0.12,0.23,0.21,0.37,0.27s0.29,0.1,0.45,0.1c0.16,0,0.31-0.03,0.46-0.1
				c0.14-0.06,0.27-0.15,0.37-0.27c0.11-0.12,0.19-0.26,0.26-0.42c0.06-0.16,0.09-0.35,0.09-0.55V56.54z"/>
			<path class="st1" d="M190.39,55.48c-0.46,0-0.81,0.14-1.08,0.41s-0.39,0.71-0.39,1.29v1.78h-1.37v-4.82h1.37v0.97
				c0.14-0.33,0.33-0.59,0.57-0.79c0.24-0.2,0.56-0.29,0.97-0.27v1.43H190.39z"/>
			<path class="st1" d="M196.11,57.54c-0.13,0.3-0.32,0.57-0.55,0.8c-0.23,0.23-0.51,0.41-0.83,0.54c-0.32,0.13-0.67,0.2-1.04,0.2
				c-0.37,0-0.72-0.06-1.04-0.19c-0.32-0.13-0.59-0.31-0.82-0.53c-0.23-0.22-0.41-0.49-0.54-0.79c-0.13-0.3-0.2-0.63-0.2-0.98v-0.02
				c0-0.35,0.07-0.67,0.2-0.98c0.13-0.3,0.32-0.57,0.55-0.8c0.23-0.23,0.51-0.41,0.83-0.54c0.32-0.13,0.67-0.2,1.04-0.2
				c0.37,0,0.72,0.06,1.04,0.19c0.32,0.13,0.59,0.31,0.82,0.53c0.23,0.23,0.41,0.49,0.54,0.79c0.13,0.3,0.2,0.63,0.2,0.98v0.02
				C196.31,56.91,196.24,57.23,196.11,57.54z M194.96,56.56c0-0.18-0.03-0.35-0.09-0.51c-0.06-0.16-0.15-0.3-0.26-0.42
				c-0.11-0.12-0.25-0.22-0.41-0.29c-0.16-0.07-0.33-0.11-0.51-0.11c-0.2,0-0.37,0.03-0.53,0.1c-0.15,0.07-0.28,0.16-0.39,0.28
				c-0.11,0.12-0.19,0.26-0.25,0.42c-0.06,0.16-0.08,0.33-0.08,0.51v0.02c0,0.18,0.03,0.35,0.09,0.51c0.06,0.16,0.15,0.3,0.26,0.42
				c0.11,0.12,0.25,0.22,0.4,0.29c0.15,0.07,0.33,0.11,0.52,0.11c0.2,0,0.37-0.03,0.53-0.1c0.15-0.07,0.28-0.16,0.39-0.28
				c0.11-0.12,0.19-0.26,0.25-0.42c0.06-0.16,0.08-0.33,0.08-0.51V56.56z"/>
			<path class="st1" d="M200,59h-1.24l-1.9-4.86h1.45l1.08,3.23l1.09-3.23h1.42L200,59z"/>
			<path class="st1" d="M207.19,56.86c0,0.05-0.01,0.1-0.01,0.17h-3.36c0.07,0.31,0.2,0.55,0.41,0.71c0.21,0.16,0.46,0.24,0.77,0.24
				c0.23,0,0.43-0.04,0.61-0.12s0.37-0.2,0.56-0.38l0.78,0.69c-0.23,0.28-0.5,0.5-0.83,0.66c-0.32,0.16-0.71,0.24-1.14,0.24
				c-0.36,0-0.69-0.06-1-0.18c-0.31-0.12-0.58-0.29-0.8-0.51s-0.4-0.48-0.53-0.79c-0.13-0.3-0.19-0.64-0.19-1.01v-0.02
				c0-0.34,0.06-0.67,0.18-0.97s0.28-0.57,0.49-0.8s0.46-0.41,0.75-0.54c0.29-0.13,0.61-0.2,0.97-0.2c0.4,0,0.75,0.07,1.04,0.22
				c0.29,0.14,0.54,0.34,0.73,0.58c0.19,0.24,0.34,0.52,0.43,0.84c0.09,0.31,0.14,0.64,0.14,0.99v0.02
				C207.2,56.75,207.19,56.81,207.19,56.86z M205.54,55.43c-0.17-0.19-0.41-0.28-0.69-0.28c-0.29,0-0.52,0.09-0.7,0.28
				s-0.29,0.44-0.35,0.75h2.06C205.82,55.87,205.71,55.62,205.54,55.43z"/>
			<path class="st1" d="M214.21,58.96v-2.68c0-0.32-0.07-0.57-0.21-0.73c-0.14-0.16-0.34-0.25-0.59-0.25s-0.46,0.08-0.61,0.25
				c-0.15,0.16-0.22,0.41-0.22,0.73v2.68h-1.37v-2.68c0-0.32-0.07-0.57-0.21-0.73c-0.14-0.16-0.34-0.25-0.59-0.25
				s-0.46,0.08-0.61,0.25s-0.22,0.41-0.22,0.73v2.68h-1.37v-4.82h1.37v0.69c0.08-0.1,0.16-0.2,0.26-0.29
				c0.09-0.09,0.2-0.18,0.31-0.25s0.24-0.13,0.38-0.17c0.14-0.04,0.3-0.06,0.47-0.06c0.32,0,0.59,0.07,0.82,0.2
				c0.23,0.13,0.41,0.32,0.54,0.57c0.21-0.25,0.44-0.45,0.7-0.58s0.55-0.19,0.88-0.19c0.51,0,0.91,0.15,1.2,0.45
				c0.29,0.3,0.43,0.74,0.43,1.32v3.14H214.21z"/>
			<path class="st1" d="M221.26,56.86c0,0.05-0.01,0.1-0.01,0.17h-3.36c0.07,0.31,0.2,0.55,0.41,0.71c0.21,0.16,0.46,0.24,0.77,0.24
				c0.23,0,0.43-0.04,0.61-0.12c0.18-0.08,0.37-0.2,0.56-0.38l0.78,0.69c-0.23,0.28-0.5,0.5-0.83,0.66
				c-0.32,0.16-0.71,0.24-1.14,0.24c-0.36,0-0.69-0.06-1-0.18c-0.31-0.12-0.58-0.29-0.8-0.51c-0.22-0.22-0.4-0.48-0.53-0.79
				c-0.13-0.3-0.19-0.64-0.19-1.01v-0.02c0-0.34,0.06-0.67,0.18-0.97c0.12-0.31,0.28-0.57,0.49-0.8s0.46-0.41,0.75-0.54
				c0.29-0.13,0.61-0.2,0.97-0.2c0.4,0,0.75,0.07,1.04,0.22c0.29,0.14,0.54,0.34,0.73,0.58c0.2,0.24,0.34,0.52,0.43,0.84
				c0.09,0.31,0.14,0.64,0.14,0.99v0.02C221.26,56.75,221.26,56.81,221.26,56.86z M219.61,55.43c-0.17-0.19-0.41-0.28-0.69-0.28
				s-0.52,0.09-0.7,0.28s-0.29,0.44-0.35,0.75h2.06C219.89,55.87,219.78,55.62,219.61,55.43z"/>
			<path class="st1" d="M225.33,58.96v-2.68c0-0.32-0.07-0.57-0.22-0.73s-0.35-0.25-0.61-0.25c-0.26,0-0.47,0.08-0.62,0.25
				c-0.15,0.16-0.23,0.41-0.23,0.73v2.68h-1.37v-4.82h1.37v0.69c0.08-0.1,0.16-0.2,0.26-0.29c0.09-0.09,0.2-0.18,0.31-0.25
				c0.11-0.07,0.24-0.13,0.38-0.17c0.14-0.04,0.29-0.06,0.47-0.06c0.52,0,0.92,0.16,1.21,0.48s0.43,0.76,0.43,1.31v3.12H225.33z"/>
			<path class="st1" d="M230.12,58.97c-0.17,0.05-0.38,0.08-0.6,0.08c-0.21,0-0.4-0.02-0.57-0.07c-0.17-0.05-0.32-0.12-0.44-0.24
				c-0.12-0.11-0.22-0.26-0.29-0.45c-0.07-0.18-0.1-0.42-0.1-0.7v-2.29h-0.58v-1.17h0.58v-1.23h1.37v1.23h1.13v1.17h-1.13v2.06
				c0,0.31,0.15,0.47,0.44,0.47c0.24,0,0.46-0.06,0.67-0.17v1.1C230.45,58.85,230.29,58.92,230.12,58.97z"/>
		</g>
	</g>
	<g>
		<rect x="91.49" y="65.21" class="st0" width="174.55" height="22.68"/>
		<g>
			<path class="st1" d="M105.62,74.42c0.06,0.16,0.17,0.3,0.33,0.43c0.16,0.13,0.38,0.25,0.65,0.35s0.64,0.21,1.07,0.3
				c0.88,0.21,1.53,0.49,1.95,0.85c0.42,0.36,0.63,0.86,0.63,1.5c0,0.36-0.07,0.68-0.2,0.97c-0.13,0.29-0.32,0.54-0.55,0.74
				s-0.52,0.36-0.85,0.47s-0.69,0.17-1.08,0.17c-0.63,0-1.21-0.11-1.73-0.32s-1.02-0.54-1.49-0.99l0.55-0.68
				c0.41,0.39,0.83,0.69,1.25,0.88c0.42,0.19,0.91,0.29,1.46,0.29c0.53,0,0.96-0.13,1.28-0.39c0.32-0.26,0.48-0.6,0.48-1.03
				c0-0.2-0.03-0.37-0.09-0.53c-0.06-0.15-0.17-0.29-0.32-0.42c-0.15-0.13-0.36-0.24-0.63-0.34s-0.61-0.2-1.02-0.3
				c-0.45-0.1-0.85-0.22-1.18-0.35c-0.33-0.13-0.61-0.3-0.83-0.48c-0.22-0.19-0.38-0.41-0.49-0.66c-0.11-0.25-0.16-0.55-0.16-0.9
				c0-0.33,0.06-0.63,0.19-0.91c0.13-0.28,0.31-0.51,0.54-0.72c0.23-0.2,0.51-0.36,0.82-0.47c0.32-0.11,0.66-0.17,1.04-0.17
				c0.58,0,1.08,0.08,1.52,0.25s0.85,0.42,1.26,0.75l-0.52,0.72c-0.37-0.31-0.74-0.54-1.11-0.68s-0.76-0.21-1.17-0.21
				c-0.26,0-0.49,0.04-0.69,0.11c-0.21,0.07-0.38,0.17-0.53,0.28c-0.15,0.12-0.26,0.26-0.34,0.43c-0.08,0.17-0.12,0.34-0.12,0.53
				C105.53,74.08,105.56,74.26,105.62,74.42z"/>
			<path class="st1" d="M113.03,78.36c0,0.38,0.09,0.64,0.27,0.79c0.18,0.15,0.42,0.22,0.71,0.22c0.15,0,0.29-0.02,0.42-0.05
				c0.13-0.03,0.27-0.09,0.42-0.17v0.78c-0.15,0.09-0.31,0.15-0.48,0.19c-0.17,0.04-0.36,0.06-0.57,0.06
				c-0.23,0-0.45-0.03-0.65-0.09c-0.2-0.06-0.38-0.16-0.52-0.3s-0.26-0.32-0.34-0.54s-0.12-0.48-0.12-0.79v-3.68h-0.81v-0.8h0.81
				v-1.84h0.87v1.84h1.85v0.8h-1.85V78.36z"/>
			<path class="st1" d="M120.56,73.99h0.86v6.1h-0.86v-1.06c-0.2,0.33-0.45,0.61-0.77,0.84c-0.32,0.23-0.73,0.35-1.23,0.35
				c-0.35,0-0.67-0.06-0.94-0.18c-0.27-0.12-0.51-0.28-0.7-0.5s-0.34-0.47-0.44-0.77c-0.1-0.3-0.15-0.63-0.15-0.99v-3.79h0.87v3.56
				c0,0.57,0.14,1.01,0.42,1.34c0.28,0.33,0.68,0.5,1.2,0.5c0.25,0,0.48-0.04,0.69-0.14c0.21-0.09,0.4-0.22,0.55-0.39
				c0.15-0.17,0.28-0.37,0.37-0.61c0.09-0.24,0.14-0.5,0.14-0.78V73.99z"/>
			<path class="st1" d="M128.04,80.09v-1.23c-0.12,0.18-0.25,0.35-0.4,0.52s-0.31,0.31-0.49,0.44c-0.18,0.13-0.38,0.22-0.6,0.29
				c-0.22,0.07-0.47,0.11-0.74,0.11c-0.35,0-0.7-0.07-1.03-0.21s-0.63-0.35-0.89-0.62c-0.26-0.27-0.47-0.6-0.63-1
				c-0.16-0.39-0.24-0.84-0.24-1.35c0-0.5,0.08-0.95,0.24-1.34c0.16-0.39,0.37-0.73,0.63-1c0.26-0.27,0.56-0.48,0.89-0.63
				c0.33-0.15,0.67-0.22,1.03-0.22c0.27,0,0.52,0.04,0.75,0.11c0.23,0.07,0.43,0.17,0.61,0.28c0.18,0.12,0.34,0.25,0.49,0.41
				c0.15,0.16,0.28,0.32,0.39,0.5v-3.68h0.87v8.61H128.04z M127.9,76.07c-0.12-0.29-0.27-0.54-0.47-0.74s-0.42-0.36-0.68-0.48
				s-0.51-0.17-0.78-0.17c-0.29,0-0.55,0.05-0.8,0.16s-0.46,0.26-0.65,0.46s-0.33,0.45-0.44,0.74c-0.11,0.29-0.16,0.62-0.16,0.99
				c0,0.36,0.05,0.69,0.16,0.97c0.11,0.29,0.26,0.54,0.45,0.75c0.19,0.21,0.41,0.37,0.65,0.48c0.25,0.11,0.51,0.16,0.79,0.16
				c0.27,0,0.53-0.06,0.78-0.17c0.25-0.11,0.48-0.27,0.68-0.48c0.2-0.2,0.36-0.45,0.47-0.75c0.12-0.29,0.17-0.62,0.17-0.97
				C128.08,76.68,128.02,76.36,127.9,76.07z"/>
			<path class="st1" d="M131.61,78.26c0.12,0.26,0.27,0.47,0.46,0.65c0.19,0.18,0.4,0.31,0.63,0.4c0.23,0.09,0.48,0.14,0.73,0.14
				c0.41,0,0.75-0.08,1.04-0.24c0.29-0.16,0.55-0.37,0.79-0.63l0.54,0.51c-0.29,0.35-0.63,0.62-1,0.83
				c-0.38,0.21-0.84,0.31-1.4,0.31c-0.4,0-0.77-0.08-1.13-0.23s-0.66-0.37-0.93-0.65s-0.48-0.62-0.63-1.01
				c-0.16-0.39-0.23-0.83-0.23-1.3c0-0.44,0.07-0.86,0.21-1.24c0.14-0.39,0.33-0.73,0.58-1.02c0.25-0.29,0.54-0.51,0.89-0.68
				c0.34-0.17,0.72-0.25,1.12-0.25c0.43,0,0.81,0.08,1.15,0.25c0.34,0.17,0.62,0.4,0.86,0.69c0.23,0.29,0.41,0.63,0.53,1.03
				s0.18,0.81,0.18,1.26c0,0.04,0,0.08,0,0.13c0,0.05,0,0.1-0.01,0.15h-4.61C131.41,77.71,131.49,78,131.61,78.26z M135.12,76.7
				c-0.02-0.28-0.08-0.54-0.16-0.79c-0.09-0.25-0.21-0.47-0.36-0.66c-0.15-0.19-0.34-0.34-0.56-0.46c-0.22-0.11-0.48-0.17-0.77-0.17
				c-0.25,0-0.49,0.05-0.71,0.16c-0.22,0.11-0.41,0.25-0.57,0.44c-0.16,0.19-0.3,0.4-0.4,0.66c-0.11,0.25-0.17,0.53-0.2,0.83H135.12
				z"/>
			<path class="st1" d="M138.4,80.09h-0.87v-6.1h0.87v1.06c0.2-0.33,0.45-0.61,0.77-0.84c0.32-0.23,0.73-0.35,1.23-0.35
				c0.35,0,0.67,0.06,0.94,0.18s0.51,0.29,0.7,0.5c0.19,0.22,0.34,0.47,0.44,0.77c0.1,0.3,0.15,0.63,0.15,0.99v3.79h-0.87v-3.56
				c0-0.57-0.14-1.02-0.42-1.35s-0.68-0.5-1.2-0.5c-0.25,0-0.48,0.04-0.69,0.14c-0.21,0.09-0.4,0.22-0.56,0.39
				c-0.16,0.17-0.28,0.37-0.37,0.61c-0.09,0.24-0.13,0.5-0.13,0.78V80.09z"/>
			<path class="st1" d="M145.65,78.36c0,0.38,0.09,0.64,0.27,0.79c0.18,0.15,0.42,0.22,0.71,0.22c0.15,0,0.29-0.02,0.42-0.05
				c0.13-0.03,0.27-0.09,0.42-0.17v0.78c-0.15,0.09-0.31,0.15-0.48,0.19c-0.17,0.04-0.36,0.06-0.57,0.06
				c-0.23,0-0.45-0.03-0.65-0.09c-0.2-0.06-0.38-0.16-0.52-0.3s-0.26-0.32-0.34-0.54s-0.12-0.48-0.12-0.79v-3.68h-0.81v-0.8h0.81
				v-1.84h0.87v1.84h1.85v0.8h-1.85V78.36z"/>
			<path class="st1" d="M157.9,78.27c-0.15,0.39-0.37,0.73-0.64,1.02s-0.59,0.52-0.97,0.69s-0.78,0.25-1.22,0.25
				c-0.44,0-0.84-0.08-1.21-0.25s-0.69-0.4-0.96-0.68c-0.27-0.29-0.48-0.62-0.63-1.01s-0.23-0.79-0.23-1.23s0.08-0.84,0.23-1.23
				c0.15-0.39,0.36-0.73,0.63-1.02c0.27-0.29,0.59-0.52,0.96-0.69c0.37-0.17,0.78-0.25,1.22-0.25c0.44,0,0.84,0.08,1.21,0.25
				c0.37,0.17,0.69,0.4,0.96,0.68c0.27,0.29,0.48,0.62,0.63,1.01c0.15,0.38,0.23,0.79,0.23,1.23S158.06,77.88,157.9,78.27z
				 M157.08,76.12c-0.11-0.29-0.26-0.54-0.46-0.76s-0.42-0.39-0.69-0.51c-0.26-0.12-0.55-0.19-0.86-0.19
				c-0.32,0-0.61,0.06-0.87,0.18c-0.26,0.12-0.49,0.29-0.67,0.51c-0.18,0.22-0.33,0.47-0.43,0.75c-0.11,0.29-0.16,0.59-0.16,0.92
				c0,0.33,0.05,0.64,0.16,0.93c0.11,0.29,0.26,0.54,0.45,0.75c0.19,0.21,0.42,0.38,0.68,0.51c0.26,0.13,0.55,0.19,0.86,0.19
				c0.32,0,0.61-0.06,0.87-0.18c0.26-0.12,0.49-0.29,0.68-0.5s0.33-0.46,0.44-0.75c0.1-0.29,0.16-0.59,0.16-0.92
				C157.24,76.72,157.19,76.41,157.08,76.12z"/>
			<path class="st1" d="M163.84,73.99h0.86v6.1h-0.86v-1.06c-0.2,0.33-0.45,0.61-0.77,0.84c-0.32,0.23-0.73,0.35-1.23,0.35
				c-0.35,0-0.67-0.06-0.94-0.18c-0.27-0.12-0.51-0.28-0.7-0.5s-0.34-0.47-0.44-0.77c-0.1-0.3-0.15-0.63-0.15-0.99v-3.79h0.87v3.56
				c0,0.57,0.14,1.01,0.42,1.34c0.28,0.33,0.68,0.5,1.2,0.5c0.25,0,0.48-0.04,0.69-0.14c0.21-0.09,0.4-0.22,0.55-0.39
				c0.15-0.17,0.28-0.37,0.37-0.61c0.09-0.24,0.14-0.5,0.14-0.78V73.99z"/>
			<path class="st1" d="M167.82,78.36c0,0.38,0.09,0.64,0.27,0.79c0.18,0.15,0.42,0.22,0.71,0.22c0.15,0,0.29-0.02,0.42-0.05
				c0.13-0.03,0.27-0.09,0.42-0.17v0.78c-0.15,0.09-0.31,0.15-0.48,0.19c-0.17,0.04-0.36,0.06-0.57,0.06
				c-0.23,0-0.45-0.03-0.65-0.09c-0.2-0.06-0.38-0.16-0.52-0.3s-0.26-0.32-0.34-0.54s-0.12-0.48-0.12-0.79v-3.68h-0.81v-0.8h0.81
				v-1.84h0.87v1.84h1.85v0.8h-1.85V78.36z"/>
			<path class="st1" d="M175.05,79.9c-0.37,0.22-0.83,0.33-1.38,0.33c-0.43,0-0.83-0.08-1.19-0.25c-0.37-0.17-0.68-0.4-0.95-0.68
				c-0.27-0.29-0.48-0.62-0.63-1.01s-0.23-0.79-0.23-1.23s0.08-0.84,0.23-1.23c0.15-0.39,0.36-0.73,0.63-1.02
				c0.27-0.29,0.58-0.52,0.95-0.69c0.36-0.17,0.76-0.25,1.19-0.25c0.28,0,0.53,0.03,0.76,0.08c0.23,0.06,0.43,0.13,0.62,0.23
				s0.36,0.21,0.52,0.35c0.16,0.13,0.3,0.28,0.44,0.42l-0.58,0.64c-0.23-0.25-0.49-0.47-0.76-0.65c-0.27-0.18-0.61-0.27-1.01-0.27
				c-0.29,0-0.57,0.06-0.82,0.18c-0.26,0.12-0.48,0.29-0.67,0.51s-0.33,0.47-0.44,0.75c-0.11,0.29-0.16,0.59-0.16,0.92
				c0,0.33,0.05,0.64,0.16,0.93c0.11,0.29,0.26,0.54,0.45,0.76c0.19,0.22,0.42,0.38,0.68,0.51c0.26,0.12,0.54,0.18,0.85,0.18
				c0.38,0,0.71-0.09,1-0.26c0.29-0.17,0.55-0.39,0.78-0.65l0.55,0.54C175.75,79.39,175.42,79.67,175.05,79.9z"/>
			<path class="st1" d="M182.79,78.27c-0.15,0.39-0.37,0.73-0.64,1.02s-0.59,0.52-0.97,0.69s-0.78,0.25-1.22,0.25
				c-0.44,0-0.84-0.08-1.21-0.25s-0.69-0.4-0.96-0.68c-0.27-0.29-0.48-0.62-0.63-1.01s-0.23-0.79-0.23-1.23s0.08-0.84,0.23-1.23
				c0.15-0.39,0.36-0.73,0.63-1.02c0.27-0.29,0.59-0.52,0.96-0.69c0.37-0.17,0.78-0.25,1.22-0.25c0.44,0,0.84,0.08,1.21,0.25
				c0.37,0.17,0.69,0.4,0.96,0.68c0.27,0.29,0.48,0.62,0.63,1.01c0.15,0.38,0.23,0.79,0.23,1.23S182.95,77.88,182.79,78.27z
				 M181.97,76.12c-0.11-0.29-0.26-0.54-0.46-0.76s-0.42-0.39-0.69-0.51c-0.26-0.12-0.55-0.19-0.86-0.19
				c-0.32,0-0.61,0.06-0.87,0.18c-0.26,0.12-0.49,0.29-0.67,0.51c-0.18,0.22-0.33,0.47-0.43,0.75c-0.11,0.29-0.16,0.59-0.16,0.92
				c0,0.33,0.05,0.64,0.16,0.93c0.11,0.29,0.26,0.54,0.45,0.75c0.19,0.21,0.42,0.38,0.68,0.51c0.26,0.13,0.55,0.19,0.86,0.19
				c0.32,0,0.61-0.06,0.87-0.18c0.26-0.12,0.49-0.29,0.68-0.5s0.33-0.46,0.44-0.75c0.1-0.29,0.16-0.59,0.16-0.92
				C182.13,76.72,182.08,76.41,181.97,76.12z"/>
			<path class="st1" d="M189.57,74.6c0.13-0.15,0.28-0.28,0.45-0.39c0.17-0.11,0.35-0.2,0.56-0.26c0.21-0.06,0.44-0.09,0.69-0.09
				c0.68,0,1.21,0.22,1.59,0.65c0.38,0.44,0.58,1.04,0.58,1.8v3.78h-0.87v-3.56c0-0.59-0.13-1.04-0.4-1.36
				c-0.27-0.32-0.64-0.48-1.11-0.48c-0.22,0-0.42,0.04-0.62,0.12c-0.2,0.08-0.37,0.2-0.51,0.37s-0.26,0.36-0.35,0.6
				c-0.09,0.24-0.13,0.5-0.13,0.8v3.52h-0.86V76.5c0-0.57-0.13-1.02-0.4-1.34c-0.27-0.32-0.63-0.48-1.1-0.48
				c-0.23,0-0.45,0.05-0.64,0.14c-0.2,0.09-0.37,0.23-0.51,0.4c-0.15,0.17-0.26,0.38-0.34,0.61c-0.08,0.23-0.12,0.49-0.12,0.77v3.48
				h-0.87v-6.1h0.87v1.03c0.1-0.15,0.21-0.29,0.32-0.44c0.12-0.14,0.25-0.27,0.4-0.37c0.15-0.11,0.32-0.19,0.51-0.25
				c0.19-0.06,0.41-0.09,0.65-0.09c0.47,0,0.86,0.12,1.17,0.35c0.31,0.23,0.54,0.52,0.7,0.87C189.32,74.91,189.44,74.75,189.57,74.6
				z"/>
			<path class="st1" d="M196.08,78.26c0.12,0.26,0.27,0.47,0.46,0.65c0.19,0.18,0.4,0.31,0.63,0.4c0.23,0.09,0.48,0.14,0.73,0.14
				c0.41,0,0.75-0.08,1.04-0.24c0.29-0.16,0.55-0.37,0.79-0.63l0.54,0.51c-0.29,0.35-0.63,0.62-1,0.83
				c-0.38,0.21-0.84,0.31-1.4,0.31c-0.4,0-0.77-0.08-1.13-0.23s-0.66-0.37-0.93-0.65s-0.48-0.62-0.63-1.01
				c-0.16-0.39-0.23-0.83-0.23-1.3c0-0.44,0.07-0.86,0.21-1.24c0.14-0.39,0.33-0.73,0.58-1.02c0.25-0.29,0.54-0.51,0.89-0.68
				c0.34-0.17,0.72-0.25,1.12-0.25c0.43,0,0.81,0.08,1.15,0.25c0.34,0.17,0.62,0.4,0.86,0.69c0.23,0.29,0.41,0.63,0.53,1.03
				s0.18,0.81,0.18,1.26c0,0.04,0,0.08,0,0.13c0,0.05,0,0.1-0.01,0.15h-4.61C195.88,77.71,195.96,78,196.08,78.26z M199.58,76.7
				c-0.02-0.28-0.08-0.54-0.16-0.79c-0.09-0.25-0.21-0.47-0.36-0.66c-0.15-0.19-0.34-0.34-0.56-0.46c-0.22-0.11-0.48-0.17-0.77-0.17
				c-0.25,0-0.49,0.05-0.71,0.16c-0.22,0.11-0.41,0.25-0.57,0.44c-0.16,0.19-0.3,0.4-0.4,0.66c-0.11,0.25-0.17,0.53-0.2,0.83H199.58
				z"/>
			<path class="st1" d="M205.84,79.15c-0.11,0.22-0.26,0.42-0.44,0.57s-0.4,0.28-0.65,0.36c-0.25,0.08-0.52,0.12-0.82,0.12
				c-0.42,0-0.85-0.08-1.27-0.24s-0.81-0.38-1.14-0.66l0.44-0.65c0.32,0.25,0.64,0.44,0.99,0.58c0.34,0.13,0.69,0.2,1.03,0.2
				c0.35,0,0.64-0.09,0.87-0.26c0.23-0.17,0.34-0.41,0.34-0.71v-0.02c0-0.15-0.04-0.28-0.12-0.39c-0.08-0.11-0.19-0.21-0.32-0.29
				c-0.14-0.08-0.29-0.16-0.47-0.22c-0.18-0.06-0.36-0.12-0.55-0.18c-0.23-0.07-0.45-0.15-0.68-0.23c-0.23-0.08-0.44-0.19-0.62-0.31
				c-0.18-0.13-0.33-0.28-0.45-0.47c-0.12-0.19-0.17-0.42-0.17-0.71v-0.02c0-0.26,0.05-0.5,0.15-0.71c0.1-0.22,0.24-0.4,0.41-0.55
				s0.39-0.27,0.63-0.35c0.24-0.08,0.51-0.12,0.79-0.12c0.36,0,0.73,0.06,1.09,0.18s0.7,0.29,1,0.49l-0.39,0.68
				c-0.27-0.18-0.55-0.33-0.85-0.43c-0.3-0.11-0.59-0.16-0.87-0.16c-0.35,0-0.62,0.08-0.82,0.25c-0.2,0.17-0.3,0.38-0.3,0.63v0.02
				c0,0.14,0.04,0.27,0.12,0.37c0.08,0.11,0.19,0.2,0.33,0.28c0.14,0.08,0.3,0.15,0.48,0.21c0.18,0.06,0.37,0.13,0.56,0.19
				c0.23,0.07,0.45,0.15,0.67,0.24s0.42,0.2,0.6,0.33s0.33,0.29,0.43,0.48c0.11,0.19,0.16,0.42,0.16,0.7v0.02
				C206,78.67,205.95,78.93,205.84,79.15z"/>
			<path class="st1" d="M207.57,75.23v-1.24h1.04v1.24H207.57z M207.57,80.09v-1.24h1.04v1.24H207.57z"/>
			<path class="st1" d="M220.34,78.82c-0.14,0.28-0.34,0.52-0.6,0.71c-0.26,0.19-0.57,0.33-0.93,0.42
				c-0.36,0.09-0.77,0.14-1.21,0.14h-3.75v-8.26h3.66c0.81,0,1.45,0.19,1.91,0.58c0.46,0.38,0.69,0.9,0.69,1.56v0.02
				c0,0.24-0.03,0.44-0.08,0.62c-0.06,0.18-0.13,0.34-0.22,0.49c-0.09,0.15-0.2,0.27-0.33,0.38c-0.12,0.11-0.26,0.21-0.4,0.28
				c0.46,0.18,0.82,0.43,1.08,0.74c0.26,0.31,0.39,0.74,0.39,1.29v0.02C220.55,78.2,220.48,78.53,220.34,78.82z M218.39,74.27
				c0-0.28-0.1-0.49-0.29-0.63s-0.48-0.22-0.85-0.22h-1.71v1.75h1.6c0.38,0,0.69-0.07,0.91-0.21s0.34-0.36,0.34-0.67V74.27z
				 M218.83,77.58c0-0.28-0.1-0.49-0.3-0.66c-0.2-0.16-0.53-0.24-0.98-0.24h-2.01v1.82h2.06c0.38,0,0.68-0.07,0.9-0.22
				c0.22-0.15,0.33-0.37,0.33-0.68V77.58z"/>
			<path class="st1" d="M225.36,75.52c-0.57,0-1.02,0.18-1.35,0.54c-0.33,0.36-0.49,0.92-0.49,1.69v2.34h-1.71v-6.33h1.71v1.27
				c0.17-0.43,0.41-0.78,0.71-1.04s0.71-0.38,1.22-0.35v1.88H225.36z"/>
			<path class="st1" d="M232.53,78.22c-0.17,0.4-0.39,0.75-0.69,1.04s-0.64,0.54-1.04,0.71s-0.83,0.26-1.31,0.26
				c-0.47,0-0.9-0.08-1.3-0.25c-0.4-0.17-0.74-0.4-1.03-0.7c-0.29-0.29-0.52-0.64-0.68-1.04s-0.25-0.82-0.25-1.28v-0.02
				c0-0.46,0.08-0.88,0.25-1.28c0.17-0.4,0.39-0.75,0.69-1.04c0.29-0.3,0.64-0.54,1.04-0.71s0.83-0.26,1.31-0.26
				c0.47,0,0.9,0.08,1.3,0.25s0.74,0.4,1.03,0.7c0.29,0.29,0.52,0.64,0.68,1.04c0.17,0.4,0.25,0.82,0.25,1.28v0.02
				C232.77,77.4,232.69,77.82,232.53,78.22z M231.08,76.94c0-0.24-0.04-0.46-0.11-0.67c-0.08-0.21-0.18-0.39-0.33-0.55
				c-0.14-0.16-0.31-0.29-0.51-0.38c-0.2-0.09-0.41-0.14-0.64-0.14c-0.25,0-0.47,0.05-0.66,0.14c-0.19,0.09-0.36,0.21-0.49,0.37
				c-0.14,0.16-0.24,0.34-0.31,0.55c-0.07,0.21-0.11,0.43-0.11,0.67v0.02c0,0.24,0.04,0.46,0.11,0.67c0.08,0.21,0.18,0.39,0.33,0.55
				c0.14,0.16,0.31,0.29,0.5,0.38c0.19,0.09,0.41,0.14,0.65,0.14c0.25,0,0.47-0.04,0.66-0.14c0.19-0.09,0.36-0.21,0.49-0.37
				c0.13-0.16,0.24-0.34,0.31-0.55c0.07-0.21,0.11-0.43,0.11-0.67V76.94z"/>
			<path class="st1" d="M237.84,80.09v-3.52c0-0.42-0.09-0.74-0.27-0.96c-0.18-0.21-0.44-0.32-0.77-0.32s-0.59,0.11-0.78,0.32
				c-0.19,0.22-0.29,0.54-0.29,0.96v3.52h-1.71v-6.33h1.71v0.9c0.1-0.13,0.2-0.26,0.32-0.39c0.12-0.12,0.25-0.23,0.39-0.33
				c0.14-0.09,0.3-0.17,0.47-0.23c0.17-0.06,0.37-0.08,0.59-0.08c0.65,0,1.16,0.21,1.52,0.63c0.36,0.42,0.54,0.99,0.54,1.72v4.09
				H237.84z"/>
			<path class="st1" d="M240.84,80.09v-1.26l3.12-3.61h-3.02v-1.45h5.15v1.26l-3.13,3.61h3.13v1.45H240.84z"/>
			<path class="st1" d="M253.02,77.33c0,0.06-0.01,0.14-0.02,0.22h-4.21c0.08,0.41,0.25,0.72,0.51,0.93
				c0.26,0.21,0.58,0.31,0.96,0.31c0.29,0,0.54-0.05,0.77-0.15c0.23-0.1,0.46-0.27,0.7-0.5l0.98,0.91
				c-0.29,0.37-0.63,0.66-1.04,0.87c-0.41,0.21-0.88,0.31-1.43,0.31c-0.45,0-0.87-0.08-1.26-0.24s-0.72-0.38-1-0.67
				s-0.5-0.63-0.66-1.03c-0.16-0.4-0.24-0.84-0.24-1.33v-0.02c0-0.45,0.07-0.87,0.22-1.27c0.15-0.4,0.35-0.75,0.62-1.05
				c0.26-0.3,0.58-0.54,0.94-0.71c0.36-0.17,0.77-0.26,1.21-0.26c0.5,0,0.94,0.09,1.31,0.28c0.37,0.19,0.67,0.44,0.92,0.76
				c0.25,0.32,0.42,0.68,0.54,1.1c0.12,0.41,0.17,0.84,0.17,1.29v0.02C253.03,77.19,253.03,77.27,253.02,77.33z M250.95,75.46
				c-0.22-0.25-0.51-0.37-0.87-0.37c-0.36,0-0.65,0.12-0.88,0.37c-0.22,0.24-0.37,0.57-0.43,0.98h2.58
				C251.31,76.03,251.17,75.71,250.95,75.46z"/>
		</g>
	</g>
	<g>
		<g>
			<rect x="3.19" y="3.46" class="st1" width="84.42" height="84.42"/>
			<linearGradient id="SVGID_1_" gradientUnits="userSpaceOnUse" x1="92.2154" y1="6.6809" x2="35.0318" y2="105.7258">
				<stop  offset="0" style="stop-color:#172852"/>
				<stop  offset="0.0271" style="stop-color:#182D56"/>
				<stop  offset="0.069" style="stop-color:#1C3A63"/>
				<stop  offset="0.1203" style="stop-color:#23507A"/>
				<stop  offset="0.1787" style="stop-color:#2C709F"/>
				<stop  offset="0.2365" style="stop-color:#2E9ED9"/>
				<stop  offset="0.3735" style="stop-color:#265984"/>
				<stop  offset="0.4709" style="stop-color:#1B365E"/>
				<stop  offset="0.5175" style="stop-color:#172852"/>
				<stop  offset="0.5493" style="stop-color:#182C55"/>
				<stop  offset="0.5943" style="stop-color:#1B3860"/>
				<stop  offset="0.6471" style="stop-color:#224A73"/>
				<stop  offset="0.7059" style="stop-color:#2A6592"/>
				<stop  offset="0.769" style="stop-color:#2F8DC1"/>
				<stop  offset="0.7882" style="stop-color:#2E9ED9"/>
				<stop  offset="0.798" style="stop-color:#2F92C8"/>
				<stop  offset="0.8495" style="stop-color:#2B6895"/>
				<stop  offset="0.8971" style="stop-color:#224C75"/>
				<stop  offset="0.9396" style="stop-color:#1B3861"/>
				<stop  offset="0.9754" style="stop-color:#182C55"/>
				<stop  offset="1" style="stop-color:#172852"/>
			</linearGradient>
			<polygon class="st3" points="87.36,87.6 3.64,87.6 87.36,3.88 			"/>
		</g>
		<g>
			<g>
				<path class="st4" d="M24.72,24.71v22.54H18.5V24.71H9.9v-5.74h23.43v5.74H24.72z"/>
				<path class="st4" d="M35.79,47.25V18.98h21.28v5.53H41.93v5.74h13.33v5.53H41.93v5.94h15.35v5.53H35.79z"/>
				<path class="st4" d="M65.6,24.59v6.1h13.49v5.61H65.6v10.95h-6.22V18.98h21.53v5.61H65.6z"/>
			</g>
			<g>
				<path class="st4" d="M16.97,55.18c-0.79,0.56-1.58,1.39-2.35,2.47l-1.6-1.16c0.44-0.64,0.89-1.22,1.35-1.74
					c0.46-0.51,0.96-0.94,1.51-1.29c0.54-0.35,1.15-0.61,1.82-0.79c0.67-0.18,1.43-0.27,2.28-0.27c0.88,0,1.69,0.14,2.42,0.41
					c0.73,0.28,1.36,0.66,1.89,1.15c0.53,0.49,0.95,1.07,1.24,1.74c0.29,0.67,0.44,1.41,0.44,2.2c0,0.72-0.1,1.37-0.29,1.96
					c-0.19,0.59-0.49,1.18-0.9,1.76c-0.41,0.58-0.91,1.18-1.52,1.8c-0.61,0.62-1.34,1.3-2.18,2.03l-5.17,4.59h10.26v1.99H12.65
					v-1.69l7.02-6.2c0.74-0.66,1.36-1.26,1.88-1.8c0.52-0.54,0.94-1.04,1.26-1.51c0.32-0.47,0.55-0.93,0.69-1.38
					c0.14-0.45,0.21-0.92,0.21-1.4c0-0.57-0.11-1.08-0.32-1.54c-0.21-0.45-0.49-0.84-0.84-1.16c-0.35-0.32-0.77-0.57-1.24-0.75
					c-0.48-0.18-0.98-0.26-1.49-0.26C18.71,54.34,17.76,54.62,16.97,55.18z"/>
				<path class="st4" d="M44.78,66.2c-0.39,1.22-0.94,2.28-1.65,3.19c-0.71,0.91-1.57,1.64-2.59,2.17c-1.01,0.53-2.14,0.8-3.37,0.8
					c-1.25,0-2.38-0.26-3.39-0.79c-1-0.53-1.86-1.24-2.57-2.16c-0.71-0.91-1.25-1.97-1.63-3.18c-0.38-1.21-0.57-2.49-0.57-3.86
					c0-1.36,0.19-2.65,0.58-3.87c0.39-1.22,0.94-2.28,1.65-3.19c0.71-0.91,1.57-1.64,2.59-2.17c1.01-0.53,2.15-0.8,3.4-0.8
					c1.23,0,2.35,0.26,3.36,0.79c1,0.53,1.86,1.24,2.57,2.16c0.71,0.91,1.25,1.97,1.63,3.18c0.38,1.21,0.57,2.49,0.57,3.86
					C45.36,63.7,45.17,64.99,44.78,66.2z M42.68,59.33c-0.28-0.97-0.67-1.82-1.19-2.56c-0.52-0.74-1.14-1.33-1.87-1.77
					c-0.73-0.44-1.54-0.66-2.45-0.66c-0.9,0-1.72,0.22-2.45,0.65c-0.73,0.43-1.35,1.01-1.85,1.74c-0.51,0.73-0.9,1.58-1.18,2.54
					c-0.28,0.97-0.41,1.99-0.41,3.06c0,1.07,0.14,2.09,0.41,3.07c0.28,0.98,0.67,1.83,1.19,2.57c0.52,0.74,1.14,1.32,1.88,1.76
					c0.74,0.43,1.56,0.65,2.46,0.65c0.9,0,1.72-0.22,2.45-0.65c0.73-0.43,1.35-1.01,1.85-1.74c0.51-0.73,0.89-1.58,1.16-2.54
					c0.27-0.97,0.4-1.99,0.4-3.06C43.1,61.32,42.96,60.3,42.68,59.33z"/>
				<path class="st4" d="M51.86,55.18c-0.79,0.56-1.58,1.39-2.35,2.47l-1.6-1.16c0.44-0.64,0.89-1.22,1.35-1.74
					c0.46-0.51,0.96-0.94,1.51-1.29c0.54-0.35,1.15-0.61,1.82-0.79c0.67-0.18,1.43-0.27,2.28-0.27c0.88,0,1.69,0.14,2.42,0.41
					c0.73,0.28,1.36,0.66,1.89,1.15c0.53,0.49,0.95,1.07,1.24,1.74c0.3,0.67,0.44,1.41,0.44,2.2c0,0.72-0.1,1.37-0.29,1.96
					c-0.19,0.59-0.49,1.18-0.9,1.76c-0.41,0.58-0.91,1.18-1.52,1.8c-0.61,0.62-1.34,1.3-2.18,2.03l-5.17,4.59h10.26v1.99H47.55
					v-1.69l7.02-6.2c0.74-0.66,1.36-1.26,1.88-1.8c0.52-0.54,0.94-1.04,1.26-1.51c0.32-0.47,0.55-0.93,0.69-1.38
					c0.14-0.45,0.21-0.92,0.21-1.4c0-0.57-0.11-1.08-0.32-1.54c-0.21-0.45-0.49-0.84-0.84-1.16s-0.77-0.57-1.24-0.75
					c-0.48-0.18-0.98-0.26-1.49-0.26C53.6,54.34,52.65,54.62,51.86,55.18z"/>
				<path class="st4" d="M65.52,54.62v-1.94h12.34v1.6l-6.06,6.75c0.85,0.07,1.66,0.23,2.43,0.47c0.77,0.24,1.45,0.58,2.03,1.02
					c0.58,0.44,1.04,1,1.38,1.66c0.35,0.66,0.52,1.44,0.52,2.32c0,0.87-0.17,1.66-0.5,2.38c-0.34,0.72-0.79,1.34-1.37,1.85
					c-0.58,0.52-1.26,0.92-2.04,1.2c-0.78,0.29-1.63,0.43-2.53,0.43c-1.62,0-3.03-0.32-4.23-0.95c-1.2-0.64-2.19-1.47-2.99-2.5
					l1.58-1.41c0.76,0.92,1.59,1.63,2.5,2.13c0.91,0.5,1.97,0.75,3.17,0.75c0.59,0,1.14-0.09,1.66-0.26
					c0.52-0.17,0.96-0.43,1.34-0.76c0.38-0.33,0.68-0.73,0.9-1.2s0.33-0.99,0.33-1.56c0-1.22-0.5-2.15-1.51-2.79
					c-1.01-0.65-2.31-0.97-3.91-0.97h-1.24l-0.44-1.3l6.11-6.91H65.52z"/>
			</g>
		</g>
	</g>
</g>
</svg>
