<?xml version="1.0" encoding="utf-8"?>
<!-- Generator: Adobe Illustrator 27.0.0, SVG Export Plug-In . SVG Version: 6.00 Build 0)  -->
<svg version="1.1" id="Layer_1" xmlns="http://www.w3.org/2000/svg" xmlns:xlink="http://www.w3.org/1999/xlink" x="0px" y="0px"
	 viewBox="0 0 269.29 113.39" style="enable-background:new 0 0 269.29 113.39;" xml:space="preserve">
<style type="text/css">
	.st0{fill:#C08357;}
	.st1{fill:#001F4E;}
	.st2{fill:#869FB4;}
	.st3{fill:url(#SVGID_1_);stroke:#172852;stroke-width:0.5038;stroke-miterlimit:10;}
	.st4{fill:#FFFFFF;}
</style>
<g>
	<rect x="91.83" y="3.71" class="st0" width="174.55" height="32.91"/>
	<g>
		<path class="st1" d="M114.17,23.33c-0.35,0.87-0.83,1.64-1.46,2.31c-0.63,0.67-1.38,1.2-2.26,1.59s-1.85,0.59-2.92,0.59
			c-1.07,0-2.04-0.19-2.91-0.58c-0.87-0.39-1.62-0.91-2.25-1.57c-0.63-0.66-1.11-1.43-1.45-2.3c-0.34-0.87-0.51-1.8-0.51-2.77
			c0-0.97,0.17-1.9,0.52-2.77c0.35-0.87,0.83-1.64,1.46-2.31c0.63-0.67,1.38-1.2,2.26-1.59c0.88-0.39,1.85-0.59,2.92-0.59
			c1.07,0,2.04,0.19,2.91,0.58c0.87,0.39,1.62,0.91,2.25,1.57c0.63,0.66,1.11,1.43,1.45,2.3c0.34,0.87,0.51,1.8,0.51,2.77
			C114.69,21.53,114.52,22.45,114.17,23.33z M112.64,18.33c-0.27-0.71-0.66-1.32-1.15-1.84c-0.49-0.52-1.08-0.93-1.75-1.24
			s-1.41-0.46-2.21-0.46s-1.54,0.15-2.21,0.45c-0.67,0.3-1.25,0.71-1.73,1.23c-0.48,0.52-0.86,1.13-1.13,1.83
			c-0.27,0.7-0.41,1.45-0.41,2.25s0.14,1.55,0.41,2.26c0.27,0.71,0.66,1.32,1.15,1.84c0.49,0.52,1.08,0.93,1.75,1.24
			c0.67,0.31,1.41,0.46,2.21,0.46s1.54-0.15,2.21-0.45c0.67-0.3,1.25-0.71,1.73-1.23s0.86-1.13,1.13-1.83s0.41-1.45,0.41-2.25
			S112.91,19.04,112.64,18.33z"/>
		<path class="st1" d="M125.93,17.24h1.66l-4.5,10.42h-1.36l-4.48-10.42h1.7l3.48,8.58L125.93,17.24z"/>
		<path class="st1" d="M131.25,24.47c0.21,0.43,0.49,0.8,0.82,1.1c0.33,0.3,0.71,0.53,1.12,0.68c0.41,0.15,0.85,0.23,1.3,0.23
			c0.72,0,1.34-0.13,1.85-0.4c0.51-0.27,0.98-0.62,1.41-1.06l0.96,0.86c-0.52,0.59-1.11,1.06-1.78,1.41
			c-0.67,0.35-1.49,0.53-2.48,0.53c-0.71,0-1.37-0.13-2-0.39c-0.63-0.26-1.17-0.63-1.64-1.1c-0.47-0.47-0.84-1.04-1.12-1.71
			c-0.28-0.67-0.42-1.4-0.42-2.2c0-0.75,0.12-1.45,0.37-2.11c0.25-0.66,0.59-1.23,1.03-1.72c0.44-0.49,0.96-0.87,1.57-1.15
			c0.61-0.28,1.27-0.42,1.99-0.42c0.76,0,1.44,0.14,2.04,0.43s1.11,0.68,1.52,1.17c0.41,0.49,0.73,1.07,0.94,1.74
			c0.21,0.67,0.32,1.38,0.32,2.14c0,0.07,0,0.14,0,0.22s-0.01,0.17-0.02,0.26h-8.18C130.9,23.54,131.03,24.03,131.25,24.47z
			 M137.47,21.83c-0.04-0.47-0.14-0.91-0.29-1.34c-0.15-0.43-0.36-0.8-0.64-1.12c-0.27-0.32-0.6-0.58-0.99-0.77
			c-0.39-0.19-0.84-0.29-1.36-0.29c-0.45,0-0.87,0.09-1.25,0.27c-0.38,0.18-0.72,0.43-1.01,0.74c-0.29,0.31-0.53,0.68-0.72,1.11
			c-0.19,0.43-0.3,0.89-0.36,1.4H137.47z"/>
		<path class="st1" d="M143.79,27.58h-1.54V17.24h1.54v2.7c0.19-0.43,0.42-0.82,0.7-1.18c0.28-0.36,0.6-0.67,0.96-0.93
			c0.36-0.26,0.75-0.46,1.18-0.59s0.89-0.19,1.38-0.18v1.66h-0.12c-0.56,0-1.09,0.1-1.59,0.3c-0.5,0.2-0.94,0.5-1.31,0.9
			c-0.37,0.4-0.67,0.9-0.88,1.49c-0.21,0.59-0.32,1.28-0.32,2.05V27.58z"/>
		<path class="st1" d="M152.42,18.67c-0.5,0.14-0.99,0.32-1.47,0.55l-0.46-1.26c0.57-0.27,1.15-0.48,1.74-0.63
			c0.59-0.15,1.26-0.23,2.02-0.23c1.41,0,2.5,0.35,3.26,1.05c0.76,0.7,1.14,1.74,1.14,3.11v6.32h-1.48v-1.56
			c-0.36,0.47-0.84,0.88-1.45,1.24c-0.61,0.36-1.37,0.54-2.29,0.54c-0.48,0-0.95-0.07-1.41-0.2s-0.87-0.34-1.24-0.61
			c-0.37-0.27-0.66-0.61-0.88-1.01c-0.22-0.4-0.33-0.87-0.33-1.42c0-0.55,0.11-1.03,0.32-1.45c0.21-0.42,0.52-0.77,0.91-1.05
			s0.86-0.49,1.4-0.64c0.54-0.15,1.14-0.22,1.79-0.22c0.67,0,1.25,0.04,1.74,0.12c0.49,0.08,0.97,0.19,1.44,0.32v-0.36
			c0-0.93-0.27-1.64-0.81-2.11c-0.54-0.47-1.3-0.71-2.27-0.71C153.47,18.46,152.92,18.53,152.42,18.67z M151.93,22.92
			c-0.52,0.39-0.78,0.91-0.78,1.58c0,0.33,0.07,0.63,0.21,0.88c0.14,0.25,0.33,0.47,0.57,0.65c0.24,0.18,0.51,0.32,0.83,0.41
			c0.31,0.09,0.64,0.14,0.99,0.14c0.48,0,0.93-0.07,1.35-0.21s0.78-0.33,1.1-0.58c0.31-0.25,0.56-0.54,0.74-0.88
			s0.27-0.72,0.27-1.13v-1c-0.39-0.11-0.83-0.21-1.33-0.3c-0.5-0.09-1.07-0.14-1.7-0.14C153.19,22.33,152.44,22.53,151.93,22.92z"/>
		<path class="st1" d="M162.57,27.58v-14.6h1.54v14.6H162.57z"/>
		<path class="st1" d="M168.33,27.58v-14.6h1.54v14.6H168.33z"/>
		<path class="st1" d="M173.87,19.33v-2.1h1.84v2.1H173.87z M173.87,27.58v-2.1h1.84v2.1H173.87z"/>
		<path class="st1" d="M197.52,25.42c-0.25,0.48-0.6,0.88-1.06,1.2c-0.46,0.32-1.01,0.56-1.66,0.72c-0.65,0.16-1.36,0.24-2.15,0.24
			h-6.65v-14h6.49c1.44,0,2.56,0.33,3.38,0.98c0.82,0.65,1.23,1.53,1.23,2.64v0.04c0,0.4-0.05,0.75-0.15,1.06
			c-0.1,0.31-0.23,0.58-0.4,0.83c-0.17,0.25-0.36,0.46-0.58,0.65s-0.45,0.35-0.71,0.48c0.81,0.31,1.45,0.72,1.91,1.25
			s0.7,1.26,0.7,2.19v0.04C197.89,24.38,197.76,24.94,197.52,25.42z M194.07,17.72c0-0.47-0.17-0.82-0.52-1.07
			c-0.35-0.25-0.85-0.37-1.5-0.37h-3.04v2.96h2.84c0.68,0,1.22-0.12,1.62-0.35c0.4-0.23,0.6-0.61,0.6-1.13V17.72z M194.85,23.32
			c0-0.47-0.18-0.84-0.54-1.11c-0.36-0.27-0.94-0.41-1.74-0.41h-3.56v3.08h3.66c0.68,0,1.21-0.12,1.6-0.37s0.58-0.63,0.58-1.15
			V23.32z"/>
		<path class="st1" d="M206.93,19.83c-1.01,0-1.81,0.31-2.39,0.92s-0.87,1.57-0.87,2.86v3.96h-3.04V16.86h3.04v2.16
			c0.31-0.73,0.73-1.32,1.26-1.76s1.25-0.64,2.16-0.6v3.18H206.93z"/>
		<path class="st1" d="M220.13,24.41c-0.29,0.67-0.7,1.26-1.22,1.77c-0.52,0.51-1.13,0.91-1.84,1.2c-0.71,0.29-1.48,0.44-2.32,0.44
			c-0.83,0-1.59-0.14-2.3-0.43c-0.71-0.29-1.32-0.68-1.83-1.18c-0.51-0.5-0.92-1.09-1.21-1.76c-0.29-0.67-0.44-1.4-0.44-2.17v-0.04
			c0-0.77,0.15-1.5,0.44-2.17c0.29-0.67,0.7-1.26,1.22-1.77c0.52-0.51,1.13-0.91,1.84-1.2c0.71-0.29,1.48-0.44,2.32-0.44
			c0.83,0,1.59,0.14,2.3,0.43c0.71,0.29,1.32,0.68,1.83,1.18c0.51,0.5,0.92,1.09,1.21,1.76c0.29,0.67,0.44,1.4,0.44,2.17v0.04
			C220.57,23.01,220.42,23.73,220.13,24.41z M217.57,22.24c0-0.4-0.07-0.78-0.2-1.13c-0.13-0.35-0.33-0.67-0.58-0.94
			c-0.25-0.27-0.55-0.49-0.9-0.65s-0.73-0.24-1.14-0.24c-0.44,0-0.83,0.08-1.17,0.23c-0.34,0.15-0.63,0.36-0.87,0.63
			c-0.24,0.27-0.42,0.58-0.55,0.93c-0.13,0.35-0.19,0.73-0.19,1.13v0.04c0,0.4,0.07,0.78,0.2,1.13c0.13,0.35,0.33,0.67,0.58,0.94
			c0.25,0.27,0.55,0.49,0.89,0.65c0.34,0.16,0.72,0.24,1.15,0.24c0.44,0,0.83-0.08,1.17-0.23s0.63-0.36,0.87-0.63
			c0.24-0.27,0.42-0.58,0.55-0.93c0.13-0.35,0.19-0.73,0.19-1.13V22.24z"/>
		<path class="st1" d="M230.05,27.58v-5.97c0-0.72-0.16-1.26-0.48-1.63s-0.77-0.55-1.36-0.55s-1.05,0.18-1.39,0.55
			s-0.51,0.91-0.51,1.63v5.97h-3.04V16.86h3.04v1.53c0.17-0.23,0.36-0.45,0.57-0.65c0.21-0.21,0.44-0.39,0.69-0.55
			s0.53-0.29,0.84-0.38s0.65-0.14,1.04-0.14c1.16,0,2.06,0.35,2.69,1.06c0.63,0.71,0.95,1.68,0.95,2.92v6.94H230.05z"/>
		<path class="st1" d="M235.87,27.58v-2.14l5.54-6.12h-5.36v-2.46h9.14V19l-5.56,6.12h5.56v2.46H235.87z"/>
		<path class="st1" d="M257.98,22.9c-0.01,0.11-0.02,0.23-0.03,0.38h-7.46c0.15,0.69,0.45,1.22,0.91,1.57
			c0.46,0.35,1.03,0.53,1.71,0.53c0.51,0,0.96-0.09,1.36-0.26c0.4-0.17,0.81-0.45,1.24-0.84l1.74,1.54
			c-0.51,0.63-1.12,1.12-1.84,1.47c-0.72,0.35-1.57,0.53-2.54,0.53c-0.8,0-1.54-0.13-2.23-0.4s-1.28-0.65-1.78-1.14
			s-0.89-1.08-1.17-1.75c-0.28-0.67-0.42-1.42-0.42-2.25v-0.04c0-0.76,0.13-1.48,0.39-2.16s0.62-1.27,1.09-1.78s1.02-0.91,1.67-1.2
			c0.65-0.29,1.36-0.44,2.15-0.44c0.89,0,1.67,0.16,2.32,0.48s1.2,0.75,1.63,1.29c0.43,0.54,0.75,1.16,0.96,1.86
			c0.21,0.7,0.31,1.43,0.31,2.19v0.04C257.99,22.66,257.98,22.79,257.98,22.9z M254.31,19.73c-0.39-0.42-0.9-0.63-1.54-0.63
			c-0.64,0-1.16,0.21-1.55,0.62c-0.39,0.41-0.65,0.97-0.77,1.66h4.58C254.93,20.7,254.69,20.15,254.31,19.73z"/>
	</g>
	<g>
		<path class="st1" d="M8.86,107.63H7.58V97.44H3.76v-1.19h8.92v1.19H8.86V107.63z"/>
		<path class="st1" d="M14.11,105.1c0.17,0.35,0.4,0.65,0.67,0.89c0.27,0.24,0.57,0.43,0.91,0.55c0.34,0.12,0.69,0.19,1.06,0.19
			c0.58,0,1.09-0.11,1.5-0.33s0.8-0.5,1.15-0.86l0.78,0.7c-0.42,0.48-0.91,0.86-1.45,1.15c-0.54,0.29-1.21,0.43-2.02,0.43
			c-0.57,0-1.12-0.11-1.62-0.32c-0.51-0.21-0.95-0.51-1.34-0.89s-0.69-0.85-0.91-1.39s-0.34-1.14-0.34-1.79
			c0-0.61,0.1-1.18,0.3-1.71c0.2-0.54,0.48-1,0.84-1.4s0.78-0.71,1.28-0.93c0.49-0.23,1.03-0.34,1.62-0.34
			c0.62,0,1.17,0.12,1.66,0.35c0.49,0.23,0.9,0.55,1.23,0.95c0.34,0.4,0.59,0.87,0.76,1.41c0.17,0.54,0.26,1.12,0.26,1.74
			c0,0.05,0,0.11,0,0.18c0,0.07-0.01,0.14-0.02,0.21h-6.65C13.83,104.35,13.94,104.75,14.11,105.1z M19.17,102.97
			c-0.03-0.38-0.11-0.74-0.23-1.09s-0.3-0.65-0.52-0.91c-0.22-0.26-0.49-0.47-0.81-0.62c-0.32-0.16-0.69-0.24-1.11-0.24
			c-0.37,0-0.71,0.07-1.02,0.22c-0.31,0.15-0.59,0.35-0.82,0.6c-0.24,0.25-0.43,0.55-0.58,0.9c-0.15,0.35-0.25,0.73-0.29,1.14H19.17
			z"/>
		<path class="st1" d="M24.52,100.39c-0.41,0.11-0.8,0.26-1.19,0.45l-0.37-1.02c0.46-0.22,0.94-0.39,1.41-0.51
			c0.48-0.12,1.02-0.19,1.64-0.19c1.15,0,2.03,0.29,2.65,0.85s0.93,1.41,0.93,2.53v5.13h-1.2v-1.27c-0.29,0.38-0.68,0.71-1.18,1.01
			c-0.49,0.29-1.11,0.44-1.86,0.44c-0.39,0-0.77-0.05-1.15-0.16c-0.37-0.11-0.71-0.27-1.01-0.5s-0.54-0.5-0.71-0.82
			c-0.18-0.33-0.27-0.71-0.27-1.15s0.09-0.84,0.26-1.18c0.17-0.34,0.42-0.63,0.74-0.85c0.32-0.23,0.7-0.4,1.14-0.52
			c0.44-0.12,0.92-0.18,1.46-0.18c0.54,0,1.01,0.03,1.41,0.1c0.4,0.07,0.79,0.15,1.17,0.26v-0.29c0-0.76-0.22-1.33-0.66-1.71
			c-0.44-0.38-1.05-0.58-1.84-0.58C25.38,100.22,24.93,100.28,24.52,100.39z M24.12,103.85c-0.42,0.31-0.63,0.74-0.63,1.28
			c0,0.27,0.06,0.51,0.17,0.71c0.11,0.21,0.27,0.38,0.46,0.53c0.19,0.15,0.42,0.26,0.67,0.33c0.25,0.08,0.52,0.11,0.8,0.11
			c0.39,0,0.75-0.06,1.09-0.17c0.34-0.11,0.64-0.27,0.89-0.47c0.25-0.2,0.45-0.44,0.6-0.71s0.22-0.58,0.22-0.92v-0.81
			c-0.31-0.09-0.67-0.17-1.08-0.24c-0.41-0.08-0.87-0.11-1.38-0.11C25.15,103.37,24.54,103.53,24.12,103.85z"/>
		<path class="st1" d="M38.22,107.37c-0.54,0.31-1.2,0.46-1.99,0.46c-0.62,0-1.19-0.12-1.71-0.35c-0.53-0.23-0.98-0.55-1.37-0.94
			s-0.69-0.86-0.9-1.39c-0.22-0.53-0.32-1.09-0.32-1.69s0.11-1.16,0.32-1.7c0.22-0.54,0.52-1,0.9-1.41c0.38-0.4,0.84-0.72,1.37-0.95
			c0.53-0.23,1.1-0.35,1.71-0.35c0.4,0,0.76,0.04,1.09,0.11c0.33,0.08,0.62,0.18,0.89,0.32s0.52,0.29,0.75,0.48
			c0.23,0.18,0.44,0.38,0.63,0.58l-0.83,0.88c-0.34-0.35-0.7-0.64-1.1-0.89s-0.88-0.37-1.45-0.37c-0.42,0-0.82,0.08-1.19,0.25
			c-0.37,0.17-0.69,0.4-0.96,0.7c-0.27,0.3-0.48,0.64-0.63,1.04s-0.23,0.82-0.23,1.27s0.08,0.88,0.24,1.28
			c0.16,0.4,0.37,0.75,0.65,1.05s0.6,0.53,0.97,0.7c0.37,0.17,0.78,0.25,1.23,0.25c0.54,0,1.02-0.12,1.44-0.36s0.79-0.54,1.13-0.89
			l0.8,0.75C39.24,106.66,38.76,107.06,38.22,107.37z"/>
		<path class="st1" d="M43.17,107.63h-1.25V95.77h1.25v4.92c0.28-0.45,0.65-0.84,1.11-1.16s1.04-0.48,1.77-0.48
			c0.51,0,0.96,0.08,1.36,0.24c0.4,0.16,0.73,0.39,1.01,0.69s0.49,0.65,0.63,1.06c0.15,0.41,0.22,0.87,0.22,1.36v5.22h-1.25v-4.91
			c0-0.78-0.2-1.4-0.6-1.85c-0.4-0.46-0.97-0.68-1.72-0.68c-0.36,0-0.69,0.06-1,0.19c-0.31,0.12-0.58,0.3-0.8,0.54
			c-0.23,0.23-0.4,0.51-0.53,0.84c-0.12,0.33-0.19,0.68-0.19,1.07V107.63z"/>
		<path class="st1" d="M52.15,97.39v-1.38h1.43v1.38H52.15z M52.23,107.63v-8.4h1.25v8.4H52.23z"/>
		<path class="st1" d="M57.84,107.63h-1.25v-8.4h1.25v1.46c0.28-0.45,0.65-0.84,1.11-1.16s1.04-0.48,1.77-0.48
			c0.51,0,0.96,0.08,1.36,0.24c0.4,0.16,0.73,0.39,1.01,0.69s0.49,0.65,0.63,1.06c0.15,0.41,0.22,0.87,0.22,1.36v5.22h-1.25v-4.91
			c0-0.78-0.2-1.4-0.6-1.85c-0.4-0.46-0.97-0.68-1.72-0.68c-0.36,0-0.69,0.06-1,0.19c-0.31,0.12-0.58,0.3-0.8,0.54
			c-0.23,0.23-0.4,0.51-0.53,0.84c-0.12,0.33-0.19,0.68-0.19,1.07V107.63z"/>
		<path class="st1" d="M74.49,107.96c-0.2,0.51-0.49,0.93-0.86,1.28c-0.37,0.34-0.82,0.6-1.35,0.77c-0.53,0.17-1.11,0.26-1.76,0.26
			c-0.71,0-1.38-0.1-2.02-0.29c-0.64-0.2-1.24-0.49-1.8-0.88l0.57-0.97c0.49,0.35,1,0.61,1.53,0.8c0.53,0.18,1.1,0.28,1.71,0.28
			c0.93,0,1.67-0.25,2.23-0.76c0.55-0.5,0.83-1.25,0.83-2.23v-0.99c-0.37,0.49-0.82,0.91-1.35,1.25s-1.18,0.52-1.95,0.52
			c-0.51,0-1-0.09-1.47-0.27c-0.47-0.18-0.89-0.44-1.26-0.78c-0.37-0.34-0.66-0.76-0.89-1.24c-0.22-0.49-0.33-1.04-0.33-1.66
			c0-0.62,0.11-1.17,0.33-1.67c0.22-0.49,0.52-0.91,0.89-1.25c0.37-0.34,0.79-0.6,1.27-0.79c0.48-0.18,0.96-0.28,1.46-0.28
			c0.39,0,0.75,0.05,1.08,0.14c0.33,0.09,0.63,0.21,0.89,0.37c0.27,0.15,0.51,0.33,0.72,0.54c0.22,0.21,0.41,0.42,0.58,0.65v-1.51
			h1.25v6.94C74.79,106.85,74.69,107.45,74.49,107.96z M73.33,101.84c-0.17-0.35-0.4-0.65-0.69-0.9s-0.62-0.44-0.98-0.58
			c-0.37-0.13-0.75-0.2-1.15-0.2c-0.4,0-0.78,0.07-1.13,0.2c-0.35,0.13-0.66,0.32-0.93,0.57c-0.27,0.25-0.47,0.55-0.63,0.9
			c-0.15,0.35-0.23,0.75-0.23,1.18c0,0.43,0.08,0.83,0.24,1.18c0.16,0.35,0.37,0.66,0.63,0.91c0.26,0.25,0.57,0.45,0.93,0.58
			c0.35,0.13,0.72,0.2,1.11,0.2c0.4,0,0.79-0.07,1.15-0.2c0.37-0.14,0.7-0.33,0.98-0.58s0.52-0.55,0.69-0.9
			c0.17-0.35,0.26-0.74,0.26-1.18S73.5,102.19,73.33,101.84z"/>
		<path class="st1" d="M91.28,97.43h-6.94v3.88h6.21v1.17h-6.21v3.98h7.02v1.17h-8.3V96.26h8.22V97.43z"/>
		<path class="st1" d="M101.23,107.63h-1.45l-2.6-3.43l-2.62,3.43h-1.4l3.3-4.27l-3.17-4.13h1.43l2.49,3.25l2.49-3.25h1.4
			l-3.18,4.09L101.23,107.63z"/>
		<path class="st1" d="M108.66,107.37c-0.54,0.31-1.2,0.46-1.99,0.46c-0.62,0-1.19-0.12-1.71-0.35c-0.53-0.23-0.98-0.55-1.37-0.94
			s-0.69-0.86-0.9-1.39c-0.22-0.53-0.32-1.09-0.32-1.69s0.11-1.16,0.32-1.7c0.22-0.54,0.52-1,0.9-1.41c0.38-0.4,0.84-0.72,1.37-0.95
			c0.53-0.23,1.1-0.35,1.71-0.35c0.4,0,0.76,0.04,1.09,0.11c0.33,0.08,0.62,0.18,0.89,0.32s0.52,0.29,0.75,0.48
			c0.23,0.18,0.44,0.38,0.63,0.58l-0.83,0.88c-0.34-0.35-0.7-0.64-1.1-0.89s-0.88-0.37-1.45-0.37c-0.42,0-0.82,0.08-1.19,0.25
			c-0.37,0.17-0.69,0.4-0.96,0.7c-0.27,0.3-0.48,0.64-0.63,1.04s-0.23,0.82-0.23,1.27s0.08,0.88,0.24,1.28
			c0.16,0.4,0.37,0.75,0.65,1.05s0.6,0.53,0.97,0.7c0.37,0.17,0.78,0.25,1.23,0.25c0.54,0,1.02-0.12,1.44-0.36s0.79-0.54,1.13-0.89
			l0.8,0.75C109.68,106.66,109.2,107.06,108.66,107.37z"/>
		<path class="st1" d="M113.2,105.1c0.17,0.35,0.4,0.65,0.67,0.89c0.27,0.24,0.57,0.43,0.91,0.55c0.34,0.12,0.69,0.19,1.06,0.19
			c0.58,0,1.09-0.11,1.5-0.33s0.8-0.5,1.15-0.86l0.78,0.7c-0.42,0.48-0.91,0.86-1.45,1.15c-0.54,0.29-1.21,0.43-2.02,0.43
			c-0.57,0-1.12-0.11-1.62-0.32c-0.51-0.21-0.95-0.51-1.34-0.89s-0.69-0.85-0.91-1.39s-0.34-1.14-0.34-1.79
			c0-0.61,0.1-1.18,0.3-1.71c0.2-0.54,0.48-1,0.84-1.4s0.78-0.71,1.28-0.93c0.49-0.23,1.03-0.34,1.62-0.34
			c0.62,0,1.17,0.12,1.66,0.35c0.49,0.23,0.9,0.55,1.23,0.95c0.34,0.4,0.59,0.87,0.76,1.41c0.17,0.54,0.26,1.12,0.26,1.74
			c0,0.05,0,0.11,0,0.18c0,0.07-0.01,0.14-0.02,0.21h-6.65C112.92,104.35,113.03,104.75,113.2,105.1z M118.26,102.97
			c-0.03-0.38-0.11-0.74-0.23-1.09s-0.3-0.65-0.52-0.91c-0.22-0.26-0.49-0.47-0.81-0.62c-0.32-0.16-0.69-0.24-1.11-0.24
			c-0.37,0-0.71,0.07-1.02,0.22c-0.31,0.15-0.59,0.35-0.82,0.6c-0.24,0.25-0.43,0.55-0.58,0.9c-0.15,0.35-0.25,0.73-0.29,1.14
			H118.26z"/>
		<path class="st1" d="M122.04,107.63V95.77h1.25v11.86H122.04z"/>
		<path class="st1" d="M126.51,107.63V95.77h1.25v11.86H126.51z"/>
		<path class="st1" d="M131.96,105.1c0.17,0.35,0.4,0.65,0.67,0.89c0.27,0.24,0.57,0.43,0.91,0.55c0.34,0.12,0.69,0.19,1.06,0.19
			c0.58,0,1.09-0.11,1.5-0.33s0.8-0.5,1.15-0.86l0.78,0.7c-0.42,0.48-0.91,0.86-1.45,1.15c-0.54,0.29-1.21,0.43-2.02,0.43
			c-0.57,0-1.12-0.11-1.62-0.32c-0.51-0.21-0.95-0.51-1.34-0.89s-0.69-0.85-0.91-1.39s-0.34-1.14-0.34-1.79
			c0-0.61,0.1-1.18,0.3-1.71c0.2-0.54,0.48-1,0.84-1.4s0.78-0.71,1.28-0.93c0.49-0.23,1.03-0.34,1.62-0.34
			c0.62,0,1.17,0.12,1.66,0.35c0.49,0.23,0.9,0.55,1.23,0.95c0.34,0.4,0.59,0.87,0.76,1.41c0.17,0.54,0.26,1.12,0.26,1.74
			c0,0.05,0,0.11,0,0.18c0,0.07-0.01,0.14-0.02,0.21h-6.65C131.67,104.35,131.78,104.75,131.96,105.1z M137.01,102.97
			c-0.03-0.38-0.11-0.74-0.23-1.09s-0.3-0.65-0.52-0.91c-0.22-0.26-0.49-0.47-0.81-0.62c-0.32-0.16-0.69-0.24-1.11-0.24
			c-0.37,0-0.71,0.07-1.02,0.22c-0.31,0.15-0.59,0.35-0.82,0.6c-0.24,0.25-0.43,0.55-0.58,0.9c-0.15,0.35-0.25,0.73-0.29,1.14
			H137.01z"/>
		<path class="st1" d="M141.93,107.63h-1.25v-8.4h1.25v1.46c0.28-0.45,0.65-0.84,1.11-1.16s1.04-0.48,1.77-0.48
			c0.51,0,0.96,0.08,1.36,0.24c0.4,0.16,0.73,0.39,1.01,0.69s0.49,0.65,0.63,1.06c0.15,0.41,0.22,0.87,0.22,1.36v5.22h-1.25v-4.91
			c0-0.78-0.2-1.4-0.6-1.85c-0.4-0.46-0.97-0.68-1.72-0.68c-0.36,0-0.69,0.06-1,0.19c-0.31,0.12-0.58,0.3-0.8,0.54
			c-0.23,0.23-0.4,0.51-0.53,0.84c-0.12,0.33-0.19,0.68-0.19,1.07V107.63z"/>
		<path class="st1" d="M156.66,107.37c-0.54,0.31-1.2,0.46-1.99,0.46c-0.62,0-1.19-0.12-1.71-0.35c-0.53-0.23-0.98-0.55-1.37-0.94
			s-0.69-0.86-0.9-1.39c-0.22-0.53-0.32-1.09-0.32-1.69s0.11-1.16,0.32-1.7c0.22-0.54,0.52-1,0.9-1.41c0.38-0.4,0.84-0.72,1.37-0.95
			c0.53-0.23,1.1-0.35,1.71-0.35c0.4,0,0.76,0.04,1.09,0.11c0.33,0.08,0.62,0.18,0.89,0.32s0.52,0.29,0.75,0.48
			c0.23,0.18,0.44,0.38,0.63,0.58l-0.83,0.88c-0.34-0.35-0.7-0.64-1.1-0.89s-0.88-0.37-1.45-0.37c-0.42,0-0.82,0.08-1.19,0.25
			c-0.37,0.17-0.69,0.4-0.96,0.7c-0.27,0.3-0.48,0.64-0.63,1.04s-0.23,0.82-0.23,1.27s0.08,0.88,0.24,1.28
			c0.16,0.4,0.37,0.75,0.65,1.05s0.6,0.53,0.97,0.7c0.37,0.17,0.78,0.25,1.23,0.25c0.54,0,1.02-0.12,1.44-0.36s0.79-0.54,1.13-0.89
			l0.8,0.75C157.68,106.66,157.2,107.06,156.66,107.37z"/>
		<path class="st1" d="M161.2,105.1c0.17,0.35,0.4,0.65,0.67,0.89c0.27,0.24,0.57,0.43,0.91,0.55c0.34,0.12,0.69,0.19,1.06,0.19
			c0.58,0,1.09-0.11,1.5-0.33s0.8-0.5,1.15-0.86l0.78,0.7c-0.42,0.48-0.91,0.86-1.45,1.15c-0.54,0.29-1.21,0.43-2.02,0.43
			c-0.57,0-1.12-0.11-1.62-0.32c-0.51-0.21-0.95-0.51-1.34-0.89s-0.69-0.85-0.91-1.39s-0.34-1.14-0.34-1.79
			c0-0.61,0.1-1.18,0.3-1.71c0.2-0.54,0.48-1,0.84-1.4s0.78-0.71,1.28-0.93c0.49-0.23,1.03-0.34,1.62-0.34
			c0.62,0,1.17,0.12,1.66,0.35c0.49,0.23,0.9,0.55,1.23,0.95c0.34,0.4,0.59,0.87,0.76,1.41c0.17,0.54,0.26,1.12,0.26,1.74
			c0,0.05,0,0.11,0,0.18c0,0.07-0.01,0.14-0.02,0.21h-6.65C160.92,104.35,161.03,104.75,161.2,105.1z M166.26,102.97
			c-0.03-0.38-0.11-0.74-0.23-1.09s-0.3-0.65-0.52-0.91c-0.22-0.26-0.49-0.47-0.81-0.62c-0.32-0.16-0.69-0.24-1.11-0.24
			c-0.37,0-0.71,0.07-1.02,0.22c-0.31,0.15-0.59,0.35-0.82,0.6c-0.24,0.25-0.43,0.55-0.58,0.9c-0.15,0.35-0.25,0.73-0.29,1.14
			H166.26z"/>
		<path class="st1" d="M183.39,97.44h-6.89v4.06h6.16v1.17h-6.16v4.96h-1.28V96.26h8.17V97.44z"/>
		<path class="st1" d="M187.11,107.63h-1.25v-8.4h1.25v2.19c0.15-0.35,0.34-0.67,0.57-0.96c0.23-0.29,0.49-0.54,0.78-0.76
			c0.29-0.21,0.61-0.37,0.96-0.48s0.72-0.16,1.12-0.15v1.35h-0.1c-0.46,0-0.89,0.08-1.29,0.24c-0.41,0.16-0.76,0.41-1.06,0.73
			c-0.3,0.32-0.54,0.73-0.71,1.21c-0.17,0.48-0.26,1.04-0.26,1.67V107.63z"/>
		<path class="st1" d="M193.91,100.39c-0.41,0.11-0.8,0.26-1.19,0.45l-0.37-1.02c0.46-0.22,0.94-0.39,1.41-0.51
			c0.48-0.12,1.02-0.19,1.64-0.19c1.15,0,2.03,0.29,2.65,0.85s0.93,1.41,0.93,2.53v5.13h-1.2v-1.27c-0.29,0.38-0.68,0.71-1.18,1.01
			c-0.49,0.29-1.11,0.44-1.86,0.44c-0.39,0-0.77-0.05-1.15-0.16c-0.37-0.11-0.71-0.27-1.01-0.5s-0.54-0.5-0.71-0.82
			c-0.18-0.33-0.27-0.71-0.27-1.15s0.09-0.84,0.26-1.18c0.17-0.34,0.42-0.63,0.74-0.85c0.32-0.23,0.7-0.4,1.14-0.52
			c0.44-0.12,0.92-0.18,1.46-0.18c0.54,0,1.01,0.03,1.41,0.1c0.4,0.07,0.79,0.15,1.17,0.26v-0.29c0-0.76-0.22-1.33-0.66-1.71
			c-0.44-0.38-1.05-0.58-1.84-0.58C194.77,100.22,194.31,100.28,193.91,100.39z M193.51,103.85c-0.42,0.31-0.63,0.74-0.63,1.28
			c0,0.27,0.06,0.51,0.17,0.71c0.11,0.21,0.27,0.38,0.46,0.53c0.19,0.15,0.42,0.26,0.67,0.33c0.25,0.08,0.52,0.11,0.8,0.11
			c0.39,0,0.75-0.06,1.09-0.17c0.34-0.11,0.64-0.27,0.89-0.47c0.25-0.2,0.45-0.44,0.6-0.71s0.22-0.58,0.22-0.92v-0.81
			c-0.31-0.09-0.67-0.17-1.08-0.24c-0.41-0.08-0.87-0.11-1.38-0.11C194.53,103.37,193.93,103.53,193.51,103.85z"/>
		<path class="st1" d="M209,100.08c0.19-0.21,0.4-0.38,0.64-0.54c0.24-0.15,0.51-0.27,0.8-0.36c0.3-0.09,0.63-0.13,1-0.13
			c0.97,0,1.74,0.3,2.29,0.9c0.55,0.6,0.83,1.43,0.83,2.48v5.2h-1.25v-4.91c0-0.81-0.19-1.44-0.58-1.88
			c-0.38-0.44-0.92-0.66-1.6-0.66c-0.31,0-0.61,0.06-0.89,0.17c-0.28,0.11-0.53,0.28-0.74,0.5c-0.21,0.22-0.38,0.5-0.5,0.82
			c-0.12,0.32-0.19,0.69-0.19,1.1v4.84h-1.23v-4.94c0-0.79-0.19-1.41-0.58-1.84c-0.38-0.44-0.91-0.66-1.58-0.66
			c-0.34,0-0.64,0.06-0.93,0.19c-0.28,0.13-0.53,0.31-0.74,0.55s-0.38,0.52-0.5,0.84s-0.18,0.67-0.18,1.06v4.79h-1.25v-8.4h1.25
			v1.41c0.14-0.21,0.29-0.41,0.46-0.6c0.17-0.2,0.36-0.37,0.58-0.51c0.22-0.15,0.46-0.26,0.73-0.35s0.58-0.13,0.94-0.13
			c0.68,0,1.25,0.16,1.69,0.48c0.44,0.32,0.78,0.72,1.01,1.19C208.64,100.5,208.81,100.28,209,100.08z"/>
		<path class="st1" d="M218.57,105.1c0.17,0.35,0.4,0.65,0.67,0.89c0.27,0.24,0.57,0.43,0.91,0.55c0.34,0.12,0.69,0.19,1.06,0.19
			c0.58,0,1.09-0.11,1.5-0.33s0.8-0.5,1.15-0.86l0.78,0.7c-0.42,0.48-0.91,0.86-1.45,1.15c-0.54,0.29-1.21,0.43-2.02,0.43
			c-0.57,0-1.12-0.11-1.62-0.32c-0.51-0.21-0.95-0.51-1.34-0.89s-0.69-0.85-0.91-1.39s-0.34-1.14-0.34-1.79
			c0-0.61,0.1-1.18,0.3-1.71c0.2-0.54,0.48-1,0.84-1.4s0.78-0.71,1.28-0.93c0.49-0.23,1.03-0.34,1.62-0.34
			c0.62,0,1.17,0.12,1.66,0.35c0.49,0.23,0.9,0.55,1.23,0.95c0.34,0.4,0.59,0.87,0.76,1.41c0.17,0.54,0.26,1.12,0.26,1.74
			c0,0.05,0,0.11,0,0.18c0,0.07-0.01,0.14-0.02,0.21h-6.65C218.28,104.35,218.39,104.75,218.57,105.1z M223.62,102.97
			c-0.03-0.38-0.11-0.74-0.23-1.09s-0.3-0.65-0.52-0.91c-0.22-0.26-0.49-0.47-0.81-0.62c-0.32-0.16-0.69-0.24-1.11-0.24
			c-0.37,0-0.71,0.07-1.02,0.22c-0.31,0.15-0.59,0.35-0.82,0.6c-0.24,0.25-0.43,0.55-0.58,0.9c-0.15,0.35-0.25,0.73-0.29,1.14
			H223.62z"/>
		<path class="st1" d="M235.29,105.97l2.21-6.74h1.3l-2.96,8.47h-1.09l-2.26-6.63l-2.28,6.63h-1.1l-2.94-8.47h1.33l2.21,6.74
			l2.26-6.78h1.04L235.29,105.97z"/>
		<path class="st1" d="M248.57,105.12c-0.22,0.54-0.53,1-0.92,1.41c-0.39,0.4-0.86,0.72-1.4,0.95c-0.54,0.23-1.13,0.35-1.75,0.35
			s-1.21-0.12-1.74-0.35c-0.53-0.23-0.99-0.55-1.38-0.94c-0.39-0.4-0.69-0.86-0.91-1.39c-0.22-0.53-0.32-1.09-0.32-1.69
			s0.11-1.16,0.32-1.7c0.22-0.54,0.52-1,0.91-1.41c0.39-0.4,0.85-0.72,1.39-0.95c0.54-0.23,1.12-0.35,1.76-0.35
			c0.63,0,1.21,0.12,1.75,0.35c0.54,0.23,1,0.55,1.39,0.94s0.69,0.86,0.91,1.39c0.22,0.53,0.33,1.09,0.33,1.69
			S248.79,104.58,248.57,105.12z M247.39,102.17c-0.16-0.4-0.38-0.75-0.66-1.05c-0.28-0.3-0.61-0.53-0.99-0.71
			c-0.38-0.17-0.79-0.26-1.24-0.26c-0.46,0-0.87,0.08-1.25,0.25c-0.38,0.17-0.7,0.4-0.97,0.7c-0.27,0.3-0.47,0.64-0.63,1.04
			s-0.23,0.82-0.23,1.27s0.08,0.88,0.24,1.28c0.16,0.4,0.37,0.75,0.65,1.04c0.28,0.29,0.6,0.52,0.98,0.7
			c0.38,0.17,0.79,0.26,1.23,0.26c0.46,0,0.87-0.08,1.25-0.25c0.38-0.17,0.7-0.4,0.97-0.69s0.48-0.63,0.63-1.03s0.23-0.82,0.23-1.27
			S247.54,102.57,247.39,102.17z"/>
		<path class="st1" d="M252.61,107.63h-1.25v-8.4h1.25v2.19c0.15-0.35,0.34-0.67,0.57-0.96c0.23-0.29,0.49-0.54,0.78-0.76
			c0.29-0.21,0.61-0.37,0.96-0.48s0.72-0.16,1.12-0.15v1.35h-0.1c-0.46,0-0.89,0.08-1.29,0.24c-0.41,0.16-0.76,0.41-1.06,0.73
			c-0.3,0.32-0.54,0.73-0.71,1.21c-0.17,0.48-0.26,1.04-0.26,1.67V107.63z"/>
		<path class="st1" d="M265.59,107.63h-1.5l-3.01-3.92l-1.71,1.72v2.19h-1.25V95.77h1.25v8.19l4.53-4.73h1.56l-3.53,3.61
			L265.59,107.63z"/>
	</g>
	<g>
		<rect x="91.83" y="40.47" class="st0" width="174.55" height="21.68"/>
		<g>
			<path class="st1" d="M99.63,49.37c0.06,0.16,0.18,0.3,0.34,0.43c0.17,0.13,0.39,0.25,0.68,0.35s0.67,0.21,1.12,0.3
				c0.92,0.2,1.6,0.49,2.04,0.85c0.44,0.36,0.65,0.86,0.65,1.5c0,0.35-0.07,0.68-0.21,0.97c-0.14,0.29-0.33,0.54-0.58,0.74
				c-0.25,0.2-0.54,0.36-0.89,0.47c-0.35,0.11-0.72,0.17-1.13,0.17c-0.66,0-1.26-0.11-1.81-0.32c-0.55-0.21-1.07-0.54-1.56-0.99
				l0.58-0.68c0.43,0.39,0.87,0.69,1.31,0.88c0.44,0.19,0.95,0.29,1.52,0.29c0.56,0,1-0.13,1.34-0.39c0.33-0.26,0.5-0.6,0.5-1.03
				c0-0.2-0.03-0.37-0.09-0.53s-0.17-0.29-0.33-0.42c-0.16-0.13-0.38-0.24-0.66-0.34c-0.28-0.1-0.64-0.2-1.07-0.3
				c-0.47-0.1-0.89-0.22-1.24-0.35c-0.35-0.13-0.64-0.3-0.87-0.48s-0.4-0.41-0.51-0.66c-0.11-0.25-0.17-0.55-0.17-0.9
				c0-0.33,0.07-0.63,0.2-0.91c0.13-0.28,0.32-0.51,0.57-0.72c0.24-0.2,0.53-0.36,0.86-0.47c0.33-0.11,0.69-0.17,1.09-0.17
				c0.61,0,1.13,0.08,1.59,0.25c0.45,0.17,0.89,0.42,1.32,0.75l-0.54,0.72c-0.39-0.31-0.77-0.54-1.16-0.68
				c-0.39-0.14-0.8-0.21-1.22-0.21c-0.27,0-0.51,0.04-0.73,0.11c-0.22,0.07-0.4,0.17-0.55,0.28c-0.15,0.12-0.27,0.26-0.35,0.43
				c-0.08,0.17-0.12,0.34-0.12,0.53C99.54,49.03,99.57,49.21,99.63,49.37z"/>
			<path class="st1" d="M107.38,53.31c0,0.38,0.09,0.64,0.28,0.79c0.19,0.15,0.44,0.22,0.74,0.22c0.16,0,0.3-0.02,0.44-0.05
				c0.14-0.03,0.29-0.09,0.44-0.17v0.78c-0.16,0.09-0.32,0.15-0.5,0.19c-0.18,0.04-0.38,0.06-0.6,0.06c-0.24,0-0.47-0.03-0.68-0.09
				s-0.4-0.16-0.55-0.3s-0.27-0.32-0.36-0.54c-0.09-0.22-0.13-0.48-0.13-0.79v-3.68h-0.85v-0.8h0.85V47.1h0.91v1.84h1.94v0.8h-1.94
				V53.31z"/>
			<path class="st1" d="M115.25,48.94h0.9v6.1h-0.9v-1.06c-0.2,0.33-0.47,0.61-0.8,0.84s-0.76,0.35-1.29,0.35
				c-0.37,0-0.7-0.06-0.99-0.18c-0.29-0.12-0.53-0.28-0.73-0.5c-0.2-0.22-0.35-0.47-0.46-0.77c-0.11-0.3-0.16-0.63-0.16-0.99v-3.79
				h0.91v3.56c0,0.57,0.15,1.02,0.44,1.35c0.29,0.33,0.71,0.5,1.25,0.5c0.26,0,0.5-0.04,0.73-0.14c0.22-0.09,0.42-0.22,0.58-0.39
				s0.29-0.37,0.38-0.61c0.09-0.24,0.14-0.5,0.14-0.78V48.94z"/>
			<path class="st1" d="M123.09,55.04v-1.23c-0.13,0.18-0.27,0.35-0.42,0.52c-0.15,0.17-0.32,0.31-0.51,0.44
				c-0.19,0.13-0.4,0.22-0.63,0.29s-0.49,0.11-0.77,0.11c-0.37,0-0.73-0.07-1.07-0.21s-0.66-0.35-0.93-0.62s-0.5-0.6-0.66-1
				c-0.17-0.39-0.25-0.84-0.25-1.35s0.08-0.95,0.25-1.35c0.17-0.39,0.39-0.73,0.66-1s0.59-0.48,0.93-0.63
				c0.35-0.15,0.7-0.22,1.07-0.22c0.28,0,0.54,0.04,0.78,0.11c0.24,0.07,0.45,0.17,0.64,0.28c0.19,0.12,0.36,0.26,0.51,0.41
				c0.15,0.16,0.29,0.32,0.41,0.5v-3.68H124v8.61H123.09z M122.94,51.02c-0.12-0.29-0.29-0.54-0.5-0.74
				c-0.21-0.2-0.44-0.36-0.71-0.48c-0.26-0.11-0.54-0.17-0.82-0.17c-0.3,0-0.58,0.05-0.84,0.16c-0.26,0.11-0.49,0.26-0.68,0.46
				c-0.19,0.2-0.35,0.45-0.46,0.74c-0.11,0.29-0.17,0.62-0.17,0.99c0,0.36,0.06,0.69,0.17,0.97c0.11,0.29,0.27,0.54,0.47,0.75
				c0.2,0.21,0.42,0.37,0.68,0.48c0.26,0.11,0.54,0.16,0.83,0.16c0.28,0,0.56-0.06,0.82-0.17c0.26-0.11,0.5-0.27,0.71-0.48
				s0.37-0.45,0.5-0.75s0.18-0.62,0.18-0.97S123.06,51.31,122.94,51.02z"/>
			<path class="st1" d="M126.82,53.21c0.13,0.26,0.29,0.47,0.48,0.65c0.2,0.18,0.42,0.31,0.66,0.4c0.24,0.09,0.5,0.14,0.77,0.14
				c0.42,0,0.79-0.08,1.09-0.24c0.3-0.16,0.58-0.37,0.83-0.63l0.57,0.51c-0.31,0.35-0.66,0.62-1.05,0.83
				c-0.39,0.21-0.88,0.31-1.46,0.31c-0.42,0-0.81-0.08-1.18-0.23c-0.37-0.15-0.69-0.37-0.97-0.65s-0.5-0.62-0.66-1.01
				c-0.16-0.39-0.25-0.83-0.25-1.3c0-0.44,0.07-0.86,0.22-1.24c0.15-0.39,0.35-0.73,0.61-1.02c0.26-0.29,0.57-0.51,0.93-0.68
				c0.36-0.17,0.75-0.25,1.17-0.25c0.45,0,0.85,0.08,1.2,0.25c0.35,0.17,0.65,0.4,0.9,0.69c0.24,0.29,0.43,0.63,0.55,1.03
				c0.13,0.39,0.19,0.81,0.19,1.26c0,0.04,0,0.08,0,0.13c0,0.05,0,0.1-0.01,0.15h-4.83C126.61,52.66,126.69,52.95,126.82,53.21z
				 M130.49,51.66c-0.02-0.28-0.08-0.54-0.17-0.79c-0.09-0.25-0.22-0.47-0.38-0.66c-0.16-0.19-0.36-0.34-0.59-0.45
				c-0.23-0.11-0.5-0.17-0.8-0.17c-0.27,0-0.51,0.05-0.74,0.16c-0.23,0.11-0.43,0.25-0.6,0.44c-0.17,0.19-0.31,0.4-0.42,0.66
				c-0.11,0.25-0.18,0.53-0.21,0.83H130.49z"/>
			<path class="st1" d="M133.92,55.04h-0.91v-6.1h0.91V50c0.2-0.33,0.47-0.61,0.8-0.84c0.33-0.23,0.76-0.35,1.29-0.35
				c0.37,0,0.7,0.06,0.98,0.18c0.29,0.12,0.53,0.29,0.73,0.5s0.35,0.47,0.46,0.77c0.11,0.3,0.16,0.63,0.16,0.99v3.79h-0.91v-3.56
				c0-0.57-0.15-1.02-0.44-1.35c-0.29-0.33-0.71-0.5-1.25-0.5c-0.26,0-0.5,0.05-0.73,0.14s-0.42,0.22-0.58,0.39
				c-0.17,0.17-0.29,0.37-0.38,0.61c-0.09,0.24-0.14,0.5-0.14,0.78V55.04z"/>
			<path class="st1" d="M141.51,53.31c0,0.38,0.09,0.64,0.28,0.79c0.19,0.15,0.44,0.22,0.74,0.22c0.16,0,0.3-0.02,0.44-0.05
				c0.14-0.03,0.29-0.09,0.44-0.17v0.78c-0.16,0.09-0.32,0.15-0.5,0.19c-0.18,0.04-0.38,0.06-0.6,0.06c-0.24,0-0.47-0.03-0.68-0.09
				c-0.21-0.06-0.39-0.16-0.55-0.3s-0.27-0.32-0.36-0.54c-0.09-0.22-0.13-0.48-0.13-0.79v-3.68h-0.85v-0.8h0.85V47.1h0.91v1.84h1.93
				v0.8h-1.93V53.31z"/>
			<path class="st1" d="M149.38,53.21c0.13,0.26,0.29,0.47,0.48,0.65c0.2,0.18,0.42,0.31,0.66,0.4s0.5,0.14,0.77,0.14
				c0.42,0,0.79-0.08,1.09-0.24c0.3-0.16,0.58-0.37,0.83-0.63l0.57,0.51c-0.31,0.35-0.66,0.62-1.05,0.83
				c-0.39,0.21-0.88,0.31-1.46,0.31c-0.42,0-0.81-0.08-1.18-0.23s-0.69-0.37-0.97-0.65s-0.5-0.62-0.66-1.01
				c-0.16-0.39-0.25-0.83-0.25-1.3c0-0.44,0.07-0.86,0.22-1.24c0.15-0.39,0.35-0.73,0.61-1.02c0.26-0.29,0.57-0.51,0.93-0.68
				c0.36-0.17,0.75-0.25,1.17-0.25c0.45,0,0.85,0.08,1.2,0.25c0.35,0.17,0.65,0.4,0.9,0.69c0.24,0.29,0.43,0.63,0.55,1.03
				c0.13,0.39,0.19,0.81,0.19,1.26c0,0.04,0,0.08,0,0.13c0,0.05,0,0.1-0.01,0.15h-4.83C149.17,52.66,149.25,52.95,149.38,53.21z
				 M153.05,51.66c-0.02-0.28-0.08-0.54-0.17-0.79c-0.09-0.25-0.22-0.47-0.38-0.66c-0.16-0.19-0.36-0.34-0.59-0.45
				c-0.23-0.11-0.5-0.17-0.8-0.17c-0.27,0-0.51,0.05-0.74,0.16c-0.23,0.11-0.43,0.25-0.6,0.44c-0.17,0.19-0.31,0.4-0.42,0.66
				c-0.11,0.25-0.18,0.53-0.21,0.83H153.05z"/>
			<path class="st1" d="M160.52,55.04h-1.05l-1.89-2.49l-1.9,2.49h-1.02l2.4-3.1l-2.3-3h1.04l1.81,2.36l1.81-2.36h1.01l-2.31,2.97
				L160.52,55.04z"/>
			<path class="st1" d="M167.9,53.33c-0.17,0.39-0.38,0.73-0.66,1c-0.27,0.27-0.58,0.48-0.93,0.63c-0.35,0.15-0.71,0.22-1.08,0.22
				c-0.28,0-0.54-0.04-0.78-0.11c-0.24-0.07-0.45-0.17-0.64-0.28c-0.19-0.12-0.36-0.26-0.51-0.41c-0.15-0.16-0.29-0.32-0.41-0.5
				v3.06h-0.91v-7.99h0.91v1.23c0.13-0.18,0.27-0.35,0.42-0.52s0.32-0.31,0.51-0.43c0.19-0.12,0.4-0.22,0.63-0.29
				c0.23-0.07,0.49-0.11,0.77-0.11c0.36,0,0.72,0.07,1.07,0.21c0.35,0.14,0.66,0.35,0.94,0.62s0.5,0.6,0.66,1
				c0.17,0.39,0.25,0.84,0.25,1.35S168.07,52.94,167.9,53.33z M167.05,51.02c-0.11-0.29-0.27-0.54-0.47-0.75
				c-0.2-0.21-0.42-0.37-0.68-0.48c-0.26-0.11-0.54-0.16-0.83-0.16c-0.28,0-0.56,0.06-0.82,0.17c-0.26,0.11-0.5,0.27-0.71,0.48
				c-0.21,0.2-0.37,0.45-0.5,0.74c-0.12,0.29-0.18,0.61-0.18,0.96s0.06,0.68,0.18,0.97s0.29,0.54,0.5,0.75
				c0.21,0.2,0.44,0.36,0.71,0.48c0.26,0.11,0.54,0.17,0.82,0.17c0.29,0,0.57-0.05,0.83-0.16c0.26-0.11,0.49-0.26,0.68-0.46
				c0.19-0.2,0.35-0.45,0.46-0.74s0.17-0.62,0.17-0.99C167.22,51.64,167.16,51.31,167.05,51.02z"/>
			<path class="st1" d="M170.62,53.21c0.13,0.26,0.29,0.47,0.48,0.65c0.2,0.18,0.42,0.31,0.66,0.4s0.5,0.14,0.77,0.14
				c0.42,0,0.79-0.08,1.09-0.24c0.3-0.16,0.58-0.37,0.83-0.63l0.57,0.51c-0.31,0.35-0.66,0.62-1.05,0.83
				c-0.39,0.21-0.88,0.31-1.46,0.31c-0.42,0-0.81-0.08-1.18-0.23s-0.69-0.37-0.97-0.65s-0.5-0.62-0.66-1.01
				c-0.16-0.39-0.25-0.83-0.25-1.3c0-0.44,0.07-0.86,0.22-1.24c0.15-0.39,0.35-0.73,0.61-1.02c0.26-0.29,0.57-0.51,0.93-0.68
				c0.36-0.17,0.75-0.25,1.17-0.25c0.45,0,0.85,0.08,1.2,0.25c0.35,0.17,0.65,0.4,0.9,0.69c0.24,0.29,0.43,0.63,0.55,1.03
				c0.13,0.39,0.19,0.81,0.19,1.26c0,0.04,0,0.08,0,0.13c0,0.05,0,0.1-0.01,0.15h-4.83C170.41,52.66,170.49,52.95,170.62,53.21z
				 M174.29,51.66c-0.02-0.28-0.08-0.54-0.17-0.79c-0.09-0.25-0.22-0.47-0.38-0.66c-0.16-0.19-0.36-0.34-0.59-0.45
				c-0.23-0.11-0.5-0.17-0.8-0.17c-0.27,0-0.51,0.05-0.74,0.16c-0.23,0.11-0.43,0.25-0.6,0.44c-0.17,0.19-0.31,0.4-0.42,0.66
				c-0.11,0.25-0.18,0.53-0.21,0.83H174.29z"/>
			<path class="st1" d="M177.72,55.04h-0.91v-6.1h0.91v1.59c0.11-0.25,0.25-0.48,0.41-0.7s0.35-0.4,0.57-0.55
				c0.21-0.15,0.44-0.27,0.7-0.35c0.25-0.08,0.52-0.11,0.81-0.11v0.98h-0.07c-0.33,0-0.64,0.06-0.94,0.18
				c-0.29,0.12-0.55,0.29-0.77,0.53c-0.22,0.24-0.39,0.53-0.52,0.88s-0.19,0.75-0.19,1.21V55.04z"/>
			<path class="st1" d="M181.62,47.61v-1h1.04v1H181.62z M181.67,55.04v-6.1h0.91v6.1H181.67z"/>
			<path class="st1" d="M185.49,53.21c0.13,0.26,0.29,0.47,0.48,0.65c0.2,0.18,0.42,0.31,0.66,0.4s0.5,0.14,0.77,0.14
				c0.42,0,0.79-0.08,1.09-0.24c0.3-0.16,0.58-0.37,0.83-0.63l0.57,0.51c-0.31,0.35-0.66,0.62-1.05,0.83
				c-0.39,0.21-0.88,0.31-1.46,0.31c-0.42,0-0.81-0.08-1.18-0.23s-0.69-0.37-0.97-0.65s-0.5-0.62-0.66-1.01
				c-0.16-0.39-0.25-0.83-0.25-1.3c0-0.44,0.07-0.86,0.22-1.24c0.15-0.39,0.35-0.73,0.61-1.02c0.26-0.29,0.57-0.51,0.93-0.68
				c0.36-0.17,0.75-0.25,1.17-0.25c0.45,0,0.85,0.08,1.2,0.25c0.35,0.17,0.65,0.4,0.9,0.69c0.24,0.29,0.43,0.63,0.55,1.03
				c0.13,0.39,0.19,0.81,0.19,1.26c0,0.04,0,0.08,0,0.13c0,0.05,0,0.1-0.01,0.15h-4.83C185.28,52.66,185.36,52.95,185.49,53.21z
				 M189.16,51.66c-0.02-0.28-0.08-0.54-0.17-0.79c-0.09-0.25-0.22-0.47-0.38-0.66c-0.16-0.19-0.36-0.34-0.59-0.45
				c-0.23-0.11-0.5-0.17-0.8-0.17c-0.27,0-0.51,0.05-0.74,0.16c-0.23,0.11-0.43,0.25-0.6,0.44c-0.17,0.19-0.31,0.4-0.42,0.66
				c-0.11,0.25-0.18,0.53-0.21,0.83H189.16z"/>
			<path class="st1" d="M192.59,55.04h-0.91v-6.1h0.91V50c0.2-0.33,0.47-0.61,0.8-0.84c0.33-0.23,0.76-0.35,1.29-0.35
				c0.37,0,0.7,0.06,0.98,0.18c0.29,0.12,0.53,0.29,0.73,0.5c0.2,0.22,0.35,0.47,0.46,0.77s0.16,0.63,0.16,0.99v3.79h-0.91v-3.56
				c0-0.57-0.15-1.02-0.44-1.35c-0.29-0.33-0.71-0.5-1.25-0.5c-0.26,0-0.5,0.05-0.73,0.14c-0.22,0.09-0.42,0.22-0.58,0.39
				c-0.17,0.17-0.29,0.37-0.38,0.61c-0.09,0.24-0.14,0.5-0.14,0.78V55.04z"/>
			<path class="st1" d="M203.14,54.85c-0.39,0.22-0.87,0.33-1.45,0.33c-0.45,0-0.86-0.08-1.25-0.25c-0.38-0.17-0.71-0.4-0.99-0.68
				s-0.5-0.62-0.66-1.01c-0.16-0.39-0.24-0.79-0.24-1.23s0.08-0.84,0.24-1.23c0.16-0.39,0.38-0.73,0.66-1.02
				c0.28-0.29,0.61-0.52,0.99-0.69c0.38-0.17,0.8-0.25,1.25-0.25c0.29,0,0.55,0.03,0.79,0.08c0.24,0.06,0.45,0.13,0.65,0.23
				c0.2,0.1,0.38,0.21,0.54,0.35c0.17,0.13,0.32,0.28,0.46,0.42l-0.6,0.64c-0.24-0.25-0.51-0.47-0.8-0.65
				c-0.29-0.18-0.64-0.27-1.06-0.27c-0.31,0-0.59,0.06-0.86,0.18c-0.27,0.12-0.5,0.29-0.7,0.51c-0.2,0.22-0.35,0.47-0.46,0.75
				c-0.11,0.29-0.17,0.59-0.17,0.92s0.06,0.64,0.17,0.93c0.11,0.29,0.27,0.54,0.47,0.76c0.2,0.22,0.44,0.38,0.71,0.51
				s0.57,0.18,0.89,0.18c0.39,0,0.74-0.09,1.04-0.26c0.3-0.17,0.58-0.39,0.82-0.65l0.58,0.54
				C203.88,54.34,203.53,54.63,203.14,54.85z"/>
			<path class="st1" d="M206.3,53.21c0.13,0.26,0.29,0.47,0.48,0.65c0.2,0.18,0.42,0.31,0.66,0.4c0.24,0.09,0.5,0.14,0.77,0.14
				c0.42,0,0.79-0.08,1.09-0.24c0.3-0.16,0.58-0.37,0.83-0.63l0.57,0.51c-0.31,0.35-0.66,0.62-1.05,0.83
				c-0.39,0.21-0.88,0.31-1.46,0.31c-0.42,0-0.81-0.08-1.18-0.23c-0.37-0.15-0.69-0.37-0.97-0.65s-0.5-0.62-0.66-1.01
				c-0.16-0.39-0.25-0.83-0.25-1.3c0-0.44,0.07-0.86,0.22-1.24c0.15-0.39,0.35-0.73,0.61-1.02c0.26-0.29,0.57-0.51,0.93-0.68
				c0.36-0.17,0.75-0.25,1.17-0.25c0.45,0,0.85,0.08,1.2,0.25c0.35,0.17,0.65,0.4,0.9,0.69c0.24,0.29,0.43,0.63,0.55,1.03
				c0.12,0.39,0.19,0.81,0.19,1.26c0,0.04,0,0.08,0,0.13c0,0.05,0,0.1-0.01,0.15h-4.83C206.1,52.66,206.17,52.95,206.3,53.21z
				 M209.97,51.66c-0.02-0.28-0.08-0.54-0.17-0.79c-0.09-0.25-0.21-0.47-0.38-0.66c-0.16-0.19-0.36-0.34-0.59-0.45
				c-0.23-0.11-0.5-0.17-0.8-0.17c-0.27,0-0.51,0.05-0.74,0.16c-0.23,0.11-0.43,0.25-0.6,0.44c-0.17,0.19-0.31,0.4-0.42,0.66
				c-0.11,0.25-0.18,0.53-0.21,0.83H209.97z"/>
			<path class="st1" d="M212.45,50.18v-1.24h1.08v1.24H212.45z M212.45,55.04V53.8h1.08v1.24H212.45z"/>
			<path class="st1" d="M225.81,53.77c-0.15,0.28-0.35,0.52-0.62,0.71c-0.27,0.19-0.6,0.33-0.98,0.42s-0.8,0.14-1.27,0.14h-3.92
				v-8.26h3.83c0.85,0,1.51,0.19,2,0.58c0.48,0.39,0.72,0.9,0.72,1.56v0.02c0,0.24-0.03,0.44-0.09,0.63s-0.14,0.34-0.23,0.49
				s-0.21,0.27-0.34,0.38c-0.13,0.11-0.27,0.2-0.42,0.28c0.48,0.18,0.85,0.43,1.13,0.74c0.27,0.31,0.41,0.74,0.41,1.29v0.02
				C226.03,53.15,225.96,53.48,225.81,53.77z M223.78,49.23c0-0.28-0.1-0.49-0.31-0.63s-0.5-0.22-0.88-0.22h-1.79v1.75h1.68
				c0.4,0,0.72-0.07,0.96-0.21c0.24-0.14,0.35-0.36,0.35-0.67V49.23z M224.24,52.53c0-0.28-0.11-0.49-0.32-0.66
				c-0.21-0.16-0.55-0.24-1.03-0.24h-2.1v1.82h2.16c0.4,0,0.72-0.07,0.94-0.22c0.23-0.15,0.34-0.37,0.34-0.68V52.53z"/>
			<path class="st1" d="M231.07,50.48c-0.6,0-1.07,0.18-1.41,0.54c-0.34,0.36-0.51,0.92-0.51,1.69v2.34h-1.79v-6.32h1.79v1.27
				c0.18-0.43,0.43-0.78,0.74-1.04s0.74-0.38,1.27-0.35v1.88H231.07z"/>
			<path class="st1" d="M238.56,53.17c-0.17,0.4-0.41,0.75-0.72,1.04c-0.31,0.3-0.67,0.54-1.09,0.71c-0.42,0.17-0.87,0.26-1.37,0.26
				c-0.49,0-0.94-0.08-1.36-0.25c-0.42-0.17-0.78-0.4-1.08-0.7c-0.3-0.3-0.54-0.64-0.71-1.04c-0.17-0.4-0.26-0.82-0.26-1.28v-0.02
				c0-0.46,0.09-0.88,0.26-1.28c0.17-0.4,0.41-0.75,0.72-1.04s0.67-0.54,1.09-0.71s0.87-0.26,1.37-0.26c0.49,0,0.94,0.08,1.36,0.25
				c0.42,0.17,0.78,0.4,1.08,0.7c0.3,0.29,0.54,0.64,0.71,1.04c0.17,0.4,0.26,0.82,0.26,1.28v0.02
				C238.82,52.35,238.73,52.77,238.56,53.17z M237.05,51.89c0-0.24-0.04-0.46-0.12-0.67c-0.08-0.21-0.19-0.39-0.34-0.55
				c-0.15-0.16-0.33-0.29-0.53-0.38c-0.21-0.09-0.43-0.14-0.67-0.14c-0.26,0-0.49,0.05-0.69,0.14c-0.2,0.09-0.37,0.21-0.51,0.37
				c-0.14,0.16-0.25,0.34-0.32,0.55c-0.08,0.21-0.11,0.43-0.11,0.67v0.02c0,0.24,0.04,0.46,0.12,0.67c0.08,0.21,0.19,0.39,0.34,0.55
				s0.32,0.29,0.53,0.38c0.2,0.09,0.43,0.14,0.68,0.14c0.26,0,0.49-0.04,0.69-0.14c0.2-0.09,0.37-0.21,0.51-0.37
				c0.14-0.16,0.25-0.34,0.32-0.55c0.08-0.21,0.11-0.43,0.11-0.67V51.89z"/>
			<path class="st1" d="M244.12,55.04v-3.52c0-0.42-0.09-0.74-0.28-0.96c-0.19-0.22-0.46-0.32-0.8-0.32c-0.35,0-0.62,0.11-0.82,0.32
				c-0.2,0.22-0.3,0.54-0.3,0.96v3.52h-1.79v-6.32h1.79v0.9c0.1-0.13,0.21-0.26,0.34-0.39c0.12-0.12,0.26-0.23,0.41-0.33
				c0.15-0.09,0.31-0.17,0.5-0.23c0.18-0.06,0.38-0.08,0.61-0.08c0.68,0,1.21,0.21,1.59,0.63c0.37,0.42,0.56,0.99,0.56,1.72v4.09
				H244.12z"/>
			<path class="st1" d="M247.26,55.04v-1.26l3.27-3.61h-3.16v-1.45h5.39v1.26l-3.28,3.61h3.28v1.45H247.26z"/>
			<path class="st1" d="M260.01,52.28c0,0.06-0.01,0.14-0.02,0.22h-4.4c0.09,0.41,0.27,0.72,0.54,0.93
				c0.27,0.21,0.61,0.31,1.01,0.31c0.3,0,0.57-0.05,0.8-0.15c0.24-0.1,0.48-0.27,0.73-0.5l1.03,0.91c-0.3,0.37-0.66,0.66-1.09,0.87
				c-0.42,0.21-0.92,0.31-1.5,0.31c-0.47,0-0.91-0.08-1.32-0.24c-0.41-0.16-0.75-0.38-1.05-0.67s-0.53-0.64-0.69-1.03
				c-0.17-0.4-0.25-0.84-0.25-1.33v-0.02c0-0.45,0.08-0.87,0.23-1.27c0.15-0.4,0.37-0.75,0.64-1.05s0.6-0.54,0.99-0.71
				c0.38-0.17,0.8-0.26,1.27-0.26c0.53,0,0.98,0.09,1.37,0.28s0.71,0.44,0.96,0.76c0.25,0.32,0.44,0.68,0.57,1.1
				c0.12,0.41,0.18,0.84,0.18,1.29v0.02C260.01,52.14,260.01,52.22,260.01,52.28z M257.84,50.41c-0.23-0.25-0.53-0.37-0.91-0.37
				c-0.38,0-0.68,0.12-0.91,0.37c-0.23,0.24-0.38,0.57-0.45,0.98h2.7C258.21,50.98,258.07,50.66,257.84,50.41z"/>
		</g>
	</g>
	<g>
		<rect x="91.74" y="65.46" class="st2" width="174.55" height="22.68"/>
		<g>
			<path class="st1" d="M109.98,74.67c0.06,0.16,0.17,0.3,0.33,0.43s0.38,0.25,0.65,0.35s0.64,0.21,1.07,0.3
				c0.88,0.2,1.53,0.49,1.95,0.85c0.42,0.36,0.63,0.86,0.63,1.5c0,0.35-0.07,0.68-0.2,0.97c-0.13,0.29-0.32,0.54-0.55,0.75
				c-0.23,0.2-0.52,0.36-0.85,0.47c-0.33,0.11-0.69,0.17-1.08,0.17c-0.63,0-1.21-0.11-1.73-0.32c-0.52-0.21-1.02-0.54-1.49-0.99
				l0.55-0.68c0.41,0.39,0.83,0.69,1.25,0.88c0.42,0.19,0.91,0.29,1.46,0.29c0.53,0,0.96-0.13,1.28-0.39s0.48-0.6,0.48-1.03
				c0-0.2-0.03-0.37-0.09-0.53c-0.06-0.15-0.17-0.29-0.32-0.42c-0.15-0.13-0.36-0.24-0.63-0.34s-0.61-0.2-1.02-0.3
				c-0.45-0.1-0.85-0.22-1.18-0.35c-0.33-0.13-0.61-0.29-0.83-0.48c-0.22-0.19-0.38-0.41-0.49-0.66c-0.11-0.25-0.16-0.55-0.16-0.9
				c0-0.33,0.06-0.63,0.19-0.91s0.31-0.51,0.54-0.71s0.51-0.36,0.82-0.47c0.32-0.11,0.66-0.17,1.04-0.17c0.58,0,1.08,0.08,1.52,0.25
				c0.43,0.17,0.85,0.42,1.26,0.75l-0.52,0.72c-0.37-0.31-0.74-0.54-1.11-0.68c-0.37-0.14-0.76-0.21-1.17-0.21
				c-0.26,0-0.49,0.04-0.69,0.11c-0.21,0.07-0.38,0.17-0.53,0.28c-0.15,0.12-0.26,0.26-0.34,0.42c-0.08,0.17-0.12,0.34-0.12,0.53
				C109.89,74.33,109.92,74.51,109.98,74.67z"/>
			<path class="st1" d="M117.39,78.61c0,0.38,0.09,0.64,0.27,0.79c0.18,0.15,0.42,0.22,0.71,0.22c0.15,0,0.29-0.02,0.42-0.05
				s0.27-0.09,0.42-0.17v0.78c-0.15,0.09-0.31,0.15-0.48,0.2c-0.17,0.04-0.36,0.06-0.57,0.06c-0.23,0-0.45-0.03-0.65-0.09
				c-0.2-0.06-0.38-0.16-0.52-0.3s-0.26-0.32-0.34-0.54c-0.08-0.22-0.12-0.48-0.12-0.79v-3.68h-0.81v-0.8h0.81V72.4h0.87v1.84h1.85
				v0.8h-1.85V78.61z"/>
			<path class="st1" d="M124.91,74.24h0.86v6.1h-0.86v-1.06c-0.2,0.33-0.45,0.61-0.77,0.84c-0.32,0.23-0.73,0.35-1.23,0.35
				c-0.35,0-0.67-0.06-0.94-0.18s-0.51-0.29-0.7-0.5c-0.19-0.22-0.34-0.47-0.44-0.77s-0.15-0.63-0.15-0.99v-3.79h0.87v3.56
				c0,0.57,0.14,1.02,0.42,1.35s0.68,0.5,1.2,0.5c0.25,0,0.48-0.04,0.69-0.14c0.21-0.09,0.4-0.22,0.55-0.39
				c0.15-0.17,0.28-0.37,0.37-0.61c0.09-0.24,0.14-0.5,0.14-0.78V74.24z"/>
			<path class="st1" d="M132.4,80.34v-1.23c-0.12,0.18-0.25,0.35-0.4,0.52s-0.31,0.31-0.49,0.44c-0.18,0.13-0.38,0.22-0.6,0.29
				c-0.22,0.07-0.47,0.11-0.74,0.11c-0.35,0-0.7-0.07-1.03-0.21s-0.63-0.35-0.89-0.62c-0.26-0.27-0.47-0.6-0.63-1
				c-0.16-0.39-0.24-0.84-0.24-1.34c0-0.5,0.08-0.95,0.24-1.35c0.16-0.39,0.37-0.73,0.63-1c0.26-0.27,0.56-0.48,0.89-0.62
				s0.67-0.22,1.03-0.22c0.27,0,0.52,0.04,0.75,0.11c0.23,0.07,0.43,0.17,0.61,0.28s0.34,0.26,0.49,0.41
				c0.15,0.16,0.28,0.32,0.39,0.5v-3.68h0.87v8.61H132.4z M132.26,76.32c-0.12-0.29-0.27-0.54-0.47-0.74
				c-0.2-0.2-0.42-0.36-0.68-0.48c-0.25-0.11-0.51-0.17-0.78-0.17c-0.29,0-0.55,0.05-0.8,0.16c-0.25,0.11-0.46,0.26-0.65,0.46
				c-0.18,0.2-0.33,0.45-0.44,0.74c-0.11,0.29-0.16,0.62-0.16,0.99c0,0.36,0.05,0.68,0.16,0.97c0.11,0.29,0.26,0.54,0.45,0.75
				c0.19,0.21,0.41,0.37,0.65,0.48s0.51,0.16,0.79,0.16c0.27,0,0.53-0.06,0.78-0.17s0.48-0.27,0.68-0.48
				c0.2-0.2,0.36-0.45,0.47-0.75c0.12-0.29,0.17-0.62,0.17-0.97C132.43,76.93,132.38,76.61,132.26,76.32z"/>
			<path class="st1" d="M135.96,78.51c0.12,0.26,0.27,0.47,0.46,0.65c0.19,0.18,0.4,0.31,0.63,0.4c0.23,0.09,0.48,0.14,0.73,0.14
				c0.41,0,0.75-0.08,1.04-0.24c0.29-0.16,0.55-0.37,0.79-0.62l0.54,0.51c-0.29,0.35-0.63,0.62-1,0.83s-0.84,0.31-1.4,0.31
				c-0.4,0-0.77-0.08-1.13-0.23s-0.66-0.37-0.93-0.65s-0.48-0.62-0.63-1.01c-0.16-0.39-0.23-0.83-0.23-1.3
				c0-0.44,0.07-0.86,0.21-1.25c0.14-0.39,0.33-0.73,0.58-1.01s0.54-0.51,0.89-0.68c0.34-0.17,0.72-0.25,1.12-0.25
				c0.43,0,0.81,0.08,1.15,0.25c0.34,0.17,0.62,0.4,0.86,0.69c0.23,0.29,0.41,0.63,0.53,1.03c0.12,0.39,0.18,0.81,0.18,1.26
				c0,0.04,0,0.08,0,0.13s0,0.1-0.01,0.15h-4.61C135.77,77.96,135.84,78.25,135.96,78.51z M139.47,76.95
				c-0.02-0.28-0.08-0.54-0.16-0.79s-0.21-0.47-0.36-0.66s-0.34-0.34-0.56-0.45s-0.48-0.17-0.77-0.17c-0.25,0-0.49,0.05-0.71,0.16
				s-0.41,0.25-0.57,0.44s-0.3,0.4-0.4,0.66c-0.11,0.25-0.17,0.53-0.2,0.83H139.47z"/>
			<path class="st1" d="M142.75,80.34h-0.87v-6.1h0.87v1.06c0.2-0.33,0.45-0.61,0.77-0.84c0.31-0.23,0.72-0.35,1.23-0.35
				c0.35,0,0.67,0.06,0.94,0.18c0.28,0.12,0.51,0.29,0.7,0.5c0.19,0.22,0.34,0.47,0.44,0.77c0.1,0.3,0.15,0.63,0.15,0.99v3.79h-0.87
				v-3.56c0-0.57-0.14-1.01-0.42-1.34c-0.28-0.33-0.68-0.5-1.2-0.5c-0.25,0-0.48,0.05-0.69,0.14c-0.21,0.09-0.4,0.22-0.56,0.39
				s-0.28,0.37-0.37,0.61c-0.09,0.24-0.13,0.5-0.13,0.78V80.34z"/>
			<path class="st1" d="M150,78.61c0,0.38,0.09,0.64,0.27,0.79c0.18,0.15,0.42,0.22,0.71,0.22c0.15,0,0.29-0.02,0.42-0.05
				c0.13-0.03,0.27-0.09,0.42-0.17v0.78c-0.15,0.09-0.31,0.15-0.48,0.2c-0.17,0.04-0.36,0.06-0.57,0.06c-0.23,0-0.45-0.03-0.65-0.09
				c-0.2-0.06-0.38-0.16-0.52-0.3s-0.26-0.32-0.34-0.54c-0.08-0.22-0.12-0.48-0.12-0.79v-3.68h-0.81v-0.8h0.81V72.4H150v1.84h1.85
				v0.8H150V78.61z"/>
			<path class="st1" d="M162.26,78.52c-0.15,0.39-0.37,0.73-0.64,1.02c-0.27,0.29-0.59,0.52-0.97,0.69
				c-0.38,0.17-0.78,0.25-1.22,0.25c-0.44,0-0.84-0.08-1.21-0.25c-0.37-0.17-0.69-0.4-0.96-0.68s-0.48-0.62-0.63-1.01
				c-0.15-0.39-0.23-0.79-0.23-1.23s0.08-0.84,0.23-1.23s0.36-0.73,0.63-1.02s0.59-0.52,0.96-0.69c0.37-0.17,0.78-0.25,1.22-0.25
				c0.44,0,0.84,0.08,1.21,0.25s0.69,0.4,0.96,0.68c0.27,0.29,0.48,0.62,0.63,1.01s0.23,0.79,0.23,1.23S162.41,78.13,162.26,78.52z
				 M161.44,76.37c-0.11-0.29-0.26-0.54-0.46-0.76s-0.43-0.39-0.69-0.51c-0.26-0.13-0.55-0.19-0.86-0.19
				c-0.32,0-0.61,0.06-0.87,0.18c-0.26,0.12-0.49,0.29-0.67,0.51c-0.18,0.22-0.33,0.47-0.43,0.75c-0.11,0.29-0.16,0.59-0.16,0.92
				c0,0.33,0.05,0.64,0.16,0.93s0.26,0.54,0.45,0.75s0.42,0.38,0.68,0.51c0.26,0.12,0.55,0.19,0.86,0.19c0.32,0,0.61-0.06,0.87-0.18
				c0.26-0.12,0.49-0.29,0.68-0.5s0.34-0.46,0.44-0.75c0.1-0.29,0.16-0.59,0.16-0.92C161.6,76.97,161.54,76.66,161.44,76.37z"/>
			<path class="st1" d="M168.2,74.24h0.86v6.1h-0.86v-1.06c-0.2,0.33-0.45,0.61-0.77,0.84c-0.32,0.23-0.73,0.35-1.23,0.35
				c-0.35,0-0.67-0.06-0.94-0.18c-0.27-0.12-0.51-0.29-0.7-0.5c-0.19-0.22-0.34-0.47-0.44-0.77s-0.15-0.63-0.15-0.99v-3.79h0.87
				v3.56c0,0.57,0.14,1.02,0.42,1.35c0.28,0.33,0.68,0.5,1.2,0.5c0.25,0,0.48-0.04,0.69-0.14c0.21-0.09,0.4-0.22,0.55-0.39
				c0.15-0.17,0.28-0.37,0.37-0.61c0.09-0.24,0.14-0.5,0.14-0.78V74.24z"/>
			<path class="st1" d="M172.18,78.61c0,0.38,0.09,0.64,0.27,0.79c0.18,0.15,0.42,0.22,0.71,0.22c0.15,0,0.29-0.02,0.42-0.05
				c0.13-0.03,0.27-0.09,0.42-0.17v0.78c-0.15,0.09-0.31,0.15-0.48,0.2c-0.17,0.04-0.36,0.06-0.57,0.06c-0.23,0-0.45-0.03-0.65-0.09
				c-0.2-0.06-0.38-0.16-0.52-0.3s-0.26-0.32-0.34-0.54c-0.08-0.22-0.12-0.48-0.12-0.79v-3.68h-0.81v-0.8h0.81V72.4h0.87v1.84h1.85
				v0.8h-1.85V78.61z"/>
			<path class="st1" d="M179.4,80.15c-0.37,0.22-0.83,0.33-1.38,0.33c-0.43,0-0.82-0.08-1.19-0.25c-0.37-0.17-0.68-0.4-0.95-0.68
				s-0.47-0.62-0.62-1.01c-0.15-0.39-0.23-0.79-0.23-1.23s0.08-0.84,0.23-1.23s0.36-0.73,0.62-1.02s0.58-0.52,0.95-0.69
				s0.76-0.25,1.19-0.25c0.28,0,0.53,0.03,0.76,0.08c0.23,0.05,0.43,0.13,0.62,0.23c0.19,0.1,0.36,0.21,0.52,0.35
				c0.16,0.13,0.3,0.28,0.44,0.42l-0.58,0.64c-0.23-0.25-0.49-0.47-0.76-0.65c-0.27-0.18-0.61-0.27-1.01-0.27
				c-0.29,0-0.57,0.06-0.82,0.18c-0.26,0.12-0.48,0.29-0.67,0.51s-0.33,0.47-0.44,0.75c-0.11,0.29-0.16,0.59-0.16,0.92
				c0,0.33,0.05,0.64,0.16,0.93s0.26,0.54,0.45,0.76c0.19,0.22,0.42,0.38,0.68,0.51c0.26,0.12,0.54,0.18,0.85,0.18
				c0.38,0,0.71-0.09,1-0.26c0.29-0.17,0.55-0.39,0.79-0.65l0.55,0.54C180.11,79.64,179.77,79.92,179.4,80.15z"/>
			<path class="st1" d="M187.15,78.52c-0.15,0.39-0.37,0.73-0.64,1.02c-0.27,0.29-0.59,0.52-0.97,0.69
				c-0.38,0.17-0.78,0.25-1.22,0.25s-0.84-0.08-1.21-0.25c-0.37-0.17-0.69-0.4-0.96-0.68c-0.27-0.29-0.48-0.62-0.63-1.01
				c-0.15-0.39-0.22-0.79-0.22-1.23s0.07-0.84,0.22-1.23s0.36-0.73,0.63-1.02c0.27-0.29,0.59-0.52,0.96-0.69
				c0.37-0.17,0.78-0.25,1.22-0.25c0.44,0,0.84,0.08,1.21,0.25c0.37,0.17,0.7,0.4,0.96,0.68c0.27,0.29,0.48,0.62,0.63,1.01
				c0.15,0.39,0.22,0.79,0.22,1.23S187.31,78.13,187.15,78.52z M186.33,76.37c-0.11-0.29-0.26-0.54-0.46-0.76s-0.42-0.39-0.69-0.51
				s-0.55-0.19-0.86-0.19c-0.32,0-0.61,0.06-0.87,0.18c-0.26,0.12-0.49,0.29-0.67,0.51s-0.33,0.47-0.43,0.75
				c-0.11,0.29-0.16,0.59-0.16,0.92c0,0.33,0.05,0.64,0.16,0.93c0.11,0.29,0.26,0.54,0.45,0.75c0.19,0.21,0.42,0.38,0.68,0.51
				c0.26,0.12,0.55,0.19,0.86,0.19c0.31,0,0.61-0.06,0.87-0.18c0.26-0.12,0.49-0.29,0.68-0.5s0.33-0.46,0.44-0.75
				s0.16-0.59,0.16-0.92C186.49,76.97,186.44,76.66,186.33,76.37z"/>
			<path class="st1" d="M193.93,74.85c0.13-0.15,0.28-0.28,0.45-0.39c0.17-0.11,0.35-0.2,0.56-0.26c0.21-0.06,0.44-0.09,0.69-0.09
				c0.68,0,1.21,0.22,1.59,0.66c0.38,0.44,0.57,1.04,0.57,1.8v3.78h-0.87v-3.56c0-0.59-0.13-1.04-0.4-1.36
				c-0.27-0.32-0.64-0.48-1.11-0.48c-0.22,0-0.43,0.04-0.62,0.12s-0.37,0.21-0.51,0.37s-0.26,0.36-0.35,0.6
				c-0.09,0.24-0.13,0.5-0.13,0.8v3.52h-0.86v-3.59c0-0.57-0.13-1.02-0.4-1.34c-0.27-0.32-0.63-0.48-1.1-0.48
				c-0.23,0-0.45,0.05-0.64,0.14s-0.37,0.23-0.51,0.4s-0.26,0.38-0.34,0.61c-0.08,0.23-0.12,0.49-0.12,0.77v3.48h-0.87v-6.1h0.87
				v1.03c0.1-0.15,0.21-0.29,0.32-0.44s0.25-0.26,0.4-0.37s0.32-0.19,0.51-0.25c0.19-0.06,0.41-0.09,0.65-0.09
				c0.47,0,0.86,0.12,1.17,0.35c0.31,0.23,0.54,0.52,0.7,0.87C193.68,75.16,193.8,75,193.93,74.85z"/>
			<path class="st1" d="M200.43,78.51c0.12,0.26,0.28,0.47,0.46,0.65s0.4,0.31,0.63,0.4c0.23,0.09,0.48,0.14,0.73,0.14
				c0.41,0,0.75-0.08,1.04-0.24s0.55-0.37,0.79-0.62l0.54,0.51c-0.29,0.35-0.63,0.62-1,0.83c-0.38,0.21-0.84,0.31-1.4,0.31
				c-0.4,0-0.77-0.08-1.13-0.23s-0.66-0.37-0.93-0.65c-0.27-0.28-0.48-0.62-0.63-1.01c-0.15-0.39-0.23-0.83-0.23-1.3
				c0-0.44,0.07-0.86,0.21-1.25c0.14-0.39,0.33-0.73,0.58-1.01s0.54-0.51,0.88-0.68s0.72-0.25,1.12-0.25c0.43,0,0.81,0.08,1.15,0.25
				c0.34,0.17,0.62,0.4,0.86,0.69c0.23,0.29,0.41,0.63,0.53,1.03c0.12,0.39,0.18,0.81,0.18,1.26c0,0.04,0,0.08,0,0.13
				s0,0.1-0.01,0.15h-4.61C200.24,77.96,200.31,78.25,200.43,78.51z M203.94,76.95c-0.02-0.28-0.08-0.54-0.16-0.79
				s-0.21-0.47-0.36-0.66c-0.15-0.19-0.34-0.34-0.56-0.45s-0.48-0.17-0.77-0.17c-0.25,0-0.49,0.05-0.71,0.16s-0.41,0.25-0.57,0.44
				s-0.3,0.4-0.4,0.66c-0.11,0.25-0.17,0.53-0.2,0.83H203.94z"/>
			<path class="st1" d="M210.19,79.4c-0.11,0.22-0.26,0.42-0.44,0.57c-0.19,0.16-0.4,0.28-0.65,0.36c-0.25,0.08-0.53,0.12-0.82,0.12
				c-0.42,0-0.85-0.08-1.27-0.24c-0.43-0.16-0.81-0.38-1.14-0.65l0.44-0.65c0.31,0.25,0.64,0.44,0.99,0.58s0.69,0.2,1.03,0.2
				c0.35,0,0.64-0.09,0.87-0.26c0.23-0.17,0.34-0.41,0.34-0.71V78.7c0-0.15-0.04-0.28-0.12-0.39c-0.08-0.11-0.19-0.21-0.32-0.29
				c-0.13-0.08-0.29-0.16-0.47-0.22c-0.18-0.06-0.36-0.12-0.55-0.18c-0.22-0.07-0.45-0.15-0.68-0.23c-0.23-0.08-0.44-0.19-0.62-0.31
				c-0.18-0.12-0.33-0.28-0.45-0.47c-0.12-0.19-0.17-0.42-0.17-0.71v-0.02c0-0.26,0.05-0.5,0.15-0.71c0.1-0.22,0.23-0.4,0.41-0.55
				c0.18-0.15,0.39-0.27,0.63-0.35c0.24-0.08,0.51-0.12,0.79-0.12c0.36,0,0.73,0.06,1.09,0.18c0.37,0.12,0.7,0.29,1,0.49l-0.39,0.68
				c-0.27-0.18-0.55-0.32-0.85-0.43s-0.59-0.16-0.87-0.16c-0.35,0-0.62,0.08-0.82,0.25s-0.3,0.38-0.3,0.63v0.02
				c0,0.14,0.04,0.27,0.12,0.37c0.08,0.11,0.19,0.2,0.33,0.28c0.14,0.08,0.3,0.15,0.48,0.21c0.18,0.06,0.37,0.13,0.56,0.19
				c0.23,0.07,0.45,0.15,0.67,0.24c0.22,0.09,0.42,0.2,0.6,0.33c0.18,0.13,0.32,0.29,0.43,0.48s0.16,0.42,0.16,0.7v0.02
				C210.36,78.92,210.3,79.18,210.19,79.4z"/>
			<path class="st1" d="M211.92,75.48v-1.24h1.04v1.24H211.92z M211.92,80.34V79.1h1.04v1.24H211.92z"/>
			<path class="st1" d="M223.7,78.99c-0.14,0.32-0.34,0.59-0.59,0.8c-0.25,0.22-0.56,0.38-0.91,0.5s-0.74,0.17-1.17,0.17
				c-0.6,0-1.19-0.11-1.77-0.32c-0.58-0.22-1.11-0.55-1.58-1l1.03-1.29c0.36,0.31,0.73,0.55,1.11,0.73
				c0.38,0.18,0.79,0.27,1.25,0.27c0.36,0,0.64-0.07,0.84-0.21s0.3-0.33,0.3-0.57v-0.02c0-0.12-0.02-0.22-0.06-0.31
				s-0.12-0.17-0.24-0.25c-0.12-0.08-0.28-0.16-0.49-0.24c-0.21-0.08-0.48-0.16-0.81-0.25c-0.4-0.1-0.76-0.22-1.09-0.34
				c-0.32-0.12-0.6-0.28-0.83-0.47s-0.4-0.42-0.53-0.69s-0.19-0.62-0.19-1.03v-0.02c0-0.38,0.07-0.72,0.2-1.02
				c0.13-0.3,0.32-0.56,0.56-0.79c0.24-0.22,0.53-0.39,0.87-0.51c0.34-0.12,0.71-0.18,1.11-0.18c0.58,0,1.11,0.09,1.6,0.27
				c0.49,0.18,0.93,0.44,1.34,0.78l-0.9,1.37c-0.35-0.25-0.7-0.45-1.04-0.6c-0.34-0.15-0.68-0.22-1.01-0.22s-0.59,0.07-0.76,0.21
				s-0.25,0.31-0.25,0.51v0.02c0,0.13,0.03,0.25,0.07,0.35c0.05,0.1,0.14,0.19,0.27,0.27c0.13,0.08,0.3,0.15,0.53,0.22
				c0.22,0.07,0.5,0.15,0.84,0.25c0.4,0.11,0.76,0.23,1.07,0.37c0.31,0.14,0.58,0.3,0.79,0.5c0.21,0.19,0.38,0.42,0.49,0.68
				s0.16,0.57,0.16,0.93v0.02C223.91,78.31,223.84,78.67,223.7,78.99z"/>
			<path class="st1" d="M225.28,73.32v-1.59h1.8v1.59H225.28z M225.32,80.34v-6.32h1.71v6.32H225.32z"/>
			<path class="st1" d="M228.73,80.34v-8.61h1.71v8.61H228.73z"/>
			<path class="st1" d="M235.45,80.39h-1.56l-2.38-6.37h1.81l1.35,4.24l1.37-4.24h1.78L235.45,80.39z"/>
			<path class="st1" d="M244.46,77.58c0,0.06-0.01,0.14-0.02,0.22h-4.21c0.08,0.41,0.25,0.72,0.51,0.93s0.58,0.31,0.96,0.31
				c0.29,0,0.54-0.05,0.77-0.15c0.23-0.1,0.46-0.27,0.7-0.5l0.98,0.91c-0.29,0.37-0.63,0.66-1.04,0.87
				c-0.41,0.21-0.88,0.31-1.43,0.31c-0.45,0-0.87-0.08-1.26-0.24c-0.39-0.16-0.72-0.38-1-0.67c-0.28-0.29-0.5-0.64-0.66-1.03
				c-0.16-0.4-0.24-0.84-0.24-1.33v-0.02c0-0.45,0.07-0.87,0.22-1.27s0.35-0.75,0.62-1.05c0.26-0.3,0.58-0.54,0.94-0.71
				c0.36-0.17,0.77-0.26,1.21-0.26c0.5,0,0.94,0.09,1.31,0.28c0.37,0.19,0.68,0.44,0.92,0.76s0.42,0.68,0.54,1.1
				s0.18,0.84,0.18,1.29v0.02C244.46,77.44,244.46,77.52,244.46,77.58z M242.39,75.71c-0.22-0.25-0.51-0.37-0.87-0.37
				c-0.36,0-0.65,0.12-0.88,0.37c-0.22,0.24-0.37,0.57-0.43,0.98h2.58C242.74,76.28,242.6,75.96,242.39,75.71z"/>
			<path class="st1" d="M249.29,75.77c-0.57,0-1.02,0.18-1.35,0.54c-0.33,0.36-0.49,0.92-0.49,1.69v2.34h-1.71v-6.32h1.71v1.27
				c0.17-0.43,0.41-0.78,0.71-1.04s0.71-0.38,1.22-0.35v1.88H249.29z"/>
		</g>
	</g>
	<g>
		<g>
			<rect x="3.44" y="3.71" class="st1" width="84.42" height="84.42"/>
			<linearGradient id="SVGID_1_" gradientUnits="userSpaceOnUse" x1="92.4658" y1="6.9311" x2="35.2821" y2="105.9761">
				<stop  offset="0" style="stop-color:#172852"/>
				<stop  offset="0.0271" style="stop-color:#182D56"/>
				<stop  offset="0.069" style="stop-color:#1C3A63"/>
				<stop  offset="0.1203" style="stop-color:#23507A"/>
				<stop  offset="0.1787" style="stop-color:#2C709F"/>
				<stop  offset="0.2365" style="stop-color:#2E9ED9"/>
				<stop  offset="0.3735" style="stop-color:#265984"/>
				<stop  offset="0.4709" style="stop-color:#1B365E"/>
				<stop  offset="0.5175" style="stop-color:#172852"/>
				<stop  offset="0.5493" style="stop-color:#182C55"/>
				<stop  offset="0.5943" style="stop-color:#1B3860"/>
				<stop  offset="0.6471" style="stop-color:#224A73"/>
				<stop  offset="0.7059" style="stop-color:#2A6592"/>
				<stop  offset="0.769" style="stop-color:#2F8DC1"/>
				<stop  offset="0.7882" style="stop-color:#2E9ED9"/>
				<stop  offset="0.798" style="stop-color:#2F92C8"/>
				<stop  offset="0.8495" style="stop-color:#2B6895"/>
				<stop  offset="0.8971" style="stop-color:#224C75"/>
				<stop  offset="0.9396" style="stop-color:#1B3861"/>
				<stop  offset="0.9754" style="stop-color:#182C55"/>
				<stop  offset="1" style="stop-color:#172852"/>
			</linearGradient>
			<polygon class="st3" points="87.61,87.85 3.89,87.85 87.61,4.13 			"/>
		</g>
		<g>
			<g>
				<path class="st4" d="M24.97,24.96V47.5h-6.22V24.96h-8.6v-5.74h23.43v5.74H24.97z"/>
				<path class="st4" d="M36.04,47.5V19.23h21.28v5.53H42.18v5.74h13.33v5.53H42.18v5.94h15.35v5.53H36.04z"/>
				<path class="st4" d="M65.85,24.84v6.1h13.49v5.61H65.85V47.5h-6.22V19.23h21.53v5.61H65.85z"/>
			</g>
			<g>
				<path class="st4" d="M17.22,55.44c-0.79,0.56-1.58,1.39-2.35,2.47l-1.6-1.16c0.44-0.64,0.89-1.22,1.35-1.74
					c0.46-0.51,0.96-0.94,1.51-1.29c0.54-0.35,1.15-0.61,1.82-0.79c0.67-0.18,1.43-0.27,2.28-0.27c0.88,0,1.69,0.14,2.42,0.41
					c0.73,0.28,1.36,0.66,1.89,1.15c0.53,0.49,0.95,1.07,1.24,1.74c0.29,0.67,0.44,1.41,0.44,2.2c0,0.72-0.1,1.37-0.29,1.96
					c-0.19,0.59-0.49,1.18-0.9,1.76c-0.41,0.58-0.91,1.18-1.52,1.8c-0.61,0.62-1.34,1.3-2.18,2.03l-5.17,4.59h10.26v1.99H12.9V70.6
					l7.02-6.2c0.74-0.66,1.36-1.26,1.88-1.8c0.52-0.54,0.94-1.04,1.26-1.51c0.32-0.47,0.55-0.93,0.69-1.38
					c0.14-0.45,0.21-0.92,0.21-1.4c0-0.57-0.11-1.08-0.32-1.54c-0.21-0.45-0.49-0.84-0.84-1.16c-0.35-0.32-0.77-0.57-1.24-0.75
					c-0.48-0.18-0.98-0.26-1.49-0.26C18.96,54.59,18.01,54.87,17.22,55.44z"/>
				<path class="st4" d="M45.03,66.45c-0.39,1.22-0.94,2.28-1.65,3.19c-0.71,0.91-1.57,1.64-2.59,2.17c-1.01,0.53-2.14,0.8-3.37,0.8
					c-1.25,0-2.38-0.26-3.39-0.79c-1-0.53-1.86-1.24-2.57-2.16c-0.71-0.91-1.25-1.97-1.63-3.18c-0.38-1.21-0.57-2.49-0.57-3.86
					c0-1.36,0.19-2.65,0.58-3.87c0.39-1.22,0.94-2.28,1.65-3.19c0.71-0.91,1.57-1.64,2.59-2.17c1.01-0.53,2.15-0.8,3.4-0.8
					c1.23,0,2.35,0.26,3.36,0.79c1,0.53,1.86,1.24,2.57,2.16c0.71,0.91,1.25,1.97,1.63,3.18c0.38,1.21,0.57,2.49,0.57,3.86
					C45.61,63.95,45.42,65.24,45.03,66.45z M42.93,59.58c-0.28-0.97-0.67-1.82-1.19-2.56c-0.52-0.74-1.14-1.33-1.87-1.77
					c-0.73-0.44-1.54-0.66-2.45-0.66c-0.9,0-1.72,0.22-2.45,0.65c-0.73,0.43-1.35,1.01-1.85,1.74c-0.51,0.73-0.9,1.58-1.18,2.54
					c-0.28,0.97-0.41,1.99-0.41,3.06c0,1.07,0.14,2.09,0.41,3.07c0.28,0.98,0.67,1.83,1.19,2.57c0.52,0.74,1.14,1.32,1.88,1.76
					c0.74,0.43,1.56,0.65,2.46,0.65c0.9,0,1.72-0.22,2.45-0.65c0.73-0.43,1.35-1.01,1.85-1.74c0.51-0.73,0.89-1.58,1.16-2.54
					c0.27-0.97,0.4-1.99,0.4-3.06C43.35,61.57,43.21,60.55,42.93,59.58z"/>
				<path class="st4" d="M52.11,55.44c-0.79,0.56-1.58,1.39-2.35,2.47l-1.6-1.16c0.44-0.64,0.89-1.22,1.35-1.74
					c0.46-0.51,0.96-0.94,1.51-1.29c0.54-0.35,1.15-0.61,1.82-0.79c0.67-0.18,1.43-0.27,2.28-0.27c0.88,0,1.69,0.14,2.42,0.41
					c0.73,0.28,1.36,0.66,1.89,1.15c0.53,0.49,0.95,1.07,1.24,1.74c0.3,0.67,0.44,1.41,0.44,2.2c0,0.72-0.1,1.37-0.29,1.96
					c-0.19,0.59-0.49,1.18-0.9,1.76c-0.41,0.58-0.91,1.18-1.52,1.8c-0.61,0.62-1.34,1.3-2.18,2.03l-5.17,4.59h10.26v1.99H47.8V70.6
					l7.02-6.2c0.74-0.66,1.36-1.26,1.88-1.8c0.52-0.54,0.94-1.04,1.26-1.51c0.32-0.47,0.55-0.93,0.69-1.38
					c0.14-0.45,0.21-0.92,0.21-1.4c0-0.57-0.11-1.08-0.32-1.54c-0.21-0.45-0.49-0.84-0.84-1.16s-0.77-0.57-1.24-0.75
					c-0.48-0.18-0.98-0.26-1.49-0.26C53.85,54.59,52.9,54.87,52.11,55.44z"/>
				<path class="st4" d="M65.77,54.87v-1.94h12.34v1.6l-6.06,6.75c0.85,0.07,1.66,0.23,2.43,0.47c0.77,0.24,1.45,0.58,2.03,1.02
					c0.58,0.44,1.04,1,1.38,1.66c0.35,0.66,0.52,1.44,0.52,2.32c0,0.87-0.17,1.66-0.5,2.38c-0.34,0.72-0.79,1.34-1.37,1.85
					c-0.58,0.52-1.26,0.92-2.04,1.2c-0.78,0.29-1.63,0.43-2.53,0.43c-1.62,0-3.03-0.32-4.23-0.95c-1.2-0.64-2.19-1.47-2.99-2.5
					l1.58-1.41c0.76,0.92,1.59,1.63,2.5,2.13c0.91,0.5,1.97,0.75,3.17,0.75c0.59,0,1.14-0.09,1.66-0.26
					c0.52-0.17,0.96-0.43,1.34-0.76c0.38-0.33,0.68-0.73,0.9-1.2s0.33-0.99,0.33-1.56c0-1.22-0.5-2.15-1.51-2.79
					c-1.01-0.65-2.31-0.97-3.91-0.97h-1.24l-0.44-1.3l6.11-6.91H65.77z"/>
			</g>
		</g>
	</g>
</g>
</svg>
