<?xml version="1.0" encoding="utf-8"?>
<!-- Generator: Adobe Illustrator 27.0.0, SVG Export Plug-In . SVG Version: 6.00 Build 0)  -->
<svg version="1.1" id="Layer_1" xmlns="http://www.w3.org/2000/svg" xmlns:xlink="http://www.w3.org/1999/xlink" x="0px" y="0px"
	 viewBox="0 0 269.29 113.39" style="enable-background:new 0 0 269.29 113.39;" xml:space="preserve">
<style type="text/css">
	.st0{fill:#FCB53B;}
	.st1{fill:#001F4E;}
	.st2{fill:url(#SVGID_1_);stroke:#172852;stroke-width:0.5038;stroke-miterlimit:10;}
	.st3{fill:#FFFFFF;}
</style>
<g>
	<rect x="91.64" y="3.67" class="st0" width="174.55" height="32.91"/>
	<g>
		<path class="st1" d="M126.26,23.28c-0.35,0.87-0.83,1.64-1.46,2.31c-0.63,0.67-1.38,1.2-2.26,1.59s-1.85,0.59-2.92,0.59
			c-1.07,0-2.04-0.19-2.91-0.58c-0.87-0.39-1.62-0.91-2.25-1.57c-0.63-0.66-1.11-1.43-1.45-2.3c-0.34-0.87-0.51-1.8-0.51-2.77
			c0-0.97,0.17-1.9,0.52-2.77c0.35-0.87,0.83-1.64,1.46-2.31c0.63-0.67,1.38-1.2,2.26-1.59c0.88-0.39,1.85-0.59,2.92-0.59
			c1.07,0,2.04,0.19,2.91,0.58c0.87,0.39,1.62,0.91,2.25,1.57c0.63,0.66,1.11,1.43,1.45,2.3c0.34,0.87,0.51,1.8,0.51,2.77
			C126.78,21.48,126.6,22.41,126.26,23.28z M124.73,18.29c-0.27-0.71-0.66-1.32-1.15-1.84c-0.49-0.52-1.08-0.93-1.75-1.24
			s-1.41-0.46-2.21-0.46s-1.54,0.15-2.21,0.45c-0.67,0.3-1.25,0.71-1.73,1.23c-0.48,0.52-0.86,1.13-1.13,1.83
			c-0.27,0.7-0.41,1.45-0.41,2.25s0.14,1.55,0.41,2.26c0.27,0.71,0.66,1.32,1.15,1.84c0.49,0.52,1.08,0.93,1.75,1.24
			c0.67,0.31,1.41,0.46,2.21,0.46s1.54-0.15,2.21-0.45c0.67-0.3,1.25-0.71,1.73-1.23s0.86-1.13,1.13-1.83s0.41-1.45,0.41-2.25
			S125,19,124.73,18.29z"/>
		<path class="st1" d="M138.02,17.19h1.66l-4.5,10.42h-1.36l-4.48-10.42h1.7l3.48,8.58L138.02,17.19z"/>
		<path class="st1" d="M143.34,24.42c0.21,0.43,0.49,0.8,0.82,1.1c0.33,0.3,0.71,0.53,1.12,0.68c0.41,0.15,0.85,0.23,1.3,0.23
			c0.72,0,1.34-0.13,1.85-0.4c0.51-0.27,0.98-0.62,1.41-1.06l0.96,0.86c-0.52,0.59-1.11,1.06-1.78,1.41s-1.49,0.53-2.48,0.53
			c-0.71,0-1.37-0.13-2-0.39c-0.63-0.26-1.17-0.63-1.64-1.1c-0.47-0.47-0.84-1.04-1.12-1.71c-0.28-0.67-0.42-1.4-0.42-2.2
			c0-0.75,0.12-1.45,0.37-2.11s0.59-1.23,1.03-1.72c0.44-0.49,0.96-0.87,1.57-1.15c0.61-0.28,1.27-0.42,1.99-0.42
			c0.76,0,1.44,0.14,2.04,0.43c0.6,0.29,1.11,0.68,1.52,1.17c0.41,0.49,0.73,1.07,0.94,1.74c0.21,0.67,0.32,1.38,0.32,2.14
			c0,0.07,0,0.14,0,0.22s-0.01,0.17-0.02,0.26h-8.18C142.99,23.49,143.12,23.99,143.34,24.42z M149.56,21.79
			c-0.04-0.47-0.14-0.91-0.29-1.34c-0.15-0.43-0.37-0.8-0.64-1.12c-0.27-0.32-0.6-0.58-0.99-0.77c-0.39-0.19-0.84-0.29-1.36-0.29
			c-0.45,0-0.87,0.09-1.25,0.27c-0.38,0.18-0.72,0.43-1.01,0.74c-0.29,0.31-0.53,0.68-0.72,1.11c-0.19,0.43-0.3,0.89-0.36,1.4
			H149.56z"/>
		<path class="st1" d="M155.88,27.53h-1.54V17.19h1.54v2.7c0.19-0.43,0.42-0.82,0.7-1.18c0.28-0.36,0.6-0.67,0.96-0.93
			c0.36-0.26,0.75-0.46,1.18-0.59c0.43-0.13,0.89-0.19,1.38-0.18v1.66h-0.12c-0.56,0-1.09,0.1-1.59,0.3c-0.5,0.2-0.94,0.5-1.31,0.9
			c-0.37,0.4-0.67,0.9-0.88,1.49s-0.32,1.28-0.32,2.05V27.53z"/>
		<path class="st1" d="M164.51,18.62c-0.5,0.14-0.99,0.32-1.47,0.55l-0.46-1.26c0.57-0.27,1.15-0.48,1.74-0.63
			c0.59-0.15,1.26-0.23,2.02-0.23c1.41,0,2.5,0.35,3.26,1.05c0.76,0.7,1.14,1.74,1.14,3.11v6.32h-1.48v-1.56
			c-0.36,0.47-0.84,0.88-1.45,1.24c-0.61,0.36-1.37,0.54-2.29,0.54c-0.48,0-0.95-0.07-1.41-0.2s-0.87-0.34-1.24-0.61
			c-0.37-0.27-0.66-0.61-0.88-1.01c-0.22-0.4-0.33-0.87-0.33-1.42c0-0.55,0.11-1.03,0.32-1.45c0.21-0.42,0.52-0.77,0.91-1.05
			s0.86-0.49,1.4-0.64c0.54-0.15,1.14-0.22,1.79-0.22c0.67,0,1.25,0.04,1.74,0.12c0.49,0.08,0.97,0.19,1.44,0.32v-0.36
			c0-0.93-0.27-1.64-0.81-2.11c-0.54-0.47-1.3-0.71-2.27-0.71C165.56,18.41,165.01,18.48,164.51,18.62z M164.02,22.87
			c-0.52,0.39-0.78,0.91-0.78,1.58c0,0.33,0.07,0.63,0.21,0.88c0.14,0.25,0.33,0.47,0.57,0.65c0.24,0.18,0.51,0.32,0.83,0.41
			c0.31,0.09,0.64,0.14,0.99,0.14c0.48,0,0.93-0.07,1.35-0.21s0.78-0.33,1.1-0.58c0.31-0.25,0.56-0.54,0.74-0.88
			s0.27-0.72,0.27-1.13v-1c-0.39-0.11-0.83-0.21-1.33-0.3c-0.5-0.09-1.07-0.14-1.7-0.14C165.28,22.29,164.53,22.48,164.02,22.87z"/>
		<path class="st1" d="M174.66,27.53v-14.6h1.54v14.6H174.66z"/>
		<path class="st1" d="M180.42,27.53v-14.6h1.54v14.6H180.42z"/>
		<path class="st1" d="M185.96,19.29v-2.1h1.84v2.1H185.96z M185.96,27.53v-2.1h1.84v2.1H185.96z"/>
		<path class="st1" d="M208.25,27.12c-0.99,0.43-2.13,0.65-3.41,0.65c-1.09,0-2.09-0.18-2.99-0.54c-0.9-0.36-1.67-0.86-2.32-1.5
			c-0.65-0.64-1.15-1.4-1.51-2.28c-0.36-0.88-0.54-1.84-0.54-2.88v-0.04c0-1,0.18-1.94,0.55-2.81c0.37-0.87,0.88-1.64,1.53-2.3
			c0.65-0.66,1.43-1.18,2.32-1.56s1.87-0.57,2.94-0.57c0.63,0,1.2,0.04,1.71,0.13c0.51,0.09,0.99,0.21,1.43,0.37
			c0.44,0.16,0.85,0.36,1.24,0.6c0.39,0.24,0.76,0.51,1.12,0.82l-1.94,2.34c-0.27-0.23-0.53-0.43-0.8-0.6
			c-0.27-0.17-0.54-0.32-0.83-0.44s-0.6-0.21-0.93-0.28c-0.33-0.07-0.7-0.1-1.1-0.1c-0.56,0-1.08,0.12-1.57,0.35
			c-0.49,0.23-0.91,0.55-1.28,0.94c-0.37,0.39-0.65,0.86-0.86,1.38c-0.21,0.53-0.31,1.09-0.31,1.69v0.04c0,0.64,0.1,1.23,0.31,1.77
			c0.21,0.54,0.5,1.01,0.88,1.41c0.38,0.4,0.83,0.71,1.34,0.93c0.51,0.22,1.08,0.33,1.71,0.33c1.15,0,2.11-0.28,2.9-0.85v-2.01h-3.1
			v-2.66h6.08v6.08C210.1,26.16,209.24,26.69,208.25,27.12z"/>
		<path class="st1" d="M224.6,24.36c-0.29,0.67-0.7,1.26-1.22,1.77c-0.52,0.51-1.13,0.91-1.84,1.2c-0.71,0.29-1.48,0.44-2.32,0.44
			c-0.83,0-1.59-0.14-2.3-0.43c-0.71-0.29-1.32-0.68-1.83-1.18c-0.51-0.5-0.92-1.09-1.21-1.76c-0.29-0.67-0.44-1.4-0.44-2.17v-0.04
			c0-0.77,0.15-1.5,0.44-2.17c0.29-0.67,0.7-1.26,1.22-1.77c0.52-0.51,1.13-0.91,1.84-1.2c0.71-0.29,1.48-0.44,2.32-0.44
			c0.83,0,1.59,0.14,2.3,0.43c0.71,0.29,1.32,0.68,1.83,1.18s0.92,1.09,1.21,1.76s0.44,1.4,0.44,2.17v0.04
			C225.04,22.96,224.89,23.69,224.6,24.36z M222.04,22.19c0-0.4-0.07-0.78-0.2-1.13c-0.13-0.35-0.33-0.67-0.58-0.94
			c-0.25-0.27-0.55-0.49-0.9-0.65s-0.73-0.24-1.14-0.24c-0.44,0-0.83,0.08-1.17,0.23s-0.63,0.36-0.87,0.63s-0.42,0.58-0.55,0.93
			c-0.13,0.35-0.19,0.73-0.19,1.13v0.04c0,0.4,0.07,0.78,0.2,1.13c0.13,0.35,0.33,0.67,0.58,0.94c0.25,0.27,0.55,0.49,0.89,0.65
			c0.34,0.16,0.72,0.24,1.15,0.24c0.44,0,0.83-0.08,1.17-0.23s0.63-0.36,0.87-0.63c0.24-0.27,0.42-0.58,0.55-0.93
			c0.13-0.35,0.19-0.73,0.19-1.13V22.19z"/>
		<path class="st1" d="M227.88,27.53v-14.6h3.04v14.6H227.88z"/>
		<path class="st1" d="M242.02,27.53V26c-0.37,0.5-0.82,0.92-1.35,1.24c-0.53,0.32-1.19,0.49-1.99,0.49c-0.63,0-1.23-0.12-1.82-0.36
			c-0.59-0.24-1.11-0.6-1.56-1.07c-0.45-0.47-0.82-1.05-1.09-1.74c-0.27-0.69-0.41-1.48-0.41-2.37v-0.04c0-0.89,0.14-1.68,0.41-2.37
			c0.27-0.69,0.63-1.27,1.08-1.74c0.45-0.47,0.96-0.83,1.55-1.07c0.59-0.24,1.2-0.36,1.84-0.36c0.81,0,1.48,0.16,2.01,0.48
			c0.53,0.32,0.97,0.69,1.33,1.11v-5.27h3.04v14.6H242.02z M242.06,22.15c0-0.44-0.07-0.85-0.21-1.22
			c-0.14-0.37-0.33-0.68-0.56-0.95s-0.51-0.46-0.82-0.6s-0.65-0.21-1.01-0.21c-0.36,0-0.7,0.07-1.01,0.21s-0.59,0.34-0.83,0.6
			s-0.43,0.57-0.57,0.94c-0.14,0.36-0.21,0.77-0.21,1.23v0.04c0,0.44,0.07,0.85,0.21,1.22c0.14,0.37,0.33,0.68,0.57,0.95
			s0.52,0.46,0.83,0.6s0.65,0.21,1.01,0.21c0.36,0,0.7-0.07,1.01-0.21s0.59-0.34,0.82-0.6s0.42-0.58,0.56-0.95
			c0.14-0.37,0.21-0.78,0.21-1.22V22.15z"/>
	</g>
	<g>
		<path class="st1" d="M8.67,107.59H7.39V97.4H3.57v-1.19h8.92v1.19H8.67V107.59z"/>
		<path class="st1" d="M13.92,105.06c0.17,0.35,0.4,0.65,0.67,0.89c0.27,0.24,0.57,0.43,0.91,0.55c0.34,0.12,0.69,0.19,1.06,0.19
			c0.58,0,1.09-0.11,1.5-0.33s0.8-0.5,1.15-0.86l0.78,0.7c-0.42,0.48-0.91,0.86-1.45,1.15c-0.54,0.29-1.21,0.43-2.02,0.43
			c-0.57,0-1.12-0.11-1.62-0.32c-0.51-0.21-0.95-0.51-1.34-0.89s-0.69-0.85-0.91-1.39s-0.34-1.14-0.34-1.79
			c0-0.61,0.1-1.18,0.3-1.71c0.2-0.54,0.48-1,0.84-1.4s0.78-0.71,1.28-0.93c0.49-0.23,1.03-0.34,1.62-0.34
			c0.62,0,1.17,0.12,1.66,0.35c0.49,0.23,0.9,0.55,1.23,0.95c0.34,0.4,0.59,0.87,0.76,1.41c0.17,0.54,0.26,1.12,0.26,1.74
			c0,0.05,0,0.11,0,0.18c0,0.07-0.01,0.14-0.02,0.21H13.6C13.64,104.3,13.75,104.71,13.92,105.06z M18.98,102.92
			c-0.03-0.38-0.11-0.74-0.23-1.09s-0.3-0.65-0.52-0.91c-0.22-0.26-0.49-0.47-0.81-0.62c-0.32-0.16-0.69-0.24-1.11-0.24
			c-0.37,0-0.71,0.07-1.02,0.22c-0.31,0.15-0.59,0.35-0.82,0.6c-0.24,0.25-0.43,0.55-0.58,0.9c-0.15,0.35-0.25,0.73-0.29,1.14H18.98
			z"/>
		<path class="st1" d="M24.33,100.35c-0.41,0.11-0.8,0.26-1.19,0.45l-0.37-1.02c0.46-0.22,0.94-0.39,1.41-0.51
			c0.48-0.12,1.02-0.19,1.64-0.19c1.15,0,2.03,0.29,2.65,0.85s0.93,1.41,0.93,2.53v5.13h-1.2v-1.27c-0.29,0.38-0.68,0.71-1.18,1.01
			c-0.49,0.29-1.11,0.44-1.86,0.44c-0.39,0-0.77-0.05-1.15-0.16c-0.37-0.11-0.71-0.27-1.01-0.5s-0.54-0.5-0.71-0.82
			c-0.18-0.33-0.27-0.71-0.27-1.15s0.09-0.84,0.26-1.18c0.17-0.34,0.42-0.63,0.74-0.85c0.32-0.23,0.7-0.4,1.14-0.52
			c0.44-0.12,0.92-0.18,1.46-0.18c0.54,0,1.01,0.03,1.41,0.1c0.4,0.07,0.79,0.15,1.17,0.26v-0.29c0-0.76-0.22-1.33-0.66-1.71
			c-0.44-0.38-1.05-0.58-1.84-0.58C25.19,100.18,24.74,100.23,24.33,100.35z M23.93,103.8c-0.42,0.31-0.63,0.74-0.63,1.28
			c0,0.27,0.06,0.51,0.17,0.71c0.11,0.21,0.27,0.38,0.46,0.53c0.19,0.15,0.42,0.26,0.67,0.33c0.25,0.08,0.52,0.11,0.8,0.11
			c0.39,0,0.75-0.06,1.09-0.17c0.34-0.11,0.64-0.27,0.89-0.47c0.25-0.2,0.45-0.44,0.6-0.71s0.22-0.58,0.22-0.92v-0.81
			c-0.31-0.09-0.67-0.17-1.08-0.24c-0.41-0.08-0.87-0.11-1.38-0.11C24.96,103.33,24.35,103.49,23.93,103.8z"/>
		<path class="st1" d="M38.03,107.32c-0.54,0.31-1.2,0.46-1.99,0.46c-0.62,0-1.19-0.12-1.71-0.35c-0.53-0.23-0.98-0.55-1.37-0.94
			s-0.69-0.86-0.9-1.39c-0.22-0.53-0.32-1.09-0.32-1.69s0.11-1.16,0.32-1.7c0.22-0.54,0.52-1,0.9-1.41c0.38-0.4,0.84-0.72,1.37-0.95
			c0.53-0.23,1.1-0.35,1.71-0.35c0.4,0,0.76,0.04,1.09,0.11c0.33,0.08,0.62,0.18,0.89,0.32s0.52,0.29,0.75,0.48
			c0.23,0.18,0.44,0.38,0.63,0.58l-0.83,0.88c-0.34-0.35-0.7-0.64-1.1-0.89s-0.88-0.37-1.45-0.37c-0.42,0-0.82,0.08-1.19,0.25
			c-0.37,0.17-0.69,0.4-0.96,0.7c-0.27,0.3-0.48,0.64-0.63,1.04s-0.23,0.82-0.23,1.27s0.08,0.88,0.24,1.28
			c0.16,0.4,0.37,0.75,0.65,1.05s0.6,0.53,0.97,0.7c0.37,0.17,0.78,0.25,1.23,0.25c0.54,0,1.02-0.12,1.44-0.36s0.79-0.54,1.13-0.89
			l0.8,0.75C39.04,106.62,38.57,107.01,38.03,107.32z"/>
		<path class="st1" d="M42.98,107.59h-1.25V95.72h1.25v4.92c0.28-0.45,0.65-0.84,1.11-1.16s1.04-0.48,1.77-0.48
			c0.51,0,0.96,0.08,1.36,0.24c0.4,0.16,0.73,0.39,1.01,0.69s0.49,0.65,0.63,1.06c0.15,0.41,0.22,0.87,0.22,1.36v5.22h-1.25v-4.91
			c0-0.78-0.2-1.4-0.6-1.85c-0.4-0.46-0.97-0.68-1.72-0.68c-0.36,0-0.69,0.06-1,0.19c-0.31,0.12-0.58,0.3-0.8,0.54
			c-0.23,0.23-0.4,0.51-0.53,0.84c-0.12,0.33-0.19,0.68-0.19,1.07V107.59z"/>
		<path class="st1" d="M51.96,97.35v-1.38h1.43v1.38H51.96z M52.04,107.59v-8.4h1.25v8.4H52.04z"/>
		<path class="st1" d="M57.65,107.59H56.4v-8.4h1.25v1.46c0.28-0.45,0.65-0.84,1.11-1.16s1.04-0.48,1.77-0.48
			c0.51,0,0.96,0.08,1.36,0.24c0.4,0.16,0.73,0.39,1.01,0.69s0.49,0.65,0.63,1.06c0.15,0.41,0.22,0.87,0.22,1.36v5.22h-1.25v-4.91
			c0-0.78-0.2-1.4-0.6-1.85c-0.4-0.46-0.97-0.68-1.72-0.68c-0.36,0-0.69,0.06-1,0.19c-0.31,0.12-0.58,0.3-0.8,0.54
			c-0.23,0.23-0.4,0.51-0.53,0.84c-0.12,0.33-0.19,0.68-0.19,1.07V107.59z"/>
		<path class="st1" d="M74.3,107.91c-0.2,0.51-0.49,0.93-0.86,1.28c-0.37,0.34-0.82,0.6-1.35,0.77c-0.53,0.17-1.11,0.26-1.76,0.26
			c-0.71,0-1.38-0.1-2.02-0.29c-0.64-0.2-1.24-0.49-1.8-0.88l0.57-0.97c0.49,0.35,1,0.61,1.53,0.8c0.53,0.18,1.1,0.28,1.71,0.28
			c0.93,0,1.67-0.25,2.23-0.76c0.55-0.5,0.83-1.25,0.83-2.23v-0.99c-0.37,0.49-0.82,0.91-1.35,1.25s-1.18,0.52-1.95,0.52
			c-0.51,0-1-0.09-1.47-0.27c-0.47-0.18-0.89-0.44-1.26-0.78c-0.37-0.34-0.66-0.76-0.89-1.24c-0.22-0.49-0.33-1.04-0.33-1.66
			c0-0.62,0.11-1.17,0.33-1.67c0.22-0.49,0.52-0.91,0.89-1.25c0.37-0.34,0.79-0.6,1.27-0.79c0.48-0.18,0.96-0.28,1.46-0.28
			c0.39,0,0.75,0.05,1.08,0.14c0.33,0.09,0.63,0.21,0.89,0.37c0.27,0.15,0.51,0.33,0.72,0.54c0.22,0.21,0.41,0.42,0.58,0.65v-1.51
			h1.25v6.94C74.6,106.81,74.5,107.4,74.3,107.91z M73.14,101.79c-0.17-0.35-0.4-0.65-0.69-0.9s-0.62-0.44-0.98-0.58
			c-0.37-0.13-0.75-0.2-1.15-0.2c-0.4,0-0.78,0.07-1.13,0.2c-0.35,0.13-0.66,0.32-0.93,0.57c-0.27,0.25-0.47,0.55-0.63,0.9
			c-0.15,0.35-0.23,0.75-0.23,1.18c0,0.43,0.08,0.83,0.24,1.18c0.16,0.35,0.37,0.66,0.63,0.91c0.26,0.25,0.57,0.45,0.93,0.58
			c0.35,0.13,0.72,0.2,1.11,0.2c0.4,0,0.79-0.07,1.15-0.2c0.37-0.14,0.7-0.33,0.98-0.58s0.52-0.55,0.69-0.9
			c0.17-0.35,0.26-0.74,0.26-1.18S73.31,102.15,73.14,101.79z"/>
		<path class="st1" d="M91.09,97.38h-6.94v3.88h6.21v1.17h-6.21v3.98h7.02v1.17h-8.3V96.21h8.22V97.38z"/>
		<path class="st1" d="M101.04,107.59h-1.45l-2.6-3.43l-2.62,3.43h-1.4l3.3-4.27l-3.17-4.13h1.43l2.49,3.25l2.49-3.25h1.4
			l-3.18,4.09L101.04,107.59z"/>
		<path class="st1" d="M108.47,107.32c-0.54,0.31-1.2,0.46-1.99,0.46c-0.62,0-1.19-0.12-1.71-0.35c-0.53-0.23-0.98-0.55-1.37-0.94
			s-0.69-0.86-0.9-1.39c-0.22-0.53-0.32-1.09-0.32-1.69s0.11-1.16,0.32-1.7c0.22-0.54,0.52-1,0.9-1.41c0.38-0.4,0.84-0.72,1.37-0.95
			c0.53-0.23,1.1-0.35,1.71-0.35c0.4,0,0.76,0.04,1.09,0.11c0.33,0.08,0.62,0.18,0.89,0.32s0.52,0.29,0.75,0.48
			c0.23,0.18,0.44,0.38,0.63,0.58l-0.83,0.88c-0.34-0.35-0.7-0.64-1.1-0.89s-0.88-0.37-1.45-0.37c-0.42,0-0.82,0.08-1.19,0.25
			c-0.37,0.17-0.69,0.4-0.96,0.7c-0.27,0.3-0.48,0.64-0.63,1.04s-0.23,0.82-0.23,1.27s0.08,0.88,0.24,1.28
			c0.16,0.4,0.37,0.75,0.65,1.05s0.6,0.53,0.97,0.7c0.37,0.17,0.78,0.25,1.23,0.25c0.54,0,1.02-0.12,1.44-0.36s0.79-0.54,1.13-0.89
			l0.8,0.75C109.49,106.62,109.01,107.01,108.47,107.32z"/>
		<path class="st1" d="M113.01,105.06c0.17,0.35,0.4,0.65,0.67,0.89c0.27,0.24,0.57,0.43,0.91,0.55c0.34,0.12,0.69,0.19,1.06,0.19
			c0.58,0,1.09-0.11,1.5-0.33s0.8-0.5,1.15-0.86l0.78,0.7c-0.42,0.48-0.91,0.86-1.45,1.15c-0.54,0.29-1.21,0.43-2.02,0.43
			c-0.57,0-1.12-0.11-1.62-0.32c-0.51-0.21-0.95-0.51-1.34-0.89s-0.69-0.85-0.91-1.39s-0.34-1.14-0.34-1.79
			c0-0.61,0.1-1.18,0.3-1.71c0.2-0.54,0.48-1,0.84-1.4s0.78-0.71,1.28-0.93c0.49-0.23,1.03-0.34,1.62-0.34
			c0.62,0,1.17,0.12,1.66,0.35c0.49,0.23,0.9,0.55,1.23,0.95c0.34,0.4,0.59,0.87,0.76,1.41c0.17,0.54,0.26,1.12,0.26,1.74
			c0,0.05,0,0.11,0,0.18c0,0.07-0.01,0.14-0.02,0.21h-6.65C112.73,104.3,112.84,104.71,113.01,105.06z M118.07,102.92
			c-0.03-0.38-0.11-0.74-0.23-1.09s-0.3-0.65-0.52-0.91c-0.22-0.26-0.49-0.47-0.81-0.62c-0.32-0.16-0.69-0.24-1.11-0.24
			c-0.37,0-0.71,0.07-1.02,0.22c-0.31,0.15-0.59,0.35-0.82,0.6c-0.24,0.25-0.43,0.55-0.58,0.9c-0.15,0.35-0.25,0.73-0.29,1.14
			H118.07z"/>
		<path class="st1" d="M121.85,107.59V95.72h1.25v11.86H121.85z"/>
		<path class="st1" d="M126.32,107.59V95.72h1.25v11.86H126.32z"/>
		<path class="st1" d="M131.76,105.06c0.17,0.35,0.4,0.65,0.67,0.89c0.27,0.24,0.57,0.43,0.91,0.55c0.34,0.12,0.69,0.19,1.06,0.19
			c0.58,0,1.09-0.11,1.5-0.33s0.8-0.5,1.15-0.86l0.78,0.7c-0.42,0.48-0.91,0.86-1.45,1.15c-0.54,0.29-1.21,0.43-2.02,0.43
			c-0.57,0-1.12-0.11-1.62-0.32c-0.51-0.21-0.95-0.51-1.34-0.89s-0.69-0.85-0.91-1.39s-0.34-1.14-0.34-1.79
			c0-0.61,0.1-1.18,0.3-1.71c0.2-0.54,0.48-1,0.84-1.4s0.78-0.71,1.28-0.93c0.49-0.23,1.03-0.34,1.62-0.34
			c0.62,0,1.17,0.12,1.66,0.35c0.49,0.23,0.9,0.55,1.23,0.95c0.34,0.4,0.59,0.87,0.76,1.41c0.17,0.54,0.26,1.12,0.26,1.74
			c0,0.05,0,0.11,0,0.18c0,0.07-0.01,0.14-0.02,0.21h-6.65C131.48,104.3,131.59,104.71,131.76,105.06z M136.82,102.92
			c-0.03-0.38-0.11-0.74-0.23-1.09s-0.3-0.65-0.52-0.91c-0.22-0.26-0.49-0.47-0.81-0.62c-0.32-0.16-0.69-0.24-1.11-0.24
			c-0.37,0-0.71,0.07-1.02,0.22c-0.31,0.15-0.59,0.35-0.82,0.6c-0.24,0.25-0.43,0.55-0.58,0.9c-0.15,0.35-0.25,0.73-0.29,1.14
			H136.82z"/>
		<path class="st1" d="M141.74,107.59h-1.25v-8.4h1.25v1.46c0.28-0.45,0.65-0.84,1.11-1.16s1.04-0.48,1.77-0.48
			c0.51,0,0.96,0.08,1.36,0.24c0.4,0.16,0.73,0.39,1.01,0.69s0.49,0.65,0.63,1.06c0.15,0.41,0.22,0.87,0.22,1.36v5.22h-1.25v-4.91
			c0-0.78-0.2-1.4-0.6-1.85c-0.4-0.46-0.97-0.68-1.72-0.68c-0.36,0-0.69,0.06-1,0.19c-0.31,0.12-0.58,0.3-0.8,0.54
			c-0.23,0.23-0.4,0.51-0.53,0.84c-0.12,0.33-0.19,0.68-0.19,1.07V107.59z"/>
		<path class="st1" d="M156.47,107.32c-0.54,0.31-1.2,0.46-1.99,0.46c-0.62,0-1.19-0.12-1.71-0.35c-0.53-0.23-0.98-0.55-1.37-0.94
			s-0.69-0.86-0.9-1.39c-0.22-0.53-0.32-1.09-0.32-1.69s0.11-1.16,0.32-1.7c0.22-0.54,0.52-1,0.9-1.41c0.38-0.4,0.84-0.72,1.37-0.95
			c0.53-0.23,1.1-0.35,1.71-0.35c0.4,0,0.76,0.04,1.09,0.11c0.33,0.08,0.62,0.18,0.89,0.32s0.52,0.29,0.75,0.48
			c0.23,0.18,0.44,0.38,0.63,0.58l-0.83,0.88c-0.34-0.35-0.7-0.64-1.1-0.89s-0.88-0.37-1.45-0.37c-0.42,0-0.82,0.08-1.19,0.25
			c-0.37,0.17-0.69,0.4-0.96,0.7c-0.27,0.3-0.48,0.64-0.63,1.04s-0.23,0.82-0.23,1.27s0.08,0.88,0.24,1.28
			c0.16,0.4,0.37,0.75,0.65,1.05s0.6,0.53,0.97,0.7c0.37,0.17,0.78,0.25,1.23,0.25c0.54,0,1.02-0.12,1.44-0.36s0.79-0.54,1.13-0.89
			l0.8,0.75C157.49,106.62,157.01,107.01,156.47,107.32z"/>
		<path class="st1" d="M161.01,105.06c0.17,0.35,0.4,0.65,0.67,0.89c0.27,0.24,0.57,0.43,0.91,0.55c0.34,0.12,0.69,0.19,1.06,0.19
			c0.58,0,1.09-0.11,1.5-0.33s0.8-0.5,1.15-0.86l0.78,0.7c-0.42,0.48-0.91,0.86-1.45,1.15c-0.54,0.29-1.21,0.43-2.02,0.43
			c-0.57,0-1.12-0.11-1.62-0.32c-0.51-0.21-0.95-0.51-1.34-0.89s-0.69-0.85-0.91-1.39s-0.34-1.14-0.34-1.79
			c0-0.61,0.1-1.18,0.3-1.71c0.2-0.54,0.48-1,0.84-1.4s0.78-0.71,1.28-0.93c0.49-0.23,1.03-0.34,1.62-0.34
			c0.62,0,1.17,0.12,1.66,0.35c0.49,0.23,0.9,0.55,1.23,0.95c0.34,0.4,0.59,0.87,0.76,1.41c0.17,0.54,0.26,1.12,0.26,1.74
			c0,0.05,0,0.11,0,0.18c0,0.07-0.01,0.14-0.02,0.21h-6.65C160.73,104.3,160.84,104.71,161.01,105.06z M166.07,102.92
			c-0.03-0.38-0.11-0.74-0.23-1.09s-0.3-0.65-0.52-0.91c-0.22-0.26-0.49-0.47-0.81-0.62c-0.32-0.16-0.69-0.24-1.11-0.24
			c-0.37,0-0.71,0.07-1.02,0.22c-0.31,0.15-0.59,0.35-0.82,0.6c-0.24,0.25-0.43,0.55-0.58,0.9c-0.15,0.35-0.25,0.73-0.29,1.14
			H166.07z"/>
		<path class="st1" d="M183.2,97.4h-6.89v4.06h6.16v1.17h-6.16v4.96h-1.28V96.21h8.17V97.4z"/>
		<path class="st1" d="M186.92,107.59h-1.25v-8.4h1.25v2.19c0.15-0.35,0.34-0.67,0.57-0.96c0.23-0.29,0.49-0.54,0.78-0.76
			c0.29-0.21,0.61-0.37,0.96-0.48s0.72-0.16,1.12-0.15v1.35h-0.1c-0.46,0-0.89,0.08-1.29,0.24c-0.41,0.16-0.76,0.41-1.06,0.73
			c-0.3,0.32-0.54,0.73-0.71,1.21c-0.17,0.48-0.26,1.04-0.26,1.67V107.59z"/>
		<path class="st1" d="M193.72,100.35c-0.41,0.11-0.8,0.26-1.19,0.45l-0.37-1.02c0.46-0.22,0.94-0.39,1.41-0.51
			c0.48-0.12,1.02-0.19,1.64-0.19c1.15,0,2.03,0.29,2.65,0.85s0.93,1.41,0.93,2.53v5.13h-1.2v-1.27c-0.29,0.38-0.68,0.71-1.18,1.01
			c-0.49,0.29-1.11,0.44-1.86,0.44c-0.39,0-0.77-0.05-1.15-0.16c-0.37-0.11-0.71-0.27-1.01-0.5s-0.54-0.5-0.71-0.82
			c-0.18-0.33-0.27-0.71-0.27-1.15s0.09-0.84,0.26-1.18c0.17-0.34,0.42-0.63,0.74-0.85c0.32-0.23,0.7-0.4,1.14-0.52
			c0.44-0.12,0.92-0.18,1.46-0.18c0.54,0,1.01,0.03,1.41,0.1c0.4,0.07,0.79,0.15,1.17,0.26v-0.29c0-0.76-0.22-1.33-0.66-1.71
			c-0.44-0.38-1.05-0.58-1.84-0.58C194.58,100.18,194.12,100.23,193.72,100.35z M193.32,103.8c-0.42,0.31-0.63,0.74-0.63,1.28
			c0,0.27,0.06,0.51,0.17,0.71c0.11,0.21,0.27,0.38,0.46,0.53c0.19,0.15,0.42,0.26,0.67,0.33c0.25,0.08,0.52,0.11,0.8,0.11
			c0.39,0,0.75-0.06,1.09-0.17c0.34-0.11,0.64-0.27,0.89-0.47c0.25-0.2,0.45-0.44,0.6-0.71s0.22-0.58,0.22-0.92v-0.81
			c-0.31-0.09-0.67-0.17-1.08-0.24c-0.41-0.08-0.87-0.11-1.38-0.11C194.34,103.33,193.74,103.49,193.32,103.8z"/>
		<path class="st1" d="M208.81,100.03c0.19-0.21,0.4-0.38,0.64-0.54c0.24-0.15,0.51-0.27,0.8-0.36c0.3-0.09,0.63-0.13,1-0.13
			c0.97,0,1.74,0.3,2.29,0.9c0.55,0.6,0.83,1.43,0.83,2.48v5.2h-1.25v-4.91c0-0.81-0.19-1.44-0.58-1.88
			c-0.38-0.44-0.92-0.66-1.6-0.66c-0.31,0-0.61,0.06-0.89,0.17c-0.28,0.11-0.53,0.28-0.74,0.5c-0.21,0.22-0.38,0.5-0.5,0.82
			c-0.12,0.32-0.19,0.69-0.19,1.1v4.84h-1.23v-4.94c0-0.79-0.19-1.41-0.58-1.84c-0.38-0.44-0.91-0.66-1.58-0.66
			c-0.34,0-0.64,0.06-0.93,0.19c-0.28,0.13-0.53,0.31-0.74,0.55s-0.38,0.52-0.5,0.84s-0.18,0.67-0.18,1.06v4.79h-1.25v-8.4h1.25
			v1.41c0.14-0.21,0.29-0.41,0.46-0.6c0.17-0.2,0.36-0.37,0.58-0.51c0.22-0.15,0.46-0.26,0.73-0.35s0.58-0.13,0.94-0.13
			c0.68,0,1.25,0.16,1.69,0.48c0.44,0.32,0.78,0.72,1.01,1.19C208.45,100.45,208.62,100.24,208.81,100.03z"/>
		<path class="st1" d="M218.37,105.06c0.17,0.35,0.4,0.65,0.67,0.89c0.27,0.24,0.57,0.43,0.91,0.55c0.34,0.12,0.69,0.19,1.06,0.19
			c0.58,0,1.09-0.11,1.5-0.33s0.8-0.5,1.15-0.86l0.78,0.7c-0.42,0.48-0.91,0.86-1.45,1.15c-0.54,0.29-1.21,0.43-2.02,0.43
			c-0.57,0-1.12-0.11-1.62-0.32c-0.51-0.21-0.95-0.51-1.34-0.89s-0.69-0.85-0.91-1.39s-0.34-1.14-0.34-1.79
			c0-0.61,0.1-1.18,0.3-1.71c0.2-0.54,0.48-1,0.84-1.4s0.78-0.71,1.28-0.93c0.49-0.23,1.03-0.34,1.62-0.34
			c0.62,0,1.17,0.12,1.66,0.35c0.49,0.23,0.9,0.55,1.23,0.95c0.34,0.4,0.59,0.87,0.76,1.41c0.17,0.54,0.26,1.12,0.26,1.74
			c0,0.05,0,0.11,0,0.18c0,0.07-0.01,0.14-0.02,0.21h-6.65C218.09,104.3,218.2,104.71,218.37,105.06z M223.43,102.92
			c-0.03-0.38-0.11-0.74-0.23-1.09s-0.3-0.65-0.52-0.91c-0.22-0.26-0.49-0.47-0.81-0.62c-0.32-0.16-0.69-0.24-1.11-0.24
			c-0.37,0-0.71,0.07-1.02,0.22c-0.31,0.15-0.59,0.35-0.82,0.6c-0.24,0.25-0.43,0.55-0.58,0.9c-0.15,0.35-0.25,0.73-0.29,1.14
			H223.43z"/>
		<path class="st1" d="M235.1,105.93l2.21-6.74h1.3l-2.96,8.47h-1.09l-2.26-6.63l-2.28,6.63h-1.1l-2.94-8.47h1.33l2.21,6.74
			l2.26-6.78h1.04L235.1,105.93z"/>
		<path class="st1" d="M248.38,105.08c-0.22,0.54-0.53,1-0.92,1.41c-0.39,0.4-0.86,0.72-1.4,0.95c-0.54,0.23-1.13,0.35-1.75,0.35
			s-1.21-0.12-1.74-0.35c-0.53-0.23-0.99-0.55-1.38-0.94c-0.39-0.4-0.69-0.86-0.91-1.39c-0.22-0.53-0.32-1.09-0.32-1.69
			s0.11-1.16,0.32-1.7c0.22-0.54,0.52-1,0.91-1.41c0.39-0.4,0.85-0.72,1.39-0.95c0.54-0.23,1.12-0.35,1.76-0.35
			c0.63,0,1.21,0.12,1.75,0.35c0.54,0.23,1,0.55,1.39,0.94s0.69,0.86,0.91,1.39c0.22,0.53,0.33,1.09,0.33,1.69
			S248.6,104.54,248.38,105.08z M247.2,102.12c-0.16-0.4-0.38-0.75-0.66-1.05c-0.28-0.3-0.61-0.53-0.99-0.71
			c-0.38-0.17-0.79-0.26-1.24-0.26c-0.46,0-0.87,0.08-1.25,0.25c-0.38,0.17-0.7,0.4-0.97,0.7c-0.27,0.3-0.47,0.64-0.63,1.04
			s-0.23,0.82-0.23,1.27s0.08,0.88,0.24,1.28c0.16,0.4,0.37,0.75,0.65,1.04c0.28,0.29,0.6,0.52,0.98,0.7
			c0.38,0.17,0.79,0.26,1.23,0.26c0.46,0,0.87-0.08,1.25-0.25c0.38-0.17,0.7-0.4,0.97-0.69s0.48-0.63,0.63-1.03s0.23-0.82,0.23-1.27
			S247.35,102.52,247.2,102.12z"/>
		<path class="st1" d="M252.42,107.59h-1.25v-8.4h1.25v2.19c0.15-0.35,0.34-0.67,0.57-0.96c0.23-0.29,0.49-0.54,0.78-0.76
			c0.29-0.21,0.61-0.37,0.96-0.48s0.72-0.16,1.12-0.15v1.35h-0.1c-0.46,0-0.89,0.08-1.29,0.24c-0.41,0.16-0.76,0.41-1.06,0.73
			c-0.3,0.32-0.54,0.73-0.71,1.21c-0.17,0.48-0.26,1.04-0.26,1.67V107.59z"/>
		<path class="st1" d="M265.4,107.59h-1.5l-3.01-3.92l-1.71,1.72v2.19h-1.25V95.72h1.25v8.19l4.53-4.73h1.56l-3.53,3.61
			L265.4,107.59z"/>
	</g>
	<g>
		<rect x="91.64" y="40.42" class="st0" width="174.55" height="21.68"/>
		<g>
			<path class="st1" d="M106.39,49.32c0.06,0.16,0.18,0.3,0.34,0.43c0.17,0.13,0.39,0.25,0.68,0.35s0.67,0.21,1.12,0.3
				c0.92,0.2,1.6,0.49,2.04,0.85c0.44,0.36,0.65,0.86,0.65,1.5c0,0.35-0.07,0.68-0.21,0.97c-0.14,0.29-0.33,0.54-0.58,0.74
				c-0.25,0.2-0.54,0.36-0.89,0.47c-0.35,0.11-0.72,0.17-1.13,0.17c-0.66,0-1.26-0.11-1.81-0.32c-0.55-0.21-1.07-0.54-1.56-0.99
				l0.58-0.68c0.43,0.39,0.87,0.69,1.31,0.88c0.44,0.19,0.95,0.29,1.52,0.29c0.56,0,1-0.13,1.34-0.39c0.33-0.26,0.5-0.6,0.5-1.03
				c0-0.2-0.03-0.37-0.09-0.53s-0.17-0.29-0.33-0.42c-0.16-0.13-0.38-0.24-0.66-0.34c-0.28-0.1-0.64-0.2-1.07-0.3
				c-0.47-0.1-0.89-0.22-1.24-0.35c-0.35-0.13-0.64-0.3-0.87-0.48s-0.4-0.41-0.51-0.66c-0.11-0.25-0.17-0.55-0.17-0.9
				c0-0.33,0.07-0.63,0.2-0.91c0.13-0.28,0.32-0.51,0.57-0.72c0.24-0.2,0.53-0.36,0.86-0.47c0.33-0.11,0.69-0.17,1.09-0.17
				c0.61,0,1.13,0.08,1.59,0.25c0.45,0.17,0.89,0.42,1.32,0.75l-0.54,0.72c-0.39-0.31-0.77-0.54-1.16-0.68
				c-0.39-0.14-0.8-0.21-1.22-0.21c-0.27,0-0.51,0.04-0.73,0.11c-0.22,0.07-0.4,0.17-0.55,0.28c-0.15,0.12-0.27,0.26-0.35,0.43
				c-0.08,0.17-0.12,0.34-0.12,0.53C106.3,48.99,106.33,49.17,106.39,49.32z"/>
			<path class="st1" d="M114.14,53.26c0,0.38,0.09,0.64,0.28,0.79c0.19,0.15,0.44,0.22,0.74,0.22c0.16,0,0.3-0.02,0.44-0.05
				c0.14-0.03,0.29-0.09,0.44-0.17v0.78c-0.16,0.09-0.32,0.15-0.5,0.19c-0.18,0.04-0.38,0.06-0.6,0.06c-0.24,0-0.47-0.03-0.68-0.09
				s-0.4-0.16-0.55-0.3s-0.27-0.32-0.36-0.54c-0.09-0.22-0.13-0.48-0.13-0.79V49.7h-0.85v-0.8h0.85v-1.84h0.91v1.84h1.94v0.8h-1.94
				V53.26z"/>
			<path class="st1" d="M122.01,48.9h0.9V55h-0.9v-1.06c-0.2,0.33-0.47,0.61-0.8,0.84s-0.76,0.35-1.29,0.35
				c-0.37,0-0.7-0.06-0.99-0.18c-0.29-0.12-0.53-0.28-0.73-0.5c-0.2-0.22-0.35-0.47-0.46-0.77c-0.11-0.3-0.16-0.63-0.16-0.99V48.9
				h0.91v3.56c0,0.57,0.15,1.02,0.44,1.35c0.29,0.33,0.71,0.5,1.25,0.5c0.26,0,0.5-0.04,0.73-0.14c0.22-0.09,0.42-0.22,0.58-0.39
				s0.29-0.37,0.38-0.61c0.09-0.24,0.14-0.5,0.14-0.78V48.9z"/>
			<path class="st1" d="M129.85,55v-1.23c-0.13,0.18-0.27,0.35-0.42,0.52c-0.15,0.17-0.32,0.31-0.51,0.44
				c-0.19,0.13-0.4,0.22-0.63,0.29s-0.49,0.11-0.77,0.11c-0.37,0-0.73-0.07-1.07-0.21s-0.66-0.35-0.93-0.62s-0.5-0.6-0.66-1
				c-0.17-0.39-0.25-0.84-0.25-1.35s0.08-0.95,0.25-1.35c0.17-0.39,0.39-0.73,0.66-1s0.59-0.48,0.93-0.63
				c0.35-0.15,0.7-0.22,1.07-0.22c0.28,0,0.54,0.04,0.78,0.11c0.24,0.07,0.45,0.17,0.64,0.28c0.19,0.12,0.36,0.26,0.51,0.41
				c0.15,0.16,0.29,0.32,0.41,0.5v-3.68h0.91V55H129.85z M129.7,50.98c-0.12-0.29-0.29-0.54-0.5-0.74c-0.21-0.2-0.44-0.36-0.71-0.48
				c-0.26-0.11-0.54-0.17-0.82-0.17c-0.3,0-0.58,0.05-0.84,0.16c-0.26,0.11-0.49,0.26-0.68,0.46c-0.19,0.2-0.35,0.45-0.46,0.74
				c-0.11,0.29-0.17,0.62-0.17,0.99c0,0.36,0.06,0.69,0.17,0.97c0.11,0.29,0.27,0.54,0.47,0.75c0.2,0.21,0.42,0.37,0.68,0.48
				c0.26,0.11,0.54,0.16,0.83,0.16c0.28,0,0.56-0.06,0.82-0.17c0.26-0.11,0.5-0.27,0.71-0.48s0.37-0.45,0.5-0.75
				s0.18-0.62,0.18-0.97S129.82,51.27,129.7,50.98z"/>
			<path class="st1" d="M133.58,53.16c0.13,0.26,0.29,0.47,0.48,0.65c0.2,0.18,0.42,0.31,0.66,0.4c0.24,0.09,0.5,0.14,0.77,0.14
				c0.42,0,0.79-0.08,1.09-0.24c0.3-0.16,0.58-0.37,0.83-0.63l0.57,0.51c-0.31,0.35-0.66,0.62-1.05,0.83
				c-0.39,0.21-0.88,0.31-1.46,0.31c-0.42,0-0.81-0.08-1.18-0.23c-0.37-0.15-0.69-0.37-0.97-0.65s-0.5-0.62-0.66-1.01
				c-0.16-0.39-0.25-0.83-0.25-1.3c0-0.44,0.07-0.86,0.22-1.24c0.15-0.39,0.35-0.73,0.61-1.02c0.26-0.29,0.57-0.51,0.93-0.68
				c0.36-0.17,0.75-0.25,1.17-0.25c0.45,0,0.85,0.08,1.2,0.25c0.35,0.17,0.65,0.4,0.9,0.69c0.24,0.29,0.43,0.63,0.55,1.03
				c0.13,0.39,0.19,0.81,0.19,1.26c0,0.04,0,0.08,0,0.13c0,0.05,0,0.1-0.01,0.15h-4.83C133.37,52.61,133.45,52.91,133.58,53.16z
				 M137.25,51.61c-0.02-0.28-0.08-0.54-0.17-0.79c-0.09-0.25-0.22-0.47-0.38-0.66c-0.16-0.19-0.36-0.34-0.59-0.45
				c-0.23-0.11-0.5-0.17-0.8-0.17c-0.27,0-0.51,0.05-0.74,0.16c-0.23,0.11-0.43,0.25-0.6,0.44c-0.17,0.19-0.31,0.4-0.42,0.66
				c-0.11,0.25-0.18,0.53-0.21,0.83H137.25z"/>
			<path class="st1" d="M140.68,55h-0.91v-6.1h0.91v1.06c0.2-0.33,0.47-0.61,0.8-0.84s0.76-0.35,1.29-0.35
				c0.37,0,0.7,0.06,0.99,0.18c0.29,0.12,0.53,0.29,0.73,0.5c0.2,0.22,0.35,0.47,0.46,0.77c0.11,0.3,0.16,0.63,0.16,0.99V55h-0.91
				v-3.56c0-0.57-0.15-1.02-0.44-1.35c-0.29-0.33-0.71-0.5-1.25-0.5c-0.26,0-0.5,0.05-0.73,0.14c-0.22,0.09-0.42,0.22-0.58,0.39
				c-0.17,0.17-0.29,0.37-0.38,0.61c-0.09,0.24-0.14,0.5-0.14,0.78V55z"/>
			<path class="st1" d="M148.27,53.26c0,0.38,0.09,0.64,0.28,0.79c0.19,0.15,0.44,0.22,0.74,0.22c0.16,0,0.3-0.02,0.44-0.05
				c0.14-0.03,0.29-0.09,0.44-0.17v0.78c-0.16,0.09-0.32,0.15-0.5,0.19c-0.18,0.04-0.38,0.06-0.6,0.06c-0.24,0-0.47-0.03-0.68-0.09
				c-0.21-0.06-0.39-0.16-0.55-0.3s-0.27-0.32-0.36-0.54c-0.09-0.22-0.13-0.48-0.13-0.79V49.7h-0.85v-0.8h0.85v-1.84h0.91v1.84h1.93
				v0.8h-1.93V53.26z"/>
			<path class="st1" d="M156.14,53.16c0.13,0.26,0.29,0.47,0.48,0.65c0.2,0.18,0.42,0.31,0.66,0.4s0.5,0.14,0.77,0.14
				c0.42,0,0.79-0.08,1.09-0.24c0.3-0.16,0.58-0.37,0.83-0.63l0.57,0.51c-0.31,0.35-0.66,0.62-1.05,0.83
				c-0.39,0.21-0.88,0.31-1.46,0.31c-0.42,0-0.81-0.08-1.18-0.23s-0.69-0.37-0.97-0.65s-0.5-0.62-0.66-1.01
				c-0.16-0.39-0.25-0.83-0.25-1.3c0-0.44,0.07-0.86,0.22-1.24c0.15-0.39,0.35-0.73,0.61-1.02c0.26-0.29,0.57-0.51,0.93-0.68
				c0.36-0.17,0.75-0.25,1.17-0.25c0.45,0,0.85,0.08,1.2,0.25c0.35,0.17,0.65,0.4,0.9,0.69c0.24,0.29,0.43,0.63,0.55,1.03
				c0.13,0.39,0.19,0.81,0.19,1.26c0,0.04,0,0.08,0,0.13c0,0.05,0,0.1-0.01,0.15h-4.83C155.93,52.61,156.01,52.91,156.14,53.16z
				 M159.81,51.61c-0.02-0.28-0.08-0.54-0.17-0.79c-0.09-0.25-0.22-0.47-0.38-0.66c-0.16-0.19-0.36-0.34-0.59-0.45
				c-0.23-0.11-0.5-0.17-0.8-0.17c-0.27,0-0.51,0.05-0.74,0.16c-0.23,0.11-0.43,0.25-0.6,0.44c-0.17,0.19-0.31,0.4-0.42,0.66
				c-0.11,0.25-0.18,0.53-0.21,0.83H159.81z"/>
			<path class="st1" d="M167.28,55h-1.05l-1.89-2.49l-1.9,2.49h-1.02l2.4-3.1l-2.3-3h1.04l1.81,2.36l1.81-2.36h1.01l-2.31,2.97
				L167.28,55z"/>
			<path class="st1" d="M174.66,53.29c-0.17,0.39-0.38,0.73-0.66,1c-0.27,0.27-0.58,0.48-0.93,0.63c-0.35,0.15-0.71,0.22-1.08,0.22
				c-0.28,0-0.54-0.04-0.78-0.11c-0.24-0.07-0.45-0.17-0.64-0.28c-0.19-0.12-0.36-0.26-0.51-0.41c-0.15-0.16-0.29-0.32-0.41-0.5
				v3.06h-0.91V48.9h0.91v1.23c0.13-0.18,0.27-0.35,0.42-0.52s0.32-0.31,0.51-0.43c0.19-0.12,0.4-0.22,0.63-0.29
				c0.23-0.07,0.49-0.11,0.77-0.11c0.36,0,0.72,0.07,1.07,0.21c0.35,0.14,0.66,0.35,0.94,0.62s0.5,0.6,0.66,1
				c0.17,0.39,0.25,0.84,0.25,1.35S174.83,52.89,174.66,53.29z M173.81,50.98c-0.11-0.29-0.27-0.54-0.47-0.75
				c-0.2-0.21-0.42-0.37-0.68-0.48c-0.26-0.11-0.54-0.16-0.83-0.16c-0.28,0-0.56,0.06-0.82,0.17c-0.26,0.11-0.5,0.27-0.71,0.48
				c-0.21,0.2-0.37,0.45-0.5,0.74c-0.12,0.29-0.18,0.61-0.18,0.96s0.06,0.68,0.18,0.97s0.29,0.54,0.5,0.75
				c0.21,0.2,0.44,0.36,0.71,0.48c0.26,0.11,0.54,0.17,0.82,0.17c0.29,0,0.57-0.05,0.83-0.16c0.26-0.11,0.49-0.26,0.68-0.46
				c0.19-0.2,0.35-0.45,0.46-0.74s0.17-0.62,0.17-0.99C173.98,51.59,173.92,51.27,173.81,50.98z"/>
			<path class="st1" d="M177.38,53.16c0.13,0.26,0.29,0.47,0.48,0.65c0.2,0.18,0.42,0.31,0.66,0.4s0.5,0.14,0.77,0.14
				c0.42,0,0.79-0.08,1.09-0.24c0.3-0.16,0.58-0.37,0.83-0.63l0.57,0.51c-0.31,0.35-0.66,0.62-1.05,0.83
				c-0.39,0.21-0.88,0.31-1.46,0.31c-0.42,0-0.81-0.08-1.18-0.23s-0.69-0.37-0.97-0.65s-0.5-0.62-0.66-1.01
				c-0.16-0.39-0.25-0.83-0.25-1.3c0-0.44,0.07-0.86,0.22-1.24c0.15-0.39,0.35-0.73,0.61-1.02c0.26-0.29,0.57-0.51,0.93-0.68
				c0.36-0.17,0.75-0.25,1.17-0.25c0.45,0,0.85,0.08,1.2,0.25c0.35,0.17,0.65,0.4,0.9,0.69c0.24,0.29,0.43,0.63,0.55,1.03
				c0.13,0.39,0.19,0.81,0.19,1.26c0,0.04,0,0.08,0,0.13c0,0.05,0,0.1-0.01,0.15h-4.83C177.17,52.61,177.25,52.91,177.38,53.16z
				 M181.05,51.61c-0.02-0.28-0.08-0.54-0.17-0.79c-0.09-0.25-0.22-0.47-0.38-0.66c-0.16-0.19-0.36-0.34-0.59-0.45
				c-0.23-0.11-0.5-0.17-0.8-0.17c-0.27,0-0.51,0.05-0.74,0.16c-0.23,0.11-0.43,0.25-0.6,0.44c-0.17,0.19-0.31,0.4-0.42,0.66
				c-0.11,0.25-0.18,0.53-0.21,0.83H181.05z"/>
			<path class="st1" d="M184.48,55h-0.91v-6.1h0.91v1.59c0.11-0.25,0.25-0.48,0.41-0.7s0.35-0.4,0.57-0.55
				c0.21-0.15,0.44-0.27,0.7-0.35c0.25-0.08,0.52-0.11,0.81-0.11v0.98h-0.07c-0.33,0-0.64,0.06-0.94,0.18
				c-0.29,0.12-0.55,0.29-0.77,0.53c-0.22,0.24-0.39,0.53-0.52,0.88s-0.19,0.75-0.19,1.21V55z"/>
			<path class="st1" d="M188.38,47.56v-1h1.04v1H188.38z M188.43,55v-6.1h0.91V55H188.43z"/>
			<path class="st1" d="M192.25,53.16c0.13,0.26,0.29,0.47,0.48,0.65c0.2,0.18,0.42,0.31,0.66,0.4s0.5,0.14,0.77,0.14
				c0.42,0,0.79-0.08,1.09-0.24c0.3-0.16,0.58-0.37,0.83-0.63l0.57,0.51c-0.31,0.35-0.66,0.62-1.05,0.83
				c-0.39,0.21-0.88,0.31-1.46,0.31c-0.42,0-0.81-0.08-1.18-0.23s-0.69-0.37-0.97-0.65s-0.5-0.62-0.66-1.01
				c-0.16-0.39-0.25-0.83-0.25-1.3c0-0.44,0.07-0.86,0.22-1.24c0.15-0.39,0.35-0.73,0.61-1.02c0.26-0.29,0.57-0.51,0.93-0.68
				c0.36-0.17,0.75-0.25,1.17-0.25c0.45,0,0.85,0.08,1.2,0.25c0.35,0.17,0.65,0.4,0.9,0.69c0.24,0.29,0.43,0.63,0.55,1.03
				c0.13,0.39,0.19,0.81,0.19,1.26c0,0.04,0,0.08,0,0.13c0,0.05,0,0.1-0.01,0.15h-4.83C192.04,52.61,192.12,52.91,192.25,53.16z
				 M195.92,51.61c-0.02-0.28-0.08-0.54-0.17-0.79c-0.09-0.25-0.22-0.47-0.38-0.66c-0.16-0.19-0.36-0.34-0.59-0.45
				c-0.23-0.11-0.5-0.17-0.8-0.17c-0.27,0-0.51,0.05-0.74,0.16c-0.23,0.11-0.43,0.25-0.6,0.44c-0.17,0.19-0.31,0.4-0.42,0.66
				c-0.11,0.25-0.18,0.53-0.21,0.83H195.92z"/>
			<path class="st1" d="M199.35,55h-0.91v-6.1h0.91v1.06c0.2-0.33,0.47-0.61,0.8-0.84c0.33-0.23,0.76-0.35,1.29-0.35
				c0.37,0,0.7,0.06,0.98,0.18c0.29,0.12,0.53,0.29,0.73,0.5c0.2,0.22,0.35,0.47,0.46,0.77s0.16,0.63,0.16,0.99V55h-0.91v-3.56
				c0-0.57-0.15-1.02-0.44-1.35c-0.29-0.33-0.71-0.5-1.25-0.5c-0.26,0-0.5,0.05-0.73,0.14c-0.22,0.09-0.42,0.22-0.58,0.39
				c-0.17,0.17-0.29,0.37-0.38,0.61c-0.09,0.24-0.14,0.5-0.14,0.78V55z"/>
			<path class="st1" d="M209.9,54.8c-0.39,0.22-0.87,0.33-1.45,0.33c-0.45,0-0.86-0.08-1.25-0.25c-0.38-0.17-0.71-0.4-0.99-0.68
				s-0.5-0.62-0.66-1.01c-0.16-0.39-0.24-0.79-0.24-1.23s0.08-0.84,0.24-1.23c0.16-0.39,0.38-0.73,0.66-1.02
				c0.28-0.29,0.61-0.52,0.99-0.69c0.38-0.17,0.8-0.25,1.25-0.25c0.29,0,0.55,0.03,0.79,0.08c0.24,0.06,0.45,0.13,0.65,0.23
				c0.2,0.1,0.38,0.21,0.54,0.35c0.17,0.13,0.32,0.28,0.46,0.42l-0.6,0.64c-0.24-0.25-0.51-0.47-0.8-0.65
				c-0.29-0.18-0.64-0.27-1.06-0.27c-0.31,0-0.59,0.06-0.86,0.18c-0.27,0.12-0.5,0.29-0.7,0.51c-0.2,0.22-0.35,0.47-0.46,0.75
				c-0.11,0.29-0.17,0.59-0.17,0.92s0.06,0.64,0.17,0.93c0.11,0.29,0.27,0.54,0.47,0.76c0.2,0.22,0.44,0.38,0.71,0.51
				s0.57,0.18,0.89,0.18c0.39,0,0.74-0.09,1.04-0.26c0.3-0.17,0.58-0.39,0.82-0.65l0.58,0.54C210.64,54.29,210.29,54.58,209.9,54.8z
				"/>
			<path class="st1" d="M213.06,53.16c0.13,0.26,0.29,0.47,0.48,0.65c0.2,0.18,0.42,0.31,0.66,0.4c0.24,0.09,0.5,0.14,0.77,0.14
				c0.42,0,0.79-0.08,1.09-0.24c0.3-0.16,0.58-0.37,0.83-0.63l0.57,0.51c-0.31,0.35-0.66,0.62-1.05,0.83
				c-0.39,0.21-0.88,0.31-1.46,0.31c-0.42,0-0.81-0.08-1.18-0.23c-0.37-0.15-0.69-0.37-0.97-0.65s-0.5-0.62-0.66-1.01
				c-0.16-0.39-0.25-0.83-0.25-1.3c0-0.44,0.07-0.86,0.22-1.24c0.15-0.39,0.35-0.73,0.61-1.02c0.26-0.29,0.57-0.51,0.93-0.68
				c0.36-0.17,0.75-0.25,1.17-0.25c0.45,0,0.85,0.08,1.2,0.25c0.35,0.17,0.65,0.4,0.9,0.69c0.24,0.29,0.43,0.63,0.55,1.03
				c0.12,0.39,0.19,0.81,0.19,1.26c0,0.04,0,0.08,0,0.13c0,0.05,0,0.1-0.01,0.15h-4.83C212.86,52.61,212.93,52.91,213.06,53.16z
				 M216.73,51.61c-0.02-0.28-0.08-0.54-0.17-0.79c-0.09-0.25-0.21-0.47-0.38-0.66c-0.16-0.19-0.36-0.34-0.59-0.45
				c-0.23-0.11-0.5-0.17-0.8-0.17c-0.27,0-0.51,0.05-0.74,0.16c-0.23,0.11-0.43,0.25-0.6,0.44c-0.17,0.19-0.31,0.4-0.42,0.66
				c-0.11,0.25-0.18,0.53-0.21,0.83H216.73z"/>
			<path class="st1" d="M219.21,50.14V48.9h1.08v1.24H219.21z M219.21,55v-1.24h1.08V55H219.21z"/>
			<path class="st1" d="M231.77,54.76c-0.59,0.26-1.26,0.38-2.01,0.38c-0.65,0-1.23-0.11-1.76-0.32c-0.53-0.21-0.99-0.51-1.37-0.89
				c-0.38-0.38-0.68-0.83-0.89-1.35c-0.21-0.52-0.32-1.09-0.32-1.7v-0.02c0-0.59,0.11-1.14,0.32-1.66c0.22-0.52,0.52-0.97,0.9-1.36
				c0.38-0.39,0.84-0.7,1.37-0.92c0.53-0.22,1.11-0.34,1.74-0.34c0.37,0,0.71,0.03,1.01,0.08s0.58,0.12,0.84,0.22
				c0.26,0.09,0.5,0.21,0.73,0.35c0.23,0.14,0.45,0.3,0.66,0.48l-1.14,1.38c-0.16-0.13-0.32-0.25-0.47-0.35
				c-0.16-0.1-0.32-0.19-0.49-0.26c-0.17-0.07-0.35-0.13-0.55-0.17c-0.2-0.04-0.41-0.06-0.65-0.06c-0.33,0-0.64,0.07-0.93,0.21
				c-0.29,0.14-0.54,0.32-0.76,0.56c-0.22,0.23-0.38,0.5-0.51,0.82s-0.18,0.64-0.18,1v0.02c0,0.38,0.06,0.73,0.18,1.05
				s0.29,0.6,0.52,0.83c0.22,0.24,0.49,0.42,0.79,0.55c0.3,0.13,0.64,0.2,1.01,0.2c0.68,0,1.25-0.17,1.71-0.5v-1.19h-1.83v-1.57
				h3.59v3.59C232.86,54.19,232.35,54.5,231.77,54.76z"/>
			<path class="st1" d="M241.12,53.13c-0.17,0.4-0.41,0.75-0.72,1.04c-0.31,0.3-0.67,0.54-1.09,0.71c-0.42,0.17-0.87,0.26-1.37,0.26
				c-0.49,0-0.94-0.08-1.36-0.25c-0.42-0.17-0.78-0.4-1.08-0.7c-0.3-0.3-0.54-0.64-0.71-1.04c-0.17-0.4-0.26-0.82-0.26-1.28v-0.02
				c0-0.46,0.09-0.88,0.26-1.28c0.17-0.4,0.41-0.75,0.72-1.04s0.67-0.54,1.09-0.71s0.87-0.26,1.37-0.26c0.49,0,0.94,0.08,1.36,0.25
				c0.42,0.17,0.78,0.4,1.08,0.7c0.3,0.29,0.54,0.64,0.71,1.04c0.17,0.4,0.26,0.82,0.26,1.28v0.02
				C241.38,52.3,241.29,52.73,241.12,53.13z M239.61,51.85c0-0.24-0.04-0.46-0.12-0.67c-0.08-0.21-0.19-0.39-0.34-0.55
				c-0.15-0.16-0.33-0.29-0.53-0.38c-0.21-0.09-0.43-0.14-0.67-0.14c-0.26,0-0.49,0.05-0.69,0.14c-0.2,0.09-0.37,0.21-0.51,0.37
				c-0.14,0.16-0.25,0.34-0.32,0.55c-0.08,0.21-0.11,0.43-0.11,0.67v0.02c0,0.24,0.04,0.46,0.12,0.67c0.08,0.21,0.19,0.39,0.34,0.55
				s0.32,0.29,0.53,0.38c0.2,0.09,0.43,0.14,0.68,0.14c0.26,0,0.49-0.04,0.69-0.14c0.2-0.09,0.37-0.21,0.51-0.37
				c0.14-0.16,0.25-0.34,0.32-0.55c0.08-0.21,0.11-0.43,0.11-0.67V51.85z"/>
			<path class="st1" d="M242.76,55v-8.61h1.79V55H242.76z"/>
			<path class="st1" d="M250.81,55v-0.9c-0.22,0.3-0.49,0.54-0.8,0.73c-0.31,0.19-0.7,0.29-1.17,0.29c-0.37,0-0.73-0.07-1.07-0.21
				c-0.35-0.14-0.65-0.35-0.92-0.63c-0.27-0.28-0.48-0.62-0.64-1.03c-0.16-0.4-0.24-0.87-0.24-1.4v-0.02c0-0.53,0.08-0.99,0.24-1.4
				c0.16-0.41,0.37-0.75,0.64-1.03c0.26-0.28,0.57-0.49,0.91-0.63c0.35-0.14,0.71-0.21,1.09-0.21c0.48,0,0.88,0.09,1.19,0.28
				c0.31,0.19,0.57,0.41,0.79,0.66v-3.11h1.79V55H250.81z M250.83,51.82c0-0.26-0.04-0.5-0.12-0.72c-0.08-0.22-0.19-0.4-0.33-0.56
				c-0.14-0.15-0.3-0.27-0.48-0.36s-0.38-0.12-0.6-0.12c-0.21,0-0.41,0.04-0.6,0.12c-0.19,0.08-0.35,0.2-0.49,0.36
				s-0.25,0.34-0.34,0.55s-0.12,0.46-0.12,0.72v0.02c0,0.26,0.04,0.5,0.12,0.72s0.19,0.4,0.34,0.56c0.14,0.15,0.3,0.27,0.49,0.36
				c0.18,0.08,0.38,0.12,0.6,0.12c0.21,0,0.41-0.04,0.6-0.12s0.35-0.2,0.48-0.36c0.14-0.15,0.25-0.34,0.33-0.56
				c0.08-0.22,0.12-0.46,0.12-0.72V51.82z"/>
		</g>
	</g>
	<g>
		<rect x="91.55" y="65.41" class="st0" width="174.55" height="22.68"/>
		<g>
			<path class="st1" d="M112.33,74.62c0.06,0.16,0.17,0.3,0.33,0.43s0.38,0.25,0.65,0.35s0.64,0.21,1.07,0.3
				c0.88,0.2,1.53,0.49,1.95,0.85c0.42,0.36,0.63,0.86,0.63,1.5c0,0.35-0.07,0.68-0.2,0.97c-0.13,0.29-0.32,0.54-0.55,0.75
				c-0.23,0.2-0.52,0.36-0.85,0.47c-0.33,0.11-0.69,0.17-1.08,0.17c-0.63,0-1.21-0.11-1.73-0.32c-0.52-0.21-1.02-0.54-1.49-0.99
				l0.55-0.68c0.41,0.39,0.83,0.69,1.25,0.88c0.42,0.19,0.91,0.29,1.46,0.29c0.53,0,0.96-0.13,1.28-0.39s0.48-0.6,0.48-1.03
				c0-0.2-0.03-0.37-0.09-0.53c-0.06-0.15-0.17-0.29-0.32-0.42c-0.15-0.13-0.36-0.24-0.63-0.34s-0.61-0.2-1.02-0.3
				c-0.45-0.1-0.85-0.22-1.18-0.35c-0.33-0.13-0.61-0.29-0.83-0.48c-0.22-0.19-0.38-0.41-0.49-0.66c-0.11-0.25-0.16-0.55-0.16-0.9
				c0-0.33,0.06-0.63,0.19-0.91s0.31-0.51,0.54-0.71s0.51-0.36,0.82-0.47c0.32-0.11,0.66-0.17,1.04-0.17c0.58,0,1.08,0.08,1.52,0.25
				c0.43,0.17,0.85,0.42,1.26,0.75l-0.52,0.72c-0.37-0.31-0.74-0.54-1.11-0.68c-0.37-0.14-0.76-0.21-1.17-0.21
				c-0.26,0-0.49,0.04-0.69,0.11c-0.21,0.07-0.38,0.17-0.53,0.28c-0.15,0.12-0.26,0.26-0.34,0.42c-0.08,0.17-0.12,0.34-0.12,0.53
				C112.24,74.29,112.27,74.47,112.33,74.62z"/>
			<path class="st1" d="M119.74,78.56c0,0.38,0.09,0.64,0.27,0.79c0.18,0.15,0.42,0.22,0.71,0.22c0.15,0,0.29-0.02,0.42-0.05
				s0.27-0.09,0.42-0.17v0.78c-0.15,0.09-0.31,0.15-0.48,0.2c-0.17,0.04-0.36,0.06-0.57,0.06c-0.23,0-0.45-0.03-0.65-0.09
				c-0.2-0.06-0.38-0.16-0.52-0.3s-0.26-0.32-0.34-0.54c-0.08-0.22-0.12-0.48-0.12-0.79V75h-0.81v-0.8h0.81v-1.84h0.87v1.84h1.85V75
				h-1.85V78.56z"/>
			<path class="st1" d="M127.26,74.2h0.86v6.1h-0.86v-1.06c-0.2,0.33-0.45,0.61-0.77,0.84c-0.32,0.23-0.73,0.35-1.23,0.35
				c-0.35,0-0.67-0.06-0.94-0.18s-0.51-0.29-0.7-0.5c-0.19-0.22-0.34-0.47-0.44-0.77s-0.15-0.63-0.15-0.99V74.2h0.87v3.56
				c0,0.57,0.14,1.02,0.42,1.35s0.68,0.5,1.2,0.5c0.25,0,0.48-0.04,0.69-0.14c0.21-0.09,0.4-0.22,0.55-0.39
				c0.15-0.17,0.28-0.37,0.37-0.61c0.09-0.24,0.14-0.5,0.14-0.78V74.2z"/>
			<path class="st1" d="M134.75,80.3v-1.23c-0.12,0.18-0.25,0.35-0.4,0.52s-0.31,0.31-0.49,0.44c-0.18,0.13-0.38,0.22-0.6,0.29
				c-0.22,0.07-0.47,0.11-0.74,0.11c-0.35,0-0.7-0.07-1.03-0.21s-0.63-0.35-0.89-0.62c-0.26-0.27-0.47-0.6-0.63-1
				c-0.16-0.39-0.24-0.84-0.24-1.34c0-0.5,0.08-0.95,0.24-1.35c0.16-0.39,0.37-0.73,0.63-1c0.26-0.27,0.56-0.48,0.89-0.62
				s0.67-0.22,1.03-0.22c0.27,0,0.52,0.04,0.75,0.11c0.23,0.07,0.43,0.17,0.61,0.28s0.34,0.26,0.49,0.41
				c0.15,0.16,0.28,0.32,0.39,0.5v-3.68h0.87v8.61H134.75z M134.61,76.28c-0.12-0.29-0.27-0.54-0.47-0.74
				c-0.2-0.2-0.42-0.36-0.68-0.48c-0.25-0.11-0.51-0.17-0.78-0.17c-0.29,0-0.55,0.05-0.8,0.16c-0.25,0.11-0.46,0.26-0.65,0.46
				c-0.18,0.2-0.33,0.45-0.44,0.74c-0.11,0.29-0.16,0.62-0.16,0.99c0,0.36,0.05,0.68,0.16,0.97c0.11,0.29,0.26,0.54,0.45,0.75
				c0.19,0.21,0.41,0.37,0.65,0.48s0.51,0.16,0.79,0.16c0.27,0,0.53-0.06,0.78-0.17s0.48-0.27,0.68-0.48
				c0.2-0.2,0.36-0.45,0.47-0.75c0.12-0.29,0.17-0.62,0.17-0.97C134.78,76.89,134.72,76.57,134.61,76.28z"/>
			<path class="st1" d="M138.31,78.46c0.12,0.26,0.27,0.47,0.46,0.65c0.19,0.18,0.4,0.31,0.63,0.4c0.23,0.09,0.48,0.14,0.73,0.14
				c0.41,0,0.75-0.08,1.04-0.24c0.29-0.16,0.55-0.37,0.79-0.62l0.54,0.51c-0.29,0.35-0.63,0.62-1,0.83
				c-0.38,0.21-0.84,0.31-1.4,0.31c-0.4,0-0.77-0.08-1.13-0.23s-0.66-0.37-0.93-0.65s-0.48-0.62-0.63-1.01
				c-0.16-0.39-0.23-0.83-0.23-1.3c0-0.44,0.07-0.86,0.21-1.25c0.14-0.39,0.33-0.73,0.58-1.01s0.54-0.51,0.89-0.68
				c0.34-0.17,0.72-0.25,1.12-0.25c0.43,0,0.81,0.08,1.15,0.25c0.34,0.17,0.62,0.4,0.86,0.69s0.41,0.63,0.53,1.03
				c0.12,0.39,0.18,0.81,0.18,1.26c0,0.04,0,0.08,0,0.13s0,0.1-0.01,0.15h-4.61C138.12,77.91,138.19,78.21,138.31,78.46z
				 M141.82,76.91c-0.02-0.28-0.08-0.54-0.16-0.79s-0.21-0.47-0.36-0.66c-0.15-0.19-0.34-0.34-0.56-0.45
				c-0.22-0.11-0.48-0.17-0.77-0.17c-0.25,0-0.49,0.05-0.71,0.16s-0.41,0.25-0.57,0.44s-0.3,0.4-0.4,0.66
				c-0.11,0.25-0.17,0.53-0.2,0.83H141.82z"/>
			<path class="st1" d="M145.1,80.3h-0.87v-6.1h0.87v1.06c0.2-0.33,0.45-0.61,0.77-0.84c0.31-0.23,0.72-0.35,1.23-0.35
				c0.35,0,0.67,0.06,0.94,0.18c0.28,0.12,0.51,0.29,0.7,0.5c0.19,0.22,0.34,0.47,0.44,0.77c0.1,0.3,0.15,0.63,0.15,0.99v3.79h-0.87
				v-3.56c0-0.57-0.14-1.01-0.42-1.34c-0.28-0.33-0.68-0.5-1.2-0.5c-0.25,0-0.48,0.05-0.69,0.14c-0.21,0.09-0.4,0.22-0.56,0.39
				s-0.28,0.37-0.37,0.61c-0.09,0.24-0.13,0.5-0.13,0.78V80.3z"/>
			<path class="st1" d="M152.35,78.56c0,0.38,0.09,0.64,0.27,0.79c0.18,0.15,0.42,0.22,0.71,0.22c0.15,0,0.29-0.02,0.42-0.05
				c0.13-0.03,0.27-0.09,0.42-0.17v0.78c-0.15,0.09-0.31,0.15-0.48,0.2c-0.17,0.04-0.36,0.06-0.57,0.06c-0.23,0-0.45-0.03-0.65-0.09
				c-0.2-0.06-0.38-0.16-0.52-0.3s-0.26-0.32-0.34-0.54c-0.08-0.22-0.12-0.48-0.12-0.79V75h-0.81v-0.8h0.81v-1.84h0.87v1.84h1.85V75
				h-1.85V78.56z"/>
			<path class="st1" d="M164.61,78.47c-0.15,0.39-0.37,0.73-0.64,1.02c-0.27,0.29-0.59,0.52-0.97,0.69
				c-0.38,0.17-0.78,0.25-1.22,0.25c-0.44,0-0.84-0.08-1.21-0.25c-0.37-0.17-0.69-0.4-0.96-0.68s-0.48-0.62-0.63-1.01
				c-0.15-0.39-0.23-0.79-0.23-1.23s0.08-0.84,0.23-1.23s0.36-0.73,0.63-1.02s0.59-0.52,0.96-0.69c0.37-0.17,0.78-0.25,1.22-0.25
				c0.44,0,0.84,0.08,1.21,0.25s0.69,0.4,0.96,0.68c0.27,0.29,0.48,0.62,0.63,1.01s0.23,0.79,0.23,1.23S164.76,78.08,164.61,78.47z
				 M163.78,76.33c-0.11-0.29-0.26-0.54-0.46-0.76s-0.43-0.39-0.69-0.51c-0.26-0.13-0.55-0.19-0.86-0.19
				c-0.32,0-0.61,0.06-0.87,0.18c-0.26,0.12-0.49,0.29-0.67,0.51c-0.18,0.22-0.33,0.47-0.43,0.75c-0.11,0.29-0.16,0.59-0.16,0.92
				c0,0.33,0.05,0.64,0.16,0.93s0.26,0.54,0.45,0.75s0.42,0.38,0.68,0.51c0.26,0.12,0.55,0.19,0.86,0.19c0.32,0,0.61-0.06,0.87-0.18
				c0.26-0.12,0.49-0.29,0.68-0.5s0.34-0.46,0.44-0.75c0.1-0.29,0.16-0.59,0.16-0.92C163.95,76.93,163.89,76.62,163.78,76.33z"/>
			<path class="st1" d="M170.55,74.2h0.86v6.1h-0.86v-1.06c-0.2,0.33-0.45,0.61-0.77,0.84c-0.32,0.23-0.73,0.35-1.23,0.35
				c-0.35,0-0.67-0.06-0.94-0.18c-0.27-0.12-0.51-0.29-0.7-0.5c-0.19-0.22-0.34-0.47-0.44-0.77s-0.15-0.63-0.15-0.99V74.2h0.87v3.56
				c0,0.57,0.14,1.02,0.42,1.35c0.28,0.33,0.68,0.5,1.2,0.5c0.25,0,0.48-0.04,0.69-0.14c0.21-0.09,0.4-0.22,0.55-0.39
				c0.15-0.17,0.28-0.37,0.37-0.61c0.09-0.24,0.14-0.5,0.14-0.78V74.2z"/>
			<path class="st1" d="M174.53,78.56c0,0.38,0.09,0.64,0.27,0.79c0.18,0.15,0.42,0.22,0.71,0.22c0.15,0,0.29-0.02,0.42-0.05
				c0.13-0.03,0.27-0.09,0.42-0.17v0.78c-0.15,0.09-0.31,0.15-0.48,0.2c-0.17,0.04-0.36,0.06-0.57,0.06c-0.23,0-0.45-0.03-0.65-0.09
				c-0.2-0.06-0.38-0.16-0.52-0.3s-0.26-0.32-0.34-0.54c-0.08-0.22-0.12-0.48-0.12-0.79V75h-0.81v-0.8h0.81v-1.84h0.87v1.84h1.85V75
				h-1.85V78.56z"/>
			<path class="st1" d="M181.75,80.1c-0.37,0.22-0.83,0.33-1.38,0.33c-0.43,0-0.82-0.08-1.19-0.25c-0.37-0.17-0.68-0.4-0.95-0.68
				s-0.47-0.62-0.62-1.01c-0.15-0.39-0.23-0.79-0.23-1.23s0.08-0.84,0.23-1.23s0.36-0.73,0.62-1.02s0.58-0.52,0.95-0.69
				s0.76-0.25,1.19-0.25c0.28,0,0.53,0.03,0.76,0.08c0.23,0.05,0.43,0.13,0.62,0.23c0.19,0.1,0.36,0.21,0.52,0.35
				c0.16,0.13,0.3,0.28,0.44,0.42l-0.58,0.64c-0.23-0.25-0.49-0.47-0.76-0.65c-0.27-0.18-0.61-0.27-1.01-0.27
				c-0.29,0-0.57,0.06-0.82,0.18c-0.26,0.12-0.48,0.29-0.67,0.51s-0.33,0.47-0.44,0.75c-0.11,0.29-0.16,0.59-0.16,0.92
				c0,0.33,0.05,0.64,0.16,0.93s0.26,0.54,0.45,0.76c0.19,0.22,0.42,0.38,0.68,0.51c0.26,0.12,0.54,0.18,0.85,0.18
				c0.38,0,0.71-0.09,1-0.26c0.29-0.17,0.55-0.39,0.79-0.65l0.55,0.54C182.46,79.59,182.12,79.88,181.75,80.1z"/>
			<path class="st1" d="M189.5,78.47c-0.15,0.39-0.37,0.73-0.64,1.02c-0.27,0.29-0.59,0.52-0.97,0.69
				c-0.38,0.17-0.78,0.25-1.22,0.25s-0.84-0.08-1.21-0.25c-0.37-0.17-0.69-0.4-0.96-0.68c-0.27-0.29-0.48-0.62-0.63-1.01
				c-0.15-0.39-0.22-0.79-0.22-1.23s0.07-0.84,0.22-1.23s0.36-0.73,0.63-1.02c0.27-0.29,0.59-0.52,0.96-0.69
				c0.37-0.17,0.78-0.25,1.22-0.25c0.44,0,0.84,0.08,1.21,0.25c0.37,0.17,0.7,0.4,0.96,0.68c0.27,0.29,0.48,0.62,0.63,1.01
				c0.15,0.39,0.22,0.79,0.22,1.23S189.65,78.08,189.5,78.47z M188.67,76.33c-0.11-0.29-0.26-0.54-0.46-0.76s-0.42-0.39-0.69-0.51
				s-0.55-0.19-0.86-0.19c-0.32,0-0.61,0.06-0.87,0.18c-0.26,0.12-0.49,0.29-0.67,0.51s-0.33,0.47-0.43,0.75
				c-0.11,0.29-0.16,0.59-0.16,0.92c0,0.33,0.05,0.64,0.16,0.93c0.11,0.29,0.26,0.54,0.45,0.75c0.19,0.21,0.42,0.38,0.68,0.51
				c0.26,0.12,0.55,0.19,0.86,0.19c0.31,0,0.61-0.06,0.87-0.18c0.26-0.12,0.49-0.29,0.68-0.5s0.33-0.46,0.44-0.75
				s0.16-0.59,0.16-0.92C188.84,76.93,188.78,76.62,188.67,76.33z"/>
			<path class="st1" d="M196.28,74.81c0.13-0.15,0.28-0.28,0.45-0.39c0.17-0.11,0.35-0.2,0.56-0.26c0.21-0.06,0.44-0.09,0.69-0.09
				c0.68,0,1.21,0.22,1.59,0.66c0.38,0.44,0.57,1.04,0.57,1.8v3.78h-0.87v-3.56c0-0.59-0.13-1.04-0.4-1.36
				c-0.27-0.32-0.64-0.48-1.11-0.48c-0.22,0-0.43,0.04-0.62,0.12s-0.37,0.21-0.51,0.37s-0.26,0.36-0.35,0.6
				c-0.09,0.24-0.13,0.5-0.13,0.8v3.52h-0.86v-3.59c0-0.57-0.13-1.02-0.4-1.34c-0.27-0.32-0.63-0.48-1.1-0.48
				c-0.23,0-0.45,0.05-0.64,0.14s-0.37,0.23-0.51,0.4s-0.26,0.38-0.34,0.61c-0.08,0.23-0.12,0.49-0.12,0.77v3.48h-0.87v-6.1h0.87
				v1.03c0.1-0.15,0.21-0.29,0.32-0.44s0.25-0.26,0.4-0.37s0.32-0.19,0.51-0.25c0.19-0.06,0.41-0.09,0.65-0.09
				c0.47,0,0.86,0.12,1.17,0.35c0.31,0.23,0.54,0.52,0.7,0.87C196.03,75.12,196.15,74.96,196.28,74.81z"/>
			<path class="st1" d="M202.78,78.46c0.12,0.26,0.28,0.47,0.46,0.65s0.4,0.31,0.63,0.4c0.23,0.09,0.48,0.14,0.73,0.14
				c0.41,0,0.75-0.08,1.04-0.24s0.55-0.37,0.79-0.62l0.54,0.51c-0.29,0.35-0.63,0.62-1,0.83c-0.38,0.21-0.84,0.31-1.4,0.31
				c-0.4,0-0.77-0.08-1.13-0.23s-0.66-0.37-0.93-0.65c-0.27-0.28-0.48-0.62-0.63-1.01c-0.15-0.39-0.23-0.83-0.23-1.3
				c0-0.44,0.07-0.86,0.21-1.25c0.14-0.39,0.33-0.73,0.58-1.01s0.54-0.51,0.88-0.68s0.72-0.25,1.12-0.25c0.43,0,0.81,0.08,1.15,0.25
				c0.34,0.17,0.62,0.4,0.86,0.69c0.23,0.29,0.41,0.63,0.53,1.03c0.12,0.39,0.18,0.81,0.18,1.26c0,0.04,0,0.08,0,0.13
				s0,0.1-0.01,0.15h-4.61C202.58,77.91,202.66,78.21,202.78,78.46z M206.29,76.91c-0.02-0.28-0.08-0.54-0.16-0.79
				s-0.21-0.47-0.36-0.66c-0.15-0.19-0.34-0.34-0.56-0.45s-0.48-0.17-0.77-0.17c-0.25,0-0.49,0.05-0.71,0.16s-0.41,0.25-0.57,0.44
				s-0.3,0.4-0.4,0.66c-0.11,0.25-0.17,0.53-0.2,0.83H206.29z"/>
			<path class="st1" d="M212.54,79.36c-0.11,0.22-0.26,0.42-0.44,0.57c-0.19,0.16-0.4,0.28-0.65,0.36
				c-0.25,0.08-0.53,0.12-0.82,0.12c-0.42,0-0.85-0.08-1.27-0.24c-0.43-0.16-0.81-0.38-1.14-0.65l0.44-0.65
				c0.31,0.25,0.64,0.44,0.99,0.58s0.69,0.2,1.03,0.2c0.35,0,0.64-0.09,0.87-0.26c0.23-0.17,0.34-0.41,0.34-0.71v-0.02
				c0-0.15-0.04-0.28-0.12-0.39c-0.08-0.11-0.19-0.21-0.32-0.29c-0.13-0.08-0.29-0.16-0.47-0.22c-0.18-0.06-0.36-0.12-0.55-0.18
				c-0.22-0.07-0.45-0.15-0.68-0.23c-0.23-0.08-0.44-0.19-0.62-0.31c-0.18-0.12-0.33-0.28-0.45-0.47c-0.12-0.19-0.17-0.42-0.17-0.71
				v-0.02c0-0.26,0.05-0.5,0.15-0.71c0.1-0.22,0.23-0.4,0.41-0.55c0.18-0.15,0.39-0.27,0.63-0.35c0.24-0.08,0.51-0.12,0.79-0.12
				c0.36,0,0.73,0.06,1.09,0.18c0.37,0.12,0.7,0.29,1,0.49l-0.39,0.68c-0.27-0.18-0.55-0.32-0.85-0.43s-0.59-0.16-0.87-0.16
				c-0.35,0-0.62,0.08-0.82,0.25s-0.3,0.38-0.3,0.63v0.02c0,0.14,0.04,0.27,0.12,0.37c0.08,0.11,0.19,0.2,0.33,0.28
				c0.14,0.08,0.3,0.15,0.48,0.21c0.18,0.06,0.37,0.13,0.56,0.19c0.23,0.07,0.45,0.15,0.67,0.24c0.22,0.09,0.42,0.2,0.6,0.33
				c0.18,0.13,0.32,0.29,0.43,0.48s0.16,0.42,0.16,0.7v0.02C212.7,78.88,212.65,79.13,212.54,79.36z"/>
			<path class="st1" d="M214.27,75.43V74.2h1.04v1.24H214.27z M214.27,80.3v-1.24h1.04v1.24H214.27z"/>
			<path class="st1" d="M226.28,80.05c-0.56,0.25-1.2,0.38-1.92,0.38c-0.62,0-1.18-0.11-1.69-0.32c-0.51-0.21-0.95-0.51-1.31-0.88
				c-0.37-0.38-0.65-0.83-0.85-1.35c-0.2-0.52-0.3-1.08-0.3-1.7v-0.02c0-0.59,0.1-1.14,0.31-1.66c0.21-0.51,0.49-0.97,0.86-1.36
				c0.37-0.39,0.8-0.7,1.31-0.92c0.5-0.22,1.06-0.34,1.66-0.34c0.35,0,0.68,0.03,0.96,0.08c0.29,0.05,0.56,0.12,0.81,0.22
				s0.48,0.21,0.7,0.35c0.22,0.14,0.43,0.3,0.63,0.48l-1.09,1.38c-0.15-0.13-0.3-0.25-0.45-0.35c-0.15-0.1-0.31-0.19-0.47-0.26
				c-0.16-0.07-0.34-0.12-0.52-0.17c-0.19-0.04-0.39-0.06-0.62-0.06c-0.32,0-0.61,0.07-0.88,0.21c-0.28,0.14-0.52,0.32-0.72,0.56
				s-0.37,0.5-0.48,0.82s-0.18,0.64-0.18,1v0.02c0,0.38,0.06,0.73,0.18,1.05s0.28,0.6,0.5,0.83s0.47,0.42,0.76,0.55
				s0.61,0.2,0.96,0.2c0.65,0,1.19-0.17,1.63-0.5v-1.19h-1.75v-1.57h3.43v3.59C227.32,79.49,226.84,79.8,226.28,80.05z"/>
			<path class="st1" d="M235.21,78.43c-0.16,0.4-0.39,0.75-0.69,1.04c-0.29,0.3-0.64,0.54-1.04,0.71c-0.4,0.17-0.83,0.26-1.31,0.26
				c-0.47,0-0.9-0.08-1.3-0.25c-0.4-0.17-0.74-0.4-1.03-0.7c-0.29-0.3-0.52-0.64-0.68-1.04c-0.16-0.4-0.25-0.82-0.25-1.28v-0.02
				c0-0.46,0.08-0.88,0.25-1.28c0.17-0.4,0.39-0.75,0.69-1.04c0.29-0.3,0.64-0.54,1.04-0.71s0.83-0.26,1.31-0.26
				c0.46,0,0.9,0.08,1.3,0.25c0.4,0.17,0.74,0.4,1.03,0.7c0.29,0.29,0.52,0.64,0.68,1.04c0.17,0.4,0.25,0.82,0.25,1.28v0.02
				C235.46,77.6,235.38,78.03,235.21,78.43z M233.77,77.15c0-0.24-0.04-0.46-0.11-0.67c-0.08-0.21-0.19-0.39-0.33-0.55
				c-0.14-0.16-0.31-0.29-0.51-0.38c-0.2-0.09-0.41-0.14-0.64-0.14c-0.25,0-0.47,0.04-0.66,0.14c-0.19,0.09-0.36,0.21-0.49,0.37
				c-0.13,0.16-0.24,0.34-0.31,0.55c-0.07,0.21-0.11,0.43-0.11,0.67v0.02c0,0.24,0.04,0.46,0.11,0.67c0.08,0.21,0.18,0.39,0.33,0.55
				c0.14,0.16,0.31,0.29,0.5,0.38c0.19,0.09,0.41,0.14,0.65,0.14c0.25,0,0.47-0.04,0.66-0.14c0.19-0.09,0.36-0.21,0.49-0.37
				c0.13-0.16,0.24-0.34,0.31-0.55c0.07-0.21,0.11-0.43,0.11-0.67V77.15z"/>
			<path class="st1" d="M236.78,80.3v-8.61h1.71v8.61H236.78z"/>
			<path class="st1" d="M244.47,80.3v-0.9c-0.21,0.3-0.46,0.54-0.76,0.73c-0.3,0.19-0.67,0.29-1.12,0.29c-0.35,0-0.7-0.07-1.03-0.21
				c-0.33-0.14-0.62-0.35-0.88-0.63s-0.46-0.62-0.62-1.03s-0.23-0.87-0.23-1.4v-0.02c0-0.53,0.08-0.99,0.23-1.4s0.36-0.75,0.61-1.03
				s0.54-0.49,0.88-0.63c0.33-0.14,0.68-0.21,1.04-0.21c0.46,0,0.84,0.09,1.13,0.28c0.3,0.19,0.55,0.41,0.75,0.66v-3.11h1.71v8.61
				H244.47z M244.5,77.12c0-0.26-0.04-0.5-0.12-0.72s-0.18-0.4-0.32-0.56c-0.13-0.15-0.29-0.27-0.46-0.36
				c-0.18-0.08-0.37-0.12-0.57-0.12s-0.39,0.04-0.57,0.12c-0.18,0.08-0.33,0.2-0.47,0.36c-0.14,0.15-0.24,0.34-0.32,0.55
				c-0.08,0.21-0.12,0.46-0.12,0.72v0.02c0,0.26,0.04,0.5,0.12,0.72c0.08,0.22,0.19,0.4,0.32,0.56c0.13,0.15,0.29,0.27,0.47,0.36
				c0.18,0.08,0.37,0.12,0.57,0.12s0.39-0.04,0.57-0.12c0.18-0.08,0.33-0.2,0.46-0.36c0.13-0.15,0.24-0.34,0.32-0.56
				s0.12-0.46,0.12-0.72V77.12z"/>
		</g>
	</g>
	<g>
		<g>
			<rect x="3.25" y="3.67" class="st1" width="84.42" height="84.42"/>
			<linearGradient id="SVGID_1_" gradientUnits="userSpaceOnUse" x1="92.2754" y1="6.8862" x2="35.0918" y2="105.9311">
				<stop  offset="0" style="stop-color:#172852"/>
				<stop  offset="0.0271" style="stop-color:#182D56"/>
				<stop  offset="0.069" style="stop-color:#1C3A63"/>
				<stop  offset="0.1203" style="stop-color:#23507A"/>
				<stop  offset="0.1787" style="stop-color:#2C709F"/>
				<stop  offset="0.2365" style="stop-color:#2E9ED9"/>
				<stop  offset="0.3735" style="stop-color:#265984"/>
				<stop  offset="0.4709" style="stop-color:#1B365E"/>
				<stop  offset="0.5175" style="stop-color:#172852"/>
				<stop  offset="0.5493" style="stop-color:#182C55"/>
				<stop  offset="0.5943" style="stop-color:#1B3860"/>
				<stop  offset="0.6471" style="stop-color:#224A73"/>
				<stop  offset="0.7059" style="stop-color:#2A6592"/>
				<stop  offset="0.769" style="stop-color:#2F8DC1"/>
				<stop  offset="0.7882" style="stop-color:#2E9ED9"/>
				<stop  offset="0.798" style="stop-color:#2F92C8"/>
				<stop  offset="0.8495" style="stop-color:#2B6895"/>
				<stop  offset="0.8971" style="stop-color:#224C75"/>
				<stop  offset="0.9396" style="stop-color:#1B3861"/>
				<stop  offset="0.9754" style="stop-color:#182C55"/>
				<stop  offset="1" style="stop-color:#172852"/>
			</linearGradient>
			<polygon class="st2" points="87.42,87.8 3.7,87.8 87.42,4.08 			"/>
		</g>
		<g>
			<g>
				<path class="st3" d="M24.78,24.92v22.54h-6.22V24.92h-8.6v-5.74h23.43v5.74H24.78z"/>
				<path class="st3" d="M35.85,47.45V19.18h21.28v5.53H41.99v5.74h13.33v5.53H41.99v5.94h15.35v5.53H35.85z"/>
				<path class="st3" d="M65.66,24.8v6.1h13.49v5.61H65.66v10.95h-6.22V19.18h21.53v5.61H65.66z"/>
			</g>
			<g>
				<path class="st3" d="M17.03,55.39c-0.79,0.56-1.58,1.39-2.35,2.47l-1.6-1.16c0.44-0.64,0.89-1.22,1.35-1.74
					c0.46-0.51,0.96-0.94,1.51-1.29c0.54-0.35,1.15-0.61,1.82-0.79c0.67-0.18,1.43-0.27,2.28-0.27c0.88,0,1.69,0.14,2.42,0.41
					c0.73,0.28,1.36,0.66,1.89,1.15c0.53,0.49,0.95,1.07,1.24,1.74c0.29,0.67,0.44,1.41,0.44,2.2c0,0.72-0.1,1.37-0.29,1.96
					c-0.19,0.59-0.49,1.18-0.9,1.76c-0.41,0.58-0.91,1.18-1.52,1.8c-0.61,0.62-1.34,1.3-2.18,2.03l-5.17,4.59h10.26v1.99H12.71
					v-1.69l7.02-6.2c0.74-0.66,1.36-1.26,1.88-1.8c0.52-0.54,0.94-1.04,1.26-1.51c0.32-0.47,0.55-0.93,0.69-1.38
					c0.14-0.45,0.21-0.92,0.21-1.4c0-0.57-0.11-1.08-0.32-1.54c-0.21-0.45-0.49-0.84-0.84-1.16c-0.35-0.32-0.77-0.57-1.24-0.75
					c-0.48-0.18-0.98-0.26-1.49-0.26C18.77,54.55,17.82,54.83,17.03,55.39z"/>
				<path class="st3" d="M44.84,66.41c-0.39,1.22-0.94,2.28-1.65,3.19c-0.71,0.91-1.57,1.64-2.59,2.17c-1.01,0.53-2.14,0.8-3.37,0.8
					c-1.25,0-2.38-0.26-3.39-0.79c-1-0.53-1.86-1.24-2.57-2.16c-0.71-0.91-1.25-1.97-1.63-3.18c-0.38-1.21-0.57-2.49-0.57-3.86
					c0-1.36,0.19-2.65,0.58-3.87c0.39-1.22,0.94-2.28,1.65-3.19c0.71-0.91,1.57-1.64,2.59-2.17c1.01-0.53,2.15-0.8,3.4-0.8
					c1.23,0,2.35,0.26,3.36,0.79c1,0.53,1.86,1.24,2.57,2.16c0.71,0.91,1.25,1.97,1.63,3.18c0.38,1.21,0.57,2.49,0.57,3.86
					C45.42,63.9,45.23,65.19,44.84,66.41z M42.74,59.54c-0.28-0.97-0.67-1.82-1.19-2.56c-0.52-0.74-1.14-1.33-1.87-1.77
					c-0.73-0.44-1.54-0.66-2.45-0.66s-1.72,0.22-2.45,0.65c-0.73,0.43-1.35,1.01-1.85,1.74c-0.51,0.73-0.9,1.58-1.18,2.54
					c-0.28,0.97-0.41,1.99-0.41,3.06c0,1.07,0.14,2.09,0.41,3.07c0.28,0.98,0.67,1.83,1.19,2.57c0.52,0.74,1.14,1.32,1.88,1.76
					c0.74,0.43,1.56,0.65,2.46,0.65c0.9,0,1.72-0.22,2.45-0.65c0.73-0.43,1.35-1.01,1.85-1.74c0.51-0.73,0.89-1.58,1.16-2.54
					c0.27-0.97,0.4-1.99,0.4-3.06C43.16,61.52,43.02,60.51,42.74,59.54z"/>
				<path class="st3" d="M51.92,55.39c-0.79,0.56-1.58,1.39-2.35,2.47l-1.6-1.16c0.44-0.64,0.89-1.22,1.35-1.74
					c0.46-0.51,0.96-0.94,1.51-1.29c0.54-0.35,1.15-0.61,1.82-0.79c0.67-0.18,1.43-0.27,2.28-0.27c0.88,0,1.69,0.14,2.42,0.41
					c0.73,0.28,1.36,0.66,1.89,1.15c0.53,0.49,0.95,1.07,1.24,1.74c0.3,0.67,0.44,1.41,0.44,2.2c0,0.72-0.1,1.37-0.29,1.96
					c-0.19,0.59-0.49,1.18-0.9,1.76c-0.41,0.58-0.91,1.18-1.52,1.8c-0.61,0.62-1.34,1.3-2.18,2.03l-5.17,4.59h10.26v1.99H47.61
					v-1.69l7.02-6.2c0.74-0.66,1.36-1.26,1.88-1.8c0.52-0.54,0.94-1.04,1.26-1.51c0.32-0.47,0.55-0.93,0.69-1.38
					c0.14-0.45,0.21-0.92,0.21-1.4c0-0.57-0.11-1.08-0.32-1.54c-0.21-0.45-0.49-0.84-0.84-1.16c-0.35-0.32-0.77-0.57-1.24-0.75
					c-0.48-0.18-0.98-0.26-1.49-0.26C53.66,54.55,52.71,54.83,51.92,55.39z"/>
				<path class="st3" d="M65.58,54.82v-1.94h12.34v1.6l-6.06,6.75c0.85,0.07,1.66,0.23,2.43,0.47c0.77,0.24,1.45,0.58,2.03,1.02
					c0.58,0.44,1.04,1,1.38,1.66c0.35,0.66,0.52,1.44,0.52,2.32c0,0.87-0.17,1.66-0.51,2.38c-0.34,0.72-0.79,1.34-1.37,1.85
					c-0.58,0.52-1.26,0.92-2.04,1.2c-0.78,0.29-1.63,0.43-2.53,0.43c-1.62,0-3.03-0.32-4.23-0.95c-1.2-0.64-2.19-1.47-2.99-2.5
					l1.58-1.41c0.76,0.92,1.59,1.63,2.5,2.13c0.91,0.5,1.97,0.75,3.17,0.75c0.59,0,1.14-0.09,1.66-0.26
					c0.52-0.17,0.96-0.43,1.34-0.76c0.38-0.33,0.68-0.73,0.9-1.2s0.33-0.99,0.33-1.56c0-1.22-0.5-2.15-1.51-2.79
					c-1.01-0.65-2.31-0.97-3.91-0.97h-1.24l-0.44-1.3l6.11-6.91H65.58z"/>
			</g>
		</g>
	</g>
</g>
</svg>
