<?xml version="1.0" encoding="utf-8"?>
<!-- Generator: Adobe Illustrator 27.0.0, SVG Export Plug-In . SVG Version: 6.00 Build 0)  -->
<svg version="1.1" id="Layer_1" xmlns="http://www.w3.org/2000/svg" xmlns:xlink="http://www.w3.org/1999/xlink" x="0px" y="0px"
	 viewBox="0 0 269.29 113.39" style="enable-background:new 0 0 269.29 113.39;" xml:space="preserve">
<style type="text/css">
	.st0{fill:#FCB53B;}
	.st1{fill:#001F4E;}
	.st2{fill:#869FB4;}
	.st3{fill:url(#SVGID_1_);stroke:#172852;stroke-width:0.5038;stroke-miterlimit:10;}
	.st4{fill:#FFFFFF;}
</style>
<g>
	<rect x="91.83" y="3.96" class="st0" width="174.55" height="32.91"/>
	<g>
		<path class="st1" d="M126.45,23.57c-0.35,0.87-0.83,1.64-1.46,2.31c-0.63,0.67-1.38,1.2-2.26,1.59s-1.85,0.59-2.92,0.59
			c-1.07,0-2.04-0.19-2.91-0.58c-0.87-0.39-1.62-0.91-2.25-1.57c-0.63-0.66-1.11-1.43-1.45-2.3c-0.34-0.87-0.51-1.8-0.51-2.77
			c0-0.97,0.17-1.9,0.52-2.77c0.35-0.87,0.83-1.64,1.46-2.31c0.63-0.67,1.38-1.2,2.26-1.59c0.88-0.39,1.85-0.59,2.92-0.59
			c1.07,0,2.04,0.19,2.91,0.58c0.87,0.39,1.62,0.91,2.25,1.57c0.63,0.66,1.11,1.43,1.45,2.3c0.34,0.87,0.51,1.8,0.51,2.77
			C126.97,21.78,126.79,22.7,126.45,23.57z M124.92,18.58c-0.27-0.71-0.66-1.32-1.15-1.84s-1.08-0.93-1.75-1.24
			s-1.41-0.46-2.21-0.46s-1.54,0.15-2.21,0.45c-0.67,0.3-1.25,0.71-1.73,1.23s-0.86,1.13-1.13,1.83c-0.27,0.7-0.41,1.45-0.41,2.25
			s0.14,1.55,0.41,2.26c0.27,0.71,0.66,1.32,1.15,1.84c0.49,0.52,1.08,0.93,1.75,1.24c0.67,0.31,1.41,0.46,2.21,0.46
			s1.54-0.15,2.21-0.45c0.67-0.3,1.25-0.71,1.73-1.23s0.86-1.13,1.13-1.83s0.41-1.45,0.41-2.25S125.19,19.29,124.92,18.58z"/>
		<path class="st1" d="M138.21,17.48h1.66l-4.5,10.42h-1.36l-4.48-10.42h1.7l3.48,8.58L138.21,17.48z"/>
		<path class="st1" d="M143.53,24.71c0.21,0.43,0.49,0.8,0.82,1.1c0.33,0.3,0.71,0.53,1.12,0.68c0.41,0.15,0.85,0.23,1.3,0.23
			c0.72,0,1.34-0.13,1.85-0.4c0.51-0.27,0.98-0.62,1.41-1.06l0.96,0.86c-0.52,0.59-1.11,1.06-1.78,1.41s-1.49,0.53-2.48,0.53
			c-0.71,0-1.37-0.13-2-0.39c-0.63-0.26-1.17-0.63-1.64-1.1c-0.47-0.47-0.84-1.04-1.12-1.71c-0.28-0.67-0.42-1.4-0.42-2.2
			c0-0.75,0.12-1.45,0.37-2.11s0.59-1.23,1.03-1.72c0.44-0.49,0.96-0.87,1.57-1.15c0.61-0.28,1.27-0.42,1.99-0.42
			c0.76,0,1.44,0.14,2.04,0.43c0.6,0.29,1.11,0.68,1.52,1.17c0.41,0.49,0.73,1.07,0.94,1.74c0.21,0.67,0.32,1.38,0.32,2.14
			c0,0.07,0,0.14,0,0.22s-0.01,0.17-0.02,0.26h-8.18C143.18,23.78,143.31,24.28,143.53,24.71z M149.75,22.08
			c-0.04-0.47-0.14-0.91-0.29-1.34c-0.15-0.43-0.37-0.8-0.64-1.12c-0.27-0.32-0.6-0.58-0.99-0.77c-0.39-0.19-0.84-0.29-1.36-0.29
			c-0.45,0-0.87,0.09-1.25,0.27c-0.38,0.18-0.72,0.43-1.01,0.74c-0.29,0.31-0.53,0.68-0.72,1.11c-0.19,0.43-0.3,0.89-0.36,1.4
			H149.75z"/>
		<path class="st1" d="M156.07,27.82h-1.54V17.48h1.54v2.7c0.19-0.43,0.42-0.82,0.7-1.18c0.28-0.36,0.6-0.67,0.96-0.93
			c0.36-0.26,0.75-0.46,1.18-0.59c0.43-0.13,0.89-0.19,1.38-0.18v1.66h-0.12c-0.56,0-1.09,0.1-1.59,0.3c-0.5,0.2-0.94,0.5-1.31,0.9
			c-0.37,0.4-0.67,0.9-0.88,1.49s-0.32,1.28-0.32,2.05V27.82z"/>
		<path class="st1" d="M164.7,18.91c-0.5,0.14-0.99,0.32-1.47,0.55l-0.46-1.26c0.57-0.27,1.15-0.48,1.74-0.63
			c0.59-0.15,1.26-0.23,2.02-0.23c1.41,0,2.5,0.35,3.26,1.05c0.76,0.7,1.14,1.74,1.14,3.11v6.32h-1.48v-1.56
			c-0.36,0.47-0.84,0.88-1.45,1.24c-0.61,0.36-1.37,0.54-2.29,0.54c-0.48,0-0.95-0.07-1.41-0.2s-0.87-0.34-1.24-0.61
			c-0.37-0.27-0.66-0.61-0.88-1.01c-0.22-0.4-0.33-0.87-0.33-1.42c0-0.55,0.11-1.03,0.32-1.45c0.21-0.42,0.52-0.77,0.91-1.05
			s0.86-0.49,1.4-0.64c0.54-0.15,1.14-0.22,1.79-0.22c0.67,0,1.25,0.04,1.74,0.12c0.49,0.08,0.97,0.19,1.44,0.32v-0.36
			c0-0.93-0.27-1.64-0.81-2.11c-0.54-0.47-1.3-0.71-2.27-0.71C165.75,18.7,165.2,18.77,164.7,18.91z M164.21,23.16
			c-0.52,0.39-0.78,0.91-0.78,1.58c0,0.33,0.07,0.63,0.21,0.88c0.14,0.25,0.33,0.47,0.57,0.65c0.24,0.18,0.51,0.32,0.83,0.41
			c0.31,0.09,0.64,0.14,0.99,0.14c0.48,0,0.93-0.07,1.35-0.21s0.78-0.33,1.1-0.58c0.31-0.25,0.56-0.54,0.74-0.88
			s0.27-0.72,0.27-1.13v-1c-0.39-0.11-0.83-0.21-1.33-0.3c-0.5-0.09-1.07-0.14-1.7-0.14C165.47,22.58,164.72,22.78,164.21,23.16z"/>
		<path class="st1" d="M174.85,27.82v-14.6h1.54v14.6H174.85z"/>
		<path class="st1" d="M180.61,27.82v-14.6h1.54v14.6H180.61z"/>
		<path class="st1" d="M186.15,19.58v-2.1h1.84v2.1H186.15z M186.15,27.82v-2.1h1.84v2.1H186.15z"/>
		<path class="st1" d="M208.44,27.41c-0.99,0.43-2.13,0.65-3.41,0.65c-1.09,0-2.09-0.18-2.99-0.54c-0.9-0.36-1.67-0.86-2.32-1.5
			c-0.65-0.64-1.15-1.4-1.51-2.28c-0.36-0.88-0.54-1.84-0.54-2.88v-0.04c0-1,0.18-1.94,0.55-2.81c0.37-0.87,0.88-1.64,1.53-2.3
			c0.65-0.66,1.43-1.18,2.32-1.56s1.87-0.57,2.94-0.57c0.63,0,1.2,0.04,1.71,0.13c0.51,0.09,0.99,0.21,1.43,0.37
			c0.44,0.16,0.85,0.36,1.24,0.6c0.39,0.24,0.76,0.51,1.12,0.82l-1.94,2.34c-0.27-0.23-0.53-0.43-0.8-0.6
			c-0.27-0.17-0.54-0.32-0.83-0.44s-0.6-0.21-0.93-0.28c-0.33-0.07-0.7-0.1-1.1-0.1c-0.56,0-1.08,0.12-1.57,0.35
			c-0.49,0.23-0.91,0.55-1.28,0.94c-0.37,0.39-0.65,0.86-0.86,1.38c-0.21,0.53-0.31,1.09-0.31,1.69v0.04c0,0.64,0.1,1.23,0.31,1.77
			c0.21,0.54,0.5,1.01,0.88,1.41c0.38,0.4,0.83,0.71,1.34,0.93c0.51,0.22,1.08,0.33,1.71,0.33c1.15,0,2.11-0.28,2.9-0.85v-2.01h-3.1
			v-2.66h6.08v6.08C210.29,26.46,209.43,26.98,208.44,27.41z"/>
		<path class="st1" d="M224.79,24.65c-0.29,0.67-0.7,1.26-1.22,1.77c-0.52,0.51-1.13,0.91-1.84,1.2c-0.71,0.29-1.48,0.44-2.32,0.44
			c-0.83,0-1.59-0.14-2.3-0.43c-0.71-0.29-1.32-0.68-1.83-1.18c-0.51-0.5-0.92-1.09-1.21-1.76c-0.29-0.67-0.44-1.4-0.44-2.17v-0.04
			c0-0.77,0.15-1.5,0.44-2.17c0.29-0.67,0.7-1.26,1.22-1.77c0.52-0.51,1.13-0.91,1.84-1.2c0.71-0.29,1.48-0.44,2.32-0.44
			c0.83,0,1.59,0.14,2.3,0.43c0.71,0.29,1.32,0.68,1.83,1.18s0.92,1.09,1.21,1.76s0.44,1.4,0.44,2.17v0.04
			C225.23,23.26,225.08,23.98,224.79,24.65z M222.23,22.48c0-0.4-0.07-0.78-0.2-1.13c-0.13-0.35-0.33-0.67-0.58-0.94
			c-0.25-0.27-0.55-0.49-0.9-0.65s-0.73-0.24-1.14-0.24c-0.44,0-0.83,0.08-1.17,0.23s-0.63,0.36-0.87,0.63s-0.42,0.58-0.55,0.93
			c-0.13,0.35-0.19,0.73-0.19,1.13v0.04c0,0.4,0.07,0.78,0.2,1.13c0.13,0.35,0.33,0.67,0.58,0.94c0.25,0.27,0.55,0.49,0.89,0.65
			c0.34,0.16,0.72,0.24,1.15,0.24c0.44,0,0.83-0.08,1.17-0.23s0.63-0.36,0.87-0.63c0.24-0.27,0.42-0.58,0.55-0.93
			c0.13-0.35,0.19-0.73,0.19-1.13V22.48z"/>
		<path class="st1" d="M228.07,27.82v-14.6h3.04v14.6H228.07z"/>
		<path class="st1" d="M242.21,27.82V26.3c-0.37,0.5-0.82,0.92-1.35,1.24c-0.53,0.32-1.19,0.49-1.99,0.49
			c-0.63,0-1.23-0.12-1.82-0.36c-0.59-0.24-1.11-0.6-1.56-1.07c-0.45-0.47-0.82-1.05-1.09-1.74c-0.27-0.69-0.41-1.48-0.41-2.37
			v-0.04c0-0.89,0.14-1.68,0.41-2.37c0.27-0.69,0.63-1.27,1.08-1.74c0.45-0.47,0.96-0.83,1.55-1.07c0.59-0.24,1.2-0.36,1.84-0.36
			c0.81,0,1.48,0.16,2.01,0.48c0.53,0.32,0.97,0.69,1.33,1.11v-5.27h3.04v14.6H242.21z M242.25,22.44c0-0.44-0.07-0.85-0.21-1.22
			c-0.14-0.37-0.33-0.68-0.56-0.95s-0.51-0.46-0.82-0.6s-0.65-0.21-1.01-0.21c-0.36,0-0.7,0.07-1.01,0.21s-0.59,0.34-0.83,0.6
			s-0.43,0.57-0.57,0.94c-0.14,0.36-0.21,0.77-0.21,1.23v0.04c0,0.44,0.07,0.85,0.21,1.22c0.14,0.37,0.33,0.68,0.57,0.95
			s0.52,0.46,0.83,0.6s0.65,0.21,1.01,0.21c0.36,0,0.7-0.07,1.01-0.21s0.59-0.34,0.82-0.6s0.42-0.58,0.56-0.95
			c0.14-0.37,0.21-0.78,0.21-1.22V22.44z"/>
	</g>
	<g>
		<path class="st1" d="M8.86,107.88H7.58V97.69H3.76v-1.19h8.92v1.19H8.86V107.88z"/>
		<path class="st1" d="M14.11,105.35c0.17,0.35,0.4,0.65,0.67,0.89c0.27,0.24,0.57,0.43,0.91,0.55c0.34,0.12,0.69,0.19,1.06,0.19
			c0.58,0,1.09-0.11,1.5-0.33s0.8-0.5,1.15-0.86l0.78,0.7c-0.42,0.48-0.91,0.86-1.45,1.15c-0.54,0.29-1.21,0.43-2.02,0.43
			c-0.57,0-1.12-0.11-1.62-0.32c-0.51-0.21-0.95-0.51-1.34-0.89s-0.69-0.85-0.91-1.39s-0.34-1.14-0.34-1.79
			c0-0.61,0.1-1.18,0.3-1.71c0.2-0.54,0.48-1,0.84-1.4s0.78-0.71,1.28-0.93c0.49-0.23,1.03-0.34,1.62-0.34
			c0.62,0,1.17,0.12,1.66,0.35c0.49,0.23,0.9,0.55,1.23,0.95c0.34,0.4,0.59,0.87,0.76,1.41c0.17,0.54,0.26,1.12,0.26,1.74
			c0,0.05,0,0.11,0,0.18c0,0.07-0.01,0.14-0.02,0.21h-6.65C13.83,104.6,13.94,105,14.11,105.35z M19.17,103.22
			c-0.03-0.38-0.11-0.74-0.23-1.09s-0.3-0.65-0.52-0.91c-0.22-0.26-0.49-0.47-0.81-0.62c-0.32-0.16-0.69-0.24-1.11-0.24
			c-0.37,0-0.71,0.07-1.02,0.22c-0.31,0.15-0.59,0.35-0.82,0.6c-0.24,0.25-0.43,0.55-0.58,0.9c-0.15,0.35-0.25,0.73-0.29,1.14H19.17
			z"/>
		<path class="st1" d="M24.52,100.64c-0.41,0.11-0.8,0.26-1.19,0.45l-0.37-1.02c0.46-0.22,0.94-0.39,1.41-0.51
			c0.48-0.12,1.02-0.19,1.64-0.19c1.15,0,2.03,0.29,2.65,0.85s0.93,1.41,0.93,2.53v5.13h-1.2v-1.27c-0.29,0.38-0.68,0.71-1.18,1.01
			c-0.49,0.29-1.11,0.44-1.86,0.44c-0.39,0-0.77-0.05-1.15-0.16c-0.37-0.11-0.71-0.27-1.01-0.5s-0.54-0.5-0.71-0.82
			c-0.18-0.33-0.27-0.71-0.27-1.15s0.09-0.84,0.26-1.18c0.17-0.34,0.42-0.63,0.74-0.85c0.32-0.23,0.7-0.4,1.14-0.52
			c0.44-0.12,0.92-0.18,1.46-0.18c0.54,0,1.01,0.03,1.41,0.1c0.4,0.07,0.79,0.15,1.17,0.26v-0.29c0-0.76-0.22-1.33-0.66-1.71
			c-0.44-0.38-1.05-0.58-1.84-0.58C25.38,100.47,24.93,100.53,24.52,100.64z M24.12,104.1c-0.42,0.31-0.63,0.74-0.63,1.28
			c0,0.27,0.06,0.51,0.17,0.71c0.11,0.21,0.27,0.38,0.46,0.53c0.19,0.15,0.42,0.26,0.67,0.33c0.25,0.08,0.52,0.11,0.8,0.11
			c0.39,0,0.75-0.06,1.09-0.17c0.34-0.11,0.64-0.27,0.89-0.47c0.25-0.2,0.45-0.44,0.6-0.71s0.22-0.58,0.22-0.92v-0.81
			c-0.31-0.09-0.67-0.17-1.08-0.24c-0.41-0.08-0.87-0.11-1.38-0.11C25.15,103.62,24.54,103.78,24.12,104.1z"/>
		<path class="st1" d="M38.22,107.62c-0.54,0.31-1.2,0.46-1.99,0.46c-0.62,0-1.19-0.12-1.71-0.35c-0.53-0.23-0.98-0.55-1.37-0.94
			s-0.69-0.86-0.9-1.39c-0.22-0.53-0.32-1.09-0.32-1.69s0.11-1.16,0.32-1.7c0.22-0.54,0.52-1,0.9-1.41c0.38-0.4,0.84-0.72,1.37-0.95
			c0.53-0.23,1.1-0.35,1.71-0.35c0.4,0,0.76,0.04,1.09,0.11c0.33,0.08,0.62,0.18,0.89,0.32s0.52,0.29,0.75,0.48
			c0.23,0.18,0.44,0.38,0.63,0.58l-0.83,0.88c-0.34-0.35-0.7-0.64-1.1-0.89s-0.88-0.37-1.45-0.37c-0.42,0-0.82,0.08-1.19,0.25
			c-0.37,0.17-0.69,0.4-0.96,0.7c-0.27,0.3-0.48,0.64-0.63,1.04s-0.23,0.82-0.23,1.27s0.08,0.88,0.24,1.28
			c0.16,0.4,0.37,0.75,0.65,1.05s0.6,0.53,0.97,0.7c0.37,0.17,0.78,0.25,1.23,0.25c0.54,0,1.02-0.12,1.44-0.36s0.79-0.54,1.13-0.89
			l0.8,0.75C39.24,106.91,38.76,107.31,38.22,107.62z"/>
		<path class="st1" d="M43.17,107.88h-1.25V96.02h1.25v4.92c0.28-0.45,0.65-0.84,1.11-1.16s1.04-0.48,1.77-0.48
			c0.51,0,0.96,0.08,1.36,0.24c0.4,0.16,0.73,0.39,1.01,0.69s0.49,0.65,0.63,1.06c0.15,0.41,0.22,0.87,0.22,1.36v5.22h-1.25v-4.91
			c0-0.78-0.2-1.4-0.6-1.85c-0.4-0.46-0.97-0.68-1.72-0.68c-0.36,0-0.69,0.06-1,0.19c-0.31,0.12-0.58,0.3-0.8,0.54
			c-0.23,0.23-0.4,0.51-0.53,0.84c-0.12,0.33-0.19,0.68-0.19,1.07V107.88z"/>
		<path class="st1" d="M52.15,97.64v-1.38h1.43v1.38H52.15z M52.23,107.88v-8.4h1.25v8.4H52.23z"/>
		<path class="st1" d="M57.84,107.88h-1.25v-8.4h1.25v1.46c0.28-0.45,0.65-0.84,1.11-1.16s1.04-0.48,1.77-0.48
			c0.51,0,0.96,0.08,1.36,0.24c0.4,0.16,0.73,0.39,1.01,0.69s0.49,0.65,0.63,1.06c0.15,0.41,0.22,0.87,0.22,1.36v5.22h-1.25v-4.91
			c0-0.78-0.2-1.4-0.6-1.85c-0.4-0.46-0.97-0.68-1.72-0.68c-0.36,0-0.69,0.06-1,0.19c-0.31,0.12-0.58,0.3-0.8,0.54
			c-0.23,0.23-0.4,0.51-0.53,0.84c-0.12,0.33-0.19,0.68-0.19,1.07V107.88z"/>
		<path class="st1" d="M74.49,108.21c-0.2,0.51-0.49,0.93-0.86,1.28c-0.37,0.34-0.82,0.6-1.35,0.77c-0.53,0.17-1.11,0.26-1.76,0.26
			c-0.71,0-1.38-0.1-2.02-0.29c-0.64-0.2-1.24-0.49-1.8-0.88l0.57-0.97c0.49,0.35,1,0.61,1.53,0.8c0.53,0.18,1.1,0.28,1.71,0.28
			c0.93,0,1.67-0.25,2.23-0.76c0.55-0.5,0.83-1.25,0.83-2.23v-0.99c-0.37,0.49-0.82,0.91-1.35,1.25s-1.18,0.52-1.95,0.52
			c-0.51,0-1-0.09-1.47-0.27c-0.47-0.18-0.89-0.44-1.26-0.78c-0.37-0.34-0.66-0.76-0.89-1.24c-0.22-0.49-0.33-1.04-0.33-1.66
			c0-0.62,0.11-1.17,0.33-1.67c0.22-0.49,0.52-0.91,0.89-1.25c0.37-0.34,0.79-0.6,1.27-0.79c0.48-0.18,0.96-0.28,1.46-0.28
			c0.39,0,0.75,0.05,1.08,0.14c0.33,0.09,0.63,0.21,0.89,0.37c0.27,0.15,0.51,0.33,0.72,0.54c0.22,0.21,0.41,0.42,0.58,0.65v-1.51
			h1.25v6.94C74.79,107.1,74.69,107.7,74.49,108.21z M73.33,102.09c-0.17-0.35-0.4-0.65-0.69-0.9s-0.62-0.44-0.98-0.58
			c-0.37-0.13-0.75-0.2-1.15-0.2c-0.4,0-0.78,0.07-1.13,0.2c-0.35,0.13-0.66,0.32-0.93,0.57c-0.27,0.25-0.47,0.55-0.63,0.9
			c-0.15,0.35-0.23,0.75-0.23,1.18c0,0.43,0.08,0.83,0.24,1.18c0.16,0.35,0.37,0.66,0.63,0.91c0.26,0.25,0.57,0.45,0.93,0.58
			c0.35,0.13,0.72,0.2,1.11,0.2c0.4,0,0.79-0.07,1.15-0.2c0.37-0.14,0.7-0.33,0.98-0.58s0.52-0.55,0.69-0.9
			c0.17-0.35,0.26-0.74,0.26-1.18S73.5,102.44,73.33,102.09z"/>
		<path class="st1" d="M91.28,97.68h-6.94v3.88h6.21v1.17h-6.21v3.98h7.02v1.17h-8.3V96.51h8.22V97.68z"/>
		<path class="st1" d="M101.23,107.88h-1.45l-2.6-3.43l-2.62,3.43h-1.4l3.3-4.27l-3.17-4.13h1.43l2.49,3.25l2.49-3.25h1.4
			l-3.18,4.09L101.23,107.88z"/>
		<path class="st1" d="M108.66,107.62c-0.54,0.31-1.2,0.46-1.99,0.46c-0.62,0-1.19-0.12-1.71-0.35c-0.53-0.23-0.98-0.55-1.37-0.94
			s-0.69-0.86-0.9-1.39c-0.22-0.53-0.32-1.09-0.32-1.69s0.11-1.16,0.32-1.7c0.22-0.54,0.52-1,0.9-1.41c0.38-0.4,0.84-0.72,1.37-0.95
			c0.53-0.23,1.1-0.35,1.71-0.35c0.4,0,0.76,0.04,1.09,0.11c0.33,0.08,0.62,0.18,0.89,0.32s0.52,0.29,0.75,0.48
			c0.23,0.18,0.44,0.38,0.63,0.58l-0.83,0.88c-0.34-0.35-0.7-0.64-1.1-0.89s-0.88-0.37-1.45-0.37c-0.42,0-0.82,0.08-1.19,0.25
			c-0.37,0.17-0.69,0.4-0.96,0.7c-0.27,0.3-0.48,0.64-0.63,1.04s-0.23,0.82-0.23,1.27s0.08,0.88,0.24,1.28
			c0.16,0.4,0.37,0.75,0.65,1.05s0.6,0.53,0.97,0.7c0.37,0.17,0.78,0.25,1.23,0.25c0.54,0,1.02-0.12,1.44-0.36s0.79-0.54,1.13-0.89
			l0.8,0.75C109.68,106.91,109.2,107.31,108.66,107.62z"/>
		<path class="st1" d="M113.2,105.35c0.17,0.35,0.4,0.65,0.67,0.89c0.27,0.24,0.57,0.43,0.91,0.55c0.34,0.12,0.69,0.19,1.06,0.19
			c0.58,0,1.09-0.11,1.5-0.33s0.8-0.5,1.15-0.86l0.78,0.7c-0.42,0.48-0.91,0.86-1.45,1.15c-0.54,0.29-1.21,0.43-2.02,0.43
			c-0.57,0-1.12-0.11-1.62-0.32c-0.51-0.21-0.95-0.51-1.34-0.89s-0.69-0.85-0.91-1.39s-0.34-1.14-0.34-1.79
			c0-0.61,0.1-1.18,0.3-1.71c0.2-0.54,0.48-1,0.84-1.4s0.78-0.71,1.28-0.93c0.49-0.23,1.03-0.34,1.62-0.34
			c0.62,0,1.17,0.12,1.66,0.35c0.49,0.23,0.9,0.55,1.23,0.95c0.34,0.4,0.59,0.87,0.76,1.41c0.17,0.54,0.26,1.12,0.26,1.74
			c0,0.05,0,0.11,0,0.18c0,0.07-0.01,0.14-0.02,0.21h-6.65C112.92,104.6,113.03,105,113.2,105.35z M118.26,103.22
			c-0.03-0.38-0.11-0.74-0.23-1.09s-0.3-0.65-0.52-0.91c-0.22-0.26-0.49-0.47-0.81-0.62c-0.32-0.16-0.69-0.24-1.11-0.24
			c-0.37,0-0.71,0.07-1.02,0.22c-0.31,0.15-0.59,0.35-0.82,0.6c-0.24,0.25-0.43,0.55-0.58,0.9c-0.15,0.35-0.25,0.73-0.29,1.14
			H118.26z"/>
		<path class="st1" d="M122.04,107.88V96.02h1.25v11.86H122.04z"/>
		<path class="st1" d="M126.51,107.88V96.02h1.25v11.86H126.51z"/>
		<path class="st1" d="M131.96,105.35c0.17,0.35,0.4,0.65,0.67,0.89c0.27,0.24,0.57,0.43,0.91,0.55c0.34,0.12,0.69,0.19,1.06,0.19
			c0.58,0,1.09-0.11,1.5-0.33s0.8-0.5,1.15-0.86l0.78,0.7c-0.42,0.48-0.91,0.86-1.45,1.15c-0.54,0.29-1.21,0.43-2.02,0.43
			c-0.57,0-1.12-0.11-1.62-0.32c-0.51-0.21-0.95-0.51-1.34-0.89s-0.69-0.85-0.91-1.39s-0.34-1.14-0.34-1.79
			c0-0.61,0.1-1.18,0.3-1.71c0.2-0.54,0.48-1,0.84-1.4s0.78-0.71,1.28-0.93c0.49-0.23,1.03-0.34,1.62-0.34
			c0.62,0,1.17,0.12,1.66,0.35c0.49,0.23,0.9,0.55,1.23,0.95c0.34,0.4,0.59,0.87,0.76,1.41c0.17,0.54,0.26,1.12,0.26,1.74
			c0,0.05,0,0.11,0,0.18c0,0.07-0.01,0.14-0.02,0.21h-6.65C131.67,104.6,131.78,105,131.96,105.35z M137.01,103.22
			c-0.03-0.38-0.11-0.74-0.23-1.09s-0.3-0.65-0.52-0.91c-0.22-0.26-0.49-0.47-0.81-0.62c-0.32-0.16-0.69-0.24-1.11-0.24
			c-0.37,0-0.71,0.07-1.02,0.22c-0.31,0.15-0.59,0.35-0.82,0.6c-0.24,0.25-0.43,0.55-0.58,0.9c-0.15,0.35-0.25,0.73-0.29,1.14
			H137.01z"/>
		<path class="st1" d="M141.93,107.88h-1.25v-8.4h1.25v1.46c0.28-0.45,0.65-0.84,1.11-1.16s1.04-0.48,1.77-0.48
			c0.51,0,0.96,0.08,1.36,0.24c0.4,0.16,0.73,0.39,1.01,0.69s0.49,0.65,0.63,1.06c0.15,0.41,0.22,0.87,0.22,1.36v5.22h-1.25v-4.91
			c0-0.78-0.2-1.4-0.6-1.85c-0.4-0.46-0.97-0.68-1.72-0.68c-0.36,0-0.69,0.06-1,0.19c-0.31,0.12-0.58,0.3-0.8,0.54
			c-0.23,0.23-0.4,0.51-0.53,0.84c-0.12,0.33-0.19,0.68-0.19,1.07V107.88z"/>
		<path class="st1" d="M156.66,107.62c-0.54,0.31-1.2,0.46-1.99,0.46c-0.62,0-1.19-0.12-1.71-0.35c-0.53-0.23-0.98-0.55-1.37-0.94
			s-0.69-0.86-0.9-1.39c-0.22-0.53-0.32-1.09-0.32-1.69s0.11-1.16,0.32-1.7c0.22-0.54,0.52-1,0.9-1.41c0.38-0.4,0.84-0.72,1.37-0.95
			c0.53-0.23,1.1-0.35,1.71-0.35c0.4,0,0.76,0.04,1.09,0.11c0.33,0.08,0.62,0.18,0.89,0.32s0.52,0.29,0.75,0.48
			c0.23,0.18,0.44,0.38,0.63,0.58l-0.83,0.88c-0.34-0.35-0.7-0.64-1.1-0.89s-0.88-0.37-1.45-0.37c-0.42,0-0.82,0.08-1.19,0.25
			c-0.37,0.17-0.69,0.4-0.96,0.7c-0.27,0.3-0.48,0.64-0.63,1.04s-0.23,0.82-0.23,1.27s0.08,0.88,0.24,1.28
			c0.16,0.4,0.37,0.75,0.65,1.05s0.6,0.53,0.97,0.7c0.37,0.17,0.78,0.25,1.23,0.25c0.54,0,1.02-0.12,1.44-0.36s0.79-0.54,1.13-0.89
			l0.8,0.75C157.68,106.91,157.2,107.31,156.66,107.62z"/>
		<path class="st1" d="M161.2,105.35c0.17,0.35,0.4,0.65,0.67,0.89c0.27,0.24,0.57,0.43,0.91,0.55c0.34,0.12,0.69,0.19,1.06,0.19
			c0.58,0,1.09-0.11,1.5-0.33s0.8-0.5,1.15-0.86l0.78,0.7c-0.42,0.48-0.91,0.86-1.45,1.15c-0.54,0.29-1.21,0.43-2.02,0.43
			c-0.57,0-1.12-0.11-1.62-0.32c-0.51-0.21-0.95-0.51-1.34-0.89s-0.69-0.85-0.91-1.39s-0.34-1.14-0.34-1.79
			c0-0.61,0.1-1.18,0.3-1.71c0.2-0.54,0.48-1,0.84-1.4s0.78-0.71,1.28-0.93c0.49-0.23,1.03-0.34,1.62-0.34
			c0.62,0,1.17,0.12,1.66,0.35c0.49,0.23,0.9,0.55,1.23,0.95c0.34,0.4,0.59,0.87,0.76,1.41c0.17,0.54,0.26,1.12,0.26,1.74
			c0,0.05,0,0.11,0,0.18c0,0.07-0.01,0.14-0.02,0.21h-6.65C160.92,104.6,161.03,105,161.2,105.35z M166.26,103.22
			c-0.03-0.38-0.11-0.74-0.23-1.09s-0.3-0.65-0.52-0.91c-0.22-0.26-0.49-0.47-0.81-0.62c-0.32-0.16-0.69-0.24-1.11-0.24
			c-0.37,0-0.71,0.07-1.02,0.22c-0.31,0.15-0.59,0.35-0.82,0.6c-0.24,0.25-0.43,0.55-0.58,0.9c-0.15,0.35-0.25,0.73-0.29,1.14
			H166.26z"/>
		<path class="st1" d="M183.39,97.69h-6.89v4.06h6.16v1.17h-6.16v4.96h-1.28V96.51h8.17V97.69z"/>
		<path class="st1" d="M187.11,107.88h-1.25v-8.4h1.25v2.19c0.15-0.35,0.34-0.67,0.57-0.96c0.23-0.29,0.49-0.54,0.78-0.76
			c0.29-0.21,0.61-0.37,0.96-0.48s0.72-0.16,1.12-0.15v1.35h-0.1c-0.46,0-0.89,0.08-1.29,0.24c-0.41,0.16-0.76,0.41-1.06,0.73
			c-0.3,0.32-0.54,0.73-0.71,1.21c-0.17,0.48-0.26,1.04-0.26,1.67V107.88z"/>
		<path class="st1" d="M193.91,100.64c-0.41,0.11-0.8,0.26-1.19,0.45l-0.37-1.02c0.46-0.22,0.94-0.39,1.41-0.51
			c0.48-0.12,1.02-0.19,1.64-0.19c1.15,0,2.03,0.29,2.65,0.85s0.93,1.41,0.93,2.53v5.13h-1.2v-1.27c-0.29,0.38-0.68,0.71-1.18,1.01
			c-0.49,0.29-1.11,0.44-1.86,0.44c-0.39,0-0.77-0.05-1.15-0.16c-0.37-0.11-0.71-0.27-1.01-0.5s-0.54-0.5-0.71-0.82
			c-0.18-0.33-0.27-0.71-0.27-1.15s0.09-0.84,0.26-1.18c0.17-0.34,0.42-0.63,0.74-0.85c0.32-0.23,0.7-0.4,1.14-0.52
			c0.44-0.12,0.92-0.18,1.46-0.18c0.54,0,1.01,0.03,1.41,0.1c0.4,0.07,0.79,0.15,1.17,0.26v-0.29c0-0.76-0.22-1.33-0.66-1.71
			c-0.44-0.38-1.05-0.58-1.84-0.58C194.77,100.47,194.31,100.53,193.91,100.64z M193.51,104.1c-0.42,0.31-0.63,0.74-0.63,1.28
			c0,0.27,0.06,0.51,0.17,0.71c0.11,0.21,0.27,0.38,0.46,0.53c0.19,0.15,0.42,0.26,0.67,0.33c0.25,0.08,0.52,0.11,0.8,0.11
			c0.39,0,0.75-0.06,1.09-0.17c0.34-0.11,0.64-0.27,0.89-0.47c0.25-0.2,0.45-0.44,0.6-0.71s0.22-0.58,0.22-0.92v-0.81
			c-0.31-0.09-0.67-0.17-1.08-0.24c-0.41-0.08-0.87-0.11-1.38-0.11C194.53,103.62,193.93,103.78,193.51,104.1z"/>
		<path class="st1" d="M209,100.33c0.19-0.21,0.4-0.38,0.64-0.54c0.24-0.15,0.51-0.27,0.8-0.36c0.3-0.09,0.63-0.13,1-0.13
			c0.97,0,1.74,0.3,2.29,0.9c0.55,0.6,0.83,1.43,0.83,2.48v5.2h-1.25v-4.91c0-0.81-0.19-1.44-0.58-1.88
			c-0.38-0.44-0.92-0.66-1.6-0.66c-0.31,0-0.61,0.06-0.89,0.17c-0.28,0.11-0.53,0.28-0.74,0.5c-0.21,0.22-0.38,0.5-0.5,0.82
			c-0.12,0.32-0.19,0.69-0.19,1.1v4.84h-1.23v-4.94c0-0.79-0.19-1.41-0.58-1.84c-0.38-0.44-0.91-0.66-1.58-0.66
			c-0.34,0-0.64,0.06-0.93,0.19c-0.28,0.13-0.53,0.31-0.74,0.55s-0.38,0.52-0.5,0.84s-0.18,0.67-0.18,1.06v4.79h-1.25v-8.4h1.25
			v1.41c0.14-0.21,0.29-0.41,0.46-0.6c0.17-0.2,0.36-0.37,0.58-0.51c0.22-0.15,0.46-0.26,0.73-0.35s0.58-0.13,0.94-0.13
			c0.68,0,1.25,0.16,1.69,0.48c0.44,0.32,0.78,0.72,1.01,1.19C208.64,100.75,208.81,100.53,209,100.33z"/>
		<path class="st1" d="M218.57,105.35c0.17,0.35,0.4,0.65,0.67,0.89c0.27,0.24,0.57,0.43,0.91,0.55c0.34,0.12,0.69,0.19,1.06,0.19
			c0.58,0,1.09-0.11,1.5-0.33s0.8-0.5,1.15-0.86l0.78,0.7c-0.42,0.48-0.91,0.86-1.45,1.15c-0.54,0.29-1.21,0.43-2.02,0.43
			c-0.57,0-1.12-0.11-1.62-0.32c-0.51-0.21-0.95-0.51-1.34-0.89s-0.69-0.85-0.91-1.39s-0.34-1.14-0.34-1.79
			c0-0.61,0.1-1.18,0.3-1.71c0.2-0.54,0.48-1,0.84-1.4s0.78-0.71,1.28-0.93c0.49-0.23,1.03-0.34,1.62-0.34
			c0.62,0,1.17,0.12,1.66,0.35c0.49,0.23,0.9,0.55,1.23,0.95c0.34,0.4,0.59,0.87,0.76,1.41c0.17,0.54,0.26,1.12,0.26,1.74
			c0,0.05,0,0.11,0,0.18c0,0.07-0.01,0.14-0.02,0.21h-6.65C218.28,104.6,218.39,105,218.57,105.35z M223.62,103.22
			c-0.03-0.38-0.11-0.74-0.23-1.09s-0.3-0.65-0.52-0.91c-0.22-0.26-0.49-0.47-0.81-0.62c-0.32-0.16-0.69-0.24-1.11-0.24
			c-0.37,0-0.71,0.07-1.02,0.22c-0.31,0.15-0.59,0.35-0.82,0.6c-0.24,0.25-0.43,0.55-0.58,0.9c-0.15,0.35-0.25,0.73-0.29,1.14
			H223.62z"/>
		<path class="st1" d="M235.29,106.22l2.21-6.74h1.3l-2.96,8.47h-1.09l-2.26-6.63l-2.28,6.63h-1.1l-2.94-8.47h1.33l2.21,6.74
			l2.26-6.78h1.04L235.29,106.22z"/>
		<path class="st1" d="M248.57,105.37c-0.22,0.54-0.53,1-0.92,1.41c-0.39,0.4-0.86,0.72-1.4,0.95c-0.54,0.23-1.13,0.35-1.75,0.35
			s-1.21-0.12-1.74-0.35c-0.53-0.23-0.99-0.55-1.38-0.94c-0.39-0.4-0.69-0.86-0.91-1.39c-0.22-0.53-0.32-1.09-0.32-1.69
			s0.11-1.16,0.32-1.7c0.22-0.54,0.52-1,0.91-1.41c0.39-0.4,0.85-0.72,1.39-0.95c0.54-0.23,1.12-0.35,1.76-0.35
			c0.63,0,1.21,0.12,1.75,0.35c0.54,0.23,1,0.55,1.39,0.94s0.69,0.86,0.91,1.39c0.22,0.53,0.33,1.09,0.33,1.69
			S248.79,104.83,248.57,105.37z M247.39,102.42c-0.16-0.4-0.38-0.75-0.66-1.05c-0.28-0.3-0.61-0.53-0.99-0.71
			c-0.38-0.17-0.79-0.26-1.24-0.26c-0.46,0-0.87,0.08-1.25,0.25c-0.38,0.17-0.7,0.4-0.97,0.7c-0.27,0.3-0.47,0.64-0.63,1.04
			s-0.23,0.82-0.23,1.27s0.08,0.88,0.24,1.28c0.16,0.4,0.37,0.75,0.65,1.04c0.28,0.29,0.6,0.52,0.98,0.7
			c0.38,0.17,0.79,0.26,1.23,0.26c0.46,0,0.87-0.08,1.25-0.25c0.38-0.17,0.7-0.4,0.97-0.69s0.48-0.63,0.63-1.03s0.23-0.82,0.23-1.27
			S247.54,102.82,247.39,102.42z"/>
		<path class="st1" d="M252.61,107.88h-1.25v-8.4h1.25v2.19c0.15-0.35,0.34-0.67,0.57-0.96c0.23-0.29,0.49-0.54,0.78-0.76
			c0.29-0.21,0.61-0.37,0.96-0.48s0.72-0.16,1.12-0.15v1.35h-0.1c-0.46,0-0.89,0.08-1.29,0.24c-0.41,0.16-0.76,0.41-1.06,0.73
			c-0.3,0.32-0.54,0.73-0.71,1.21c-0.17,0.48-0.26,1.04-0.26,1.67V107.88z"/>
		<path class="st1" d="M265.59,107.88h-1.5l-3.01-3.92l-1.71,1.72v2.19h-1.25V96.02h1.25v8.19l4.53-4.73h1.56l-3.53,3.61
			L265.59,107.88z"/>
	</g>
	<g>
		<rect x="91.83" y="40.72" class="st2" width="174.55" height="21.68"/>
		<g>
			<path class="st1" d="M103.93,49.62c0.06,0.16,0.18,0.3,0.34,0.43c0.17,0.13,0.39,0.25,0.68,0.35s0.67,0.21,1.12,0.3
				c0.92,0.2,1.6,0.49,2.04,0.85c0.44,0.36,0.65,0.86,0.65,1.5c0,0.35-0.07,0.68-0.21,0.97c-0.14,0.29-0.33,0.54-0.58,0.74
				c-0.25,0.2-0.54,0.36-0.89,0.47c-0.35,0.11-0.72,0.17-1.13,0.17c-0.66,0-1.26-0.11-1.81-0.32c-0.55-0.21-1.07-0.54-1.56-0.99
				l0.58-0.68c0.43,0.39,0.87,0.69,1.31,0.88c0.44,0.19,0.95,0.29,1.52,0.29c0.56,0,1-0.13,1.34-0.39c0.33-0.26,0.5-0.6,0.5-1.03
				c0-0.2-0.03-0.37-0.09-0.53s-0.17-0.29-0.33-0.42c-0.16-0.13-0.38-0.24-0.66-0.34c-0.28-0.1-0.64-0.2-1.07-0.3
				c-0.47-0.1-0.89-0.22-1.24-0.35c-0.35-0.13-0.64-0.3-0.87-0.48s-0.4-0.41-0.51-0.66c-0.11-0.25-0.17-0.55-0.17-0.9
				c0-0.33,0.07-0.63,0.2-0.91c0.13-0.28,0.32-0.51,0.57-0.72c0.24-0.2,0.53-0.36,0.86-0.47c0.33-0.11,0.69-0.17,1.09-0.17
				c0.61,0,1.13,0.08,1.59,0.25c0.45,0.17,0.89,0.42,1.32,0.75l-0.54,0.72c-0.39-0.31-0.77-0.54-1.16-0.68
				c-0.39-0.14-0.8-0.21-1.22-0.21c-0.27,0-0.51,0.04-0.73,0.11c-0.22,0.07-0.4,0.17-0.55,0.28c-0.15,0.12-0.27,0.26-0.35,0.43
				c-0.08,0.17-0.12,0.34-0.12,0.53C103.83,49.28,103.86,49.46,103.93,49.62z"/>
			<path class="st1" d="M111.68,53.56c0,0.38,0.09,0.64,0.28,0.79c0.19,0.15,0.44,0.22,0.74,0.22c0.16,0,0.3-0.02,0.44-0.05
				c0.14-0.03,0.29-0.09,0.44-0.17v0.78c-0.16,0.09-0.32,0.15-0.5,0.19c-0.18,0.04-0.38,0.06-0.6,0.06c-0.24,0-0.47-0.03-0.68-0.09
				s-0.4-0.16-0.55-0.3s-0.27-0.32-0.36-0.54c-0.09-0.22-0.13-0.48-0.13-0.79v-3.68h-0.85v-0.8h0.85v-1.84h0.91v1.84h1.94v0.8h-1.94
				V53.56z"/>
			<path class="st1" d="M119.55,49.19h0.9v6.1h-0.9v-1.06c-0.2,0.33-0.47,0.61-0.8,0.84s-0.76,0.35-1.29,0.35
				c-0.37,0-0.7-0.06-0.99-0.18c-0.29-0.12-0.53-0.28-0.73-0.5c-0.2-0.22-0.35-0.47-0.46-0.77c-0.11-0.3-0.16-0.63-0.16-0.99v-3.79
				h0.91v3.56c0,0.57,0.15,1.02,0.44,1.35c0.29,0.33,0.71,0.5,1.25,0.5c0.26,0,0.5-0.04,0.73-0.14c0.22-0.09,0.42-0.22,0.58-0.39
				s0.29-0.37,0.38-0.61c0.09-0.24,0.14-0.5,0.14-0.78V49.19z"/>
			<path class="st1" d="M127.38,55.29v-1.23c-0.13,0.18-0.27,0.35-0.42,0.52c-0.15,0.17-0.32,0.31-0.51,0.44
				c-0.19,0.13-0.4,0.22-0.63,0.29s-0.49,0.11-0.77,0.11c-0.37,0-0.73-0.07-1.07-0.21s-0.66-0.35-0.93-0.62s-0.5-0.6-0.66-1
				c-0.17-0.39-0.25-0.84-0.25-1.35s0.08-0.95,0.25-1.35c0.17-0.39,0.39-0.73,0.66-1s0.59-0.48,0.93-0.63
				c0.35-0.15,0.7-0.22,1.07-0.22c0.28,0,0.54,0.04,0.78,0.11c0.24,0.07,0.45,0.17,0.64,0.28c0.19,0.12,0.36,0.26,0.51,0.41
				c0.15,0.16,0.29,0.32,0.41,0.5v-3.68h0.91v8.61H127.38z M127.24,51.27c-0.12-0.29-0.29-0.54-0.5-0.74
				c-0.21-0.2-0.44-0.36-0.71-0.48c-0.26-0.11-0.54-0.17-0.82-0.17c-0.3,0-0.58,0.05-0.84,0.16c-0.26,0.11-0.49,0.26-0.68,0.46
				c-0.19,0.2-0.35,0.45-0.46,0.74c-0.11,0.29-0.17,0.62-0.17,0.99c0,0.36,0.06,0.69,0.17,0.97c0.11,0.29,0.27,0.54,0.47,0.75
				c0.2,0.21,0.42,0.37,0.68,0.48c0.26,0.11,0.54,0.16,0.83,0.16c0.28,0,0.56-0.06,0.82-0.17c0.26-0.11,0.5-0.27,0.71-0.48
				s0.37-0.45,0.5-0.75s0.18-0.62,0.18-0.97S127.36,51.56,127.24,51.27z"/>
			<path class="st1" d="M131.11,53.46c0.13,0.26,0.29,0.47,0.48,0.65c0.2,0.18,0.42,0.31,0.66,0.4c0.24,0.09,0.5,0.14,0.77,0.14
				c0.42,0,0.79-0.08,1.09-0.24c0.3-0.16,0.58-0.37,0.83-0.63l0.57,0.51c-0.31,0.35-0.66,0.62-1.05,0.83
				c-0.39,0.21-0.88,0.31-1.46,0.31c-0.42,0-0.81-0.08-1.18-0.23c-0.37-0.15-0.69-0.37-0.97-0.65s-0.5-0.62-0.66-1.01
				c-0.16-0.39-0.25-0.83-0.25-1.3c0-0.44,0.07-0.86,0.22-1.24c0.15-0.39,0.35-0.73,0.61-1.02c0.26-0.29,0.57-0.51,0.93-0.68
				c0.36-0.17,0.75-0.25,1.17-0.25c0.45,0,0.85,0.08,1.2,0.25c0.35,0.17,0.65,0.4,0.9,0.69c0.24,0.29,0.43,0.63,0.55,1.03
				c0.13,0.39,0.19,0.81,0.19,1.26c0,0.04,0,0.08,0,0.13c0,0.05,0,0.1-0.01,0.15h-4.83C130.91,52.91,130.99,53.2,131.11,53.46z
				 M134.78,51.91c-0.02-0.28-0.08-0.54-0.17-0.79c-0.09-0.25-0.22-0.47-0.38-0.66c-0.16-0.19-0.36-0.34-0.59-0.45
				c-0.23-0.11-0.5-0.17-0.8-0.17c-0.27,0-0.51,0.05-0.74,0.16c-0.23,0.11-0.43,0.25-0.6,0.44c-0.17,0.19-0.31,0.4-0.42,0.66
				c-0.11,0.25-0.18,0.53-0.21,0.83H134.78z"/>
			<path class="st1" d="M138.22,55.29h-0.91v-6.1h0.91v1.06c0.2-0.33,0.47-0.61,0.8-0.84c0.33-0.23,0.76-0.35,1.29-0.35
				c0.37,0,0.7,0.06,0.99,0.18c0.29,0.12,0.53,0.29,0.73,0.5c0.2,0.22,0.35,0.47,0.46,0.77c0.11,0.3,0.16,0.63,0.16,0.99v3.79h-0.91
				v-3.56c0-0.57-0.15-1.02-0.44-1.35c-0.29-0.33-0.71-0.5-1.25-0.5c-0.26,0-0.5,0.05-0.73,0.14s-0.42,0.22-0.58,0.39
				c-0.17,0.17-0.29,0.37-0.38,0.61c-0.09,0.24-0.14,0.5-0.14,0.78V55.29z"/>
			<path class="st1" d="M145.8,53.56c0,0.38,0.09,0.64,0.28,0.79c0.19,0.15,0.44,0.22,0.74,0.22c0.16,0,0.3-0.02,0.44-0.05
				c0.14-0.03,0.29-0.09,0.44-0.17v0.78c-0.16,0.09-0.32,0.15-0.5,0.19c-0.18,0.04-0.38,0.06-0.6,0.06c-0.24,0-0.47-0.03-0.68-0.09
				c-0.21-0.06-0.39-0.16-0.55-0.3s-0.27-0.32-0.36-0.54c-0.09-0.22-0.13-0.48-0.13-0.79v-3.68h-0.85v-0.8h0.85v-1.84h0.91v1.84
				h1.93v0.8h-1.93V53.56z"/>
			<path class="st1" d="M153.67,53.46c0.13,0.26,0.29,0.47,0.48,0.65c0.2,0.18,0.42,0.31,0.66,0.4s0.5,0.14,0.77,0.14
				c0.42,0,0.79-0.08,1.09-0.24c0.3-0.16,0.58-0.37,0.83-0.63l0.57,0.51c-0.31,0.35-0.66,0.62-1.05,0.83
				c-0.39,0.21-0.88,0.31-1.46,0.31c-0.42,0-0.81-0.08-1.18-0.23s-0.69-0.37-0.97-0.65s-0.5-0.62-0.66-1.01
				c-0.16-0.39-0.25-0.83-0.25-1.3c0-0.44,0.07-0.86,0.22-1.24c0.15-0.39,0.35-0.73,0.61-1.02c0.26-0.29,0.57-0.51,0.93-0.68
				c0.36-0.17,0.75-0.25,1.17-0.25c0.45,0,0.85,0.08,1.2,0.25c0.35,0.17,0.65,0.4,0.9,0.69c0.24,0.29,0.43,0.63,0.55,1.03
				c0.13,0.39,0.19,0.81,0.19,1.26c0,0.04,0,0.08,0,0.13c0,0.05,0,0.1-0.01,0.15h-4.83C153.47,52.91,153.55,53.2,153.67,53.46z
				 M157.34,51.91c-0.02-0.28-0.08-0.54-0.17-0.79c-0.09-0.25-0.22-0.47-0.38-0.66c-0.16-0.19-0.36-0.34-0.59-0.45
				c-0.23-0.11-0.5-0.17-0.8-0.17c-0.27,0-0.51,0.05-0.74,0.16c-0.23,0.11-0.43,0.25-0.6,0.44c-0.17,0.19-0.31,0.4-0.42,0.66
				c-0.11,0.25-0.18,0.53-0.21,0.83H157.34z"/>
			<path class="st1" d="M164.81,55.29h-1.05l-1.89-2.49l-1.9,2.49h-1.02l2.4-3.1l-2.3-3h1.04l1.81,2.36l1.81-2.36h1.01l-2.31,2.97
				L164.81,55.29z"/>
			<path class="st1" d="M172.2,53.58c-0.17,0.39-0.38,0.73-0.66,1c-0.27,0.27-0.58,0.48-0.93,0.63c-0.35,0.15-0.71,0.22-1.08,0.22
				c-0.28,0-0.54-0.04-0.78-0.11c-0.24-0.07-0.45-0.17-0.64-0.28c-0.19-0.12-0.36-0.26-0.51-0.41c-0.15-0.16-0.29-0.32-0.41-0.5
				v3.06h-0.91v-7.99h0.91v1.23c0.13-0.18,0.27-0.35,0.42-0.52s0.32-0.31,0.51-0.43c0.19-0.12,0.4-0.22,0.63-0.29
				c0.23-0.07,0.49-0.11,0.77-0.11c0.36,0,0.72,0.07,1.07,0.21c0.35,0.14,0.66,0.35,0.94,0.62s0.5,0.6,0.66,1
				c0.17,0.39,0.25,0.84,0.25,1.35S172.36,53.19,172.2,53.58z M171.34,51.27c-0.11-0.29-0.27-0.54-0.47-0.75
				c-0.2-0.21-0.42-0.37-0.68-0.48c-0.26-0.11-0.54-0.16-0.83-0.16c-0.28,0-0.56,0.06-0.82,0.17c-0.26,0.11-0.5,0.27-0.71,0.48
				c-0.21,0.2-0.37,0.45-0.5,0.74c-0.12,0.29-0.18,0.61-0.18,0.96s0.06,0.68,0.18,0.97s0.29,0.54,0.5,0.75
				c0.21,0.2,0.44,0.36,0.71,0.48c0.26,0.11,0.54,0.17,0.82,0.17c0.29,0,0.57-0.05,0.83-0.16c0.26-0.11,0.49-0.26,0.68-0.46
				c0.19-0.2,0.35-0.45,0.46-0.74s0.17-0.62,0.17-0.99C171.51,51.89,171.46,51.56,171.34,51.27z"/>
			<path class="st1" d="M174.91,53.46c0.13,0.26,0.29,0.47,0.48,0.65c0.2,0.18,0.42,0.31,0.66,0.4s0.5,0.14,0.77,0.14
				c0.42,0,0.79-0.08,1.09-0.24c0.3-0.16,0.58-0.37,0.83-0.63l0.57,0.51c-0.31,0.35-0.66,0.62-1.05,0.83
				c-0.39,0.21-0.88,0.31-1.46,0.31c-0.42,0-0.81-0.08-1.18-0.23s-0.69-0.37-0.97-0.65s-0.5-0.62-0.66-1.01
				c-0.16-0.39-0.25-0.83-0.25-1.3c0-0.44,0.07-0.86,0.22-1.24c0.15-0.39,0.35-0.73,0.61-1.02c0.26-0.29,0.57-0.51,0.93-0.68
				c0.36-0.17,0.75-0.25,1.17-0.25c0.45,0,0.85,0.08,1.2,0.25c0.35,0.17,0.65,0.4,0.9,0.69c0.24,0.29,0.43,0.63,0.55,1.03
				c0.13,0.39,0.19,0.81,0.19,1.26c0,0.04,0,0.08,0,0.13c0,0.05,0,0.1-0.01,0.15h-4.83C174.71,52.91,174.79,53.2,174.91,53.46z
				 M178.58,51.91c-0.02-0.28-0.08-0.54-0.17-0.79c-0.09-0.25-0.22-0.47-0.38-0.66c-0.16-0.19-0.36-0.34-0.59-0.45
				c-0.23-0.11-0.5-0.17-0.8-0.17c-0.27,0-0.51,0.05-0.74,0.16c-0.23,0.11-0.43,0.25-0.6,0.44c-0.17,0.19-0.31,0.4-0.42,0.66
				c-0.11,0.25-0.18,0.53-0.21,0.83H178.58z"/>
			<path class="st1" d="M182.02,55.29h-0.91v-6.1h0.91v1.59c0.11-0.25,0.25-0.48,0.41-0.7s0.35-0.4,0.57-0.55
				c0.21-0.15,0.44-0.27,0.7-0.35c0.25-0.08,0.52-0.11,0.81-0.11v0.98h-0.07c-0.33,0-0.64,0.06-0.94,0.18
				c-0.29,0.12-0.55,0.29-0.77,0.53c-0.22,0.24-0.39,0.53-0.52,0.88s-0.19,0.75-0.19,1.21V55.29z"/>
			<path class="st1" d="M185.91,47.86v-1h1.04v1H185.91z M185.97,55.29v-6.1h0.91v6.1H185.97z"/>
			<path class="st1" d="M189.78,53.46c0.13,0.26,0.29,0.47,0.48,0.65c0.2,0.18,0.42,0.31,0.66,0.4s0.5,0.14,0.77,0.14
				c0.42,0,0.79-0.08,1.09-0.24c0.3-0.16,0.58-0.37,0.83-0.63l0.57,0.51c-0.31,0.35-0.66,0.62-1.05,0.83
				c-0.39,0.21-0.88,0.31-1.46,0.31c-0.42,0-0.81-0.08-1.18-0.23s-0.69-0.37-0.97-0.65s-0.5-0.62-0.66-1.01
				c-0.16-0.39-0.25-0.83-0.25-1.3c0-0.44,0.07-0.86,0.22-1.24c0.15-0.39,0.35-0.73,0.61-1.02c0.26-0.29,0.57-0.51,0.93-0.68
				c0.36-0.17,0.75-0.25,1.17-0.25c0.45,0,0.85,0.08,1.2,0.25c0.35,0.17,0.65,0.4,0.9,0.69c0.24,0.29,0.43,0.63,0.55,1.03
				c0.13,0.39,0.19,0.81,0.19,1.26c0,0.04,0,0.08,0,0.13c0,0.05,0,0.1-0.01,0.15h-4.83C189.58,52.91,189.65,53.2,189.78,53.46z
				 M193.45,51.91c-0.02-0.28-0.08-0.54-0.17-0.79c-0.09-0.25-0.22-0.47-0.38-0.66c-0.16-0.19-0.36-0.34-0.59-0.45
				c-0.23-0.11-0.5-0.17-0.8-0.17c-0.27,0-0.51,0.05-0.74,0.16c-0.23,0.11-0.43,0.25-0.6,0.44c-0.17,0.19-0.31,0.4-0.42,0.66
				c-0.11,0.25-0.18,0.53-0.21,0.83H193.45z"/>
			<path class="st1" d="M196.88,55.29h-0.91v-6.1h0.91v1.06c0.2-0.33,0.47-0.61,0.8-0.84c0.33-0.23,0.76-0.35,1.29-0.35
				c0.37,0,0.7,0.06,0.98,0.18c0.29,0.12,0.53,0.29,0.73,0.5c0.2,0.22,0.35,0.47,0.46,0.77s0.16,0.63,0.16,0.99v3.79h-0.91v-3.56
				c0-0.57-0.15-1.02-0.44-1.35c-0.29-0.33-0.71-0.5-1.25-0.5c-0.26,0-0.5,0.05-0.73,0.14c-0.22,0.09-0.42,0.22-0.58,0.39
				c-0.17,0.17-0.29,0.37-0.38,0.61c-0.09,0.24-0.14,0.5-0.14,0.78V55.29z"/>
			<path class="st1" d="M207.44,55.1c-0.39,0.22-0.87,0.33-1.45,0.33c-0.45,0-0.86-0.08-1.25-0.25c-0.38-0.17-0.71-0.4-0.99-0.68
				s-0.5-0.62-0.66-1.01c-0.16-0.39-0.24-0.79-0.24-1.23s0.08-0.84,0.24-1.23c0.16-0.39,0.38-0.73,0.66-1.02
				c0.28-0.29,0.61-0.52,0.99-0.69c0.38-0.17,0.8-0.25,1.25-0.25c0.29,0,0.55,0.03,0.79,0.08c0.24,0.06,0.45,0.13,0.65,0.23
				c0.2,0.1,0.38,0.21,0.54,0.35c0.17,0.13,0.32,0.28,0.46,0.42l-0.6,0.64c-0.24-0.25-0.51-0.47-0.8-0.65
				c-0.29-0.18-0.64-0.27-1.06-0.27c-0.31,0-0.59,0.06-0.86,0.18c-0.27,0.12-0.5,0.29-0.7,0.51c-0.2,0.22-0.35,0.47-0.46,0.75
				c-0.11,0.29-0.17,0.59-0.17,0.92s0.06,0.64,0.17,0.93c0.11,0.29,0.27,0.54,0.47,0.76c0.2,0.22,0.44,0.38,0.71,0.51
				s0.57,0.18,0.89,0.18c0.39,0,0.74-0.09,1.04-0.26c0.3-0.17,0.58-0.39,0.82-0.65l0.58,0.54C208.18,54.59,207.83,54.88,207.44,55.1
				z"/>
			<path class="st1" d="M210.59,53.46c0.13,0.26,0.29,0.47,0.48,0.65c0.2,0.18,0.42,0.31,0.66,0.4c0.24,0.09,0.5,0.14,0.77,0.14
				c0.42,0,0.79-0.08,1.09-0.24c0.3-0.16,0.58-0.37,0.83-0.63l0.57,0.51c-0.31,0.35-0.66,0.62-1.05,0.83
				c-0.39,0.21-0.88,0.31-1.46,0.31c-0.42,0-0.81-0.08-1.18-0.23c-0.37-0.15-0.69-0.37-0.97-0.65s-0.5-0.62-0.66-1.01
				c-0.16-0.39-0.25-0.83-0.25-1.3c0-0.44,0.07-0.86,0.22-1.24c0.15-0.39,0.35-0.73,0.61-1.02c0.26-0.29,0.57-0.51,0.93-0.68
				c0.36-0.17,0.75-0.25,1.17-0.25c0.45,0,0.85,0.08,1.2,0.25c0.35,0.17,0.65,0.4,0.9,0.69c0.24,0.29,0.43,0.63,0.55,1.03
				c0.12,0.39,0.19,0.81,0.19,1.26c0,0.04,0,0.08,0,0.13c0,0.05,0,0.1-0.01,0.15h-4.83C210.39,52.91,210.47,53.2,210.59,53.46z
				 M214.26,51.91c-0.02-0.28-0.08-0.54-0.17-0.79c-0.09-0.25-0.21-0.47-0.38-0.66c-0.16-0.19-0.36-0.34-0.59-0.45
				c-0.23-0.11-0.5-0.17-0.8-0.17c-0.27,0-0.51,0.05-0.74,0.16c-0.23,0.11-0.43,0.25-0.6,0.44c-0.17,0.19-0.31,0.4-0.42,0.66
				c-0.11,0.25-0.18,0.53-0.21,0.83H214.26z"/>
			<path class="st1" d="M216.74,50.43v-1.24h1.08v1.24H216.74z M216.74,55.29v-1.24h1.08v1.24H216.74z"/>
			<path class="st1" d="M229.06,53.94c-0.15,0.32-0.36,0.59-0.62,0.8c-0.27,0.22-0.58,0.38-0.95,0.5c-0.37,0.11-0.78,0.17-1.22,0.17
				c-0.63,0-1.25-0.11-1.85-0.32c-0.61-0.22-1.16-0.55-1.65-1l1.07-1.29c0.38,0.31,0.77,0.55,1.16,0.73c0.4,0.18,0.83,0.27,1.3,0.27
				c0.38,0,0.67-0.07,0.88-0.21c0.21-0.14,0.31-0.33,0.31-0.57V53c0-0.12-0.02-0.22-0.06-0.31c-0.04-0.09-0.13-0.17-0.25-0.25
				s-0.29-0.16-0.51-0.24c-0.22-0.08-0.5-0.16-0.85-0.25c-0.42-0.1-0.8-0.22-1.14-0.34c-0.34-0.13-0.63-0.28-0.86-0.47
				c-0.24-0.19-0.42-0.42-0.55-0.69s-0.2-0.62-0.2-1.03V49.4c0-0.38,0.07-0.72,0.21-1.02s0.34-0.56,0.59-0.78s0.56-0.39,0.91-0.51
				c0.35-0.12,0.74-0.18,1.17-0.18c0.61,0,1.16,0.09,1.67,0.27c0.51,0.18,0.97,0.44,1.4,0.78l-0.94,1.37
				c-0.37-0.25-0.73-0.45-1.08-0.6c-0.35-0.15-0.71-0.22-1.06-0.22c-0.35,0-0.62,0.07-0.8,0.21c-0.18,0.14-0.27,0.31-0.27,0.51v0.02
				c0,0.13,0.03,0.25,0.08,0.35c0.05,0.1,0.14,0.19,0.28,0.27s0.32,0.15,0.55,0.22c0.23,0.07,0.53,0.15,0.88,0.25
				c0.42,0.11,0.79,0.23,1.12,0.37s0.6,0.3,0.83,0.5c0.22,0.19,0.39,0.42,0.51,0.68s0.17,0.57,0.17,0.93v0.02
				C229.29,53.26,229.21,53.62,229.06,53.94z"/>
			<path class="st1" d="M230.71,48.27v-1.59h1.89v1.59H230.71z M230.76,55.29v-6.32h1.79v6.32H230.76z"/>
			<path class="st1" d="M234.32,55.29v-8.61h1.79v8.61H234.32z"/>
			<path class="st1" d="M241.36,55.34h-1.63l-2.49-6.37h1.9l1.42,4.24l1.43-4.24h1.86L241.36,55.34z"/>
			<path class="st1" d="M250.78,52.53c0,0.06-0.01,0.14-0.02,0.22h-4.4c0.09,0.41,0.27,0.72,0.54,0.93
				c0.27,0.21,0.61,0.31,1.01,0.31c0.3,0,0.57-0.05,0.8-0.15c0.24-0.1,0.48-0.27,0.73-0.5l1.03,0.91c-0.3,0.37-0.66,0.66-1.09,0.87
				c-0.42,0.21-0.92,0.31-1.5,0.31c-0.47,0-0.91-0.08-1.32-0.24s-0.75-0.38-1.05-0.67s-0.53-0.64-0.69-1.03
				c-0.17-0.4-0.25-0.84-0.25-1.33v-0.02c0-0.45,0.08-0.87,0.23-1.27c0.15-0.4,0.37-0.75,0.64-1.05s0.6-0.54,0.99-0.71
				c0.38-0.17,0.8-0.26,1.27-0.26c0.53,0,0.98,0.09,1.37,0.28s0.71,0.44,0.96,0.76c0.25,0.32,0.44,0.68,0.57,1.1
				c0.12,0.41,0.18,0.84,0.18,1.29v0.02C250.79,52.39,250.78,52.47,250.78,52.53z M248.61,50.66c-0.23-0.25-0.53-0.37-0.91-0.37
				c-0.38,0-0.68,0.12-0.91,0.37c-0.23,0.24-0.38,0.57-0.45,0.98h2.7C248.98,51.23,248.84,50.91,248.61,50.66z"/>
			<path class="st1" d="M255.84,50.73c-0.6,0-1.07,0.18-1.41,0.54c-0.34,0.36-0.51,0.92-0.51,1.69v2.34h-1.79v-6.32h1.79v1.27
				c0.18-0.43,0.43-0.78,0.74-1.04s0.74-0.38,1.27-0.35v1.88H255.84z"/>
		</g>
	</g>
	<g>
		<rect x="91.74" y="65.71" class="st0" width="174.55" height="22.68"/>
		<g>
			<path class="st1" d="M112.52,74.92c0.06,0.16,0.17,0.3,0.33,0.43c0.16,0.13,0.38,0.25,0.65,0.35s0.64,0.21,1.07,0.3
				c0.88,0.21,1.53,0.49,1.95,0.85c0.42,0.36,0.63,0.86,0.63,1.5c0,0.36-0.07,0.68-0.2,0.97c-0.13,0.29-0.32,0.54-0.55,0.74
				s-0.52,0.36-0.85,0.47s-0.69,0.17-1.08,0.17c-0.63,0-1.21-0.11-1.73-0.32s-1.02-0.54-1.49-0.99l0.55-0.68
				c0.41,0.39,0.83,0.69,1.25,0.88c0.42,0.19,0.91,0.29,1.46,0.29c0.53,0,0.96-0.13,1.28-0.39c0.32-0.26,0.48-0.6,0.48-1.03
				c0-0.2-0.03-0.37-0.09-0.53c-0.06-0.15-0.17-0.29-0.32-0.42c-0.15-0.13-0.36-0.24-0.63-0.34s-0.61-0.2-1.02-0.3
				c-0.45-0.1-0.85-0.22-1.18-0.35c-0.33-0.13-0.61-0.3-0.83-0.48c-0.22-0.19-0.38-0.41-0.49-0.66c-0.11-0.25-0.16-0.55-0.16-0.9
				c0-0.33,0.06-0.63,0.19-0.91c0.13-0.28,0.31-0.51,0.54-0.72c0.23-0.2,0.51-0.36,0.82-0.47c0.32-0.11,0.66-0.17,1.04-0.17
				c0.58,0,1.08,0.08,1.52,0.25s0.85,0.42,1.26,0.75l-0.52,0.72c-0.37-0.31-0.74-0.54-1.11-0.68s-0.76-0.21-1.17-0.21
				c-0.26,0-0.49,0.04-0.69,0.11c-0.21,0.07-0.38,0.17-0.53,0.28c-0.15,0.12-0.26,0.26-0.34,0.43c-0.08,0.17-0.12,0.34-0.12,0.53
				C112.43,74.58,112.46,74.76,112.52,74.92z"/>
			<path class="st1" d="M119.93,78.86c0,0.38,0.09,0.64,0.27,0.79c0.18,0.15,0.42,0.22,0.71,0.22c0.15,0,0.29-0.02,0.42-0.05
				c0.13-0.03,0.27-0.09,0.42-0.17v0.78c-0.15,0.09-0.31,0.15-0.48,0.19c-0.17,0.04-0.36,0.06-0.57,0.06
				c-0.23,0-0.45-0.03-0.65-0.09c-0.2-0.06-0.38-0.16-0.52-0.3s-0.26-0.32-0.34-0.54s-0.12-0.48-0.12-0.79v-3.68h-0.81v-0.8h0.81
				v-1.84h0.87v1.84h1.85v0.8h-1.85V78.86z"/>
			<path class="st1" d="M127.45,74.49h0.86v6.1h-0.86v-1.06c-0.2,0.33-0.45,0.61-0.77,0.84c-0.32,0.23-0.73,0.35-1.23,0.35
				c-0.35,0-0.67-0.06-0.94-0.18c-0.27-0.12-0.51-0.28-0.7-0.5s-0.34-0.47-0.44-0.77c-0.1-0.3-0.15-0.63-0.15-0.99v-3.79h0.87v3.56
				c0,0.57,0.14,1.01,0.42,1.34c0.28,0.33,0.68,0.5,1.2,0.5c0.25,0,0.48-0.04,0.69-0.14c0.21-0.09,0.4-0.22,0.55-0.39
				c0.15-0.17,0.28-0.37,0.37-0.61c0.09-0.24,0.14-0.5,0.14-0.78V74.49z"/>
			<path class="st1" d="M134.94,80.59v-1.23c-0.12,0.18-0.25,0.35-0.4,0.52s-0.31,0.31-0.49,0.44c-0.18,0.13-0.38,0.22-0.6,0.29
				c-0.22,0.07-0.47,0.11-0.74,0.11c-0.35,0-0.7-0.07-1.03-0.21s-0.63-0.35-0.89-0.62c-0.26-0.27-0.47-0.6-0.63-1
				c-0.16-0.39-0.24-0.84-0.24-1.35c0-0.5,0.08-0.95,0.24-1.34c0.16-0.39,0.37-0.73,0.63-1c0.26-0.27,0.56-0.48,0.89-0.63
				c0.33-0.15,0.67-0.22,1.03-0.22c0.27,0,0.52,0.04,0.75,0.11c0.23,0.07,0.43,0.17,0.61,0.28c0.18,0.12,0.34,0.25,0.49,0.41
				c0.15,0.16,0.28,0.32,0.39,0.5v-3.68h0.87v8.61H134.94z M134.8,76.57c-0.12-0.29-0.27-0.54-0.47-0.74s-0.42-0.36-0.68-0.48
				s-0.51-0.17-0.78-0.17c-0.29,0-0.55,0.05-0.8,0.16s-0.46,0.26-0.65,0.46s-0.33,0.45-0.44,0.74c-0.11,0.29-0.16,0.62-0.16,0.99
				c0,0.36,0.05,0.69,0.16,0.97c0.11,0.29,0.26,0.54,0.45,0.75c0.19,0.21,0.41,0.37,0.65,0.48c0.25,0.11,0.51,0.16,0.79,0.16
				c0.27,0,0.53-0.06,0.78-0.17c0.25-0.11,0.48-0.27,0.68-0.48c0.2-0.2,0.36-0.45,0.47-0.75c0.12-0.29,0.17-0.62,0.17-0.97
				C134.97,77.18,134.91,76.86,134.8,76.57z"/>
			<path class="st1" d="M138.5,78.76c0.12,0.26,0.27,0.47,0.46,0.65c0.19,0.18,0.4,0.31,0.63,0.4c0.23,0.09,0.48,0.14,0.73,0.14
				c0.41,0,0.75-0.08,1.04-0.24c0.29-0.16,0.55-0.37,0.79-0.63l0.54,0.51c-0.29,0.35-0.63,0.62-1,0.83
				c-0.38,0.21-0.84,0.31-1.4,0.31c-0.4,0-0.77-0.08-1.13-0.23s-0.66-0.37-0.93-0.65s-0.48-0.62-0.63-1.01
				c-0.16-0.39-0.23-0.83-0.23-1.3c0-0.44,0.07-0.86,0.21-1.24c0.14-0.39,0.33-0.73,0.58-1.02c0.25-0.29,0.54-0.51,0.89-0.68
				c0.34-0.17,0.72-0.25,1.12-0.25c0.43,0,0.81,0.08,1.15,0.25c0.34,0.17,0.62,0.4,0.86,0.69c0.23,0.29,0.41,0.63,0.53,1.03
				s0.18,0.81,0.18,1.26c0,0.04,0,0.08,0,0.13c0,0.05,0,0.1-0.01,0.15h-4.61C138.31,78.21,138.38,78.5,138.5,78.76z M142.01,77.2
				c-0.02-0.28-0.08-0.54-0.16-0.79c-0.09-0.25-0.21-0.47-0.36-0.66c-0.15-0.19-0.34-0.34-0.56-0.46c-0.22-0.11-0.48-0.17-0.77-0.17
				c-0.25,0-0.49,0.05-0.71,0.16c-0.22,0.11-0.41,0.25-0.57,0.44c-0.16,0.19-0.3,0.4-0.4,0.66c-0.11,0.25-0.17,0.53-0.2,0.83H142.01
				z"/>
			<path class="st1" d="M145.29,80.59h-0.87v-6.1h0.87v1.06c0.2-0.33,0.45-0.61,0.77-0.84c0.32-0.23,0.73-0.35,1.23-0.35
				c0.35,0,0.67,0.06,0.94,0.18s0.51,0.29,0.7,0.5c0.19,0.22,0.34,0.47,0.44,0.77c0.1,0.3,0.15,0.63,0.15,0.99v3.79h-0.87v-3.56
				c0-0.57-0.14-1.02-0.42-1.35s-0.68-0.5-1.2-0.5c-0.25,0-0.48,0.04-0.69,0.14c-0.21,0.09-0.4,0.22-0.56,0.39
				c-0.16,0.17-0.28,0.37-0.37,0.61c-0.09,0.24-0.13,0.5-0.13,0.78V80.59z"/>
			<path class="st1" d="M152.54,78.86c0,0.38,0.09,0.64,0.27,0.79c0.18,0.15,0.42,0.22,0.71,0.22c0.15,0,0.29-0.02,0.42-0.05
				c0.13-0.03,0.27-0.09,0.42-0.17v0.78c-0.15,0.09-0.31,0.15-0.48,0.19c-0.17,0.04-0.36,0.06-0.57,0.06
				c-0.23,0-0.45-0.03-0.65-0.09c-0.2-0.06-0.38-0.16-0.52-0.3s-0.26-0.32-0.34-0.54s-0.12-0.48-0.12-0.79v-3.68h-0.81v-0.8h0.81
				v-1.84h0.87v1.84h1.85v0.8h-1.85V78.86z"/>
			<path class="st1" d="M164.8,78.77c-0.15,0.39-0.37,0.73-0.64,1.02s-0.59,0.52-0.97,0.69s-0.78,0.25-1.22,0.25
				c-0.44,0-0.84-0.08-1.21-0.25s-0.69-0.4-0.96-0.68c-0.27-0.29-0.48-0.62-0.63-1.01s-0.23-0.79-0.23-1.23s0.08-0.84,0.23-1.23
				c0.15-0.39,0.36-0.73,0.63-1.02c0.27-0.29,0.59-0.52,0.96-0.69c0.37-0.17,0.78-0.25,1.22-0.25c0.44,0,0.84,0.08,1.21,0.25
				c0.37,0.17,0.69,0.4,0.96,0.68c0.27,0.29,0.48,0.62,0.63,1.01c0.15,0.38,0.23,0.79,0.23,1.23S164.95,78.38,164.8,78.77z
				 M163.97,76.62c-0.11-0.29-0.26-0.54-0.46-0.76s-0.42-0.39-0.69-0.51c-0.26-0.12-0.55-0.19-0.86-0.19
				c-0.32,0-0.61,0.06-0.87,0.18c-0.26,0.12-0.49,0.29-0.67,0.51c-0.18,0.22-0.33,0.47-0.43,0.75c-0.11,0.29-0.16,0.59-0.16,0.92
				c0,0.33,0.05,0.64,0.16,0.93c0.11,0.29,0.26,0.54,0.45,0.75c0.19,0.21,0.42,0.38,0.68,0.51c0.26,0.13,0.55,0.19,0.86,0.19
				c0.32,0,0.61-0.06,0.87-0.18c0.26-0.12,0.49-0.29,0.68-0.5s0.33-0.46,0.44-0.75c0.1-0.29,0.16-0.59,0.16-0.92
				C164.14,77.22,164.08,76.91,163.97,76.62z"/>
			<path class="st1" d="M170.74,74.49h0.86v6.1h-0.86v-1.06c-0.2,0.33-0.45,0.61-0.77,0.84c-0.32,0.23-0.73,0.35-1.23,0.35
				c-0.35,0-0.67-0.06-0.94-0.18c-0.27-0.12-0.51-0.28-0.7-0.5s-0.34-0.47-0.44-0.77c-0.1-0.3-0.15-0.63-0.15-0.99v-3.79h0.87v3.56
				c0,0.57,0.14,1.01,0.42,1.34c0.28,0.33,0.68,0.5,1.2,0.5c0.25,0,0.48-0.04,0.69-0.14c0.21-0.09,0.4-0.22,0.55-0.39
				c0.15-0.17,0.28-0.37,0.37-0.61c0.09-0.24,0.14-0.5,0.14-0.78V74.49z"/>
			<path class="st1" d="M174.72,78.86c0,0.38,0.09,0.64,0.27,0.79c0.18,0.15,0.42,0.22,0.71,0.22c0.15,0,0.29-0.02,0.42-0.05
				c0.13-0.03,0.27-0.09,0.42-0.17v0.78c-0.15,0.09-0.31,0.15-0.48,0.19c-0.17,0.04-0.36,0.06-0.57,0.06
				c-0.23,0-0.45-0.03-0.65-0.09c-0.2-0.06-0.38-0.16-0.52-0.3s-0.26-0.32-0.34-0.54s-0.12-0.48-0.12-0.79v-3.68h-0.81v-0.8h0.81
				v-1.84h0.87v1.84h1.85v0.8h-1.85V78.86z"/>
			<path class="st1" d="M181.94,80.4c-0.37,0.22-0.83,0.33-1.38,0.33c-0.43,0-0.83-0.08-1.19-0.25c-0.37-0.17-0.68-0.4-0.95-0.68
				c-0.27-0.29-0.48-0.62-0.63-1.01s-0.23-0.79-0.23-1.23s0.08-0.84,0.23-1.23c0.15-0.39,0.36-0.73,0.63-1.02
				c0.27-0.29,0.58-0.52,0.95-0.69c0.36-0.17,0.76-0.25,1.19-0.25c0.28,0,0.53,0.03,0.76,0.08c0.23,0.06,0.43,0.13,0.62,0.23
				s0.36,0.21,0.52,0.35c0.16,0.13,0.3,0.28,0.44,0.42l-0.58,0.64c-0.23-0.25-0.49-0.47-0.76-0.65c-0.27-0.18-0.61-0.27-1.01-0.27
				c-0.29,0-0.57,0.06-0.82,0.18c-0.26,0.12-0.48,0.29-0.67,0.51s-0.33,0.47-0.44,0.75c-0.11,0.29-0.16,0.59-0.16,0.92
				c0,0.33,0.05,0.64,0.16,0.93c0.11,0.29,0.26,0.54,0.45,0.76c0.19,0.22,0.42,0.38,0.68,0.51c0.26,0.12,0.54,0.18,0.85,0.18
				c0.38,0,0.71-0.09,1-0.26c0.29-0.17,0.55-0.39,0.78-0.65l0.55,0.54C182.65,79.89,182.31,80.17,181.94,80.4z"/>
			<path class="st1" d="M189.69,78.77c-0.15,0.39-0.37,0.73-0.64,1.02s-0.59,0.52-0.97,0.69s-0.78,0.25-1.22,0.25
				c-0.44,0-0.84-0.08-1.21-0.25s-0.69-0.4-0.96-0.68c-0.27-0.29-0.48-0.62-0.63-1.01s-0.23-0.79-0.23-1.23s0.08-0.84,0.23-1.23
				c0.15-0.39,0.36-0.73,0.63-1.02c0.27-0.29,0.59-0.52,0.96-0.69c0.37-0.17,0.78-0.25,1.22-0.25c0.44,0,0.84,0.08,1.21,0.25
				c0.37,0.17,0.69,0.4,0.96,0.68c0.27,0.29,0.48,0.62,0.63,1.01c0.15,0.38,0.23,0.79,0.23,1.23S189.84,78.38,189.69,78.77z
				 M188.87,76.62c-0.11-0.29-0.26-0.54-0.46-0.76s-0.42-0.39-0.69-0.51c-0.26-0.12-0.55-0.19-0.86-0.19
				c-0.32,0-0.61,0.06-0.87,0.18c-0.26,0.12-0.49,0.29-0.67,0.51c-0.18,0.22-0.33,0.47-0.43,0.75c-0.11,0.29-0.16,0.59-0.16,0.92
				c0,0.33,0.05,0.64,0.16,0.93c0.11,0.29,0.26,0.54,0.45,0.75c0.19,0.21,0.42,0.38,0.68,0.51c0.26,0.13,0.55,0.19,0.86,0.19
				c0.32,0,0.61-0.06,0.87-0.18c0.26-0.12,0.49-0.29,0.68-0.5s0.33-0.46,0.44-0.75c0.1-0.29,0.16-0.59,0.16-0.92
				C189.03,77.22,188.97,76.91,188.87,76.62z"/>
			<path class="st1" d="M196.47,75.1c0.13-0.15,0.28-0.28,0.45-0.39c0.17-0.11,0.35-0.2,0.56-0.26c0.21-0.06,0.44-0.09,0.69-0.09
				c0.68,0,1.21,0.22,1.59,0.65c0.38,0.44,0.58,1.04,0.58,1.8v3.78h-0.87v-3.56c0-0.59-0.13-1.04-0.4-1.36
				c-0.27-0.32-0.64-0.48-1.11-0.48c-0.22,0-0.42,0.04-0.62,0.12c-0.2,0.08-0.37,0.2-0.51,0.37s-0.26,0.36-0.35,0.6
				c-0.09,0.24-0.13,0.5-0.13,0.8v3.52h-0.86V77c0-0.57-0.13-1.02-0.4-1.34c-0.27-0.32-0.63-0.48-1.1-0.48
				c-0.23,0-0.45,0.05-0.64,0.14c-0.2,0.09-0.37,0.23-0.51,0.4c-0.15,0.17-0.26,0.38-0.34,0.61c-0.08,0.23-0.12,0.49-0.12,0.77v3.48
				h-0.87v-6.1h0.87v1.03c0.1-0.15,0.21-0.29,0.32-0.44c0.12-0.14,0.25-0.27,0.4-0.37c0.15-0.11,0.32-0.19,0.51-0.25
				c0.19-0.06,0.41-0.09,0.65-0.09c0.47,0,0.86,0.12,1.17,0.35c0.31,0.23,0.54,0.52,0.7,0.87C196.22,75.41,196.33,75.25,196.47,75.1
				z"/>
			<path class="st1" d="M202.97,78.76c0.12,0.26,0.27,0.47,0.46,0.65c0.19,0.18,0.4,0.31,0.63,0.4c0.23,0.09,0.48,0.14,0.73,0.14
				c0.41,0,0.75-0.08,1.04-0.24c0.29-0.16,0.55-0.37,0.79-0.63l0.54,0.51c-0.29,0.35-0.63,0.62-1,0.83
				c-0.38,0.21-0.84,0.31-1.4,0.31c-0.4,0-0.77-0.08-1.13-0.23s-0.66-0.37-0.93-0.65s-0.48-0.62-0.63-1.01
				c-0.16-0.39-0.23-0.83-0.23-1.3c0-0.44,0.07-0.86,0.21-1.24c0.14-0.39,0.33-0.73,0.58-1.02c0.25-0.29,0.54-0.51,0.89-0.68
				c0.34-0.17,0.72-0.25,1.12-0.25c0.43,0,0.81,0.08,1.15,0.25c0.34,0.17,0.62,0.4,0.86,0.69c0.23,0.29,0.41,0.63,0.53,1.03
				s0.18,0.81,0.18,1.26c0,0.04,0,0.08,0,0.13c0,0.05,0,0.1-0.01,0.15h-4.61C202.77,78.21,202.85,78.5,202.97,78.76z M206.48,77.2
				c-0.02-0.28-0.08-0.54-0.16-0.79c-0.09-0.25-0.21-0.47-0.36-0.66c-0.15-0.19-0.34-0.34-0.56-0.46c-0.22-0.11-0.48-0.17-0.77-0.17
				c-0.25,0-0.49,0.05-0.71,0.16c-0.22,0.11-0.41,0.25-0.57,0.44c-0.16,0.19-0.3,0.4-0.4,0.66c-0.11,0.25-0.17,0.53-0.2,0.83H206.48
				z"/>
			<path class="st1" d="M212.73,79.65c-0.11,0.22-0.26,0.42-0.44,0.57s-0.4,0.28-0.65,0.36c-0.25,0.08-0.52,0.12-0.82,0.12
				c-0.42,0-0.85-0.08-1.27-0.24s-0.81-0.38-1.14-0.66l0.44-0.65c0.32,0.25,0.64,0.44,0.99,0.58c0.34,0.13,0.69,0.2,1.03,0.2
				c0.35,0,0.64-0.09,0.87-0.26c0.23-0.17,0.34-0.41,0.34-0.71v-0.02c0-0.15-0.04-0.28-0.12-0.39c-0.08-0.11-0.19-0.21-0.32-0.29
				c-0.14-0.08-0.29-0.16-0.47-0.22c-0.18-0.06-0.36-0.12-0.55-0.18c-0.23-0.07-0.45-0.15-0.68-0.23c-0.23-0.08-0.44-0.19-0.62-0.31
				c-0.18-0.13-0.33-0.28-0.45-0.47c-0.12-0.19-0.17-0.42-0.17-0.71v-0.02c0-0.26,0.05-0.5,0.15-0.71c0.1-0.22,0.24-0.4,0.41-0.55
				s0.39-0.27,0.63-0.35c0.24-0.08,0.51-0.12,0.79-0.12c0.36,0,0.73,0.06,1.09,0.18s0.7,0.29,1,0.49l-0.39,0.68
				c-0.27-0.18-0.55-0.33-0.85-0.43c-0.3-0.11-0.59-0.16-0.87-0.16c-0.35,0-0.62,0.08-0.82,0.25c-0.2,0.17-0.3,0.38-0.3,0.63v0.02
				c0,0.14,0.04,0.27,0.12,0.37c0.08,0.11,0.19,0.2,0.33,0.28c0.14,0.08,0.3,0.15,0.48,0.21c0.18,0.06,0.37,0.13,0.56,0.19
				c0.23,0.07,0.45,0.15,0.67,0.24s0.42,0.2,0.6,0.33s0.33,0.29,0.43,0.48c0.11,0.19,0.16,0.42,0.16,0.7v0.02
				C212.89,79.17,212.84,79.43,212.73,79.65z"/>
			<path class="st1" d="M214.46,75.73v-1.24h1.04v1.24H214.46z M214.46,80.59v-1.24h1.04v1.24H214.46z"/>
			<path class="st1" d="M226.47,80.35c-0.56,0.26-1.2,0.38-1.92,0.38c-0.62,0-1.18-0.11-1.69-0.32c-0.51-0.21-0.94-0.51-1.31-0.89
				c-0.37-0.38-0.65-0.83-0.85-1.34c-0.2-0.52-0.3-1.09-0.3-1.7v-0.02c0-0.59,0.1-1.14,0.31-1.66c0.21-0.52,0.49-0.97,0.86-1.36
				c0.37-0.39,0.8-0.7,1.31-0.92c0.5-0.22,1.06-0.34,1.66-0.34c0.35,0,0.67,0.03,0.96,0.08c0.29,0.05,0.56,0.12,0.81,0.22
				c0.25,0.09,0.48,0.21,0.7,0.35c0.22,0.14,0.43,0.3,0.63,0.48l-1.09,1.38c-0.15-0.13-0.3-0.25-0.45-0.35s-0.31-0.19-0.47-0.26
				c-0.16-0.07-0.34-0.13-0.52-0.17c-0.19-0.04-0.39-0.06-0.62-0.06c-0.32,0-0.61,0.07-0.89,0.21c-0.27,0.14-0.51,0.32-0.72,0.56
				c-0.21,0.23-0.37,0.5-0.49,0.82c-0.12,0.31-0.17,0.64-0.17,1v0.02c0,0.38,0.06,0.73,0.17,1.05c0.12,0.32,0.28,0.6,0.5,0.83
				c0.21,0.24,0.47,0.42,0.75,0.55c0.29,0.13,0.61,0.2,0.96,0.2c0.65,0,1.19-0.17,1.63-0.5V77.4h-1.75v-1.57h3.43v3.59
				C227.51,79.78,227.03,80.09,226.47,80.35z"/>
			<path class="st1" d="M235.4,78.72c-0.17,0.4-0.39,0.75-0.69,1.04s-0.64,0.54-1.04,0.71s-0.83,0.26-1.31,0.26
				c-0.47,0-0.9-0.08-1.3-0.25c-0.4-0.17-0.74-0.4-1.03-0.7c-0.29-0.29-0.52-0.64-0.68-1.04s-0.25-0.82-0.25-1.28v-0.02
				c0-0.46,0.08-0.88,0.25-1.28c0.17-0.4,0.39-0.75,0.69-1.04c0.29-0.3,0.64-0.54,1.04-0.71s0.83-0.26,1.31-0.26
				c0.47,0,0.9,0.08,1.3,0.25s0.74,0.4,1.03,0.7c0.29,0.29,0.52,0.64,0.68,1.04c0.17,0.4,0.25,0.82,0.25,1.28v0.02
				C235.65,77.9,235.57,78.32,235.4,78.72z M233.96,77.44c0-0.24-0.04-0.46-0.11-0.67c-0.08-0.21-0.18-0.39-0.33-0.55
				c-0.14-0.16-0.31-0.29-0.51-0.38c-0.2-0.09-0.41-0.14-0.64-0.14c-0.25,0-0.47,0.05-0.66,0.14c-0.19,0.09-0.36,0.21-0.49,0.37
				c-0.14,0.16-0.24,0.34-0.31,0.55c-0.07,0.21-0.11,0.43-0.11,0.67v0.02c0,0.24,0.04,0.46,0.11,0.67c0.08,0.21,0.18,0.39,0.33,0.55
				c0.14,0.16,0.31,0.29,0.5,0.38c0.19,0.09,0.41,0.14,0.65,0.14c0.25,0,0.47-0.04,0.66-0.14c0.19-0.09,0.36-0.21,0.49-0.37
				c0.13-0.16,0.24-0.34,0.31-0.55c0.07-0.21,0.11-0.43,0.11-0.67V77.44z"/>
			<path class="st1" d="M236.97,80.59v-8.61h1.71v8.61H236.97z"/>
			<path class="st1" d="M244.66,80.59v-0.9c-0.21,0.3-0.46,0.54-0.76,0.73s-0.67,0.29-1.12,0.29c-0.35,0-0.7-0.07-1.03-0.21
				s-0.62-0.35-0.88-0.63s-0.46-0.62-0.61-1.03c-0.15-0.4-0.23-0.87-0.23-1.4v-0.02c0-0.53,0.08-0.99,0.23-1.4
				c0.15-0.41,0.36-0.75,0.61-1.03c0.25-0.28,0.54-0.49,0.87-0.63c0.33-0.14,0.68-0.21,1.04-0.21c0.46,0,0.84,0.09,1.13,0.28
				s0.55,0.41,0.75,0.66v-3.11h1.71v8.61H244.66z M244.69,77.42c0-0.26-0.04-0.5-0.12-0.72c-0.08-0.22-0.18-0.4-0.32-0.56
				s-0.29-0.27-0.46-0.36s-0.37-0.12-0.57-0.12c-0.2,0-0.39,0.04-0.57,0.12s-0.33,0.2-0.47,0.36s-0.24,0.34-0.32,0.55
				s-0.12,0.46-0.12,0.72v0.02c0,0.26,0.04,0.5,0.12,0.72s0.19,0.4,0.32,0.56c0.14,0.16,0.29,0.27,0.47,0.36s0.37,0.12,0.57,0.12
				c0.2,0,0.39-0.04,0.57-0.12s0.33-0.2,0.46-0.36c0.13-0.15,0.24-0.34,0.32-0.56c0.08-0.22,0.12-0.46,0.12-0.72V77.42z"/>
		</g>
	</g>
	<g>
		<g>
			<rect x="3.44" y="3.96" class="st1" width="84.42" height="84.42"/>
			<linearGradient id="SVGID_1_" gradientUnits="userSpaceOnUse" x1="92.4657" y1="7.1809" x2="35.2821" y2="106.2258">
				<stop  offset="0" style="stop-color:#172852"/>
				<stop  offset="0.0271" style="stop-color:#182D56"/>
				<stop  offset="0.069" style="stop-color:#1C3A63"/>
				<stop  offset="0.1203" style="stop-color:#23507A"/>
				<stop  offset="0.1787" style="stop-color:#2C709F"/>
				<stop  offset="0.2365" style="stop-color:#2E9ED9"/>
				<stop  offset="0.3735" style="stop-color:#265984"/>
				<stop  offset="0.4709" style="stop-color:#1B365E"/>
				<stop  offset="0.5175" style="stop-color:#172852"/>
				<stop  offset="0.5493" style="stop-color:#182C55"/>
				<stop  offset="0.5943" style="stop-color:#1B3860"/>
				<stop  offset="0.6471" style="stop-color:#224A73"/>
				<stop  offset="0.7059" style="stop-color:#2A6592"/>
				<stop  offset="0.769" style="stop-color:#2F8DC1"/>
				<stop  offset="0.7882" style="stop-color:#2E9ED9"/>
				<stop  offset="0.798" style="stop-color:#2F92C8"/>
				<stop  offset="0.8495" style="stop-color:#2B6895"/>
				<stop  offset="0.8971" style="stop-color:#224C75"/>
				<stop  offset="0.9396" style="stop-color:#1B3861"/>
				<stop  offset="0.9754" style="stop-color:#182C55"/>
				<stop  offset="1" style="stop-color:#172852"/>
			</linearGradient>
			<polygon class="st3" points="87.61,88.1 3.89,88.1 87.61,4.38 			"/>
		</g>
		<g>
			<g>
				<path class="st4" d="M24.97,25.21v22.54h-6.22V25.21h-8.6v-5.74h23.43v5.74H24.97z"/>
				<path class="st4" d="M36.04,47.75V19.48h21.28v5.53H42.18v5.74h13.33v5.53H42.18v5.94h15.35v5.53H36.04z"/>
				<path class="st4" d="M65.85,25.09v6.1h13.49v5.61H65.85v10.95h-6.22V19.48h21.53v5.61H65.85z"/>
			</g>
			<g>
				<path class="st4" d="M17.22,55.68c-0.79,0.56-1.58,1.39-2.35,2.47L13.26,57c0.44-0.64,0.89-1.22,1.35-1.74
					c0.46-0.51,0.96-0.94,1.51-1.29c0.54-0.35,1.15-0.61,1.82-0.79c0.67-0.18,1.43-0.27,2.28-0.27c0.88,0,1.69,0.14,2.42,0.41
					c0.73,0.28,1.36,0.66,1.89,1.15c0.53,0.49,0.95,1.07,1.24,1.74c0.29,0.67,0.44,1.41,0.44,2.2c0,0.72-0.1,1.37-0.29,1.96
					c-0.19,0.59-0.49,1.18-0.9,1.76c-0.41,0.58-0.91,1.18-1.52,1.8c-0.61,0.62-1.34,1.3-2.18,2.03l-5.17,4.59h10.26v1.99H12.9v-1.69
					l7.02-6.2c0.74-0.66,1.36-1.26,1.88-1.8c0.52-0.54,0.94-1.04,1.26-1.51c0.32-0.47,0.55-0.93,0.69-1.38
					c0.14-0.45,0.21-0.92,0.21-1.4c0-0.57-0.11-1.08-0.32-1.54c-0.21-0.45-0.49-0.84-0.84-1.16c-0.35-0.32-0.77-0.57-1.24-0.75
					c-0.48-0.18-0.98-0.26-1.49-0.26C18.96,54.84,18.01,55.12,17.22,55.68z"/>
				<path class="st4" d="M45.03,66.7c-0.39,1.22-0.94,2.28-1.65,3.19c-0.71,0.91-1.57,1.64-2.59,2.17c-1.01,0.53-2.14,0.8-3.37,0.8
					c-1.25,0-2.38-0.26-3.39-0.79c-1-0.53-1.86-1.24-2.57-2.16c-0.71-0.91-1.25-1.97-1.63-3.18c-0.38-1.21-0.57-2.49-0.57-3.86
					c0-1.36,0.19-2.65,0.58-3.87c0.39-1.22,0.94-2.28,1.65-3.19c0.71-0.91,1.57-1.64,2.59-2.17c1.01-0.53,2.15-0.8,3.4-0.8
					c1.23,0,2.35,0.26,3.36,0.79c1,0.53,1.86,1.24,2.57,2.16c0.71,0.91,1.25,1.97,1.63,3.18c0.38,1.21,0.57,2.49,0.57,3.86
					C45.61,64.2,45.42,65.49,45.03,66.7z M42.93,59.83c-0.28-0.97-0.67-1.82-1.19-2.56c-0.52-0.74-1.14-1.33-1.87-1.77
					c-0.73-0.44-1.54-0.66-2.45-0.66c-0.9,0-1.72,0.22-2.45,0.65c-0.73,0.43-1.35,1.01-1.85,1.74c-0.51,0.73-0.9,1.58-1.18,2.54
					c-0.28,0.97-0.41,1.99-0.41,3.06c0,1.07,0.14,2.09,0.41,3.07c0.28,0.98,0.67,1.83,1.19,2.57c0.52,0.74,1.14,1.32,1.88,1.76
					c0.74,0.43,1.56,0.65,2.46,0.65c0.9,0,1.72-0.22,2.45-0.65c0.73-0.43,1.35-1.01,1.85-1.74c0.51-0.73,0.89-1.58,1.16-2.54
					c0.27-0.97,0.4-1.99,0.4-3.06C43.35,61.82,43.21,60.8,42.93,59.83z"/>
				<path class="st4" d="M52.11,55.68c-0.79,0.56-1.58,1.39-2.35,2.47L48.16,57c0.44-0.64,0.89-1.22,1.35-1.74
					c0.46-0.51,0.96-0.94,1.51-1.29c0.54-0.35,1.15-0.61,1.82-0.79c0.67-0.18,1.43-0.27,2.28-0.27c0.88,0,1.69,0.14,2.42,0.41
					c0.73,0.28,1.36,0.66,1.89,1.15c0.53,0.49,0.95,1.07,1.24,1.74c0.3,0.67,0.44,1.41,0.44,2.2c0,0.72-0.1,1.37-0.29,1.96
					c-0.19,0.59-0.49,1.18-0.9,1.76c-0.41,0.58-0.91,1.18-1.52,1.8c-0.61,0.62-1.34,1.3-2.18,2.03l-5.17,4.59h10.26v1.99H47.8v-1.69
					l7.02-6.2c0.74-0.66,1.36-1.26,1.88-1.8c0.52-0.54,0.94-1.04,1.26-1.51c0.32-0.47,0.55-0.93,0.69-1.38
					c0.14-0.45,0.21-0.92,0.21-1.4c0-0.57-0.11-1.08-0.32-1.54c-0.21-0.45-0.49-0.84-0.84-1.16s-0.77-0.57-1.24-0.75
					c-0.48-0.18-0.98-0.26-1.49-0.26C53.85,54.84,52.9,55.12,52.11,55.68z"/>
				<path class="st4" d="M65.77,55.12v-1.94h12.34v1.6l-6.06,6.75c0.85,0.07,1.66,0.23,2.43,0.47c0.77,0.24,1.45,0.58,2.03,1.02
					c0.58,0.44,1.04,1,1.38,1.66c0.35,0.66,0.52,1.44,0.52,2.32c0,0.87-0.17,1.66-0.5,2.38c-0.34,0.72-0.79,1.34-1.37,1.85
					c-0.58,0.52-1.26,0.92-2.04,1.2c-0.78,0.29-1.63,0.43-2.53,0.43c-1.62,0-3.03-0.32-4.23-0.95c-1.2-0.64-2.19-1.47-2.99-2.5
					L66.32,68c0.76,0.92,1.59,1.63,2.5,2.13c0.91,0.5,1.97,0.75,3.17,0.75c0.59,0,1.14-0.09,1.66-0.26
					c0.52-0.17,0.96-0.43,1.34-0.76c0.38-0.33,0.68-0.73,0.9-1.2s0.33-0.99,0.33-1.56c0-1.22-0.5-2.15-1.51-2.79
					c-1.01-0.65-2.31-0.97-3.91-0.97h-1.24l-0.44-1.3l6.11-6.91H65.77z"/>
			</g>
		</g>
	</g>
</g>
</svg>
