<?xml version="1.0" encoding="utf-8"?>
<!-- Generator: Adobe Illustrator 27.0.0, SVG Export Plug-In . SVG Version: 6.00 Build 0)  -->
<svg version="1.1" id="Layer_1" xmlns="http://www.w3.org/2000/svg" xmlns:xlink="http://www.w3.org/1999/xlink" x="0px" y="0px"
	 viewBox="0 0 269.29 113.39" style="enable-background:new 0 0 269.29 113.39;" xml:space="preserve">
<style type="text/css">
	.st0{fill:#9D85BE;}
	.st1{fill:#001F4E;}
	.st2{fill:#FCB53B;}
	.st3{fill:url(#SVGID_1_);stroke:#172852;stroke-width:0.5038;stroke-miterlimit:10;}
	.st4{fill:#FFFFFF;}
</style>
<g>
	<rect x="91.83" y="3.57" class="st0" width="174.55" height="32.91"/>
	<g>
		<path class="st1" d="M162.85,14.59c-0.24,0.61-0.58,1.15-1.02,1.62c-0.44,0.47-0.97,0.84-1.58,1.11c-0.62,0.28-1.3,0.41-2.04,0.41
			s-1.43-0.14-2.04-0.41c-0.61-0.27-1.14-0.64-1.57-1.1c-0.44-0.46-0.78-1-1.02-1.61s-0.36-1.26-0.36-1.94
			c0-0.68,0.12-1.33,0.36-1.94c0.24-0.61,0.58-1.15,1.02-1.62s0.97-0.84,1.58-1.11c0.62-0.27,1.3-0.41,2.04-0.41
			c0.75,0,1.43,0.14,2.04,0.41c0.61,0.27,1.14,0.64,1.58,1.1c0.44,0.46,0.78,1,1.01,1.61s0.36,1.26,0.36,1.94
			C163.22,13.33,163.09,13.98,162.85,14.59z M161.78,11.09c-0.19-0.49-0.46-0.92-0.8-1.29c-0.35-0.36-0.75-0.65-1.23-0.87
			c-0.47-0.21-0.99-0.32-1.55-0.32c-0.56,0-1.08,0.1-1.55,0.31s-0.88,0.5-1.21,0.86c-0.34,0.36-0.6,0.79-0.79,1.28
			c-0.19,0.49-0.29,1.01-0.29,1.57s0.1,1.09,0.29,1.58s0.46,0.92,0.8,1.29c0.35,0.36,0.75,0.65,1.23,0.87
			c0.47,0.21,0.99,0.32,1.55,0.32c0.56,0,1.08-0.1,1.55-0.31s0.88-0.5,1.21-0.86c0.34-0.36,0.6-0.79,0.79-1.28
			c0.19-0.49,0.29-1.02,0.29-1.58C162.07,12.12,161.97,11.59,161.78,11.09z"/>
		<path class="st1" d="M171.08,10.32h1.16l-3.15,7.29h-0.95l-3.14-7.29h1.19l2.44,6.01L171.08,10.32z"/>
		<path class="st1" d="M174.81,15.39c0.15,0.3,0.34,0.56,0.57,0.77c0.23,0.21,0.5,0.37,0.78,0.48c0.29,0.11,0.59,0.16,0.91,0.16
			c0.5,0,0.94-0.09,1.29-0.28c0.36-0.19,0.69-0.43,0.99-0.74l0.67,0.6c-0.36,0.41-0.78,0.74-1.25,0.99s-1.04,0.37-1.74,0.37
			c-0.49,0-0.96-0.09-1.4-0.27c-0.44-0.18-0.82-0.44-1.15-0.77c-0.33-0.33-0.59-0.73-0.78-1.2c-0.19-0.47-0.29-0.98-0.29-1.54
			c0-0.52,0.09-1.02,0.26-1.48c0.17-0.46,0.41-0.86,0.72-1.2s0.67-0.61,1.1-0.81c0.42-0.2,0.89-0.29,1.39-0.29
			c0.53,0,1.01,0.1,1.43,0.3s0.77,0.47,1.06,0.82c0.29,0.35,0.51,0.75,0.66,1.22c0.15,0.47,0.22,0.97,0.22,1.5c0,0.05,0,0.1,0,0.15
			c0,0.06,0,0.12-0.01,0.18h-5.73C174.57,14.73,174.66,15.08,174.81,15.39z M179.16,13.54c-0.03-0.33-0.09-0.64-0.2-0.94
			c-0.11-0.3-0.25-0.56-0.44-0.78c-0.19-0.22-0.42-0.4-0.7-0.54s-0.59-0.2-0.95-0.2c-0.32,0-0.61,0.06-0.88,0.19
			c-0.27,0.13-0.51,0.3-0.71,0.52s-0.37,0.48-0.5,0.78c-0.13,0.3-0.21,0.63-0.25,0.98H179.16z"/>
		<path class="st1" d="M183.59,17.56h-1.08v-7.24h1.08v1.89c0.13-0.3,0.29-0.57,0.49-0.83c0.2-0.25,0.42-0.47,0.67-0.65
			c0.25-0.18,0.53-0.32,0.83-0.41c0.3-0.09,0.62-0.14,0.97-0.13v1.16h-0.08c-0.39,0-0.76,0.07-1.11,0.21
			c-0.35,0.14-0.66,0.35-0.92,0.63c-0.26,0.28-0.47,0.63-0.62,1.04c-0.15,0.42-0.22,0.89-0.22,1.44V17.56z"/>
		<path class="st1" d="M189.28,11.33c-0.35,0.1-0.69,0.23-1.03,0.38l-0.32-0.88c0.4-0.19,0.81-0.33,1.22-0.44
			c0.41-0.11,0.88-0.16,1.41-0.16c0.99,0,1.75,0.25,2.28,0.73c0.53,0.49,0.8,1.22,0.8,2.18v4.42h-1.04v-1.09
			c-0.25,0.33-0.59,0.62-1.01,0.87s-0.96,0.38-1.6,0.38c-0.34,0-0.67-0.05-0.99-0.14c-0.32-0.09-0.61-0.24-0.87-0.43
			c-0.26-0.19-0.46-0.43-0.62-0.71c-0.15-0.28-0.23-0.61-0.23-0.99s0.07-0.72,0.22-1.02s0.36-0.54,0.64-0.73
			c0.28-0.2,0.6-0.35,0.98-0.45c0.38-0.1,0.79-0.15,1.25-0.15c0.47,0,0.87,0.03,1.22,0.08c0.35,0.06,0.68,0.13,1.01,0.22v-0.25
			c0-0.65-0.19-1.15-0.57-1.48c-0.38-0.33-0.91-0.5-1.59-0.5C190.02,11.18,189.63,11.23,189.28,11.33z M188.93,14.3
			c-0.36,0.27-0.54,0.64-0.54,1.11c0,0.23,0.05,0.44,0.15,0.62c0.1,0.18,0.23,0.33,0.4,0.46c0.17,0.13,0.36,0.22,0.58,0.29
			s0.45,0.1,0.69,0.1c0.33,0,0.65-0.05,0.94-0.15c0.29-0.1,0.55-0.23,0.77-0.41s0.39-0.38,0.52-0.62c0.12-0.24,0.19-0.5,0.19-0.79
			v-0.7c-0.27-0.07-0.58-0.14-0.93-0.21s-0.75-0.1-1.19-0.1C189.82,13.89,189.29,14.03,188.93,14.3z"/>
		<path class="st1" d="M196.03,17.56V7.34h1.08v10.22H196.03z"/>
		<path class="st1" d="M199.71,17.56V7.34h1.08v10.22H199.71z"/>
		<path class="st1" d="M203.24,11.79v-1.47h1.29v1.47H203.24z M203.24,17.56v-1.47h1.29v1.47H203.24z"/>
		<path class="st1" d="M103.72,31.56l-2.1-3.14h-1.69v3.14h-2.16v-9.8h4.48c1.17,0,2.07,0.28,2.72,0.85s0.97,1.36,0.97,2.38v0.03
			c0,0.79-0.19,1.44-0.58,1.94c-0.39,0.5-0.89,0.87-1.52,1.1l2.39,3.5H103.72z M103.77,25.11c0-0.47-0.15-0.82-0.45-1.05
			c-0.3-0.23-0.71-0.35-1.25-0.35h-2.14v2.81h2.18c0.53,0,0.94-0.13,1.23-0.38c0.28-0.25,0.43-0.59,0.43-1.01V25.11z"/>
		<path class="st1" d="M114.67,28.29c0,0.07-0.01,0.16-0.02,0.27h-5.22c0.1,0.49,0.31,0.85,0.64,1.1c0.32,0.25,0.72,0.37,1.2,0.37
			c0.35,0,0.67-0.06,0.95-0.18c0.28-0.12,0.57-0.32,0.87-0.59l1.22,1.08c-0.35,0.44-0.78,0.78-1.29,1.03s-1.1,0.37-1.78,0.37
			c-0.56,0-1.08-0.09-1.56-0.28c-0.48-0.19-0.9-0.45-1.25-0.8c-0.35-0.35-0.62-0.75-0.82-1.22c-0.2-0.47-0.29-1-0.29-1.58v-0.03
			c0-0.53,0.09-1.04,0.27-1.51c0.18-0.48,0.44-0.89,0.76-1.25c0.33-0.35,0.72-0.63,1.17-0.84c0.45-0.21,0.95-0.31,1.5-0.31
			c0.63,0,1.17,0.11,1.62,0.34s0.84,0.52,1.14,0.9c0.3,0.38,0.53,0.81,0.67,1.3c0.14,0.49,0.22,1,0.22,1.53v0.03
			C114.67,28.12,114.67,28.21,114.67,28.29z M112.1,26.07c-0.27-0.29-0.63-0.44-1.08-0.44c-0.45,0-0.81,0.15-1.08,0.43
			c-0.28,0.29-0.46,0.68-0.54,1.16h3.21C112.53,26.75,112.37,26.36,112.1,26.07z"/>
		<path class="st1" d="M121.67,33.8v-3.31c-0.26,0.35-0.58,0.64-0.95,0.87c-0.37,0.23-0.83,0.34-1.39,0.34
			c-0.44,0-0.86-0.08-1.27-0.25s-0.77-0.42-1.09-0.75c-0.32-0.33-0.57-0.74-0.76-1.22c-0.19-0.48-0.29-1.03-0.29-1.66V27.8
			c0-0.62,0.1-1.18,0.29-1.66c0.19-0.48,0.44-0.89,0.76-1.22c0.31-0.33,0.67-0.58,1.08-0.75c0.41-0.17,0.84-0.25,1.29-0.25
			c0.57,0,1.04,0.11,1.41,0.33s0.68,0.48,0.93,0.78v-0.97h2.13v9.74H121.67z M121.7,27.8c0-0.31-0.05-0.59-0.15-0.85
			s-0.23-0.48-0.39-0.66c-0.16-0.18-0.35-0.32-0.57-0.42c-0.22-0.1-0.46-0.15-0.71-0.15s-0.49,0.05-0.71,0.15
			c-0.22,0.1-0.41,0.24-0.58,0.42c-0.17,0.18-0.3,0.4-0.4,0.66c-0.1,0.25-0.15,0.54-0.15,0.86v0.03c0,0.31,0.05,0.59,0.15,0.85
			c0.1,0.26,0.23,0.48,0.4,0.66c0.17,0.18,0.36,0.32,0.58,0.42c0.22,0.1,0.46,0.15,0.71,0.15s0.49-0.05,0.71-0.15
			c0.22-0.1,0.41-0.24,0.57-0.42c0.16-0.18,0.29-0.4,0.39-0.66s0.15-0.54,0.15-0.85V27.8z"/>
		<path class="st1" d="M130.39,31.56v-1.07c-0.12,0.16-0.25,0.31-0.4,0.46c-0.15,0.15-0.31,0.27-0.48,0.39s-0.37,0.2-0.59,0.27
			c-0.21,0.07-0.46,0.1-0.73,0.1c-0.81,0-1.44-0.25-1.88-0.74s-0.67-1.18-0.67-2.04v-4.86h2.13v4.18c0,0.5,0.11,0.88,0.34,1.14
			c0.22,0.26,0.54,0.38,0.95,0.38s0.73-0.13,0.97-0.38c0.24-0.26,0.36-0.64,0.36-1.14v-4.18h2.13v7.5H130.39z"/>
		<path class="st1" d="M134.47,23.23v-1.89h2.24v1.89H134.47z M134.52,31.56v-7.5h2.13v7.5H134.52z"/>
		<path class="st1" d="M143.06,26.14c-0.71,0-1.27,0.21-1.67,0.64c-0.41,0.43-0.61,1.1-0.61,2v2.77h-2.13v-7.5h2.13v1.51
			c0.21-0.51,0.51-0.92,0.88-1.23c0.37-0.31,0.88-0.45,1.51-0.42v2.23H143.06z"/>
		<path class="st1" d="M151.5,28.29c0,0.07-0.01,0.16-0.02,0.27h-5.22c0.1,0.49,0.32,0.85,0.64,1.1c0.32,0.25,0.72,0.37,1.2,0.37
			c0.35,0,0.67-0.06,0.95-0.18c0.28-0.12,0.57-0.32,0.87-0.59l1.22,1.08c-0.35,0.44-0.78,0.78-1.29,1.03s-1.1,0.37-1.78,0.37
			c-0.56,0-1.08-0.09-1.56-0.28c-0.48-0.19-0.9-0.45-1.25-0.8c-0.35-0.35-0.62-0.75-0.82-1.22c-0.2-0.47-0.29-1-0.29-1.58v-0.03
			c0-0.53,0.09-1.04,0.27-1.51s0.44-0.89,0.76-1.25c0.33-0.35,0.72-0.63,1.17-0.84c0.45-0.21,0.95-0.31,1.5-0.31
			c0.63,0,1.17,0.11,1.62,0.34c0.46,0.22,0.84,0.52,1.14,0.9c0.3,0.38,0.53,0.81,0.67,1.3c0.14,0.49,0.22,1,0.22,1.53v0.03
			C151.51,28.12,151.5,28.21,151.5,28.29z M148.93,26.07c-0.27-0.29-0.63-0.44-1.08-0.44c-0.45,0-0.81,0.15-1.08,0.43
			c-0.28,0.29-0.46,0.68-0.54,1.16h3.21C149.37,26.75,149.2,26.36,148.93,26.07z"/>
		<path class="st1" d="M158.37,30.37c-0.14,0.3-0.35,0.55-0.61,0.75c-0.26,0.2-0.57,0.34-0.92,0.44c-0.35,0.1-0.73,0.15-1.13,0.15
			c-0.53,0-1.08-0.09-1.63-0.27c-0.56-0.18-1.08-0.47-1.59-0.86l0.91-1.4c0.41,0.3,0.82,0.52,1.22,0.67
			c0.41,0.15,0.79,0.22,1.14,0.22c0.31,0,0.53-0.05,0.68-0.15s0.22-0.24,0.22-0.41v-0.03c0-0.11-0.04-0.21-0.13-0.29
			s-0.2-0.16-0.34-0.22c-0.14-0.06-0.31-0.12-0.5-0.17s-0.38-0.12-0.59-0.18c-0.26-0.07-0.53-0.17-0.79-0.27
			c-0.27-0.11-0.51-0.25-0.72-0.42c-0.21-0.17-0.39-0.39-0.53-0.64c-0.14-0.25-0.2-0.56-0.2-0.92v-0.03c0-0.38,0.07-0.72,0.22-1.02
			s0.34-0.54,0.59-0.75c0.25-0.21,0.54-0.36,0.87-0.46s0.69-0.15,1.07-0.15c0.48,0,0.96,0.08,1.45,0.23
			c0.49,0.15,0.94,0.37,1.35,0.64l-0.81,1.47c-0.37-0.21-0.74-0.39-1.09-0.51c-0.35-0.13-0.67-0.19-0.94-0.19
			c-0.26,0-0.46,0.05-0.59,0.15s-0.2,0.22-0.2,0.37v0.03c0,0.1,0.04,0.19,0.13,0.27c0.08,0.08,0.2,0.15,0.34,0.22
			c0.14,0.07,0.3,0.14,0.48,0.2c0.18,0.07,0.38,0.13,0.58,0.2c0.26,0.08,0.53,0.18,0.8,0.3s0.51,0.26,0.73,0.43s0.39,0.37,0.53,0.62
			s0.21,0.54,0.21,0.88v0.03C158.59,29.7,158.52,30.06,158.37,30.37z"/>
		<path class="st1" d="M164.36,23.23v-1.89h2.24v1.89H164.36z M164.41,31.56v-7.5h2.13v7.5H164.41z"/>
		<path class="st1" d="M177.87,31.56v-4.18c0-0.5-0.11-0.88-0.32-1.14c-0.21-0.26-0.52-0.38-0.92-0.38s-0.72,0.13-0.94,0.38
			c-0.23,0.26-0.34,0.64-0.34,1.14v4.18h-2.13v-4.18c0-0.5-0.11-0.88-0.32-1.14s-0.52-0.38-0.92-0.38c-0.4,0-0.72,0.13-0.95,0.38
			s-0.34,0.64-0.34,1.14v4.18h-2.13v-7.5h2.13v1.07c0.12-0.16,0.25-0.31,0.4-0.46c0.14-0.15,0.31-0.27,0.48-0.39
			c0.18-0.11,0.38-0.2,0.59-0.27c0.22-0.07,0.46-0.1,0.74-0.1c0.49,0,0.92,0.1,1.28,0.31c0.36,0.21,0.64,0.5,0.83,0.89
			c0.33-0.4,0.69-0.69,1.09-0.9s0.86-0.3,1.37-0.3c0.79,0,1.41,0.23,1.86,0.7c0.45,0.47,0.67,1.15,0.67,2.06v4.89H177.87z"/>
		<path class="st1" d="M189.44,29.48c-0.19,0.48-0.44,0.89-0.76,1.22c-0.31,0.33-0.67,0.58-1.08,0.75
			c-0.41,0.17-0.84,0.25-1.29,0.25c-0.57,0-1.04-0.11-1.41-0.33c-0.37-0.22-0.68-0.48-0.93-0.78v3.21h-2.13v-9.74h2.13v1.07
			c0.26-0.35,0.58-0.64,0.94-0.87c0.37-0.23,0.83-0.34,1.39-0.34c0.44,0,0.86,0.08,1.27,0.25c0.41,0.17,0.78,0.42,1.09,0.75
			c0.32,0.33,0.57,0.74,0.76,1.22c0.19,0.48,0.29,1.03,0.29,1.66v0.03C189.73,28.45,189.63,29,189.44,29.48z M187.6,27.8
			c0-0.31-0.05-0.59-0.15-0.85c-0.1-0.26-0.23-0.48-0.4-0.66c-0.17-0.18-0.36-0.32-0.58-0.42c-0.22-0.1-0.46-0.15-0.71-0.15
			s-0.49,0.05-0.71,0.15c-0.22,0.1-0.41,0.24-0.57,0.42c-0.16,0.18-0.29,0.4-0.39,0.66c-0.1,0.26-0.15,0.54-0.15,0.85v0.03
			c0,0.31,0.05,0.59,0.15,0.85c0.1,0.26,0.23,0.48,0.39,0.66c0.16,0.18,0.35,0.32,0.57,0.42c0.22,0.1,0.46,0.15,0.71,0.15
			s0.49-0.05,0.71-0.15c0.22-0.1,0.41-0.24,0.58-0.42c0.17-0.18,0.3-0.4,0.4-0.66c0.1-0.25,0.15-0.54,0.15-0.86V27.8z"/>
		<path class="st1" d="M195.7,26.14c-0.71,0-1.27,0.21-1.67,0.64s-0.61,1.1-0.61,2v2.77h-2.13v-7.5h2.13v1.51
			c0.21-0.51,0.51-0.92,0.88-1.23s0.88-0.45,1.51-0.42v2.23H195.7z"/>
		<path class="st1" d="M204.94,29.34c-0.21,0.47-0.49,0.88-0.85,1.24c-0.36,0.35-0.79,0.63-1.29,0.84
			c-0.49,0.21-1.04,0.31-1.62,0.31c-0.58,0-1.12-0.1-1.61-0.3c-0.5-0.2-0.92-0.48-1.28-0.83s-0.64-0.76-0.85-1.23
			c-0.21-0.47-0.31-0.98-0.31-1.52v-0.03c0-0.54,0.1-1.05,0.31-1.52c0.21-0.47,0.49-0.88,0.85-1.24c0.36-0.35,0.79-0.63,1.29-0.84
			c0.5-0.21,1.04-0.31,1.62-0.31c0.58,0,1.12,0.1,1.61,0.3c0.49,0.2,0.92,0.48,1.28,0.83c0.36,0.35,0.64,0.76,0.85,1.23
			c0.21,0.47,0.31,0.98,0.31,1.52v0.03C205.25,28.37,205.15,28.87,204.94,29.34z M203.15,27.82c0-0.28-0.05-0.54-0.14-0.79
			c-0.09-0.25-0.23-0.47-0.41-0.66c-0.18-0.19-0.39-0.34-0.63-0.46c-0.24-0.11-0.51-0.17-0.8-0.17c-0.31,0-0.58,0.05-0.82,0.16
			s-0.44,0.25-0.61,0.44c-0.17,0.19-0.3,0.4-0.38,0.65c-0.09,0.25-0.13,0.51-0.13,0.79v0.03c0,0.28,0.05,0.54,0.14,0.79
			c0.09,0.25,0.23,0.47,0.41,0.66c0.18,0.19,0.38,0.34,0.62,0.46s0.51,0.17,0.8,0.17c0.31,0,0.58-0.05,0.82-0.16
			c0.24-0.11,0.44-0.25,0.61-0.44c0.17-0.19,0.3-0.4,0.39-0.65c0.09-0.25,0.13-0.51,0.13-0.79V27.82z"/>
		<path class="st1" d="M211.36,31.62h-1.93l-2.95-7.56h2.25l1.68,5.03l1.69-5.03h2.21L211.36,31.62z"/>
		<path class="st1" d="M222.88,28.29c0,0.07-0.01,0.16-0.02,0.27h-5.22c0.1,0.49,0.32,0.85,0.64,1.1c0.32,0.25,0.72,0.37,1.2,0.37
			c0.35,0,0.67-0.06,0.95-0.18c0.28-0.12,0.57-0.32,0.87-0.59l1.22,1.08c-0.35,0.44-0.78,0.78-1.29,1.03s-1.1,0.37-1.78,0.37
			c-0.56,0-1.08-0.09-1.56-0.28c-0.48-0.19-0.9-0.45-1.25-0.8c-0.35-0.35-0.62-0.75-0.82-1.22c-0.2-0.47-0.29-1-0.29-1.58v-0.03
			c0-0.53,0.09-1.04,0.27-1.51s0.44-0.89,0.76-1.25c0.33-0.35,0.72-0.63,1.17-0.84c0.45-0.21,0.95-0.31,1.5-0.31
			c0.63,0,1.17,0.11,1.62,0.34c0.46,0.22,0.84,0.52,1.14,0.9c0.3,0.38,0.53,0.81,0.67,1.3c0.14,0.49,0.22,1,0.22,1.53v0.03
			C222.89,28.12,222.89,28.21,222.88,28.29z M220.31,26.07c-0.27-0.29-0.63-0.44-1.08-0.44c-0.45,0-0.81,0.15-1.08,0.43
			c-0.28,0.29-0.46,0.68-0.54,1.16h3.21C220.75,26.75,220.58,26.36,220.31,26.07z"/>
		<path class="st1" d="M234.15,31.56v-4.18c0-0.5-0.11-0.88-0.32-1.14c-0.21-0.26-0.52-0.38-0.92-0.38s-0.72,0.13-0.94,0.38
			c-0.23,0.26-0.34,0.64-0.34,1.14v4.18h-2.13v-4.18c0-0.5-0.11-0.88-0.32-1.14s-0.52-0.38-0.92-0.38c-0.4,0-0.72,0.13-0.95,0.38
			s-0.34,0.64-0.34,1.14v4.18h-2.13v-7.5h2.13v1.07c0.12-0.16,0.25-0.31,0.4-0.46c0.14-0.15,0.31-0.27,0.48-0.39
			c0.18-0.11,0.38-0.2,0.59-0.27c0.22-0.07,0.46-0.1,0.74-0.1c0.49,0,0.92,0.1,1.28,0.31c0.36,0.21,0.64,0.5,0.83,0.89
			c0.33-0.4,0.69-0.69,1.09-0.9s0.86-0.3,1.37-0.3c0.79,0,1.41,0.23,1.86,0.7c0.45,0.47,0.67,1.15,0.67,2.06v4.89H234.15z"/>
		<path class="st1" d="M245.47,28.29c0,0.07-0.01,0.16-0.02,0.27h-5.22c0.1,0.49,0.32,0.85,0.64,1.1c0.32,0.25,0.72,0.37,1.2,0.37
			c0.35,0,0.67-0.06,0.95-0.18c0.28-0.12,0.57-0.32,0.87-0.59l1.22,1.08c-0.35,0.44-0.78,0.78-1.29,1.03s-1.1,0.37-1.78,0.37
			c-0.56,0-1.08-0.09-1.56-0.28c-0.48-0.19-0.9-0.45-1.25-0.8c-0.35-0.35-0.62-0.75-0.82-1.22c-0.2-0.47-0.29-1-0.29-1.58v-0.03
			c0-0.53,0.09-1.04,0.27-1.51s0.44-0.89,0.76-1.25c0.33-0.35,0.72-0.63,1.17-0.84c0.45-0.21,0.95-0.31,1.5-0.31
			c0.63,0,1.17,0.11,1.62,0.34c0.46,0.22,0.84,0.52,1.14,0.9c0.3,0.38,0.53,0.81,0.67,1.3c0.14,0.49,0.22,1,0.22,1.53v0.03
			C245.47,28.12,245.47,28.21,245.47,28.29z M242.9,26.07c-0.27-0.29-0.63-0.44-1.08-0.44c-0.45,0-0.81,0.15-1.08,0.43
			c-0.28,0.29-0.46,0.68-0.54,1.16h3.21C243.33,26.75,243.17,26.36,242.9,26.07z"/>
		<path class="st1" d="M252.15,31.56v-4.18c0-0.5-0.11-0.88-0.34-1.14c-0.22-0.26-0.54-0.38-0.95-0.38c-0.41,0-0.74,0.13-0.97,0.38
			c-0.24,0.26-0.36,0.64-0.36,1.14v4.18h-2.13v-7.5h2.13v1.07c0.12-0.16,0.25-0.31,0.4-0.46c0.14-0.15,0.31-0.27,0.48-0.39
			c0.18-0.11,0.37-0.2,0.59-0.27c0.21-0.07,0.46-0.1,0.73-0.1c0.81,0,1.44,0.25,1.88,0.74c0.44,0.49,0.67,1.18,0.67,2.04v4.86
			H252.15z"/>
		<path class="st1" d="M259.95,31.57c-0.27,0.08-0.58,0.12-0.94,0.12c-0.33,0-0.62-0.04-0.89-0.1c-0.27-0.07-0.5-0.19-0.69-0.37
			c-0.19-0.18-0.34-0.41-0.45-0.69s-0.16-0.65-0.16-1.08v-3.56h-0.9v-1.82h0.9v-1.92h2.13v1.92h1.76v1.82h-1.76v3.21
			c0,0.49,0.23,0.73,0.69,0.73c0.37,0,0.72-0.09,1.05-0.27v1.71C260.47,31.39,260.22,31.49,259.95,31.57z"/>
	</g>
	<g>
		<path class="st1" d="M8.86,107.49H7.58V97.3H3.76v-1.19h8.92v1.19H8.86V107.49z"/>
		<path class="st1" d="M14.11,104.96c0.17,0.35,0.4,0.65,0.67,0.89s0.57,0.43,0.91,0.55c0.34,0.12,0.69,0.19,1.06,0.19
			c0.58,0,1.09-0.11,1.5-0.33s0.8-0.5,1.15-0.86l0.78,0.7c-0.42,0.48-0.91,0.86-1.45,1.15c-0.54,0.29-1.21,0.43-2.02,0.43
			c-0.57,0-1.12-0.11-1.62-0.32c-0.51-0.21-0.95-0.51-1.34-0.89c-0.38-0.38-0.69-0.85-0.91-1.39c-0.22-0.54-0.34-1.14-0.34-1.79
			c0-0.61,0.1-1.18,0.3-1.71c0.2-0.54,0.48-1,0.84-1.4s0.78-0.71,1.28-0.93c0.49-0.23,1.03-0.34,1.62-0.34
			c0.62,0,1.17,0.12,1.66,0.35c0.49,0.23,0.9,0.55,1.23,0.95c0.34,0.4,0.59,0.87,0.76,1.41c0.17,0.54,0.26,1.12,0.26,1.74
			c0,0.05,0,0.11,0,0.18c0,0.06-0.01,0.14-0.02,0.21h-6.65C13.83,104.21,13.94,104.61,14.11,104.96z M19.17,102.82
			c-0.03-0.38-0.11-0.74-0.23-1.09s-0.3-0.65-0.52-0.91s-0.49-0.47-0.81-0.63c-0.32-0.16-0.69-0.24-1.11-0.24
			c-0.37,0-0.71,0.07-1.02,0.22c-0.31,0.15-0.59,0.35-0.82,0.6c-0.24,0.25-0.43,0.56-0.58,0.9c-0.15,0.35-0.25,0.73-0.29,1.14H19.17
			z"/>
		<path class="st1" d="M24.52,100.25c-0.41,0.11-0.8,0.26-1.19,0.45l-0.37-1.02c0.46-0.22,0.94-0.39,1.41-0.51
			c0.48-0.12,1.02-0.19,1.64-0.19c1.15,0,2.03,0.28,2.65,0.85c0.62,0.57,0.93,1.41,0.93,2.53v5.13h-1.2v-1.27
			c-0.29,0.38-0.68,0.71-1.18,1.01s-1.11,0.44-1.86,0.44c-0.39,0-0.77-0.05-1.15-0.16c-0.37-0.11-0.71-0.27-1.01-0.5
			c-0.3-0.22-0.54-0.5-0.71-0.82s-0.27-0.71-0.27-1.15s0.09-0.84,0.26-1.18c0.17-0.34,0.42-0.62,0.74-0.85
			c0.32-0.23,0.7-0.4,1.14-0.52c0.44-0.12,0.92-0.18,1.46-0.18c0.54,0,1.01,0.03,1.41,0.1c0.4,0.06,0.79,0.15,1.17,0.26v-0.29
			c0-0.76-0.22-1.33-0.66-1.71c-0.44-0.38-1.05-0.58-1.84-0.58C25.38,100.08,24.93,100.13,24.52,100.25z M24.12,103.7
			c-0.42,0.31-0.63,0.74-0.63,1.28c0,0.27,0.06,0.51,0.17,0.71s0.27,0.38,0.46,0.53c0.19,0.15,0.42,0.26,0.67,0.33
			c0.25,0.08,0.52,0.11,0.8,0.11c0.39,0,0.75-0.06,1.09-0.17c0.34-0.11,0.64-0.27,0.89-0.47s0.45-0.44,0.6-0.71s0.22-0.58,0.22-0.92
			v-0.81c-0.31-0.09-0.67-0.17-1.08-0.24c-0.41-0.08-0.87-0.11-1.38-0.11C25.15,103.23,24.54,103.39,24.12,103.7z"/>
		<path class="st1" d="M38.22,107.22c-0.54,0.31-1.2,0.46-1.99,0.46c-0.62,0-1.19-0.12-1.71-0.35c-0.53-0.23-0.98-0.55-1.37-0.94
			s-0.69-0.86-0.9-1.39c-0.22-0.53-0.32-1.09-0.32-1.69s0.11-1.16,0.32-1.7s0.52-1,0.9-1.41c0.38-0.4,0.84-0.72,1.37-0.95
			c0.53-0.23,1.1-0.35,1.71-0.35c0.4,0,0.76,0.04,1.09,0.11s0.62,0.18,0.89,0.32c0.27,0.14,0.52,0.3,0.75,0.48
			c0.23,0.18,0.44,0.38,0.63,0.58l-0.83,0.88c-0.34-0.35-0.7-0.64-1.1-0.89s-0.88-0.37-1.45-0.37c-0.42,0-0.82,0.08-1.19,0.25
			c-0.37,0.17-0.69,0.4-0.96,0.7s-0.48,0.64-0.63,1.04s-0.23,0.82-0.23,1.27c0,0.45,0.08,0.88,0.24,1.28
			c0.16,0.4,0.37,0.75,0.65,1.04s0.6,0.53,0.97,0.7c0.37,0.17,0.78,0.25,1.23,0.25c0.54,0,1.02-0.12,1.44-0.36s0.79-0.54,1.13-0.89
			l0.8,0.75C39.24,106.52,38.76,106.91,38.22,107.22z"/>
		<path class="st1" d="M43.17,107.49h-1.25V95.63h1.25v4.92c0.28-0.46,0.65-0.84,1.11-1.16c0.46-0.32,1.04-0.48,1.77-0.48
			c0.51,0,0.96,0.08,1.36,0.24s0.73,0.39,1.01,0.69s0.49,0.65,0.63,1.06c0.15,0.41,0.22,0.87,0.22,1.37v5.22h-1.25v-4.91
			c0-0.78-0.2-1.4-0.6-1.85c-0.4-0.46-0.97-0.68-1.72-0.68c-0.36,0-0.69,0.06-1,0.19c-0.31,0.12-0.58,0.3-0.8,0.54
			c-0.23,0.23-0.4,0.51-0.53,0.84c-0.12,0.32-0.19,0.68-0.19,1.07V107.49z"/>
		<path class="st1" d="M52.15,97.25v-1.38h1.43v1.38H52.15z M52.23,107.49v-8.4h1.25v8.4H52.23z"/>
		<path class="st1" d="M57.84,107.49h-1.25v-8.4h1.25v1.46c0.28-0.46,0.65-0.84,1.11-1.16c0.46-0.32,1.04-0.48,1.77-0.48
			c0.51,0,0.96,0.08,1.36,0.24s0.73,0.39,1.01,0.69s0.49,0.65,0.63,1.06c0.15,0.41,0.22,0.87,0.22,1.37v5.22h-1.25v-4.91
			c0-0.78-0.2-1.4-0.6-1.85c-0.4-0.46-0.97-0.68-1.72-0.68c-0.36,0-0.69,0.06-1,0.19c-0.31,0.12-0.58,0.3-0.8,0.54
			c-0.23,0.23-0.4,0.51-0.53,0.84c-0.12,0.32-0.19,0.68-0.19,1.07V107.49z"/>
		<path class="st1" d="M74.49,107.81c-0.2,0.51-0.49,0.93-0.86,1.28c-0.37,0.34-0.82,0.6-1.35,0.77c-0.53,0.17-1.11,0.26-1.76,0.26
			c-0.71,0-1.38-0.1-2.02-0.29c-0.64-0.19-1.24-0.49-1.8-0.88l0.57-0.98c0.49,0.35,1,0.61,1.53,0.8c0.53,0.18,1.1,0.28,1.71,0.28
			c0.93,0,1.67-0.25,2.23-0.76c0.55-0.5,0.83-1.25,0.83-2.23v-0.99c-0.37,0.49-0.82,0.9-1.35,1.25s-1.18,0.52-1.95,0.52
			c-0.51,0-1-0.09-1.47-0.27c-0.47-0.18-0.89-0.44-1.26-0.78c-0.37-0.34-0.66-0.75-0.89-1.24c-0.22-0.49-0.33-1.04-0.33-1.66
			s0.11-1.17,0.33-1.67c0.22-0.49,0.52-0.91,0.89-1.25c0.37-0.34,0.79-0.6,1.27-0.79c0.48-0.18,0.96-0.28,1.46-0.28
			c0.39,0,0.75,0.05,1.08,0.14c0.33,0.09,0.63,0.21,0.89,0.37c0.27,0.15,0.51,0.33,0.72,0.54c0.22,0.21,0.41,0.42,0.58,0.65v-1.51
			h1.25v6.94C74.79,106.71,74.69,107.3,74.49,107.81z M73.33,101.69c-0.17-0.35-0.4-0.65-0.69-0.9s-0.62-0.44-0.98-0.58
			s-0.75-0.2-1.15-0.2c-0.4,0-0.78,0.06-1.13,0.2c-0.35,0.13-0.66,0.32-0.93,0.57s-0.47,0.55-0.63,0.9
			c-0.15,0.35-0.23,0.75-0.23,1.18s0.08,0.83,0.24,1.18c0.16,0.35,0.37,0.66,0.63,0.91c0.26,0.25,0.57,0.45,0.93,0.58
			c0.35,0.14,0.72,0.2,1.11,0.2c0.4,0,0.79-0.07,1.15-0.2c0.37-0.13,0.7-0.33,0.98-0.58c0.29-0.25,0.52-0.55,0.69-0.9
			c0.17-0.35,0.26-0.75,0.26-1.18C73.59,102.44,73.5,102.05,73.33,101.69z"/>
		<path class="st1" d="M91.28,97.28h-6.94v3.88h6.21v1.17h-6.21v3.98h7.02v1.17h-8.3V96.11h8.22V97.28z"/>
		<path class="st1" d="M101.23,107.49h-1.45l-2.6-3.43l-2.62,3.43h-1.4l3.3-4.27l-3.17-4.13h1.43l2.49,3.25l2.49-3.25h1.4l-3.18,4.1
			L101.23,107.49z"/>
		<path class="st1" d="M108.66,107.22c-0.54,0.31-1.2,0.46-1.99,0.46c-0.62,0-1.19-0.12-1.71-0.35c-0.53-0.23-0.98-0.55-1.37-0.94
			s-0.69-0.86-0.9-1.39c-0.22-0.53-0.32-1.09-0.32-1.69s0.11-1.16,0.32-1.7s0.52-1,0.9-1.41c0.38-0.4,0.84-0.72,1.37-0.95
			c0.53-0.23,1.1-0.35,1.71-0.35c0.4,0,0.76,0.04,1.09,0.11s0.62,0.18,0.89,0.32c0.27,0.14,0.52,0.3,0.75,0.48
			c0.23,0.18,0.44,0.38,0.63,0.58l-0.83,0.88c-0.34-0.35-0.7-0.64-1.1-0.89s-0.88-0.37-1.45-0.37c-0.42,0-0.82,0.08-1.19,0.25
			c-0.37,0.17-0.69,0.4-0.96,0.7s-0.48,0.64-0.63,1.04s-0.23,0.82-0.23,1.27c0,0.45,0.08,0.88,0.24,1.28
			c0.16,0.4,0.37,0.75,0.65,1.04s0.6,0.53,0.97,0.7c0.37,0.17,0.78,0.25,1.23,0.25c0.54,0,1.02-0.12,1.44-0.36s0.79-0.54,1.13-0.89
			l0.8,0.75C109.68,106.52,109.2,106.91,108.66,107.22z"/>
		<path class="st1" d="M113.2,104.96c0.17,0.35,0.4,0.65,0.67,0.89s0.57,0.43,0.91,0.55c0.34,0.12,0.69,0.19,1.06,0.19
			c0.58,0,1.09-0.11,1.5-0.33s0.8-0.5,1.15-0.86l0.78,0.7c-0.42,0.48-0.91,0.86-1.45,1.15c-0.54,0.29-1.21,0.43-2.02,0.43
			c-0.57,0-1.12-0.11-1.62-0.32c-0.51-0.21-0.95-0.51-1.34-0.89c-0.38-0.38-0.69-0.85-0.91-1.39c-0.22-0.54-0.34-1.14-0.34-1.79
			c0-0.61,0.1-1.18,0.3-1.71c0.2-0.54,0.48-1,0.84-1.4s0.78-0.71,1.28-0.93c0.49-0.23,1.03-0.34,1.62-0.34
			c0.62,0,1.17,0.12,1.66,0.35c0.49,0.23,0.9,0.55,1.23,0.95c0.34,0.4,0.59,0.87,0.76,1.41c0.17,0.54,0.26,1.12,0.26,1.74
			c0,0.05,0,0.11,0,0.18c0,0.06-0.01,0.14-0.02,0.21h-6.65C112.92,104.21,113.03,104.61,113.2,104.96z M118.26,102.82
			c-0.03-0.38-0.11-0.74-0.23-1.09s-0.3-0.65-0.52-0.91s-0.49-0.47-0.81-0.63c-0.32-0.16-0.69-0.24-1.11-0.24
			c-0.37,0-0.71,0.07-1.02,0.22c-0.31,0.15-0.59,0.35-0.82,0.6c-0.24,0.25-0.43,0.56-0.58,0.9c-0.15,0.35-0.25,0.73-0.29,1.14
			H118.26z"/>
		<path class="st1" d="M122.04,107.49V95.63h1.25v11.86H122.04z"/>
		<path class="st1" d="M126.51,107.49V95.63h1.25v11.86H126.51z"/>
		<path class="st1" d="M131.96,104.96c0.17,0.35,0.4,0.65,0.67,0.89s0.57,0.43,0.91,0.55c0.34,0.12,0.69,0.19,1.06,0.19
			c0.58,0,1.09-0.11,1.5-0.33s0.8-0.5,1.15-0.86l0.78,0.7c-0.42,0.48-0.91,0.86-1.45,1.15c-0.54,0.29-1.21,0.43-2.02,0.43
			c-0.57,0-1.12-0.11-1.62-0.32c-0.51-0.21-0.95-0.51-1.34-0.89c-0.38-0.38-0.69-0.85-0.91-1.39c-0.22-0.54-0.34-1.14-0.34-1.79
			c0-0.61,0.1-1.18,0.3-1.71c0.2-0.54,0.48-1,0.84-1.4s0.78-0.71,1.28-0.93c0.49-0.23,1.03-0.34,1.62-0.34
			c0.62,0,1.17,0.12,1.66,0.35c0.49,0.23,0.9,0.55,1.23,0.95c0.34,0.4,0.59,0.87,0.76,1.41c0.17,0.54,0.26,1.12,0.26,1.74
			c0,0.05,0,0.11,0,0.18c0,0.06-0.01,0.14-0.02,0.21h-6.65C131.67,104.21,131.78,104.61,131.96,104.96z M137.01,102.82
			c-0.03-0.38-0.11-0.74-0.23-1.09s-0.3-0.65-0.52-0.91s-0.49-0.47-0.81-0.63c-0.32-0.16-0.69-0.24-1.11-0.24
			c-0.37,0-0.71,0.07-1.02,0.22c-0.31,0.15-0.59,0.35-0.82,0.6c-0.24,0.25-0.43,0.56-0.58,0.9c-0.15,0.35-0.25,0.73-0.29,1.14
			H137.01z"/>
		<path class="st1" d="M141.93,107.49h-1.25v-8.4h1.25v1.46c0.28-0.46,0.65-0.84,1.11-1.16c0.46-0.32,1.04-0.48,1.77-0.48
			c0.51,0,0.96,0.08,1.36,0.24s0.73,0.39,1.01,0.69s0.49,0.65,0.63,1.06c0.15,0.41,0.22,0.87,0.22,1.37v5.22h-1.25v-4.91
			c0-0.78-0.2-1.4-0.6-1.85c-0.4-0.46-0.97-0.68-1.72-0.68c-0.36,0-0.69,0.06-1,0.19c-0.31,0.12-0.58,0.3-0.8,0.54
			c-0.23,0.23-0.4,0.51-0.53,0.84c-0.12,0.32-0.19,0.68-0.19,1.07V107.49z"/>
		<path class="st1" d="M156.66,107.22c-0.54,0.31-1.2,0.46-1.99,0.46c-0.62,0-1.19-0.12-1.71-0.35c-0.53-0.23-0.98-0.55-1.37-0.94
			s-0.69-0.86-0.9-1.39c-0.22-0.53-0.32-1.09-0.32-1.69s0.11-1.16,0.32-1.7s0.52-1,0.9-1.41c0.38-0.4,0.84-0.72,1.37-0.95
			c0.53-0.23,1.1-0.35,1.71-0.35c0.4,0,0.76,0.04,1.09,0.11s0.62,0.18,0.89,0.32c0.27,0.14,0.52,0.3,0.75,0.48
			c0.23,0.18,0.44,0.38,0.63,0.58l-0.83,0.88c-0.34-0.35-0.7-0.64-1.1-0.89s-0.88-0.37-1.45-0.37c-0.42,0-0.82,0.08-1.19,0.25
			c-0.37,0.17-0.69,0.4-0.96,0.7s-0.48,0.64-0.63,1.04s-0.23,0.82-0.23,1.27c0,0.45,0.08,0.88,0.24,1.28
			c0.16,0.4,0.37,0.75,0.65,1.04s0.6,0.53,0.97,0.7c0.37,0.17,0.78,0.25,1.23,0.25c0.54,0,1.02-0.12,1.44-0.36s0.79-0.54,1.13-0.89
			l0.8,0.75C157.68,106.52,157.2,106.91,156.66,107.22z"/>
		<path class="st1" d="M161.2,104.96c0.17,0.35,0.4,0.65,0.67,0.89s0.57,0.43,0.91,0.55c0.34,0.12,0.69,0.19,1.06,0.19
			c0.58,0,1.09-0.11,1.5-0.33s0.8-0.5,1.15-0.86l0.78,0.7c-0.42,0.48-0.91,0.86-1.45,1.15c-0.54,0.29-1.21,0.43-2.02,0.43
			c-0.57,0-1.12-0.11-1.62-0.32c-0.51-0.21-0.95-0.51-1.34-0.89c-0.38-0.38-0.69-0.85-0.91-1.39c-0.22-0.54-0.34-1.14-0.34-1.79
			c0-0.61,0.1-1.18,0.3-1.71c0.2-0.54,0.48-1,0.84-1.4s0.78-0.71,1.28-0.93c0.49-0.23,1.03-0.34,1.62-0.34
			c0.62,0,1.17,0.12,1.66,0.35c0.49,0.23,0.9,0.55,1.23,0.95c0.34,0.4,0.59,0.87,0.76,1.41c0.17,0.54,0.26,1.12,0.26,1.74
			c0,0.05,0,0.11,0,0.18c0,0.06-0.01,0.14-0.02,0.21h-6.65C160.92,104.21,161.03,104.61,161.2,104.96z M166.26,102.82
			c-0.03-0.38-0.11-0.74-0.23-1.09s-0.3-0.65-0.52-0.91s-0.49-0.47-0.81-0.63c-0.32-0.16-0.69-0.24-1.11-0.24
			c-0.37,0-0.71,0.07-1.02,0.22c-0.31,0.15-0.59,0.35-0.82,0.6c-0.24,0.25-0.43,0.56-0.58,0.9c-0.15,0.35-0.25,0.73-0.29,1.14
			H166.26z"/>
		<path class="st1" d="M183.39,97.3h-6.89v4.06h6.16v1.17h-6.16v4.96h-1.28V96.11h8.17V97.3z"/>
		<path class="st1" d="M187.11,107.49h-1.25v-8.4h1.25v2.19c0.15-0.35,0.34-0.67,0.57-0.96s0.49-0.54,0.78-0.76
			c0.29-0.21,0.61-0.37,0.96-0.48c0.35-0.11,0.72-0.16,1.12-0.15v1.35h-0.1c-0.46,0-0.89,0.08-1.29,0.24
			c-0.41,0.16-0.76,0.41-1.06,0.73c-0.3,0.33-0.54,0.73-0.71,1.21c-0.17,0.48-0.26,1.04-0.26,1.67V107.49z"/>
		<path class="st1" d="M193.91,100.25c-0.41,0.11-0.8,0.26-1.19,0.45l-0.37-1.02c0.46-0.22,0.94-0.39,1.41-0.51
			c0.48-0.12,1.02-0.19,1.64-0.19c1.15,0,2.03,0.28,2.65,0.85c0.62,0.57,0.93,1.41,0.93,2.53v5.13h-1.2v-1.27
			c-0.29,0.38-0.68,0.71-1.18,1.01s-1.11,0.44-1.86,0.44c-0.39,0-0.77-0.05-1.15-0.16c-0.37-0.11-0.71-0.27-1.01-0.5
			c-0.3-0.22-0.54-0.5-0.71-0.82s-0.27-0.71-0.27-1.15s0.09-0.84,0.26-1.18c0.17-0.34,0.42-0.62,0.74-0.85
			c0.32-0.23,0.7-0.4,1.14-0.52c0.44-0.12,0.92-0.18,1.46-0.18c0.54,0,1.01,0.03,1.41,0.1c0.4,0.06,0.79,0.15,1.17,0.26v-0.29
			c0-0.76-0.22-1.33-0.66-1.71c-0.44-0.38-1.05-0.58-1.84-0.58C194.77,100.08,194.31,100.13,193.91,100.25z M193.51,103.7
			c-0.42,0.31-0.63,0.74-0.63,1.28c0,0.27,0.06,0.51,0.17,0.71s0.27,0.38,0.46,0.53c0.19,0.15,0.42,0.26,0.67,0.33
			c0.25,0.08,0.52,0.11,0.8,0.11c0.39,0,0.75-0.06,1.09-0.17c0.34-0.11,0.64-0.27,0.89-0.47s0.45-0.44,0.6-0.71s0.22-0.58,0.22-0.92
			v-0.81c-0.31-0.09-0.67-0.17-1.08-0.24c-0.41-0.08-0.87-0.11-1.38-0.11C194.53,103.23,193.93,103.39,193.51,103.7z"/>
		<path class="st1" d="M209,99.93c0.19-0.21,0.4-0.38,0.64-0.54c0.24-0.15,0.51-0.27,0.8-0.36c0.3-0.09,0.63-0.13,1-0.13
			c0.97,0,1.74,0.3,2.29,0.9s0.83,1.43,0.83,2.48v5.2h-1.25v-4.91c0-0.81-0.19-1.44-0.58-1.88c-0.38-0.44-0.92-0.66-1.6-0.66
			c-0.31,0-0.61,0.06-0.89,0.17c-0.28,0.11-0.53,0.28-0.74,0.5c-0.21,0.22-0.38,0.5-0.5,0.82c-0.12,0.33-0.19,0.69-0.19,1.11v4.84
			h-1.23v-4.94c0-0.79-0.19-1.41-0.58-1.84s-0.91-0.66-1.58-0.66c-0.34,0-0.64,0.07-0.93,0.2c-0.28,0.13-0.53,0.31-0.74,0.55
			s-0.38,0.52-0.5,0.84c-0.12,0.32-0.18,0.67-0.18,1.06v4.79h-1.25v-8.4h1.25v1.41c0.14-0.21,0.29-0.41,0.46-0.6
			c0.17-0.19,0.36-0.37,0.58-0.51s0.46-0.26,0.73-0.35c0.27-0.09,0.58-0.13,0.94-0.13c0.68,0,1.25,0.16,1.69,0.48
			c0.44,0.32,0.78,0.72,1.01,1.19C208.64,100.35,208.81,100.14,209,99.93z"/>
		<path class="st1" d="M218.57,104.96c0.17,0.35,0.4,0.65,0.67,0.89s0.57,0.43,0.91,0.55c0.34,0.12,0.69,0.19,1.06,0.19
			c0.58,0,1.09-0.11,1.5-0.33s0.8-0.5,1.15-0.86l0.78,0.7c-0.42,0.48-0.91,0.86-1.45,1.15c-0.54,0.29-1.21,0.43-2.02,0.43
			c-0.57,0-1.12-0.11-1.62-0.32c-0.51-0.21-0.95-0.51-1.34-0.89c-0.38-0.38-0.69-0.85-0.91-1.39c-0.22-0.54-0.34-1.14-0.34-1.79
			c0-0.61,0.1-1.18,0.3-1.71c0.2-0.54,0.48-1,0.84-1.4s0.78-0.71,1.28-0.93c0.49-0.23,1.03-0.34,1.62-0.34
			c0.62,0,1.17,0.12,1.66,0.35c0.49,0.23,0.9,0.55,1.23,0.95c0.34,0.4,0.59,0.87,0.76,1.41c0.17,0.54,0.26,1.12,0.26,1.74
			c0,0.05,0,0.11,0,0.18c0,0.06-0.01,0.14-0.02,0.21h-6.65C218.28,104.21,218.39,104.61,218.57,104.96z M223.62,102.82
			c-0.03-0.38-0.11-0.74-0.23-1.09s-0.3-0.65-0.52-0.91s-0.49-0.47-0.81-0.63c-0.32-0.16-0.69-0.24-1.11-0.24
			c-0.37,0-0.71,0.07-1.02,0.22c-0.31,0.15-0.59,0.35-0.82,0.6c-0.24,0.25-0.43,0.56-0.58,0.9c-0.15,0.35-0.25,0.73-0.29,1.14
			H223.62z"/>
		<path class="st1" d="M235.29,105.83l2.21-6.74h1.3l-2.96,8.47h-1.09l-2.26-6.63l-2.28,6.63h-1.1l-2.94-8.47h1.33l2.21,6.74
			l2.26-6.78h1.04L235.29,105.83z"/>
		<path class="st1" d="M248.57,104.98c-0.22,0.54-0.53,1-0.92,1.41c-0.39,0.4-0.86,0.72-1.4,0.95c-0.54,0.23-1.13,0.35-1.75,0.35
			s-1.21-0.12-1.74-0.35c-0.53-0.23-0.99-0.55-1.38-0.94c-0.39-0.4-0.69-0.86-0.91-1.39c-0.22-0.53-0.32-1.09-0.32-1.69
			s0.11-1.16,0.32-1.7s0.52-1,0.91-1.41c0.39-0.4,0.85-0.72,1.39-0.95c0.54-0.23,1.12-0.35,1.76-0.35c0.63,0,1.21,0.12,1.75,0.35
			c0.54,0.23,1,0.55,1.39,0.94s0.69,0.86,0.91,1.39c0.22,0.53,0.33,1.09,0.33,1.69C248.91,103.88,248.79,104.44,248.57,104.98z
			 M247.39,102.02c-0.16-0.4-0.38-0.75-0.66-1.04c-0.28-0.3-0.61-0.53-0.99-0.71c-0.38-0.17-0.79-0.26-1.24-0.26
			c-0.46,0-0.87,0.08-1.25,0.25c-0.38,0.17-0.7,0.4-0.97,0.7c-0.27,0.3-0.47,0.64-0.63,1.04s-0.23,0.82-0.23,1.27
			c0,0.45,0.08,0.88,0.24,1.28c0.16,0.4,0.37,0.75,0.65,1.04s0.6,0.52,0.98,0.7c0.38,0.17,0.79,0.26,1.23,0.26
			c0.46,0,0.87-0.08,1.25-0.25c0.38-0.17,0.7-0.4,0.97-0.69c0.27-0.29,0.48-0.63,0.63-1.03c0.15-0.39,0.23-0.82,0.23-1.27
			C247.62,102.85,247.54,102.42,247.39,102.02z"/>
		<path class="st1" d="M252.61,107.49h-1.25v-8.4h1.25v2.19c0.15-0.35,0.34-0.67,0.57-0.96s0.49-0.54,0.78-0.76
			c0.29-0.21,0.61-0.37,0.96-0.48c0.35-0.11,0.72-0.16,1.12-0.15v1.35h-0.1c-0.46,0-0.89,0.08-1.29,0.24
			c-0.41,0.16-0.76,0.41-1.06,0.73c-0.3,0.33-0.54,0.73-0.71,1.21c-0.17,0.48-0.26,1.04-0.26,1.67V107.49z"/>
		<path class="st1" d="M265.59,107.49h-1.5l-3.01-3.92l-1.71,1.72v2.19h-1.25V95.63h1.25v8.19l4.53-4.73h1.56l-3.53,3.61
			L265.59,107.49z"/>
	</g>
	<g>
		<rect x="91.83" y="40.32" class="st0" width="174.55" height="21.68"/>
		<g>
			<path class="st1" d="M136.05,45.74c0.05,0.12,0.13,0.23,0.26,0.33s0.3,0.19,0.52,0.27c0.22,0.08,0.51,0.16,0.85,0.23
				c0.7,0.16,1.22,0.37,1.55,0.65s0.5,0.66,0.5,1.15c0,0.27-0.05,0.52-0.16,0.74c-0.11,0.22-0.25,0.41-0.44,0.57
				c-0.19,0.16-0.41,0.28-0.68,0.36s-0.55,0.13-0.86,0.13c-0.5,0-0.96-0.08-1.38-0.24c-0.42-0.16-0.81-0.41-1.19-0.76l0.44-0.52
				c0.33,0.3,0.66,0.52,1,0.67c0.34,0.15,0.72,0.22,1.16,0.22c0.43,0,0.77-0.1,1.02-0.3s0.38-0.46,0.38-0.78
				c0-0.15-0.02-0.28-0.07-0.4c-0.05-0.12-0.13-0.22-0.25-0.32c-0.12-0.1-0.29-0.18-0.5-0.26s-0.49-0.15-0.82-0.23
				c-0.36-0.08-0.68-0.17-0.94-0.27c-0.27-0.1-0.49-0.23-0.66-0.37c-0.17-0.14-0.3-0.31-0.39-0.5c-0.08-0.19-0.13-0.42-0.13-0.69
				c0-0.25,0.05-0.48,0.15-0.69c0.1-0.21,0.25-0.39,0.43-0.54c0.19-0.15,0.41-0.27,0.66-0.36c0.25-0.09,0.53-0.13,0.83-0.13
				c0.46,0,0.87,0.06,1.21,0.19c0.35,0.13,0.68,0.32,1,0.57l-0.41,0.55c-0.29-0.24-0.59-0.41-0.89-0.52s-0.61-0.16-0.93-0.16
				c-0.2,0-0.39,0.03-0.55,0.08s-0.31,0.13-0.42,0.22c-0.12,0.09-0.21,0.2-0.27,0.32c-0.06,0.13-0.09,0.26-0.09,0.41
				C135.98,45.49,136,45.62,136.05,45.74z"/>
			<path class="st1" d="M141.96,48.75c0,0.29,0.07,0.49,0.22,0.6c0.14,0.11,0.33,0.17,0.57,0.17c0.12,0,0.23-0.01,0.34-0.04
				c0.1-0.02,0.22-0.07,0.34-0.13v0.59c-0.12,0.07-0.25,0.12-0.38,0.15c-0.14,0.03-0.29,0.05-0.46,0.05c-0.19,0-0.36-0.02-0.52-0.07
				c-0.16-0.05-0.3-0.12-0.42-0.23c-0.12-0.1-0.21-0.24-0.27-0.41s-0.1-0.37-0.1-0.6v-2.81h-0.65v-0.61h0.65v-1.4h0.69v1.4h1.48
				v0.61h-1.48V48.75z"/>
			<path class="st1" d="M147.97,45.42h0.68v4.65h-0.68v-0.81c-0.16,0.25-0.36,0.47-0.61,0.64s-0.58,0.27-0.98,0.27
				c-0.28,0-0.53-0.04-0.75-0.14c-0.22-0.09-0.4-0.22-0.56-0.38s-0.27-0.36-0.35-0.59c-0.08-0.23-0.12-0.48-0.12-0.76v-2.89h0.69
				v2.72c0,0.43,0.11,0.77,0.33,1.03c0.22,0.25,0.54,0.38,0.95,0.38c0.2,0,0.38-0.03,0.55-0.1c0.17-0.07,0.32-0.17,0.44-0.3
				c0.12-0.13,0.22-0.28,0.29-0.46c0.07-0.18,0.11-0.38,0.11-0.59V45.42z"/>
			<path class="st1" d="M153.94,50.07v-0.94c-0.1,0.14-0.2,0.27-0.32,0.4s-0.25,0.24-0.39,0.33c-0.14,0.1-0.3,0.17-0.48,0.23
				c-0.18,0.05-0.37,0.08-0.59,0.08c-0.28,0-0.56-0.05-0.82-0.16s-0.5-0.27-0.71-0.47s-0.38-0.46-0.5-0.76
				c-0.13-0.3-0.19-0.64-0.19-1.03c0-0.38,0.06-0.73,0.19-1.03c0.13-0.3,0.29-0.55,0.5-0.76s0.45-0.37,0.71-0.48
				s0.54-0.17,0.82-0.17c0.22,0,0.41,0.03,0.59,0.08c0.18,0.05,0.34,0.13,0.49,0.22c0.14,0.09,0.27,0.2,0.39,0.31
				c0.12,0.12,0.22,0.25,0.31,0.38V43.5h0.69v6.57H153.94z M153.83,47c-0.09-0.22-0.22-0.41-0.38-0.56s-0.34-0.28-0.54-0.36
				c-0.2-0.09-0.41-0.13-0.62-0.13c-0.23,0-0.44,0.04-0.64,0.12c-0.2,0.08-0.37,0.2-0.52,0.35c-0.15,0.15-0.26,0.34-0.35,0.56
				c-0.09,0.22-0.13,0.48-0.13,0.76c0,0.27,0.04,0.52,0.13,0.74c0.09,0.22,0.21,0.41,0.36,0.57s0.32,0.28,0.52,0.36
				c0.2,0.08,0.41,0.13,0.63,0.13c0.22,0,0.42-0.04,0.62-0.13c0.2-0.09,0.38-0.21,0.54-0.36s0.29-0.34,0.38-0.57
				c0.09-0.22,0.14-0.47,0.14-0.74S153.92,47.23,153.83,47z"/>
			<path class="st1" d="M156.79,48.67c0.1,0.19,0.22,0.36,0.37,0.5c0.15,0.13,0.32,0.24,0.5,0.31c0.19,0.07,0.38,0.1,0.58,0.1
				c0.32,0,0.6-0.06,0.83-0.18c0.23-0.12,0.44-0.28,0.63-0.48l0.43,0.39c-0.23,0.26-0.5,0.48-0.8,0.63
				c-0.3,0.16-0.67,0.24-1.12,0.24c-0.32,0-0.62-0.06-0.9-0.18c-0.28-0.12-0.53-0.28-0.74-0.5c-0.21-0.21-0.38-0.47-0.5-0.77
				c-0.12-0.3-0.19-0.63-0.19-0.99c0-0.34,0.06-0.65,0.17-0.95s0.27-0.55,0.46-0.77c0.2-0.22,0.43-0.39,0.71-0.52
				c0.27-0.13,0.57-0.19,0.9-0.19c0.34,0,0.65,0.06,0.92,0.19c0.27,0.13,0.5,0.3,0.68,0.53c0.19,0.22,0.33,0.48,0.42,0.78
				c0.1,0.3,0.14,0.62,0.14,0.96c0,0.03,0,0.06,0,0.1s0,0.08-0.01,0.12h-3.68C156.63,48.25,156.69,48.48,156.79,48.67z
				 M159.58,47.49c-0.02-0.21-0.06-0.41-0.13-0.6s-0.16-0.36-0.29-0.5s-0.27-0.26-0.45-0.35c-0.18-0.09-0.38-0.13-0.61-0.13
				c-0.2,0-0.39,0.04-0.56,0.12s-0.33,0.19-0.46,0.33s-0.24,0.31-0.32,0.5c-0.08,0.19-0.14,0.4-0.16,0.63H159.58z"/>
			<path class="st1" d="M162.2,50.07h-0.69v-4.65h0.69v0.81c0.16-0.25,0.36-0.47,0.61-0.64c0.25-0.18,0.58-0.27,0.98-0.27
				c0.28,0,0.53,0.04,0.75,0.13c0.22,0.09,0.4,0.22,0.56,0.38s0.27,0.36,0.35,0.59c0.08,0.23,0.12,0.48,0.12,0.76v2.89h-0.69v-2.72
				c0-0.43-0.11-0.77-0.33-1.03c-0.22-0.25-0.54-0.38-0.95-0.38c-0.2,0-0.38,0.03-0.55,0.1c-0.17,0.07-0.32,0.17-0.45,0.3
				c-0.13,0.13-0.22,0.28-0.29,0.46c-0.07,0.18-0.1,0.38-0.1,0.59V50.07z"/>
			<path class="st1" d="M167.99,48.75c0,0.29,0.07,0.49,0.22,0.6c0.14,0.11,0.33,0.17,0.57,0.17c0.12,0,0.23-0.01,0.34-0.04
				c0.11-0.02,0.22-0.07,0.34-0.13v0.59c-0.12,0.07-0.25,0.12-0.38,0.15c-0.13,0.03-0.29,0.05-0.45,0.05
				c-0.19,0-0.36-0.02-0.52-0.07c-0.16-0.05-0.3-0.12-0.42-0.23c-0.12-0.1-0.21-0.24-0.27-0.41c-0.07-0.17-0.1-0.37-0.1-0.6v-2.81
				h-0.65v-0.61h0.65v-1.4h0.69v1.4h1.48v0.61h-1.48V48.75z"/>
			<path class="st1" d="M173.99,48.67c0.1,0.19,0.22,0.36,0.37,0.5c0.15,0.13,0.32,0.24,0.5,0.31c0.19,0.07,0.38,0.1,0.58,0.1
				c0.32,0,0.6-0.06,0.83-0.18c0.23-0.12,0.44-0.28,0.63-0.48l0.43,0.39c-0.23,0.26-0.5,0.48-0.8,0.63
				c-0.3,0.16-0.67,0.24-1.12,0.24c-0.32,0-0.62-0.06-0.9-0.18c-0.28-0.12-0.53-0.28-0.74-0.5c-0.21-0.21-0.38-0.47-0.5-0.77
				c-0.12-0.3-0.19-0.63-0.19-0.99c0-0.34,0.06-0.65,0.17-0.95c0.11-0.3,0.27-0.55,0.46-0.77s0.43-0.39,0.71-0.52
				c0.27-0.13,0.57-0.19,0.9-0.19c0.34,0,0.65,0.06,0.92,0.19c0.27,0.13,0.5,0.3,0.68,0.53c0.19,0.22,0.33,0.48,0.42,0.78
				c0.1,0.3,0.14,0.62,0.14,0.96c0,0.03,0,0.06,0,0.1s0,0.08-0.01,0.12h-3.68C173.84,48.25,173.9,48.48,173.99,48.67z M176.79,47.49
				c-0.02-0.21-0.06-0.41-0.13-0.6c-0.07-0.19-0.16-0.36-0.29-0.5c-0.12-0.14-0.27-0.26-0.45-0.35c-0.18-0.09-0.38-0.13-0.61-0.13
				c-0.2,0-0.39,0.04-0.56,0.12s-0.33,0.19-0.46,0.33c-0.13,0.14-0.24,0.31-0.32,0.5c-0.08,0.19-0.14,0.4-0.16,0.63H176.79z"/>
			<path class="st1" d="M182.49,50.07h-0.8l-1.44-1.9l-1.45,1.9h-0.77l1.83-2.37l-1.75-2.29h0.79l1.38,1.8l1.38-1.8h0.77l-1.76,2.27
				L182.49,50.07z"/>
			<path class="st1" d="M188.12,48.76c-0.13,0.3-0.29,0.55-0.5,0.76s-0.44,0.37-0.71,0.48s-0.54,0.17-0.82,0.17
				c-0.22,0-0.41-0.03-0.59-0.08c-0.18-0.05-0.34-0.13-0.49-0.22c-0.14-0.09-0.27-0.19-0.39-0.31c-0.12-0.12-0.22-0.25-0.31-0.38
				v2.33h-0.69v-6.09h0.69v0.94c0.1-0.14,0.2-0.27,0.32-0.4s0.25-0.24,0.39-0.33c0.14-0.09,0.3-0.17,0.48-0.23s0.37-0.09,0.59-0.09
				c0.28,0,0.55,0.05,0.81,0.16c0.27,0.11,0.5,0.27,0.71,0.47s0.38,0.46,0.5,0.76s0.19,0.64,0.19,1.03
				C188.31,48.12,188.25,48.46,188.12,48.76z M187.47,47c-0.09-0.22-0.21-0.41-0.36-0.57c-0.15-0.16-0.32-0.28-0.52-0.36
				s-0.41-0.13-0.63-0.13c-0.22,0-0.42,0.04-0.63,0.13c-0.2,0.09-0.38,0.21-0.54,0.36s-0.29,0.34-0.38,0.56
				c-0.09,0.22-0.14,0.47-0.14,0.73s0.05,0.52,0.14,0.74c0.09,0.22,0.22,0.41,0.38,0.57s0.34,0.28,0.54,0.36
				c0.2,0.09,0.41,0.13,0.63,0.13c0.22,0,0.43-0.04,0.63-0.12c0.2-0.08,0.38-0.2,0.52-0.35c0.15-0.15,0.26-0.34,0.35-0.56
				c0.09-0.22,0.13-0.48,0.13-0.76C187.6,47.47,187.56,47.23,187.47,47z"/>
			<path class="st1" d="M190.19,48.67c0.1,0.19,0.22,0.36,0.37,0.5c0.15,0.13,0.32,0.24,0.5,0.31c0.19,0.07,0.38,0.1,0.58,0.1
				c0.32,0,0.6-0.06,0.83-0.18c0.23-0.12,0.44-0.28,0.63-0.48l0.43,0.39c-0.23,0.26-0.5,0.48-0.8,0.63
				c-0.3,0.16-0.67,0.24-1.12,0.24c-0.32,0-0.62-0.06-0.9-0.18c-0.28-0.12-0.53-0.28-0.74-0.5c-0.21-0.21-0.38-0.47-0.5-0.77
				c-0.12-0.3-0.19-0.63-0.19-0.99c0-0.34,0.06-0.65,0.17-0.95c0.11-0.3,0.27-0.55,0.46-0.77s0.43-0.39,0.71-0.52
				c0.27-0.13,0.57-0.19,0.9-0.19c0.34,0,0.65,0.06,0.92,0.19c0.27,0.13,0.5,0.3,0.68,0.53c0.19,0.22,0.33,0.48,0.42,0.78
				c0.1,0.3,0.14,0.62,0.14,0.96c0,0.03,0,0.06,0,0.1s0,0.08-0.01,0.12h-3.68C190.04,48.25,190.1,48.48,190.19,48.67z M192.99,47.49
				c-0.02-0.21-0.06-0.41-0.13-0.6c-0.07-0.19-0.16-0.36-0.29-0.5c-0.12-0.14-0.27-0.26-0.45-0.35c-0.18-0.09-0.38-0.13-0.61-0.13
				c-0.2,0-0.39,0.04-0.56,0.12s-0.33,0.19-0.46,0.33c-0.13,0.14-0.24,0.31-0.32,0.5c-0.08,0.19-0.14,0.4-0.16,0.63H192.99z"/>
			<path class="st1" d="M195.61,50.07h-0.69v-4.65h0.69v1.21c0.08-0.19,0.19-0.37,0.32-0.53c0.13-0.16,0.27-0.3,0.43-0.42
				c0.16-0.12,0.34-0.21,0.53-0.27s0.4-0.09,0.62-0.08v0.75h-0.05c-0.25,0-0.49,0.04-0.72,0.13s-0.42,0.23-0.59,0.41
				c-0.17,0.18-0.3,0.4-0.4,0.67s-0.14,0.57-0.14,0.92V50.07z"/>
			<path class="st1" d="M198.58,44.4v-0.77h0.79v0.77H198.58z M198.63,50.07v-4.65h0.69v4.65H198.63z"/>
			<path class="st1" d="M201.53,48.67c0.1,0.19,0.22,0.36,0.37,0.5c0.15,0.13,0.32,0.24,0.5,0.31c0.19,0.07,0.38,0.1,0.58,0.1
				c0.32,0,0.6-0.06,0.83-0.18c0.23-0.12,0.44-0.28,0.63-0.48l0.43,0.39c-0.23,0.26-0.5,0.48-0.8,0.63
				c-0.3,0.16-0.67,0.24-1.12,0.24c-0.32,0-0.62-0.06-0.9-0.18c-0.28-0.12-0.53-0.28-0.74-0.5c-0.21-0.21-0.38-0.47-0.5-0.77
				c-0.12-0.3-0.19-0.63-0.19-0.99c0-0.34,0.06-0.65,0.17-0.95c0.11-0.3,0.27-0.55,0.46-0.77s0.43-0.39,0.71-0.52
				c0.27-0.13,0.57-0.19,0.9-0.19c0.34,0,0.65,0.06,0.92,0.19c0.27,0.13,0.5,0.3,0.68,0.53c0.19,0.22,0.33,0.48,0.42,0.78
				c0.1,0.3,0.14,0.62,0.14,0.96c0,0.03,0,0.06,0,0.1s0,0.08-0.01,0.12h-3.68C201.38,48.25,201.44,48.48,201.53,48.67z
				 M204.33,47.49c-0.02-0.21-0.06-0.41-0.13-0.6c-0.07-0.19-0.16-0.36-0.29-0.5c-0.12-0.14-0.27-0.26-0.45-0.35
				c-0.18-0.09-0.38-0.13-0.61-0.13c-0.2,0-0.39,0.04-0.56,0.12s-0.33,0.19-0.46,0.33c-0.13,0.14-0.24,0.31-0.32,0.5
				c-0.08,0.19-0.14,0.4-0.16,0.63H204.33z"/>
			<path class="st1" d="M206.95,50.07h-0.69v-4.65h0.69v0.81c0.16-0.25,0.36-0.47,0.61-0.64c0.25-0.18,0.58-0.27,0.98-0.27
				c0.28,0,0.53,0.04,0.75,0.13c0.22,0.09,0.41,0.22,0.56,0.38c0.15,0.17,0.27,0.36,0.35,0.59s0.12,0.48,0.12,0.76v2.89h-0.69v-2.72
				c0-0.43-0.11-0.77-0.33-1.03c-0.22-0.25-0.54-0.38-0.95-0.38c-0.2,0-0.38,0.03-0.55,0.1c-0.17,0.07-0.32,0.17-0.45,0.3
				c-0.13,0.13-0.22,0.28-0.29,0.46c-0.07,0.18-0.1,0.38-0.1,0.59V50.07z"/>
			<path class="st1" d="M215,49.92c-0.3,0.17-0.66,0.26-1.1,0.26c-0.34,0-0.66-0.06-0.95-0.19s-0.54-0.3-0.76-0.52
				s-0.38-0.48-0.5-0.77s-0.18-0.61-0.18-0.94s0.06-0.64,0.18-0.94s0.29-0.56,0.5-0.78c0.21-0.22,0.46-0.4,0.76-0.53
				c0.29-0.13,0.61-0.19,0.95-0.19c0.22,0,0.42,0.02,0.6,0.06c0.18,0.04,0.34,0.1,0.5,0.18c0.15,0.08,0.29,0.16,0.41,0.27
				s0.24,0.21,0.35,0.32l-0.46,0.49c-0.19-0.19-0.39-0.36-0.61-0.5c-0.22-0.14-0.49-0.21-0.81-0.21c-0.23,0-0.45,0.05-0.66,0.14
				s-0.38,0.22-0.53,0.39c-0.15,0.16-0.27,0.36-0.35,0.57c-0.08,0.22-0.13,0.45-0.13,0.7s0.04,0.49,0.13,0.71
				c0.09,0.22,0.21,0.41,0.36,0.58c0.15,0.16,0.33,0.29,0.54,0.39s0.43,0.14,0.68,0.14c0.3,0,0.57-0.07,0.8-0.2
				c0.23-0.13,0.44-0.3,0.62-0.49l0.44,0.41C215.56,49.53,215.3,49.75,215,49.92z"/>
			<path class="st1" d="M217.41,48.67c0.1,0.19,0.22,0.36,0.37,0.5c0.15,0.13,0.32,0.24,0.5,0.31c0.19,0.07,0.38,0.1,0.58,0.1
				c0.32,0,0.6-0.06,0.83-0.18c0.23-0.12,0.44-0.28,0.63-0.48l0.43,0.39c-0.23,0.26-0.5,0.48-0.8,0.63
				c-0.3,0.16-0.67,0.24-1.12,0.24c-0.32,0-0.62-0.06-0.9-0.18c-0.28-0.12-0.53-0.28-0.74-0.5c-0.21-0.21-0.38-0.47-0.5-0.77
				c-0.12-0.3-0.19-0.63-0.19-0.99c0-0.34,0.06-0.65,0.17-0.95s0.27-0.55,0.46-0.77c0.2-0.22,0.43-0.39,0.71-0.52
				c0.27-0.13,0.57-0.19,0.9-0.19c0.34,0,0.65,0.06,0.92,0.19c0.27,0.13,0.5,0.3,0.68,0.53c0.19,0.22,0.33,0.48,0.42,0.78
				c0.1,0.3,0.14,0.62,0.14,0.96c0,0.03,0,0.06,0,0.1s0,0.08-0.01,0.12h-3.68C217.25,48.25,217.31,48.48,217.41,48.67z
				 M220.21,47.49c-0.02-0.21-0.06-0.41-0.13-0.6s-0.16-0.36-0.29-0.5s-0.27-0.26-0.45-0.35c-0.18-0.09-0.38-0.13-0.61-0.13
				c-0.2,0-0.39,0.04-0.56,0.12s-0.33,0.19-0.46,0.33s-0.24,0.31-0.32,0.5c-0.08,0.19-0.14,0.4-0.16,0.63H220.21z"/>
			<path class="st1" d="M222.1,46.36v-0.94h0.83v0.94H222.1z M222.1,50.07v-0.94h0.83v0.94H222.1z"/>
			<path class="st1" d="M131.51,59.07l-1.35-2.02h-1.09v2.02h-1.39v-6.3h2.88c0.75,0,1.33,0.18,1.75,0.55
				c0.42,0.37,0.63,0.88,0.63,1.53v0.02c0,0.51-0.12,0.93-0.37,1.25c-0.25,0.32-0.57,0.56-0.98,0.71l1.54,2.25H131.51z
				 M131.54,54.92c0-0.3-0.1-0.52-0.29-0.68c-0.19-0.15-0.46-0.22-0.8-0.22h-1.38v1.81h1.4c0.34,0,0.6-0.08,0.79-0.24
				s0.27-0.38,0.27-0.65V54.92z"/>
			<path class="st1" d="M138.55,56.96c0,0.05-0.01,0.1-0.01,0.17h-3.36c0.07,0.31,0.2,0.55,0.41,0.71c0.21,0.16,0.46,0.24,0.77,0.24
				c0.23,0,0.43-0.04,0.61-0.12c0.18-0.08,0.37-0.2,0.56-0.38l0.78,0.69c-0.23,0.28-0.5,0.5-0.83,0.66
				c-0.32,0.16-0.71,0.24-1.14,0.24c-0.36,0-0.69-0.06-1-0.18c-0.31-0.12-0.58-0.29-0.8-0.51c-0.22-0.22-0.4-0.48-0.53-0.79
				c-0.13-0.3-0.19-0.64-0.19-1.01v-0.02c0-0.34,0.06-0.67,0.18-0.97c0.12-0.31,0.28-0.57,0.49-0.8s0.46-0.41,0.75-0.54
				c0.29-0.13,0.61-0.2,0.97-0.2c0.4,0,0.75,0.07,1.04,0.22c0.29,0.14,0.54,0.34,0.73,0.58c0.19,0.24,0.34,0.52,0.43,0.84
				c0.09,0.31,0.14,0.64,0.14,0.99v0.02C138.55,56.86,138.55,56.92,138.55,56.96z M136.9,55.54c-0.17-0.19-0.41-0.28-0.69-0.28
				c-0.29,0-0.52,0.09-0.7,0.28s-0.29,0.44-0.35,0.75h2.06C137.18,55.97,137.07,55.73,136.9,55.54z"/>
			<path class="st1" d="M143.05,60.51v-2.13c-0.17,0.23-0.37,0.41-0.61,0.56c-0.24,0.15-0.54,0.22-0.9,0.22
				c-0.28,0-0.55-0.05-0.82-0.16c-0.26-0.11-0.5-0.27-0.7-0.48c-0.2-0.21-0.37-0.47-0.49-0.78s-0.18-0.66-0.18-1.07v-0.02
				c0-0.4,0.06-0.76,0.18-1.07s0.28-0.57,0.49-0.78s0.43-0.37,0.7-0.48c0.26-0.11,0.54-0.16,0.83-0.16c0.37,0,0.67,0.07,0.9,0.21
				s0.44,0.31,0.6,0.5v-0.62h1.37v6.26H143.05z M143.07,56.65c0-0.2-0.03-0.38-0.09-0.55c-0.06-0.17-0.15-0.31-0.25-0.43
				c-0.11-0.12-0.23-0.21-0.37-0.27c-0.14-0.06-0.29-0.1-0.46-0.1s-0.31,0.03-0.45,0.1c-0.14,0.06-0.27,0.15-0.37,0.27
				c-0.11,0.12-0.19,0.26-0.26,0.42s-0.09,0.35-0.09,0.55v0.02c0,0.2,0.03,0.38,0.09,0.55c0.06,0.17,0.15,0.31,0.26,0.43
				c0.11,0.12,0.23,0.21,0.37,0.27s0.29,0.1,0.45,0.1s0.31-0.03,0.46-0.1c0.14-0.06,0.26-0.15,0.37-0.27
				c0.1-0.12,0.19-0.26,0.25-0.43c0.06-0.17,0.09-0.35,0.09-0.55V56.65z"/>
			<path class="st1" d="M148.66,59.07v-0.69c-0.08,0.1-0.16,0.2-0.26,0.29c-0.09,0.09-0.2,0.18-0.31,0.25
				c-0.11,0.07-0.24,0.13-0.38,0.17c-0.14,0.04-0.29,0.06-0.47,0.06c-0.52,0-0.92-0.16-1.21-0.48c-0.29-0.32-0.43-0.76-0.43-1.31
				v-3.12h1.37v2.68c0,0.32,0.07,0.57,0.22,0.73c0.14,0.16,0.35,0.25,0.61,0.25c0.26,0,0.47-0.08,0.62-0.25
				c0.15-0.16,0.23-0.41,0.23-0.73v-2.68h1.37v4.82H148.66z"/>
			<path class="st1" d="M151.28,53.71V52.5h1.44v1.21H151.28z M151.31,59.07v-4.82h1.37v4.82H151.31z"/>
			<path class="st1" d="M156.8,55.59c-0.46,0-0.81,0.14-1.08,0.41s-0.39,0.71-0.39,1.29v1.78h-1.37v-4.82h1.37v0.97
				c0.14-0.33,0.33-0.59,0.57-0.79c0.24-0.2,0.56-0.29,0.97-0.27v1.43H156.8z"/>
			<path class="st1" d="M162.23,56.96c0,0.05-0.01,0.1-0.01,0.17h-3.36c0.07,0.31,0.2,0.55,0.41,0.71c0.21,0.16,0.46,0.24,0.77,0.24
				c0.23,0,0.43-0.04,0.61-0.12s0.37-0.2,0.56-0.38l0.78,0.69c-0.23,0.28-0.5,0.5-0.83,0.66c-0.32,0.16-0.71,0.24-1.14,0.24
				c-0.36,0-0.69-0.06-1-0.18c-0.31-0.12-0.58-0.29-0.8-0.51s-0.4-0.48-0.53-0.79c-0.13-0.3-0.19-0.64-0.19-1.01v-0.02
				c0-0.34,0.06-0.67,0.18-0.97s0.28-0.57,0.49-0.8s0.46-0.41,0.75-0.54c0.29-0.13,0.61-0.2,0.97-0.2c0.4,0,0.75,0.07,1.04,0.22
				c0.29,0.14,0.54,0.34,0.73,0.58c0.19,0.24,0.34,0.52,0.43,0.84c0.09,0.31,0.14,0.64,0.14,0.99v0.02
				C162.23,56.86,162.23,56.92,162.23,56.96z M160.58,55.54c-0.17-0.19-0.41-0.28-0.69-0.28c-0.29,0-0.52,0.09-0.7,0.28
				s-0.29,0.44-0.35,0.75h2.06C160.86,55.97,160.75,55.73,160.58,55.54z"/>
			<path class="st1" d="M166.65,58.3c-0.09,0.2-0.22,0.36-0.39,0.48s-0.37,0.22-0.59,0.28s-0.47,0.09-0.72,0.09
				c-0.34,0-0.69-0.06-1.05-0.18c-0.36-0.12-0.7-0.3-1.02-0.55l0.58-0.9c0.26,0.19,0.53,0.34,0.79,0.43s0.5,0.14,0.73,0.14
				c0.2,0,0.34-0.03,0.44-0.1s0.14-0.15,0.14-0.26v-0.02c0-0.07-0.03-0.14-0.08-0.19c-0.05-0.05-0.13-0.1-0.22-0.14
				s-0.2-0.08-0.32-0.11c-0.12-0.04-0.25-0.07-0.38-0.12c-0.17-0.05-0.34-0.11-0.51-0.18c-0.17-0.07-0.33-0.16-0.46-0.27
				c-0.14-0.11-0.25-0.25-0.34-0.41s-0.13-0.36-0.13-0.59V55.7c0-0.25,0.05-0.46,0.14-0.65s0.22-0.35,0.38-0.48s0.34-0.23,0.56-0.3
				c0.21-0.07,0.44-0.1,0.69-0.1c0.31,0,0.62,0.05,0.93,0.15c0.32,0.1,0.6,0.24,0.87,0.41l-0.52,0.94c-0.24-0.14-0.47-0.25-0.7-0.33
				c-0.23-0.08-0.43-0.12-0.6-0.12c-0.17,0-0.29,0.03-0.38,0.09s-0.13,0.14-0.13,0.24v0.02c0,0.07,0.03,0.12,0.08,0.18
				c0.05,0.05,0.13,0.1,0.22,0.14s0.19,0.09,0.31,0.13s0.24,0.08,0.37,0.13c0.17,0.05,0.34,0.12,0.51,0.19
				c0.17,0.08,0.33,0.17,0.47,0.27c0.14,0.11,0.25,0.24,0.34,0.4c0.09,0.16,0.13,0.34,0.13,0.57v0.02
				C166.79,57.87,166.74,58.11,166.65,58.3z"/>
			<path class="st1" d="M170.49,53.71V52.5h1.44v1.21H170.49z M170.53,59.07v-4.82h1.37v4.82H170.53z"/>
			<path class="st1" d="M179.18,59.07v-2.68c0-0.32-0.07-0.57-0.21-0.73c-0.14-0.16-0.34-0.25-0.59-0.25s-0.46,0.08-0.61,0.25
				c-0.15,0.16-0.22,0.41-0.22,0.73v2.68h-1.37v-2.68c0-0.32-0.07-0.57-0.21-0.73c-0.14-0.16-0.34-0.25-0.59-0.25
				s-0.46,0.08-0.61,0.25s-0.22,0.41-0.22,0.73v2.68h-1.37v-4.82h1.37v0.69c0.08-0.1,0.16-0.2,0.26-0.29
				c0.09-0.09,0.2-0.18,0.31-0.25s0.24-0.13,0.38-0.17c0.14-0.04,0.3-0.06,0.47-0.06c0.32,0,0.59,0.07,0.82,0.2
				c0.23,0.13,0.41,0.32,0.54,0.57c0.21-0.25,0.44-0.45,0.7-0.58s0.55-0.19,0.88-0.19c0.51,0,0.91,0.15,1.2,0.45
				c0.29,0.3,0.43,0.74,0.43,1.32v3.14H179.18z"/>
			<path class="st1" d="M186.62,57.73c-0.12,0.31-0.29,0.57-0.49,0.78c-0.2,0.21-0.43,0.37-0.7,0.48c-0.26,0.11-0.54,0.16-0.83,0.16
				c-0.37,0-0.67-0.07-0.9-0.21c-0.24-0.14-0.44-0.31-0.6-0.5v2.06h-1.37v-6.26h1.37v0.69c0.17-0.23,0.37-0.41,0.61-0.56
				c0.24-0.15,0.54-0.22,0.9-0.22c0.28,0,0.56,0.05,0.82,0.16s0.5,0.27,0.7,0.48s0.37,0.47,0.49,0.78s0.18,0.66,0.18,1.07v0.02
				C186.8,57.07,186.74,57.42,186.62,57.73z M185.43,56.65c0-0.2-0.03-0.38-0.09-0.55c-0.06-0.17-0.15-0.31-0.26-0.43
				c-0.11-0.12-0.23-0.21-0.37-0.27c-0.14-0.06-0.29-0.1-0.45-0.1s-0.31,0.03-0.45,0.1c-0.14,0.06-0.26,0.15-0.37,0.27
				c-0.11,0.12-0.19,0.26-0.25,0.43c-0.06,0.17-0.09,0.35-0.09,0.55v0.02c0,0.2,0.03,0.38,0.09,0.55c0.06,0.17,0.15,0.31,0.25,0.43
				c0.1,0.12,0.23,0.21,0.37,0.27c0.14,0.06,0.29,0.1,0.45,0.1s0.31-0.03,0.45-0.1c0.14-0.06,0.27-0.15,0.37-0.27
				c0.11-0.12,0.19-0.26,0.26-0.42c0.06-0.16,0.09-0.35,0.09-0.55V56.65z"/>
			<path class="st1" d="M190.64,55.59c-0.46,0-0.81,0.14-1.08,0.41c-0.26,0.28-0.39,0.71-0.39,1.29v1.78h-1.37v-4.82h1.37v0.97
				c0.14-0.33,0.33-0.59,0.57-0.79c0.24-0.2,0.56-0.29,0.97-0.27v1.43H190.64z"/>
			<path class="st1" d="M196.36,57.64c-0.13,0.3-0.31,0.57-0.55,0.8c-0.23,0.23-0.51,0.41-0.83,0.54c-0.32,0.13-0.67,0.2-1.04,0.2
				c-0.37,0-0.72-0.06-1.04-0.19c-0.32-0.13-0.59-0.31-0.82-0.53c-0.23-0.22-0.41-0.49-0.54-0.79c-0.13-0.3-0.2-0.63-0.2-0.98v-0.02
				c0-0.35,0.07-0.67,0.2-0.98c0.13-0.3,0.31-0.57,0.55-0.8c0.23-0.23,0.51-0.41,0.83-0.54c0.32-0.13,0.67-0.2,1.04-0.2
				c0.37,0,0.72,0.06,1.04,0.19c0.32,0.13,0.59,0.31,0.82,0.53c0.23,0.23,0.41,0.49,0.54,0.79c0.13,0.3,0.2,0.63,0.2,0.98v0.02
				C196.56,57.01,196.49,57.34,196.36,57.64z M195.21,56.67c0-0.18-0.03-0.35-0.09-0.51c-0.06-0.16-0.15-0.3-0.26-0.42
				s-0.25-0.22-0.4-0.29c-0.16-0.07-0.33-0.11-0.51-0.11c-0.2,0-0.37,0.03-0.53,0.1s-0.28,0.16-0.39,0.28
				c-0.11,0.12-0.19,0.26-0.25,0.42c-0.06,0.16-0.09,0.33-0.09,0.51v0.02c0,0.18,0.03,0.35,0.09,0.51c0.06,0.16,0.15,0.3,0.26,0.42
				c0.11,0.12,0.25,0.22,0.4,0.29c0.15,0.07,0.33,0.11,0.52,0.11c0.2,0,0.37-0.03,0.53-0.1c0.15-0.07,0.28-0.16,0.39-0.28
				c0.11-0.12,0.19-0.26,0.25-0.42s0.09-0.33,0.09-0.51V56.67z"/>
			<path class="st1" d="M200.26,59.11h-1.24l-1.9-4.86h1.45l1.08,3.23l1.09-3.23h1.42L200.26,59.11z"/>
			<path class="st1" d="M207.44,56.96c0,0.05-0.01,0.1-0.01,0.17h-3.36c0.07,0.31,0.2,0.55,0.41,0.71c0.21,0.16,0.46,0.24,0.77,0.24
				c0.23,0,0.43-0.04,0.61-0.12c0.18-0.08,0.37-0.2,0.56-0.38l0.78,0.69c-0.23,0.28-0.5,0.5-0.83,0.66
				c-0.32,0.16-0.71,0.24-1.14,0.24c-0.36,0-0.69-0.06-1-0.18c-0.31-0.12-0.58-0.29-0.8-0.51c-0.22-0.22-0.4-0.48-0.53-0.79
				c-0.13-0.3-0.19-0.64-0.19-1.01v-0.02c0-0.34,0.06-0.67,0.18-0.97c0.12-0.31,0.28-0.57,0.49-0.8s0.46-0.41,0.75-0.54
				c0.29-0.13,0.61-0.2,0.97-0.2c0.4,0,0.75,0.07,1.04,0.22c0.29,0.14,0.54,0.34,0.73,0.58c0.2,0.24,0.34,0.52,0.43,0.84
				c0.09,0.31,0.14,0.64,0.14,0.99v0.02C207.45,56.86,207.45,56.92,207.44,56.96z M205.79,55.54c-0.17-0.19-0.41-0.28-0.69-0.28
				s-0.52,0.09-0.7,0.28s-0.29,0.44-0.35,0.75h2.06C206.07,55.97,205.96,55.73,205.79,55.54z"/>
			<path class="st1" d="M214.46,59.07v-2.68c0-0.32-0.07-0.57-0.21-0.73c-0.14-0.16-0.34-0.25-0.59-0.25
				c-0.26,0-0.46,0.08-0.61,0.25c-0.15,0.16-0.22,0.41-0.22,0.73v2.68h-1.37v-2.68c0-0.32-0.07-0.57-0.21-0.73
				c-0.14-0.16-0.34-0.25-0.59-0.25c-0.26,0-0.46,0.08-0.61,0.25c-0.15,0.16-0.22,0.41-0.22,0.73v2.68h-1.37v-4.82h1.37v0.69
				c0.08-0.1,0.16-0.2,0.26-0.29c0.09-0.09,0.2-0.18,0.31-0.25c0.11-0.07,0.24-0.13,0.38-0.17c0.14-0.04,0.3-0.06,0.47-0.06
				c0.32,0,0.59,0.07,0.82,0.2c0.23,0.13,0.41,0.32,0.54,0.57c0.21-0.25,0.44-0.45,0.7-0.58s0.55-0.19,0.88-0.19
				c0.51,0,0.91,0.15,1.2,0.45c0.29,0.3,0.43,0.74,0.43,1.32v3.14H214.46z"/>
			<path class="st1" d="M221.51,56.96c0,0.05-0.01,0.1-0.01,0.17h-3.36c0.07,0.31,0.2,0.55,0.41,0.71c0.21,0.16,0.46,0.24,0.77,0.24
				c0.23,0,0.43-0.04,0.61-0.12s0.37-0.2,0.56-0.38l0.78,0.69c-0.23,0.28-0.5,0.5-0.83,0.66c-0.32,0.16-0.71,0.24-1.14,0.24
				c-0.36,0-0.69-0.06-1-0.18c-0.31-0.12-0.58-0.29-0.8-0.51s-0.4-0.48-0.53-0.79c-0.13-0.3-0.19-0.64-0.19-1.01v-0.02
				c0-0.34,0.06-0.67,0.18-0.97s0.28-0.57,0.49-0.8s0.46-0.41,0.75-0.54c0.29-0.13,0.61-0.2,0.97-0.2c0.4,0,0.75,0.07,1.04,0.22
				c0.29,0.14,0.54,0.34,0.73,0.58c0.19,0.24,0.34,0.52,0.43,0.84c0.09,0.31,0.14,0.64,0.14,0.99v0.02
				C221.51,56.86,221.51,56.92,221.51,56.96z M219.86,55.54c-0.17-0.19-0.41-0.28-0.69-0.28c-0.29,0-0.52,0.09-0.7,0.28
				s-0.29,0.44-0.35,0.75h2.06C220.14,55.97,220.03,55.73,219.86,55.54z"/>
			<path class="st1" d="M225.58,59.07v-2.68c0-0.32-0.07-0.57-0.22-0.73c-0.14-0.16-0.35-0.25-0.61-0.25
				c-0.26,0-0.47,0.08-0.63,0.25c-0.15,0.16-0.23,0.41-0.23,0.73v2.68h-1.37v-4.82h1.37v0.69c0.08-0.1,0.16-0.2,0.26-0.29
				c0.09-0.09,0.2-0.18,0.31-0.25s0.24-0.13,0.38-0.17c0.14-0.04,0.29-0.06,0.47-0.06c0.52,0,0.93,0.16,1.21,0.48
				c0.28,0.32,0.43,0.76,0.43,1.31v3.12H225.58z"/>
			<path class="st1" d="M230.37,59.07c-0.17,0.05-0.38,0.08-0.6,0.08c-0.21,0-0.4-0.02-0.57-0.07c-0.17-0.05-0.32-0.12-0.44-0.24
				c-0.12-0.11-0.22-0.26-0.29-0.45c-0.07-0.18-0.1-0.42-0.1-0.7v-2.29h-0.58v-1.17h0.58v-1.23h1.37v1.23h1.13v1.17h-1.13v2.06
				c0,0.31,0.15,0.47,0.44,0.47c0.24,0,0.46-0.06,0.67-0.17v1.1C230.7,58.96,230.54,59.02,230.37,59.07z"/>
		</g>
	</g>
	<g>
		<rect x="91.74" y="65.31" class="st2" width="174.55" height="22.68"/>
		<g>
			<path class="st1" d="M112.52,74.84c0.06,0.16,0.17,0.3,0.33,0.43c0.16,0.13,0.38,0.25,0.65,0.35s0.64,0.21,1.07,0.3
				c0.88,0.21,1.53,0.49,1.95,0.85c0.42,0.36,0.63,0.86,0.63,1.5c0,0.36-0.07,0.68-0.2,0.97c-0.13,0.29-0.32,0.54-0.55,0.74
				s-0.52,0.36-0.85,0.47s-0.69,0.17-1.08,0.17c-0.63,0-1.21-0.11-1.73-0.32s-1.02-0.54-1.49-0.99l0.55-0.68
				c0.41,0.39,0.83,0.69,1.25,0.88c0.42,0.19,0.91,0.29,1.46,0.29c0.53,0,0.96-0.13,1.28-0.39c0.32-0.26,0.48-0.6,0.48-1.03
				c0-0.2-0.03-0.37-0.09-0.53c-0.06-0.15-0.17-0.29-0.32-0.42c-0.15-0.13-0.36-0.24-0.63-0.34s-0.61-0.2-1.02-0.3
				c-0.45-0.1-0.85-0.22-1.18-0.35c-0.33-0.13-0.61-0.3-0.83-0.48c-0.22-0.19-0.38-0.41-0.49-0.66c-0.11-0.25-0.16-0.55-0.16-0.9
				c0-0.33,0.06-0.63,0.19-0.91c0.13-0.28,0.31-0.51,0.54-0.72c0.23-0.2,0.51-0.36,0.82-0.47c0.32-0.11,0.66-0.17,1.04-0.17
				c0.58,0,1.08,0.08,1.52,0.25s0.85,0.42,1.26,0.75l-0.52,0.72c-0.37-0.31-0.74-0.54-1.11-0.68s-0.76-0.21-1.17-0.21
				c-0.26,0-0.49,0.04-0.69,0.11c-0.21,0.07-0.38,0.17-0.53,0.28c-0.15,0.12-0.26,0.26-0.34,0.43c-0.08,0.17-0.12,0.34-0.12,0.53
				C112.43,74.51,112.46,74.68,112.52,74.84z"/>
			<path class="st1" d="M119.93,78.78c0,0.38,0.09,0.64,0.27,0.79c0.18,0.15,0.42,0.22,0.71,0.22c0.15,0,0.29-0.02,0.42-0.05
				c0.13-0.03,0.27-0.09,0.42-0.17v0.78c-0.15,0.09-0.31,0.15-0.48,0.19c-0.17,0.04-0.36,0.06-0.57,0.06
				c-0.23,0-0.45-0.03-0.65-0.09c-0.2-0.06-0.38-0.16-0.52-0.3s-0.26-0.32-0.34-0.54s-0.12-0.48-0.12-0.79v-3.68h-0.81v-0.8h0.81
				v-1.84h0.87v1.84h1.85v0.8h-1.85V78.78z"/>
			<path class="st1" d="M127.45,74.41h0.86v6.1h-0.86v-1.06c-0.2,0.33-0.45,0.61-0.77,0.84c-0.32,0.23-0.73,0.35-1.23,0.35
				c-0.35,0-0.67-0.06-0.94-0.18c-0.27-0.12-0.51-0.28-0.7-0.5s-0.34-0.47-0.44-0.77c-0.1-0.3-0.15-0.63-0.15-0.99v-3.79h0.87v3.56
				c0,0.57,0.14,1.01,0.42,1.34c0.28,0.33,0.68,0.5,1.2,0.5c0.25,0,0.48-0.04,0.69-0.14c0.21-0.09,0.4-0.22,0.55-0.39
				c0.15-0.17,0.28-0.37,0.37-0.61c0.09-0.24,0.14-0.5,0.14-0.78V74.41z"/>
			<path class="st1" d="M134.94,80.51v-1.23c-0.12,0.18-0.25,0.35-0.4,0.52s-0.31,0.31-0.49,0.44c-0.18,0.13-0.38,0.22-0.6,0.29
				c-0.22,0.07-0.47,0.11-0.74,0.11c-0.35,0-0.7-0.07-1.03-0.21s-0.63-0.35-0.89-0.62c-0.26-0.27-0.47-0.6-0.63-1
				c-0.16-0.39-0.24-0.84-0.24-1.35c0-0.5,0.08-0.95,0.24-1.34c0.16-0.39,0.37-0.73,0.63-1c0.26-0.27,0.56-0.48,0.89-0.63
				c0.33-0.15,0.67-0.22,1.03-0.22c0.27,0,0.52,0.04,0.75,0.11c0.23,0.07,0.43,0.17,0.61,0.28c0.18,0.12,0.34,0.25,0.49,0.41
				c0.15,0.16,0.28,0.32,0.39,0.5V71.9h0.87v8.61H134.94z M134.8,76.5c-0.12-0.29-0.27-0.54-0.47-0.74s-0.42-0.36-0.68-0.48
				s-0.51-0.17-0.78-0.17c-0.29,0-0.55,0.05-0.8,0.16s-0.46,0.26-0.65,0.46s-0.33,0.45-0.44,0.74c-0.11,0.29-0.16,0.62-0.16,0.99
				c0,0.36,0.05,0.69,0.16,0.97c0.11,0.29,0.26,0.54,0.45,0.75c0.19,0.21,0.41,0.37,0.65,0.48c0.25,0.11,0.51,0.16,0.79,0.16
				c0.27,0,0.53-0.06,0.78-0.17c0.25-0.11,0.48-0.27,0.68-0.48c0.2-0.2,0.36-0.45,0.47-0.75c0.12-0.29,0.17-0.62,0.17-0.97
				C134.97,77.11,134.91,76.79,134.8,76.5z"/>
			<path class="st1" d="M138.5,78.68c0.12,0.26,0.27,0.47,0.46,0.65c0.19,0.18,0.4,0.31,0.63,0.4c0.23,0.09,0.48,0.14,0.73,0.14
				c0.41,0,0.75-0.08,1.04-0.24c0.29-0.16,0.55-0.37,0.79-0.63l0.54,0.51c-0.29,0.35-0.63,0.62-1,0.83
				c-0.38,0.21-0.84,0.31-1.4,0.31c-0.4,0-0.77-0.08-1.13-0.23s-0.66-0.37-0.93-0.65s-0.48-0.62-0.63-1.01
				c-0.16-0.39-0.23-0.83-0.23-1.3c0-0.44,0.07-0.86,0.21-1.24c0.14-0.39,0.33-0.73,0.58-1.02c0.25-0.29,0.54-0.51,0.89-0.68
				c0.34-0.17,0.72-0.25,1.12-0.25c0.43,0,0.81,0.08,1.15,0.25c0.34,0.17,0.62,0.4,0.86,0.69c0.23,0.29,0.41,0.63,0.53,1.03
				s0.18,0.81,0.18,1.26c0,0.04,0,0.08,0,0.13c0,0.05,0,0.1-0.01,0.15h-4.61C138.31,78.13,138.38,78.42,138.5,78.68z M142.01,77.13
				c-0.02-0.28-0.08-0.54-0.16-0.79c-0.09-0.25-0.21-0.47-0.36-0.66c-0.15-0.19-0.34-0.34-0.56-0.46c-0.22-0.11-0.48-0.17-0.77-0.17
				c-0.25,0-0.49,0.05-0.71,0.16c-0.22,0.11-0.41,0.25-0.57,0.44c-0.16,0.19-0.3,0.4-0.4,0.66c-0.11,0.25-0.17,0.53-0.2,0.83H142.01
				z"/>
			<path class="st1" d="M145.29,80.51h-0.87v-6.1h0.87v1.06c0.2-0.33,0.45-0.61,0.77-0.84c0.32-0.23,0.73-0.35,1.23-0.35
				c0.35,0,0.67,0.06,0.94,0.18s0.51,0.29,0.7,0.5c0.19,0.22,0.34,0.47,0.44,0.77c0.1,0.3,0.15,0.63,0.15,0.99v3.79h-0.87v-3.56
				c0-0.57-0.14-1.02-0.42-1.35s-0.68-0.5-1.2-0.5c-0.25,0-0.48,0.04-0.69,0.14c-0.21,0.09-0.4,0.22-0.56,0.39
				c-0.16,0.17-0.28,0.37-0.37,0.61c-0.09,0.24-0.13,0.5-0.13,0.78V80.51z"/>
			<path class="st1" d="M152.54,78.78c0,0.38,0.09,0.64,0.27,0.79c0.18,0.15,0.42,0.22,0.71,0.22c0.15,0,0.29-0.02,0.42-0.05
				c0.13-0.03,0.27-0.09,0.42-0.17v0.78c-0.15,0.09-0.31,0.15-0.48,0.19c-0.17,0.04-0.36,0.06-0.57,0.06
				c-0.23,0-0.45-0.03-0.65-0.09c-0.2-0.06-0.38-0.16-0.52-0.3s-0.26-0.32-0.34-0.54s-0.12-0.48-0.12-0.79v-3.68h-0.81v-0.8h0.81
				v-1.84h0.87v1.84h1.85v0.8h-1.85V78.78z"/>
			<path class="st1" d="M164.8,78.69c-0.15,0.39-0.37,0.73-0.64,1.02s-0.59,0.52-0.97,0.69s-0.78,0.25-1.22,0.25
				c-0.44,0-0.84-0.08-1.21-0.25s-0.69-0.4-0.96-0.68c-0.27-0.29-0.48-0.62-0.63-1.01s-0.23-0.79-0.23-1.23s0.08-0.84,0.23-1.23
				c0.15-0.39,0.36-0.73,0.63-1.02c0.27-0.29,0.59-0.52,0.96-0.69c0.37-0.17,0.78-0.25,1.22-0.25c0.44,0,0.84,0.08,1.21,0.25
				c0.37,0.17,0.69,0.4,0.96,0.68c0.27,0.29,0.48,0.62,0.63,1.01c0.15,0.38,0.23,0.79,0.23,1.23S164.95,78.3,164.8,78.69z
				 M163.97,76.55c-0.11-0.29-0.26-0.54-0.46-0.76s-0.42-0.39-0.69-0.51c-0.26-0.12-0.55-0.19-0.86-0.19
				c-0.32,0-0.61,0.06-0.87,0.18c-0.26,0.12-0.49,0.29-0.67,0.51c-0.18,0.22-0.33,0.47-0.43,0.75c-0.11,0.29-0.16,0.59-0.16,0.92
				c0,0.33,0.05,0.64,0.16,0.93c0.11,0.29,0.26,0.54,0.45,0.75c0.19,0.21,0.42,0.38,0.68,0.51c0.26,0.13,0.55,0.19,0.86,0.19
				c0.32,0,0.61-0.06,0.87-0.18c0.26-0.12,0.49-0.29,0.68-0.5s0.33-0.46,0.44-0.75c0.1-0.29,0.16-0.59,0.16-0.92
				C164.14,77.15,164.08,76.84,163.97,76.55z"/>
			<path class="st1" d="M170.74,74.41h0.86v6.1h-0.86v-1.06c-0.2,0.33-0.45,0.61-0.77,0.84c-0.32,0.23-0.73,0.35-1.23,0.35
				c-0.35,0-0.67-0.06-0.94-0.18c-0.27-0.12-0.51-0.28-0.7-0.5s-0.34-0.47-0.44-0.77c-0.1-0.3-0.15-0.63-0.15-0.99v-3.79h0.87v3.56
				c0,0.57,0.14,1.01,0.42,1.34c0.28,0.33,0.68,0.5,1.2,0.5c0.25,0,0.48-0.04,0.69-0.14c0.21-0.09,0.4-0.22,0.55-0.39
				c0.15-0.17,0.28-0.37,0.37-0.61c0.09-0.24,0.14-0.5,0.14-0.78V74.41z"/>
			<path class="st1" d="M174.72,78.78c0,0.38,0.09,0.64,0.27,0.79c0.18,0.15,0.42,0.22,0.71,0.22c0.15,0,0.29-0.02,0.42-0.05
				c0.13-0.03,0.27-0.09,0.42-0.17v0.78c-0.15,0.09-0.31,0.15-0.48,0.19c-0.17,0.04-0.36,0.06-0.57,0.06
				c-0.23,0-0.45-0.03-0.65-0.09c-0.2-0.06-0.38-0.16-0.52-0.3s-0.26-0.32-0.34-0.54s-0.12-0.48-0.12-0.79v-3.68h-0.81v-0.8h0.81
				v-1.84h0.87v1.84h1.85v0.8h-1.85V78.78z"/>
			<path class="st1" d="M181.94,80.32c-0.37,0.22-0.83,0.33-1.38,0.33c-0.43,0-0.83-0.08-1.19-0.25c-0.37-0.17-0.68-0.4-0.95-0.68
				c-0.27-0.29-0.48-0.62-0.63-1.01s-0.23-0.79-0.23-1.23s0.08-0.84,0.23-1.23c0.15-0.39,0.36-0.73,0.63-1.02
				c0.27-0.29,0.58-0.52,0.95-0.69c0.36-0.17,0.76-0.25,1.19-0.25c0.28,0,0.53,0.03,0.76,0.08c0.23,0.06,0.43,0.13,0.62,0.23
				s0.36,0.21,0.52,0.35c0.16,0.13,0.3,0.28,0.44,0.42l-0.58,0.64c-0.23-0.25-0.49-0.47-0.76-0.65c-0.27-0.18-0.61-0.27-1.01-0.27
				c-0.29,0-0.57,0.06-0.82,0.18c-0.26,0.12-0.48,0.29-0.67,0.51s-0.33,0.47-0.44,0.75c-0.11,0.29-0.16,0.59-0.16,0.92
				c0,0.33,0.05,0.64,0.16,0.93c0.11,0.29,0.26,0.54,0.45,0.76c0.19,0.22,0.42,0.38,0.68,0.51c0.26,0.12,0.54,0.18,0.85,0.18
				c0.38,0,0.71-0.09,1-0.26c0.29-0.17,0.55-0.39,0.78-0.65l0.55,0.54C182.65,79.81,182.31,80.1,181.94,80.32z"/>
			<path class="st1" d="M189.69,78.69c-0.15,0.39-0.37,0.73-0.64,1.02s-0.59,0.52-0.97,0.69s-0.78,0.25-1.22,0.25
				c-0.44,0-0.84-0.08-1.21-0.25s-0.69-0.4-0.96-0.68c-0.27-0.29-0.48-0.62-0.63-1.01s-0.23-0.79-0.23-1.23s0.08-0.84,0.23-1.23
				c0.15-0.39,0.36-0.73,0.63-1.02c0.27-0.29,0.59-0.52,0.96-0.69c0.37-0.17,0.78-0.25,1.22-0.25c0.44,0,0.84,0.08,1.21,0.25
				c0.37,0.17,0.69,0.4,0.96,0.68c0.27,0.29,0.48,0.62,0.63,1.01c0.15,0.38,0.23,0.79,0.23,1.23S189.84,78.3,189.69,78.69z
				 M188.87,76.55c-0.11-0.29-0.26-0.54-0.46-0.76s-0.42-0.39-0.69-0.51c-0.26-0.12-0.55-0.19-0.86-0.19
				c-0.32,0-0.61,0.06-0.87,0.18c-0.26,0.12-0.49,0.29-0.67,0.51c-0.18,0.22-0.33,0.47-0.43,0.75c-0.11,0.29-0.16,0.59-0.16,0.92
				c0,0.33,0.05,0.64,0.16,0.93c0.11,0.29,0.26,0.54,0.45,0.75c0.19,0.21,0.42,0.38,0.68,0.51c0.26,0.13,0.55,0.19,0.86,0.19
				c0.32,0,0.61-0.06,0.87-0.18c0.26-0.12,0.49-0.29,0.68-0.5s0.33-0.46,0.44-0.75c0.1-0.29,0.16-0.59,0.16-0.92
				C189.03,77.15,188.97,76.84,188.87,76.55z"/>
			<path class="st1" d="M196.47,75.03c0.13-0.15,0.28-0.28,0.45-0.39c0.17-0.11,0.35-0.2,0.56-0.26c0.21-0.06,0.44-0.09,0.69-0.09
				c0.68,0,1.21,0.22,1.59,0.65c0.38,0.44,0.58,1.04,0.58,1.8v3.78h-0.87v-3.56c0-0.59-0.13-1.04-0.4-1.36
				c-0.27-0.32-0.64-0.48-1.11-0.48c-0.22,0-0.42,0.04-0.62,0.12c-0.2,0.08-0.37,0.2-0.51,0.37s-0.26,0.36-0.35,0.6
				c-0.09,0.24-0.13,0.5-0.13,0.8v3.52h-0.86v-3.59c0-0.57-0.13-1.02-0.4-1.34c-0.27-0.32-0.63-0.48-1.1-0.48
				c-0.23,0-0.45,0.05-0.64,0.14c-0.2,0.09-0.37,0.23-0.51,0.4c-0.15,0.17-0.26,0.38-0.34,0.61c-0.08,0.23-0.12,0.49-0.12,0.77v3.48
				h-0.87v-6.1h0.87v1.03c0.1-0.15,0.21-0.29,0.32-0.44c0.12-0.14,0.25-0.27,0.4-0.37c0.15-0.11,0.32-0.19,0.51-0.25
				c0.19-0.06,0.41-0.09,0.65-0.09c0.47,0,0.86,0.12,1.17,0.35c0.31,0.23,0.54,0.52,0.7,0.87
				C196.22,75.33,196.33,75.18,196.47,75.03z"/>
			<path class="st1" d="M202.97,78.68c0.12,0.26,0.27,0.47,0.46,0.65c0.19,0.18,0.4,0.31,0.63,0.4c0.23,0.09,0.48,0.14,0.73,0.14
				c0.41,0,0.75-0.08,1.04-0.24c0.29-0.16,0.55-0.37,0.79-0.63l0.54,0.51c-0.29,0.35-0.63,0.62-1,0.83
				c-0.38,0.21-0.84,0.31-1.4,0.31c-0.4,0-0.77-0.08-1.13-0.23s-0.66-0.37-0.93-0.65s-0.48-0.62-0.63-1.01
				c-0.16-0.39-0.23-0.83-0.23-1.3c0-0.44,0.07-0.86,0.21-1.24c0.14-0.39,0.33-0.73,0.58-1.02c0.25-0.29,0.54-0.51,0.89-0.68
				c0.34-0.17,0.72-0.25,1.12-0.25c0.43,0,0.81,0.08,1.15,0.25c0.34,0.17,0.62,0.4,0.86,0.69c0.23,0.29,0.41,0.63,0.53,1.03
				s0.18,0.81,0.18,1.26c0,0.04,0,0.08,0,0.13c0,0.05,0,0.1-0.01,0.15h-4.61C202.77,78.13,202.85,78.42,202.97,78.68z M206.48,77.13
				c-0.02-0.28-0.08-0.54-0.16-0.79c-0.09-0.25-0.21-0.47-0.36-0.66c-0.15-0.19-0.34-0.34-0.56-0.46c-0.22-0.11-0.48-0.17-0.77-0.17
				c-0.25,0-0.49,0.05-0.71,0.16c-0.22,0.11-0.41,0.25-0.57,0.44c-0.16,0.19-0.3,0.4-0.4,0.66c-0.11,0.25-0.17,0.53-0.2,0.83H206.48
				z"/>
			<path class="st1" d="M212.73,79.58c-0.11,0.22-0.26,0.42-0.44,0.57s-0.4,0.28-0.65,0.36c-0.25,0.08-0.52,0.12-0.82,0.12
				c-0.42,0-0.85-0.08-1.27-0.24s-0.81-0.38-1.14-0.66l0.44-0.65c0.32,0.25,0.64,0.44,0.99,0.58c0.34,0.13,0.69,0.2,1.03,0.2
				c0.35,0,0.64-0.09,0.87-0.26c0.23-0.17,0.34-0.41,0.34-0.71v-0.02c0-0.15-0.04-0.28-0.12-0.39c-0.08-0.11-0.19-0.21-0.32-0.29
				c-0.14-0.08-0.29-0.16-0.47-0.22c-0.18-0.06-0.36-0.12-0.55-0.18c-0.23-0.07-0.45-0.15-0.68-0.23c-0.23-0.08-0.44-0.19-0.62-0.31
				c-0.18-0.13-0.33-0.28-0.45-0.47c-0.12-0.19-0.17-0.42-0.17-0.71v-0.02c0-0.26,0.05-0.5,0.15-0.71c0.1-0.22,0.24-0.4,0.41-0.55
				s0.39-0.27,0.63-0.35c0.24-0.08,0.51-0.12,0.79-0.12c0.36,0,0.73,0.06,1.09,0.18s0.7,0.29,1,0.49l-0.39,0.68
				c-0.27-0.18-0.55-0.33-0.85-0.43c-0.3-0.11-0.59-0.16-0.87-0.16c-0.35,0-0.62,0.08-0.82,0.25c-0.2,0.17-0.3,0.38-0.3,0.63v0.02
				c0,0.14,0.04,0.27,0.12,0.37c0.08,0.11,0.19,0.2,0.33,0.28c0.14,0.08,0.3,0.15,0.48,0.21c0.18,0.06,0.37,0.13,0.56,0.19
				c0.23,0.07,0.45,0.15,0.67,0.24s0.42,0.2,0.6,0.33s0.33,0.29,0.43,0.48c0.11,0.19,0.16,0.42,0.16,0.7v0.02
				C212.89,79.09,212.84,79.35,212.73,79.58z"/>
			<path class="st1" d="M214.46,75.65v-1.24h1.04v1.24H214.46z M214.46,80.51v-1.24h1.04v1.24H214.46z"/>
			<path class="st1" d="M226.47,80.27c-0.56,0.26-1.2,0.38-1.92,0.38c-0.62,0-1.18-0.11-1.69-0.32c-0.51-0.21-0.94-0.51-1.31-0.89
				c-0.37-0.38-0.65-0.83-0.85-1.34c-0.2-0.52-0.3-1.09-0.3-1.7v-0.02c0-0.59,0.1-1.14,0.31-1.66c0.21-0.52,0.49-0.97,0.86-1.36
				c0.37-0.39,0.8-0.7,1.31-0.92c0.5-0.22,1.06-0.34,1.66-0.34c0.35,0,0.67,0.03,0.96,0.08c0.29,0.05,0.56,0.12,0.81,0.22
				c0.25,0.09,0.48,0.21,0.7,0.35c0.22,0.14,0.43,0.3,0.63,0.48l-1.09,1.38c-0.15-0.13-0.3-0.25-0.45-0.35s-0.31-0.19-0.47-0.26
				c-0.16-0.07-0.34-0.13-0.52-0.17c-0.19-0.04-0.39-0.06-0.62-0.06c-0.32,0-0.61,0.07-0.89,0.21c-0.27,0.14-0.51,0.32-0.72,0.56
				c-0.21,0.23-0.37,0.5-0.49,0.82c-0.12,0.31-0.17,0.64-0.17,1v0.02c0,0.38,0.06,0.73,0.17,1.05c0.12,0.32,0.28,0.6,0.5,0.83
				c0.21,0.24,0.47,0.42,0.75,0.55c0.29,0.13,0.61,0.2,0.96,0.2c0.65,0,1.19-0.17,1.63-0.5v-1.19h-1.75v-1.57h3.43v3.59
				C227.51,79.71,227.03,80.02,226.47,80.27z"/>
			<path class="st1" d="M235.4,78.64c-0.17,0.4-0.39,0.75-0.69,1.04s-0.64,0.54-1.04,0.71s-0.83,0.26-1.31,0.26
				c-0.47,0-0.9-0.08-1.3-0.25c-0.4-0.17-0.74-0.4-1.03-0.7c-0.29-0.29-0.52-0.64-0.68-1.04s-0.25-0.82-0.25-1.28v-0.02
				c0-0.46,0.08-0.88,0.25-1.28c0.17-0.4,0.39-0.75,0.69-1.04c0.29-0.3,0.64-0.54,1.04-0.71s0.83-0.26,1.31-0.26
				c0.47,0,0.9,0.08,1.3,0.25s0.74,0.4,1.03,0.7c0.29,0.29,0.52,0.64,0.68,1.04c0.17,0.4,0.25,0.82,0.25,1.28v0.02
				C235.65,77.82,235.57,78.25,235.4,78.64z M233.96,77.36c0-0.24-0.04-0.46-0.11-0.67c-0.08-0.21-0.18-0.39-0.33-0.55
				c-0.14-0.16-0.31-0.29-0.51-0.38c-0.2-0.09-0.41-0.14-0.64-0.14c-0.25,0-0.47,0.05-0.66,0.14c-0.19,0.09-0.36,0.21-0.49,0.37
				c-0.14,0.16-0.24,0.34-0.31,0.55c-0.07,0.21-0.11,0.43-0.11,0.67v0.02c0,0.24,0.04,0.46,0.11,0.67c0.08,0.21,0.18,0.39,0.33,0.55
				c0.14,0.16,0.31,0.29,0.5,0.38c0.19,0.09,0.41,0.14,0.65,0.14c0.25,0,0.47-0.04,0.66-0.14c0.19-0.09,0.36-0.21,0.49-0.37
				c0.13-0.16,0.24-0.34,0.31-0.55c0.07-0.21,0.11-0.43,0.11-0.67V77.36z"/>
			<path class="st1" d="M236.97,80.51V71.9h1.71v8.61H236.97z"/>
			<path class="st1" d="M244.66,80.51v-0.9c-0.21,0.3-0.46,0.54-0.76,0.73s-0.67,0.29-1.12,0.29c-0.35,0-0.7-0.07-1.03-0.21
				s-0.62-0.35-0.88-0.63s-0.46-0.62-0.61-1.03c-0.15-0.4-0.23-0.87-0.23-1.4v-0.02c0-0.53,0.08-0.99,0.23-1.4
				c0.15-0.41,0.36-0.75,0.61-1.03c0.25-0.28,0.54-0.49,0.87-0.63c0.33-0.14,0.68-0.21,1.04-0.21c0.46,0,0.84,0.09,1.13,0.28
				s0.55,0.41,0.75,0.66V71.9h1.71v8.61H244.66z M244.69,77.34c0-0.26-0.04-0.5-0.12-0.72c-0.08-0.22-0.18-0.4-0.32-0.56
				s-0.29-0.27-0.46-0.36s-0.37-0.12-0.57-0.12c-0.2,0-0.39,0.04-0.57,0.12s-0.33,0.2-0.47,0.36s-0.24,0.34-0.32,0.55
				s-0.12,0.46-0.12,0.72v0.02c0,0.26,0.04,0.5,0.12,0.72s0.19,0.4,0.32,0.56c0.14,0.16,0.29,0.27,0.47,0.36s0.37,0.12,0.57,0.12
				c0.2,0,0.39-0.04,0.57-0.12s0.33-0.2,0.46-0.36c0.13-0.15,0.24-0.34,0.32-0.56c0.08-0.22,0.12-0.46,0.12-0.72V77.34z"/>
		</g>
	</g>
	<g>
		<g>
			<rect x="3.44" y="3.57" class="st1" width="84.42" height="84.42"/>
			<linearGradient id="SVGID_1_" gradientUnits="userSpaceOnUse" x1="92.4654" y1="6.7868" x2="35.2818" y2="105.8318">
				<stop  offset="0" style="stop-color:#172852"/>
				<stop  offset="0.0271" style="stop-color:#182D56"/>
				<stop  offset="0.069" style="stop-color:#1C3A63"/>
				<stop  offset="0.1203" style="stop-color:#23507A"/>
				<stop  offset="0.1787" style="stop-color:#2C709F"/>
				<stop  offset="0.2365" style="stop-color:#2E9ED9"/>
				<stop  offset="0.3735" style="stop-color:#265984"/>
				<stop  offset="0.4709" style="stop-color:#1B365E"/>
				<stop  offset="0.5175" style="stop-color:#172852"/>
				<stop  offset="0.5493" style="stop-color:#182C55"/>
				<stop  offset="0.5943" style="stop-color:#1B3860"/>
				<stop  offset="0.6471" style="stop-color:#224A73"/>
				<stop  offset="0.7059" style="stop-color:#2A6592"/>
				<stop  offset="0.769" style="stop-color:#2F8DC1"/>
				<stop  offset="0.7882" style="stop-color:#2E9ED9"/>
				<stop  offset="0.798" style="stop-color:#2F92C8"/>
				<stop  offset="0.8495" style="stop-color:#2B6895"/>
				<stop  offset="0.8971" style="stop-color:#224C75"/>
				<stop  offset="0.9396" style="stop-color:#1B3861"/>
				<stop  offset="0.9754" style="stop-color:#182C55"/>
				<stop  offset="1" style="stop-color:#172852"/>
			</linearGradient>
			<polygon class="st3" points="87.61,87.71 3.89,87.71 87.61,3.98 			"/>
		</g>
		<g>
			<g>
				<path class="st4" d="M24.97,24.82v22.54h-6.22V24.82h-8.6v-5.74h23.43v5.74H24.97z"/>
				<path class="st4" d="M36.04,47.36V19.08h21.28v5.53H42.18v5.74h13.33v5.53H42.18v5.94h15.35v5.53H36.04z"/>
				<path class="st4" d="M65.85,24.7v6.1h13.49v5.61H65.85v10.95h-6.22V19.08h21.53v5.61H65.85z"/>
			</g>
			<g>
				<path class="st4" d="M17.22,55.29c-0.79,0.56-1.58,1.39-2.35,2.47l-1.6-1.16c0.44-0.64,0.89-1.22,1.35-1.74
					c0.46-0.51,0.96-0.94,1.51-1.29c0.54-0.35,1.15-0.61,1.82-0.79c0.67-0.18,1.43-0.27,2.28-0.27c0.88,0,1.69,0.14,2.42,0.41
					c0.73,0.28,1.36,0.66,1.89,1.15c0.53,0.49,0.95,1.07,1.24,1.74c0.29,0.67,0.44,1.41,0.44,2.2c0,0.72-0.1,1.37-0.29,1.96
					c-0.19,0.59-0.49,1.18-0.9,1.76c-0.41,0.58-0.91,1.18-1.52,1.8c-0.61,0.62-1.34,1.3-2.18,2.03l-5.17,4.59h10.26v1.99H12.9v-1.69
					l7.02-6.2c0.74-0.66,1.36-1.26,1.88-1.8c0.52-0.54,0.94-1.04,1.26-1.51c0.32-0.47,0.55-0.93,0.69-1.38
					c0.14-0.45,0.21-0.92,0.21-1.4c0-0.57-0.11-1.08-0.32-1.54c-0.21-0.45-0.49-0.84-0.84-1.16c-0.35-0.32-0.77-0.57-1.24-0.75
					c-0.48-0.18-0.98-0.26-1.49-0.26C18.96,54.45,18.01,54.73,17.22,55.29z"/>
				<path class="st4" d="M45.03,66.31c-0.39,1.22-0.94,2.28-1.65,3.19c-0.71,0.91-1.57,1.64-2.59,2.17c-1.01,0.53-2.14,0.8-3.37,0.8
					c-1.25,0-2.38-0.26-3.39-0.79c-1-0.53-1.86-1.24-2.57-2.16c-0.71-0.91-1.25-1.97-1.63-3.18c-0.38-1.21-0.57-2.49-0.57-3.86
					c0-1.36,0.19-2.65,0.58-3.87c0.39-1.22,0.94-2.28,1.65-3.19c0.71-0.91,1.57-1.64,2.59-2.17c1.01-0.53,2.15-0.8,3.4-0.8
					c1.23,0,2.35,0.26,3.36,0.79c1,0.53,1.86,1.24,2.57,2.16c0.71,0.91,1.25,1.97,1.63,3.18c0.38,1.21,0.57,2.49,0.57,3.86
					C45.61,63.8,45.42,65.09,45.03,66.31z M42.93,59.44c-0.28-0.97-0.67-1.82-1.19-2.56c-0.52-0.74-1.14-1.33-1.87-1.77
					c-0.73-0.44-1.54-0.66-2.45-0.66c-0.9,0-1.72,0.22-2.45,0.65c-0.73,0.43-1.35,1.01-1.85,1.74c-0.51,0.73-0.9,1.58-1.18,2.54
					c-0.28,0.97-0.41,1.99-0.41,3.06c0,1.07,0.14,2.09,0.41,3.07c0.28,0.98,0.67,1.83,1.19,2.57c0.52,0.74,1.14,1.32,1.88,1.76
					c0.74,0.43,1.56,0.65,2.46,0.65c0.9,0,1.72-0.22,2.45-0.65c0.73-0.43,1.35-1.01,1.85-1.74c0.51-0.73,0.89-1.58,1.16-2.54
					c0.27-0.97,0.4-1.99,0.4-3.06C43.35,61.42,43.21,60.41,42.93,59.44z"/>
				<path class="st4" d="M52.11,55.29c-0.79,0.56-1.58,1.39-2.35,2.47l-1.6-1.16c0.44-0.64,0.89-1.22,1.35-1.74
					c0.46-0.51,0.96-0.94,1.51-1.29c0.54-0.35,1.15-0.61,1.82-0.79c0.67-0.18,1.43-0.27,2.28-0.27c0.88,0,1.69,0.14,2.42,0.41
					c0.73,0.28,1.36,0.66,1.89,1.15c0.53,0.49,0.95,1.07,1.24,1.74c0.3,0.67,0.44,1.41,0.44,2.2c0,0.72-0.1,1.37-0.29,1.96
					c-0.19,0.59-0.49,1.18-0.9,1.76c-0.41,0.58-0.91,1.18-1.52,1.8c-0.61,0.62-1.34,1.3-2.18,2.03l-5.17,4.59h10.26v1.99H47.8v-1.69
					l7.02-6.2c0.74-0.66,1.36-1.26,1.88-1.8c0.52-0.54,0.94-1.04,1.26-1.51c0.32-0.47,0.55-0.93,0.69-1.38
					c0.14-0.45,0.21-0.92,0.21-1.4c0-0.57-0.11-1.08-0.32-1.54c-0.21-0.45-0.49-0.84-0.84-1.16c-0.35-0.32-0.77-0.57-1.24-0.75
					c-0.48-0.18-0.98-0.26-1.49-0.26C53.85,54.45,52.9,54.73,52.11,55.29z"/>
				<path class="st4" d="M65.77,54.72v-1.94h12.34v1.6l-6.06,6.75c0.85,0.07,1.66,0.23,2.43,0.47c0.77,0.24,1.45,0.58,2.03,1.02
					c0.58,0.44,1.04,1,1.38,1.66c0.35,0.66,0.52,1.44,0.52,2.32c0,0.87-0.17,1.66-0.51,2.38c-0.34,0.72-0.79,1.34-1.37,1.85
					c-0.58,0.52-1.26,0.92-2.04,1.2c-0.78,0.29-1.63,0.43-2.53,0.43c-1.62,0-3.03-0.32-4.23-0.95c-1.2-0.64-2.19-1.47-2.99-2.5
					l1.58-1.41c0.76,0.92,1.59,1.63,2.5,2.13c0.91,0.5,1.97,0.75,3.17,0.75c0.59,0,1.14-0.09,1.66-0.26
					c0.52-0.17,0.96-0.43,1.34-0.76c0.38-0.33,0.68-0.73,0.9-1.2c0.22-0.47,0.33-0.99,0.33-1.56c0-1.22-0.5-2.15-1.51-2.79
					c-1.01-0.65-2.31-0.97-3.91-0.97h-1.24l-0.44-1.3l6.11-6.91H65.77z"/>
			</g>
		</g>
	</g>
</g>
</svg>
