<?xml version="1.0" encoding="utf-8"?>
<!-- Generator: Adobe Illustrator 27.0.0, SVG Export Plug-In . SVG Version: 6.00 Build 0)  -->
<svg version="1.1" id="Layer_1" xmlns="http://www.w3.org/2000/svg" xmlns:xlink="http://www.w3.org/1999/xlink" x="0px" y="0px"
	 viewBox="0 0 269.29 113.39" style="enable-background:new 0 0 269.29 113.39;" xml:space="preserve">
<style type="text/css">
	.st0{fill:#9D85BE;}
	.st1{fill:#001F4E;}
	.st2{fill:#FCB53B;}
	.st3{fill:url(#SVGID_1_);stroke:#172852;stroke-width:0.5038;stroke-miterlimit:10;}
	.st4{fill:#FFFFFF;}
</style>
<g>
	<rect x="91.58" y="3.57" class="st0" width="174.55" height="32.91"/>
	<g>
		<path class="st1" d="M162.6,14.59c-0.24,0.61-0.58,1.15-1.02,1.62c-0.44,0.47-0.97,0.84-1.58,1.11c-0.62,0.28-1.3,0.41-2.04,0.41
			c-0.75,0-1.43-0.14-2.04-0.41c-0.61-0.27-1.14-0.64-1.58-1.1c-0.44-0.46-0.78-1-1.01-1.61c-0.24-0.61-0.36-1.26-0.36-1.94
			c0-0.68,0.12-1.33,0.36-1.94c0.24-0.61,0.58-1.15,1.02-1.62s0.97-0.84,1.58-1.11c0.62-0.27,1.3-0.41,2.04-0.41
			c0.75,0,1.43,0.14,2.04,0.41c0.61,0.27,1.14,0.64,1.58,1.1s0.78,1,1.01,1.61c0.24,0.61,0.36,1.26,0.36,1.94
			C162.97,13.33,162.85,13.98,162.6,14.59z M161.53,11.09c-0.19-0.49-0.46-0.92-0.81-1.29c-0.34-0.36-0.75-0.65-1.22-0.87
			c-0.47-0.21-0.99-0.32-1.55-0.32c-0.56,0-1.08,0.1-1.55,0.31c-0.47,0.21-0.88,0.5-1.21,0.86c-0.34,0.36-0.6,0.79-0.79,1.28
			c-0.19,0.49-0.29,1.01-0.29,1.57s0.1,1.09,0.29,1.58c0.19,0.49,0.46,0.92,0.8,1.29c0.34,0.36,0.75,0.65,1.22,0.87
			c0.47,0.21,0.99,0.32,1.55,0.32c0.56,0,1.08-0.1,1.55-0.31c0.47-0.21,0.88-0.5,1.21-0.86c0.34-0.36,0.6-0.79,0.79-1.28
			c0.19-0.49,0.29-1.02,0.29-1.58C161.82,12.12,161.72,11.59,161.53,11.09z"/>
		<path class="st1" d="M170.83,10.32H172l-3.15,7.29h-0.95l-3.14-7.29h1.19l2.44,6.01L170.83,10.32z"/>
		<path class="st1" d="M174.56,15.39c0.15,0.3,0.34,0.56,0.57,0.77c0.23,0.21,0.49,0.37,0.78,0.48c0.29,0.11,0.59,0.16,0.91,0.16
			c0.5,0,0.94-0.09,1.29-0.28c0.36-0.19,0.69-0.43,0.99-0.74l0.67,0.6c-0.36,0.41-0.78,0.74-1.25,0.99
			c-0.47,0.25-1.05,0.37-1.74,0.37c-0.5,0-0.96-0.09-1.4-0.27s-0.82-0.44-1.15-0.77c-0.33-0.33-0.59-0.73-0.78-1.2
			c-0.19-0.47-0.29-0.98-0.29-1.54c0-0.52,0.09-1.02,0.26-1.48s0.41-0.86,0.72-1.2c0.31-0.34,0.67-0.61,1.1-0.81
			c0.42-0.2,0.89-0.29,1.39-0.29c0.53,0,1.01,0.1,1.43,0.3c0.42,0.2,0.78,0.47,1.06,0.82s0.51,0.75,0.66,1.22
			c0.15,0.47,0.22,0.97,0.22,1.5c0,0.05,0,0.1,0,0.15c0,0.06,0,0.12-0.01,0.18h-5.73C174.32,14.73,174.41,15.08,174.56,15.39z
			 M178.91,13.54c-0.03-0.33-0.1-0.64-0.2-0.94c-0.11-0.3-0.25-0.56-0.45-0.78c-0.19-0.22-0.42-0.4-0.7-0.54
			c-0.27-0.14-0.59-0.2-0.95-0.2c-0.32,0-0.61,0.06-0.88,0.19c-0.27,0.13-0.51,0.3-0.71,0.52s-0.37,0.48-0.5,0.78
			c-0.13,0.3-0.21,0.63-0.25,0.98H178.91z"/>
		<path class="st1" d="M183.34,17.56h-1.08v-7.24h1.08v1.89c0.13-0.3,0.29-0.57,0.49-0.83c0.2-0.25,0.42-0.47,0.67-0.65
			c0.25-0.18,0.53-0.32,0.83-0.41s0.62-0.14,0.97-0.13v1.16h-0.08c-0.39,0-0.76,0.07-1.11,0.21c-0.35,0.14-0.66,0.35-0.92,0.63
			c-0.26,0.28-0.47,0.63-0.62,1.04c-0.15,0.42-0.22,0.89-0.22,1.44V17.56z"/>
		<path class="st1" d="M189.03,11.33c-0.35,0.1-0.69,0.23-1.03,0.38l-0.32-0.88c0.4-0.19,0.81-0.33,1.22-0.44
			c0.41-0.11,0.88-0.16,1.41-0.16c0.99,0,1.75,0.25,2.28,0.73c0.53,0.49,0.8,1.22,0.8,2.18v4.42h-1.04v-1.09
			c-0.25,0.33-0.59,0.62-1.02,0.87s-0.96,0.38-1.6,0.38c-0.34,0-0.67-0.05-0.99-0.14s-0.61-0.24-0.87-0.43
			c-0.26-0.19-0.46-0.43-0.62-0.71c-0.15-0.28-0.23-0.61-0.23-0.99s0.07-0.72,0.22-1.02s0.36-0.54,0.64-0.73
			c0.27-0.2,0.6-0.35,0.98-0.45c0.38-0.1,0.8-0.15,1.25-0.15c0.47,0,0.87,0.03,1.22,0.08c0.34,0.06,0.68,0.13,1.01,0.22v-0.25
			c0-0.65-0.19-1.15-0.57-1.48c-0.38-0.33-0.91-0.5-1.59-0.5C189.77,11.18,189.38,11.23,189.03,11.33z M188.68,14.3
			c-0.36,0.27-0.54,0.64-0.54,1.11c0,0.23,0.05,0.44,0.15,0.62c0.1,0.18,0.23,0.33,0.4,0.46c0.17,0.13,0.36,0.22,0.58,0.29
			s0.45,0.1,0.69,0.1c0.33,0,0.65-0.05,0.94-0.15c0.29-0.1,0.55-0.23,0.77-0.41c0.22-0.17,0.39-0.38,0.52-0.62
			c0.13-0.24,0.19-0.5,0.19-0.79v-0.7c-0.27-0.07-0.58-0.14-0.93-0.21s-0.75-0.1-1.19-0.1C189.57,13.89,189.04,14.03,188.68,14.3z"
			/>
		<path class="st1" d="M195.78,17.56V7.34h1.08v10.22H195.78z"/>
		<path class="st1" d="M199.46,17.56V7.34h1.08v10.22H199.46z"/>
		<path class="st1" d="M202.99,11.79v-1.47h1.29v1.47H202.99z M202.99,17.56v-1.47h1.29v1.47H202.99z"/>
		<path class="st1" d="M103.47,31.56l-2.1-3.14h-1.69v3.14h-2.16v-9.8H102c1.17,0,2.07,0.28,2.72,0.85s0.97,1.36,0.97,2.38v0.03
			c0,0.79-0.19,1.44-0.58,1.94c-0.39,0.5-0.89,0.87-1.52,1.1l2.39,3.5H103.47z M103.52,25.11c0-0.47-0.15-0.82-0.45-1.05
			c-0.3-0.23-0.71-0.35-1.25-0.35h-2.14v2.81h2.18c0.53,0,0.94-0.13,1.23-0.38c0.28-0.25,0.43-0.59,0.43-1.01V25.11z"/>
		<path class="st1" d="M114.42,28.29c0,0.07-0.01,0.16-0.02,0.27h-5.22c0.1,0.49,0.31,0.85,0.64,1.1c0.32,0.25,0.72,0.37,1.2,0.37
			c0.35,0,0.67-0.06,0.95-0.18c0.28-0.12,0.57-0.32,0.87-0.59l1.22,1.08c-0.35,0.44-0.78,0.78-1.29,1.03s-1.1,0.37-1.78,0.37
			c-0.56,0-1.08-0.09-1.56-0.28c-0.48-0.19-0.9-0.45-1.25-0.8c-0.35-0.35-0.62-0.75-0.82-1.22c-0.2-0.47-0.29-1-0.29-1.58v-0.03
			c0-0.53,0.09-1.04,0.27-1.51c0.18-0.48,0.44-0.89,0.76-1.25c0.33-0.35,0.72-0.63,1.17-0.84c0.45-0.21,0.95-0.31,1.5-0.31
			c0.63,0,1.17,0.11,1.62,0.34s0.84,0.52,1.14,0.9c0.3,0.38,0.53,0.81,0.67,1.3c0.14,0.49,0.22,1,0.22,1.53v0.03
			C114.42,28.12,114.42,28.21,114.42,28.29z M111.85,26.07c-0.27-0.29-0.63-0.44-1.08-0.44c-0.45,0-0.81,0.15-1.08,0.43
			c-0.28,0.29-0.46,0.68-0.54,1.16h3.21C112.29,26.75,112.12,26.36,111.85,26.07z"/>
		<path class="st1" d="M121.42,33.8v-3.31c-0.26,0.35-0.58,0.64-0.95,0.87c-0.37,0.23-0.83,0.34-1.39,0.34
			c-0.44,0-0.86-0.08-1.27-0.25s-0.77-0.42-1.09-0.75c-0.32-0.33-0.57-0.74-0.76-1.22c-0.19-0.48-0.29-1.03-0.29-1.66V27.8
			c0-0.62,0.1-1.18,0.29-1.66c0.19-0.48,0.44-0.89,0.76-1.22c0.31-0.33,0.67-0.58,1.08-0.75c0.41-0.17,0.84-0.25,1.29-0.25
			c0.57,0,1.04,0.11,1.41,0.33s0.68,0.48,0.93,0.78v-0.97h2.13v9.74H121.42z M121.45,27.8c0-0.31-0.05-0.59-0.15-0.85
			s-0.23-0.48-0.39-0.66c-0.16-0.18-0.35-0.32-0.57-0.42c-0.22-0.1-0.46-0.15-0.71-0.15s-0.49,0.05-0.71,0.15
			c-0.22,0.1-0.41,0.24-0.58,0.42c-0.17,0.18-0.3,0.4-0.4,0.66c-0.1,0.25-0.15,0.54-0.15,0.86v0.03c0,0.31,0.05,0.59,0.15,0.85
			c0.1,0.26,0.23,0.48,0.4,0.66c0.17,0.18,0.36,0.32,0.58,0.42c0.22,0.1,0.46,0.15,0.71,0.15s0.49-0.05,0.71-0.15
			c0.22-0.1,0.41-0.24,0.57-0.42c0.16-0.18,0.29-0.4,0.39-0.66s0.15-0.54,0.15-0.85V27.8z"/>
		<path class="st1" d="M130.14,31.56v-1.07c-0.12,0.16-0.25,0.31-0.4,0.46c-0.15,0.15-0.31,0.27-0.48,0.39s-0.37,0.2-0.59,0.27
			c-0.21,0.07-0.46,0.1-0.73,0.1c-0.81,0-1.44-0.25-1.88-0.74s-0.67-1.18-0.67-2.04v-4.86h2.13v4.18c0,0.5,0.11,0.88,0.34,1.14
			c0.22,0.26,0.54,0.38,0.95,0.38s0.73-0.13,0.97-0.38c0.24-0.26,0.36-0.64,0.36-1.14v-4.18h2.13v7.5H130.14z"/>
		<path class="st1" d="M134.22,23.23v-1.89h2.24v1.89H134.22z M134.27,31.56v-7.5h2.13v7.5H134.27z"/>
		<path class="st1" d="M142.81,26.14c-0.71,0-1.27,0.21-1.67,0.64s-0.61,1.1-0.61,2v2.77h-2.13v-7.5h2.13v1.51
			c0.21-0.51,0.51-0.92,0.88-1.23s0.88-0.45,1.51-0.42v2.23H142.81z"/>
		<path class="st1" d="M151.25,28.29c0,0.07-0.01,0.16-0.02,0.27h-5.22c0.1,0.49,0.31,0.85,0.64,1.1c0.32,0.25,0.72,0.37,1.2,0.37
			c0.35,0,0.67-0.06,0.95-0.18c0.28-0.12,0.57-0.32,0.87-0.59l1.22,1.08c-0.36,0.44-0.78,0.78-1.29,1.03s-1.1,0.37-1.78,0.37
			c-0.56,0-1.08-0.09-1.56-0.28c-0.48-0.19-0.9-0.45-1.25-0.8c-0.35-0.35-0.62-0.75-0.82-1.22s-0.29-1-0.29-1.58v-0.03
			c0-0.53,0.09-1.04,0.27-1.51c0.18-0.48,0.44-0.89,0.76-1.25c0.33-0.35,0.72-0.63,1.17-0.84c0.45-0.21,0.95-0.31,1.5-0.31
			c0.62,0,1.17,0.11,1.62,0.34c0.46,0.22,0.84,0.52,1.14,0.9c0.3,0.38,0.53,0.81,0.67,1.3c0.14,0.49,0.22,1,0.22,1.53v0.03
			C151.26,28.12,151.25,28.21,151.25,28.29z M148.68,26.07c-0.27-0.29-0.63-0.44-1.08-0.44s-0.81,0.15-1.08,0.43
			c-0.28,0.29-0.46,0.68-0.54,1.16h3.21C149.12,26.75,148.95,26.36,148.68,26.07z"/>
		<path class="st1" d="M158.12,30.37c-0.14,0.3-0.35,0.55-0.61,0.75c-0.26,0.2-0.57,0.34-0.92,0.44c-0.35,0.1-0.73,0.15-1.13,0.15
			c-0.53,0-1.08-0.09-1.63-0.27c-0.56-0.18-1.08-0.47-1.59-0.86l0.91-1.4c0.41,0.3,0.82,0.52,1.23,0.67
			c0.41,0.15,0.79,0.22,1.14,0.22c0.31,0,0.53-0.05,0.68-0.15s0.22-0.24,0.22-0.41v-0.03c0-0.11-0.04-0.21-0.13-0.29
			s-0.2-0.16-0.34-0.22c-0.14-0.06-0.31-0.12-0.5-0.17c-0.19-0.06-0.38-0.12-0.59-0.18c-0.26-0.07-0.52-0.17-0.79-0.27
			c-0.27-0.11-0.51-0.25-0.72-0.42s-0.39-0.39-0.53-0.64c-0.13-0.25-0.2-0.56-0.2-0.92v-0.03c0-0.38,0.07-0.72,0.22-1.02
			c0.14-0.29,0.34-0.54,0.59-0.75c0.25-0.21,0.54-0.36,0.87-0.46c0.33-0.1,0.69-0.15,1.07-0.15c0.48,0,0.96,0.08,1.45,0.23
			c0.49,0.15,0.94,0.37,1.35,0.64l-0.81,1.47c-0.37-0.21-0.74-0.39-1.09-0.51s-0.67-0.19-0.94-0.19c-0.26,0-0.46,0.05-0.59,0.15
			s-0.2,0.22-0.2,0.37v0.03c0,0.1,0.04,0.19,0.13,0.27c0.08,0.08,0.2,0.15,0.34,0.22c0.14,0.07,0.3,0.14,0.48,0.2
			c0.18,0.07,0.38,0.13,0.58,0.2c0.26,0.08,0.53,0.18,0.8,0.3s0.51,0.26,0.73,0.43s0.39,0.37,0.53,0.62
			c0.14,0.24,0.21,0.54,0.21,0.88v0.03C158.34,29.7,158.27,30.06,158.12,30.37z"/>
		<path class="st1" d="M164.11,23.23v-1.89h2.24v1.89H164.11z M164.16,31.56v-7.5h2.13v7.5H164.16z"/>
		<path class="st1" d="M177.62,31.56v-4.18c0-0.5-0.11-0.88-0.32-1.14s-0.52-0.38-0.92-0.38s-0.72,0.13-0.95,0.38
			s-0.34,0.64-0.34,1.14v4.18h-2.13v-4.18c0-0.5-0.11-0.88-0.32-1.14s-0.52-0.38-0.92-0.38s-0.72,0.13-0.95,0.38
			s-0.34,0.64-0.34,1.14v4.18h-2.13v-7.5h2.13v1.07c0.12-0.16,0.25-0.31,0.4-0.46c0.14-0.15,0.31-0.27,0.48-0.39
			c0.18-0.11,0.38-0.2,0.6-0.27c0.22-0.07,0.46-0.1,0.73-0.1c0.5,0,0.92,0.1,1.28,0.31c0.36,0.21,0.64,0.5,0.83,0.89
			c0.33-0.4,0.69-0.69,1.09-0.9s0.86-0.3,1.37-0.3c0.79,0,1.41,0.23,1.86,0.7s0.67,1.15,0.67,2.06v4.89H177.62z"/>
		<path class="st1" d="M189.19,29.48c-0.19,0.48-0.44,0.89-0.76,1.22c-0.31,0.33-0.67,0.58-1.08,0.75
			c-0.41,0.17-0.84,0.25-1.29,0.25c-0.57,0-1.04-0.11-1.41-0.33c-0.37-0.22-0.68-0.48-0.93-0.78v3.21h-2.13v-9.74h2.13v1.07
			c0.26-0.35,0.58-0.64,0.95-0.87c0.37-0.23,0.83-0.34,1.39-0.34c0.44,0,0.86,0.08,1.27,0.25c0.41,0.17,0.77,0.42,1.09,0.75
			c0.32,0.33,0.57,0.74,0.76,1.22c0.19,0.48,0.29,1.03,0.29,1.66v0.03C189.48,28.45,189.38,29,189.19,29.48z M187.35,27.8
			c0-0.31-0.05-0.59-0.15-0.85c-0.1-0.26-0.23-0.48-0.4-0.66c-0.17-0.18-0.36-0.32-0.58-0.42s-0.46-0.15-0.71-0.15
			s-0.49,0.05-0.71,0.15c-0.22,0.1-0.41,0.24-0.57,0.42c-0.16,0.18-0.29,0.4-0.39,0.66s-0.15,0.54-0.15,0.85v0.03
			c0,0.31,0.05,0.59,0.15,0.85s0.23,0.48,0.39,0.66c0.16,0.18,0.36,0.32,0.57,0.42c0.22,0.1,0.46,0.15,0.71,0.15
			s0.49-0.05,0.71-0.15s0.41-0.24,0.58-0.42c0.17-0.18,0.3-0.4,0.4-0.66c0.1-0.25,0.15-0.54,0.15-0.86V27.8z"/>
		<path class="st1" d="M195.45,26.14c-0.71,0-1.27,0.21-1.67,0.64c-0.41,0.43-0.61,1.1-0.61,2v2.77h-2.13v-7.5h2.13v1.51
			c0.21-0.51,0.51-0.92,0.88-1.23c0.37-0.31,0.88-0.45,1.51-0.42v2.23H195.45z"/>
		<path class="st1" d="M204.69,29.34c-0.21,0.47-0.49,0.88-0.85,1.24c-0.36,0.35-0.79,0.63-1.29,0.84c-0.5,0.21-1.04,0.31-1.62,0.31
			c-0.58,0-1.12-0.1-1.61-0.3c-0.49-0.2-0.92-0.48-1.28-0.83c-0.36-0.35-0.64-0.76-0.85-1.23s-0.31-0.98-0.31-1.52v-0.03
			c0-0.54,0.1-1.05,0.31-1.52s0.49-0.88,0.85-1.24c0.36-0.35,0.79-0.63,1.29-0.84c0.49-0.21,1.04-0.31,1.62-0.31
			c0.58,0,1.12,0.1,1.61,0.3c0.5,0.2,0.92,0.48,1.28,0.83s0.64,0.76,0.85,1.23c0.21,0.47,0.31,0.98,0.31,1.52v0.03
			C205,28.37,204.9,28.87,204.69,29.34z M202.9,27.82c0-0.28-0.05-0.54-0.14-0.79c-0.09-0.25-0.23-0.47-0.41-0.66
			c-0.18-0.19-0.39-0.34-0.63-0.46c-0.24-0.11-0.51-0.17-0.8-0.17c-0.31,0-0.58,0.05-0.82,0.16c-0.24,0.11-0.44,0.25-0.61,0.44
			c-0.17,0.19-0.3,0.4-0.39,0.65c-0.09,0.25-0.13,0.51-0.13,0.79v0.03c0,0.28,0.05,0.54,0.14,0.79c0.09,0.25,0.23,0.47,0.41,0.66
			c0.18,0.19,0.39,0.34,0.62,0.46c0.24,0.11,0.51,0.17,0.81,0.17c0.31,0,0.58-0.05,0.82-0.16c0.24-0.11,0.44-0.25,0.61-0.44
			c0.17-0.19,0.3-0.4,0.38-0.65c0.09-0.25,0.13-0.51,0.13-0.79V27.82z"/>
		<path class="st1" d="M211.11,31.62h-1.93l-2.95-7.56h2.25l1.68,5.03l1.69-5.03h2.21L211.11,31.62z"/>
		<path class="st1" d="M222.63,28.29c0,0.07-0.01,0.16-0.02,0.27h-5.22c0.1,0.49,0.31,0.85,0.64,1.1c0.32,0.25,0.72,0.37,1.2,0.37
			c0.35,0,0.67-0.06,0.95-0.18c0.28-0.12,0.57-0.32,0.87-0.59l1.22,1.08c-0.36,0.44-0.78,0.78-1.29,1.03s-1.1,0.37-1.78,0.37
			c-0.56,0-1.08-0.09-1.56-0.28c-0.48-0.19-0.9-0.45-1.25-0.8c-0.35-0.35-0.62-0.75-0.82-1.22s-0.29-1-0.29-1.58v-0.03
			c0-0.53,0.09-1.04,0.27-1.51c0.18-0.48,0.44-0.89,0.76-1.25c0.33-0.35,0.72-0.63,1.17-0.84c0.45-0.21,0.95-0.31,1.5-0.31
			c0.62,0,1.17,0.11,1.62,0.34c0.46,0.22,0.84,0.52,1.14,0.9c0.3,0.38,0.53,0.81,0.67,1.3c0.14,0.49,0.22,1,0.22,1.53v0.03
			C222.64,28.12,222.64,28.21,222.63,28.29z M220.07,26.07c-0.27-0.29-0.63-0.44-1.08-0.44s-0.81,0.15-1.08,0.43
			c-0.28,0.29-0.46,0.68-0.54,1.16h3.21C220.5,26.75,220.34,26.36,220.07,26.07z"/>
		<path class="st1" d="M233.9,31.56v-4.18c0-0.5-0.11-0.88-0.32-1.14s-0.52-0.38-0.92-0.38s-0.72,0.13-0.95,0.38
			s-0.34,0.64-0.34,1.14v4.18h-2.13v-4.18c0-0.5-0.11-0.88-0.32-1.14s-0.52-0.38-0.92-0.38s-0.72,0.13-0.95,0.38
			s-0.34,0.64-0.34,1.14v4.18h-2.13v-7.5h2.13v1.07c0.12-0.16,0.25-0.31,0.4-0.46c0.14-0.15,0.31-0.27,0.48-0.39
			c0.18-0.11,0.38-0.2,0.6-0.27c0.22-0.07,0.46-0.1,0.73-0.1c0.5,0,0.92,0.1,1.28,0.31c0.36,0.21,0.64,0.5,0.83,0.89
			c0.33-0.4,0.69-0.69,1.09-0.9s0.86-0.3,1.37-0.3c0.79,0,1.41,0.23,1.86,0.7s0.67,1.15,0.67,2.06v4.89H233.9z"/>
		<path class="st1" d="M245.22,28.29c0,0.07-0.01,0.16-0.02,0.27h-5.22c0.1,0.49,0.31,0.85,0.64,1.1c0.32,0.25,0.72,0.37,1.2,0.37
			c0.35,0,0.67-0.06,0.95-0.18c0.28-0.12,0.57-0.32,0.87-0.59l1.22,1.08c-0.36,0.44-0.78,0.78-1.29,1.03s-1.1,0.37-1.78,0.37
			c-0.56,0-1.08-0.09-1.56-0.28c-0.48-0.19-0.9-0.45-1.25-0.8c-0.35-0.35-0.62-0.75-0.82-1.22s-0.29-1-0.29-1.58v-0.03
			c0-0.53,0.09-1.04,0.27-1.51c0.18-0.48,0.44-0.89,0.76-1.25c0.33-0.35,0.72-0.63,1.17-0.84c0.45-0.21,0.95-0.31,1.5-0.31
			c0.62,0,1.17,0.11,1.62,0.34c0.46,0.22,0.84,0.52,1.14,0.9c0.3,0.38,0.53,0.81,0.67,1.3c0.14,0.49,0.22,1,0.22,1.53v0.03
			C245.22,28.12,245.22,28.21,245.22,28.29z M242.65,26.07c-0.27-0.29-0.63-0.44-1.08-0.44s-0.81,0.15-1.08,0.43
			c-0.28,0.29-0.46,0.68-0.54,1.16h3.21C243.09,26.75,242.92,26.36,242.65,26.07z"/>
		<path class="st1" d="M251.9,31.56v-4.18c0-0.5-0.11-0.88-0.34-1.14s-0.54-0.38-0.95-0.38s-0.74,0.13-0.97,0.38
			c-0.24,0.26-0.36,0.64-0.36,1.14v4.18h-2.13v-7.5h2.13v1.07c0.12-0.16,0.25-0.31,0.4-0.46c0.14-0.15,0.31-0.27,0.48-0.39
			c0.18-0.11,0.37-0.2,0.59-0.27c0.21-0.07,0.46-0.1,0.73-0.1c0.81,0,1.44,0.25,1.88,0.74s0.67,1.18,0.67,2.04v4.86H251.9z"/>
		<path class="st1" d="M259.7,31.57c-0.27,0.08-0.58,0.12-0.94,0.12c-0.33,0-0.62-0.04-0.89-0.1s-0.5-0.19-0.69-0.37
			c-0.19-0.18-0.34-0.41-0.45-0.69s-0.16-0.65-0.16-1.08v-3.56h-0.9v-1.82h0.9v-1.92h2.13v1.92h1.76v1.82h-1.76v3.21
			c0,0.49,0.23,0.73,0.69,0.73c0.37,0,0.72-0.09,1.05-0.27v1.71C260.22,31.39,259.97,31.49,259.7,31.57z"/>
	</g>
	<g>
		<path class="st1" d="M8.61,107.49H7.33V97.3H3.51v-1.19h8.92v1.19H8.61V107.49z"/>
		<path class="st1" d="M13.86,104.96c0.17,0.35,0.4,0.65,0.67,0.89s0.57,0.43,0.91,0.55c0.34,0.12,0.69,0.19,1.06,0.19
			c0.58,0,1.09-0.11,1.5-0.33s0.8-0.5,1.15-0.86l0.78,0.7c-0.42,0.48-0.91,0.86-1.45,1.15c-0.54,0.29-1.21,0.43-2.02,0.43
			c-0.57,0-1.12-0.11-1.62-0.32c-0.51-0.21-0.95-0.51-1.34-0.89c-0.38-0.38-0.69-0.85-0.91-1.39c-0.22-0.54-0.34-1.14-0.34-1.79
			c0-0.61,0.1-1.18,0.3-1.71c0.2-0.54,0.48-1,0.84-1.4s0.78-0.71,1.28-0.93c0.49-0.23,1.03-0.34,1.62-0.34
			c0.62,0,1.17,0.12,1.66,0.35c0.49,0.23,0.9,0.55,1.23,0.95c0.34,0.4,0.59,0.87,0.76,1.41c0.17,0.54,0.26,1.12,0.26,1.74
			c0,0.05,0,0.11,0,0.18c0,0.06-0.01,0.14-0.02,0.21h-6.65C13.58,104.21,13.69,104.61,13.86,104.96z M18.92,102.82
			c-0.03-0.38-0.11-0.74-0.23-1.09s-0.3-0.65-0.52-0.91s-0.49-0.47-0.81-0.63c-0.32-0.16-0.69-0.24-1.11-0.24
			c-0.37,0-0.71,0.07-1.02,0.22c-0.31,0.15-0.59,0.35-0.82,0.6c-0.24,0.25-0.43,0.56-0.58,0.9c-0.15,0.35-0.25,0.73-0.29,1.14H18.92
			z"/>
		<path class="st1" d="M24.27,100.25c-0.41,0.11-0.8,0.26-1.19,0.45l-0.37-1.02c0.46-0.22,0.94-0.39,1.41-0.51
			c0.48-0.12,1.02-0.19,1.64-0.19c1.15,0,2.03,0.28,2.65,0.85c0.62,0.57,0.93,1.41,0.93,2.53v5.13h-1.2v-1.27
			c-0.29,0.38-0.68,0.71-1.18,1.01s-1.11,0.44-1.86,0.44c-0.39,0-0.77-0.05-1.15-0.16c-0.37-0.11-0.71-0.27-1.01-0.5
			c-0.3-0.22-0.54-0.5-0.71-0.82s-0.27-0.71-0.27-1.15s0.09-0.84,0.26-1.18c0.17-0.34,0.42-0.62,0.74-0.85
			c0.32-0.23,0.7-0.4,1.14-0.52c0.44-0.12,0.92-0.18,1.46-0.18c0.54,0,1.01,0.03,1.41,0.1c0.4,0.06,0.79,0.15,1.17,0.26v-0.29
			c0-0.76-0.22-1.33-0.66-1.71c-0.44-0.38-1.05-0.58-1.84-0.58C25.13,100.08,24.68,100.13,24.27,100.25z M23.87,103.7
			c-0.42,0.31-0.63,0.74-0.63,1.28c0,0.27,0.06,0.51,0.17,0.71s0.27,0.38,0.46,0.53c0.19,0.15,0.42,0.26,0.67,0.33
			c0.25,0.08,0.52,0.11,0.8,0.11c0.39,0,0.75-0.06,1.09-0.17c0.34-0.11,0.64-0.27,0.89-0.47s0.45-0.44,0.6-0.71s0.22-0.58,0.22-0.92
			v-0.81c-0.31-0.09-0.67-0.17-1.08-0.24c-0.41-0.08-0.87-0.11-1.38-0.11C24.9,103.23,24.29,103.39,23.87,103.7z"/>
		<path class="st1" d="M37.97,107.22c-0.54,0.31-1.2,0.46-1.99,0.46c-0.62,0-1.19-0.12-1.71-0.35c-0.53-0.23-0.98-0.55-1.37-0.94
			s-0.69-0.86-0.9-1.39c-0.22-0.53-0.32-1.09-0.32-1.69s0.11-1.16,0.32-1.7c0.22-0.54,0.52-1,0.9-1.41c0.38-0.4,0.84-0.72,1.37-0.95
			c0.53-0.23,1.1-0.35,1.71-0.35c0.4,0,0.76,0.04,1.09,0.11s0.62,0.18,0.89,0.32c0.27,0.14,0.52,0.3,0.75,0.48
			c0.23,0.18,0.44,0.38,0.63,0.58l-0.83,0.88c-0.34-0.35-0.7-0.64-1.1-0.89s-0.88-0.37-1.45-0.37c-0.42,0-0.82,0.08-1.19,0.25
			c-0.37,0.17-0.69,0.4-0.96,0.7s-0.48,0.64-0.63,1.04s-0.23,0.82-0.23,1.27c0,0.45,0.08,0.88,0.24,1.28
			c0.16,0.4,0.37,0.75,0.65,1.04s0.6,0.53,0.97,0.7c0.37,0.17,0.78,0.25,1.23,0.25c0.54,0,1.02-0.12,1.44-0.36s0.79-0.54,1.13-0.89
			l0.8,0.75C38.99,106.52,38.51,106.91,37.97,107.22z"/>
		<path class="st1" d="M42.92,107.49h-1.25V95.63h1.25v4.92c0.28-0.46,0.65-0.84,1.11-1.16c0.46-0.32,1.04-0.48,1.77-0.48
			c0.51,0,0.96,0.08,1.36,0.24s0.73,0.39,1.01,0.69s0.49,0.65,0.63,1.06c0.15,0.41,0.22,0.87,0.22,1.37v5.22h-1.25v-4.91
			c0-0.78-0.2-1.4-0.6-1.85c-0.4-0.46-0.97-0.68-1.72-0.68c-0.36,0-0.69,0.06-1,0.19c-0.31,0.12-0.58,0.3-0.8,0.54
			c-0.23,0.23-0.4,0.51-0.53,0.84c-0.12,0.32-0.19,0.68-0.19,1.07V107.49z"/>
		<path class="st1" d="M51.9,97.25v-1.38h1.43v1.38H51.9z M51.98,107.49v-8.4h1.25v8.4H51.98z"/>
		<path class="st1" d="M57.59,107.49h-1.25v-8.4h1.25v1.46c0.28-0.46,0.65-0.84,1.11-1.16c0.46-0.32,1.04-0.48,1.77-0.48
			c0.51,0,0.96,0.08,1.36,0.24s0.73,0.39,1.01,0.69s0.49,0.65,0.63,1.06c0.15,0.41,0.22,0.87,0.22,1.37v5.22h-1.25v-4.91
			c0-0.78-0.2-1.4-0.6-1.85c-0.4-0.46-0.97-0.68-1.72-0.68c-0.36,0-0.69,0.06-1,0.19c-0.31,0.12-0.58,0.3-0.8,0.54
			c-0.23,0.23-0.4,0.51-0.53,0.84c-0.12,0.32-0.19,0.68-0.19,1.07V107.49z"/>
		<path class="st1" d="M74.24,107.81c-0.2,0.51-0.49,0.93-0.86,1.28c-0.37,0.34-0.82,0.6-1.35,0.77c-0.53,0.17-1.11,0.26-1.76,0.26
			c-0.71,0-1.38-0.1-2.02-0.29c-0.64-0.19-1.24-0.49-1.8-0.88l0.57-0.98c0.49,0.35,1,0.61,1.53,0.8c0.53,0.18,1.1,0.28,1.71,0.28
			c0.93,0,1.67-0.25,2.23-0.76c0.55-0.5,0.83-1.25,0.83-2.23v-0.99c-0.37,0.49-0.82,0.9-1.35,1.25s-1.18,0.52-1.95,0.52
			c-0.51,0-1-0.09-1.47-0.27c-0.47-0.18-0.89-0.44-1.26-0.78c-0.37-0.34-0.66-0.75-0.89-1.24c-0.22-0.49-0.33-1.04-0.33-1.66
			s0.11-1.17,0.33-1.67c0.22-0.49,0.52-0.91,0.89-1.25c0.37-0.34,0.79-0.6,1.27-0.79c0.48-0.18,0.96-0.28,1.46-0.28
			c0.39,0,0.75,0.05,1.08,0.14c0.33,0.09,0.63,0.21,0.89,0.37c0.27,0.15,0.51,0.33,0.72,0.54c0.22,0.21,0.41,0.42,0.58,0.65v-1.51
			h1.25v6.94C74.54,106.71,74.44,107.3,74.24,107.81z M73.08,101.69c-0.17-0.35-0.4-0.65-0.69-0.9s-0.62-0.44-0.98-0.58
			s-0.75-0.2-1.15-0.2c-0.4,0-0.78,0.06-1.13,0.2c-0.35,0.13-0.66,0.32-0.93,0.57s-0.47,0.55-0.63,0.9
			c-0.15,0.35-0.23,0.75-0.23,1.18s0.08,0.83,0.24,1.18c0.16,0.35,0.37,0.66,0.63,0.91c0.26,0.25,0.57,0.45,0.93,0.58
			c0.35,0.14,0.72,0.2,1.11,0.2c0.4,0,0.79-0.07,1.15-0.2c0.37-0.13,0.7-0.33,0.98-0.58c0.29-0.25,0.52-0.55,0.69-0.9
			c0.17-0.35,0.26-0.75,0.26-1.18C73.34,102.44,73.25,102.05,73.08,101.69z"/>
		<path class="st1" d="M91.03,97.28h-6.94v3.88h6.21v1.17h-6.21v3.98h7.02v1.17h-8.3V96.11h8.22V97.28z"/>
		<path class="st1" d="M100.98,107.49h-1.45l-2.6-3.43l-2.62,3.43h-1.4l3.3-4.27l-3.17-4.13h1.43l2.49,3.25l2.49-3.25h1.4l-3.18,4.1
			L100.98,107.49z"/>
		<path class="st1" d="M108.41,107.22c-0.54,0.31-1.2,0.46-1.99,0.46c-0.62,0-1.19-0.12-1.71-0.35c-0.53-0.23-0.98-0.55-1.37-0.94
			s-0.69-0.86-0.9-1.39c-0.22-0.53-0.32-1.09-0.32-1.69s0.11-1.16,0.32-1.7s0.52-1,0.9-1.41c0.38-0.4,0.84-0.72,1.37-0.95
			c0.53-0.23,1.1-0.35,1.71-0.35c0.4,0,0.76,0.04,1.09,0.11s0.62,0.18,0.89,0.32c0.27,0.14,0.52,0.3,0.75,0.48
			c0.23,0.18,0.44,0.38,0.63,0.58l-0.83,0.88c-0.34-0.35-0.7-0.64-1.1-0.89s-0.88-0.37-1.45-0.37c-0.42,0-0.82,0.08-1.19,0.25
			c-0.37,0.17-0.69,0.4-0.96,0.7s-0.48,0.64-0.63,1.04s-0.23,0.82-0.23,1.27c0,0.45,0.08,0.88,0.24,1.28
			c0.16,0.4,0.37,0.75,0.65,1.04s0.6,0.53,0.97,0.7c0.37,0.17,0.78,0.25,1.23,0.25c0.54,0,1.02-0.12,1.44-0.36s0.79-0.54,1.13-0.89
			l0.8,0.75C109.43,106.52,108.95,106.91,108.41,107.22z"/>
		<path class="st1" d="M112.95,104.96c0.17,0.35,0.4,0.65,0.67,0.89s0.57,0.43,0.91,0.55c0.34,0.12,0.69,0.19,1.06,0.19
			c0.58,0,1.09-0.11,1.5-0.33s0.8-0.5,1.15-0.86l0.78,0.7c-0.42,0.48-0.91,0.86-1.45,1.15c-0.54,0.29-1.21,0.43-2.02,0.43
			c-0.57,0-1.12-0.11-1.62-0.32c-0.51-0.21-0.95-0.51-1.34-0.89c-0.38-0.38-0.69-0.85-0.91-1.39c-0.22-0.54-0.34-1.14-0.34-1.79
			c0-0.61,0.1-1.18,0.3-1.71c0.2-0.54,0.48-1,0.84-1.4s0.78-0.71,1.28-0.93c0.49-0.23,1.03-0.34,1.62-0.34
			c0.62,0,1.17,0.12,1.66,0.35c0.49,0.23,0.9,0.55,1.23,0.95c0.34,0.4,0.59,0.87,0.76,1.41c0.17,0.54,0.26,1.12,0.26,1.74
			c0,0.05,0,0.11,0,0.18c0,0.06-0.01,0.14-0.02,0.21h-6.65C112.67,104.21,112.78,104.61,112.95,104.96z M118.01,102.82
			c-0.03-0.38-0.11-0.74-0.23-1.09s-0.3-0.65-0.52-0.91s-0.49-0.47-0.81-0.63c-0.32-0.16-0.69-0.24-1.11-0.24
			c-0.37,0-0.71,0.07-1.02,0.22c-0.31,0.15-0.59,0.35-0.82,0.6c-0.24,0.25-0.43,0.56-0.58,0.9c-0.15,0.35-0.25,0.73-0.29,1.14
			H118.01z"/>
		<path class="st1" d="M121.79,107.49V95.63h1.25v11.86H121.79z"/>
		<path class="st1" d="M126.26,107.49V95.63h1.25v11.86H126.26z"/>
		<path class="st1" d="M131.71,104.96c0.17,0.35,0.4,0.65,0.67,0.89s0.57,0.43,0.91,0.55c0.34,0.12,0.69,0.19,1.06,0.19
			c0.58,0,1.09-0.11,1.5-0.33s0.8-0.5,1.15-0.86l0.78,0.7c-0.42,0.48-0.91,0.86-1.45,1.15c-0.54,0.29-1.21,0.43-2.02,0.43
			c-0.57,0-1.12-0.11-1.62-0.32c-0.51-0.21-0.95-0.51-1.34-0.89c-0.38-0.38-0.69-0.85-0.91-1.39c-0.22-0.54-0.34-1.14-0.34-1.79
			c0-0.61,0.1-1.18,0.3-1.71c0.2-0.54,0.48-1,0.84-1.4s0.78-0.71,1.28-0.93c0.49-0.23,1.03-0.34,1.62-0.34
			c0.62,0,1.17,0.12,1.66,0.35c0.49,0.23,0.9,0.55,1.23,0.95c0.34,0.4,0.59,0.87,0.76,1.41c0.17,0.54,0.26,1.12,0.26,1.74
			c0,0.05,0,0.11,0,0.18c0,0.06-0.01,0.14-0.02,0.21h-6.65C131.42,104.21,131.53,104.61,131.71,104.96z M136.76,102.82
			c-0.03-0.38-0.11-0.74-0.23-1.09s-0.3-0.65-0.52-0.91s-0.49-0.47-0.81-0.63c-0.32-0.16-0.69-0.24-1.11-0.24
			c-0.37,0-0.71,0.07-1.02,0.22c-0.31,0.15-0.59,0.35-0.82,0.6c-0.24,0.25-0.43,0.56-0.58,0.9c-0.15,0.35-0.25,0.73-0.29,1.14
			H136.76z"/>
		<path class="st1" d="M141.68,107.49h-1.25v-8.4h1.25v1.46c0.28-0.46,0.65-0.84,1.11-1.16c0.46-0.32,1.04-0.48,1.77-0.48
			c0.51,0,0.96,0.08,1.36,0.24s0.73,0.39,1.01,0.69s0.49,0.65,0.63,1.06c0.15,0.41,0.22,0.87,0.22,1.37v5.22h-1.25v-4.91
			c0-0.78-0.2-1.4-0.6-1.85c-0.4-0.46-0.97-0.68-1.72-0.68c-0.36,0-0.69,0.06-1,0.19c-0.31,0.12-0.58,0.3-0.8,0.54
			c-0.23,0.23-0.4,0.51-0.53,0.84c-0.12,0.32-0.19,0.68-0.19,1.07V107.49z"/>
		<path class="st1" d="M156.41,107.22c-0.54,0.31-1.2,0.46-1.99,0.46c-0.62,0-1.19-0.12-1.71-0.35c-0.53-0.23-0.98-0.55-1.37-0.94
			s-0.69-0.86-0.9-1.39c-0.22-0.53-0.32-1.09-0.32-1.69s0.11-1.16,0.32-1.7s0.52-1,0.9-1.41c0.38-0.4,0.84-0.72,1.37-0.95
			c0.53-0.23,1.1-0.35,1.71-0.35c0.4,0,0.76,0.04,1.09,0.11s0.62,0.18,0.89,0.32c0.27,0.14,0.52,0.3,0.75,0.48
			c0.23,0.18,0.44,0.38,0.63,0.58l-0.83,0.88c-0.34-0.35-0.7-0.64-1.1-0.89s-0.88-0.37-1.45-0.37c-0.42,0-0.82,0.08-1.19,0.25
			c-0.37,0.17-0.69,0.4-0.96,0.7s-0.48,0.64-0.63,1.04s-0.23,0.82-0.23,1.27c0,0.45,0.08,0.88,0.24,1.28
			c0.16,0.4,0.37,0.75,0.65,1.04s0.6,0.53,0.97,0.7c0.37,0.17,0.78,0.25,1.23,0.25c0.54,0,1.02-0.12,1.44-0.36s0.79-0.54,1.13-0.89
			l0.8,0.75C157.43,106.52,156.95,106.91,156.41,107.22z"/>
		<path class="st1" d="M160.95,104.96c0.17,0.35,0.4,0.65,0.67,0.89s0.57,0.43,0.91,0.55c0.34,0.12,0.69,0.19,1.06,0.19
			c0.58,0,1.09-0.11,1.5-0.33s0.8-0.5,1.15-0.86l0.78,0.7c-0.42,0.48-0.91,0.86-1.45,1.15c-0.54,0.29-1.21,0.43-2.02,0.43
			c-0.57,0-1.12-0.11-1.62-0.32c-0.51-0.21-0.95-0.51-1.34-0.89c-0.38-0.38-0.69-0.85-0.91-1.39c-0.22-0.54-0.34-1.14-0.34-1.79
			c0-0.61,0.1-1.18,0.3-1.71c0.2-0.54,0.48-1,0.84-1.4s0.78-0.71,1.28-0.93c0.49-0.23,1.03-0.34,1.62-0.34
			c0.62,0,1.17,0.12,1.66,0.35c0.49,0.23,0.9,0.55,1.23,0.95c0.34,0.4,0.59,0.87,0.76,1.41c0.17,0.54,0.26,1.12,0.26,1.74
			c0,0.05,0,0.11,0,0.18c0,0.06-0.01,0.14-0.02,0.21h-6.65C160.67,104.21,160.78,104.61,160.95,104.96z M166.01,102.82
			c-0.03-0.38-0.11-0.74-0.23-1.09s-0.3-0.65-0.52-0.91s-0.49-0.47-0.81-0.63c-0.32-0.16-0.69-0.24-1.11-0.24
			c-0.37,0-0.71,0.07-1.02,0.22c-0.31,0.15-0.59,0.35-0.82,0.6c-0.24,0.25-0.43,0.56-0.58,0.9c-0.15,0.35-0.25,0.73-0.29,1.14
			H166.01z"/>
		<path class="st1" d="M183.14,97.3h-6.89v4.06h6.16v1.17h-6.16v4.96h-1.28V96.11h8.17V97.3z"/>
		<path class="st1" d="M186.86,107.49h-1.25v-8.4h1.25v2.19c0.15-0.35,0.34-0.67,0.57-0.96s0.49-0.54,0.78-0.76
			c0.29-0.21,0.61-0.37,0.96-0.48c0.35-0.11,0.72-0.16,1.12-0.15v1.35h-0.1c-0.46,0-0.89,0.08-1.29,0.24
			c-0.41,0.16-0.76,0.41-1.06,0.73c-0.3,0.33-0.54,0.73-0.71,1.21c-0.17,0.48-0.26,1.04-0.26,1.67V107.49z"/>
		<path class="st1" d="M193.66,100.25c-0.41,0.11-0.8,0.26-1.19,0.45l-0.37-1.02c0.46-0.22,0.94-0.39,1.41-0.51
			c0.48-0.12,1.02-0.19,1.64-0.19c1.15,0,2.03,0.28,2.65,0.85c0.62,0.57,0.93,1.41,0.93,2.53v5.13h-1.2v-1.27
			c-0.29,0.38-0.68,0.71-1.18,1.01s-1.11,0.44-1.86,0.44c-0.39,0-0.77-0.05-1.15-0.16c-0.37-0.11-0.71-0.27-1.01-0.5
			c-0.3-0.22-0.54-0.5-0.71-0.82s-0.27-0.71-0.27-1.15s0.09-0.84,0.26-1.18c0.17-0.34,0.42-0.62,0.74-0.85
			c0.32-0.23,0.7-0.4,1.14-0.52c0.44-0.12,0.92-0.18,1.46-0.18c0.54,0,1.01,0.03,1.41,0.1c0.4,0.06,0.79,0.15,1.17,0.26v-0.29
			c0-0.76-0.22-1.33-0.66-1.71c-0.44-0.38-1.05-0.58-1.84-0.58C194.52,100.08,194.06,100.13,193.66,100.25z M193.26,103.7
			c-0.42,0.31-0.63,0.74-0.63,1.28c0,0.27,0.06,0.51,0.17,0.71s0.27,0.38,0.46,0.53c0.19,0.15,0.42,0.26,0.67,0.33
			c0.25,0.08,0.52,0.11,0.8,0.11c0.39,0,0.75-0.06,1.09-0.17c0.34-0.11,0.64-0.27,0.89-0.47s0.45-0.44,0.6-0.71s0.22-0.58,0.22-0.92
			v-0.81c-0.31-0.09-0.67-0.17-1.08-0.24c-0.41-0.08-0.87-0.11-1.38-0.11C194.28,103.23,193.68,103.39,193.26,103.7z"/>
		<path class="st1" d="M208.75,99.93c0.19-0.21,0.4-0.38,0.64-0.54c0.24-0.15,0.51-0.27,0.8-0.36c0.3-0.09,0.63-0.13,1-0.13
			c0.97,0,1.74,0.3,2.29,0.9s0.83,1.43,0.83,2.48v5.2h-1.25v-4.91c0-0.81-0.19-1.44-0.58-1.88c-0.38-0.44-0.92-0.66-1.6-0.66
			c-0.31,0-0.61,0.06-0.89,0.17c-0.28,0.11-0.53,0.28-0.74,0.5c-0.21,0.22-0.38,0.5-0.5,0.82c-0.12,0.33-0.19,0.69-0.19,1.11v4.84
			h-1.23v-4.94c0-0.79-0.19-1.41-0.58-1.84s-0.91-0.66-1.58-0.66c-0.34,0-0.64,0.07-0.93,0.2c-0.28,0.13-0.53,0.31-0.74,0.55
			s-0.38,0.52-0.5,0.84c-0.12,0.32-0.18,0.67-0.18,1.06v4.79h-1.25v-8.4h1.25v1.41c0.14-0.21,0.29-0.41,0.46-0.6
			c0.17-0.19,0.36-0.37,0.58-0.51s0.46-0.26,0.73-0.35c0.27-0.09,0.58-0.13,0.94-0.13c0.68,0,1.25,0.16,1.69,0.48
			c0.44,0.32,0.78,0.72,1.01,1.19C208.39,100.35,208.56,100.14,208.75,99.93z"/>
		<path class="st1" d="M218.32,104.96c0.17,0.35,0.4,0.65,0.67,0.89s0.57,0.43,0.91,0.55c0.34,0.12,0.69,0.19,1.06,0.19
			c0.58,0,1.09-0.11,1.5-0.33s0.8-0.5,1.15-0.86l0.78,0.7c-0.42,0.48-0.91,0.86-1.45,1.15c-0.54,0.29-1.21,0.43-2.02,0.43
			c-0.57,0-1.12-0.11-1.62-0.32c-0.51-0.21-0.95-0.51-1.34-0.89c-0.38-0.38-0.69-0.85-0.91-1.39c-0.22-0.54-0.34-1.14-0.34-1.79
			c0-0.61,0.1-1.18,0.3-1.71c0.2-0.54,0.48-1,0.84-1.4s0.78-0.71,1.28-0.93c0.49-0.23,1.03-0.34,1.62-0.34
			c0.62,0,1.17,0.12,1.66,0.35c0.49,0.23,0.9,0.55,1.23,0.95c0.34,0.4,0.59,0.87,0.76,1.41c0.17,0.54,0.26,1.12,0.26,1.74
			c0,0.05,0,0.11,0,0.18c0,0.06-0.01,0.14-0.02,0.21h-6.65C218.03,104.21,218.14,104.61,218.32,104.96z M223.37,102.82
			c-0.03-0.38-0.11-0.74-0.23-1.09s-0.3-0.65-0.52-0.91s-0.49-0.47-0.81-0.63c-0.32-0.16-0.69-0.24-1.11-0.24
			c-0.37,0-0.71,0.07-1.02,0.22c-0.31,0.15-0.59,0.35-0.82,0.6c-0.24,0.25-0.43,0.56-0.58,0.9c-0.15,0.35-0.25,0.73-0.29,1.14
			H223.37z"/>
		<path class="st1" d="M235.04,105.83l2.21-6.74h1.3l-2.96,8.47h-1.09l-2.26-6.63l-2.28,6.63h-1.1l-2.94-8.47h1.33l2.21,6.74
			l2.26-6.78h1.04L235.04,105.83z"/>
		<path class="st1" d="M248.32,104.98c-0.22,0.54-0.53,1-0.92,1.41c-0.39,0.4-0.86,0.72-1.4,0.95c-0.54,0.23-1.13,0.35-1.75,0.35
			s-1.21-0.12-1.74-0.35c-0.53-0.23-0.99-0.55-1.38-0.94c-0.39-0.4-0.69-0.86-0.91-1.39c-0.22-0.53-0.32-1.09-0.32-1.69
			s0.11-1.16,0.32-1.7s0.52-1,0.91-1.41c0.39-0.4,0.85-0.72,1.39-0.95c0.54-0.23,1.12-0.35,1.76-0.35c0.63,0,1.21,0.12,1.75,0.35
			c0.54,0.23,1,0.55,1.39,0.94s0.69,0.86,0.91,1.39c0.22,0.53,0.33,1.09,0.33,1.69C248.66,103.88,248.54,104.44,248.32,104.98z
			 M247.14,102.02c-0.16-0.4-0.38-0.75-0.66-1.04c-0.28-0.3-0.61-0.53-0.99-0.71c-0.38-0.17-0.79-0.26-1.24-0.26
			c-0.46,0-0.87,0.08-1.25,0.25c-0.38,0.17-0.7,0.4-0.97,0.7c-0.27,0.3-0.47,0.64-0.63,1.04s-0.23,0.82-0.23,1.27
			c0,0.45,0.08,0.88,0.24,1.28c0.16,0.4,0.37,0.75,0.65,1.04s0.6,0.52,0.98,0.7c0.38,0.17,0.79,0.26,1.23,0.26
			c0.46,0,0.87-0.08,1.25-0.25c0.38-0.17,0.7-0.4,0.97-0.69c0.27-0.29,0.48-0.63,0.63-1.03c0.15-0.39,0.23-0.82,0.23-1.27
			C247.37,102.85,247.29,102.42,247.14,102.02z"/>
		<path class="st1" d="M252.36,107.49h-1.25v-8.4h1.25v2.19c0.15-0.35,0.34-0.67,0.57-0.96s0.49-0.54,0.78-0.76
			c0.29-0.21,0.61-0.37,0.96-0.48c0.35-0.11,0.72-0.16,1.12-0.15v1.35h-0.1c-0.46,0-0.89,0.08-1.29,0.24
			c-0.41,0.16-0.76,0.41-1.06,0.73c-0.3,0.33-0.54,0.73-0.71,1.21c-0.17,0.48-0.26,1.04-0.26,1.67V107.49z"/>
		<path class="st1" d="M265.34,107.49h-1.5l-3.01-3.92l-1.71,1.72v2.19h-1.25V95.63h1.25v8.19l4.53-4.73h1.56l-3.53,3.61
			L265.34,107.49z"/>
	</g>
	<g>
		<rect x="91.58" y="40.32" class="st2" width="174.55" height="21.68"/>
		<g>
			<path class="st1" d="M106.33,50.14c0.06,0.16,0.18,0.3,0.34,0.43c0.17,0.13,0.39,0.25,0.68,0.35s0.67,0.21,1.12,0.3
				c0.92,0.2,1.6,0.49,2.04,0.85c0.44,0.36,0.65,0.86,0.65,1.5c0,0.35-0.07,0.68-0.21,0.97c-0.14,0.29-0.33,0.54-0.58,0.74
				c-0.25,0.2-0.54,0.36-0.89,0.47c-0.35,0.11-0.72,0.17-1.13,0.17c-0.66,0-1.26-0.11-1.81-0.32c-0.55-0.21-1.07-0.54-1.56-0.99
				l0.58-0.68c0.43,0.39,0.87,0.69,1.31,0.88c0.44,0.19,0.95,0.29,1.52,0.29c0.56,0,1-0.13,1.34-0.39c0.33-0.26,0.5-0.6,0.5-1.03
				c0-0.2-0.03-0.37-0.09-0.53s-0.17-0.29-0.33-0.42c-0.16-0.13-0.38-0.24-0.66-0.34c-0.28-0.1-0.64-0.2-1.07-0.3
				c-0.47-0.1-0.89-0.22-1.24-0.35c-0.35-0.13-0.64-0.3-0.87-0.48s-0.4-0.41-0.51-0.66c-0.11-0.25-0.17-0.55-0.17-0.9
				c0-0.33,0.07-0.63,0.2-0.91c0.13-0.28,0.32-0.51,0.57-0.72c0.24-0.2,0.53-0.36,0.86-0.47c0.33-0.11,0.69-0.17,1.09-0.17
				c0.61,0,1.13,0.08,1.59,0.25c0.45,0.17,0.89,0.42,1.32,0.75l-0.54,0.72c-0.39-0.31-0.77-0.54-1.16-0.68
				c-0.39-0.14-0.8-0.21-1.22-0.21c-0.27,0-0.51,0.04-0.73,0.11c-0.22,0.07-0.4,0.17-0.55,0.28c-0.15,0.12-0.27,0.26-0.35,0.43
				c-0.08,0.17-0.12,0.34-0.12,0.53C106.24,49.8,106.27,49.98,106.33,50.14z"/>
			<path class="st1" d="M114.08,54.07c0,0.38,0.09,0.64,0.28,0.79c0.19,0.15,0.44,0.22,0.74,0.22c0.16,0,0.3-0.02,0.44-0.05
				c0.14-0.03,0.29-0.09,0.44-0.17v0.78c-0.16,0.09-0.32,0.15-0.5,0.19c-0.18,0.04-0.38,0.06-0.6,0.06c-0.24,0-0.47-0.03-0.68-0.09
				s-0.4-0.16-0.55-0.3s-0.27-0.32-0.36-0.54c-0.09-0.22-0.13-0.48-0.13-0.79v-3.68h-0.85v-0.8h0.85v-1.84h0.91v1.84h1.94v0.8h-1.94
				V54.07z"/>
			<path class="st1" d="M121.95,49.71h0.9v6.1h-0.9v-1.06c-0.2,0.33-0.47,0.61-0.8,0.84s-0.76,0.35-1.29,0.35
				c-0.37,0-0.7-0.06-0.99-0.18c-0.29-0.12-0.53-0.28-0.73-0.5c-0.2-0.22-0.35-0.47-0.46-0.77c-0.11-0.3-0.16-0.63-0.16-0.99v-3.79
				h0.91v3.56c0,0.57,0.15,1.02,0.44,1.35c0.29,0.33,0.71,0.5,1.25,0.5c0.26,0,0.5-0.04,0.73-0.14c0.22-0.09,0.42-0.22,0.58-0.39
				s0.29-0.37,0.38-0.61c0.09-0.24,0.14-0.5,0.14-0.78V49.71z"/>
			<path class="st1" d="M129.79,55.81v-1.23c-0.13,0.18-0.27,0.35-0.42,0.52c-0.15,0.17-0.32,0.31-0.51,0.44
				c-0.19,0.13-0.4,0.22-0.63,0.29s-0.49,0.11-0.77,0.11c-0.37,0-0.73-0.07-1.07-0.21s-0.66-0.35-0.93-0.62s-0.5-0.6-0.66-1
				c-0.17-0.39-0.25-0.84-0.25-1.35s0.08-0.95,0.25-1.35c0.17-0.39,0.39-0.73,0.66-1s0.59-0.48,0.93-0.63
				c0.35-0.15,0.7-0.22,1.07-0.22c0.28,0,0.54,0.04,0.78,0.11c0.24,0.07,0.45,0.17,0.64,0.28c0.19,0.12,0.36,0.26,0.51,0.41
				c0.15,0.16,0.29,0.32,0.41,0.5V47.2h0.91v8.61H129.79z M129.64,51.79c-0.12-0.29-0.29-0.54-0.5-0.74
				c-0.21-0.2-0.44-0.36-0.71-0.48c-0.26-0.11-0.54-0.17-0.82-0.17c-0.3,0-0.58,0.05-0.84,0.16c-0.26,0.11-0.49,0.26-0.68,0.46
				c-0.19,0.2-0.35,0.45-0.46,0.74c-0.11,0.29-0.17,0.62-0.17,0.99c0,0.36,0.06,0.69,0.17,0.97c0.11,0.29,0.27,0.54,0.47,0.75
				c0.2,0.21,0.42,0.37,0.68,0.48c0.26,0.11,0.54,0.16,0.83,0.16c0.28,0,0.56-0.06,0.82-0.17c0.26-0.11,0.5-0.27,0.71-0.48
				s0.37-0.45,0.5-0.75s0.18-0.62,0.18-0.97S129.76,52.08,129.64,51.79z"/>
			<path class="st1" d="M133.52,53.97c0.13,0.26,0.29,0.47,0.48,0.65c0.2,0.18,0.42,0.31,0.66,0.4c0.24,0.09,0.5,0.14,0.77,0.14
				c0.42,0,0.79-0.08,1.09-0.24c0.3-0.16,0.58-0.37,0.83-0.63l0.57,0.51c-0.31,0.35-0.66,0.62-1.05,0.83
				c-0.39,0.21-0.88,0.31-1.46,0.31c-0.42,0-0.81-0.08-1.18-0.23c-0.37-0.15-0.69-0.37-0.97-0.65s-0.5-0.62-0.66-1.01
				c-0.16-0.39-0.25-0.83-0.25-1.3c0-0.44,0.07-0.86,0.22-1.24c0.15-0.39,0.35-0.73,0.61-1.02c0.26-0.29,0.57-0.51,0.93-0.68
				c0.36-0.17,0.75-0.25,1.17-0.25c0.45,0,0.85,0.08,1.2,0.25c0.35,0.17,0.65,0.4,0.9,0.69c0.24,0.29,0.43,0.63,0.55,1.03
				c0.13,0.39,0.19,0.81,0.19,1.26c0,0.04,0,0.08,0,0.13c0,0.05,0,0.1-0.01,0.15h-4.83C133.31,53.43,133.39,53.72,133.52,53.97z
				 M137.19,52.42c-0.02-0.28-0.08-0.54-0.17-0.79c-0.09-0.25-0.22-0.47-0.38-0.66c-0.16-0.19-0.36-0.34-0.59-0.45
				c-0.23-0.11-0.5-0.17-0.8-0.17c-0.27,0-0.51,0.05-0.74,0.16c-0.23,0.11-0.43,0.25-0.6,0.44c-0.17,0.19-0.31,0.4-0.42,0.66
				c-0.11,0.25-0.18,0.53-0.21,0.83H137.19z"/>
			<path class="st1" d="M140.62,55.81h-0.91v-6.1h0.91v1.06c0.2-0.33,0.47-0.61,0.8-0.84c0.33-0.23,0.76-0.35,1.29-0.35
				c0.37,0,0.7,0.06,0.98,0.18c0.29,0.12,0.53,0.29,0.73,0.5c0.2,0.22,0.35,0.47,0.46,0.77s0.16,0.63,0.16,0.99v3.79h-0.91v-3.56
				c0-0.57-0.15-1.02-0.44-1.35c-0.29-0.33-0.71-0.5-1.25-0.5c-0.26,0-0.5,0.05-0.73,0.14c-0.22,0.09-0.42,0.22-0.58,0.39
				c-0.17,0.17-0.29,0.37-0.38,0.61c-0.09,0.24-0.14,0.5-0.14,0.78V55.81z"/>
			<path class="st1" d="M148.21,54.07c0,0.38,0.09,0.64,0.28,0.79s0.44,0.22,0.74,0.22c0.16,0,0.3-0.02,0.44-0.05
				c0.14-0.03,0.29-0.09,0.44-0.17v0.78c-0.16,0.09-0.33,0.15-0.5,0.19c-0.18,0.04-0.38,0.06-0.6,0.06c-0.24,0-0.47-0.03-0.68-0.09
				c-0.21-0.06-0.4-0.16-0.55-0.3s-0.27-0.32-0.36-0.54c-0.09-0.22-0.13-0.48-0.13-0.79v-3.68h-0.85v-0.8h0.85v-1.84h0.91v1.84h1.94
				v0.8h-1.94V54.07z"/>
			<path class="st1" d="M156.08,53.97c0.13,0.26,0.29,0.47,0.48,0.65c0.2,0.18,0.42,0.31,0.66,0.4c0.24,0.09,0.5,0.14,0.77,0.14
				c0.42,0,0.79-0.08,1.09-0.24c0.3-0.16,0.58-0.37,0.83-0.63l0.57,0.51c-0.31,0.35-0.66,0.62-1.05,0.83
				c-0.39,0.21-0.88,0.31-1.46,0.31c-0.42,0-0.81-0.08-1.18-0.23c-0.37-0.15-0.69-0.37-0.97-0.65s-0.5-0.62-0.66-1.01
				c-0.16-0.39-0.25-0.83-0.25-1.3c0-0.44,0.07-0.86,0.22-1.24c0.15-0.39,0.35-0.73,0.61-1.02c0.26-0.29,0.57-0.51,0.93-0.68
				c0.36-0.17,0.75-0.25,1.17-0.25c0.45,0,0.85,0.08,1.2,0.25c0.35,0.17,0.65,0.4,0.9,0.69c0.24,0.29,0.43,0.63,0.55,1.03
				c0.12,0.39,0.19,0.81,0.19,1.26c0,0.04,0,0.08,0,0.13c0,0.05,0,0.1-0.01,0.15h-4.83C155.87,53.43,155.95,53.72,156.08,53.97z
				 M159.75,52.42c-0.02-0.28-0.08-0.54-0.17-0.79c-0.09-0.25-0.21-0.47-0.38-0.66c-0.16-0.19-0.36-0.34-0.59-0.45
				c-0.23-0.11-0.5-0.17-0.8-0.17c-0.27,0-0.51,0.05-0.74,0.16c-0.23,0.11-0.43,0.25-0.6,0.44c-0.17,0.19-0.31,0.4-0.42,0.66
				c-0.11,0.25-0.18,0.53-0.21,0.83H159.75z"/>
			<path class="st1" d="M167.22,55.81h-1.05l-1.89-2.49l-1.9,2.49h-1.02l2.4-3.1l-2.3-3h1.04l1.81,2.36l1.81-2.36h1.01l-2.31,2.97
				L167.22,55.81z"/>
			<path class="st1" d="M174.61,54.1c-0.17,0.39-0.38,0.73-0.66,1c-0.27,0.27-0.58,0.48-0.93,0.63c-0.35,0.15-0.71,0.22-1.08,0.22
				c-0.28,0-0.54-0.04-0.78-0.11c-0.24-0.07-0.45-0.17-0.64-0.28c-0.19-0.12-0.36-0.26-0.51-0.41c-0.15-0.16-0.29-0.32-0.41-0.5
				v3.06h-0.91v-7.99h0.91v1.23c0.13-0.18,0.27-0.35,0.42-0.52s0.32-0.31,0.51-0.43c0.19-0.12,0.4-0.22,0.63-0.29
				c0.23-0.07,0.49-0.11,0.77-0.11c0.36,0,0.72,0.07,1.07,0.21c0.35,0.14,0.66,0.35,0.94,0.62s0.5,0.6,0.66,1
				c0.17,0.39,0.25,0.84,0.25,1.35S174.77,53.7,174.61,54.1z M173.75,51.79c-0.11-0.29-0.27-0.54-0.47-0.75
				c-0.2-0.21-0.42-0.37-0.68-0.48c-0.26-0.11-0.54-0.16-0.83-0.16c-0.28,0-0.56,0.06-0.82,0.17c-0.26,0.11-0.5,0.27-0.71,0.48
				c-0.21,0.2-0.37,0.45-0.5,0.74c-0.12,0.29-0.18,0.61-0.18,0.96s0.06,0.68,0.18,0.97s0.29,0.54,0.5,0.75
				c0.21,0.2,0.44,0.36,0.71,0.48c0.26,0.11,0.54,0.17,0.82,0.17c0.29,0,0.57-0.05,0.83-0.16c0.26-0.11,0.49-0.26,0.68-0.46
				c0.19-0.2,0.35-0.45,0.46-0.74s0.17-0.62,0.17-0.99C173.92,52.4,173.86,52.08,173.75,51.79z"/>
			<path class="st1" d="M177.32,53.97c0.13,0.26,0.29,0.47,0.48,0.65c0.2,0.18,0.42,0.31,0.66,0.4s0.5,0.14,0.77,0.14
				c0.42,0,0.79-0.08,1.09-0.24c0.3-0.16,0.58-0.37,0.83-0.63l0.57,0.51c-0.31,0.35-0.66,0.62-1.05,0.83
				c-0.39,0.21-0.88,0.31-1.46,0.31c-0.42,0-0.81-0.08-1.18-0.23s-0.69-0.37-0.97-0.65s-0.5-0.62-0.66-1.01
				c-0.16-0.39-0.25-0.83-0.25-1.3c0-0.44,0.07-0.86,0.22-1.24c0.15-0.39,0.35-0.73,0.61-1.02c0.26-0.29,0.57-0.51,0.93-0.68
				c0.36-0.17,0.75-0.25,1.17-0.25c0.45,0,0.85,0.08,1.2,0.25c0.35,0.17,0.65,0.4,0.9,0.69c0.24,0.29,0.43,0.63,0.55,1.03
				c0.13,0.39,0.19,0.81,0.19,1.26c0,0.04,0,0.08,0,0.13c0,0.05,0,0.1-0.01,0.15h-4.83C177.11,53.43,177.19,53.72,177.32,53.97z
				 M180.99,52.42c-0.02-0.28-0.08-0.54-0.17-0.79c-0.09-0.25-0.22-0.47-0.38-0.66c-0.16-0.19-0.36-0.34-0.59-0.45
				c-0.23-0.11-0.5-0.17-0.8-0.17c-0.27,0-0.51,0.05-0.74,0.16c-0.23,0.11-0.43,0.25-0.6,0.44c-0.17,0.19-0.31,0.4-0.42,0.66
				c-0.11,0.25-0.18,0.53-0.21,0.83H180.99z"/>
			<path class="st1" d="M184.42,55.81h-0.91v-6.1h0.91v1.59c0.11-0.25,0.25-0.48,0.41-0.7s0.35-0.4,0.57-0.55
				c0.21-0.15,0.44-0.27,0.7-0.35c0.25-0.08,0.52-0.11,0.81-0.11v0.98h-0.07c-0.33,0-0.64,0.06-0.94,0.18
				c-0.29,0.12-0.55,0.29-0.77,0.53c-0.22,0.24-0.39,0.53-0.52,0.88s-0.19,0.75-0.19,1.21V55.81z"/>
			<path class="st1" d="M188.32,48.38v-1h1.04v1H188.32z M188.37,55.81v-6.1h0.91v6.1H188.37z"/>
			<path class="st1" d="M192.19,53.97c0.13,0.26,0.29,0.47,0.48,0.65c0.2,0.18,0.42,0.31,0.66,0.4s0.5,0.14,0.77,0.14
				c0.42,0,0.79-0.08,1.09-0.24c0.3-0.16,0.58-0.37,0.83-0.63l0.57,0.51c-0.31,0.35-0.66,0.62-1.05,0.83
				c-0.39,0.21-0.88,0.31-1.46,0.31c-0.42,0-0.81-0.08-1.18-0.23s-0.69-0.37-0.97-0.65s-0.5-0.62-0.66-1.01
				c-0.16-0.39-0.25-0.83-0.25-1.3c0-0.44,0.07-0.86,0.22-1.24c0.15-0.39,0.35-0.73,0.61-1.02c0.26-0.29,0.57-0.51,0.93-0.68
				c0.36-0.17,0.75-0.25,1.17-0.25c0.45,0,0.85,0.08,1.2,0.25c0.35,0.17,0.65,0.4,0.9,0.69c0.24,0.29,0.43,0.63,0.55,1.03
				c0.13,0.39,0.19,0.81,0.19,1.26c0,0.04,0,0.08,0,0.13c0,0.05,0,0.1-0.01,0.15h-4.83C191.98,53.43,192.06,53.72,192.19,53.97z
				 M195.86,52.42c-0.02-0.28-0.08-0.54-0.17-0.79c-0.09-0.25-0.22-0.47-0.38-0.66c-0.16-0.19-0.36-0.34-0.59-0.45
				c-0.23-0.11-0.5-0.17-0.8-0.17c-0.27,0-0.51,0.05-0.74,0.16c-0.23,0.11-0.43,0.25-0.6,0.44c-0.17,0.19-0.31,0.4-0.42,0.66
				c-0.11,0.25-0.18,0.53-0.21,0.83H195.86z"/>
			<path class="st1" d="M199.29,55.81h-0.91v-6.1h0.91v1.06c0.2-0.33,0.47-0.61,0.8-0.84c0.33-0.23,0.76-0.35,1.29-0.35
				c0.37,0,0.7,0.06,0.98,0.18c0.29,0.12,0.53,0.29,0.73,0.5c0.2,0.22,0.35,0.47,0.46,0.77s0.16,0.63,0.16,0.99v3.79h-0.91v-3.56
				c0-0.57-0.15-1.02-0.44-1.35c-0.29-0.33-0.71-0.5-1.25-0.5c-0.26,0-0.5,0.05-0.73,0.14c-0.22,0.09-0.42,0.22-0.58,0.39
				c-0.17,0.17-0.29,0.37-0.38,0.61c-0.09,0.24-0.14,0.5-0.14,0.78V55.81z"/>
			<path class="st1" d="M209.84,55.62c-0.39,0.22-0.87,0.33-1.45,0.33c-0.45,0-0.86-0.08-1.25-0.25c-0.38-0.17-0.71-0.4-0.99-0.68
				s-0.5-0.62-0.66-1.01c-0.16-0.39-0.24-0.79-0.24-1.23s0.08-0.84,0.24-1.23c0.16-0.39,0.38-0.73,0.66-1.02
				c0.28-0.29,0.61-0.52,0.99-0.69c0.38-0.17,0.8-0.25,1.25-0.25c0.29,0,0.55,0.03,0.79,0.08c0.24,0.06,0.45,0.13,0.65,0.23
				c0.2,0.1,0.38,0.21,0.54,0.35c0.17,0.13,0.32,0.28,0.46,0.42l-0.6,0.64c-0.24-0.25-0.51-0.47-0.8-0.65
				c-0.29-0.18-0.64-0.27-1.06-0.27c-0.31,0-0.59,0.06-0.86,0.18c-0.27,0.12-0.5,0.29-0.7,0.51c-0.2,0.22-0.35,0.47-0.46,0.75
				c-0.11,0.29-0.17,0.59-0.17,0.92s0.06,0.64,0.17,0.93c0.11,0.29,0.27,0.54,0.47,0.76c0.2,0.22,0.44,0.38,0.71,0.51
				s0.57,0.18,0.89,0.18c0.39,0,0.74-0.09,1.04-0.26c0.3-0.17,0.58-0.39,0.82-0.65l0.58,0.54
				C210.58,55.11,210.23,55.39,209.84,55.62z"/>
			<path class="st1" d="M213,53.97c0.13,0.26,0.29,0.47,0.48,0.65c0.2,0.18,0.42,0.31,0.66,0.4s0.5,0.14,0.77,0.14
				c0.42,0,0.79-0.08,1.09-0.24c0.3-0.16,0.58-0.37,0.83-0.63l0.57,0.51c-0.31,0.35-0.66,0.62-1.05,0.83
				c-0.39,0.21-0.88,0.31-1.46,0.31c-0.42,0-0.81-0.08-1.18-0.23s-0.69-0.37-0.97-0.65s-0.5-0.62-0.66-1.01
				c-0.16-0.39-0.25-0.83-0.25-1.3c0-0.44,0.07-0.86,0.22-1.24c0.15-0.39,0.35-0.73,0.61-1.02c0.26-0.29,0.57-0.51,0.93-0.68
				c0.36-0.17,0.75-0.25,1.17-0.25c0.45,0,0.85,0.08,1.2,0.25c0.35,0.17,0.65,0.4,0.9,0.69c0.24,0.29,0.43,0.63,0.55,1.03
				c0.13,0.39,0.19,0.81,0.19,1.26c0,0.04,0,0.08,0,0.13c0,0.05,0,0.1-0.01,0.15h-4.83C212.8,53.43,212.87,53.72,213,53.97z
				 M216.67,52.42c-0.02-0.28-0.08-0.54-0.17-0.79c-0.09-0.25-0.22-0.47-0.38-0.66c-0.16-0.19-0.36-0.34-0.59-0.45
				c-0.23-0.11-0.5-0.17-0.8-0.17c-0.27,0-0.51,0.05-0.74,0.16c-0.23,0.11-0.43,0.25-0.6,0.44c-0.17,0.19-0.31,0.4-0.42,0.66
				c-0.11,0.25-0.18,0.53-0.21,0.83H216.67z"/>
			<path class="st1" d="M219.15,50.95v-1.24h1.09v1.24H219.15z M219.15,55.81v-1.24h1.09v1.24H219.15z"/>
			<path class="st1" d="M231.71,55.57c-0.59,0.26-1.26,0.38-2.01,0.38c-0.64,0-1.23-0.11-1.76-0.32c-0.53-0.21-0.99-0.51-1.37-0.89
				s-0.68-0.83-0.89-1.35c-0.21-0.52-0.32-1.09-0.32-1.7v-0.02c0-0.59,0.11-1.14,0.32-1.66c0.22-0.52,0.52-0.97,0.9-1.36
				c0.39-0.39,0.84-0.7,1.37-0.92s1.11-0.34,1.73-0.34c0.37,0,0.71,0.03,1.01,0.08s0.58,0.12,0.84,0.22
				c0.26,0.09,0.5,0.21,0.73,0.35c0.23,0.14,0.45,0.3,0.66,0.48l-1.14,1.38c-0.16-0.13-0.31-0.25-0.47-0.35
				c-0.16-0.1-0.32-0.19-0.49-0.26s-0.35-0.13-0.55-0.17c-0.2-0.04-0.41-0.06-0.65-0.06c-0.33,0-0.64,0.07-0.93,0.21
				c-0.29,0.14-0.54,0.32-0.75,0.56c-0.22,0.23-0.39,0.5-0.51,0.82s-0.18,0.64-0.18,1v0.02c0,0.38,0.06,0.73,0.18,1.05
				s0.29,0.6,0.52,0.83s0.49,0.42,0.79,0.55c0.3,0.13,0.64,0.2,1.01,0.2c0.68,0,1.25-0.17,1.71-0.5v-1.19h-1.83v-1.57h3.59v3.59
				C232.8,55,232.29,55.31,231.71,55.57z"/>
			<path class="st1" d="M241.06,53.94c-0.17,0.4-0.41,0.75-0.72,1.04c-0.31,0.3-0.67,0.54-1.09,0.71c-0.42,0.17-0.87,0.26-1.37,0.26
				c-0.49,0-0.94-0.08-1.36-0.25c-0.42-0.17-0.78-0.4-1.08-0.7c-0.3-0.3-0.54-0.64-0.71-1.04c-0.17-0.4-0.26-0.82-0.26-1.28v-0.02
				c0-0.46,0.09-0.88,0.26-1.28c0.17-0.4,0.41-0.75,0.72-1.04c0.31-0.3,0.67-0.54,1.08-0.71s0.87-0.26,1.37-0.26
				c0.49,0,0.94,0.08,1.36,0.25c0.42,0.17,0.78,0.4,1.08,0.7c0.3,0.29,0.54,0.64,0.71,1.04c0.17,0.4,0.26,0.82,0.26,1.28v0.02
				C241.32,53.11,241.23,53.54,241.06,53.94z M239.55,52.66c0-0.24-0.04-0.46-0.12-0.67c-0.08-0.21-0.19-0.39-0.34-0.55
				c-0.15-0.16-0.33-0.29-0.53-0.38c-0.21-0.09-0.43-0.14-0.67-0.14c-0.26,0-0.49,0.05-0.69,0.14s-0.37,0.21-0.51,0.37
				c-0.14,0.16-0.25,0.34-0.32,0.55c-0.08,0.21-0.11,0.43-0.11,0.67v0.02c0,0.24,0.04,0.46,0.12,0.67c0.08,0.21,0.19,0.39,0.34,0.55
				s0.33,0.29,0.53,0.38c0.2,0.09,0.43,0.14,0.68,0.14c0.26,0,0.49-0.04,0.69-0.14c0.2-0.09,0.37-0.21,0.51-0.37
				c0.14-0.16,0.25-0.34,0.33-0.55c0.07-0.21,0.11-0.43,0.11-0.67V52.66z"/>
			<path class="st1" d="M242.7,55.81V47.2h1.79v8.61H242.7z"/>
			<path class="st1" d="M250.75,55.81v-0.9c-0.22,0.3-0.49,0.54-0.8,0.73c-0.31,0.19-0.7,0.29-1.17,0.29
				c-0.37,0-0.73-0.07-1.07-0.21c-0.35-0.14-0.65-0.35-0.92-0.63s-0.48-0.62-0.64-1.03c-0.16-0.4-0.24-0.87-0.24-1.4v-0.02
				c0-0.53,0.08-0.99,0.24-1.4c0.16-0.41,0.37-0.75,0.64-1.03s0.57-0.49,0.92-0.63c0.35-0.14,0.71-0.21,1.08-0.21
				c0.48,0,0.88,0.09,1.19,0.28c0.31,0.19,0.57,0.41,0.78,0.66V47.2h1.79v8.61H250.75z M250.77,52.63c0-0.26-0.04-0.5-0.12-0.72
				c-0.08-0.22-0.19-0.4-0.33-0.56s-0.3-0.27-0.48-0.36c-0.19-0.08-0.38-0.12-0.6-0.12c-0.21,0-0.41,0.04-0.6,0.12
				s-0.35,0.2-0.49,0.36s-0.25,0.34-0.34,0.55c-0.08,0.21-0.12,0.46-0.12,0.72v0.02c0,0.26,0.04,0.5,0.12,0.72
				c0.08,0.22,0.2,0.4,0.34,0.56c0.14,0.15,0.3,0.27,0.49,0.36s0.38,0.12,0.6,0.12c0.21,0,0.41-0.04,0.6-0.12
				c0.18-0.08,0.35-0.2,0.48-0.36c0.14-0.15,0.25-0.34,0.33-0.56c0.08-0.22,0.12-0.46,0.12-0.72V52.63z"/>
		</g>
	</g>
	<g>
		<rect x="91.49" y="65.31" class="st0" width="174.55" height="22.68"/>
		<g>
			<path class="st1" d="M137.94,70.52c0.05,0.12,0.14,0.23,0.26,0.33c0.13,0.1,0.3,0.19,0.52,0.27c0.22,0.08,0.51,0.16,0.86,0.23
				c0.7,0.16,1.22,0.37,1.55,0.65c0.33,0.28,0.5,0.66,0.5,1.15c0,0.27-0.05,0.52-0.16,0.74c-0.11,0.22-0.25,0.41-0.44,0.57
				c-0.19,0.16-0.41,0.28-0.68,0.36s-0.55,0.13-0.86,0.13c-0.5,0-0.96-0.08-1.38-0.24c-0.42-0.16-0.81-0.42-1.19-0.76l0.44-0.52
				c0.33,0.3,0.66,0.52,1,0.67c0.34,0.15,0.72,0.22,1.16,0.22c0.43,0,0.77-0.1,1.02-0.3s0.38-0.46,0.38-0.78
				c0-0.15-0.02-0.28-0.07-0.4s-0.13-0.22-0.25-0.32c-0.12-0.1-0.29-0.18-0.5-0.26c-0.21-0.08-0.49-0.15-0.82-0.23
				c-0.36-0.08-0.67-0.17-0.94-0.27s-0.49-0.23-0.66-0.37c-0.17-0.14-0.3-0.31-0.39-0.5s-0.13-0.42-0.13-0.69
				c0-0.25,0.05-0.48,0.15-0.69c0.1-0.21,0.25-0.39,0.43-0.54c0.19-0.15,0.4-0.27,0.66-0.36s0.53-0.13,0.83-0.13
				c0.46,0,0.87,0.06,1.21,0.19c0.34,0.13,0.68,0.32,1,0.57l-0.41,0.55c-0.29-0.24-0.59-0.41-0.89-0.52
				c-0.3-0.11-0.61-0.16-0.93-0.16c-0.2,0-0.39,0.03-0.55,0.08c-0.17,0.05-0.31,0.13-0.42,0.22c-0.12,0.09-0.21,0.2-0.27,0.32
				c-0.06,0.13-0.09,0.26-0.09,0.41C137.86,70.27,137.89,70.4,137.94,70.52z"/>
			<path class="st1" d="M143.85,73.52c0,0.29,0.07,0.49,0.21,0.6c0.14,0.11,0.33,0.17,0.57,0.17c0.12,0,0.23-0.01,0.34-0.04
				c0.11-0.02,0.22-0.07,0.34-0.13v0.59c-0.12,0.07-0.25,0.12-0.38,0.15c-0.13,0.03-0.29,0.05-0.45,0.05
				c-0.19,0-0.36-0.02-0.52-0.07c-0.16-0.05-0.3-0.12-0.42-0.23c-0.12-0.1-0.21-0.24-0.27-0.41c-0.07-0.17-0.1-0.37-0.1-0.6v-2.81
				h-0.65V70.2h0.65v-1.4h0.69v1.4h1.47v0.61h-1.47V73.52z"/>
			<path class="st1" d="M149.85,70.2h0.68v4.65h-0.68v-0.81c-0.16,0.25-0.36,0.47-0.61,0.64s-0.58,0.27-0.98,0.27
				c-0.28,0-0.53-0.04-0.75-0.14c-0.22-0.09-0.41-0.22-0.56-0.38s-0.27-0.36-0.35-0.59c-0.08-0.23-0.12-0.48-0.12-0.76V70.2h0.69
				v2.72c0,0.43,0.11,0.77,0.33,1.03c0.22,0.25,0.54,0.38,0.96,0.38c0.2,0,0.38-0.04,0.55-0.1c0.17-0.07,0.32-0.17,0.44-0.3
				c0.12-0.13,0.22-0.28,0.29-0.46c0.07-0.18,0.11-0.38,0.11-0.59V70.2z"/>
			<path class="st1" d="M155.83,74.85v-0.94c-0.1,0.14-0.2,0.27-0.32,0.4s-0.25,0.24-0.39,0.33c-0.14,0.1-0.3,0.17-0.48,0.23
				c-0.18,0.05-0.37,0.08-0.59,0.08c-0.28,0-0.55-0.05-0.82-0.16c-0.26-0.11-0.5-0.27-0.71-0.47c-0.21-0.21-0.38-0.46-0.5-0.76
				c-0.12-0.3-0.19-0.64-0.19-1.03c0-0.38,0.06-0.73,0.19-1.03c0.13-0.3,0.29-0.55,0.5-0.76c0.21-0.21,0.45-0.37,0.71-0.48
				c0.26-0.11,0.54-0.17,0.82-0.17c0.22,0,0.41,0.03,0.6,0.08c0.18,0.05,0.34,0.13,0.48,0.22c0.14,0.09,0.28,0.2,0.39,0.32
				s0.22,0.25,0.31,0.38v-2.81h0.69v6.57H155.83z M155.71,71.78c-0.09-0.22-0.22-0.41-0.38-0.56c-0.16-0.16-0.34-0.28-0.54-0.36
				c-0.2-0.09-0.41-0.13-0.62-0.13c-0.23,0-0.44,0.04-0.64,0.12c-0.2,0.08-0.37,0.2-0.52,0.35s-0.26,0.34-0.35,0.56
				c-0.09,0.22-0.13,0.48-0.13,0.76c0,0.28,0.04,0.52,0.13,0.74c0.09,0.22,0.21,0.41,0.36,0.57s0.32,0.28,0.52,0.36
				c0.2,0.08,0.41,0.13,0.63,0.13c0.22,0,0.42-0.04,0.62-0.13c0.2-0.09,0.38-0.21,0.54-0.36c0.16-0.16,0.29-0.34,0.38-0.57
				c0.09-0.22,0.14-0.47,0.14-0.74S155.81,72,155.71,71.78z"/>
			<path class="st1" d="M158.67,73.45c0.1,0.2,0.22,0.36,0.37,0.5c0.15,0.13,0.32,0.24,0.5,0.31c0.19,0.07,0.38,0.1,0.58,0.1
				c0.32,0,0.6-0.06,0.83-0.18c0.23-0.12,0.44-0.28,0.63-0.48l0.43,0.39c-0.23,0.26-0.5,0.48-0.8,0.63
				c-0.3,0.16-0.67,0.24-1.12,0.24c-0.32,0-0.62-0.06-0.9-0.18c-0.28-0.12-0.53-0.28-0.74-0.5c-0.21-0.21-0.38-0.47-0.5-0.77
				c-0.12-0.3-0.19-0.63-0.19-0.99c0-0.34,0.05-0.65,0.17-0.95s0.27-0.55,0.46-0.77c0.2-0.22,0.43-0.39,0.71-0.52
				s0.57-0.19,0.89-0.19c0.34,0,0.65,0.06,0.92,0.19c0.27,0.13,0.5,0.3,0.69,0.53c0.19,0.22,0.33,0.48,0.42,0.78
				c0.1,0.3,0.14,0.62,0.14,0.96c0,0.03,0,0.06,0,0.1s0,0.08-0.01,0.12h-3.68C158.51,73.03,158.58,73.25,158.67,73.45z
				 M161.47,72.26c-0.02-0.21-0.06-0.41-0.13-0.6c-0.07-0.19-0.16-0.36-0.29-0.5c-0.12-0.14-0.27-0.26-0.45-0.35
				s-0.38-0.13-0.61-0.13c-0.2,0-0.39,0.04-0.56,0.12c-0.17,0.08-0.33,0.19-0.46,0.33c-0.13,0.14-0.24,0.31-0.32,0.5
				c-0.08,0.19-0.14,0.4-0.16,0.63H161.47z"/>
			<path class="st1" d="M164.09,74.85h-0.69V70.2h0.69V71c0.16-0.25,0.36-0.47,0.61-0.64s0.58-0.27,0.98-0.27
				c0.28,0,0.53,0.04,0.75,0.13c0.22,0.09,0.41,0.22,0.56,0.38s0.27,0.36,0.35,0.59c0.08,0.23,0.12,0.48,0.12,0.76v2.89h-0.69v-2.72
				c0-0.43-0.11-0.77-0.33-1.03c-0.22-0.25-0.54-0.38-0.96-0.38c-0.2,0-0.38,0.04-0.55,0.1c-0.17,0.07-0.32,0.17-0.45,0.3
				c-0.13,0.13-0.22,0.28-0.29,0.46c-0.07,0.18-0.1,0.38-0.1,0.59V74.85z"/>
			<path class="st1" d="M169.88,73.52c0,0.29,0.07,0.49,0.21,0.6c0.14,0.11,0.33,0.17,0.57,0.17c0.12,0,0.23-0.01,0.34-0.04
				c0.11-0.02,0.22-0.07,0.34-0.13v0.59c-0.12,0.07-0.25,0.12-0.38,0.15c-0.13,0.03-0.29,0.05-0.45,0.05
				c-0.19,0-0.36-0.02-0.52-0.07c-0.16-0.05-0.3-0.12-0.42-0.23c-0.12-0.1-0.21-0.24-0.27-0.41c-0.07-0.17-0.1-0.37-0.1-0.6v-2.81
				h-0.65V70.2h0.65v-1.4h0.69v1.4h1.47v0.61h-1.47V73.52z"/>
			<path class="st1" d="M179.65,73.46c-0.12,0.3-0.29,0.56-0.51,0.78c-0.22,0.22-0.47,0.4-0.77,0.53c-0.3,0.13-0.62,0.19-0.97,0.19
				s-0.67-0.06-0.96-0.19c-0.29-0.13-0.55-0.3-0.77-0.52c-0.21-0.22-0.38-0.48-0.5-0.77c-0.12-0.29-0.18-0.61-0.18-0.94
				s0.06-0.64,0.18-0.94c0.12-0.3,0.29-0.56,0.5-0.78c0.22-0.22,0.47-0.4,0.77-0.53c0.3-0.13,0.62-0.19,0.98-0.19
				c0.35,0,0.67,0.06,0.97,0.19c0.3,0.13,0.55,0.3,0.77,0.52c0.21,0.22,0.38,0.48,0.5,0.77c0.12,0.29,0.18,0.61,0.18,0.94
				S179.78,73.16,179.65,73.46z M179,71.82c-0.09-0.22-0.21-0.42-0.37-0.58c-0.16-0.17-0.34-0.29-0.55-0.39
				c-0.21-0.1-0.44-0.14-0.68-0.14c-0.25,0-0.48,0.05-0.69,0.14c-0.21,0.09-0.39,0.22-0.54,0.39c-0.15,0.16-0.26,0.36-0.35,0.57
				s-0.13,0.45-0.13,0.71c0,0.25,0.04,0.49,0.13,0.71c0.09,0.22,0.21,0.41,0.36,0.57c0.15,0.16,0.33,0.29,0.54,0.39
				s0.44,0.14,0.68,0.14c0.25,0,0.48-0.05,0.69-0.14s0.39-0.22,0.54-0.38c0.15-0.16,0.27-0.35,0.35-0.57
				c0.08-0.22,0.13-0.45,0.13-0.71C179.13,72.28,179.08,72.04,179,71.82z"/>
			<path class="st1" d="M184.39,70.2h0.68v4.65h-0.68v-0.81c-0.16,0.25-0.36,0.47-0.61,0.64s-0.58,0.27-0.98,0.27
				c-0.28,0-0.53-0.04-0.75-0.14c-0.22-0.09-0.4-0.22-0.56-0.38c-0.15-0.17-0.27-0.36-0.35-0.59c-0.08-0.23-0.12-0.48-0.12-0.76
				V70.2h0.69v2.72c0,0.43,0.11,0.77,0.33,1.03s0.54,0.38,0.95,0.38c0.2,0,0.38-0.04,0.55-0.1c0.17-0.07,0.32-0.17,0.44-0.3
				c0.12-0.13,0.22-0.28,0.29-0.46c0.07-0.18,0.11-0.38,0.11-0.59V70.2z"/>
			<path class="st1" d="M187.57,73.52c0,0.29,0.07,0.49,0.22,0.6s0.33,0.17,0.57,0.17c0.12,0,0.23-0.01,0.34-0.04
				c0.11-0.02,0.22-0.07,0.34-0.13v0.59c-0.12,0.07-0.25,0.12-0.38,0.15c-0.13,0.03-0.29,0.05-0.46,0.05
				c-0.19,0-0.36-0.02-0.52-0.07c-0.16-0.05-0.3-0.12-0.42-0.23c-0.12-0.1-0.21-0.24-0.28-0.41s-0.1-0.37-0.1-0.6v-2.81h-0.65V70.2
				h0.65v-1.4h0.69v1.4h1.48v0.61h-1.48V73.52z"/>
			<path class="st1" d="M193.33,74.7c-0.3,0.17-0.67,0.26-1.1,0.26c-0.34,0-0.66-0.06-0.95-0.19s-0.54-0.3-0.76-0.52
				c-0.21-0.22-0.38-0.48-0.5-0.77c-0.12-0.29-0.18-0.61-0.18-0.94s0.06-0.64,0.18-0.94c0.12-0.3,0.29-0.56,0.5-0.78
				c0.21-0.22,0.46-0.4,0.76-0.53c0.29-0.13,0.61-0.19,0.95-0.19c0.22,0,0.42,0.02,0.6,0.06s0.35,0.1,0.49,0.17
				c0.15,0.08,0.29,0.16,0.41,0.27c0.13,0.1,0.24,0.21,0.35,0.32l-0.46,0.49c-0.19-0.19-0.39-0.36-0.61-0.5s-0.49-0.21-0.8-0.21
				c-0.23,0-0.45,0.05-0.66,0.14c-0.2,0.09-0.38,0.22-0.53,0.39c-0.15,0.16-0.27,0.36-0.35,0.57s-0.13,0.45-0.13,0.71
				c0,0.25,0.04,0.49,0.13,0.71c0.09,0.22,0.21,0.42,0.36,0.58c0.15,0.17,0.33,0.29,0.54,0.39s0.43,0.14,0.68,0.14
				c0.3,0,0.56-0.07,0.79-0.2c0.23-0.13,0.44-0.3,0.63-0.5l0.44,0.41C193.9,74.31,193.63,74.53,193.33,74.7z"/>
			<path class="st1" d="M199.52,73.46c-0.12,0.3-0.29,0.56-0.51,0.78c-0.22,0.22-0.47,0.4-0.77,0.53c-0.3,0.13-0.62,0.19-0.97,0.19
				s-0.67-0.06-0.96-0.19c-0.29-0.13-0.55-0.3-0.77-0.52c-0.21-0.22-0.38-0.48-0.5-0.77c-0.12-0.29-0.18-0.61-0.18-0.94
				s0.06-0.64,0.18-0.94c0.12-0.3,0.29-0.56,0.5-0.78c0.22-0.22,0.47-0.4,0.77-0.53c0.3-0.13,0.62-0.19,0.98-0.19
				c0.35,0,0.67,0.06,0.97,0.19c0.3,0.13,0.55,0.3,0.77,0.52c0.21,0.22,0.38,0.48,0.5,0.77c0.12,0.29,0.18,0.61,0.18,0.94
				S199.64,73.16,199.52,73.46z M198.86,71.82c-0.09-0.22-0.21-0.42-0.37-0.58c-0.16-0.17-0.34-0.29-0.55-0.39
				c-0.21-0.1-0.44-0.14-0.68-0.14c-0.25,0-0.48,0.05-0.69,0.14c-0.21,0.09-0.39,0.22-0.54,0.39c-0.15,0.16-0.26,0.36-0.35,0.57
				s-0.13,0.45-0.13,0.71c0,0.25,0.04,0.49,0.13,0.71c0.09,0.22,0.21,0.41,0.36,0.57c0.15,0.16,0.33,0.29,0.54,0.39
				s0.44,0.14,0.68,0.14c0.25,0,0.48-0.05,0.69-0.14s0.39-0.22,0.54-0.38c0.15-0.16,0.27-0.35,0.35-0.57
				c0.08-0.22,0.13-0.45,0.13-0.71C198.99,72.28,198.95,72.04,198.86,71.82z"/>
			<path class="st1" d="M204.93,70.66c0.11-0.11,0.22-0.21,0.36-0.3s0.28-0.15,0.45-0.2c0.17-0.05,0.35-0.07,0.55-0.07
				c0.54,0,0.96,0.17,1.27,0.5c0.31,0.33,0.46,0.79,0.46,1.37v2.88h-0.69v-2.72c0-0.45-0.11-0.8-0.32-1.04
				c-0.21-0.24-0.51-0.37-0.89-0.37c-0.17,0-0.34,0.03-0.5,0.09c-0.15,0.06-0.29,0.16-0.41,0.28s-0.21,0.27-0.28,0.45
				c-0.07,0.18-0.1,0.38-0.1,0.61v2.68h-0.68v-2.74c0-0.44-0.11-0.78-0.32-1.02c-0.21-0.24-0.51-0.37-0.88-0.37
				c-0.19,0-0.36,0.04-0.51,0.11s-0.29,0.17-0.41,0.31c-0.12,0.13-0.21,0.29-0.28,0.46s-0.1,0.37-0.1,0.59v2.65h-0.69V70.2h0.69
				v0.78c0.08-0.11,0.16-0.22,0.26-0.33c0.09-0.11,0.2-0.2,0.32-0.28c0.12-0.08,0.26-0.15,0.41-0.19c0.15-0.05,0.32-0.07,0.52-0.07
				c0.38,0,0.69,0.09,0.94,0.27s0.43,0.4,0.56,0.66C204.73,70.9,204.82,70.78,204.93,70.66z"/>
			<path class="st1" d="M210.11,73.45c0.1,0.2,0.22,0.36,0.37,0.5s0.32,0.24,0.5,0.31c0.19,0.07,0.38,0.1,0.59,0.1
				c0.32,0,0.6-0.06,0.83-0.18s0.44-0.28,0.63-0.48l0.43,0.39c-0.23,0.26-0.5,0.48-0.8,0.63c-0.3,0.16-0.67,0.24-1.12,0.24
				c-0.32,0-0.62-0.06-0.9-0.18c-0.28-0.12-0.53-0.28-0.74-0.5s-0.38-0.47-0.5-0.77c-0.12-0.3-0.19-0.63-0.19-0.99
				c0-0.34,0.05-0.65,0.17-0.95s0.27-0.55,0.46-0.77c0.2-0.22,0.43-0.39,0.71-0.52c0.27-0.13,0.57-0.19,0.9-0.19
				c0.34,0,0.65,0.06,0.92,0.19c0.27,0.13,0.5,0.3,0.68,0.53c0.19,0.22,0.33,0.48,0.42,0.78c0.1,0.3,0.14,0.62,0.14,0.96
				c0,0.03,0,0.06,0,0.1s0,0.08-0.01,0.12h-3.68C209.96,73.03,210.02,73.25,210.11,73.45z M212.91,72.26
				c-0.02-0.21-0.06-0.41-0.13-0.6c-0.07-0.19-0.16-0.36-0.29-0.5c-0.12-0.14-0.27-0.26-0.45-0.35s-0.38-0.13-0.61-0.13
				c-0.2,0-0.39,0.04-0.56,0.12s-0.32,0.19-0.46,0.33c-0.13,0.14-0.24,0.31-0.32,0.5c-0.08,0.19-0.14,0.4-0.16,0.63H212.91z"/>
			<path class="st1" d="M217.91,74.13c-0.09,0.17-0.21,0.32-0.35,0.44s-0.32,0.21-0.52,0.27c-0.2,0.06-0.42,0.09-0.65,0.09
				c-0.34,0-0.68-0.06-1.02-0.18c-0.34-0.12-0.64-0.29-0.91-0.5l0.35-0.5c0.25,0.19,0.51,0.34,0.79,0.44
				c0.27,0.1,0.55,0.15,0.82,0.15c0.28,0,0.51-0.07,0.69-0.2s0.27-0.31,0.27-0.54V73.6c0-0.11-0.03-0.21-0.09-0.3
				c-0.06-0.08-0.15-0.16-0.26-0.22c-0.11-0.06-0.23-0.12-0.37-0.17s-0.29-0.09-0.44-0.13c-0.18-0.05-0.36-0.11-0.54-0.18
				c-0.18-0.06-0.35-0.14-0.5-0.24c-0.15-0.1-0.27-0.22-0.36-0.36s-0.14-0.32-0.14-0.54v-0.02c0-0.2,0.04-0.38,0.12-0.54
				c0.08-0.17,0.19-0.31,0.33-0.42c0.14-0.12,0.31-0.21,0.5-0.27c0.2-0.06,0.41-0.09,0.63-0.09c0.29,0,0.58,0.05,0.87,0.14
				c0.29,0.09,0.56,0.22,0.8,0.37l-0.32,0.52c-0.21-0.14-0.44-0.25-0.68-0.33c-0.24-0.08-0.47-0.12-0.7-0.12
				c-0.28,0-0.49,0.06-0.66,0.19s-0.24,0.29-0.24,0.48v0.02c0,0.11,0.03,0.2,0.1,0.28s0.15,0.15,0.27,0.21
				c0.11,0.06,0.24,0.11,0.38,0.16s0.29,0.1,0.45,0.14c0.18,0.05,0.36,0.11,0.54,0.18c0.18,0.07,0.34,0.15,0.48,0.25
				c0.14,0.1,0.26,0.22,0.35,0.37c0.09,0.14,0.13,0.32,0.13,0.53v0.02C218.03,73.76,217.99,73.96,217.91,74.13z"/>
			<path class="st1" d="M219.29,71.14V70.2h0.83v0.94H219.29z M219.29,74.85V73.9h0.83v0.94H219.29z"/>
			<path class="st1" d="M131.05,83.85l-1.35-2.02h-1.09v2.02h-1.39v-6.3h2.88c0.75,0,1.33,0.18,1.75,0.55
				c0.42,0.37,0.62,0.88,0.62,1.53v0.02c0,0.51-0.12,0.93-0.37,1.25s-0.58,0.56-0.98,0.71l1.54,2.25H131.05z M131.08,79.7
				c0-0.3-0.1-0.53-0.29-0.68c-0.19-0.15-0.46-0.22-0.8-0.22h-1.38v1.81h1.4c0.34,0,0.6-0.08,0.79-0.24
				c0.18-0.16,0.27-0.38,0.27-0.65V79.7z"/>
			<path class="st1" d="M138.08,81.74c0,0.05-0.01,0.1-0.01,0.17h-3.36c0.07,0.31,0.2,0.55,0.41,0.71c0.21,0.16,0.46,0.24,0.77,0.24
				c0.23,0,0.43-0.04,0.61-0.12c0.18-0.08,0.37-0.2,0.56-0.38l0.78,0.69c-0.23,0.28-0.5,0.5-0.83,0.66
				c-0.32,0.16-0.71,0.24-1.14,0.24c-0.36,0-0.7-0.06-1-0.18c-0.31-0.12-0.58-0.29-0.8-0.51c-0.23-0.22-0.4-0.48-0.53-0.79
				s-0.19-0.64-0.19-1.01v-0.02c0-0.34,0.06-0.67,0.18-0.97c0.12-0.31,0.28-0.57,0.49-0.8c0.21-0.23,0.46-0.41,0.75-0.54
				s0.61-0.2,0.97-0.2c0.4,0,0.75,0.07,1.04,0.22c0.29,0.14,0.54,0.34,0.73,0.58c0.2,0.24,0.34,0.52,0.43,0.84s0.14,0.64,0.14,0.99
				v0.02C138.09,81.64,138.09,81.69,138.08,81.74z M136.43,80.32c-0.17-0.19-0.41-0.28-0.69-0.28s-0.52,0.09-0.7,0.28
				c-0.18,0.19-0.29,0.44-0.35,0.75h2.06C136.71,80.75,136.61,80.5,136.43,80.32z"/>
			<path class="st1" d="M142.59,85.29v-2.13c-0.17,0.23-0.37,0.41-0.61,0.56c-0.24,0.15-0.54,0.22-0.89,0.22
				c-0.28,0-0.56-0.05-0.82-0.16c-0.26-0.11-0.5-0.27-0.7-0.48c-0.2-0.21-0.37-0.47-0.49-0.78c-0.12-0.31-0.18-0.67-0.18-1.07v-0.02
				c0-0.4,0.06-0.76,0.18-1.07c0.12-0.31,0.29-0.57,0.49-0.78s0.43-0.37,0.7-0.48c0.26-0.11,0.54-0.16,0.83-0.16
				c0.37,0,0.67,0.07,0.9,0.21c0.24,0.14,0.44,0.31,0.6,0.5v-0.62h1.37v6.26H142.59z M142.61,81.43c0-0.2-0.03-0.38-0.1-0.55
				s-0.15-0.31-0.25-0.43c-0.11-0.12-0.23-0.21-0.37-0.27c-0.14-0.06-0.29-0.09-0.45-0.09s-0.31,0.03-0.46,0.09
				c-0.14,0.06-0.27,0.15-0.37,0.27c-0.11,0.12-0.19,0.26-0.26,0.42c-0.06,0.16-0.09,0.35-0.09,0.55v0.02c0,0.2,0.03,0.38,0.09,0.55
				c0.06,0.17,0.15,0.31,0.26,0.43c0.11,0.12,0.23,0.21,0.37,0.27c0.14,0.06,0.29,0.1,0.46,0.1s0.31-0.03,0.45-0.1
				s0.26-0.15,0.37-0.27s0.19-0.26,0.25-0.43s0.1-0.35,0.1-0.55V81.43z"/>
			<path class="st1" d="M148.19,83.85v-0.69c-0.08,0.1-0.16,0.2-0.26,0.29s-0.2,0.18-0.31,0.25s-0.24,0.13-0.38,0.17
				c-0.14,0.04-0.29,0.06-0.47,0.06c-0.52,0-0.93-0.16-1.21-0.48s-0.43-0.76-0.43-1.31v-3.12h1.37v2.68c0,0.32,0.07,0.57,0.21,0.73
				c0.14,0.16,0.35,0.25,0.61,0.25c0.26,0,0.47-0.08,0.62-0.25c0.15-0.17,0.23-0.41,0.23-0.73v-2.68h1.37v4.82H148.19z"/>
			<path class="st1" d="M150.81,78.49v-1.21h1.44v1.21H150.81z M150.85,83.85v-4.82h1.37v4.82H150.85z"/>
			<path class="st1" d="M156.34,80.37c-0.46,0-0.81,0.14-1.08,0.41c-0.26,0.28-0.39,0.71-0.39,1.29v1.78h-1.37v-4.82h1.37V80
				c0.14-0.33,0.33-0.59,0.57-0.79s0.56-0.29,0.97-0.27v1.43H156.34z"/>
			<path class="st1" d="M161.76,81.74c0,0.05-0.01,0.1-0.01,0.17h-3.36c0.06,0.31,0.2,0.55,0.41,0.71c0.21,0.16,0.46,0.24,0.77,0.24
				c0.23,0,0.43-0.04,0.61-0.12c0.18-0.08,0.37-0.2,0.56-0.38l0.78,0.69c-0.23,0.28-0.5,0.5-0.83,0.66
				c-0.32,0.16-0.71,0.24-1.14,0.24c-0.36,0-0.7-0.06-1-0.18c-0.31-0.12-0.58-0.29-0.8-0.51c-0.22-0.22-0.4-0.48-0.53-0.79
				c-0.13-0.3-0.19-0.64-0.19-1.01v-0.02c0-0.34,0.06-0.67,0.18-0.97c0.12-0.31,0.28-0.57,0.49-0.8c0.21-0.23,0.46-0.41,0.75-0.54
				s0.61-0.2,0.97-0.2c0.4,0,0.75,0.07,1.04,0.22c0.29,0.14,0.54,0.34,0.73,0.58s0.34,0.52,0.43,0.84c0.09,0.32,0.14,0.64,0.14,0.99
				v0.02C161.77,81.64,161.76,81.69,161.76,81.74z M160.11,80.32c-0.17-0.19-0.41-0.28-0.69-0.28c-0.29,0-0.52,0.09-0.7,0.28
				c-0.18,0.19-0.29,0.44-0.35,0.75h2.06C160.39,80.75,160.28,80.5,160.11,80.32z"/>
			<path class="st1" d="M166.18,83.08c-0.09,0.2-0.22,0.36-0.39,0.48s-0.36,0.22-0.59,0.28c-0.22,0.06-0.47,0.09-0.72,0.09
				c-0.34,0-0.69-0.06-1.05-0.17c-0.36-0.12-0.7-0.3-1.02-0.55l0.58-0.9c0.26,0.19,0.53,0.34,0.79,0.43
				c0.26,0.1,0.51,0.14,0.73,0.14c0.2,0,0.34-0.03,0.44-0.1c0.09-0.07,0.14-0.15,0.14-0.26v-0.02c0-0.07-0.03-0.13-0.08-0.19
				c-0.05-0.05-0.13-0.1-0.22-0.14c-0.09-0.04-0.2-0.08-0.32-0.11c-0.12-0.04-0.25-0.07-0.38-0.12c-0.17-0.05-0.34-0.11-0.51-0.18
				c-0.17-0.07-0.33-0.16-0.46-0.27c-0.14-0.11-0.25-0.25-0.34-0.41c-0.09-0.16-0.13-0.36-0.13-0.59v-0.02
				c0-0.25,0.05-0.46,0.14-0.65c0.09-0.19,0.22-0.35,0.38-0.48s0.35-0.23,0.56-0.3c0.21-0.07,0.44-0.1,0.69-0.1
				c0.31,0,0.62,0.05,0.93,0.15c0.31,0.1,0.61,0.24,0.87,0.41l-0.52,0.95c-0.24-0.14-0.47-0.25-0.7-0.33s-0.43-0.12-0.6-0.12
				c-0.17,0-0.29,0.03-0.38,0.09c-0.08,0.06-0.13,0.14-0.13,0.24v0.02c0,0.07,0.03,0.12,0.08,0.18c0.05,0.05,0.12,0.1,0.21,0.14
				s0.19,0.09,0.31,0.13s0.24,0.08,0.38,0.13c0.17,0.05,0.34,0.12,0.51,0.19c0.17,0.08,0.33,0.17,0.47,0.27
				c0.14,0.11,0.25,0.24,0.34,0.4s0.13,0.34,0.13,0.57v0.02C166.32,82.65,166.27,82.88,166.18,83.08z"/>
			<path class="st1" d="M170.03,78.49v-1.21h1.44v1.21H170.03z M170.06,83.85v-4.82h1.37v4.82H170.06z"/>
			<path class="st1" d="M178.71,83.85v-2.68c0-0.32-0.07-0.57-0.21-0.73c-0.14-0.16-0.34-0.25-0.59-0.25s-0.46,0.08-0.61,0.25
				c-0.15,0.17-0.22,0.41-0.22,0.73v2.68h-1.37v-2.68c0-0.32-0.07-0.57-0.21-0.73c-0.14-0.16-0.34-0.25-0.6-0.25
				s-0.46,0.08-0.61,0.25c-0.15,0.17-0.22,0.41-0.22,0.73v2.68h-1.37v-4.82h1.37v0.69c0.08-0.1,0.16-0.2,0.26-0.29
				c0.09-0.09,0.2-0.18,0.31-0.25c0.11-0.07,0.24-0.13,0.38-0.17c0.14-0.04,0.3-0.06,0.47-0.06c0.32,0,0.59,0.07,0.82,0.2
				c0.23,0.13,0.41,0.32,0.54,0.57c0.21-0.25,0.45-0.45,0.7-0.58s0.55-0.2,0.88-0.2c0.51,0,0.91,0.15,1.2,0.45
				c0.29,0.3,0.43,0.74,0.43,1.32v3.14H178.71z"/>
			<path class="st1" d="M186.15,82.51c-0.12,0.31-0.29,0.57-0.48,0.78c-0.2,0.21-0.43,0.37-0.7,0.48c-0.26,0.11-0.54,0.16-0.83,0.16
				c-0.37,0-0.67-0.07-0.91-0.21c-0.24-0.14-0.44-0.31-0.6-0.5v2.06h-1.37v-6.26h1.37v0.69c0.17-0.23,0.37-0.41,0.61-0.56
				c0.24-0.15,0.54-0.22,0.9-0.22c0.28,0,0.55,0.05,0.82,0.16c0.26,0.11,0.5,0.27,0.7,0.48c0.21,0.21,0.37,0.47,0.49,0.78
				c0.12,0.31,0.19,0.67,0.19,1.07v0.02C186.33,81.85,186.27,82.2,186.15,82.51z M184.97,81.43c0-0.2-0.03-0.38-0.09-0.55
				s-0.15-0.31-0.26-0.43c-0.11-0.12-0.23-0.21-0.37-0.27c-0.14-0.06-0.29-0.09-0.46-0.09s-0.31,0.03-0.46,0.09
				c-0.14,0.06-0.26,0.15-0.37,0.27c-0.11,0.12-0.19,0.26-0.25,0.43s-0.09,0.35-0.09,0.55v0.02c0,0.2,0.03,0.38,0.09,0.55
				s0.15,0.31,0.25,0.43s0.23,0.21,0.37,0.27s0.29,0.1,0.46,0.1s0.31-0.03,0.46-0.1c0.14-0.06,0.26-0.15,0.37-0.27
				c0.11-0.12,0.19-0.26,0.26-0.42s0.09-0.35,0.09-0.55V81.43z"/>
			<path class="st1" d="M190.18,80.37c-0.46,0-0.81,0.14-1.08,0.41c-0.26,0.28-0.39,0.71-0.39,1.29v1.78h-1.37v-4.82h1.37V80
				c0.14-0.33,0.33-0.59,0.57-0.79s0.56-0.29,0.97-0.27v1.43H190.18z"/>
			<path class="st1" d="M195.89,82.42c-0.13,0.3-0.32,0.57-0.55,0.8c-0.23,0.23-0.51,0.41-0.83,0.54c-0.32,0.13-0.67,0.2-1.04,0.2
				c-0.37,0-0.72-0.06-1.04-0.19s-0.59-0.31-0.82-0.53c-0.23-0.22-0.41-0.49-0.54-0.79c-0.13-0.3-0.2-0.63-0.2-0.98v-0.02
				c0-0.35,0.07-0.67,0.2-0.98c0.13-0.3,0.31-0.57,0.55-0.8c0.23-0.23,0.51-0.41,0.83-0.54c0.32-0.13,0.67-0.2,1.04-0.2
				c0.37,0,0.72,0.06,1.04,0.19c0.32,0.13,0.59,0.31,0.82,0.53c0.23,0.23,0.41,0.49,0.54,0.79c0.13,0.3,0.2,0.63,0.2,0.98v0.02
				C196.09,81.79,196.02,82.12,195.89,82.42z M194.74,81.45c0-0.18-0.03-0.35-0.09-0.51c-0.06-0.16-0.15-0.3-0.26-0.42
				s-0.25-0.22-0.4-0.29s-0.33-0.11-0.51-0.11c-0.2,0-0.37,0.03-0.53,0.1c-0.15,0.07-0.28,0.16-0.39,0.28s-0.19,0.26-0.25,0.42
				c-0.06,0.16-0.09,0.33-0.09,0.51v0.02c0,0.18,0.03,0.35,0.09,0.51c0.06,0.16,0.15,0.3,0.26,0.42c0.12,0.12,0.25,0.22,0.4,0.29
				c0.15,0.07,0.33,0.11,0.52,0.11c0.2,0,0.37-0.04,0.53-0.1c0.15-0.07,0.28-0.16,0.39-0.28c0.11-0.12,0.19-0.26,0.25-0.42
				s0.09-0.33,0.09-0.51V81.45z"/>
			<path class="st1" d="M199.79,83.88h-1.24l-1.9-4.86h1.45l1.08,3.23l1.09-3.23h1.42L199.79,83.88z"/>
			<path class="st1" d="M206.98,81.74c0,0.05-0.01,0.1-0.01,0.17h-3.36c0.06,0.31,0.2,0.55,0.41,0.71c0.21,0.16,0.46,0.24,0.77,0.24
				c0.23,0,0.43-0.04,0.61-0.12c0.18-0.08,0.37-0.2,0.56-0.38l0.78,0.69c-0.23,0.28-0.5,0.5-0.83,0.66
				c-0.32,0.16-0.71,0.24-1.14,0.24c-0.36,0-0.7-0.06-1-0.18c-0.31-0.12-0.58-0.29-0.8-0.51c-0.22-0.22-0.4-0.48-0.53-0.79
				c-0.13-0.3-0.19-0.64-0.19-1.01v-0.02c0-0.34,0.06-0.67,0.18-0.97c0.12-0.31,0.28-0.57,0.49-0.8c0.21-0.23,0.46-0.41,0.75-0.54
				s0.61-0.2,0.97-0.2c0.4,0,0.75,0.07,1.04,0.22c0.29,0.14,0.54,0.34,0.73,0.58s0.34,0.52,0.43,0.84c0.09,0.32,0.14,0.64,0.14,0.99
				v0.02C206.98,81.64,206.98,81.69,206.98,81.74z M205.33,80.32c-0.17-0.19-0.41-0.28-0.69-0.28c-0.29,0-0.52,0.09-0.7,0.28
				c-0.18,0.19-0.29,0.44-0.35,0.75h2.06C205.61,80.75,205.5,80.5,205.33,80.32z"/>
			<path class="st1" d="M213.99,83.85v-2.68c0-0.32-0.07-0.57-0.21-0.73c-0.14-0.16-0.34-0.25-0.59-0.25s-0.46,0.08-0.61,0.25
				c-0.15,0.17-0.22,0.41-0.22,0.73v2.68H211v-2.68c0-0.32-0.07-0.57-0.21-0.73c-0.14-0.16-0.34-0.25-0.6-0.25s-0.46,0.08-0.61,0.25
				c-0.15,0.17-0.22,0.41-0.22,0.73v2.68H208v-4.82h1.37v0.69c0.08-0.1,0.16-0.2,0.26-0.29c0.09-0.09,0.2-0.18,0.31-0.25
				c0.11-0.07,0.24-0.13,0.38-0.17c0.14-0.04,0.3-0.06,0.47-0.06c0.32,0,0.59,0.07,0.82,0.2c0.23,0.13,0.41,0.32,0.54,0.57
				c0.21-0.25,0.45-0.45,0.7-0.58s0.55-0.2,0.88-0.2c0.51,0,0.91,0.15,1.2,0.45c0.29,0.3,0.43,0.74,0.43,1.32v3.14H213.99z"/>
			<path class="st1" d="M221.04,81.74c0,0.05-0.01,0.1-0.01,0.17h-3.36c0.06,0.31,0.2,0.55,0.41,0.71c0.21,0.16,0.46,0.24,0.77,0.24
				c0.23,0,0.43-0.04,0.61-0.12c0.18-0.08,0.37-0.2,0.56-0.38l0.78,0.69c-0.23,0.28-0.5,0.5-0.83,0.66
				c-0.32,0.16-0.71,0.24-1.14,0.24c-0.36,0-0.7-0.06-1-0.18c-0.31-0.12-0.58-0.29-0.8-0.51c-0.22-0.22-0.4-0.48-0.53-0.79
				c-0.13-0.3-0.19-0.64-0.19-1.01v-0.02c0-0.34,0.06-0.67,0.18-0.97c0.12-0.31,0.28-0.57,0.49-0.8c0.21-0.23,0.46-0.41,0.75-0.54
				s0.61-0.2,0.97-0.2c0.4,0,0.75,0.07,1.04,0.22c0.29,0.14,0.54,0.34,0.73,0.58s0.34,0.52,0.43,0.84c0.09,0.32,0.14,0.64,0.14,0.99
				v0.02C221.05,81.64,221.05,81.69,221.04,81.74z M219.39,80.32c-0.17-0.19-0.41-0.28-0.69-0.28c-0.29,0-0.52,0.09-0.7,0.28
				c-0.18,0.19-0.29,0.44-0.35,0.75h2.06C219.67,80.75,219.57,80.5,219.39,80.32z"/>
			<path class="st1" d="M225.11,83.85v-2.68c0-0.32-0.07-0.57-0.21-0.73c-0.14-0.16-0.35-0.25-0.61-0.25s-0.47,0.08-0.62,0.25
				c-0.15,0.17-0.23,0.41-0.23,0.73v2.68h-1.37v-4.82h1.37v0.69c0.08-0.1,0.16-0.2,0.26-0.29c0.09-0.09,0.2-0.18,0.31-0.25
				c0.11-0.07,0.24-0.13,0.38-0.17c0.14-0.04,0.29-0.06,0.47-0.06c0.52,0,0.93,0.16,1.21,0.48c0.29,0.32,0.43,0.76,0.43,1.31v3.12
				H225.11z"/>
			<path class="st1" d="M229.9,83.85c-0.17,0.05-0.38,0.08-0.6,0.08c-0.21,0-0.4-0.02-0.57-0.07s-0.32-0.12-0.44-0.24
				s-0.22-0.26-0.29-0.45c-0.07-0.18-0.1-0.42-0.1-0.7v-2.29h-0.58v-1.17h0.58v-1.23h1.37v1.23h1.13v1.17h-1.13v2.06
				c0,0.31,0.15,0.47,0.44,0.47c0.24,0,0.46-0.06,0.68-0.17v1.1C230.24,83.73,230.08,83.8,229.9,83.85z"/>
		</g>
	</g>
	<g>
		<g>
			<rect x="3.19" y="3.57" class="st1" width="84.42" height="84.42"/>
			<linearGradient id="SVGID_1_" gradientUnits="userSpaceOnUse" x1="92.2158" y1="6.7868" x2="35.0322" y2="105.8317">
				<stop  offset="0" style="stop-color:#172852"/>
				<stop  offset="0.0271" style="stop-color:#182D56"/>
				<stop  offset="0.069" style="stop-color:#1C3A63"/>
				<stop  offset="0.1203" style="stop-color:#23507A"/>
				<stop  offset="0.1787" style="stop-color:#2C709F"/>
				<stop  offset="0.2365" style="stop-color:#2E9ED9"/>
				<stop  offset="0.3735" style="stop-color:#265984"/>
				<stop  offset="0.4709" style="stop-color:#1B365E"/>
				<stop  offset="0.5175" style="stop-color:#172852"/>
				<stop  offset="0.5493" style="stop-color:#182C55"/>
				<stop  offset="0.5943" style="stop-color:#1B3860"/>
				<stop  offset="0.6471" style="stop-color:#224A73"/>
				<stop  offset="0.7059" style="stop-color:#2A6592"/>
				<stop  offset="0.769" style="stop-color:#2F8DC1"/>
				<stop  offset="0.7882" style="stop-color:#2E9ED9"/>
				<stop  offset="0.798" style="stop-color:#2F92C8"/>
				<stop  offset="0.8495" style="stop-color:#2B6895"/>
				<stop  offset="0.8971" style="stop-color:#224C75"/>
				<stop  offset="0.9396" style="stop-color:#1B3861"/>
				<stop  offset="0.9754" style="stop-color:#182C55"/>
				<stop  offset="1" style="stop-color:#172852"/>
			</linearGradient>
			<polygon class="st3" points="87.36,87.71 3.64,87.71 87.36,3.98 			"/>
		</g>
		<g>
			<g>
				<path class="st4" d="M24.72,24.82v22.54H18.5V24.82H9.9v-5.74h23.43v5.74H24.72z"/>
				<path class="st4" d="M35.79,47.36V19.08h21.28v5.53H41.93v5.74h13.33v5.53H41.93v5.94h15.35v5.53H35.79z"/>
				<path class="st4" d="M65.6,24.7v6.1h13.49v5.61H65.6v10.95h-6.22V19.08h21.53v5.61H65.6z"/>
			</g>
			<g>
				<path class="st4" d="M16.97,55.29c-0.79,0.56-1.58,1.39-2.35,2.47l-1.6-1.16c0.44-0.64,0.89-1.22,1.35-1.74
					c0.46-0.51,0.96-0.94,1.51-1.29c0.54-0.35,1.15-0.61,1.82-0.79c0.67-0.18,1.43-0.27,2.28-0.27c0.88,0,1.69,0.14,2.42,0.41
					c0.73,0.28,1.36,0.66,1.89,1.15c0.53,0.49,0.95,1.07,1.24,1.74c0.29,0.67,0.44,1.41,0.44,2.2c0,0.72-0.1,1.37-0.29,1.96
					c-0.19,0.59-0.49,1.18-0.9,1.76c-0.41,0.58-0.91,1.18-1.52,1.8c-0.61,0.62-1.34,1.3-2.18,2.03l-5.17,4.59h10.26v1.99H12.65
					v-1.69l7.02-6.2c0.74-0.66,1.36-1.26,1.88-1.8c0.52-0.54,0.94-1.04,1.26-1.51c0.32-0.47,0.55-0.93,0.69-1.38
					c0.14-0.45,0.21-0.92,0.21-1.4c0-0.57-0.11-1.08-0.32-1.54c-0.21-0.45-0.49-0.84-0.84-1.16c-0.35-0.32-0.77-0.57-1.24-0.75
					c-0.48-0.18-0.98-0.26-1.49-0.26C18.71,54.45,17.76,54.73,16.97,55.29z"/>
				<path class="st4" d="M44.78,66.31c-0.39,1.22-0.94,2.28-1.65,3.19c-0.71,0.91-1.57,1.64-2.59,2.17c-1.01,0.53-2.14,0.8-3.37,0.8
					c-1.25,0-2.38-0.26-3.39-0.79c-1-0.53-1.86-1.24-2.57-2.16c-0.71-0.91-1.25-1.97-1.63-3.18c-0.38-1.21-0.57-2.49-0.57-3.86
					c0-1.36,0.19-2.65,0.58-3.87c0.39-1.22,0.94-2.28,1.65-3.19c0.71-0.91,1.57-1.64,2.59-2.17c1.01-0.53,2.15-0.8,3.4-0.8
					c1.23,0,2.35,0.26,3.36,0.79c1,0.53,1.86,1.24,2.57,2.16c0.71,0.91,1.25,1.97,1.63,3.18c0.38,1.21,0.57,2.49,0.57,3.86
					C45.36,63.8,45.17,65.09,44.78,66.31z M42.68,59.44c-0.28-0.97-0.67-1.82-1.19-2.56c-0.52-0.74-1.14-1.33-1.87-1.77
					c-0.73-0.44-1.54-0.66-2.45-0.66c-0.9,0-1.72,0.22-2.45,0.65c-0.73,0.43-1.35,1.01-1.85,1.74c-0.51,0.73-0.9,1.58-1.18,2.54
					c-0.28,0.97-0.41,1.99-0.41,3.06c0,1.07,0.14,2.09,0.41,3.07c0.28,0.98,0.67,1.83,1.19,2.57c0.52,0.74,1.14,1.32,1.88,1.76
					c0.74,0.43,1.56,0.65,2.46,0.65c0.9,0,1.72-0.22,2.45-0.65c0.73-0.43,1.35-1.01,1.85-1.74c0.51-0.73,0.89-1.58,1.16-2.54
					c0.27-0.97,0.4-1.99,0.4-3.06C43.1,61.42,42.96,60.41,42.68,59.44z"/>
				<path class="st4" d="M51.86,55.29c-0.79,0.56-1.58,1.39-2.35,2.47l-1.6-1.16c0.44-0.64,0.89-1.22,1.35-1.74
					c0.46-0.51,0.96-0.94,1.51-1.29c0.54-0.35,1.15-0.61,1.82-0.79c0.67-0.18,1.43-0.27,2.28-0.27c0.88,0,1.69,0.14,2.42,0.41
					c0.73,0.28,1.36,0.66,1.89,1.15c0.53,0.49,0.95,1.07,1.24,1.74c0.3,0.67,0.44,1.41,0.44,2.2c0,0.72-0.1,1.37-0.29,1.96
					c-0.19,0.59-0.49,1.18-0.9,1.76c-0.41,0.58-0.91,1.18-1.52,1.8c-0.61,0.62-1.34,1.3-2.18,2.03l-5.17,4.59h10.26v1.99H47.55
					v-1.69l7.02-6.2c0.74-0.66,1.36-1.26,1.88-1.8c0.52-0.54,0.94-1.04,1.26-1.51c0.32-0.47,0.55-0.93,0.69-1.38
					c0.14-0.45,0.21-0.92,0.21-1.4c0-0.57-0.11-1.08-0.32-1.54c-0.21-0.45-0.49-0.84-0.84-1.16c-0.35-0.32-0.77-0.57-1.24-0.75
					c-0.48-0.18-0.98-0.26-1.49-0.26C53.6,54.45,52.65,54.73,51.86,55.29z"/>
				<path class="st4" d="M65.52,54.72v-1.94h12.34v1.6l-6.06,6.75c0.85,0.07,1.66,0.23,2.43,0.47c0.77,0.24,1.45,0.58,2.03,1.02
					s1.04,1,1.38,1.66c0.35,0.66,0.52,1.44,0.52,2.32c0,0.87-0.17,1.66-0.5,2.38c-0.34,0.72-0.79,1.34-1.37,1.85
					c-0.58,0.52-1.26,0.92-2.04,1.2c-0.78,0.29-1.63,0.43-2.53,0.43c-1.62,0-3.03-0.32-4.23-0.95c-1.2-0.64-2.19-1.47-2.99-2.5
					l1.58-1.41c0.76,0.92,1.59,1.63,2.5,2.13c0.91,0.5,1.97,0.75,3.17,0.75c0.59,0,1.14-0.09,1.66-0.26
					c0.52-0.17,0.96-0.43,1.34-0.76c0.38-0.33,0.68-0.73,0.9-1.2s0.33-0.99,0.33-1.56c0-1.22-0.5-2.15-1.51-2.79
					c-1.01-0.65-2.31-0.97-3.91-0.97h-1.24l-0.44-1.3l6.11-6.91H65.52z"/>
			</g>
		</g>
	</g>
</g>
</svg>
