<svg width="11" height="13" viewBox="0 0 11 13" fill="none" xmlns="http://www.w3.org/2000/svg">
<path d="M4.01366 10.493L6.27716 12.5438C6.37618 12.6335 6.50274 12.6804 6.63107 12.6804C6.70314 12.6804 6.77638 12.6657 6.84494 12.6352C7.03536 12.5509 7.15841 12.3616 7.15841 12.153V6.77643L10.4812 1.11093C10.5767 0.948041 10.5779 0.745886 10.4841 0.581831C10.3904 0.417776 10.2158 0.316406 10.0265 0.316406L0.972665 0.316992C0.78341 0.316992 0.608795 0.418359 0.515045 0.582417C0.421295 0.746475 0.421881 0.948042 0.517974 1.11151L3.84018 6.77641V10.1022C3.84018 10.251 3.90346 10.3928 4.01361 10.493L4.01366 10.493ZM9.10601 1.37169L8.70639 2.05314H2.29269L1.89308 1.37169H9.10601ZM2.91146 3.10779H8.08766L6.17636 6.36624C6.12889 6.4471 6.1037 6.53908 6.1037 6.63283V10.9635L4.89491 9.86836V6.63286C4.89491 6.53911 4.86971 6.44712 4.82225 6.36627L2.91146 3.10779Z" fill="#5F607C"/>
</svg>
