<svg width="10" height="11" xmlns="http://www.w3.org/2000/svg">

 <g>
  <title>background</title>
  <rect fill="none" id="canvas_background" height="13" width="12" y="-1" x="-1"/>
 </g>
 <g>
  <title>Layer 1</title>
  <path id="svg_1" fill="#5F607C" d="m8.967979,8.378604c-0.00384,-0.01117 -0.00469,-0.02235 -0.00938,-0.03395c-0.02091,-0.04985 -0.05077,-0.09369 -0.08789,-0.13322c-0.00299,-0.00387 -0.00427,-0.00902 -0.00768,-0.01203c-0.00768,-0.00774 -0.01749,-0.00988 -0.02517,-0.01633c-0.02987,-0.02708 -0.064,-0.04899 -0.10154,-0.0679c-0.01493,-0.00774 -0.02901,-0.01504 -0.04522,-0.02063c-0.00982,-0.00344 -0.01835,-0.00945 -0.02859,-0.01246l-1.75393,-0.49336c-0.24275,-0.06704 -0.49275,0.07478 -0.56059,0.31844c-0.06698,0.24324 0.07424,0.49679 0.31613,0.56426l0.9083,0.2557c-1.58617,1.04643 -3.74453,0.87024 -5.13837,-0.52859c-1.02861,-1.03311 -1.43435,-2.55181 -1.0589,-3.96529c0.06528,-0.24496 -0.07935,-0.49592 -0.32167,-0.56168c-0.24404,-0.06704 -0.49191,0.0795 -0.55719,0.32317c-0.45948,1.72933 0.03712,3.58837 1.29521,4.85267c0.97443,0.97853 2.2548,1.46849 3.53505,1.46849c1.00429,0 2.00601,-0.30555 2.86271,-0.9072l0.12032,0.98498c0.02773,0.23206 0.22398,0.40224 0.45052,0.40224c0.01877,0 0.03712,-0.00086 0.05589,-0.00301c0.24958,-0.03095 0.42706,-0.25914 0.39634,-0.5114l-0.21972,-1.81481c-0.00341,-0.02966 -0.0145,-0.05845 -0.02474,-0.0881l0.00011,0.00001z"/>
  <g id="svg_6">
   <path id="svg_5" fill="#5F607C" d="m238.408877,-119.351565c-136.554183,-136.972517 -349.177611,-151.410133 -502.173174,-43.949375l-9.442727,-77.374477c-2.37736,-19.766074 -20.559573,-33.695881 -39.746416,-31.335003c-19.589479,2.462126 -33.519286,20.372775 -31.141141,40.070566l17.311797,142.47286c0.300604,2.395412 1.171805,4.621293 1.975509,6.914672c0.301389,0.876696 0.368102,1.787925 0.736205,2.664621c1.641155,3.912559 3.984766,7.45466 6.89819,10.489738c0.200926,0.303743 0.301389,0.707949 0.569028,0.944194c0.569028,0.573737 1.306018,0.776233 1.942544,1.315436c2.37736,2.158382 5.056109,3.878809 8.002497,5.329242c1.171805,0.607487 2.276897,1.14669 3.549166,1.58543c0.837452,0.236245 1.506943,0.775448 2.276897,1.011693l137.66006,38.688416c3.214812,0.910445 6.462589,1.382934 9.643653,1.382934c15.637677,0 29.969336,-10.42224 34.388918,-26.309504c5.290784,-19.192336 -5.826063,-38.991374 -24.77823,-44.320617l-71.289409,-20.035283c124.493142,-82.198266 293.929301,-68.369706 403.327109,41.454285c80.799634,81.119075 112.578087,200.351258 83.109496,311.25601c-5.156572,19.226086 6.261664,38.923876 25.24758,44.085157c3.11435,0.842946 6.227914,1.281687 9.241801,1.281687c15.804853,0 30.26994,-10.62552 34.522345,-26.714495c35.895862,-135.729289 -3.11435,-281.673613 -101.828557,-380.904263l-0.003139,-0.003924z"/>
  </g>
  <path transform="rotate(-180 5.427566051483154,3.6190493106842037) " id="svg_7" fill="#5F607C" d="m9.623717,4.772048c-0.00384,-0.01117 -0.00469,-0.02235 -0.00938,-0.03395c-0.02091,-0.04985 -0.05077,-0.09369 -0.08789,-0.13322c-0.00299,-0.00387 -0.00427,-0.00902 -0.00768,-0.01203c-0.00768,-0.00774 -0.01749,-0.00988 -0.02517,-0.01633c-0.02987,-0.02708 -0.064,-0.04899 -0.10154,-0.0679c-0.01493,-0.00774 -0.02901,-0.01504 -0.04522,-0.02063c-0.00982,-0.00344 -0.01835,-0.00945 -0.02859,-0.01246l-1.75393,-0.49336c-0.24275,-0.06704 -0.49275,0.07478 -0.56059,0.31844c-0.06698,0.24324 0.07424,0.49679 0.31613,0.56426l0.9083,0.2557c-1.58617,1.04643 -3.74453,0.87024 -5.13837,-0.52859c-1.02861,-1.03311 -1.43435,-2.55181 -1.0589,-3.96529c0.06528,-0.24496 -0.07935,-0.49592 -0.32167,-0.56168c-0.24404,-0.06704 -0.49191,0.0795 -0.55719,0.32317c-0.45948,1.72933 0.03712,3.58837 1.29521,4.85267c0.97443,0.97853 2.2548,1.46849 3.53505,1.46849c1.00429,0 2.00601,-0.30555 2.86271,-0.9072l0.12032,0.98498c0.02773,0.23206 0.22398,0.40224 0.45052,0.40224c0.01877,0 0.03712,-0.00086 0.05589,-0.00301c0.24958,-0.03095 0.42706,-0.25914 0.39634,-0.5114l-0.21972,-1.81481c-0.00341,-0.02966 -0.0145,-0.05845 -0.02474,-0.0881l0.00011,0.00001z"/>
 </g>
</svg>