<svg width="24" height="24" viewBox="0 0 24 24" fill="none" xmlns="http://www.w3.org/2000/svg">
<path d="M7 5H18V18.5L12.5 14L7 17.5V5Z" fill="#FBD950"/>
<path d="M6 5.93328C6 4.97599 6.72754 4.19995 7.625 4.19995H17.375C18.2725 4.19995 19 4.97599 19 5.93328V18.7407C19 19.0653 18.8299 19.3628 18.5593 19.5113C18.2887 19.6599 17.9629 19.6346 17.7152 19.4459L12.5 15.4724L7.28476 19.4459C7.03709 19.6346 6.71134 19.6599 6.44071 19.5113C6.17009 19.3628 6 19.0653 6 18.7407V5.93328ZM17.375 5.93328L7.625 5.93328V17.0566L12.0277 13.7021C12.3102 13.4869 12.6898 13.4869 12.9723 13.7021L17.375 17.0566V5.93328Z" fill="#FFFFFF"/>
</svg>
