<?xml version="1.0" standalone="no"?>
<!DOCTYPE svg PUBLIC "-//W3C//DTD SVG 20010904//EN"
 "http://www.w3.org/TR/2001/REC-SVG-20010904/DTD/svg10.dtd">
<svg version="1.0" xmlns="http://www.w3.org/2000/svg"
 width="214.000000pt" height="214.000000pt" viewBox="0 0 214.000000 214.000000"
 preserveAspectRatio="xMidYMid meet">
<metadata>
Created by potrace 1.14, written by Peter Selinger 2001-2017
</metadata>
<g transform="translate(0.000000,214.000000) scale(0.100000,-0.100000)"
fill="#000000" stroke="none">
<path d="M623 1837 l-452 -261 0 -522 0 -522 212 -123 c117 -67 298 -172 402
-232 105 -60 211 -123 237 -138 30 -18 54 -26 65 -22 10 4 140 77 288 163 149
86 340 196 425 245 85 48 161 94 169 101 12 11 14 94 13 511 0 274 -1 508 -1
520 -1 17 -32 39 -148 106 -82 47 -164 94 -183 105 -19 12 -46 27 -60 35 -14
7 -84 48 -157 90 -72 42 -147 85 -165 95 -18 11 -57 33 -86 50 -116 70 -49 94
-559 -201z m572 -207 c6 -4 35 -21 65 -38 169 -93 356 -204 365 -216 6 -8 10
-130 9 -327 -2 -354 -1 -329 -14 -329 -5 0 -34 -16 -64 -35 -30 -19 -58 -35
-61 -35 -3 0 -22 -11 -43 -24 -53 -34 -370 -216 -375 -216 -7 0 -541 311 -551
321 -10 9 -12 631 -3 646 3 4 23 17 44 28 21 10 45 24 53 31 8 6 40 24 70 40
30 15 62 33 70 40 8 6 40 25 70 41 30 17 98 55 150 86 l94 56 56 -31 c30 -17
60 -34 65 -38z"/>
</g>
</svg>
