<?xml version="1.0" encoding="utf-8"?>
<!-- Generator: Adobe Illustrator 27.7.0, SVG Export Plug-In . SVG Version: 6.00 Build 0)  -->
<svg version="1.1" id="Layer_1" xmlns="http://www.w3.org/2000/svg" xmlns:xlink="http://www.w3.org/1999/xlink" x="0px" y="0px"
	 viewBox="0 0 396.85 170.08" style="enable-background:new 0 0 396.85 170.08;" xml:space="preserve">
<style type="text/css">
	.st0{fill:#1E284F;}
	.st1{fill:url(#SVGID_1_);stroke:#1E284F;stroke-width:0.5;stroke-miterlimit:10;}
	.st2{fill:#FFFFFF;}
</style>
<g>
	<g>
		<path class="st0" d="M182,51.94h-3V28.12h-8.93v-2.77h20.86v2.77H182V51.94z"/>
		<path class="st0" d="M194.28,46.03c0.4,0.82,0.92,1.52,1.56,2.09c0.63,0.57,1.34,1,2.13,1.29c0.79,0.29,1.61,0.44,2.47,0.44
			c1.37,0,2.54-0.25,3.52-0.76c0.97-0.51,1.87-1.18,2.68-2.01l1.82,1.63c-0.99,1.12-2.12,2.01-3.38,2.68
			c-1.27,0.67-2.84,1.01-4.71,1.01c-1.34,0-2.61-0.25-3.8-0.74c-1.19-0.49-2.23-1.19-3.12-2.09c-0.89-0.9-1.6-1.98-2.13-3.25
			c-0.53-1.27-0.79-2.66-0.79-4.18c0-1.42,0.23-2.75,0.7-4.01s1.12-2.34,1.96-3.27c0.84-0.92,1.83-1.65,2.98-2.19
			c1.15-0.53,2.41-0.8,3.78-0.8c1.44,0,2.74,0.27,3.88,0.82c1.14,0.54,2.1,1.29,2.89,2.22c0.79,0.94,1.38,2.04,1.79,3.31
			c0.4,1.27,0.61,2.62,0.61,4.07c0,0.13,0,0.27,0,0.42c0,0.15-0.01,0.32-0.04,0.49h-15.54C193.62,44.27,193.87,45.21,194.28,46.03z
			 M206.1,41.04c-0.08-0.89-0.26-1.74-0.55-2.55c-0.29-0.81-0.69-1.52-1.21-2.13c-0.52-0.61-1.15-1.1-1.89-1.46
			c-0.74-0.37-1.61-0.55-2.59-0.55c-0.86,0-1.65,0.17-2.38,0.51c-0.73,0.34-1.37,0.81-1.93,1.41s-1.01,1.3-1.36,2.11
			c-0.35,0.81-0.58,1.7-0.68,2.66H206.1z"/>
		<path class="st0" d="M218.62,35.01c-0.95,0.27-1.88,0.61-2.79,1.05l-0.87-2.39c1.09-0.51,2.19-0.91,3.31-1.2
			c1.11-0.29,2.39-0.44,3.84-0.44c2.69,0,4.75,0.67,6.19,2s2.17,3.3,2.17,5.91v12.01h-2.81v-2.96c-0.68,0.89-1.6,1.67-2.75,2.36
			s-2.6,1.03-4.35,1.03c-0.91,0-1.8-0.13-2.68-0.38s-1.66-0.64-2.36-1.16c-0.7-0.52-1.25-1.16-1.67-1.92
			c-0.42-0.76-0.63-1.66-0.63-2.7c0-1.04,0.2-1.96,0.61-2.76c0.41-0.8,0.98-1.46,1.73-1.99c0.75-0.53,1.63-0.94,2.66-1.22
			c1.03-0.28,2.16-0.42,3.4-0.42c1.27,0,2.37,0.08,3.31,0.23c0.94,0.15,1.85,0.35,2.74,0.61v-0.68c0-1.77-0.51-3.11-1.54-4.01
			c-1.03-0.9-2.46-1.35-4.31-1.35C220.62,34.61,219.57,34.75,218.62,35.01z M217.68,43.09c-0.99,0.73-1.48,1.74-1.48,3
			c0,0.63,0.13,1.19,0.4,1.67c0.26,0.48,0.62,0.89,1.08,1.24c0.45,0.34,0.98,0.6,1.57,0.78c0.59,0.18,1.22,0.27,1.88,0.27
			c0.91,0,1.76-0.13,2.56-0.4c0.8-0.27,1.49-0.63,2.08-1.1c0.59-0.47,1.06-1.03,1.4-1.67c0.34-0.65,0.51-1.36,0.51-2.15v-1.9
			c-0.73-0.2-1.57-0.39-2.52-0.57c-0.95-0.18-2.03-0.27-3.24-0.27C220.08,41.99,218.67,42.35,217.68,43.09z"/>
		<path class="st0" d="M250.65,51.32c-1.25,0.72-2.81,1.08-4.66,1.08c-1.44,0-2.78-0.27-4.01-0.82c-1.23-0.54-2.29-1.28-3.19-2.2
			c-0.9-0.92-1.6-2.01-2.11-3.25c-0.51-1.24-0.76-2.56-0.76-3.95c0-1.39,0.25-2.72,0.76-3.97c0.51-1.25,1.21-2.35,2.11-3.29
			c0.9-0.94,1.96-1.68,3.19-2.22c1.23-0.54,2.56-0.82,4.01-0.82c0.94,0,1.79,0.09,2.55,0.27c0.76,0.18,1.46,0.42,2.09,0.74
			c0.63,0.32,1.22,0.69,1.75,1.12c0.53,0.43,1.03,0.89,1.48,1.37l-1.94,2.05c-0.79-0.81-1.64-1.51-2.56-2.09
			c-0.93-0.58-2.06-0.87-3.4-0.87c-0.99,0-1.91,0.2-2.77,0.59c-0.86,0.39-1.61,0.94-2.24,1.63c-0.63,0.69-1.13,1.5-1.48,2.43
			c-0.36,0.92-0.53,1.91-0.53,2.98c0,1.06,0.18,2.06,0.55,2.99c0.37,0.94,0.87,1.75,1.52,2.45c0.65,0.69,1.41,1.24,2.28,1.63
			c0.87,0.39,1.83,0.59,2.87,0.59c1.27,0,2.39-0.28,3.36-0.84c0.98-0.56,1.86-1.25,2.64-2.09l1.86,1.75
			C253.03,49.68,251.91,50.6,250.65,51.32z"/>
		<path class="st0" d="M262.22,51.94h-2.93V24.2h2.93v11.51c0.66-1.06,1.52-1.97,2.58-2.72c1.06-0.75,2.44-1.12,4.14-1.12
			c1.19,0,2.25,0.19,3.17,0.57c0.92,0.38,1.71,0.92,2.36,1.62c0.65,0.7,1.14,1.53,1.48,2.49c0.34,0.96,0.51,2.03,0.51,3.19v12.2
			h-2.93V40.47c0-1.82-0.47-3.27-1.41-4.33c-0.94-1.06-2.28-1.6-4.03-1.6c-0.84,0-1.62,0.15-2.34,0.44
			c-0.72,0.29-1.35,0.71-1.88,1.25c-0.53,0.54-0.94,1.2-1.24,1.96c-0.29,0.76-0.44,1.6-0.44,2.51V51.94z"/>
		<path class="st0" d="M283.24,28v-3.23h3.34V28H283.24z M283.43,51.94V32.3h2.93v19.65H283.43z"/>
		<path class="st0" d="M296.54,51.94h-2.93V32.3h2.93v3.42c0.66-1.06,1.52-1.97,2.58-2.72c1.06-0.75,2.44-1.12,4.14-1.12
			c1.19,0,2.25,0.19,3.17,0.57c0.92,0.38,1.71,0.92,2.36,1.62c0.65,0.7,1.14,1.53,1.48,2.49c0.34,0.96,0.51,2.03,0.51,3.19v12.2
			h-2.93V40.47c0-1.82-0.47-3.27-1.41-4.33c-0.94-1.06-2.28-1.6-4.03-1.6c-0.84,0-1.62,0.15-2.34,0.44
			c-0.72,0.29-1.35,0.71-1.88,1.25c-0.53,0.54-0.94,1.2-1.24,1.96c-0.29,0.76-0.44,1.6-0.44,2.51V51.94z"/>
		<path class="st0" d="M335.47,52.7c-0.47,1.19-1.14,2.19-2.01,2.98c-0.87,0.8-1.93,1.4-3.15,1.8s-2.6,0.61-4.12,0.61
			c-1.65,0-3.22-0.23-4.71-0.68s-2.9-1.14-4.22-2.05l1.33-2.28c1.14,0.81,2.33,1.43,3.57,1.86c1.24,0.43,2.57,0.65,3.99,0.65
			c2.18,0,3.91-0.59,5.21-1.77c1.29-1.18,1.94-2.92,1.94-5.23v-2.32c-0.86,1.14-1.91,2.12-3.15,2.93c-1.24,0.81-2.76,1.22-4.56,1.22
			c-1.19,0-2.34-0.21-3.44-0.63c-1.1-0.42-2.08-1.03-2.95-1.82c-0.86-0.8-1.55-1.77-2.07-2.91c-0.52-1.14-0.78-2.43-0.78-3.88
			c0-1.44,0.26-2.74,0.78-3.9c0.52-1.15,1.21-2.13,2.07-2.93c0.86-0.8,1.85-1.41,2.96-1.84c1.11-0.43,2.25-0.65,3.42-0.65
			c0.91,0,1.75,0.11,2.53,0.32c0.77,0.22,1.47,0.5,2.09,0.85c0.62,0.36,1.18,0.77,1.69,1.25c0.51,0.48,0.96,0.99,1.37,1.52V32.3
			h2.93v16.23C336.17,50.12,335.94,51.51,335.47,52.7z M332.75,38.39c-0.41-0.82-0.94-1.53-1.62-2.11c-0.67-0.58-1.44-1.03-2.3-1.35
			c-0.86-0.32-1.76-0.48-2.7-0.48s-1.82,0.15-2.64,0.46c-0.82,0.3-1.55,0.75-2.17,1.33c-0.62,0.58-1.11,1.29-1.46,2.11
			c-0.36,0.82-0.53,1.74-0.53,2.75c0,1.01,0.18,1.93,0.55,2.75c0.37,0.82,0.86,1.53,1.48,2.13c0.62,0.6,1.34,1.05,2.17,1.37
			c0.82,0.32,1.69,0.48,2.6,0.48c0.94,0,1.84-0.16,2.7-0.48c0.86-0.32,1.63-0.77,2.3-1.35c0.67-0.58,1.21-1.29,1.62-2.11
			c0.41-0.82,0.61-1.74,0.61-2.75C333.36,40.14,333.16,39.22,332.75,38.39z"/>
		<path class="st0" d="M191.2,73.08h-16.23v9.08h14.52v2.74h-14.52v9.31h16.42v2.74h-19.42v-26.6h19.23V73.08z"/>
		<path class="st0" d="M214.46,96.94h-3.38l-6.08-8.02l-6.12,8.02h-3.27l7.71-9.99l-7.41-9.65h3.34l5.81,7.6l5.81-7.6h3.27
			l-7.45,9.58L214.46,96.94z"/>
		<path class="st0" d="M231.84,96.32c-1.25,0.72-2.81,1.08-4.66,1.08c-1.44,0-2.78-0.27-4.01-0.82c-1.23-0.54-2.29-1.28-3.19-2.2
			c-0.9-0.92-1.6-2.01-2.11-3.25c-0.51-1.24-0.76-2.56-0.76-3.95s0.25-2.72,0.76-3.97c0.51-1.25,1.21-2.35,2.11-3.29
			c0.9-0.94,1.96-1.68,3.19-2.22c1.23-0.54,2.56-0.82,4.01-0.82c0.94,0,1.79,0.09,2.55,0.27s1.46,0.42,2.09,0.74
			c0.63,0.32,1.22,0.69,1.75,1.12c0.53,0.43,1.03,0.89,1.48,1.37l-1.94,2.05c-0.79-0.81-1.64-1.51-2.56-2.09
			c-0.93-0.58-2.06-0.87-3.4-0.87c-0.99,0-1.91,0.2-2.77,0.59c-0.86,0.39-1.61,0.94-2.24,1.63c-0.63,0.69-1.13,1.5-1.48,2.43
			c-0.36,0.92-0.53,1.91-0.53,2.98c0,1.06,0.18,2.06,0.55,3c0.37,0.94,0.87,1.75,1.52,2.45c0.65,0.69,1.41,1.24,2.28,1.63
			s1.83,0.59,2.87,0.59c1.27,0,2.39-0.28,3.36-0.84c0.98-0.56,1.86-1.25,2.64-2.09l1.86,1.75C234.22,94.68,233.1,95.6,231.84,96.32z
			"/>
		<path class="st0" d="M242.46,91.03c0.4,0.82,0.92,1.52,1.56,2.09c0.63,0.57,1.34,1,2.13,1.29c0.79,0.29,1.61,0.44,2.47,0.44
			c1.37,0,2.54-0.25,3.52-0.76c0.97-0.51,1.87-1.18,2.68-2.01l1.82,1.63c-0.99,1.12-2.12,2.01-3.38,2.68
			c-1.27,0.67-2.84,1.01-4.71,1.01c-1.34,0-2.61-0.25-3.8-0.74s-2.23-1.19-3.12-2.09s-1.6-1.98-2.13-3.25
			c-0.53-1.27-0.79-2.66-0.79-4.18c0-1.42,0.23-2.76,0.7-4.01s1.12-2.34,1.96-3.27c0.84-0.92,1.83-1.65,2.98-2.19
			c1.15-0.53,2.41-0.8,3.78-0.8c1.44,0,2.74,0.27,3.88,0.82c1.14,0.54,2.1,1.29,2.89,2.22c0.79,0.94,1.38,2.04,1.79,3.31
			c0.4,1.27,0.61,2.62,0.61,4.07c0,0.13,0,0.27,0,0.42c0,0.15-0.01,0.32-0.04,0.49H241.7C241.8,89.27,242.06,90.21,242.46,91.03z
			 M254.28,86.03c-0.08-0.89-0.26-1.73-0.55-2.55c-0.29-0.81-0.69-1.52-1.21-2.13c-0.52-0.61-1.15-1.1-1.89-1.46
			c-0.74-0.37-1.61-0.55-2.59-0.55c-0.86,0-1.65,0.17-2.38,0.51c-0.73,0.34-1.37,0.81-1.93,1.41s-1.01,1.3-1.36,2.11
			c-0.35,0.81-0.58,1.7-0.68,2.66H254.28z"/>
		<path class="st0" d="M263.14,96.94V69.2h2.93v27.74H263.14z"/>
		<path class="st0" d="M273.58,96.94V69.2h2.93v27.74H273.58z"/>
		<path class="st0" d="M286.31,91.03c0.4,0.82,0.92,1.52,1.56,2.09c0.63,0.57,1.34,1,2.13,1.29c0.79,0.29,1.61,0.44,2.47,0.44
			c1.37,0,2.54-0.25,3.52-0.76c0.97-0.51,1.87-1.18,2.68-2.01l1.82,1.63c-0.99,1.12-2.12,2.01-3.38,2.68
			c-1.27,0.67-2.84,1.01-4.71,1.01c-1.34,0-2.61-0.25-3.8-0.74c-1.19-0.49-2.23-1.19-3.12-2.09s-1.6-1.98-2.13-3.25
			c-0.53-1.27-0.79-2.66-0.79-4.18c0-1.42,0.23-2.76,0.7-4.01s1.12-2.34,1.96-3.27c0.84-0.92,1.83-1.65,2.98-2.19
			c1.15-0.53,2.41-0.8,3.78-0.8c1.44,0,2.74,0.27,3.88,0.82c1.14,0.54,2.1,1.29,2.89,2.22c0.79,0.94,1.38,2.04,1.79,3.31
			c0.4,1.27,0.61,2.62,0.61,4.07c0,0.13,0,0.27,0,0.42c0,0.15-0.01,0.32-0.04,0.49h-15.54C285.66,89.27,285.91,90.21,286.31,91.03z
			 M298.13,86.03c-0.08-0.89-0.26-1.73-0.55-2.55c-0.29-0.81-0.69-1.52-1.21-2.13c-0.52-0.61-1.15-1.1-1.89-1.46
			c-0.74-0.37-1.61-0.55-2.59-0.55c-0.86,0-1.65,0.17-2.38,0.51c-0.73,0.34-1.37,0.81-1.93,1.41s-1.01,1.3-1.36,2.11
			c-0.35,0.81-0.58,1.7-0.68,2.66H298.13z"/>
		<path class="st0" d="M309.65,96.94h-2.93V77.3h2.93v3.42c0.66-1.06,1.52-1.97,2.58-2.72c1.06-0.75,2.44-1.12,4.14-1.12
			c1.19,0,2.25,0.19,3.17,0.57c0.92,0.38,1.71,0.92,2.36,1.62c0.65,0.7,1.14,1.53,1.48,2.49c0.34,0.96,0.51,2.03,0.51,3.19v12.2
			h-2.93V85.46c0-1.82-0.47-3.27-1.41-4.33c-0.94-1.06-2.28-1.6-4.03-1.6c-0.84,0-1.62,0.15-2.34,0.44
			c-0.72,0.29-1.35,0.71-1.88,1.25c-0.53,0.54-0.94,1.2-1.24,1.96c-0.29,0.76-0.44,1.6-0.44,2.51V96.94z"/>
		<path class="st0" d="M344.09,96.32c-1.25,0.72-2.81,1.08-4.66,1.08c-1.44,0-2.78-0.27-4.01-0.82c-1.23-0.54-2.29-1.28-3.19-2.2
			c-0.9-0.92-1.6-2.01-2.11-3.25c-0.51-1.24-0.76-2.56-0.76-3.95s0.25-2.72,0.76-3.97c0.51-1.25,1.21-2.35,2.11-3.29
			c0.9-0.94,1.96-1.68,3.19-2.22c1.23-0.54,2.56-0.82,4.01-0.82c0.94,0,1.79,0.09,2.55,0.27s1.46,0.42,2.09,0.74
			c0.63,0.32,1.22,0.69,1.75,1.12c0.53,0.43,1.03,0.89,1.48,1.37l-1.94,2.05c-0.79-0.81-1.64-1.51-2.56-2.09
			c-0.93-0.58-2.06-0.87-3.4-0.87c-0.99,0-1.91,0.2-2.77,0.59c-0.86,0.39-1.61,0.94-2.24,1.63c-0.63,0.69-1.13,1.5-1.48,2.43
			c-0.36,0.92-0.53,1.91-0.53,2.98c0,1.06,0.18,2.06,0.55,3c0.37,0.94,0.87,1.75,1.52,2.45c0.65,0.69,1.41,1.24,2.28,1.63
			s1.83,0.59,2.87,0.59c1.27,0,2.39-0.28,3.36-0.84c0.98-0.56,1.86-1.25,2.64-2.09l1.86,1.75C346.47,94.68,345.35,95.6,344.09,96.32
			z"/>
		<path class="st0" d="M354.71,91.03c0.4,0.82,0.92,1.52,1.56,2.09c0.63,0.57,1.34,1,2.13,1.29c0.79,0.29,1.61,0.44,2.47,0.44
			c1.37,0,2.54-0.25,3.52-0.76c0.97-0.51,1.87-1.18,2.68-2.01l1.82,1.63c-0.99,1.12-2.12,2.01-3.38,2.68
			c-1.27,0.67-2.84,1.01-4.71,1.01c-1.34,0-2.61-0.25-3.8-0.74s-2.23-1.19-3.12-2.09s-1.6-1.98-2.13-3.25
			c-0.53-1.27-0.79-2.66-0.79-4.18c0-1.42,0.23-2.76,0.7-4.01s1.12-2.34,1.96-3.27c0.84-0.92,1.83-1.65,2.98-2.19
			c1.15-0.53,2.41-0.8,3.78-0.8c1.44,0,2.74,0.27,3.88,0.82c1.14,0.54,2.1,1.29,2.89,2.22c0.79,0.94,1.38,2.04,1.79,3.31
			c0.4,1.27,0.61,2.62,0.61,4.07c0,0.13,0,0.27,0,0.42c0,0.15-0.01,0.32-0.04,0.49h-15.54C354.05,89.27,354.31,90.21,354.71,91.03z
			 M366.53,86.03c-0.08-0.89-0.26-1.73-0.55-2.55c-0.29-0.81-0.69-1.52-1.21-2.13c-0.52-0.61-1.15-1.1-1.89-1.46
			c-0.74-0.37-1.61-0.55-2.59-0.55c-0.86,0-1.65,0.17-2.38,0.51c-0.73,0.34-1.37,0.81-1.93,1.41s-1.01,1.3-1.36,2.11
			c-0.35,0.81-0.58,1.7-0.68,2.66H366.53z"/>
		<path class="st0" d="M191.09,118.12h-16.11v9.5h14.4v2.74h-14.4v11.59h-3v-26.6h19.11V118.12z"/>
		<path class="st0" d="M199.79,141.94h-2.93v-19.65h2.93v5.13c0.35-0.81,0.8-1.56,1.33-2.24c0.53-0.68,1.14-1.27,1.82-1.77
			c0.68-0.49,1.43-0.87,2.24-1.12c0.81-0.25,1.68-0.37,2.62-0.34v3.15h-0.23c-1.06,0-2.07,0.19-3.02,0.57s-1.78,0.95-2.49,1.71
			c-0.71,0.76-1.27,1.7-1.67,2.83s-0.61,2.43-0.61,3.89V141.94z"/>
		<path class="st0" d="M215.69,125.01c-0.95,0.27-1.88,0.61-2.79,1.04l-0.87-2.39c1.09-0.51,2.19-0.91,3.31-1.2
			c1.11-0.29,2.39-0.44,3.84-0.44c2.69,0,4.75,0.67,6.19,2s2.17,3.3,2.17,5.91v12.01h-2.81v-2.96c-0.68,0.89-1.6,1.67-2.75,2.36
			c-1.15,0.68-2.6,1.03-4.35,1.03c-0.91,0-1.8-0.13-2.68-0.38s-1.66-0.64-2.36-1.16c-0.7-0.52-1.25-1.16-1.67-1.92
			s-0.63-1.66-0.63-2.7c0-1.04,0.2-1.96,0.61-2.75s0.98-1.46,1.73-2c0.75-0.53,1.63-0.94,2.66-1.22c1.03-0.28,2.16-0.42,3.4-0.42
			c1.27,0,2.37,0.08,3.31,0.23c0.94,0.15,1.85,0.35,2.74,0.61v-0.68c0-1.77-0.51-3.11-1.54-4.01c-1.03-0.9-2.46-1.35-4.31-1.35
			C217.7,124.61,216.64,124.75,215.69,125.01z M214.76,133.09c-0.99,0.73-1.48,1.74-1.48,3c0,0.63,0.13,1.19,0.4,1.67
			c0.26,0.48,0.62,0.89,1.08,1.23c0.45,0.34,0.98,0.6,1.57,0.78c0.59,0.18,1.22,0.27,1.88,0.27c0.91,0,1.76-0.13,2.56-0.4
			c0.8-0.27,1.49-0.63,2.08-1.1c0.59-0.47,1.06-1.03,1.4-1.67c0.34-0.65,0.51-1.36,0.51-2.15v-1.9c-0.73-0.2-1.57-0.39-2.52-0.57
			c-0.95-0.18-2.03-0.27-3.24-0.27C217.15,131.99,215.74,132.35,214.76,133.09z"/>
		<path class="st0" d="M250.99,124.27c0.44-0.48,0.94-0.9,1.5-1.25c0.56-0.35,1.18-0.63,1.88-0.84c0.7-0.2,1.48-0.3,2.34-0.3
			c2.28,0,4.07,0.7,5.36,2.11s1.94,3.34,1.94,5.79v12.16h-2.93v-11.48c0-1.9-0.45-3.36-1.35-4.39c-0.9-1.03-2.15-1.54-3.74-1.54
			c-0.74,0-1.43,0.13-2.09,0.4c-0.66,0.27-1.24,0.66-1.73,1.18c-0.49,0.52-0.89,1.16-1.18,1.92c-0.29,0.76-0.44,1.62-0.44,2.58
			v11.32h-2.89v-11.55c0-1.85-0.45-3.29-1.35-4.31c-0.9-1.03-2.13-1.54-3.71-1.54c-0.79,0-1.51,0.15-2.17,0.46
			c-0.66,0.3-1.24,0.74-1.73,1.29c-0.49,0.56-0.88,1.21-1.16,1.96c-0.28,0.75-0.42,1.58-0.42,2.49v11.21h-2.93v-19.65h2.93v3.31
			c0.33-0.48,0.69-0.95,1.08-1.41c0.39-0.46,0.84-0.85,1.35-1.2c0.51-0.34,1.08-0.61,1.71-0.82c0.63-0.2,1.37-0.3,2.2-0.3
			c1.6,0,2.91,0.38,3.95,1.12c1.04,0.75,1.82,1.68,2.36,2.79C250.15,125.26,250.55,124.75,250.99,124.27z"/>
		<path class="st0" d="M273.36,136.03c0.4,0.82,0.92,1.52,1.56,2.09c0.63,0.57,1.34,1,2.13,1.29c0.79,0.29,1.61,0.44,2.47,0.44
			c1.37,0,2.54-0.25,3.52-0.76c0.97-0.51,1.87-1.18,2.68-2.01l1.82,1.63c-0.99,1.12-2.12,2.01-3.38,2.68
			c-1.27,0.67-2.84,1.01-4.71,1.01c-1.34,0-2.61-0.25-3.8-0.74s-2.23-1.19-3.12-2.09s-1.6-1.98-2.13-3.25
			c-0.53-1.27-0.79-2.66-0.79-4.18c0-1.42,0.23-2.75,0.7-4.01c0.47-1.25,1.12-2.34,1.96-3.27s1.83-1.65,2.98-2.18
			c1.15-0.53,2.41-0.8,3.78-0.8c1.44,0,2.74,0.27,3.88,0.82c1.14,0.54,2.1,1.29,2.89,2.22c0.79,0.94,1.38,2.04,1.79,3.31
			c0.4,1.27,0.61,2.62,0.61,4.07c0,0.13,0,0.27,0,0.42c0,0.15-0.01,0.32-0.04,0.49H272.6C272.7,134.27,272.95,135.21,273.36,136.03z
			 M285.17,131.03c-0.08-0.89-0.26-1.73-0.55-2.55c-0.29-0.81-0.69-1.52-1.21-2.13c-0.52-0.61-1.15-1.1-1.89-1.46
			c-0.74-0.37-1.61-0.55-2.59-0.55c-0.86,0-1.65,0.17-2.38,0.51s-1.37,0.81-1.93,1.41c-0.55,0.6-1.01,1.3-1.36,2.11
			c-0.35,0.81-0.58,1.7-0.68,2.66H285.17z"/>
		<path class="st0" d="M312.46,138.07l5.17-15.77h3.04l-6.92,19.8h-2.55l-5.28-15.5l-5.32,15.5h-2.58l-6.88-19.8h3.12l5.17,15.77
			l5.28-15.85h2.43L312.46,138.07z"/>
		<path class="st0" d="M343.52,136.07c-0.52,1.25-1.24,2.35-2.15,3.29c-0.91,0.94-2,1.68-3.27,2.22c-1.27,0.54-2.63,0.82-4.1,0.82
			c-1.47,0-2.83-0.27-4.07-0.82c-1.24-0.54-2.32-1.28-3.23-2.2c-0.91-0.92-1.62-2.01-2.13-3.25c-0.51-1.24-0.76-2.56-0.76-3.95
			s0.25-2.72,0.76-3.97c0.51-1.25,1.22-2.35,2.13-3.29c0.91-0.94,1.99-1.68,3.25-2.22c1.25-0.54,2.63-0.82,4.12-0.82
			c1.47,0,2.83,0.27,4.09,0.82c1.25,0.54,2.34,1.28,3.25,2.2c0.91,0.92,1.62,2.01,2.13,3.25c0.51,1.24,0.76,2.56,0.76,3.95
			S344.04,134.82,343.52,136.07z M340.75,129.16c-0.37-0.93-0.88-1.75-1.54-2.44c-0.66-0.69-1.43-1.24-2.32-1.65
			s-1.85-0.61-2.89-0.61c-1.06,0-2.04,0.2-2.93,0.59c-0.89,0.39-1.64,0.94-2.26,1.63c-0.62,0.7-1.11,1.5-1.46,2.43
			c-0.36,0.92-0.53,1.91-0.53,2.97c0,1.06,0.18,2.06,0.55,3c0.37,0.94,0.87,1.74,1.52,2.43c0.65,0.68,1.41,1.23,2.3,1.63
			s1.85,0.61,2.89,0.61c1.06,0,2.04-0.2,2.93-0.59c0.89-0.39,1.65-0.93,2.28-1.61c0.63-0.68,1.13-1.48,1.48-2.41
			c0.35-0.92,0.53-1.91,0.53-2.98S341.12,130.1,340.75,129.16z"/>
		<path class="st0" d="M352.97,141.94h-2.93v-19.65h2.93v5.13c0.35-0.81,0.8-1.56,1.33-2.24c0.53-0.68,1.14-1.27,1.82-1.77
			c0.68-0.49,1.43-0.87,2.24-1.12c0.81-0.25,1.68-0.37,2.62-0.34v3.15h-0.23c-1.06,0-2.07,0.19-3.02,0.57s-1.78,0.95-2.49,1.71
			c-0.71,0.76-1.27,1.7-1.67,2.83s-0.61,2.43-0.61,3.89V141.94z"/>
		<path class="st0" d="M383.33,141.94h-3.5l-7.03-9.16l-3.99,4.03v5.13h-2.93V114.2h2.93v19.15l10.6-11.06h3.65l-8.25,8.44
			L383.33,141.94z"/>
	</g>
	<g>
		<g>
			<rect x="13.43" y="12.25" class="st0" width="143.5" height="143.5"/>
			<linearGradient id="SVGID_1_" gradientUnits="userSpaceOnUse" x1="164.7439" y1="17.7222" x2="67.5433" y2="186.0786">
				<stop  offset="0" style="stop-color:#1E284F"/>
				<stop  offset="0.0271" style="stop-color:#202C53"/>
				<stop  offset="0.069" style="stop-color:#233760"/>
				<stop  offset="0.1203" style="stop-color:#274D79"/>
				<stop  offset="0.1787" style="stop-color:#2C6FA1"/>
				<stop  offset="0.2365" style="stop-color:#379ED8"/>
				<stop  offset="0.3735" style="stop-color:#285684"/>
				<stop  offset="0.4709" style="stop-color:#22335B"/>
				<stop  offset="0.5175" style="stop-color:#1E284F"/>
				<stop  offset="0.5493" style="stop-color:#202B52"/>
				<stop  offset="0.5943" style="stop-color:#22355D"/>
				<stop  offset="0.6471" style="stop-color:#264672"/>
				<stop  offset="0.7059" style="stop-color:#2A6393"/>
				<stop  offset="0.769" style="stop-color:#328EC6"/>
				<stop  offset="0.7882" style="stop-color:#379ED8"/>
				<stop  offset="0.798" style="stop-color:#3494CC"/>
				<stop  offset="0.8495" style="stop-color:#2A6696"/>
				<stop  offset="0.8971" style="stop-color:#264873"/>
				<stop  offset="0.9396" style="stop-color:#22355E"/>
				<stop  offset="0.9754" style="stop-color:#202B52"/>
				<stop  offset="1" style="stop-color:#1E284F"/>
			</linearGradient>
			<polygon class="st1" points="156.49,155.27 14.18,155.27 156.49,12.96 			"/>
		</g>
		<g>
			<g>
				<path class="st2" d="M50.02,48.37v38.31H39.45V48.37H24.82v-9.75h39.82v9.75H50.02z"/>
				<path class="st2" d="M68.83,86.68V38.62h36.18v9.41H79.26v9.75h22.65v9.41H79.26v10.09h26.09v9.41H68.83z"/>
				<path class="st2" d="M119.51,48.17v10.37h22.93v9.54h-22.93v18.6h-10.57V38.62h36.59v9.54H119.51z"/>
			</g>
			<g>
				<path class="st2" d="M36.84,100.17c-1.35,0.96-2.68,2.36-4,4.21l-2.73-1.97c0.75-1.1,1.52-2.08,2.3-2.96
					c0.78-0.87,1.64-1.6,2.56-2.19c0.92-0.59,1.96-1.04,3.1-1.34c1.14-0.31,2.44-0.46,3.88-0.46c1.5,0,2.87,0.24,4.11,0.71
					c1.24,0.47,2.31,1.12,3.22,1.95c0.91,0.83,1.61,1.82,2.12,2.96c0.5,1.14,0.75,2.39,0.75,3.74c0,1.22-0.16,2.33-0.49,3.34
					c-0.33,1-0.84,2-1.53,2.98c-0.69,0.99-1.55,2.01-2.58,3.05c-1.03,1.05-2.27,2.2-3.71,3.45l-8.79,7.8h17.44v3.38H29.5v-2.87
					l11.94-10.54c1.25-1.13,2.32-2.15,3.2-3.06c0.88-0.91,1.59-1.76,2.14-2.57c0.55-0.8,0.94-1.58,1.18-2.35
					c0.23-0.77,0.35-1.56,0.35-2.38c0-0.97-0.18-1.84-0.54-2.61c-0.36-0.77-0.84-1.43-1.43-1.98c-0.6-0.55-1.3-0.97-2.12-1.27
					c-0.81-0.3-1.66-0.45-2.54-0.45C39.8,98.74,38.18,99.21,36.84,100.17z"/>
				<path class="st2" d="M84.12,118.9c-0.66,2.07-1.59,3.88-2.8,5.43c-1.21,1.55-2.67,2.78-4.39,3.69
					c-1.72,0.91-3.64,1.36-5.73,1.36c-2.13,0-4.05-0.45-5.76-1.34c-1.71-0.89-3.17-2.12-4.37-3.67c-1.21-1.55-2.13-3.35-2.77-5.41
					c-0.64-2.05-0.96-4.24-0.96-6.56c0-2.32,0.33-4.51,0.99-6.58c0.66-2.07,1.59-3.88,2.8-5.43c1.21-1.55,2.67-2.78,4.39-3.69
					c1.72-0.91,3.65-1.36,5.78-1.36c2.1,0,4,0.45,5.71,1.34c1.71,0.89,3.16,2.12,4.37,3.67c1.21,1.55,2.13,3.35,2.77,5.4
					c0.64,2.05,0.96,4.24,0.96,6.56C85.11,114.64,84.78,116.83,84.12,118.9z M80.55,107.22c-0.47-1.65-1.14-3.09-2.02-4.35
					c-0.88-1.25-1.94-2.26-3.17-3.01c-1.24-0.75-2.62-1.13-4.16-1.13s-2.92,0.37-4.16,1.1c-1.24,0.74-2.29,1.72-3.15,2.96
					c-0.86,1.24-1.53,2.68-2,4.32c-0.47,1.65-0.71,3.38-0.71,5.19c0,1.82,0.23,3.56,0.71,5.22c0.47,1.66,1.14,3.12,2.02,4.37
					c0.88,1.25,1.94,2.25,3.2,2.98c1.25,0.74,2.65,1.1,4.18,1.1c1.53,0,2.92-0.37,4.16-1.1c1.24-0.74,2.29-1.72,3.15-2.96
					c0.86-1.24,1.52-2.68,1.97-4.32c0.45-1.65,0.68-3.38,0.68-5.19C81.25,110.6,81.02,108.86,80.55,107.22z"/>
				<path class="st2" d="M96.15,100.17c-1.35,0.96-2.68,2.36-3.99,4.21l-2.73-1.97c0.75-1.1,1.52-2.08,2.3-2.96
					c0.78-0.87,1.64-1.6,2.56-2.19c0.92-0.59,1.96-1.04,3.1-1.34c1.14-0.31,2.44-0.46,3.88-0.46c1.5,0,2.88,0.24,4.11,0.71
					c1.24,0.47,2.31,1.12,3.22,1.95c0.91,0.83,1.61,1.82,2.12,2.96c0.5,1.14,0.75,2.39,0.75,3.74c0,1.22-0.16,2.33-0.49,3.34
					c-0.33,1-0.84,2-1.53,2.98c-0.69,0.99-1.55,2.01-2.58,3.05c-1.04,1.05-2.27,2.2-3.71,3.45l-8.79,7.8h17.44v3.38H88.82v-2.87
					l11.94-10.54c1.25-1.13,2.32-2.15,3.2-3.06c0.88-0.91,1.59-1.76,2.14-2.57c0.55-0.8,0.94-1.58,1.17-2.35
					c0.24-0.77,0.35-1.56,0.35-2.38c0-0.97-0.18-1.84-0.54-2.61c-0.36-0.77-0.84-1.43-1.43-1.98s-1.3-0.97-2.12-1.27
					s-1.66-0.45-2.54-0.45C99.11,98.74,97.5,99.21,96.15,100.17z"/>
				<path class="st2" d="M119.37,99.21v-3.29h20.97v2.73l-10.3,11.47c1.44,0.13,2.82,0.39,4.14,0.8c1.32,0.41,2.46,0.99,3.44,1.74
					s1.76,1.69,2.35,2.82s0.88,2.44,0.88,3.95c0,1.47-0.29,2.82-0.86,4.04c-0.57,1.22-1.35,2.27-2.33,3.15
					c-0.98,0.88-2.13,1.56-3.46,2.04c-1.33,0.49-2.77,0.73-4.3,0.73c-2.76,0-5.15-0.54-7.19-1.62c-2.04-1.08-3.73-2.5-5.08-4.25
					l2.68-2.4c1.28,1.57,2.7,2.77,4.25,3.62c1.55,0.85,3.34,1.27,5.38,1.27c1,0,1.94-0.15,2.82-0.45c0.88-0.3,1.64-0.73,2.28-1.29
					c0.64-0.56,1.15-1.25,1.53-2.04s0.56-1.68,0.56-2.66c0-2.07-0.85-3.65-2.56-4.75c-1.71-1.1-3.92-1.65-6.65-1.65h-2.11
					l-0.75-2.22l10.39-11.74H119.37z"/>
			</g>
		</g>
	</g>
</g>
</svg>
